<?xml version="1.0" encoding="UTF-8" standalone="no"?>
<svg
   xmlns:dc="http://purl.org/dc/elements/1.1/"
   xmlns:cc="http://creativecommons.org/ns#"
   xmlns:rdf="http://www.w3.org/1999/02/22-rdf-syntax-ns#"
   xmlns:svg="http://www.w3.org/2000/svg"
   xmlns="http://www.w3.org/2000/svg"
   xmlns:sodipodi="http://sodipodi.sourceforge.net/DTD/sodipodi-0.dtd"
   xmlns:inkscape="http://www.inkscape.org/namespaces/inkscape"
   height="138.16405mm"
   version="1.2"
   width="156.77429mm"
   id="svg8"
   sodipodi:docname="geo72.svg"
   inkscape:version="0.92.2 5c3e80d, 2017-08-06">
  <metadata
     id="metadata12">
    <rdf:RDF>
      <cc:Work
         rdf:about="">
        <dc:format>image/svg+xml</dc:format>
        <dc:type
           rdf:resource="http://purl.org/dc/dcmitype/StillImage" />
        <dc:title></dc:title>
      </cc:Work>
    </rdf:RDF>
  </metadata>
  <sodipodi:namedview
     pagecolor="#ffffff"
     bordercolor="#666666"
     borderopacity="1"
     objecttolerance="10"
     gridtolerance="10"
     guidetolerance="10"
     inkscape:pageopacity="0"
     inkscape:pageshadow="2"
     inkscape:window-width="640"
     inkscape:window-height="480"
     id="namedview10"
     showgrid="false"
     inkscape:zoom="1.2743197"
     inkscape:cx="691.37174"
     inkscape:cy="153.12894"
     inkscape:current-layer="svg8"
     fit-margin-top="0"
     fit-margin-left="0"
     fit-margin-right="0"
     fit-margin-bottom="0" />
  <defs
     id="defs2" />
  <path
     style="fill:#ffffff;stroke:#ff0000"
     d="m 380.29296,69.523443 -8.44922,0.826172 4.34375,44.371095 -7.49219,0.73242 -4.34375,-44.371093 -8.44922,0.828125 4.34375,44.371098 -9.72265,10.07617 -3.08008,5.75976 -45.58594,-24.37695 -3.47265,6.49414 45.58398,24.37891 -3.08008,5.75976 -45.58398,-24.3789 -3.47461,6.49609 45.58594,24.37695 -2.98243,13.68164 3.55079,6.63867 -39.31446,21.02344 4.00196,7.48633 39.31445,-21.02344 3.55078,6.63867 -39.31445,21.02344 4.0039,7.48633 39.31446,-21.02539 10.50976,6.29883 h 8.52344 v 44.58398 h 9.61328 v -44.58398 h 8.52344 v 44.58398 h 9.61328 v -44.58398 l 10.50977,-6.29883 4.01953,-7.51563 39.31445,21.02344 4.5332,-8.47656 -39.31445,-21.02344 4.01953,-7.51758 39.31445,21.02539 4.53321,-8.47656 -39.31446,-21.02343 -0.59765,-12.24024 -4.73242,-7.08984 37.07812,-24.75391 -5.33594,-7.99414 -37.08007,24.75391 -4.73243,-7.08789 37.08008,-24.75391 -5.33789,-7.996094 -37.07812,24.753904 -11.07618,-5.24414 -7.49218,0.73438 z m 9.96094,54.402347 5.80859,2.75 16.90234,25.32031 0.3125,6.41992 -14.35742,26.8457 -5.50976,3.30274 h -30.44532 l -5.50976,-3.30274 -11.9043,-22.25976 1.84375,-8.46094 11.72461,-21.92578 6.01367,-6.23047 z"
     id="polyline6"
     inkscape:connector-curvature="0" />
  <path
     style="fill:#ffffff;stroke:#ff0000"
     d="m 132.42191,191.39403 -30.38672,-41.82227 h -2.728509 l -5.28516,-3.83984 -30.38476,41.82226 -5.95899,-4.33008 30.38477,-41.82031 -5.28321,-3.83984 -30.38476,41.82031 -5.96094,-4.33008 30.38477,-41.82031 -0.8418,-2.5957 2.01758,-6.21289 -49.16406,-15.97461 2.27734,-7.00391 49.16406,15.97266 2.01758,-6.21094 -49.16406,-15.974613 2.27734,-7.00586 49.16211,15.974613 2.20898,-1.60351 h 6.53125 V 50.903796 h 7.367189 v 51.695314 h 6.53125 V 50.903796 h 7.36524 v 51.695314 l 2.20898,1.60351 2.01953,6.21289 49.16211,-15.974603 2.27734,7.005853 -49.16406,15.97266 2.01758,6.21289 49.16406,-15.97461 2.27734,7.00586 -49.16406,15.97461 -0.84375,2.5957 -5.28515,3.83984 30.38476,41.82032 -5.95899,4.33007 -30.38476,-41.82031 -5.2832,3.83789 30.38476,41.82227 z m -31.74414,-53.1836 13.52344,-9.73632 -5.08008,-15.86719 -16.664059,-0.0742 -5.2168,15.82617 z"
     id="polyline6-7"
     inkscape:connector-curvature="0" />
  <path
     style="fill:#ffffff;stroke:#ff0000"
     d="M 266.6289,140.99024 236.24218,99.16796 h -2.72851 l -5.28516,-3.83984 -30.38476,41.82227 -5.95899,-4.33008 30.38477,-41.82032 -5.28321,-3.83984 -30.38476,41.82032 -5.96094,-4.33008 30.38477,-41.82032 -0.8418,-2.5957 2.01758,-6.21289 -49.16406,-15.97461 2.27734,-7.00391 49.16406,15.97266 2.01758,-6.21094 -49.16406,-15.97461 2.27734,-7.00586 49.16211,15.97461 2.20898,-1.60351 h 6.53125 V 0.5 h 7.36719 v 51.69531 h 6.53125 V 0.5 h 7.36524 v 51.69531 l 2.20898,1.60351 2.01953,6.21289 49.16211,-15.9746 2.27734,7.00585 -49.16406,15.97266 2.01758,6.21289 49.16406,-15.97461 2.27734,7.00586 -49.16406,15.97461 -0.84375,2.5957 -5.28515,3.83984 30.38476,41.82033 -5.95899,4.33007 -30.38476,-41.82032 -5.2832,3.83789 30.38476,41.82228 z m -31.74414,-53.18361 13.52344,-9.73633 -5.08008,-15.86718 -16.66406,-0.0742 -5.2168,15.82617 z"
     id="polyline6-7-9"
     inkscape:connector-curvature="0" />
  <path
     inkscape:connector-curvature="0"
     style="fill:#ffffff;stroke:#ff0000"
     d="m 359.23047,207.34189 -8.44922,0.82617 4.34375,44.3711 -7.49219,0.73242 -4.34375,-44.37109 -8.44922,0.82812 4.34375,44.37109 -9.72265,10.07618 -3.08008,5.75976 -45.58594,-24.37695 -3.47266,6.49414 45.58399,24.37891 -3.08008,5.75976 -45.58398,-24.37891 -3.47461,6.4961 45.58593,24.37695 -2.98242,13.68164 3.55078,6.63867 -39.31445,21.02344 4.00195,7.48633 39.31446,-21.02344 3.55078,6.63867 -39.31445,21.02344 4.0039,7.48633 39.31445,-21.02539 10.50977,6.29883 h 8.52344 v 44.58398 h 9.61328 v -44.58398 h 8.52344 v 44.58398 h 9.61328 v -44.58398 l 10.50977,-6.29883 4.01953,-7.51563 39.31445,21.02344 4.5332,-8.47656 -39.31445,-21.02344 4.01953,-7.51758 39.31445,21.02539 4.53321,-8.47656 -39.31446,-21.02344 -0.59765,-12.24023 -4.73242,-7.08984 37.07812,-24.75391 -5.33594,-7.99414 -37.08007,24.75391 -4.73243,-7.0879 37.08008,-24.7539 -5.33789,-7.9961 -37.07812,24.75391 -11.07618,-5.24414 -7.49219,0.73438 z m 9.96094,54.40235 5.80859,2.75 16.90234,25.32031 0.3125,6.41992 -14.35742,26.8457 -5.50976,3.30274 h -30.44532 l -5.50976,-3.30274 -11.9043,-22.25976 1.84375,-8.46094 11.72461,-21.92578 6.01367,-6.23047 z"
     id="polyline6-3" />
  <path
     inkscape:connector-curvature="0"
     style="fill:#ffffff;stroke:#ff0000"
     d="m 246.09964,117.0073 -8.44922,0.82617 4.34375,44.3711 -7.49219,0.73242 -4.34375,-44.37109 -8.44922,0.82812 4.34375,44.37109 -9.72265,10.07618 -3.08008,5.75976 -45.58594,-24.37695 -3.47265,6.49414 45.58398,24.37891 -3.08008,5.75976 -45.58398,-24.37891 -3.47461,6.4961 45.58594,24.37695 -2.98242,13.68164 3.55078,6.63867 -39.31446,21.02344 4.00196,7.48633 39.31445,-21.02344 3.55078,6.63867 -39.31445,21.02344 4.00391,7.48633 39.31444,-21.02539 10.50977,6.29883 h 8.52344 v 44.58398 h 9.61328 v -44.58398 h 8.52344 v 44.58398 h 9.61328 v -44.58398 l 10.50977,-6.29883 4.01953,-7.51563 39.31445,21.02344 4.5332,-8.47656 -39.31445,-21.02344 4.01953,-7.51758 39.31445,21.02539 4.53321,-8.47656 -39.31446,-21.02344 -0.59765,-12.24023 -4.73242,-7.08984 37.07812,-24.75391 -5.33594,-7.99414 -37.08007,24.75391 -4.73243,-7.0879 37.08008,-24.7539 -5.33789,-7.9961 -37.07812,24.75391 -11.07618,-5.24414 -7.49219,0.73438 z m 9.96094,54.40235 5.80859,2.75 16.90234,25.32031 0.3125,6.41992 -14.35742,26.8457 -5.50976,3.30274 h -30.44532 l -5.50976,-3.30274 -11.9043,-22.25976 1.84375,-8.46094 11.72461,-21.92578 6.01367,-6.23047 z"
     id="polyline6-3-8" />
  <path
     inkscape:connector-curvature="0"
     style="fill:#ffffff;stroke:#ff0000"
     d="m 226.61185,252.84284 -8.44922,0.82617 4.34375,44.3711 -7.49219,0.73242 -4.34375,-44.37109 -8.44922,0.82812 4.34375,44.37109 -9.72265,10.07618 -3.08008,5.75976 -45.58594,-24.37695 -3.47265,6.49414 45.58398,24.37891 -3.08008,5.75976 -45.58398,-24.37891 -3.47461,6.4961 45.58594,24.37695 -2.98242,13.68164 3.55078,6.63867 -39.31446,21.02344 4.00196,7.48633 39.31445,-21.02344 3.55078,6.63867 -39.31445,21.02344 4.00391,7.48633 39.31444,-21.02539 10.50977,6.29883 h 8.52344 v 44.58398 h 9.61328 v -44.58398 h 8.52344 v 44.58398 h 9.61328 v -44.58398 l 10.50977,-6.29883 4.01953,-7.51563 39.31445,21.02344 4.5332,-8.47656 -39.31445,-21.02344 4.01953,-7.51758 39.31445,21.02539 4.53321,-8.47656 -39.31446,-21.02344 -0.59765,-12.24023 -4.73242,-7.08984 37.07812,-24.75391 -5.33594,-7.99414 -37.08007,24.75391 -4.73243,-7.0879 37.08008,-24.7539 -5.33789,-7.9961 -37.07812,24.75391 -11.07618,-5.24414 -7.49219,0.73438 z m 9.96094,54.40235 5.80859,2.75 16.90234,25.32031 0.3125,6.41992 -14.35742,26.8457 -5.50976,3.30274 h -30.44532 l -5.50976,-3.30274 -11.9043,-22.25976 1.84375,-8.46094 11.72461,-21.92578 6.01367,-6.23047 z"
     id="polyline6-3-8-0" />
  <path
     inkscape:connector-curvature="0"
     style="fill:#ffffff;stroke:#ff0000"
     d="m 470.26627,302.03761 -8.44922,0.82617 4.34375,44.3711 -7.49219,0.73242 -4.34375,-44.37109 -8.44922,0.82812 4.34375,44.37109 -9.72265,10.07618 -3.08008,5.75976 -45.58594,-24.37695 -3.47265,6.49414 45.58398,24.37891 -3.08008,5.75976 -45.58398,-24.37891 -3.47461,6.4961 45.58594,24.37695 -2.98242,13.68164 3.55078,6.63867 -39.31446,21.02344 4.00196,7.48633 39.31445,-21.02344 3.55078,6.63867 -39.31445,21.02344 4.0039,7.48633 39.31445,-21.02539 10.50977,6.29883 h 8.52344 v 44.58398 h 9.61328 v -44.58398 h 8.52344 v 44.58398 h 9.61328 v -44.58398 l 10.50977,-6.29883 4.01953,-7.51563 39.31445,21.02344 4.5332,-8.47656 -39.31445,-21.02344 4.01953,-7.51758 39.31445,21.02539 4.53321,-8.47656 -39.31446,-21.02344 -0.59765,-12.24023 -4.73242,-7.08984 37.07812,-24.75391 -5.33594,-7.99414 -37.08007,24.75391 -4.73243,-7.0879 37.08008,-24.7539 -5.33789,-7.9961 -37.07812,24.75391 -11.07618,-5.24414 -7.49219,0.73438 z m 9.96094,54.40235 5.80859,2.75 16.90234,25.32031 0.3125,6.41992 -14.35742,26.8457 -5.50976,3.30274 h -30.44532 l -5.50976,-3.30274 -11.9043,-22.25976 1.84375,-8.46094 11.72461,-21.92578 6.01367,-6.23047 z"
     id="polyline6-3-2" />
  <path
     inkscape:connector-curvature="0"
     style="fill:#ffffff;stroke:#ff0000"
     d="m 337.64766,347.53856 -8.44922,0.82617 4.34375,44.3711 -7.49219,0.73242 -4.34375,-44.37109 -8.44922,0.82812 4.34375,44.37109 -9.72265,10.07618 -3.08008,5.75976 -45.58594,-24.37695 -3.47265,6.49414 45.58398,24.37891 -3.08008,5.75976 -45.58398,-24.37891 -3.47461,6.4961 45.58594,24.37695 -2.98243,13.68164 3.55079,6.63867 -39.31446,21.02344 4.00196,7.48633 39.31445,-21.02344 3.55078,6.63867 -39.31445,21.02344 4.00391,7.48633 39.31444,-21.02539 10.50977,6.29883 h 8.52344 v 44.58398 h 9.61328 v -44.58398 h 8.52344 v 44.58398 h 9.61328 v -44.58398 l 10.50977,-6.29883 4.01953,-7.51563 39.31444,21.02344 4.5332,-8.47656 -39.31444,-21.02344 4.01953,-7.51758 39.31444,21.02539 4.53321,-8.47656 -39.31446,-21.02344 -0.59765,-12.24023 -4.73241,-7.08984 37.07811,-24.75391 -5.33594,-7.99414 -37.08006,24.75391 -4.73243,-7.0879 37.08007,-24.7539 -5.33789,-7.9961 -37.07811,24.75391 -11.07618,-5.24414 -7.49219,0.73438 z m 9.96094,54.40235 5.80859,2.75 16.90234,25.32031 0.3125,6.41992 -14.35742,26.8457 -5.50976,3.30274 h -30.44532 l -5.50976,-3.30274 -11.9043,-22.25976 1.84375,-8.46094 11.72461,-21.92578 6.01367,-6.23047 z"
     id="polyline6-3-8-0-4" />
  <path
     inkscape:connector-curvature="0"
     style="fill:#ffffff;stroke:#ff0000"
     d="m 108.75794,165.51254 -8.44922,0.82617 4.34375,44.3711 -7.492189,0.73242 -4.34375,-44.37109 -8.44922,0.82812 4.34375,44.37109 -9.72265,10.07618 -3.08008,5.75976 -45.58594,-24.37695 -3.47265,6.49414 45.58398,24.37891 -3.08008,5.75976 -45.58398,-24.37891 -3.47461,6.4961 45.58593,24.37695 -2.98242,13.68164 3.55078,6.63867 -39.31445,21.02344 4.00196,7.48633 39.31445,-21.02344 3.55078,6.63867 -39.31445,21.02344 4.00391,7.48633 39.31444,-21.02539 10.50977,6.29883 h 8.52344 v 44.58398 h 9.613279 v -44.58398 h 8.52344 v 44.58398 h 9.61328 v -44.58398 l 10.50977,-6.29883 4.01953,-7.51563 39.31445,21.02344 4.5332,-8.47656 -39.31445,-21.02344 4.01953,-7.51758 39.31445,21.02539 4.53321,-8.47656 -39.31446,-21.02344 -0.59765,-12.24023 -4.73242,-7.08984 37.07812,-24.75391 -5.33594,-7.99414 -37.08007,24.75391 -4.73243,-7.0879 37.08008,-24.7539 -5.33789,-7.9961 -37.07812,24.75391 -11.07618,-5.24414 -7.49219,0.73438 z m 9.96094,54.40235 5.80859,2.75 16.90234,25.32031 0.3125,6.41992 -14.35742,26.8457 -5.50976,3.30274 H 91.429811 l -5.50976,-3.30274 -11.9043,-22.25976 1.84375,-8.46094 11.72461,-21.92578 6.01367,-6.23047 z"
     id="polyline6-3-8-8" />
  <path
     inkscape:connector-curvature="0"
     style="fill:#ffffff;stroke:#ff0000"
     d="m 89.139631,305.19491 -8.44922,0.82617 4.34375,44.3711 -7.49219,0.73242 -4.34375,-44.37109 -8.44922,0.82812 4.34375,44.37109 -9.72265,10.07618 -3.08008,5.75976 -45.58594,-24.37695 -3.47265,6.49414 45.58398,24.37891 -3.08008,5.75976 -45.58398,-24.37891 -3.47461004,6.4961 45.58594004,24.37695 -2.98242,13.68164 3.55078,6.63867 -39.31446,21.02344 4.00196,7.48633 39.31445,-21.02344 3.55078,6.63867 -39.31445,21.02344 4.0039,7.48633 39.31445,-21.02539 10.50977,6.29883 h 8.52344 v 44.58398 h 9.61328 v -44.58398 h 8.52344 v 44.58398 h 9.613279 v -44.58398 l 10.50977,-6.29883 4.01953,-7.51563 39.31444,21.02344 4.5332,-8.47656 -39.31444,-21.02344 4.01953,-7.51758 39.31444,21.02539 4.53321,-8.47656 -39.31445,-21.02344 -0.59765,-12.24023 -4.73242,-7.08984 37.07811,-24.75391 -5.33594,-7.99414 -37.08006,24.75391 -4.73243,-7.0879 37.08007,-24.7539 -5.33789,-7.9961 -37.07811,24.75391 -11.07618,-5.24414 -7.492189,0.73438 z m 9.96094,54.40235 5.808589,2.75 16.90234,25.32031 0.3125,6.41992 -14.35742,26.8457 -5.50976,3.30274 H 71.811501 l -5.50976,-3.30274 -11.9043,-22.25976 1.84375,-8.46094 11.72461,-21.92578 6.01367,-6.23047 z"
     id="polyline6-3-2-3" />
  <path
     inkscape:connector-curvature="0"
     style="fill:#ffffff;stroke:#ff0000"
     d="m 489.26953,158.58009 -8.44922,0.82617 4.34375,44.37109 -7.49218,0.73242 -4.34375,-44.37109 -8.44922,0.82813 4.34375,44.37108 -9.72266,10.07618 -3.08008,5.75977 -45.58594,-24.37696 -3.47265,6.49414 45.58398,24.37891 -3.08008,5.75976 -45.58398,-24.3789 -3.47461,6.49609 45.58594,24.37696 -2.98242,13.68164 3.55078,6.63866 -39.31446,21.02344 4.00196,7.48633 39.31445,-21.02344 3.55078,6.63867 -39.31445,21.02344 4.00391,7.48633 39.31445,-21.02539 10.50976,6.29883 h 8.52344 v 44.58398 h 9.61328 v -44.58398 h 8.52344 v 44.58398 h 9.61328 v -44.58398 l 10.50977,-6.29883 4.01953,-7.51563 39.31445,21.02344 4.5332,-8.47656 -39.31445,-21.02344 4.01953,-7.51758 39.31445,21.02539 4.53321,-8.47656 -39.31446,-21.02343 -0.59765,-12.24024 -4.73242,-7.08984 37.07812,-24.75391 -5.33594,-7.99414 -37.08007,24.75391 -4.73243,-7.08789 37.08008,-24.75391 -5.33789,-7.99609 -37.07812,24.7539 -11.07618,-5.24414 -7.49218,0.73438 z m 9.96094,54.40234 5.80859,2.75 16.90234,25.32031 0.3125,6.41992 -14.35742,26.8457 -5.50976,3.30274 h -30.44531 l -5.50977,-3.30274 -11.9043,-22.25976 1.84375,-8.46094 11.72461,-21.92578 6.01368,-6.23047 z"
     id="polyline6-9" />
  <path
     inkscape:connector-curvature="0"
     style="fill:#ffffff;stroke:#ff0000"
     d="m 508.89513,17.982848 -8.44922,0.826172 4.34375,44.371096 -7.49218,0.73242 -4.34375,-44.371094 -8.44922,0.828125 4.34375,44.371089 -9.72266,10.07618 -3.08008,5.759769 -45.58594,-24.37696 -3.47265,6.494141 45.58398,24.378909 -3.08008,5.75976 -45.58398,-24.378899 -3.47461,6.49609 45.58594,24.376959 -2.98242,13.681645 3.55078,6.63865 -39.31446,21.02344 4.00196,7.48633 39.31445,-21.02344 3.55078,6.63867 -39.31445,21.02344 4.00391,7.48633 39.31445,-21.02539 10.50976,6.29883 h 8.52344 v 44.58398 h 9.61328 v -44.58398 h 8.52344 v 44.58398 h 9.61328 v -44.58398 l 10.50977,-6.29883 4.01953,-7.51563 39.31445,21.02344 4.5332,-8.47656 -39.31445,-21.02344 4.01953,-7.51758 39.31445,21.02539 4.53321,-8.47656 -39.31446,-21.02342 -0.59765,-12.240245 -4.73242,-7.08984 37.07812,-24.753909 -5.33594,-7.99414 -37.08007,24.753909 -4.73243,-7.087889 37.08008,-24.753911 -5.33789,-7.99609 -37.07812,24.7539 -11.07618,-5.244139 -7.49218,0.73438 z m 9.96094,54.402348 5.80859,2.75 16.90234,25.320314 0.3125,6.41992 -14.35742,26.84569 -5.50976,3.30274 h -30.44531 l -5.50977,-3.30274 -11.9043,-22.25975 1.84375,-8.46094 11.72461,-21.925785 6.01368,-6.230469 z"
     id="polyline6-9-0" />
</svg>
