<?xml version="1.0" encoding="UTF-8" standalone="no"?>
<svg
   xmlns:dc="http://purl.org/dc/elements/1.1/"
   xmlns:cc="http://creativecommons.org/ns#"
   xmlns:rdf="http://www.w3.org/1999/02/22-rdf-syntax-ns#"
   xmlns:svg="http://www.w3.org/2000/svg"
   xmlns="http://www.w3.org/2000/svg"
   xmlns:sodipodi="http://sodipodi.sourceforge.net/DTD/sodipodi-0.dtd"
   xmlns:inkscape="http://www.inkscape.org/namespaces/inkscape"
   height="36mm"
   version="1.2"
   width="37mm"
   id="svg8"
   sodipodi:docname="geo_p1.svg"
   inkscape:version="0.92.2 5c3e80d, 2017-08-06">
  <metadata
     id="metadata12">
    <rdf:RDF>
      <cc:Work
         rdf:about="">
        <dc:format>image/svg+xml</dc:format>
        <dc:type
           rdf:resource="http://purl.org/dc/dcmitype/StillImage" />
        <dc:title></dc:title>
      </cc:Work>
    </rdf:RDF>
  </metadata>
  <sodipodi:namedview
     pagecolor="#ffffff"
     bordercolor="#666666"
     borderopacity="1"
     objecttolerance="10"
     gridtolerance="10"
     guidetolerance="10"
     inkscape:pageopacity="0"
     inkscape:pageshadow="2"
     inkscape:window-width="640"
     inkscape:window-height="480"
     id="namedview10"
     showgrid="false"
     inkscape:zoom="3.4689815"
     inkscape:cx="149.72691"
     inkscape:cy="34.723369"
     inkscape:current-layer="svg8" />
  <defs
     id="defs2" />
  <path
     d="M 92.458984 0 L 75.003906 24.023438 L 55.294922 24.023438 L 50.134766 27.773438 L 32.679688 3.7480469 L 26.373047 8.3300781 L 43.828125 32.355469 L 38.667969 36.103516 L 21.212891 12.080078 L 14.90625 16.662109 L 32.361328 40.685547 L 26.271484 59.429688 L 28.242188 65.496094 L 0 74.671875 L 2.4082031 82.085938 L 30.650391 72.910156 L 32.623047 78.976562 L 4.3789062 88.152344 L 6.7890625 95.566406 L 35.03125 86.388672 L 50.976562 97.974609 L 57.353516 97.974609 L 57.353516 127.66992 L 65.148438 127.66992 L 65.148438 97.974609 L 71.527344 97.974609 L 71.527344 127.66992 L 79.322266 127.66992 L 79.322266 97.974609 L 95.267578 86.388672 L 97.238281 80.324219 L 125.48047 89.5 L 127.88867 82.085938 L 99.646484 72.910156 L 101.61719 66.84375 L 129.85938 76.021484 L 132.26953 68.607422 L 104.02734 59.429688 L 97.935547 40.685547 L 92.777344 36.9375 L 110.23047 12.912109 L 103.92383 8.3300781 L 86.470703 32.355469 L 81.310547 28.605469 L 98.765625 4.5820312 L 92.458984 0 z M 57.695312 31.402344 L 72.605469 31.402344 L 91.658203 45.246094 L 96.267578 59.429688 L 88.990234 81.828125 L 76.923828 90.595703 L 53.375 90.595703 L 41.308594 81.828125 L 34.03125 59.429688 L 38.638672 45.246094 L 57.695312 31.402344 z "
     id="polyline6"
     style="stroke:#ff0000;fill:none" />
</svg>
