<?xml version="1.0" encoding="UTF-8" standalone="no"?>
<svg
   xmlns:dc="http://purl.org/dc/elements/1.1/"
   xmlns:cc="http://creativecommons.org/ns#"
   xmlns:rdf="http://www.w3.org/1999/02/22-rdf-syntax-ns#"
   xmlns:svg="http://www.w3.org/2000/svg"
   xmlns="http://www.w3.org/2000/svg"
   xmlns:sodipodi="http://sodipodi.sourceforge.net/DTD/sodipodi-0.dtd"
   xmlns:inkscape="http://www.inkscape.org/namespaces/inkscape"
   height="43.785439mm"
   version="1.2"
   width="44.377136mm"
   id="svg20"
   sodipodi:docname="geo_square.svg"
   inkscape:version="0.92.2 5c3e80d, 2017-08-06">
  <metadata
     id="metadata24">
    <rdf:RDF>
      <cc:Work
         rdf:about="">
        <dc:format>image/svg+xml</dc:format>
        <dc:type
           rdf:resource="http://purl.org/dc/dcmitype/StillImage" />
        <dc:title></dc:title>
      </cc:Work>
    </rdf:RDF>
  </metadata>
  <sodipodi:namedview
     pagecolor="#ffffff"
     bordercolor="#666666"
     borderopacity="1"
     objecttolerance="10"
     gridtolerance="10"
     guidetolerance="10"
     inkscape:pageopacity="0"
     inkscape:pageshadow="2"
     inkscape:window-width="640"
     inkscape:window-height="480"
     id="namedview22"
     showgrid="false"
     inkscape:snap-intersection-paths="true"
     inkscape:zoom="2.8033604"
     inkscape:cx="82.812064"
     inkscape:cy="62.292935"
     inkscape:current-layer="svg20"
     fit-margin-top="0"
     fit-margin-left="0"
     fit-margin-right="0"
     fit-margin-bottom="0" />
  <defs
     id="defs2" />
  <path
     style="fill:#ffccaa;stroke:#ff0000;stroke-width:1px;stroke-linecap:butt;stroke-linejoin:miter;stroke-opacity:1"
     d="M 73.23242,0.5 V 39.707031 H 62.60156 V 61.484375 H 0.5 V 72.113281 H 30.19531 V 82.74414 H 0.5 V 93.375 h 29.69531 v 10.62891 h 32.40625 v 60.98437 h 10.63086 v -39.20703 h 10.62891 v 39.20703 h 10.63085 v -39.20703 h 10.62891 v -21.77734 h 62.10352 V 93.375 H 137.52734 V 82.74414 h 29.69727 V 72.113281 H 137.52734 V 61.484375 H 105.12109 V 0.5 H 94.49218 V 39.707031 H 83.86133 V 0.5 Z m 0,49.83789 H 94.49218 V 61.484375 H 73.23242 Z M 40.82422,72.113281 H 62.60156 V 93.375 H 40.82422 Z m 32.4082,0 H 94.49218 V 93.375 H 73.23242 Z m 31.88867,0 h 21.77735 V 93.375 H 105.12109 Z M 73.23242,104.00391 h 21.25976 v 11.14648 H 73.23242 Z"
     id="path51-3"
     inkscape:connector-curvature="0" />
</svg>
