<?xml version="1.0" encoding="UTF-8" standalone="no"?>
<svg
   xmlns:dc="http://purl.org/dc/elements/1.1/"
   xmlns:cc="http://creativecommons.org/ns#"
   xmlns:rdf="http://www.w3.org/1999/02/22-rdf-syntax-ns#"
   xmlns:svg="http://www.w3.org/2000/svg"
   xmlns="http://www.w3.org/2000/svg"
   xmlns:sodipodi="http://sodipodi.sourceforge.net/DTD/sodipodi-0.dtd"
   xmlns:inkscape="http://www.inkscape.org/namespaces/inkscape"
   height="54.283474mm"
   version="1.2"
   width="75.746101mm"
   id="svg8"
   sodipodi:docname="geov2.svg"
   inkscape:version="0.92.2 5c3e80d, 2017-08-06">
  <metadata
     id="metadata12">
    <rdf:RDF>
      <cc:Work
         rdf:about="">
        <dc:format>image/svg+xml</dc:format>
        <dc:type
           rdf:resource="http://purl.org/dc/dcmitype/StillImage" />
        <dc:title></dc:title>
      </cc:Work>
    </rdf:RDF>
  </metadata>
  <sodipodi:namedview
     pagecolor="#ffffff"
     bordercolor="#666666"
     borderopacity="1"
     objecttolerance="10"
     gridtolerance="10"
     guidetolerance="10"
     inkscape:pageopacity="0"
     inkscape:pageshadow="2"
     inkscape:window-width="640"
     inkscape:window-height="480"
     id="namedview10"
     showgrid="false"
     inkscape:zoom="2.4529403"
     inkscape:cx="151.90838"
     inkscape:cy="54.301995"
     inkscape:current-layer="svg8"
     fit-margin-top="0"
     fit-margin-left="0"
     fit-margin-right="0"
     fit-margin-bottom="0" />
  <defs
     id="defs2" />
  <path
     d="M 93.088982,28.646663 75.633901,52.670101 H 55.924917 l -5.160156,3.75 -17.455078,-24.025392 -6.306641,4.582032 17.455078,24.025391 -5.160156,3.748047 -17.455078,-24.023438 -6.306641,4.582031 17.455078,24.023438 -6.089844,18.744141 1.970704,6.066406 -28.24218776,9.175783 2.40820296,7.41406 28.2421878,-9.17578 1.972656,6.06641 -28.2441408,9.17578 2.410156,7.41406 28.2421878,-9.17773 15.945312,11.58592 h 6.376954 v 29.69531 h 7.794922 v -29.69531 h 6.378906 v 29.69531 h 7.794922 v -29.69531 l 15.945311,-11.58592 1.9707,-6.06446 28.242188,9.17578 2.4082,-7.41406 -28.24218,-9.17578 1.9707,-6.066407 28.24219,9.177737 2.41015,-7.414065 -28.24219,-9.177734 -6.091788,-18.744141 -5.1582,-3.748047 17.453118,-24.025391 -6.30664,-4.582031 -17.453122,24.025391 -5.160156,-3.75 17.45508,-24.023438 z M 58.325307,60.049007 h 14.910157 l 19.052738,13.84375 4.60937,14.183594 -7.277343,22.398439 -12.066406,8.76758 H 54.004995 L 41.938589,110.47479 34.661245,88.076351 39.268667,73.892757 Z"
     id="polyline6"
     style="fill:none;stroke:#ff0000"
     inkscape:connector-curvature="0" />
  <path
     style="fill:#ffffff;stroke:#ff0000"
     d="m 144.94373,0.5 v 39.207031 l -8.76367,9.88086 v 6.378906 h -29.69532 v 7.794922 h 29.69532 v 6.378906 h -29.69532 v 7.794922 h 29.69532 l 8.76367,9.880859 h 6.37695 v 39.208984 h 7.79492 V 87.816406 h 6.37891 v 39.208984 h 7.79492 V 87.816406 l 8.76367,-9.880859 v -6.378906 h 29.69532 V 63.761719 H 182.0531 v -6.376953 h 29.69532 V 49.587891 H 182.0531 l -8.76367,-9.88086 h -6.37695 V 0.5 h -7.79688 v 39.207031 h -6.37695 V 0.5 Z m 3.81836,47.699219 h 20.71094 l 4.09179,4.613281 v 21.900391 l -4.09179,4.613281 h -20.71094 l -4.0918,-4.613281 V 52.8125 Z"
     id="polyline6-7"
     inkscape:connector-curvature="0" />
  <path
     style="fill:#ffffff;stroke:#ff0000"
     d="m 218.97978,33.721007 v 39.207031 l -8.76367,9.88086 v 6.378906 h -29.69727 v 7.794922 h 29.69727 v 6.378904 h -29.69727 v 7.79492 h 29.69727 l 8.76367,9.88086 h 6.37695 v 39.20703 h 7.79493 v -39.20703 h 6.3789 v 39.20703 h 7.79492 v -39.20703 l 8.76368,-9.88086 v -6.3789 h 29.69531 v -7.794924 h -29.69531 v -6.376953 h 29.69531 v -7.796875 h -29.69531 l -8.76368,-9.88086 h -6.3789 V 33.721007 h -7.79492 V 72.928038 H 226.7747 V 33.721007 Z m 3.81641,47.699219 h 20.71094 l 4.09179,4.613281 V 107.9339 l -4.09179,4.61328 h -20.71094 l -4.0918,-4.61328 V 86.033507 Z"
     id="polyline6-7-9"
     inkscape:connector-curvature="0" />
  <polyline
     transform="translate(109.41872,119.96129)"
     points="49.6796,19.6042 83.6352,0.0 87.5328,6.7509 53.5773,26.3551 56.7663,31.8786 90.7218,12.2744 94.6194,19.0253 60.6639,38.6295 63.8529,44.153 63.0774,45.4961 63.0774,84.7046 55.2822,84.7046 55.2822,45.4961 48.9042,45.4961 48.9042,84.7046 41.1089,84.7046 41.1089,45.4961 34.731,45.4961 33.9555,44.153 0.0,24.5488 3.8976,17.7978 37.8532,37.4021 41.0421,31.8786 7.0866,12.2744 10.9843,5.5235 44.9398,25.1277 48.1288,19.6042 49.6796,19.6042"
     id="polyline6-8"
     style="fill:#ffffff;stroke:#ff0000" />
</svg>
