<?xml version="1.0" encoding="UTF-8" standalone="no"?>
<svg
   xmlns:dc="http://purl.org/dc/elements/1.1/"
   xmlns:cc="http://creativecommons.org/ns#"
   xmlns:rdf="http://www.w3.org/1999/02/22-rdf-syntax-ns#"
   xmlns:svg="http://www.w3.org/2000/svg"
   xmlns="http://www.w3.org/2000/svg"
   xmlns:sodipodi="http://sodipodi.sourceforge.net/DTD/sodipodi-0.dtd"
   xmlns:inkscape="http://www.inkscape.org/namespaces/inkscape"
   height="29mm"
   version="1.2"
   width="33mm"
   id="svg8"
   sodipodi:docname="geov4.svg"
   inkscape:version="0.92.2 5c3e80d, 2017-08-06"
   viewBox="0 0 124.72441 109.6063">
  <metadata
     id="metadata12">
    <rdf:RDF>
      <cc:Work
         rdf:about="">
        <dc:format>image/svg+xml</dc:format>
        <dc:type
           rdf:resource="http://purl.org/dc/dcmitype/StillImage" />
        <dc:title></dc:title>
      </cc:Work>
    </rdf:RDF>
  </metadata>
  <sodipodi:namedview
     pagecolor="#ffffff"
     bordercolor="#666666"
     borderopacity="1"
     objecttolerance="10"
     gridtolerance="10"
     guidetolerance="10"
     inkscape:pageopacity="0"
     inkscape:pageshadow="2"
     inkscape:window-width="640"
     inkscape:window-height="480"
     id="namedview10"
     showgrid="false"
     inkscape:zoom="2"
     inkscape:cx="297.30664"
     inkscape:cy="106.13911"
     inkscape:current-layer="svg8"
     inkscape:snap-global="false"
     scale-x="1" />
  <defs
     id="defs2" />
  <polyline
     points="60.3096,28.81 110.21,0.0 113.0269,4.8791 63.1265,33.6891 65.6245,38.0158 115.5249,9.2058 118.3419,14.0848 68.4415,42.8949 70.9395,47.2216 71.0499,47.0304 71.0499,104.6504 65.416,104.6504 65.416,47.0304 60.4199,47.0304 60.4199,104.6504 54.7861,104.6504 54.7861,47.0304 49.79,47.0304 49.9004,47.2216 0.0,18.4116 2.8169,13.5325 52.7173,42.3425 55.2154,38.0158 5.315,9.2058 8.1319,4.3267 58.0323,33.1367 60.5303,28.81 60.3096,28.81"
     id="polyline6"
     transform="rotate(90,304.97059,186.51261)"
     style="fill:#ffffff;stroke:#ff0000" />
  <path
     style="fill:#ffffff;stroke:#ff0000"
     d="M 18.369847,4.6019712 V 42.019941 l -21.58789,31.15821 v 4.99609 h -57.621094 v 5.63477 h 57.621094 v 4.99609 h -57.621094 v 5.63281 h 57.621094 l 21.58789,31.160159 h 4.996094 v 37.41797 h 5.632813 v -37.41797 h 4.996093 v 37.41797 h 5.634766 V 125.59807 L 61.21555,94.437911 v -4.99609 h 57.6211 v -5.63281 h -57.6211 v -4.9961 h 57.6211 v -5.63476 H 61.21555 L 39.629613,42.019941 H 34.633519 V 4.6019712 H 28.998754 V 42.019941 H 24.00266 V 4.6019712 Z m 5.294922,47.5273498 h 10.669922 l 16.771485,24.20898 v 14.93946 L 34.334691,115.48869 H 23.664769 L 6.8913322,91.277761 v -14.93946 z"
     id="polyline6-7"
     inkscape:connector-curvature="0" />
  <path
     style="fill:#ffffff;stroke:#ff0000"
     d="m 167.66602,-161.45117 -21.99415,30.27344 H 86.308589 l -4.04101,2.93554 -21.99414,-30.27148 -4.5586,3.31055 21.99414,30.27343 -4.04101,2.93555 -21.99414,-30.27148 -4.5586,3.31054 21.99415,30.27344 -18.34376,56.457031 1.54493,4.751953 -35.58789,11.5625 1.74023,5.357422 35.58789,-11.5625 1.54297,4.751953 -35.58594,11.5625 1.74024,5.357422 35.58789,-11.5625 48.025391,34.8925781 h 4.99609 V 30.304688 h 5.63281 V -7.1132809 h 4.9961 V 30.304688 h 5.63476 V -7.1132809 l 48.02344,-34.8925781 1.54492,-4.751953 35.58789,11.564453 1.74024,-5.359375 -35.58789,-11.5625 1.54492,-4.751954 35.58594,11.5625 1.74218,-5.357421 -35.58789,-11.5625 -18.34375,-56.457031 -4.04101,-2.9375 21.99414,-30.27148 -4.5586,-3.3125 -21.99414,30.27343 -4.04296,-2.9375 21.99609,-30.27148 z m -77.931641,40.80469 H 142.25 l 11.66211,8.47461 16.22851,49.947261 -4.45507,13.708984 -42.48633,30.871094 H 108.7832 l -42.488281,-30.871094 -4.45508,-13.708984 16.22852,-49.947261 z"
     id="polyline6-9"
     inkscape:connector-curvature="0" />
  <polyline
     points="60.3096,28.81 110.21,0.0 113.0269,4.8791 63.1265,33.6891 65.6245,38.0158 115.5249,9.2058 118.3419,14.0848 68.4415,42.8949 70.9395,47.2216 71.0499,47.0304 71.0499,104.6504 65.416,104.6504 65.416,47.0304 60.4199,47.0304 60.4199,104.6504 54.7861,104.6504 54.7861,47.0304 49.79,47.0304 49.9004,47.2216 0.0,18.4116 2.8169,13.5325 52.7173,42.3425 55.2154,38.0158 5.315,9.2058 8.1319,4.3267 58.0323,33.1367 60.5303,28.81 60.3096,28.81"
     id="polyline6-2"
     transform="rotate(150,234.33994,25.333282)"
     style="fill:#ffffff;stroke:#ff0000" />
  <polyline
     points="60.3096,28.81 110.21,0.0 113.0269,4.8791 63.1265,33.6891 65.6245,38.0158 115.5249,9.2058 118.3419,14.0848 68.4415,42.8949 70.9395,47.2216 71.0499,47.0304 71.0499,104.6504 65.416,104.6504 65.416,47.0304 60.4199,47.0304 60.4199,104.6504 54.7861,104.6504 54.7861,47.0304 49.79,47.0304 49.9004,47.2216 0.0,18.4116 2.8169,13.5325 52.7173,42.3425 55.2154,38.0158 5.315,9.2058 8.1319,4.3267 58.0323,33.1367 60.5303,28.81 60.3096,28.81"
     id="polyline6-73"
     transform="rotate(90,272.33535,88.10887)"
     style="fill:#ffffff;stroke:#ff0000" />
  <polyline
     points="60.3096,28.81 110.21,0.0 113.0269,4.8791 63.1265,33.6891 65.6245,38.0158 115.5249,9.2058 118.3419,14.0848 68.4415,42.8949 70.9395,47.2216 71.0499,47.0304 71.0499,104.6504 65.416,104.6504 65.416,47.0304 60.4199,47.0304 60.4199,104.6504 54.7861,104.6504 54.7861,47.0304 49.79,47.0304 49.9004,47.2216 0.0,18.4116 2.8169,13.5325 52.7173,42.3425 55.2154,38.0158 5.315,9.2058 8.1319,4.3267 58.0323,33.1367 60.5303,28.81 60.3096,28.81"
     id="polyline6-2-7"
     transform="rotate(150,120.53626,-72.023557)"
     style="fill:#ffffff;stroke:#ff0000" />
  <polyline
     points="60.3096,28.81 110.21,0.0 113.0269,4.8791 63.1265,33.6891 65.6245,38.0158 115.5249,9.2058 118.3419,14.0848 68.4415,42.8949 70.9395,47.2216 71.0499,47.0304 71.0499,104.6504 65.416,104.6504 65.416,47.0304 60.4199,47.0304 60.4199,104.6504 54.7861,104.6504 54.7861,47.0304 49.79,47.0304 49.9004,47.2216 0.0,18.4116 2.8169,13.5325 52.7173,42.3425 55.2154,38.0158 5.315,9.2058 8.1319,4.3267 58.0323,33.1367 60.5303,28.81 60.3096,28.81"
     id="polyline6-73-9"
     transform="rotate(90,237.33535,-6.8911308)"
     style="fill:#ffffff;stroke:#ff0000" />
  <polyline
     points="60.3096,28.81 110.21,0.0 113.0269,4.8791 63.1265,33.6891 65.6245,38.0158 115.5249,9.2058 118.3419,14.0848 68.4415,42.8949 70.9395,47.2216 71.0499,47.0304 71.0499,104.6504 65.416,104.6504 65.416,47.0304 60.4199,47.0304 60.4199,104.6504 54.7861,104.6504 54.7861,47.0304 49.79,47.0304 49.9004,47.2216 0.0,18.4116 2.8169,13.5325 52.7173,42.3425 55.2154,38.0158 5.315,9.2058 8.1319,4.3267 58.0323,33.1367 60.5303,28.81 60.3096,28.81"
     id="polyline6-2-7-0"
     transform="rotate(150,177.51573,-25.673852)"
     style="fill:#ffffff;stroke:#ff0000" />
  <path
     style="fill:#ffffff;stroke:#ff0000"
     d="m 223.67208,-76.707524 -0.60038,37.414748 -48.58014,34.1169874 -1.61988,4.72473961 -35.39646,-12.13239901 -1.82793,5.3290979 35.39759,12.1339941 -1.61987,4.724748 -35.39647,-12.1323985 -1.82792,5.3290886 35.3976,12.1339969 17.43504,56.744243 3.99532,3.000883 -22.47832,29.915115 4.50311,3.38413 22.47833,-29.915119 3.99371,3.002005 -22.47672,29.914004 4.50312,3.38412 22.47832,-29.915115 59.35504,0.953524 4.08857,-2.87133 21.50468,30.621121 4.60963,-3.23726 -21.50468,-30.621123 4.08857,-2.871336 21.50468,30.621119 4.61122,-3.23838 -21.50468,-30.621121 19.24685,-56.154262 -1.46673,-4.776671 35.76975,-10.9890916 -1.65599,-5.3860094 -35.76861,10.990695 -1.46673,-4.7766634 35.76701,-10.9895743 -1.65327,-5.3855203 -35.76861,10.9906915 -47.4584,-35.6593675 -4.9952,-0.08148 0.6015,-37.413138 -5.6343,-0.0909 -0.60037,37.414734 -4.9968,-0.08036 0.60309,-37.414259 z m -40.32455,78.1811658 42.97634,-30.1815328 14.41421,0.232833 41.98612,31.5477358 4.23294,13.7791912 -17.02674,49.681006 -11.7974,8.285108 -52.51252,-0.844794 -11.52459,-8.658391 -15.4248,-50.20129 z"
     id="polyline6-9-2"
     inkscape:connector-curvature="0" />
</svg>
