<?xml version="1.0" encoding="UTF-8" standalone="no"?>
<svg
   xmlns:dc="http://purl.org/dc/elements/1.1/"
   xmlns:cc="http://creativecommons.org/ns#"
   xmlns:rdf="http://www.w3.org/1999/02/22-rdf-syntax-ns#"
   xmlns:svg="http://www.w3.org/2000/svg"
   xmlns="http://www.w3.org/2000/svg"
   xmlns:sodipodi="http://sodipodi.sourceforge.net/DTD/sodipodi-0.dtd"
   xmlns:inkscape="http://www.inkscape.org/namespaces/inkscape"
   height="119.74762mm"
   version="1.2"
   width="179.0401mm"
   id="svg8"
   sodipodi:docname="geov3.svg"
   inkscape:version="0.92.2 5c3e80d, 2017-08-06">
  <metadata
     id="metadata12">
    <rdf:RDF>
      <cc:Work
         rdf:about="">
        <dc:format>image/svg+xml</dc:format>
        <dc:type
           rdf:resource="http://purl.org/dc/dcmitype/StillImage" />
        <dc:title></dc:title>
      </cc:Work>
    </rdf:RDF>
  </metadata>
  <sodipodi:namedview
     pagecolor="#ffffff"
     bordercolor="#666666"
     borderopacity="1"
     objecttolerance="10"
     gridtolerance="10"
     guidetolerance="10"
     inkscape:pageopacity="0"
     inkscape:pageshadow="2"
     inkscape:window-width="640"
     inkscape:window-height="480"
     id="namedview10"
     showgrid="false"
     inkscape:zoom="0.90509668"
     inkscape:cx="351.85926"
     inkscape:cy="49.989912"
     inkscape:current-layer="svg8"
     fit-margin-top="0"
     fit-margin-left="0"
     fit-margin-right="0"
     fit-margin-bottom="0" />
  <defs
     id="defs2" />
  <path
     d="m 56.73313,297.96648 29.028447,23.61046 10.808411,38.90156 6.459352,5.25375 -36.357248,44.70029 7.285146,5.92542 36.357242,-44.70029 6.45935,5.25375 -36.357241,44.70029 7.283626,5.92418 36.357245,-44.70029 40.28759,2.65767 5.25499,-6.46086 29.02844,23.61046 5.92419,-7.28363 -29.02845,-23.61046 5.25375,-6.45935 29.02845,23.61046 5.92541,-7.28515 -29.02844,-23.61046 -10.80842,-38.90155 -6.45935,-5.25375 36.35725,-44.7003 -7.28363,-5.92418 -36.35724,44.70029 -6.46088,-5.25498 36.35725,-44.70029 -7.28363,-5.92418 -36.35724,44.70029 -40.28759,-2.65768 -5.25375,6.45935 -29.028448,-23.61046 -5.925416,7.28515 29.028446,23.61045 -5.253751,6.45936 -29.028447,-23.61046 z m 40.492804,26.00411 15.572696,-19.14623 31.61667,2.08543 22.34181,18.17184 8.48192,30.529 -15.5727,19.14623 -31.61667,-2.08543 -22.34181,-18.17184 z"
     id="polyline6"
     style="fill:none;stroke:#ff0000"
     inkscape:connector-curvature="0" />
  <path
     style="fill:#ffffff;stroke:#ff0000"
     d="m 204.32116,88.342971 9.60614,36.163889 -39.26572,48.27619 -0.45345,8.31438 -37.36242,-2.03826 -0.51208,9.37696 37.36242,2.03827 -0.45344,8.31437 -37.36242,-2.03827 -0.51236,9.37422 37.36393,2.0395 33.77969,52.26319 7.76699,2.99913 -13.48412,34.90577 8.75891,3.38296 13.48289,-34.90426 7.7685,3.00036 -13.48564,34.90455 8.76043,3.38418 13.48289,-34.90425 60.14343,-15.9756 5.25498,-6.46087 29.02845,23.61045 5.92418,-7.28362 -29.02845,-23.61046 5.25499,-6.46087 29.02845,23.61046 5.92418,-7.28363 -29.02845,-23.61046 3.38963,-62.13664 -4.51836,-6.99323 31.42575,-20.31284 -5.09743,-7.88466 -31.42726,20.31161 -4.51837,-6.99322 31.42576,-20.31285 -5.09743,-7.88466 -31.42575,20.31284 -58.04703,-22.42713 -8.04769,2.13756 -9.60766,-36.165119 -9.07454,2.41262 9.60615,36.163889 -8.0477,2.13756 -9.60614,-36.163889 z m -19.45323,88.383519 34.99913,-43.03053 27.71084,-7.36023 51.73875,19.9901 15.56217,24.07741 -3.02111,55.38458 -18.09174,22.24333 -53.60799,14.23943 -26.74258,-10.3314 -30.10877,-46.58359 z"
     id="polyline6-7"
     inkscape:connector-curvature="0" />
  <polyline
     transform="rotate(-50.876614,211.14783,-192.03243)"
     style="fill:#ffffff;stroke:#ff0000"
     points="69.1678,28.81 119.0682,0.0 123.7631,8.1318 73.8627,36.9418 78.0261,44.153 127.9265,15.343 132.6214,23.4747 82.721,52.2848 86.8844,59.496 86.1089,60.8391 86.1089,118.4591 76.7192,118.4591 76.7192,60.8391 68.3924,60.8391 68.3924,118.4591 59.0026,118.4591 59.0026,60.8391 50.6759,60.8391 49.9004,59.496 0.0,30.6859 4.6949,22.5542 54.5953,51.3642 58.7587,44.153 8.8583,15.343 13.5531,7.2112 63.4536,36.0212 67.6169,28.81 69.1678,28.81"
     id="polyline6-9" />
  <polyline
     transform="rotate(-50.876614,156.61205,15.984207)"
     style="fill:#ffffff;stroke:#ff0000"
     points="69.1678,28.81 119.0682,0.0 123.7631,8.1318 73.8627,36.9418 78.0261,44.153 127.9265,15.343 132.6214,23.4747 82.721,52.2848 86.8844,59.496 86.1089,60.8391 86.1089,118.4591 76.7192,118.4591 76.7192,60.8391 68.3924,60.8391 68.3924,118.4591 59.0026,118.4591 59.0026,60.8391 50.6759,60.8391 49.9004,59.496 0.0,30.6859 4.6949,22.5542 54.5953,51.3642 58.7587,44.153 8.8583,15.343 13.5531,7.2112 63.4536,36.0212 67.6169,28.81 69.1678,28.81"
     id="polyline6-9-3" />
  <path
     inkscape:connector-curvature="0"
     d="m 180.10425,320.35298 29.02845,23.61046 10.8084,38.90156 6.45935,5.25375 -36.35724,44.70029 7.28514,5.92542 36.35725,-44.70029 6.45935,5.25375 -36.35724,44.70029 7.28362,5.92418 36.35725,-44.70029 40.28759,2.65767 5.25498,-6.46086 29.02845,23.61046 5.92418,-7.28363 -29.02845,-23.61046 5.25375,-6.45935 29.02845,23.61046 5.92542,-7.28514 -29.02845,-23.61046 -10.80841,-38.90156 -6.45935,-5.25375 36.35724,-44.70029 -7.28362,-5.92418 -36.35725,44.70029 -6.46087,-5.25499 36.35725,-44.70029 -7.28363,-5.92418 -36.35725,44.70029 -40.28759,-2.65768 -5.25375,6.45935 -29.02844,-23.61046 -5.92542,7.28515 29.02845,23.61046 -5.25375,6.45935 -29.02845,-23.61046 z m 40.4928,26.00411 15.5727,-19.14623 31.61667,2.08543 22.3418,18.17184 8.48193,30.529 -15.5727,19.14623 -31.61667,-2.08543 -22.34181,-18.17184 z"
     id="polyline6-8"
     style="fill:none;stroke:#ff0000" />
  <path
     inkscape:connector-curvature="0"
     d="m 0.70339075,185.25504 29.02844625,23.61045 10.808408,38.90157 6.459352,5.25375 -36.357245,44.70029 7.285143,5.92542 36.357245,-44.70029 6.459352,5.25375 -36.357245,44.70029 7.283625,5.92418 36.357245,-44.70029 40.287593,2.65767 5.25498,-6.46086 29.02845,23.61045 5.92418,-7.28362 -29.02845,-23.61046 5.25376,-6.45935 29.02844,23.61046 5.92542,-7.28515 -29.02845,-23.61046 -10.80841,-38.90156 -6.45935,-5.25375 36.35724,-44.70029 -7.28362,-5.92418 -36.35725,44.70029 -6.460866,-5.25498 36.357246,-44.70029 -7.28363,-5.92418 -36.357244,44.70029 -40.287589,-2.65768 -5.253751,6.45935 -29.028446,-23.61046 -5.925417,7.28515 29.028446,23.61046 -5.253751,6.45935 L 6.6288018,177.9699 Z m 40.49280025,26.00411 15.5727,-19.14623 31.616668,2.08543 22.341801,18.17184 8.48193,30.529 -15.5727,19.14623 -31.616671,-2.08543 -22.341807,-18.17184 z"
     id="polyline6-0"
     style="fill:none;stroke:#ff0000" />
  <path
     inkscape:connector-curvature="0"
     d="M 619.95386,153.70079 590.92541,130.09033 580.117,91.188771 l -6.45936,-5.25375 36.35726,-44.7003 -7.28515,-5.925415 -36.35725,44.700295 -6.45935,-5.25375 36.35725,-44.700295 -7.28363,-5.924181 -36.35725,44.700296 -40.28759,-2.65768 -5.25499,6.46088 -29.02844,-23.61046 -5.92418,7.28362 29.02844,23.61046 -5.25374,6.45934 -29.02845,-23.61045 -5.92541,7.28514 29.02844,23.61046 10.80842,38.901559 6.45935,5.25375 -36.35725,44.70029 7.28363,5.92418 36.35724,-44.70029 6.46087,5.25499 -36.35724,44.70029 7.28362,5.92418 36.35725,-44.70029 40.28759,2.65768 5.25375,-6.45935 29.02845,23.61046 5.92541,-7.28514 -29.02845,-23.61046 5.25375,-6.45935 29.02845,23.61046 z m -40.49281,-26.00412 -15.5727,19.14623 -31.61666,-2.08542 -22.34181,-18.17184 -8.48192,-30.528999 15.5727,-19.14623 31.61667,2.08543 22.3418,18.17183 z"
     id="polyline6-2"
     style="fill:none;stroke:#ff0000" />
  <path
     style="fill:#ffffff;stroke:#ff0000"
     d="m 472.36583,363.3243 -9.60614,-36.1639 39.26572,-48.27619 0.45345,-8.31438 37.36242,2.03827 0.51207,-9.37696 -37.36241,-2.03827 0.45344,-8.31438 37.36242,2.03827 0.51236,-9.37422 -37.36393,-2.0395 -33.77969,-52.26318 -7.76699,-2.99913 13.48412,-34.90577 -8.75892,-3.38296 -13.48288,34.90425 -7.7685,-3.00036 13.48563,-34.90454 -8.76042,-3.38419 -13.48289,34.90426 -60.14343,15.9756 -5.25498,6.46087 -29.02845,-23.61046 -5.92418,7.28363 29.02845,23.61046 -5.25499,6.46087 -29.02845,-23.61046 -5.92418,7.28362 29.02845,23.61046 -3.38963,62.13665 4.51836,6.99323 -31.42575,20.31284 5.09743,7.88466 31.42726,-20.31161 4.51837,6.99322 -31.42576,20.31285 5.09743,7.88466 31.42575,-20.31284 58.04703,22.42712 8.04769,-2.13755 9.60766,36.16511 9.07453,-2.41262 -9.60614,-36.16388 8.0477,-2.13756 9.60614,36.16388 z m 19.45323,-88.38352 -34.99913,43.03052 -27.71084,7.36024 -51.73875,-19.9901 -15.56217,-24.07742 3.02111,-55.38457 18.09174,-22.24333 53.60799,-14.23944 26.74258,10.3314 30.10877,46.5836 z"
     id="polyline6-7-4"
     inkscape:connector-curvature="0" />
  <polyline
     transform="rotate(129.12339,141.10169,287.62228)"
     style="fill:#ffffff;stroke:#ff0000"
     points="69.1678,28.81 119.0682,0.0 123.7631,8.1318 73.8627,36.9418 78.0261,44.153 127.9265,15.343 132.6214,23.4747 82.721,52.2848 86.8844,59.496 86.1089,60.8391 86.1089,118.4591 76.7192,118.4591 76.7192,60.8391 68.3924,60.8391 68.3924,118.4591 59.0026,118.4591 59.0026,60.8391 50.6759,60.8391 49.9004,59.496 0.0,30.6859 4.6949,22.5542 54.5953,51.3642 58.7587,44.153 8.8583,15.343 13.5531,7.2112 63.4536,36.0212 67.6169,28.81 69.1678,28.81"
     id="polyline6-9-8" />
  <polyline
     transform="rotate(129.12339,238.52767,312.27501)"
     style="fill:#ffffff;stroke:#ff0000"
     points="69.1678,28.81 119.0682,0.0 123.7631,8.1318 73.8627,36.9418 78.0261,44.153 127.9265,15.343 132.6214,23.4747 82.721,52.2848 86.8844,59.496 86.1089,60.8391 86.1089,118.4591 76.7192,118.4591 76.7192,60.8391 68.3924,60.8391 68.3924,118.4591 59.0026,118.4591 59.0026,60.8391 50.6759,60.8391 49.9004,59.496 0.0,30.6859 4.6949,22.5542 54.5953,51.3642 58.7587,44.153 8.8583,15.343 13.5531,7.2112 63.4536,36.0212 67.6169,28.81 69.1678,28.81"
     id="polyline6-9-3-3" />
  <path
     inkscape:connector-curvature="0"
     d="m 496.58274,131.31429 -29.02845,-23.61046 -10.8084,-38.901569 -6.45935,-5.25375 36.35723,-44.700281 -7.28514,-5.925418 -36.35724,44.700279 -6.45935,-5.25375 36.35724,-44.7002787 -7.28363,-5.924181 -36.35724,44.7002797 -40.28759,-2.65767 -5.25498,6.46087 -29.02845,-23.610463 -5.92418,7.283627 29.02844,23.610456 -5.25375,6.45935 -29.02844,-23.61046 -5.92542,7.28515 29.02845,23.61046 10.80841,38.901559 6.45935,5.25375 -36.35724,44.70029 7.28362,5.92418 36.35725,-44.70029 6.46087,5.25499 -36.35725,44.70029 7.28363,5.92418 36.35724,-44.70029 40.28759,2.65768 5.25375,-6.45936 29.02845,23.61046 5.92542,-7.28514 -29.02845,-23.61046 5.25375,-6.45935 29.02845,23.61046 z m -40.4928,-26.00412 -15.5727,19.14623 -31.61667,-2.08543 -22.34181,-18.17183 -8.48192,-30.528999 15.5727,-19.14623 31.61667,2.08542 22.34181,18.17184 z"
     id="polyline6-8-9"
     style="fill:none;stroke:#ff0000" />
  <path
     inkscape:connector-curvature="0"
     d="m 675.9836,266.41223 -29.02845,-23.61046 -10.80841,-38.90156 -6.45935,-5.25375 36.35724,-44.70029 -7.28514,-5.92541 -36.35724,44.70028 -6.45935,-5.25375 36.35724,-44.70029 -7.28363,-5.92418 -36.35724,44.70029 -40.28759,-2.65767 -5.25499,6.46086 -29.02844,-23.61046 -5.92418,7.28363 29.02844,23.61046 -5.25375,6.45935 -29.02844,-23.61046 -5.92542,7.28514 29.02845,23.61046 10.80841,38.90156 6.45935,5.25375 -36.35725,44.70029 7.28363,5.92418 36.35725,-44.70029 6.46087,5.25499 -36.35725,44.70029 7.28363,5.92418 36.35724,-44.70029 40.28759,2.65768 5.25375,-6.45935 29.02845,23.61046 5.92542,-7.28515 -29.02845,-23.61046 5.25375,-6.45935 29.02845,23.61046 z m -40.4928,-26.00411 -15.5727,19.14623 -31.61667,-2.08543 -22.34181,-18.17184 -8.48192,-30.529 15.5727,-19.14623 31.61667,2.08543 22.34181,18.17184 z"
     id="polyline6-0-0"
     style="fill:none;stroke:#ff0000" />
</svg>
