<?xml version="1.0" encoding="UTF-8" standalone="no"?>
<svg
   xmlns:dc="http://purl.org/dc/elements/1.1/"
   xmlns:cc="http://creativecommons.org/ns#"
   xmlns:rdf="http://www.w3.org/1999/02/22-rdf-syntax-ns#"
   xmlns:svg="http://www.w3.org/2000/svg"
   xmlns="http://www.w3.org/2000/svg"
   xmlns:sodipodi="http://sodipodi.sourceforge.net/DTD/sodipodi-0.dtd"
   xmlns:inkscape="http://www.inkscape.org/namespaces/inkscape"
   viewBox="0 0 1104 792"
   inkscape:version="1.0beta2 (2b71d25, 2019-12-03)"
   sodipodi:docname="pentagonalHexacontahedron.svg"
   id="svg18"
   width="11.5in"
   version="1.1"
   height="8.25in">
  <metadata
     id="metadata22">
    <rdf:RDF>
      <cc:Work
         rdf:about="">
        <dc:format>image/svg+xml</dc:format>
        <dc:type
           rdf:resource="http://purl.org/dc/dcmitype/StillImage" />
        <dc:title></dc:title>
      </cc:Work>
    </rdf:RDF>
  </metadata>
  <sodipodi:namedview
     units="in"
     fit-margin-bottom="0"
     fit-margin-right="0"
     fit-margin-left="0"
     fit-margin-top="0"
     inkscape:current-layer="svg18"
     inkscape:cy="484.16422"
     inkscape:cx="437.27716"
     inkscape:zoom="1"
     showgrid="false"
     id="namedview20"
     inkscape:window-height="480"
     inkscape:window-width="640"
     inkscape:pageshadow="2"
     inkscape:pageopacity="0"
     guidetolerance="10"
     gridtolerance="10"
     objecttolerance="10"
     borderopacity="1"
     inkscape:document-rotation="0"
     bordercolor="#666666"
     pagecolor="#ffffff" />
  <defs
     id="defs10" />
  <path
     inkscape:connector-curvature="0"
     id="polyline14-8-8-4-1-9"
     style="fill:none;stroke:#ff0000"
     d="m 146.69536,137.94381 -34.9055,-38.096585 0.40864,-0.37334 -0.18213,-0.709388 -1.71359,-6.69294 50.05658,-12.81555 -1.84653,-7.20857 -50.0566,12.81555 -1.66839,-6.52113 50.05514,-12.81685 -1.84508,-7.20726 -50.05532,12.81409 -0.13816,-0.53609 -0.70928,-0.17476 -6.7108,-1.64352 12.30387,-50.18458 -7.22663,-1.7706 -12.304033,50.18183 -6.53988,-1.60294 12.305333,-50.1833 -7.228073,-1.77189 -12.30258,50.18311 -0.53822,-0.13138 -7.78243,8.66976 -38.45082,-34.51545 -4.97079,5.53764 38.45074,34.51543 -4.49724,5.01003 -38.45081,-34.51546 -4.9708,5.53763 38.45076,34.51543 -4.49594,5.00857 -38.45079,-34.51545 -4.9708901,5.53759 38.4508201,34.51545 -3.15471,3.514423 4.62272,1.62478 6.51755,2.2915 -17.13365,48.74669 7.01933,2.46645 17.13512,-48.7454 6.34981,2.23281 -17.13238,48.74525 7.01807,2.46781 17.13512,-48.74541 6.35109,2.2314 -17.13365,48.74667 7.02082,2.46768 17.13366,-48.74666 4.30553,1.51322 0.53765,-0.49371 5.095253,-4.66745 34.90549,38.09657 5.48659,-5.02739 -34.9055,-38.09661 4.96343,-4.54692 34.90549,38.09659 z m -46.57268,-42.063303 -12.428293,11.386363 -27.82803,-9.780853 19.70336,-21.94986 16.372213,4.01443 z" />
  <path
     d="m 138.26457,35.054867 34.90549,38.09659 -0.40863,0.37333 0.18212,0.70938 1.7136,6.69294 -50.05659,12.81556 1.84654,7.208573 50.0566,-12.815563 1.66839,6.52113 -50.05514,12.816863 1.8451,7.20726 50.05529,-12.81409 0.13817,0.53607 0.70929,0.17476 6.71079,1.64353 -12.30388,50.1846 7.22664,1.77061 12.30402,-50.18187 6.53989,1.60296 -12.30533,50.18331 7.22807,1.77189 12.30257,-50.18313 0.53822,0.13139 7.78243,-8.66976 38.45083,34.51545 4.9708,-5.53763 -38.45076,-34.515453 4.49725,-5.01002 38.45082,34.515463 4.97079,-5.53764 -38.45076,-34.515433 4.49595,-5.00856 38.45078,34.515443 4.97089,-5.53759 -38.45082,-34.515443 3.15471,-3.51442 -4.62273,-1.62479 -6.51755,-2.2915 17.13367,-48.74667 -7.01935,-2.46646 -17.13512,48.74538 -6.3498,-2.23279 17.13236,-48.74525 -7.01805,-2.46779 -17.13511,48.74538 -6.35111,-2.23138 17.13366,-48.7466698 -7.02082,-2.46769 -17.13366,48.7466598 -4.30552,-1.51323 -0.53766,0.49372 -5.09525,4.66746 -34.90548,-38.09659 -5.48659,5.02742 34.90549,38.09659 -4.96343,4.54692 -34.90549,-38.09659 z m 46.57268,42.06329 12.42828,-11.38637 27.82804,9.78087 -19.70337,21.94987 -16.3722,-4.01444 z"
     style="fill:none;stroke:#ff0000"
     id="polyline14-8-8-4-1-9-0"
     inkscape:connector-curvature="0" />
  <path
     d="m 381.67555,136.2833 -34.90551,-38.096583 0.40865,-0.37334 -0.18212,-0.70938 -1.71361,-6.69294 50.0566,-12.81557 -1.84654,-7.20856 -50.05659,12.81554 -1.66841,-6.52113 50.05515,-12.81686 -1.84509,-7.20725 -50.05532,12.81409 -0.13816,-0.53609 -0.70928,-0.17474 -6.7108,-1.64354 12.30387,-50.18458 -7.22663,-1.77061 -12.30402,50.18185 -6.53988,-1.60295 12.30533,-50.18329 -7.22807,-1.7719 -12.30257,50.18312 -0.53824,-0.13139 -7.78243,8.66977 -38.45081,-34.51546 -4.9708,5.53763 38.45074,34.51545 -4.49724,5.01003 -38.4508,-34.51547 -4.9708,5.53764 38.45076,34.51543 -4.49595,5.00858 -38.45079,-34.51546 -4.97088,5.53758 38.45081,34.51546 -3.15471,3.514423 4.62273,1.62479 6.51756,2.29149 -17.13367,48.74669 7.01934,2.46645 17.13513,-48.74539 6.34979,2.2328 -17.13237,48.74525 7.01806,2.4678 17.13512,-48.74539 6.35109,2.23138 -17.13364,48.74668 7.02081,2.46769 17.13366,-48.74668 4.30553,1.51323 0.53765,-0.4937 5.09525,-4.66747 34.90549,38.09659 5.48658,-5.02741 -34.90549,-38.0966 4.96343,-4.54692 34.90549,38.09659 z m -46.57268,-42.063293 -12.4283,11.386363 -27.82803,-9.780873 19.70337,-21.94987 16.37221,4.01444 z"
     style="fill:none;stroke:#ff0000"
     id="polyline14-8-8-4-1-9-8"
     inkscape:connector-curvature="0" />
  <path
     inkscape:connector-curvature="0"
     id="polyline14-8-8-4-1-9-0-8"
     style="fill:none;stroke:#ff0000"
     d="m 373.24476,33.394347 34.9055,38.09658 -0.40864,0.37335 0.18212,0.70937 1.7136,6.69294 -50.0566,12.81557 1.84655,7.20857 50.0566,-12.81556 1.66839,6.52113 -50.05514,12.816863 1.84509,7.20726 50.0553,-12.8141 0.13818,0.5361 0.70926,0.17475 6.71081,1.64352 -12.30387,50.1846 7.22663,1.7706 12.30403,-50.18185 6.53988,1.60296 -12.30533,50.1833 7.22807,1.77189 12.30256,-50.18313 0.53824,0.13139 7.78243,-8.669773 38.45082,34.515483 4.9708,-5.53766 -38.45076,-34.515443 4.49725,-5.01002 38.45081,34.515463 4.9708,-5.53764 -38.45076,-34.515433 4.49594,-5.00857 38.45079,34.515453 4.97088,-5.5376 -38.45081,-34.515453 3.15471,-3.5144 -4.62272,-1.62479 -6.51756,-2.29151 17.13367,-48.74668 -7.01935,-2.46645 -17.13512,48.7454 -6.34979,-2.23281 17.13236,-48.74525 -7.01805,-2.4677998 -17.13513,48.7453998 -6.3511,-2.2314 17.13366,-48.7466598 -7.02083,-2.46768 -17.13364,48.7466498 -4.30553,-1.51323 -0.53766,0.49372 -5.09524,4.66746 -34.90549,-38.09658 -5.48658,5.02741 34.90548,38.09658 -4.96343,4.54693 -34.90548,-38.09659 z m 46.57267,42.06329 12.4283,-11.38636 27.82804,9.78086 -19.70337,21.94987 -16.37221,-4.01444 z" />
  <path
     d="m 146.15106,253.55187 -34.9055,-38.09658 0.40863,-0.37333 -0.18212,-0.70938 -1.71359,-6.69295 50.05658,-12.81555 -1.84653,-7.20857 -50.05661,12.81555 -1.66839,-6.52113 50.05514,-12.81686 -1.84509,-7.20726 -50.0553,12.81409 -0.13817,-0.53608 -0.70927,-0.17475 -6.7108,-1.64353 12.30387,-50.1846 -7.22663,-1.77061 -12.304033,50.18187 -6.53989,-1.60295 12.305333,-50.18333 -7.228073,-1.77188 -12.30257,50.18313 -0.53822,-0.13138 -7.78243,8.66977 -38.45083,-34.51547 -4.9708,5.53764 38.45076,34.51545 -4.49725,5.01002 -38.45082,-34.51546 -4.97079,5.53762 38.45076,34.51544 -4.49594,5.00858 -38.45078,-34.51546 -4.9708901,5.53759 38.4508201,34.51545 -3.15471,3.51442 4.62271,1.62479 6.51755,2.2915 -17.13366,48.74667 7.01935,2.46646 17.13511,-48.74539 6.34981,2.23281 -17.13237,48.74524 7.01806,2.4678 17.13512,-48.74539 6.3511,2.23139 -17.13366,48.74667 7.02082,2.46768 17.13366,-48.74666 4.30551,1.51323 0.53768,-0.49372 5.095243,-4.66746 34.90549,38.09658 5.48659,-5.02741 -34.90549,-38.09659 4.96343,-4.54692 34.90548,38.09659 z m -46.57268,-42.06329 -12.428293,11.38637 -27.82804,-9.78087 19.70336,-21.94986 16.372213,4.01444 z"
     style="fill:none;stroke:#ff0000"
     id="polyline14-8-8-4-1-9-3"
     inkscape:connector-curvature="0" />
  <path
     inkscape:connector-curvature="0"
     id="polyline14-8-8-4-1-9-0-1"
     style="fill:none;stroke:#ff0000"
     d="m 137.72027,150.66292 34.90549,38.0966 -0.40864,0.37334 0.18213,0.70938 1.71359,6.69294 -50.05659,12.81556 1.84655,7.20857 50.05659,-12.81556 1.66839,6.52113 -50.05513,12.81686 1.84508,7.20725 50.05531,-12.81409 0.13817,0.53609 0.70927,0.17476 6.7108,1.64352 -12.30387,50.1846 7.22663,1.7706 12.30403,-50.18185 6.53988,1.60296 -12.30532,50.18329 7.22806,1.7719 12.30257,-50.18313 0.53823,0.13139 7.78243,-8.66976 38.45083,34.51545 4.97079,-5.53763 -38.45075,-34.51544 4.49725,-5.01003 38.4508,34.51547 4.9708,-5.53765 -38.45075,-34.51543 4.49592,-5.00856 38.4508,34.51545 4.97089,-5.5376 -38.45082,-34.51545 3.15471,-3.51442 -4.62272,-1.62479 -6.51755,-2.2915 17.13366,-48.74668 -7.01934,-2.46646 -17.13512,48.7454 -6.3498,-2.2328 17.13236,-48.74526 -7.01805,-2.4678 -17.13513,48.7454 -6.35109,-2.23139 17.13366,-48.74667 -7.02083,-2.46769 -17.13365,48.74667 -4.30553,-1.51323 -0.53766,0.49372 -5.09523,4.66745 -34.9055,-38.09657 -5.48658,5.0274 34.90548,38.09659 -4.96343,4.54693 -34.90548,-38.09659 z m 46.57267,42.06331 12.42829,-11.38638 27.82804,9.78087 -19.70337,21.94988 -16.3722,-4.01444 z" />
  <path
     inkscape:connector-curvature="0"
     id="polyline14-8-8-4-1-9-8-8"
     style="fill:none;stroke:#ff0000"
     d="m 381.13124,251.89136 -34.90551,-38.09657 0.40865,-0.37335 -0.18212,-0.70937 -1.7136,-6.69295 50.0566,-12.81557 -1.84655,-7.20857 -50.05659,12.81556 -1.6684,-6.52114 50.05515,-12.81685 -1.8451,-7.20727 -50.05531,12.81411 -0.13817,-0.5361 -0.70927,-0.17475 -6.7108,-1.64352 12.30387,-50.1846 -7.22663,-1.77061 -12.30403,50.18185 -6.53987,-1.60295 12.30532,-50.1833 -7.22806,-1.77189 -12.30257,50.18312 -0.53824,-0.13138 -7.78243,8.66977 -38.45083,-34.51547 -4.97079,5.53764 38.45075,34.51545 -4.49725,5.01004 -38.4508,-34.51549 -4.9708,5.53764 38.45076,34.51545 -4.49594,5.00857 -38.45079,-34.51546 -4.97089,5.53758 38.45082,34.51547 -3.15471,3.51443 4.62272,1.62478 6.51756,2.2915 -17.13367,48.74667 7.01934,2.46646 17.13512,-48.74539 6.3498,2.23281 -17.13237,48.74524 7.01806,2.4678 17.13513,-48.74538 6.35109,2.23138 -17.13366,48.74666 7.02083,2.46768 17.13365,-48.74665 4.30553,1.51322 0.53766,-0.49371 5.09523,-4.66745 34.9055,38.09657 5.48659,-5.0274 -34.90549,-38.0966 4.96343,-4.54692 34.90549,38.09659 z m -46.57267,-42.06329 -12.4283,11.38636 -27.82804,-9.78085 19.70337,-21.94989 16.37221,4.01444 z" />
  <path
     d="m 372.70045,149.00241 34.90552,38.09658 -0.40866,0.37335 0.18213,0.70936 1.7136,6.69295 -50.05662,12.81558 1.84657,7.20858 50.05659,-12.81559 1.6684,6.52113 -50.05515,12.81689 1.8451,7.20726 50.0553,-12.8141 0.13816,0.5361 0.70928,0.17473 6.71081,1.64353 -12.30387,50.1846 7.22663,1.7706 12.30402,-50.18186 6.53987,1.60297 -12.30533,50.18329 7.22808,1.77189 12.30257,-50.18312 0.53823,0.1314 7.78244,-8.6698 38.45081,34.51549 4.9708,-5.53764 -38.45075,-34.51547 4.49724,-5.01002 38.45081,34.51549 4.9708,-5.53764 -38.45076,-34.51546 4.49595,-5.00856 38.45078,34.51545 4.97089,-5.5376 -38.45081,-34.51545 3.15471,-3.51441 -4.62274,-1.62478 -6.51754,-2.29152 17.13366,-48.74667 -7.01933,-2.46647 -17.13514,48.7454 -6.34979,-2.2328 17.13237,-48.74525 -7.01807,-2.4678 -17.13511,48.7454 -6.3511,-2.23139 17.13365,-48.74667 -7.02082,-2.46768 -17.13366,48.74666 -4.30552,-1.51324 -0.53766,0.49373 -5.09523,4.66745 -34.90549,-38.09658 -5.4866,5.02742 34.9055,38.09658 -4.96343,4.54693 -34.9055,-38.0966 z m 46.57268,42.0633 12.4283,-11.38637 27.82803,9.78086 -19.70337,21.94987 -16.37221,-4.01444 z"
     style="fill:none;stroke:#ff0000"
     id="polyline14-8-8-4-1-9-0-8-2"
     inkscape:connector-curvature="0" />
  <path
     inkscape:connector-curvature="0"
     id="polyline14-8-8-4-1-9-8-86"
     style="fill:none;stroke:#ff0000"
     d="m 616.65574,134.62279 -34.90551,-38.096583 0.40865,-0.37334 -0.18213,-0.70938 -1.7136,-6.69295 50.05659,-12.81556 -1.84653,-7.20857 -50.0566,12.81556 -1.6684,-6.52114 50.05514,-12.81685 -1.84509,-7.20726 -50.0553,12.8141 -0.13817,-0.5361 -0.70928,-0.17474 -6.7108,-1.64353 12.30388,-50.1846 -7.22664,-1.77059 -12.30402,50.18183 -6.53988,-1.60295 12.30533,-50.18329 -7.22807,-1.77189 -12.30257,50.18311 -0.53823,-0.13138 -7.78243,8.66977 -38.45083,-34.51547 -4.9708,5.53765 38.45076,34.51544 -4.49725,5.01003 -38.45082,-34.51547 -4.97079,5.53764 38.45076,34.51544 -4.49594,5.00856 -38.45078,-34.51545 -4.97089,5.53759 38.45082,34.51545 -3.15472,3.51442 4.62272,1.624783 6.51756,2.29151 -17.13367,48.74668 7.01935,2.46646 17.13511,-48.7454 6.34981,2.23281 -17.13237,48.74523 7.01806,2.46782 17.13512,-48.7454 6.3511,2.23139 -17.13366,48.74667 7.02083,2.46768 17.13365,-48.74666 4.30552,1.51323 0.53767,-0.49372 5.09522,-4.66745 34.90551,38.09658 5.48659,-5.0274 -34.9055,-38.0966 4.96343,-4.54693 34.90549,38.0966 z m -46.57268,-42.063303 -12.42829,11.386373 -27.82803,-9.780853 19.70336,-21.94988 16.3722,4.01443 z" />
  <path
     d="m 608.22495,31.733837 34.90549,38.09659 -0.40863,0.37334 0.18212,0.70937 1.7136,6.69295 -50.05661,12.81556 1.84656,7.20857 50.0566,-12.81557 1.66838,6.52114 -50.05514,12.816863 1.84509,7.20727 50.05531,-12.814103 0.13817,0.53609 0.70928,0.17474 6.71079,1.643543 -12.30387,50.1846 7.22663,1.7706 12.30403,-50.18186 6.53988,1.60296 -12.30533,50.1833 7.22808,1.77189 12.30257,-50.18313 0.53822,0.1314 7.78243,-8.669793 38.45083,34.515493 4.97079,-5.53765 -38.45075,-34.515463 4.49724,-5.01002 38.45081,34.515483 4.9708,-5.53765 -38.45075,-34.515443 4.49593,-5.00856 38.4508,34.515443 4.97089,-5.53759 -38.45082,-34.515453 3.1547,-3.51441 -4.62272,-1.62478 -6.51755,-2.29151 17.13366,-48.74668 -7.01934,-2.46645 -17.13512,48.74539 -6.3498,-2.23281 17.13236,-48.74523 -7.01805,-2.4678098 -17.13512,48.7453898 -6.3511,-2.23138 17.13366,-48.7466598 -7.02082,-2.46769 -17.13366,48.7466498 -4.30553,-1.51323 -0.53765,0.49372 -5.09525,4.66746 -34.90549,-38.09658 -5.48659,5.02741 34.9055,38.09658 -4.96343,4.54693 -34.90549,-38.09659 z m 46.57267,42.0633 12.42828,-11.38637 27.82805,9.78086 -19.70337,21.94987 -16.3722,-4.01444 z"
     style="fill:none;stroke:#ff0000"
     id="polyline14-8-8-4-1-9-0-8-8"
     inkscape:connector-curvature="0" />
  <path
     d="m 616.11143,250.23086 -34.90551,-38.09658 0.40864,-0.37334 -0.18211,-0.70939 -1.71361,-6.69294 50.0566,-12.81557 -1.84655,-7.20857 -50.05659,12.81555 -1.66839,-6.52113 50.05514,-12.81685 -1.84509,-7.20726 -50.0553,12.8141 -0.13817,-0.5361 -0.70928,-0.17474 -6.71081,-1.64354 12.30388,-50.18458 -7.22664,-1.77061 -12.30401,50.18184 -6.53989,-1.60295 12.30533,-50.1833 -7.22807,-1.77189 -12.30257,50.18312 -0.53822,-0.13138 -7.78244,8.66976 -38.45082,-34.51546 -4.9708,5.53765 38.45076,34.51543 -4.49725,5.01004 -38.45082,-34.51547 -4.97079,5.53763 38.45076,34.51545 -4.49595,5.00857 -38.45078,-34.51547 -4.97089,5.53759 38.45081,34.51548 -3.15471,3.51441 4.62273,1.62479 6.51756,2.2915 -17.13367,48.74668 7.01933,2.46644 17.13513,-48.74538 6.3498,2.23281 -17.13236,48.74523 7.01806,2.46782 17.13511,-48.7454 6.35111,2.23139 -17.13366,48.74666 7.02082,2.46769 17.13366,-48.74665 4.30552,1.51321 0.53766,-0.4937 5.09523,-4.66747 34.90551,38.09658 5.48658,-5.02741 -34.9055,-38.09657 4.96343,-4.54693 34.9055,38.09657 z m -46.57268,-42.0633 -12.42829,11.38637 -27.82804,-9.78086 19.70337,-21.94989 16.37221,4.01445 z"
     style="fill:none;stroke:#ff0000"
     id="polyline14-8-8-4-1-9-8-8-3"
     inkscape:connector-curvature="0" />
  <path
     inkscape:connector-curvature="0"
     id="polyline14-8-8-4-1-9-0-8-2-8"
     style="fill:none;stroke:#ff0000"
     d="m 607.68064,147.3419 34.9055,38.09658 -0.40864,0.37334 0.18212,0.70938 1.7136,6.69294 -50.05661,12.81558 1.84656,7.20857 50.0566,-12.81558 1.66839,6.52113 -50.05514,12.81689 1.84509,7.20725 50.05531,-12.81409 0.13817,0.53609 0.70927,0.17474 6.7108,1.64354 -12.30387,50.18458 7.22663,1.77061 12.30403,-50.18185 6.53986,1.60296 -12.30532,50.18329 7.22807,1.7719 12.30257,-50.18313 0.53824,0.13139 7.78243,-8.66978 38.45083,34.51548 4.97079,-5.53765 -38.45075,-34.51545 4.49725,-5.01002 38.4508,34.51547 4.9708,-5.53764 -38.45076,-34.51545 4.49594,-5.00856 38.45079,34.51545 4.97089,-5.5376 -38.45082,-34.51545 3.15471,-3.51441 -4.62272,-1.62479 -6.51756,-2.2915 17.13367,-48.74667 -7.01935,-2.46646 -17.13512,48.74539 -6.3498,-2.23281 17.13237,-48.74525 -7.01805,-2.46779 -17.13513,48.74539 -6.35109,-2.23138 17.13366,-48.74668 -7.02083,-2.46769 -17.13365,48.74667 -4.30553,-1.51323 -0.53766,0.49371 -5.09525,4.66747 -34.90548,-38.09658 -5.4866,5.02741 34.9055,38.09658 -4.96343,4.54693 -34.90548,-38.09659 z m 46.57268,42.06329 12.42829,-11.38637 27.82803,9.78087 -19.70336,21.94987 -16.3722,-4.01444 z" />
  <path
     inkscape:connector-curvature="0"
     id="polyline14-8-8-4-1-9-8-2"
     style="fill:none;stroke:#ff0000"
     d="m 851.49772,132.4262 -34.90547,-38.096603 0.40864,-0.37333 -0.18212,-0.70937 -1.7136,-6.69296 50.0566,-12.81555 -1.84653,-7.20858 -50.05662,12.81555 -1.66838,-6.52113 50.05509,-12.81686 -1.84502,-7.20725 -50.05533,12.81409 -0.13817,-0.53609 -0.70928,-0.17474 -6.7108,-1.64353 12.30388,-50.1846 -7.22664,-1.77059 -12.30402,50.18184 -6.53988,-1.60295 12.30532,-50.1833 -7.22807,-1.7718998 -12.30257,50.1831298 -0.53822,-0.1314 -7.78243,8.66979 -38.45083,-34.51547 -4.97079,5.53763 38.45075,34.51545 -4.49725,5.01003 -38.4508,-34.51548 -4.9708,5.53764 38.45075,34.51545 -4.49594,5.00856 -38.45079,-34.51546 -4.97089,5.53759 38.45082,34.51547 -3.15471,3.51441 4.62273,1.62479 6.51755,2.291493 -17.13366,48.7467 7.01933,2.46645 17.13513,-48.7454 6.3498,2.2328 -17.13236,48.74525 7.01805,2.46781 17.13512,-48.74541 6.3511,2.23139 -17.13366,48.74668 7.02082,2.46769 17.13366,-48.74667 4.30553,1.51322 0.53765,-0.49371 5.09524,-4.66746 34.90548,38.0966 5.48655,-5.02741 -34.90544,-38.0966 4.96343,-4.546923 34.9055,38.096593 z m -46.57265,-42.063313 -12.42828,11.386373 -27.82804,-9.780863 19.70337,-21.94988 16.3722,4.01444 z" />
  <path
     d="m 843.06694,29.537237 34.90551,38.09659 -0.40868,0.37333 0.18219,0.70938 1.71356,6.69295 -50.05653,12.81556 1.84653,7.20857 50.05653,-12.81557 1.66841,6.52113 -50.05511,12.816873 1.84512,7.20725 50.05524,-12.814083 0.13821,0.53609 0.70923,0.17474 6.71084,1.64353 -12.30392,50.184603 7.22672,1.7706 12.30394,-50.18186 6.53996,1.60295 -12.30543,50.18333 7.22813,1.77189 12.30253,-50.18313 0.53823,0.13139 7.78246,-8.669793 38.4508,34.515493 4.97082,-5.53765 -38.4507,-34.515453 4.49719,-5.01002 38.4508,34.515463 4.97081,-5.53763 -38.45079,-34.515443 4.496,-5.00856 38.45079,34.515443 4.97082,-5.5376 -38.4508,-34.515443 3.15473,-3.51442 -4.62269,-1.6248 -6.51759,-2.29149 17.13369,-48.74667 -7.01933,-2.46646 -17.13519,48.74539 -6.34972,-2.23281 17.1323,-48.7452398 -7.01803,-2.4678 -17.1351,48.7453798 -6.3511,-2.23137 17.13369,-48.7466798 -7.02084,-2.46768 -17.13368,48.7466698 -4.30549,-1.51324 -0.53773,0.49373 -5.09522,4.66745 -34.90551,-38.09658 -5.48656,5.0274 34.90552,38.0966 -4.96349,4.54691 -34.90541,-38.09658 z m 46.5727,42.06329 12.42826,-11.38637 27.82807,9.78087 -19.70333,21.94988 -16.37223,-4.01444 z"
     style="fill:none;stroke:#ff0000"
     id="polyline14-8-8-4-1-9-0-8-6"
     inkscape:connector-curvature="0" />
  <path
     d="m 850.95344,248.03425 -34.9055,-38.09657 0.40865,-0.37334 -0.18213,-0.70938 -1.71359,-6.69294 50.05662,-12.81558 -1.84653,-7.20856 -50.05663,12.81554 -1.66841,-6.52113 50.05512,-12.81686 -1.84502,-7.20724 -50.05535,12.81408 -0.13817,-0.53609 -0.70927,-0.17475 -6.7108,-1.64353 12.30387,-50.18459 -7.22663,-1.77061 -12.30403,50.18186 -6.53988,-1.60295 12.30533,-50.18331 -7.22807,-1.7719 -12.30257,50.18314 -0.53823,-0.1314 -7.78243,8.66978 -38.45083,-34.51546 -4.9708,5.53763 38.45076,34.51544 -4.49725,5.01004 -38.4508,-34.51548 -4.97079,5.53764 38.45074,34.51545 -4.49594,5.00857 -38.45078,-34.51547 -4.97089,5.53759 38.45082,34.51548 -3.15471,3.5144 4.62271,1.62479 6.51756,2.29151 -17.13366,48.74667 7.01934,2.46646 17.13512,-48.74539 6.34981,2.2328 -17.13238,48.74524 7.01806,2.4678 17.13512,-48.74539 6.3511,2.2314 -17.13365,48.74667 7.02082,2.46768 17.13365,-48.74666 4.30553,1.51323 0.53766,-0.49372 5.09524,-4.66746 34.90549,38.09658 5.48656,-5.0274 -34.90546,-38.0966 4.96343,-4.54692 34.90552,38.09659 z m -46.57267,-42.06328 -12.42829,11.38636 -27.82803,-9.78087 19.70336,-21.94989 16.3722,4.01445 z"
     style="fill:none;stroke:#ff0000"
     id="polyline14-8-8-4-1-9-8-8-30"
     inkscape:connector-curvature="0" />
  <path
     inkscape:connector-curvature="0"
     id="polyline14-8-8-4-1-9-0-8-2-4"
     style="fill:none;stroke:#ff0000"
     d="m 842.52266,145.14531 34.9055,38.09658 -0.40867,0.37333 0.18218,0.70938 1.71356,6.69294 -50.05659,12.81558 1.8465,7.20856 50.05663,-12.81556 1.66841,6.52113 -50.05512,12.81686 1.84502,7.20727 50.05534,-12.81409 0.13821,0.53608 0.70924,0.17476 6.71083,1.64353 -12.30392,50.18459 7.22663,1.77059 12.30403,-50.18184 6.53987,1.60295 -12.30533,50.1833 7.22813,1.7719 12.30253,-50.18313 0.53822,0.13138 7.78246,-8.66978 38.4508,34.51548 4.97082,-5.53763 -38.4508,-34.51546 4.49729,-5.01002 38.4508,34.51547 4.97081,-5.53764 -38.45079,-34.51544 4.49601,-5.00857 38.45079,34.51545 4.97082,-5.53759 -38.4508,-34.51546 3.15472,-3.5144 -4.62269,-1.6248 -6.51759,-2.2915 17.13369,-48.74668 -7.01942,-2.46645 -17.1351,48.74539 -6.34982,-2.23281 17.13241,-48.74524 -7.01804,-2.46781 -17.13509,48.7454 -6.35111,-2.23139 17.13359,-48.74668 -7.02083,-2.46768 -17.13359,48.74667 -4.30559,-1.51323 -0.53762,0.49371 -5.09522,4.66748 -34.90552,-38.09659 -5.48655,5.02741 34.90551,38.09658 -4.96349,4.54693 -34.90551,-38.09659 z m 46.5727,42.06329 12.42824,-11.38637 27.82809,9.78086 -19.70344,21.94988 -16.37213,-4.01445 z" />
  <path
     d="m 145.44802,369.13946 -34.9055,-38.09659 0.40864,-0.37334 -0.18213,-0.70939 -1.71359,-6.69294 50.05658,-12.81555 -1.84653,-7.20857 -50.0566,12.81555 -1.66839,-6.52113 50.05514,-12.81685 -1.84508,-7.20726 -50.05532,12.81409 -0.13816,-0.53609 -0.70929,-0.17476 -6.7108,-1.64352 12.30388,-50.18458 -7.22664,-1.7706 -12.304028,50.18183 -6.53988,-1.60294 12.305328,-50.1833 -7.228068,-1.77189 -12.30258,50.18311 -0.53822,-0.13138 -7.78243,8.66976 -38.45082,-34.51545 -4.97079,5.53764 38.45074,34.51543 -4.49724,5.01003 -38.45081,-34.51546 -4.9708,5.53763 38.45076,34.51543 -4.49594,5.00857 -38.4507901,-34.51545 -4.97089,5.53759 38.4508201,34.51545 -3.15471,3.51443 4.62272,1.62478 6.51755,2.2915 -17.13365,48.74669 7.01933,2.46645 17.13512,-48.7454 6.34981,2.23281 -17.13238,48.74525 7.01807,2.46781 17.13512,-48.74541 6.35109,2.2314 -17.13365,48.74667 7.02082,2.46768 17.13366,-48.74666 4.30553,1.51322 0.53765,-0.49371 5.095248,-4.66745 34.9055,38.09657 5.48659,-5.02739 -34.90551,-38.09661 4.96344,-4.54692 34.90549,38.09659 z m -46.57269,-42.06331 -12.428288,11.38637 -27.82803,-9.78086 19.70336,-21.94986 16.372208,4.01443 z"
     style="fill:none;stroke:#ff0000"
     id="polyline14-8-8-4-1-9-4"
     inkscape:connector-curvature="0" />
  <path
     inkscape:connector-curvature="0"
     id="polyline14-8-8-4-1-9-0-9"
     style="fill:none;stroke:#ff0000"
     d="m 137.01723,266.25051 34.90549,38.09659 -0.40863,0.37333 0.18212,0.70938 1.7136,6.69294 -50.05659,12.81556 1.84654,7.20858 50.0566,-12.81557 1.66839,6.52113 -50.05514,12.81687 1.8451,7.20726 50.05529,-12.81409 0.13817,0.53607 0.70929,0.17476 6.71079,1.64353 -12.30388,50.1846 7.22664,1.77061 12.30402,-50.18187 6.53989,1.60296 -12.30533,50.18331 7.22807,1.77189 12.30257,-50.18313 0.53822,0.13139 7.78243,-8.66976 38.45083,34.51545 4.9708,-5.53763 -38.45076,-34.51546 4.49725,-5.01002 38.45082,34.51547 4.97079,-5.53764 -38.45076,-34.51544 4.49595,-5.00856 38.45078,34.51545 4.97089,-5.53759 -38.45082,-34.51545 3.15471,-3.51442 -4.62273,-1.62479 -6.51755,-2.2915 17.13367,-48.74667 -7.01935,-2.46646 -17.13512,48.74538 -6.3498,-2.23279 17.13236,-48.74525 -7.01805,-2.46779 -17.13511,48.74538 -6.35111,-2.23138 17.13366,-48.74667 -7.02082,-2.46769 -17.13366,48.74666 -4.30552,-1.51323 -0.53766,0.49372 -5.09525,4.66746 -34.90548,-38.09659 -5.48659,5.02742 34.90549,38.09659 -4.96343,4.54692 -34.90549,-38.09659 z m 46.57268,42.06329 12.42828,-11.38637 27.82804,9.78087 -19.70337,21.94987 -16.3722,-4.01444 z" />
  <path
     inkscape:connector-curvature="0"
     id="polyline14-8-8-4-1-9-8-9"
     style="fill:none;stroke:#ff0000"
     d="m 380.42821,367.47895 -34.90551,-38.09659 0.40865,-0.37334 -0.18212,-0.70938 -1.71361,-6.69294 50.0566,-12.81557 -1.84654,-7.20856 -50.05659,12.81554 -1.66841,-6.52113 50.05515,-12.81686 -1.84509,-7.20725 -50.05532,12.81409 -0.13816,-0.53609 -0.70928,-0.17474 -6.7108,-1.64354 12.30387,-50.18458 -7.22663,-1.77061 -12.30402,50.18185 -6.53988,-1.60295 12.30533,-50.18329 -7.22807,-1.7719 -12.30257,50.18312 -0.53824,-0.13139 -7.78243,8.66977 -38.45081,-34.51546 -4.9708,5.53763 38.45074,34.51545 -4.49724,5.01003 -38.4508,-34.51547 -4.9708,5.53764 38.45076,34.51543 -4.49595,5.00858 -38.45079,-34.51546 -4.97088,5.53758 38.45081,34.51546 -3.15471,3.51443 4.62273,1.62479 6.51756,2.29149 -17.13367,48.74669 7.01934,2.46645 17.13513,-48.74539 6.34979,2.2328 -17.13237,48.74525 7.01806,2.4678 17.13512,-48.74539 6.35109,2.23138 -17.13364,48.74668 7.02081,2.46769 17.13366,-48.74668 4.30553,1.51323 0.53765,-0.4937 5.09525,-4.66747 34.90549,38.09659 5.48658,-5.02741 -34.90549,-38.0966 4.96343,-4.54692 34.90549,38.09659 z m -46.57268,-42.0633 -12.4283,11.38637 -27.82803,-9.78088 19.70337,-21.94987 16.37221,4.01444 z" />
  <path
     d="m 371.99742,264.58999 34.9055,38.09658 -0.40864,0.37335 0.18212,0.70937 1.7136,6.69294 -50.0566,12.81557 1.84655,7.20857 50.0566,-12.81556 1.66839,6.52113 -50.05514,12.81687 1.84509,7.20726 50.0553,-12.8141 0.13818,0.5361 0.70926,0.17475 6.71081,1.64352 -12.30387,50.1846 7.22663,1.7706 12.30403,-50.18185 6.53988,1.60296 -12.30533,50.1833 7.22807,1.77189 12.30256,-50.18313 0.53824,0.13139 7.78243,-8.66978 38.45082,34.51549 4.9708,-5.53766 -38.45076,-34.51545 4.49725,-5.01002 38.45081,34.51547 4.9708,-5.53764 -38.45076,-34.51544 4.49594,-5.00857 38.45079,34.51546 4.97088,-5.5376 -38.45081,-34.51546 3.15471,-3.5144 -4.62272,-1.62479 -6.51756,-2.29151 17.13367,-48.74668 -7.01935,-2.46645 -17.13512,48.7454 -6.34979,-2.23281 17.13236,-48.74525 -7.01805,-2.4678 -17.13513,48.7454 -6.3511,-2.2314 17.13366,-48.74666 -7.02083,-2.46768 -17.13364,48.74665 -4.30553,-1.51323 -0.53766,0.49372 -5.09524,4.66746 -34.90549,-38.09658 -5.48658,5.02741 34.90548,38.09658 -4.96343,4.54693 -34.90548,-38.09659 z m 46.57267,42.06329 12.4283,-11.38636 27.82804,9.78086 -19.70337,21.94987 -16.37221,-4.01444 z"
     style="fill:none;stroke:#ff0000"
     id="polyline14-8-8-4-1-9-0-8-4"
     inkscape:connector-curvature="0" />
  <path
     inkscape:connector-curvature="0"
     id="polyline14-8-8-4-1-9-3-8"
     style="fill:none;stroke:#ff0000"
     d="m 144.90372,484.74752 -34.9055,-38.09658 0.40863,-0.37333 -0.18212,-0.70938 -1.71359,-6.69295 50.05658,-12.81555 -1.84653,-7.20857 -50.05661,12.81555 -1.66839,-6.52113 50.05514,-12.81686 -1.84509,-7.20726 -50.05531,12.81409 -0.13817,-0.53608 -0.70927,-0.17475 -6.7108,-1.64353 12.30388,-50.1846 -7.22664,-1.77061 -12.304028,50.18187 -6.53989,-1.60295 12.30533,-50.18333 -7.22807,-1.77188 -12.30257,50.18313 -0.53822,-0.13138 -7.78243,8.66977 -38.45083,-34.51547 -4.9708,5.53764 38.45076,34.51545 -4.49725,5.01002 -38.45082,-34.51546 -4.97079,5.53762 38.45076,34.51544 -4.49594,5.00858 -38.4507801,-34.51546 -4.9708896,5.53759 38.4508197,34.51545 -3.15471,3.51442 4.62271,1.62479 6.51755,2.2915 -17.13366,48.74667 7.01935,2.46646 17.13511,-48.74539 6.34981,2.23281 -17.13237,48.74524 7.01806,2.4678 17.13512,-48.74539 6.3511,2.23139 -17.13366,48.74667 7.02082,2.46768 17.13366,-48.74666 4.30551,1.51323 0.53768,-0.49372 5.09524,-4.66746 34.905498,38.09658 5.48659,-5.02741 -34.9055,-38.09659 4.96344,-4.54692 34.90548,38.09659 z m -46.57269,-42.06329 -12.428288,11.38637 -27.82804,-9.78087 19.70336,-21.94986 16.372208,4.01444 z" />
  <path
     d="m 136.47293,381.85857 34.90549,38.0966 -0.40864,0.37334 0.18213,0.70938 1.71359,6.69294 -50.05659,12.81556 1.84655,7.20857 50.05659,-12.81556 1.66839,6.52113 -50.05513,12.81686 1.84508,7.20725 50.05531,-12.81409 0.13817,0.53609 0.70927,0.17476 6.7108,1.64352 -12.30387,50.1846 7.22663,1.7706 12.30403,-50.18185 6.53988,1.60296 -12.30532,50.18329 7.22806,1.7719 12.30257,-50.18313 0.53823,0.13139 7.78243,-8.66976 38.45083,34.51545 4.97079,-5.53763 -38.45075,-34.51544 4.49725,-5.01003 38.4508,34.51547 4.9708,-5.53765 -38.45075,-34.51543 4.49592,-5.00856 38.4508,34.51545 4.97089,-5.5376 -38.45082,-34.51545 3.15471,-3.51442 -4.62272,-1.62479 -6.51755,-2.2915 17.13366,-48.74668 -7.01934,-2.46646 -17.13512,48.7454 -6.3498,-2.2328 17.13236,-48.74526 -7.01805,-2.4678 -17.13513,48.7454 -6.35109,-2.23139 17.13366,-48.74667 -7.02083,-2.46769 -17.13365,48.74667 -4.30553,-1.51323 -0.53766,0.49372 -5.09523,4.66745 -34.9055,-38.09657 -5.48658,5.0274 34.90548,38.09659 -4.96343,4.54693 -34.90548,-38.09659 z m 46.57267,42.06331 12.42829,-11.38638 27.82804,9.78087 -19.70337,21.94988 -16.3722,-4.01444 z"
     style="fill:none;stroke:#ff0000"
     id="polyline14-8-8-4-1-9-0-1-9"
     inkscape:connector-curvature="0" />
  <path
     d="m 379.8839,483.08701 -34.90551,-38.09657 0.40865,-0.37335 -0.18212,-0.70937 -1.7136,-6.69295 50.0566,-12.81557 -1.84655,-7.20857 -50.05659,12.81556 -1.6684,-6.52114 50.05515,-12.81685 -1.8451,-7.20727 -50.05531,12.81411 -0.13817,-0.5361 -0.70927,-0.17475 -6.7108,-1.64352 12.30387,-50.1846 -7.22663,-1.77061 -12.30403,50.18185 -6.53987,-1.60295 12.30532,-50.1833 -7.22806,-1.77189 -12.30257,50.18312 -0.53824,-0.13138 -7.78243,8.66977 -38.45083,-34.51547 -4.97079,5.53764 38.45075,34.51545 -4.49725,5.01004 -38.4508,-34.51549 -4.9708,5.53764 38.45076,34.51545 -4.49594,5.00857 -38.45079,-34.51546 -4.97089,5.53758 38.45082,34.51547 -3.15471,3.51443 4.62272,1.62478 6.51756,2.2915 -17.13367,48.74667 7.01934,2.46646 17.13512,-48.74539 6.3498,2.23281 -17.13237,48.74524 7.01806,2.4678 17.13513,-48.74538 6.35109,2.23138 -17.13366,48.74666 7.02083,2.46768 17.13365,-48.74665 4.30553,1.51322 0.53766,-0.49371 5.09523,-4.66745 34.9055,38.09657 5.48659,-5.0274 -34.90549,-38.0966 4.96343,-4.54692 34.90549,38.09659 z m -46.57267,-42.06329 -12.4283,11.38636 -27.82804,-9.78085 19.70337,-21.94989 16.37221,4.01444 z"
     style="fill:none;stroke:#ff0000"
     id="polyline14-8-8-4-1-9-8-8-8"
     inkscape:connector-curvature="0" />
  <path
     inkscape:connector-curvature="0"
     id="polyline14-8-8-4-1-9-0-8-2-9"
     style="fill:none;stroke:#ff0000"
     d="m 371.45311,380.19806 34.90552,38.09658 -0.40866,0.37335 0.18213,0.70936 1.7136,6.69295 -50.05662,12.81558 1.84657,7.20858 50.05659,-12.81559 1.6684,6.52113 -50.05515,12.81689 1.8451,7.20726 50.0553,-12.8141 0.13816,0.5361 0.70928,0.17473 6.71081,1.64353 -12.30387,50.1846 7.22663,1.7706 12.30402,-50.18186 6.53987,1.60297 -12.30533,50.18329 7.22808,1.77189 12.30257,-50.18312 0.53823,0.1314 7.78244,-8.6698 38.45081,34.51549 4.9708,-5.53764 -38.45075,-34.51547 4.49724,-5.01002 38.45081,34.51549 4.9708,-5.53764 -38.45076,-34.51546 4.49595,-5.00856 38.45078,34.51545 4.97089,-5.5376 -38.45081,-34.51545 3.15471,-3.51441 -4.62274,-1.62478 -6.51754,-2.29152 17.13366,-48.74667 -7.01933,-2.46647 -17.13514,48.7454 -6.34979,-2.2328 17.13237,-48.74525 -7.01807,-2.4678 -17.13511,48.7454 -6.3511,-2.23139 17.13365,-48.74667 -7.02082,-2.46768 -17.13366,48.74666 -4.30552,-1.51324 -0.53766,0.49373 -5.09523,4.66745 -34.90549,-38.09658 -5.4866,5.02742 34.9055,38.09658 -4.96343,4.54693 -34.9055,-38.0966 z m 46.57268,42.0633 12.4283,-11.38637 27.82803,9.78086 -19.70337,21.94987 -16.37221,-4.01444 z" />
  <path
     d="m 615.4084,365.81844 -34.90551,-38.09659 0.40865,-0.37334 -0.18213,-0.70938 -1.7136,-6.69295 50.05659,-12.81556 -1.84653,-7.20857 -50.0566,12.81556 -1.6684,-6.52114 50.05514,-12.81685 -1.84509,-7.20726 -50.0553,12.8141 -0.13817,-0.5361 -0.70928,-0.17474 -6.7108,-1.64353 12.30388,-50.1846 -7.22664,-1.77059 -12.30402,50.18183 -6.53988,-1.60295 12.30533,-50.18329 -7.22807,-1.77189 -12.30257,50.18311 -0.53823,-0.13138 -7.78243,8.66977 -38.45083,-34.51547 -4.9708,5.53765 38.45076,34.51544 -4.49725,5.01003 -38.45082,-34.51547 -4.97079,5.53764 38.45076,34.51544 -4.49594,5.00856 -38.45078,-34.51545 -4.97089,5.53759 38.45082,34.51545 -3.15472,3.51442 4.62272,1.62479 6.51756,2.29151 -17.13367,48.74668 7.01935,2.46646 17.13511,-48.7454 6.34981,2.23281 -17.13237,48.74523 7.01806,2.46782 17.13512,-48.7454 6.3511,2.23139 -17.13366,48.74667 7.02083,2.46768 17.13365,-48.74666 4.30552,1.51323 0.53767,-0.49372 5.09522,-4.66745 34.90551,38.09658 5.48659,-5.0274 -34.9055,-38.0966 4.96343,-4.54693 34.90549,38.0966 z m -46.57268,-42.06331 -12.42829,11.38638 -27.82803,-9.78086 19.70336,-21.94988 16.3722,4.01443 z"
     style="fill:none;stroke:#ff0000"
     id="polyline14-8-8-4-1-9-8-86-2"
     inkscape:connector-curvature="0" />
  <path
     inkscape:connector-curvature="0"
     id="polyline14-8-8-4-1-9-0-8-8-6"
     style="fill:none;stroke:#ff0000"
     d="m 606.97761,262.92948 34.90549,38.09659 -0.40863,0.37334 0.18212,0.70937 1.7136,6.69295 -50.05661,12.81556 1.84656,7.20857 50.0566,-12.81557 1.66838,6.52114 -50.05514,12.81687 1.84509,7.20727 50.05531,-12.81411 0.13817,0.53609 0.70928,0.17474 6.71079,1.64355 -12.30387,50.1846 7.22663,1.7706 12.30403,-50.18186 6.53988,1.60296 -12.30533,50.1833 7.22808,1.77189 12.30257,-50.18313 0.53822,0.1314 7.78243,-8.6698 38.45083,34.5155 4.97079,-5.53765 -38.45075,-34.51547 4.49724,-5.01002 38.45081,34.51549 4.9708,-5.53765 -38.45075,-34.51545 4.49593,-5.00856 38.4508,34.51545 4.97089,-5.53759 -38.45082,-34.51546 3.1547,-3.51441 -4.62272,-1.62478 -6.51755,-2.29151 17.13366,-48.74668 -7.01934,-2.46645 -17.13512,48.74539 -6.3498,-2.23281 17.13236,-48.74523 -7.01805,-2.46781 -17.13512,48.74539 -6.3511,-2.23138 17.13366,-48.74666 -7.02082,-2.46769 -17.13366,48.74665 -4.30553,-1.51323 -0.53765,0.49372 -5.09525,4.66746 -34.90549,-38.09658 -5.48659,5.02741 34.9055,38.09658 -4.96343,4.54693 -34.90549,-38.09659 z m 46.57267,42.0633 12.42828,-11.38637 27.82805,9.78086 -19.70337,21.94987 -16.3722,-4.01444 z" />
  <path
     inkscape:connector-curvature="0"
     id="polyline14-8-8-4-1-9-8-8-3-9"
     style="fill:none;stroke:#ff0000"
     d="m 614.86409,481.42651 -34.90551,-38.09658 0.40864,-0.37334 -0.18211,-0.70939 -1.71361,-6.69294 50.0566,-12.81557 -1.84655,-7.20857 -50.05659,12.81555 -1.66839,-6.52113 50.05514,-12.81685 -1.84509,-7.20726 -50.0553,12.8141 -0.13817,-0.5361 -0.70928,-0.17474 -6.71081,-1.64354 12.30388,-50.18458 -7.22664,-1.77061 -12.30401,50.18184 -6.53989,-1.60295 12.30533,-50.1833 -7.22807,-1.77189 -12.30257,50.18312 -0.53822,-0.13138 -7.78244,8.66976 -38.45082,-34.51546 -4.9708,5.53765 38.45076,34.51543 -4.49725,5.01004 -38.45082,-34.51547 -4.97079,5.53763 38.45076,34.51545 -4.49595,5.00857 -38.45078,-34.51547 -4.97089,5.53759 38.45081,34.51548 -3.15471,3.51441 4.62273,1.62479 6.51756,2.2915 -17.13367,48.74668 7.01933,2.46644 17.13513,-48.74538 6.3498,2.23281 -17.13236,48.74523 7.01806,2.46782 17.13511,-48.7454 6.35111,2.23139 -17.13366,48.74666 7.02082,2.46769 17.13366,-48.74665 4.30552,1.51321 0.53766,-0.4937 5.09523,-4.66747 34.90551,38.09658 5.48658,-5.02741 -34.9055,-38.09657 4.96343,-4.54693 34.9055,38.09657 z m -46.57268,-42.0633 -12.42829,11.38637 -27.82804,-9.78086 19.70337,-21.94989 16.37221,4.01445 z" />
  <path
     d="m 606.4333,378.53755 34.9055,38.09658 -0.40864,0.37334 0.18212,0.70938 1.7136,6.69294 -50.05661,12.81558 1.84656,7.20857 50.0566,-12.81558 1.66839,6.52113 -50.05514,12.81689 1.84509,7.20725 50.05531,-12.81409 0.13817,0.53609 0.70927,0.17474 6.7108,1.64354 -12.30387,50.18458 7.22663,1.77061 12.30403,-50.18185 6.53986,1.60296 -12.30532,50.18329 7.22807,1.7719 12.30257,-50.18313 0.53824,0.13139 7.78243,-8.66978 38.45083,34.51548 4.97079,-5.53765 -38.45075,-34.51545 4.49725,-5.01002 38.4508,34.51547 4.9708,-5.53764 -38.45076,-34.51545 4.49594,-5.00856 38.45079,34.51545 4.97089,-5.5376 -38.45082,-34.51545 3.15471,-3.51441 -4.62272,-1.62479 -6.51756,-2.2915 17.13367,-48.74667 -7.01935,-2.46646 -17.13512,48.74539 -6.3498,-2.23281 17.13237,-48.74525 -7.01805,-2.46779 -17.13513,48.74539 -6.35109,-2.23138 17.13366,-48.74668 -7.02083,-2.46769 -17.13365,48.74667 -4.30553,-1.51323 -0.53766,0.49371 -5.09525,4.66747 -34.90548,-38.09658 -5.4866,5.02741 34.9055,38.09658 -4.96343,4.54693 -34.90548,-38.09659 z m 46.57268,42.06329 12.42829,-11.38637 27.82803,9.78087 -19.70336,21.94987 -16.3722,-4.01444 z"
     style="fill:none;stroke:#ff0000"
     id="polyline14-8-8-4-1-9-0-8-2-8-9"
     inkscape:connector-curvature="0" />
  <path
     d="m 850.25041,363.62185 -34.9055,-38.09661 0.40864,-0.37333 -0.18212,-0.70937 -1.7136,-6.69296 50.05658,-12.81555 -1.8465,-7.20858 -50.05663,12.81555 -1.66838,-6.52113 50.05511,-12.81686 -1.845,-7.20725 -50.05537,12.81409 -0.13817,-0.53609 -0.70928,-0.17474 -6.7108,-1.64353 12.30388,-50.1846 -7.22664,-1.77059 -12.30402,50.18184 -6.53988,-1.60295 12.30532,-50.1833 -7.22807,-1.7719 -12.30257,50.18313 -0.53822,-0.1314 -7.78243,8.66979 -38.45083,-34.51547 -4.97079,5.53763 38.45075,34.51545 -4.49725,5.01003 -38.4508,-34.51548 -4.9708,5.53764 38.45075,34.51545 -4.49594,5.00856 -38.45079,-34.51546 -4.97089,5.53759 38.45082,34.51547 -3.15471,3.51441 4.62273,1.62479 6.51755,2.2915 -17.13366,48.7467 7.01933,2.46645 17.13513,-48.7454 6.3498,2.2328 -17.13236,48.74525 7.01805,2.46781 17.13512,-48.74541 6.3511,2.23139 -17.13366,48.74668 7.02082,2.46769 17.13366,-48.74667 4.30553,1.51322 0.53765,-0.49371 5.09524,-4.66746 34.90548,38.0966 5.48655,-5.02741 -34.90544,-38.0966 4.96343,-4.54693 34.90548,38.0966 z m -46.57268,-42.06332 -12.42828,11.38638 -27.82804,-9.78087 19.70337,-21.94988 16.3722,4.01444 z"
     style="fill:none;stroke:#ff0000"
     id="polyline14-8-8-4-1-9-8-2-3"
     inkscape:connector-curvature="0" />
  <path
     inkscape:connector-curvature="0"
     id="polyline14-8-8-4-1-9-0-8-6-0"
     style="fill:none;stroke:#ff0000"
     d="m 841.8196,260.73288 34.90551,38.09659 -0.4087,0.37333 0.1822,0.70938 1.7136,6.69295 -50.05656,12.81556 1.84653,7.20857 50.05653,-12.81557 1.6684,6.52113 -50.0551,12.81688 1.84512,7.20725 50.05528,-12.81409 0.1382,0.53609 0.7092,0.17474 6.7108,1.64353 -12.3039,50.18461 7.2267,1.7706 12.304,-50.18186 6.5399,1.60295 -12.3054,50.18333 7.2281,1.77189 12.3026,-50.18313 0.5382,0.13139 7.7825,-8.6698 38.4508,34.5155 4.9708,-5.53765 -38.4507,-34.51546 4.4972,-5.01002 38.4508,34.51547 4.9708,-5.53763 -38.4508,-34.51545 4.496,-5.00856 38.4508,34.51545 4.9708,-5.5376 -38.4508,-34.51545 3.1547,-3.51442 -4.6227,-1.6248 -6.5176,-2.29149 17.1337,-48.74667 -7.0193,-2.46646 -17.1352,48.74539 -6.3497,-2.23281 17.1323,-48.74524 -7.018,-2.4678 -17.1351,48.74538 -6.3511,-2.23137 17.1337,-48.74668 -7.0209,-2.46768 -17.1337,48.74667 -4.3055,-1.51324 -0.5377,0.49373 -5.0952,4.66745 -34.9055,-38.09658 -5.4866,5.0274 34.9055,38.0966 -4.9634,4.54691 -34.9055,-38.09658 z m 46.57271,42.06329 12.4282,-11.38637 27.8281,9.78087 -19.7033,21.94988 -16.3722,-4.01444 z" />
  <path
     inkscape:connector-curvature="0"
     id="polyline14-8-8-4-1-9-8-8-30-3"
     style="fill:none;stroke:#ff0000"
     d="m 849.70611,479.2299 -34.90551,-38.09657 0.40865,-0.37334 -0.18213,-0.70938 -1.71359,-6.69294 50.05658,-12.81558 -1.8465,-7.20856 -50.05662,12.81554 -1.66841,-6.52113 50.05513,-12.81686 -1.845,-7.20724 -50.05538,12.81408 -0.13817,-0.53609 -0.70927,-0.17475 -6.7108,-1.64353 12.30387,-50.18459 -7.22663,-1.77061 -12.30403,50.18186 -6.53988,-1.60295 12.30533,-50.18331 -7.22807,-1.7719 -12.30257,50.18314 -0.53823,-0.1314 -7.78243,8.66978 -38.45083,-34.51546 -4.9708,5.53763 38.45076,34.51544 -4.49725,5.01004 -38.4508,-34.51548 -4.97079,5.53764 38.45074,34.51545 -4.49594,5.00857 -38.45078,-34.51547 -4.97089,5.53759 38.45082,34.51548 -3.15471,3.5144 4.62271,1.62479 6.51756,2.29151 -17.13366,48.74667 7.01934,2.46646 17.13512,-48.74539 6.34981,2.2328 -17.13238,48.74524 7.01806,2.4678 17.13512,-48.74539 6.3511,2.2314 -17.13365,48.74667 7.02082,2.46768 17.13365,-48.74666 4.30553,1.51323 0.53766,-0.49372 5.09524,-4.66746 34.90549,38.09658 5.48656,-5.0274 -34.90546,-38.0966 4.96343,-4.54692 34.90552,38.09659 z m -46.57268,-42.06328 -12.42829,11.38636 -27.82803,-9.78087 19.70336,-21.94989 16.3722,4.01445 z" />
  <path
     d="m 841.27532,376.34096 34.90549,38.09658 -0.4087,0.37333 0.1822,0.70938 1.7136,6.69294 -50.05661,12.81558 1.8465,7.20856 50.05661,-12.81556 1.6684,6.52113 -50.05509,12.81686 1.84502,7.20727 50.05537,-12.81409 0.1382,0.53608 0.7092,0.17476 6.7108,1.64353 -12.3039,50.18459 7.2267,1.77059 12.304,-50.18184 6.5399,1.60295 -12.3054,50.1833 7.2282,1.7719 12.3025,-50.18313 0.5382,0.13138 7.7825,-8.66978 38.4508,34.51548 4.9708,-5.53763 -38.4508,-34.51546 4.4973,-5.01002 38.4508,34.51547 4.9708,-5.53764 -38.4508,-34.51544 4.496,-5.00857 38.4508,34.51545 4.9708,-5.53759 -38.4508,-34.51546 3.1547,-3.5144 -4.6227,-1.6248 -6.5175,-2.2915 17.1336,-48.74668 -7.0194,-2.46645 -17.1351,48.74539 -6.3498,-2.23281 17.1324,-48.74524 -7.018,-2.46781 -17.1351,48.7454 -6.3511,-2.23139 17.1336,-48.74668 -7.0209,-2.46768 -17.1336,48.74667 -4.3055,-1.51323 -0.5377,0.49371 -5.0952,4.66748 -34.9055,-38.09659 -5.4866,5.02741 34.9056,38.09658 -4.9635,4.54693 -34.9055,-38.09659 z m 46.57269,42.06329 12.4282,-11.38637 27.8281,9.78086 -19.7034,21.94988 -16.3721,-4.01445 z"
     style="fill:none;stroke:#ff0000"
     id="polyline14-8-8-4-1-9-0-8-2-4-7"
     inkscape:connector-curvature="0" />
  <path
     inkscape:connector-curvature="0"
     id="polyline14-8-8-4-1-9-4-4"
     style="fill:none;stroke:#ff0000"
     d="m 145.23063,600.78708 -34.9055,-38.0966 0.40864,-0.37334 -0.18213,-0.70939 -1.71359,-6.69294 50.05658,-12.81555 -1.84653,-7.20857 -50.0566,12.81555 -1.66839,-6.52113 50.05514,-12.81685 -1.84508,-7.20726 -50.05532,12.81409 -0.13816,-0.53609 -0.70929,-0.17476 -6.7108,-1.64352 12.30388,-50.18458 -7.22664,-1.7706 -12.304028,50.18183 -6.53988,-1.60294 12.305328,-50.1833 -7.228068,-1.77189 -12.30258,50.18311 -0.53822,-0.13138 -7.78243,8.66976 -38.45082,-34.51545 -4.97079,5.53764 38.45074,34.51543 -4.49724,5.01003 -38.450809,-34.51546 -4.9708,5.53763 38.450759,34.51543 -4.49594,5.00857 -38.4507891,-34.51545 -4.97089,5.53759 38.4508191,34.51545 -3.15471,3.51444 4.62272,1.62478 6.51755,2.2915 -17.13365,48.74669 7.01933,2.46645 17.13512,-48.7454 6.34981,2.23281 -17.13238,48.74525 7.01807,2.46781 17.13512,-48.74541 6.35109,2.2314 -17.13365,48.74667 7.02082,2.46768 17.13366,-48.74666 4.30553,1.51322 0.53765,-0.49371 5.095248,-4.66745 34.9055,38.09657 5.48659,-5.02739 -34.90551,-38.09661 4.96344,-4.54692 34.90549,38.09659 z m -46.57269,-42.06332 -12.428288,11.38638 -27.82803,-9.78087 19.70336,-21.94986 16.372208,4.01443 z" />
  <path
     d="m 136.79984,497.89812 34.90549,38.09659 -0.40863,0.37333 0.18212,0.70938 1.7136,6.69294 -50.05659,12.81556 1.84654,7.20859 50.0566,-12.81558 1.66839,6.52113 -50.05514,12.81688 1.8451,7.20726 50.05529,-12.81409 0.13817,0.53607 0.70929,0.17476 6.71079,1.64353 -12.30388,50.1846 7.22664,1.77061 12.30402,-50.18187 6.53989,1.60296 -12.30533,50.18331 7.22807,1.77189 12.30257,-50.18313 0.53822,0.13139 7.78243,-8.66976 38.45083,34.51545 4.9708,-5.53763 -38.45076,-34.51547 4.49725,-5.01002 38.45082,34.51548 4.97079,-5.53764 -38.45076,-34.51545 4.49595,-5.00856 38.45078,34.51546 4.97089,-5.53759 -38.45082,-34.51546 3.15471,-3.51442 -4.62273,-1.62479 -6.51755,-2.2915 17.13367,-48.74667 -7.01935,-2.46646 -17.13512,48.74538 -6.3498,-2.23279 17.13236,-48.74525 -7.01805,-2.46779 -17.13511,48.74538 -6.35111,-2.23138 17.13366,-48.74667 -7.02082,-2.46769 -17.13366,48.74666 -4.30552,-1.51323 -0.53766,0.49372 -5.09525,4.66746 -34.90548,-38.09659 -5.48659,5.02742 34.90549,38.09659 -4.96343,4.54692 -34.90549,-38.09659 z m 46.57268,42.06329 12.42828,-11.38637 27.82804,9.78087 -19.70337,21.94987 -16.3722,-4.01444 z"
     style="fill:none;stroke:#ff0000"
     id="polyline14-8-8-4-1-9-0-9-8"
     inkscape:connector-curvature="0" />
  <path
     d="m 380.21082,599.12657 -34.90551,-38.0966 0.40865,-0.37334 -0.18212,-0.70938 -1.71361,-6.69294 50.0566,-12.81557 -1.84654,-7.20856 -50.05659,12.81554 -1.66841,-6.52113 50.05515,-12.81686 -1.84509,-7.20725 -50.05532,12.81409 -0.13816,-0.53609 -0.70928,-0.17474 -6.7108,-1.64354 12.30387,-50.18458 -7.22663,-1.77061 -12.30402,50.18185 -6.53988,-1.60295 12.30533,-50.18329 -7.22807,-1.7719 -12.30257,50.18312 -0.53824,-0.13139 -7.78243,8.66977 -38.45081,-34.51546 -4.9708,5.53763 38.45074,34.51545 -4.49724,5.01003 -38.4508,-34.51547 -4.9708,5.53764 38.45076,34.51543 -4.49595,5.00858 -38.45079,-34.51546 -4.97088,5.53758 38.45081,34.51546 -3.15471,3.51444 4.62273,1.62479 6.51756,2.29149 -17.13367,48.74669 7.01934,2.46645 17.13513,-48.74539 6.34979,2.2328 -17.13237,48.74525 7.01806,2.4678 17.13512,-48.74539 6.35109,2.23138 -17.13364,48.74668 7.02081,2.46769 17.13366,-48.74668 4.30553,1.51323 0.53765,-0.4937 5.09525,-4.66747 34.90549,38.09659 5.48658,-5.02741 -34.90549,-38.0966 4.96343,-4.54692 34.90549,38.09659 z m -46.57268,-42.06331 -12.4283,11.38638 -27.82803,-9.78089 19.70337,-21.94987 16.37221,4.01444 z"
     style="fill:none;stroke:#ff0000"
     id="polyline14-8-8-4-1-9-8-9-8"
     inkscape:connector-curvature="0" />
  <path
     inkscape:connector-curvature="0"
     id="polyline14-8-8-4-1-9-0-8-4-9"
     style="fill:none;stroke:#ff0000"
     d="m 371.78003,496.2376 34.9055,38.09658 -0.40864,0.37335 0.18212,0.70937 1.7136,6.69294 -50.0566,12.81557 1.84655,7.20857 50.0566,-12.81556 1.66839,6.52113 -50.05514,12.81688 1.84509,7.20726 50.0553,-12.8141 0.13818,0.5361 0.70926,0.17475 6.71081,1.64352 -12.30387,50.1846 7.22663,1.7706 12.30403,-50.18185 6.53988,1.60296 -12.30533,50.1833 7.22807,1.77189 12.30256,-50.18313 0.53824,0.13139 7.78243,-8.66979 38.45082,34.5155 4.9708,-5.53766 -38.45076,-34.51546 4.49725,-5.01002 38.45081,34.51548 4.9708,-5.53764 -38.45076,-34.51545 4.49594,-5.00857 38.45079,34.51547 4.97088,-5.5376 -38.45081,-34.51547 3.15471,-3.5144 -4.62272,-1.62479 -6.51756,-2.29151 17.13367,-48.74668 -7.01935,-2.46645 -17.13512,48.7454 -6.34979,-2.23281 17.13236,-48.74525 -7.01805,-2.4678 -17.13513,48.7454 -6.3511,-2.2314 17.13366,-48.74666 -7.02083,-2.46768 -17.13364,48.74665 -4.30553,-1.51323 -0.53766,0.49372 -5.09524,4.66746 -34.90549,-38.09658 -5.48658,5.02741 34.90548,38.09658 -4.96343,4.54693 -34.90548,-38.09659 z m 46.57267,42.06329 12.4283,-11.38636 27.82804,9.78086 -19.70337,21.94987 -16.37221,-4.01444 z" />
  <path
     d="m 144.68633,716.39514 -34.9055,-38.09658 0.40863,-0.37333 -0.18212,-0.70938 -1.71359,-6.69295 50.05658,-12.81555 -1.84653,-7.20857 -50.05661,12.81555 -1.66839,-6.52113 50.05514,-12.81686 -1.84509,-7.20726 -50.05531,12.81409 -0.13817,-0.53608 -0.70927,-0.17475 -6.7108,-1.64353 12.30388,-50.1846 -7.22664,-1.77061 -12.304028,50.18187 -6.53989,-1.60295 12.30533,-50.18333 -7.22807,-1.77188 -12.30257,50.18313 -0.53822,-0.13138 -7.78243,8.66977 -38.45083,-34.51547 -4.9708,5.53764 38.45076,34.51545 -4.49725,5.01002 -38.45082,-34.51546 -4.97079,5.53762 38.45076,34.51544 -4.49594,5.00858 -38.4507791,-34.51546 -4.9708897,5.53759 38.4508188,34.51545 -3.15471,3.51442 4.62271,1.62479 6.51755,2.2915 -17.13366,48.74667 7.01935,2.46646 17.13511,-48.74539 6.34981,2.23281 -17.13237,48.74524 7.01806,2.4678 17.13512,-48.74539 6.3511,2.23139 -17.13366,48.74667 7.02082,2.46768 17.13366,-48.74666 4.30551,1.51323 0.53768,-0.49372 5.09524,-4.66746 34.905498,38.09658 5.48659,-5.02741 -34.9055,-38.09659 4.96344,-4.54692 34.90548,38.09659 z m -46.57269,-42.06329 -12.428288,11.38637 -27.82804,-9.78087 19.70336,-21.94986 16.372208,4.01444 z"
     style="fill:none;stroke:#ff0000"
     id="polyline14-8-8-4-1-9-3-8-5"
     inkscape:connector-curvature="0" />
  <path
     inkscape:connector-curvature="0"
     id="polyline14-8-8-4-1-9-0-1-9-6"
     style="fill:none;stroke:#ff0000"
     d="m 136.25554,613.50619 34.90549,38.0966 -0.40864,0.37334 0.18213,0.70938 1.71359,6.69294 -50.05659,12.81556 1.84655,7.20857 50.05659,-12.81556 1.66839,6.52113 -50.05513,12.81686 1.84508,7.20725 50.05531,-12.81409 0.13817,0.53609 0.70927,0.17476 6.7108,1.64352 -12.30387,50.1846 7.22663,1.7706 12.30403,-50.18185 6.53988,1.60296 -12.30532,50.18329 7.22806,1.7719 12.30257,-50.18313 0.53823,0.13139 7.78243,-8.66976 38.45083,34.51545 4.97079,-5.53763 -38.45075,-34.51544 4.49725,-5.01003 38.4508,34.51547 4.9708,-5.53765 -38.45075,-34.51543 4.49592,-5.00856 38.4508,34.51545 4.97089,-5.5376 -38.45082,-34.51545 3.15471,-3.51442 -4.62272,-1.62479 -6.51755,-2.2915 17.13366,-48.74668 -7.01934,-2.46646 -17.13512,48.7454 -6.3498,-2.2328 17.13236,-48.74526 -7.01805,-2.4678 -17.13513,48.7454 -6.35109,-2.23139 17.13366,-48.74667 -7.02083,-2.46769 -17.13365,48.74667 -4.30553,-1.51323 -0.53766,0.49372 -5.09523,4.66745 -34.9055,-38.09657 -5.48658,5.0274 34.90548,38.09659 -4.96343,4.54693 -34.90548,-38.09659 z m 46.57267,42.06331 12.42829,-11.38638 27.82804,9.78087 -19.70337,21.94988 -16.3722,-4.01444 z" />
  <path
     inkscape:connector-curvature="0"
     id="polyline14-8-8-4-1-9-8-8-8-5"
     style="fill:none;stroke:#ff0000"
     d="m 379.66651,714.73463 -34.90551,-38.09657 0.40865,-0.37335 -0.18212,-0.70937 -1.7136,-6.69295 50.0566,-12.81557 -1.84655,-7.20857 -50.05659,12.81556 -1.6684,-6.52114 50.05515,-12.81685 -1.8451,-7.20727 -50.05531,12.81411 -0.13817,-0.5361 -0.70927,-0.17475 -6.7108,-1.64352 12.30387,-50.1846 -7.22663,-1.77061 -12.30403,50.18185 -6.53987,-1.60295 12.30532,-50.1833 -7.22806,-1.77189 -12.30257,50.18312 -0.53824,-0.13138 -7.78243,8.66977 -38.45083,-34.51547 -4.97079,5.53764 38.45075,34.51545 -4.49725,5.01004 -38.4508,-34.51549 -4.9708,5.53764 38.45076,34.51545 -4.49594,5.00857 -38.45079,-34.51546 -4.97089,5.53758 38.45082,34.51547 -3.15471,3.51443 4.62272,1.62478 6.51756,2.2915 -17.13367,48.74667 7.01934,2.46646 17.13512,-48.74539 6.3498,2.23281 -17.13237,48.74524 7.01806,2.4678 17.13513,-48.74538 6.35109,2.23138 -17.13366,48.74666 7.02083,2.46768 17.13365,-48.74665 4.30553,1.51322 0.53766,-0.49371 5.09523,-4.66745 34.9055,38.09657 5.48659,-5.0274 -34.90549,-38.0966 4.96343,-4.54692 34.90549,38.09659 z m -46.57267,-42.06329 -12.4283,11.38636 -27.82804,-9.78085 19.70337,-21.94989 16.37221,4.01444 z" />
  <path
     d="m 371.23572,611.84568 34.90552,38.09658 -0.40866,0.37335 0.18213,0.70936 1.7136,6.69295 -50.05662,12.81558 1.84657,7.20858 50.05659,-12.81559 1.6684,6.52113 -50.05515,12.81689 1.8451,7.20726 50.0553,-12.8141 0.13816,0.5361 0.70928,0.17473 6.71081,1.64353 -12.30387,50.1846 7.22663,1.7706 12.30402,-50.18186 6.53987,1.60297 -12.30533,50.18329 7.22808,1.77189 12.30257,-50.18312 0.53823,0.1314 7.78244,-8.6698 38.45081,34.51549 4.9708,-5.53764 -38.45075,-34.51547 4.49724,-5.01002 38.45081,34.51549 4.9708,-5.53764 -38.45076,-34.51546 4.49595,-5.00856 38.45078,34.51545 4.97089,-5.5376 -38.45081,-34.51545 3.15471,-3.51441 -4.62274,-1.62478 -6.51754,-2.29152 17.13366,-48.74667 -7.01933,-2.46647 -17.13514,48.7454 -6.34979,-2.2328 17.13237,-48.74525 -7.01807,-2.4678 -17.13511,48.7454 -6.3511,-2.23139 17.13365,-48.74667 -7.02082,-2.46768 -17.13366,48.74666 -4.30552,-1.51324 -0.53766,0.49373 -5.09523,4.66745 -34.90549,-38.09658 -5.4866,5.02742 34.9055,38.09658 -4.96343,4.54693 -34.9055,-38.0966 z m 46.57268,42.0633 12.4283,-11.38637 27.82803,9.78086 -19.70337,21.94987 -16.37221,-4.01444 z"
     style="fill:none;stroke:#ff0000"
     id="polyline14-8-8-4-1-9-0-8-2-9-6"
     inkscape:connector-curvature="0" />
  <path
     inkscape:connector-curvature="0"
     id="polyline14-8-8-4-1-9-8-86-2-3"
     style="fill:none;stroke:#ff0000"
     d="m 615.19101,597.46606 -34.90551,-38.0966 0.40865,-0.37334 -0.18213,-0.70938 -1.7136,-6.69295 50.05659,-12.81556 -1.84653,-7.20857 -50.0566,12.81556 -1.6684,-6.52114 50.05514,-12.81685 -1.84509,-7.20726 -50.0553,12.8141 -0.13817,-0.5361 -0.70928,-0.17474 -6.7108,-1.64353 12.30388,-50.1846 -7.22664,-1.77059 -12.30402,50.18183 -6.53988,-1.60295 12.30533,-50.18329 -7.22807,-1.77189 -12.30257,50.18311 -0.53823,-0.13138 -7.78243,8.66977 -38.45083,-34.51547 -4.9708,5.53765 38.45076,34.51544 -4.49725,5.01003 -38.45082,-34.51547 -4.97079,5.53764 38.45076,34.51544 -4.49594,5.00856 -38.45078,-34.51545 -4.97089,5.53759 38.45082,34.51545 -3.15472,3.51442 4.62272,1.6248 6.51756,2.29151 -17.13367,48.74668 7.01935,2.46646 17.13511,-48.7454 6.34981,2.23281 -17.13237,48.74523 7.01806,2.46782 17.13512,-48.7454 6.3511,2.23139 -17.13366,48.74667 7.02083,2.46768 17.13365,-48.74666 4.30552,1.51323 0.53767,-0.49372 5.09522,-4.66745 34.90551,38.09658 5.48659,-5.0274 -34.9055,-38.0966 4.96343,-4.54693 34.90549,38.0966 z m -46.57268,-42.06332 -12.42829,11.38639 -27.82803,-9.78087 19.70336,-21.94988 16.3722,4.01443 z" />
  <path
     d="m 606.76022,494.57709 34.90549,38.09659 -0.40863,0.37334 0.18212,0.70937 1.7136,6.69295 -50.05661,12.81556 1.84656,7.20857 50.0566,-12.81557 1.66838,6.52114 -50.05514,12.81688 1.84509,7.20727 50.05531,-12.81412 0.13817,0.53609 0.70928,0.17474 6.71079,1.64356 -12.30387,50.1846 7.22663,1.7706 12.30403,-50.18186 6.53988,1.60296 -12.30533,50.1833 7.22808,1.77189 12.30257,-50.18313 0.53822,0.1314 7.78243,-8.66981 38.45083,34.51551 4.97079,-5.53765 -38.45075,-34.51548 4.49724,-5.01002 38.45081,34.5155 4.9708,-5.53765 -38.45075,-34.51546 4.49593,-5.00856 38.4508,34.51546 4.97089,-5.53759 -38.45082,-34.51547 3.1547,-3.51441 -4.62272,-1.62478 -6.51755,-2.29151 17.13366,-48.74668 -7.01934,-2.46645 -17.13512,48.74539 -6.3498,-2.23281 17.13236,-48.74523 -7.01805,-2.46781 -17.13512,48.74539 -6.3511,-2.23138 17.13366,-48.74666 -7.02082,-2.46769 -17.13366,48.74665 -4.30553,-1.51323 -0.53765,0.49372 -5.09525,4.66746 -34.90549,-38.09658 -5.48659,5.02741 34.9055,38.09658 -4.96343,4.54693 -34.90549,-38.09659 z m 46.57267,42.0633 12.42828,-11.38637 27.82805,9.78086 -19.70337,21.94987 -16.3722,-4.01444 z"
     style="fill:none;stroke:#ff0000"
     id="polyline14-8-8-4-1-9-0-8-8-6-3"
     inkscape:connector-curvature="0" />
  <path
     d="m 614.6467,713.07413 -34.90551,-38.09658 0.40864,-0.37334 -0.18211,-0.70939 -1.71361,-6.69294 50.0566,-12.81557 -1.84655,-7.20857 -50.05659,12.81555 -1.66839,-6.52113 50.05514,-12.81685 -1.84509,-7.20726 -50.0553,12.8141 -0.13817,-0.5361 -0.70928,-0.17474 -6.71081,-1.64354 12.30388,-50.18458 -7.22664,-1.77061 -12.30401,50.18184 -6.53989,-1.60295 12.30533,-50.1833 -7.22807,-1.77189 -12.30257,50.18312 -0.53822,-0.13138 -7.78244,8.66976 -38.45082,-34.51546 -4.9708,5.53765 38.45076,34.51543 -4.49725,5.01004 -38.45082,-34.51547 -4.97079,5.53763 38.45076,34.51545 -4.49595,5.00857 -38.45078,-34.51547 -4.97089,5.53759 38.45081,34.51548 -3.15471,3.51441 4.62273,1.62479 6.51756,2.2915 -17.13367,48.74668 7.01933,2.46644 17.13513,-48.74538 6.3498,2.23281 -17.13236,48.74523 7.01806,2.46782 17.13511,-48.7454 6.35111,2.23139 -17.13366,48.74666 7.02082,2.46769 17.13366,-48.74665 4.30552,1.51321 0.53766,-0.4937 5.09523,-4.66747 34.90551,38.09658 5.48658,-5.02741 -34.9055,-38.09657 4.96343,-4.54693 34.9055,38.09657 z m -46.57268,-42.0633 -12.42829,11.38637 -27.82804,-9.78086 19.70337,-21.94989 16.37221,4.01445 z"
     style="fill:none;stroke:#ff0000"
     id="polyline14-8-8-4-1-9-8-8-3-9-1"
     inkscape:connector-curvature="0" />
  <path
     inkscape:connector-curvature="0"
     id="polyline14-8-8-4-1-9-0-8-2-8-9-9"
     style="fill:none;stroke:#ff0000"
     d="m 606.21591,610.18517 34.9055,38.09658 -0.40864,0.37334 0.18212,0.70938 1.7136,6.69294 -50.05661,12.81558 1.84656,7.20857 50.0566,-12.81558 1.66839,6.52113 -50.05514,12.81689 1.84509,7.20725 50.05531,-12.81409 0.13817,0.53609 0.70927,0.17474 6.7108,1.64354 -12.30387,50.18458 7.22663,1.77061 12.30403,-50.18185 6.53986,1.60296 -12.30532,50.18329 7.22807,1.7719 12.30257,-50.18313 0.53824,0.13139 7.78243,-8.66978 38.45083,34.51548 4.97079,-5.53765 -38.45075,-34.51545 4.49725,-5.01002 38.4508,34.51547 4.9708,-5.53764 -38.45076,-34.51545 4.49594,-5.00856 38.45079,34.51545 4.97089,-5.5376 -38.45082,-34.51545 3.15471,-3.51441 -4.62272,-1.62479 -6.51756,-2.2915 17.13367,-48.74667 -7.01935,-2.46646 -17.13512,48.74539 -6.3498,-2.23281 17.13237,-48.74525 -7.01805,-2.46779 -17.13513,48.74539 -6.35109,-2.23138 17.13366,-48.74668 -7.02083,-2.46769 -17.13365,48.74667 -4.30553,-1.51323 -0.53766,0.49371 -5.09525,4.66747 -34.90548,-38.09658 -5.4866,5.02741 34.9055,38.09658 -4.96343,4.54693 -34.90548,-38.09659 z m 46.57268,42.06329 12.42829,-11.38637 27.82803,9.78087 -19.70336,21.94987 -16.3722,-4.01444 z" />
  <path
     inkscape:connector-curvature="0"
     id="polyline14-8-8-4-1-9-8-2-3-0"
     style="fill:none;stroke:#ff0000"
     d="m 850.03302,595.26947 -34.9055,-38.09662 0.40864,-0.37333 -0.18212,-0.70937 -1.7136,-6.69296 50.05658,-12.81555 -1.8465,-7.20858 -50.05663,12.81555 -1.66838,-6.52113 50.05511,-12.81686 -1.845,-7.20725 -50.05537,12.81409 -0.13817,-0.53609 -0.70928,-0.17474 -6.7108,-1.64353 12.30388,-50.1846 -7.22664,-1.77059 -12.30402,50.18184 -6.53988,-1.60295 12.30532,-50.1833 -7.22807,-1.7719 -12.30257,50.18313 -0.53822,-0.1314 -7.78243,8.66979 -38.45083,-34.51547 -4.97079,5.53763 38.45075,34.51545 -4.49725,5.01003 -38.4508,-34.51548 -4.9708,5.53764 38.45075,34.51545 -4.49594,5.00856 -38.45079,-34.51546 -4.97089,5.53759 38.45082,34.51547 -3.15471,3.51441 4.62273,1.62479 6.51755,2.29151 -17.13366,48.7467 7.01933,2.46645 17.13513,-48.7454 6.3498,2.2328 -17.13236,48.74525 7.01805,2.46781 17.13512,-48.74541 6.3511,2.23139 -17.13366,48.74668 7.02082,2.46769 17.13366,-48.74667 4.30553,1.51322 0.53765,-0.49371 5.09524,-4.66746 34.90548,38.0966 5.48655,-5.02741 -34.90544,-38.0966 4.96343,-4.54694 34.90548,38.09661 z m -46.57268,-42.06333 -12.42828,11.38639 -27.82804,-9.78088 19.70337,-21.94988 16.3722,4.01444 z" />
  <path
     d="m 841.60221,492.38049 34.90551,38.09659 -0.4087,0.37333 0.1822,0.70938 1.7136,6.69295 -50.05656,12.81556 1.84653,7.20857 50.05653,-12.81557 1.6684,6.52113 -50.0551,12.81689 1.84512,7.20725 50.05528,-12.8141 0.1382,0.53609 0.7092,0.17474 6.7108,1.64353 -12.3039,50.18462 7.2267,1.7706 12.304,-50.18186 6.5399,1.60295 -12.3054,50.18333 7.2281,1.77189 12.3026,-50.18313 0.5382,0.13139 7.7825,-8.66981 38.4508,34.51551 4.9708,-5.53765 -38.4507,-34.51547 4.4972,-5.01002 38.4508,34.51548 4.9708,-5.53763 -38.4508,-34.51546 4.496,-5.00856 38.4508,34.51546 4.9708,-5.5376 -38.4508,-34.51546 3.1547,-3.51442 -4.6227,-1.6248 -6.5176,-2.29149 17.1337,-48.74667 -7.0193,-2.46646 -17.1352,48.74539 -6.3497,-2.23281 17.1323,-48.74524 -7.018,-2.4678 -17.1351,48.74538 -6.3511,-2.23137 17.1337,-48.74668 -7.0209,-2.46768 -17.1337,48.74667 -4.3055,-1.51324 -0.5377,0.49373 -5.0952,4.66745 -34.9055,-38.09658 -5.4866,5.0274 34.9055,38.0966 -4.9634,4.54691 -34.9055,-38.09658 z m 46.57271,42.06329 12.4282,-11.38637 27.8281,9.78087 -19.7033,21.94988 -16.3722,-4.01444 z"
     style="fill:none;stroke:#ff0000"
     id="polyline14-8-8-4-1-9-0-8-6-0-0"
     inkscape:connector-curvature="0" />
  <path
     d="m 849.48872,710.87752 -34.90551,-38.09657 0.40865,-0.37334 -0.18213,-0.70938 -1.71359,-6.69294 50.05658,-12.81558 -1.8465,-7.20856 -50.05662,12.81554 -1.66841,-6.52113 50.05513,-12.81686 -1.845,-7.20724 -50.05538,12.81408 -0.13817,-0.53609 -0.70927,-0.17475 -6.7108,-1.64353 12.30387,-50.18459 -7.22663,-1.77061 -12.30403,50.18186 -6.53988,-1.60295 12.30533,-50.18331 -7.22807,-1.7719 -12.30257,50.18314 -0.53823,-0.1314 -7.78243,8.66978 -38.45083,-34.51546 -4.9708,5.53763 38.45076,34.51544 -4.49725,5.01004 -38.4508,-34.51548 -4.97079,5.53764 38.45074,34.51545 -4.49594,5.00857 -38.45078,-34.51547 -4.97089,5.53759 38.45082,34.51548 -3.15471,3.5144 4.62271,1.62479 6.51756,2.29151 -17.13366,48.74667 7.01934,2.46646 17.13512,-48.74539 6.34981,2.2328 -17.13238,48.74524 7.01806,2.4678 17.13512,-48.74539 6.3511,2.2314 -17.13365,48.74667 7.02082,2.46768 17.13365,-48.74666 4.30553,1.51323 0.53766,-0.49372 5.09524,-4.66746 34.90549,38.09658 5.48656,-5.0274 -34.90546,-38.0966 4.96343,-4.54692 34.90552,38.09659 z m -46.57268,-42.06328 -12.42829,11.38636 -27.82803,-9.78087 19.70336,-21.94989 16.3722,4.01445 z"
     style="fill:none;stroke:#ff0000"
     id="polyline14-8-8-4-1-9-8-8-30-3-9"
     inkscape:connector-curvature="0" />
  <path
     inkscape:connector-curvature="0"
     id="polyline14-8-8-4-1-9-0-8-2-4-7-0"
     style="fill:none;stroke:#ff0000"
     d="m 841.05793,607.98858 34.90549,38.09658 -0.4087,0.37333 0.1822,0.70938 1.7136,6.69294 -50.05661,12.81558 1.8465,7.20856 50.05661,-12.81556 1.6684,6.52113 -50.05509,12.81686 1.84502,7.20727 50.05537,-12.81409 0.1382,0.53608 0.7092,0.17476 6.7108,1.64353 -12.3039,50.18459 7.2267,1.77059 12.304,-50.18184 6.5399,1.60295 -12.3054,50.1833 7.2282,1.7719 12.3025,-50.18313 0.5382,0.13138 7.7825,-8.66978 38.4508,34.51548 4.9708,-5.53763 -38.4508,-34.51546 4.4973,-5.01002 38.4508,34.51547 4.9708,-5.53764 -38.4508,-34.51544 4.496,-5.00857 38.4508,34.51545 4.9708,-5.53759 -38.4508,-34.51546 3.1547,-3.5144 -4.6227,-1.6248 -6.5175,-2.2915 17.1336,-48.74668 -7.0194,-2.46645 -17.1351,48.74539 -6.3498,-2.23281 17.1324,-48.74524 -7.018,-2.46781 -17.1351,48.7454 -6.3511,-2.23139 17.1336,-48.74668 -7.0209,-2.46768 -17.1336,48.74667 -4.3055,-1.51323 -0.5377,0.49371 -5.0952,4.66748 -34.9055,-38.09659 -5.4866,5.02741 34.9056,38.09658 -4.9635,4.54693 -34.9055,-38.09659 z m 46.57269,42.06329 12.4282,-11.38637 27.8281,9.78086 -19.7034,21.94988 -16.3721,-4.01445 z" />
  <path
     d="m 1086.3398,130.2296 -34.9055,-38.096603 0.4087,-0.37333 -0.1822,-0.70937 -1.7136,-6.69296 50.0566,-12.81555 -1.8465,-7.20858 -50.0566,12.81555 -1.6684,-6.52113 50.0551,-12.81686 -1.845,-7.20725 -50.0553,12.81409 -0.1382,-0.53609 -0.7093,-0.17474 -6.7108,-1.64353 12.3039,-50.1846 -7.2267,-1.77059 -12.304,50.18184 -6.5399,-1.60295 12.3054,-50.1833 -7.2281,-1.7719 -12.3026,50.18313 -0.5382,-0.1314 -7.7824,8.66979 -38.4509,-34.51547 -4.9707,5.53763 38.4507,34.51545 -4.4972,5.01003 -38.4508,-34.51548 -4.9708,5.53764 38.4507,34.51545 -4.4959,5.00856 -38.4508,-34.51546 -4.9709,5.53759 38.4508,34.51547 -3.1547,3.51441 4.6227,1.62479 6.5176,2.29149 -17.1337,48.746703 7.0193,2.46645 17.1352,-48.7454 6.3498,2.2328 -17.1324,48.74525 7.0181,2.46781 17.1351,-48.74541 6.3511,2.23139 -17.1337,48.74668 7.0208,2.46769 17.1337,-48.74667 4.3055,1.51322 0.5377,-0.49371 5.0952,-4.66746 34.9055,38.0966 5.4866,-5.02741 -34.9055,-38.0966 4.9634,-4.546923 34.9055,38.096593 z m -46.5727,-42.063313 -12.4282,11.38637 -27.8281,-9.78086 19.7034,-21.94988 16.3722,4.01444 z"
     style="fill:none;stroke:#ff0000"
     id="polyline14-8-8-4-1-9-8-2-4"
     inkscape:connector-curvature="0" />
  <path
     inkscape:connector-curvature="0"
     id="polyline14-8-8-4-1-9-8-8-30-6"
     style="fill:none;stroke:#ff0000"
     d="m 1085.7955,245.83765 -34.9055,-38.09657 0.4087,-0.37334 -0.1822,-0.70938 -1.7136,-6.69294 50.0567,-12.81558 -1.8466,-7.20856 -50.0566,12.81554 -1.6684,-6.52113 50.0551,-12.81686 -1.845,-7.20724 -50.0554,12.81408 -0.1381,-0.53609 -0.7093,-0.17475 -6.7108,-1.64353 12.3039,-50.18459 -7.2267,-1.77061 -12.304,50.18186 -6.5399,-1.60295 12.3054,-50.18331 -7.2281,-1.7719 -12.3026,50.18314 -0.5382,-0.1314 -7.7824,8.66978 -38.4509,-34.51546 -4.9708,5.53763 38.4508,34.51544 -4.4973,5.01004 -38.4508,-34.51548 -4.9707,5.53764 38.4507,34.51545 -4.4959,5.00857 -38.4508,-34.51547 -4.9709,5.53759 38.4508,34.51548 -3.1547,3.5144 4.6227,1.62479 6.5176,2.29151 -17.1337,48.74667 7.0193,2.46646 17.1352,-48.74539 6.3498,2.2328 -17.1324,48.74524 7.0181,2.4678 17.1351,-48.74539 6.3511,2.2314 -17.1337,48.74667 7.0208,2.46768 17.1337,-48.74666 4.3055,1.51323 0.5377,-0.49372 5.0952,-4.66746 34.9055,38.09658 5.4866,-5.0274 -34.9055,-38.0966 4.9634,-4.54692 34.9056,38.09659 z m -46.5727,-42.06328 -12.4282,11.38636 -27.8281,-9.78087 19.7034,-21.94989 16.3722,4.01445 z" />
  <path
     inkscape:connector-curvature="0"
     id="polyline14-8-8-4-1-9-8-2-3-4"
     style="fill:none;stroke:#ff0000"
     d="m 1085.0925,361.42525 -34.9055,-38.09661 0.4086,-0.37333 -0.1821,-0.70937 -1.7136,-6.69296 50.0566,-12.81555 -1.8465,-7.20858 -50.0566,12.81555 -1.6684,-6.52113 50.0551,-12.81686 -1.845,-7.20725 -50.0554,12.81409 -0.1382,-0.53609 -0.7092,-0.17474 -6.7108,-1.64353 12.3038,-50.1846 -7.2266,-1.77059 -12.304,50.18184 -6.5399,-1.60295 12.3053,-50.1833 -7.228,-1.7719 -12.3026,50.18313 -0.5382,-0.1314 -7.7825,8.66979 -38.4508,-34.51547 -4.9708,5.53763 38.4508,34.51545 -4.4973,5.01003 -38.4508,-34.51548 -4.9708,5.53764 38.4508,34.51545 -4.496,5.00856 -38.4508,-34.51546 -4.9709,5.53759 38.4509,34.51547 -3.1547,3.51441 4.6227,1.62479 6.5175,2.2915 -17.1336,48.7467 7.0193,2.46645 17.1351,-48.7454 6.3498,2.2328 -17.1323,48.74525 7.018,2.46781 17.1351,-48.74541 6.3511,2.23139 -17.1336,48.74668 7.0208,2.46769 17.1337,-48.74667 4.3055,1.51322 0.5376,-0.49371 5.0953,-4.66746 34.9055,38.0966 5.4865,-5.02741 -34.9054,-38.0966 4.9634,-4.54693 34.9055,38.0966 z m -46.5727,-42.06332 -12.4283,11.38638 -27.828,-9.78087 19.7034,-21.94988 16.3722,4.01444 z" />
  <path
     d="m 1084.5482,477.0333 -34.9055,-38.09657 0.4086,-0.37334 -0.1821,-0.70938 -1.7136,-6.69294 50.0566,-12.81558 -1.8465,-7.20856 -50.0566,12.81554 -1.6684,-6.52113 50.0551,-12.81686 -1.845,-7.20724 -50.0554,12.81408 -0.1382,-0.53609 -0.7092,-0.17475 -6.7108,-1.64353 12.3038,-50.18459 -7.2266,-1.77061 -12.304,50.18186 -6.5399,-1.60295 12.3053,-50.18331 -7.228,-1.7719 -12.3026,50.18314 -0.5382,-0.1314 -7.7825,8.66978 -38.4508,-34.51546 -4.9708,5.53763 38.4508,34.51544 -4.4973,5.01004 -38.4508,-34.51548 -4.9708,5.53764 38.4508,34.51545 -4.496,5.00857 -38.4508,-34.51547 -4.9709,5.53759 38.4509,34.51548 -3.1547,3.5144 4.6227,1.62479 6.5175,2.29151 -17.1336,48.74667 7.0193,2.46646 17.1351,-48.74539 6.3498,2.2328 -17.1323,48.74524 7.018,2.4678 17.1351,-48.74539 6.3511,2.2314 -17.1336,48.74667 7.0208,2.46768 17.1337,-48.74666 4.3055,1.51323 0.5376,-0.49372 5.0953,-4.66746 34.9055,38.09658 5.4865,-5.0274 -34.9054,-38.0966 4.9634,-4.54692 34.9055,38.09659 z m -46.5727,-42.06328 -12.4283,11.38636 -27.828,-9.78087 19.7033,-21.94989 16.3722,4.01445 z"
     style="fill:none;stroke:#ff0000"
     id="polyline14-8-8-4-1-9-8-8-30-3-8"
     inkscape:connector-curvature="0" />
  <path
     d="m 1084.8751,593.07287 -34.9055,-38.09662 0.4086,-0.37333 -0.1821,-0.70937 -1.7136,-6.69296 50.0566,-12.81555 -1.8465,-7.20858 -50.0566,12.81555 -1.6684,-6.52113 50.0551,-12.81686 -1.845,-7.20725 -50.0554,12.81409 -0.1381,-0.53609 -0.7093,-0.17474 -6.7108,-1.64353 12.3039,-50.1846 -7.2267,-1.77059 -12.304,50.18184 -6.5399,-1.60295 12.3053,-50.1833 -7.228,-1.7719 -12.3026,50.18313 -0.5382,-0.1314 -7.7825,8.66979 -38.4508,-34.51547 -4.9708,5.53763 38.4508,34.51545 -4.4973,5.01003 -38.4508,-34.51548 -4.9708,5.53764 38.4508,34.51545 -4.496,5.00856 -38.4508,-34.51546 -4.9708,5.53759 38.4508,34.51547 -3.1547,3.51441 4.6227,1.62479 6.5175,2.29151 -17.1336,48.7467 7.0193,2.46645 17.1351,-48.7454 6.3498,2.2328 -17.1323,48.74525 7.018,2.46781 17.1352,-48.74541 6.3511,2.23139 -17.1337,48.74668 7.0208,2.46769 17.1337,-48.74667 4.3055,1.51322 0.5377,-0.49371 5.0952,-4.66746 34.9055,38.0966 5.4865,-5.02741 -34.9054,-38.0966 4.9634,-4.54694 34.9055,38.09661 z m -46.5727,-42.06333 -12.4283,11.38639 -27.828,-9.78088 19.7034,-21.94988 16.3722,4.01444 z"
     style="fill:none;stroke:#ff0000"
     id="polyline14-8-8-4-1-9-8-2-3-0-2"
     inkscape:connector-curvature="0" />
  <path
     inkscape:connector-curvature="0"
     id="polyline14-8-8-4-1-9-8-8-30-3-9-4"
     style="fill:none;stroke:#ff0000"
     d="m 1084.3308,708.68092 -34.9055,-38.09657 0.4086,-0.37334 -0.1821,-0.70938 -1.7136,-6.69294 50.0566,-12.81558 -1.8465,-7.20856 -50.0566,12.81554 -1.6684,-6.52113 50.0551,-12.81686 -1.845,-7.20724 -50.0554,12.81408 -0.1382,-0.53609 -0.7092,-0.17475 -6.7108,-1.64353 12.3038,-50.18459 -7.2266,-1.77061 -12.304,50.18186 -6.5399,-1.60295 12.3053,-50.18331 -7.228,-1.7719 -12.3026,50.18314 -0.5382,-0.1314 -7.7825,8.66978 -38.4508,-34.51546 -4.9708,5.53763 38.4508,34.51544 -4.4973,5.01004 -38.4508,-34.51548 -4.9708,5.53764 38.4508,34.51545 -4.496,5.00857 -38.4508,-34.51547 -4.9708,5.53759 38.4508,34.51548 -3.1547,3.5144 4.6227,1.62479 6.5175,2.29151 -17.1336,48.74667 7.0193,2.46646 17.1351,-48.74539 6.3498,2.2328 -17.1323,48.74524 7.018,2.4678 17.1351,-48.74539 6.3511,2.2314 -17.1336,48.74667 7.0208,2.46768 17.1337,-48.74666 4.3055,1.51323 0.5377,-0.49372 5.0952,-4.66746 34.9055,38.09658 5.4865,-5.0274 -34.9054,-38.0966 4.9634,-4.54692 34.9055,38.09659 z m -46.5727,-42.06328 -12.4283,11.38636 -27.828,-9.78087 19.7034,-21.94989 16.3722,4.01445 z" />
</svg>
