<?xml version="1.0" encoding="UTF-8" standalone="no"?>
<svg
   xmlns:dc="http://purl.org/dc/elements/1.1/"
   xmlns:cc="http://creativecommons.org/ns#"
   xmlns:rdf="http://www.w3.org/1999/02/22-rdf-syntax-ns#"
   xmlns:svg="http://www.w3.org/2000/svg"
   xmlns="http://www.w3.org/2000/svg"
   xmlns:sodipodi="http://sodipodi.sourceforge.net/DTD/sodipodi-0.dtd"
   xmlns:inkscape="http://www.inkscape.org/namespaces/inkscape"
   height="36mm"
   version="1.1"
   width="52mm"
   id="svg6873"
   sodipodi:docname="num0.svg">
  <metadata
     id="metadata6877">
    <rdf:RDF>
      <cc:Work
         rdf:about="">
        <dc:format>image/svg+xml</dc:format>
        <dc:type
           rdf:resource="http://purl.org/dc/dcmitype/StillImage" />
        <dc:title></dc:title>
      </cc:Work>
    </rdf:RDF>
  </metadata>
  <sodipodi:namedview
     pagecolor="#ffffff"
     bordercolor="#666666"
     inkscape:document-rotation="0"
     borderopacity="1"
     objecttolerance="10"
     gridtolerance="10"
     guidetolerance="10"
     inkscape:pageopacity="0"
     inkscape:pageshadow="2"
     inkscape:window-width="640"
     inkscape:window-height="480"
     id="namedview6875"
     showgrid="false" />
  <defs
     id="defs6867" />
  <g
     id="g7452">
    <polyline
       id="polyline6869"
       style="fill:none;stroke:#ff0000"
       points="147.8828051853603,2.4234001113857615 142.61048779820104,26.521457670448022 152.64863671551834,28.71766402329916 153.68809999484043,28.945084025564668 154.10201791395718,30.775014885565056 179.85159319717488,24.95063604226182 182.3531086958055,36.0098345197182 156.60353341258784,41.83421336632139 158.7923594751271,51.51101203822068 184.54193475999477,45.68663319326746 187.04345025697543,56.745831672373825 161.29387497540773,62.57021051732704 163.56087339738235,72.59260914267807 164.0529850580369,74.76823449508578 163.4925686414644,75.20343809838818 178.6226144218846,94.6865627740097 169.66724809190214,101.64104799155251 154.53720230983194,82.15792331923096 146.42140157024318,88.46042554912444 145.66306853410836,89.04932562060506 105.42388742769808,89.04932562060506 105.42388742769808,129.06025251090716 94.08530503033803,129.06025251090716 94.08530503033803,89.04932562060506 84.16404542769807,89.04932562060506 84.16404542769807,129.06025251090716 72.82546303033804,129.06025251090716 72.82546303033804,89.04932562060506 62.90420342769807,89.04932562060506 62.90420342769807,129.06025251090716 51.56562103033804,129.06025251090716 51.56562103033804,89.04932562060506 41.64436142769807,89.04932562060506 41.64436142769807,129.06025251090716 30.30577903033804,129.06025251090716 30.30577903033804,89.04932562060506 13.374294745174842,89.04932562060506 12.452822523925711,84.97549399223936 11.531350497374326,80.90166322021376 17.219527895517686,78.18963500428993 0.0,42.073591375804675 10.234801834658896,37.19380837640926 27.45432973182656,73.30985200324453 36.40978134437176,69.04004187567983 19.190253447204096,32.92399824719457 29.42505528351297,28.04421524614917 46.644583180680634,64.16025887463444 55.60003479322584,59.89044874541975 38.38050689605817,23.77440511858447 48.61530873236705,18.89462211753907 65.8348366295347,55.01066574602433 74.79028824207991,50.74085561680964 57.570760344912244,14.624811988324383 67.80556218122112,9.745028988928967 85.02509007838879,45.86107261576424 94.30037924687491,41.43876927024186 130.94214224620407,23.968587133430535 131.53390968419052,24.098057559062262 136.8062270713498,0.0 147.8828051853603,2.4234001113857615" />
    <polyline
       id="polyline6871"
       style="fill:none;stroke:#ff0000"
       points="143.0363631602421,39.67226535567753 149.8215244636683,69.66945928896023 141.29177759688932,76.29342042192505 50.836035555306225,76.29342042192505 132.4861207426906,37.364020120497884 143.0363631602421,39.67226535567753" />
  </g>
</svg>
