<?xml version="1.0" encoding="utf-8" ?>
<svg baseProfile="full" height="43mm" version="1.1" width="62mm" xmlns="http://www.w3.org/2000/svg" xmlns:ev="http://www.w3.org/2001/xml-events" xmlns:xlink="http://www.w3.org/1999/xlink"><defs /><circle cx="170.8747124829004" cy="106.52178749221011" r="15" style="fill:none;stroke:#ff00dd" /><circle cx="22.946888369343572" cy="106.52178749221007" r="15" style="fill:none;stroke:#ff00dd" /><circle cx="20.26939227427807" cy="94.68456871288724" r="15" style="fill:none;stroke:#ff00dd" /><circle cx="153.79681349792875" cy="31.020918879929688" r="15" style="fill:none;stroke:#ff00dd" /><circle cx="181.33784172295358" cy="37.0465100145812" r="15" style="fill:none;stroke:#ff00dd" /><circle cx="193.14141372685856" cy="89.23009456096044" r="15" style="fill:none;stroke:#ff00dd" /><polyline points="166.98115358450048,126.30485155420884 6.545054207904893,126.30485155420884 -3.049764308278796,83.88612828014675 141.76829622393248,14.839289730270337 193.10669968421143,26.0714131727908 208.48793679753555,94.07185296046806 166.98115358450048,126.30485155420884" style="fill:none;stroke:#000000" /><polyline points="188.3568385686796,92.94566084692599 207.833437614152,118.02588948145997 199.0897522523495,124.8159892230988 179.61315320687714,99.73576058856487 170.8747124829004,106.52178749221011 150.57931942306178,106.52178749221007 150.57931942306178,153.61932838332532 139.92413863726054,153.61932838332532 139.92413863726054,106.52178749221007 129.30724758077545,106.52178749221007 129.30724758077545,153.61932838332532 118.65206679497419,153.61932838332532 118.65206679497419,106.52178749221007 108.03517573848904,106.52178749221007 108.03517573848904,153.61932838332532 97.3799949526878,153.61932838332532 97.3799949526878,106.52178749221007 86.76310389620265,106.52178749221007 86.76310389620265,153.61932838332532 76.10792311040146,153.61932838332532 76.10792311040146,106.52178749221007 65.49103205391631,106.52178749221007 65.49103205391631,153.61932838332532 54.83585126811506,153.61932838332532 54.83585126811506,106.52178749221007 44.21896021162997,106.52178749221007 44.21896021162997,153.61932838332532 33.56377942582872,153.61932838332532 33.56377942582872,106.52178749221007 22.946888369343572,106.52178749221007 22.946888369343572,106.52178749221007 20.26939227427807,94.68456871288724 0.0,52.171773935076324 9.6179348737944,47.58610282490151 29.887327148072465,90.09889760271243 39.470699668557174,85.52970524677662 19.201307394279056,43.016910468965705 28.819242268073452,38.43123935879089 49.08863454235152,80.9440341366018 58.67200706283617,76.374841780666 38.40261478855816,33.862047002855086 48.02054966235251,29.27637589268027 68.28994193663057,71.78917067049119 77.87331445711528,67.21997831455539 57.603922182837216,24.70718353674447 67.2218570566316,20.121512426569655 87.49124933090968,62.63430720438057 97.07462185139434,58.06511484844474 76.80522957711626,15.552320070633854 86.42316445091066,10.966648960459036 106.69255672518874,53.47944373826995 116.27592924567344,48.910251382334124 96.00653697139538,6.397456604523211 105.62447184518972,1.8117854943484188 125.89386411946779,44.32458027215931 135.47723663995248,39.75538791622351 153.79681349792875,31.020918879929688 160.58375595572002,0.0 171.3985651834987,2.3661287470249253 164.6116227257074,33.38704762695461 175.4199450140313,35.75175712250673 181.33784172295358,37.04651001458122 213.9994160579221,29.658683981261174 216.9520783231177,42.71240203387788 184.29050398814917,50.10022806719793 187.23962518326857,63.138291051192645 219.90119951823715,55.75046501787262 222.85386178343273,68.80418307048932 190.19228744846413,76.19200910380933 193.14140864358353,89.23007208780406 188.3568385686796,92.94566084692599" style="fill:none;stroke:#ff0000" /><polyline points="170.8747124829004,106.52178749221011 22.946888369343572,106.52178749221007 20.26939227427807,94.68456871288724 153.79681349792875,31.020918879929688 181.33784172295358,37.0465100145812 193.14141372685856,89.23009456096044 170.8747124829004,106.52178749221011" style="fill:none;stroke:#00ff00" /><polyline points="201.3136077197269,109.63023354436952 183.8314816339477,123.20636018965365" style="fill:none;stroke:#0000ff" /><polyline points="150.57931942306178,142.98940738332533 22.946888369343572,142.98940738332533" style="fill:none;stroke:#0000ff" /><polyline points="-13.853027848474985,114.84567115177879 -16.530521072415667,103.00846506570775" style="fill:none;stroke:#0000ff" /><polyline points="4.5747965645760535,61.766900659564335 119.78264093025048,6.8377198629006095" style="fill:none;stroke:#0000ff" /><polyline points="158.3118183504866,10.384291982805927 179.93494986658914,15.115130225382972" style="fill:none;stroke:#0000ff" /><polyline points="203.6314174818281,32.003854762324394 215.434984402458,84.18741683554728" style="fill:none;stroke:#0000ff" /></svg>