<?xml version="1.0" encoding="utf-8" ?>
<svg baseProfile="tiny" height="40mm" version="1.2" width="60mm" xmlns="http://www.w3.org/2000/svg" xmlns:ev="http://www.w3.org/2001/xml-events" xmlns:xlink="http://www.w3.org/1999/xlink"><defs /><polyline fill="none" points="196.6215,104.7897 183.1002,115.2899" stroke="rgb(0%,0%,100%)" /><polyline fill="none" points="146.5529,136.6109 21.5499,136.6109" stroke="rgb(0%,0%,100%)" /><polyline fill="none" points="-17.0147,106.4779 -18.7923,98.6192" stroke="rgb(0%,0%,100%)" /><polyline fill="none" points="3.0499,54.8226 115.8842,1.0251" stroke="rgb(0%,0%,100%)" /><polyline fill="none" points="158.0496,4.5417 174.7737,8.2007" stroke="rgb(0%,0%,100%)" /><polyline fill="none" points="203.0395,34.9969 210.6035,68.4374" stroke="rgb(0%,0%,100%)" /><polyline fill="none" points="205.7762,87.6934 164.2695,119.9264 3.8334,119.9264 -5.7615,77.5076 139.0566,8.4608 190.395,19.6929 205.7762,87.6934" stroke="rgb(0%,0%,0%)" /><polyline fill="none" points="183.6647,88.1051 146.5529,100.1433 146.5529,143.6975 134.0339,143.6975 134.0339,100.1433 121.5523,100.1433 121.5523,143.6975 109.0333,143.6975 109.0333,100.1433 96.5517,100.1433 96.5517,143.6975 84.0327,143.6975 84.0327,100.1433 71.5511,100.1433 71.5511,143.6975 59.032,143.6975 59.032,100.1433 46.5505,100.1433 46.5505,143.6975 34.0314,143.6975 34.0314,100.1433 21.5499,100.1433 19.7852,98.1541 18.7445,87.7403 0.0,48.4258 11.3004,43.038 30.0448,82.3524 41.3113,76.9808 22.5669,37.6663 33.8672,32.2785 52.6117,71.5929 63.8782,66.2212 45.1337,26.9068 56.4341,21.519 75.1785,60.8334 86.445,55.4617 67.7006,16.1473 79.0009,10.7595 97.7454,50.0739 109.0119,44.7022 90.2674,5.3878 101.5678,0.0 120.3123,39.3144 131.5788,33.9427 153.5346,25.1784 180.7459,40.0396 209.9515,33.4335 213.7346,50.1587 184.5291,56.7648 188.3099,73.48 183.6647,88.1051" stroke="rgb(100%,0%,0%)" /><polyline fill="none" points="205.7762,87.6934 164.2695,119.9264 3.8334,119.9264 -5.7615,77.5076 139.0566,8.4608 190.395,19.6929" stroke="rgb(0%,100%,0%)" /></svg>