<?xml version="1.0" encoding="utf-8" ?>
<svg baseProfile="full" height="93mm" version="1.1" width="73mm" xmlns="http://www.w3.org/2000/svg" xmlns:ev="http://www.w3.org/2001/xml-events" xmlns:xlink="http://www.w3.org/1999/xlink"><defs /><polyline points="249.0845803334387,306.9315537766164 25.85622579363573,306.9315537766164 125.27733345095281,-30.082363606721536 249.0845803334387,306.9315537766164" style="fill:none;stroke:#000000" /><polyline points="166.51644532956504,10.31052334711653 125.91985055991475,25.224306939602453 129.46321028340438,34.86963523376951 170.05980505305467,19.955851641283587 173.84753441384186,30.266374988400116 133.2509396441916,45.18015857923606 136.79429936768122,54.825486873403115 177.39089413733151,39.911703282567174 181.17862349646873,50.2222266296837 140.58202872846843,65.13601022051964 144.12538845195806,74.7813385146867 184.72198322160835,59.86755492385076 188.50971258074557,70.17807826931731 147.91311781109528,85.09186186180322 151.4564775362349,94.73719015597028 192.0530723058852,79.82340656348437 195.8408016650224,90.1339299106009 155.24420689537212,105.04771350308681 158.78756662051174,114.69304179560389 199.38416138851204,99.77925820476796 203.17189074929925,110.08978155188449 162.57529597964896,125.00356514272042 166.1186557031386,134.64889343688748 206.71525047278888,119.73510984605154 210.5029798319261,130.04563319316807 169.9063850639258,144.95941678400402 173.44974478741543,154.60474507817108 214.04633955706572,139.69096148568514 217.83406891620294,150.00148483280168 177.23747414655264,164.9152684252876 180.78083387169227,174.56059671945465 221.37742864134256,159.64681312696874 225.16515800047978,169.95733647408525 184.56856323082948,184.8711200649212 188.1119229559691,194.51644835908826 228.7085177239694,179.6026647682523 232.49624708475662,189.91318811536885 191.89965231510632,204.8269717062048 195.44301203859598,214.47230000037183 236.03960680824625,199.55851640788592 239.82733616738346,209.86903975500246 199.23074139938316,224.78282334748837 202.7741011228728,234.42815164165543 243.3706958925231,219.51436804916952 247.1584252516603,229.82489139628603 206.56183048201,244.73867498712198 210.10519020714963,254.38400328128904 250.70178497679993,239.4702196904531 254.48951433593714,249.78074303756964 213.89291956628685,264.6945266284056 217.43627929142647,274.3398549225726 258.0328740594268,259.4260713317367 261.82060342021396,269.73659467720324 221.2240086505637,284.65037826968916 224.76736837405335,294.2957065638562 233.31685741408646,291.1549202465134 233.31685741408646,330.94647871464065 222.33260571540646,330.94647871464065 222.33260571540646,289.31558870944025 212.05701541408646,289.31558870944025 212.05701541408646,330.94647871464065 201.07276371540644,330.94647871464065 201.07276371540644,289.31558870944025 190.79717341408647,289.31558870944025 190.79717341408647,330.94647871464065 179.81292171540645,330.94647871464065 179.81292171540645,289.31558870944025 169.53733141408645,289.31558870944025 169.53733141408645,330.94647871464065 158.55307971540645,330.94647871464065 158.55307971540645,289.31558870944025 148.27748941408646,289.31558870944025 148.27748941408646,330.94647871464065 137.29323771540643,330.94647871464065 137.29323771540643,289.31558870944025 127.01764741408647,289.31558870944025 127.01764741408647,330.94647871464065 116.03339571540644,330.94647871464065 116.03339571540644,289.31558870944025 105.75780541408646,289.31558870944025 105.75780541408646,330.94647871464065 94.77355371540645,330.94647871464065 94.77355371540645,289.31558870944025 84.49796341408647,289.31558870944025 84.49796341408647,330.94647871464065 73.51371171540644,330.94647871464065 73.51371171540644,289.31558870944025 63.238121414086464,289.31558870944025 63.238121414086464,330.94647871464065 52.253869715406445,330.94647871464065 52.253869715406445,289.31558870944025 41.978279414086465,289.31558870944025 41.978279414086465,330.94647871464065 0.0,330.94647871464065 10.224261906824687,296.28866168285134 37.65135160899627,304.3798160753093 40.55883388099035,294.52414243626146 13.131744178818764,286.4329880438035 16.239742466783156,275.897612775842 43.66683217060472,283.98876716994994 46.57431444094882,274.1330935309021 19.147224738777233,266.04193913844415 22.25522302674162,255.50656387048264 49.68231273056318,263.5977182629406 52.58979500090728,253.74204462389272 25.1627052987357,245.65089023143477 28.27070358835007,235.11551496347326 55.69779329052165,243.2066693575812 58.60527556086575,233.35099571853337 31.178185858694167,225.25984132607542 34.286184148308536,214.7244660581139 61.71327385048012,222.81562045057186 64.6207561224742,212.959946811524 37.19366641865263,204.86879241906604 40.301664708267005,194.33341715110453 67.72875441043858,202.42457154521247 70.63623668243267,192.5688979061646 43.20914698026108,184.47774351370668 46.317145268225474,173.94236824574517 73.74423497039706,182.03352263820312 76.65171724239113,172.17784899915526 49.22462754021955,164.0866946066973 52.33262582818394,153.5513193387358 79.7597155320055,161.64247373284374 82.6671978023496,151.78680009379588 55.24010810017802,143.69564570133792 58.34810638814241,133.16027043337644 85.77519609196398,141.2514248258344 88.68267836230807,131.39575118678653 61.25558866013649,123.30459679432857 64.36358694975085,112.76922152636708 91.79067665192244,120.86037592047501 94.69815892226654,111.00470228142716 67.27106922009496,102.9135478889692 70.37906750970933,92.37817262100769 97.80615721188092,100.46932701346564 100.71363948387499,90.6136533744178 73.28654978005342,82.52249898195984 76.39454806966779,71.98712371399834 103.82163777183938,80.07827810645628 106.72912004383345,70.22260446905842 79.30203034166188,62.13145007660047 82.41002862962625,51.59607480863896 109.83711833179784,59.68722920109691 112.74460060379192,49.83155556204906 85.31751090162034,41.74040116959111 88.42550918958473,31.205025901629604 115.8525988934063,39.296180294087556 118.76008116375039,29.440506656689685 91.3329914615788,21.349352264231737 94.44098974954319,10.813976996270226 121.86807945336476,18.905131388728176 123.15657602614546,14.537434354104194 162.72871597042783,0.0 166.51644532956504,10.31052334711653" style="fill:none;stroke:#ff0000" /><polyline points="266.2853203431343,318.3677388653006 16.825480061124285,318.3677388653006 127.92952725028213,-58.24856589167596 266.2853203431343,318.3677388653006" style="fill:none;stroke:#ff0000" /></svg>