<?xml version="1.0" encoding="utf-8" ?>
<svg baseProfile="full" height="36mm" version="1.1" width="52mm" xmlns="http://www.w3.org/2000/svg" xmlns:ev="http://www.w3.org/2001/xml-events" xmlns:xlink="http://www.w3.org/1999/xlink"><defs /><polyline points="141.41191950324034,108.26712182427961 -2.9805699356956676,108.26712182427961 -11.615906600261031,70.09027087762372 118.72034787872911,7.948116182734963 164.9249109929802,18.057027281003375 178.76802439497192,79.25742308991293 141.41191950324034,108.26712182427961" style="fill:none;stroke:#000000" /><polyline points="147.43570263920637,2.3476688574408993 142.16338525204708,26.44572641650316 152.3746057015966,28.679798395501738 153.30399382005712,28.8831354943637 153.7321387308247,30.77596388197897 179.48171401404235,24.951585037025755 181.90505715488763,35.66518356268036 156.15548187001997,41.48956240928356 158.4224802919946,51.511961034634595 184.17205557686225,45.6875821880314 186.59539871605756,56.40118071533599 160.8458234328399,62.225559560289206 163.15190803453217,72.42075816236611 163.61916049886997,74.48648101286344 163.00781182511628,74.9612371712345 178.13785760718645,94.44436184685601 169.46234647290188,101.18151940294904 154.33230069083172,81.6983947289775 146.07657235256897,88.10956079042087 145.36619077422267,88.66122311123543 105.01055669223375,88.66122311123543 105.01055669223375,128.67215000153752 94.02630499355374,128.67215000153752 94.02630499355374,88.66122311123543 83.75071469223376,88.66122311123543 83.75071469223376,128.67215000153752 72.76646299355374,128.67215000153752 72.76646299355374,88.66122311123543 62.49087269223376,88.66122311123543 62.49087269223376,128.67215000153752 51.50662099355374,128.67215000153752 51.50662099355374,88.66122311123543 41.23103069223375,88.66122311123543 41.23103069223375,128.67215000153752 30.24677899355374,128.67215000153752 30.24677899355374,88.66122311123543 13.279696791240898,88.66122311123543 12.38945711947722,84.7254706854917 11.499217546712396,80.78971868544303 17.219527895517686,78.06237001242694 0.0,41.94632638394168 9.914964280367958,37.21903660250394 27.134492177535623,73.33508022933921 36.40978134437176,68.91277688381683 19.190253447204096,32.796733255331574 29.105217729222034,28.069443472243854 46.3247456263897,64.18548710072912 55.60003479322584,59.76318375355675 38.38050689605817,23.64714012672147 48.295471178076106,18.91985034363375 65.51499907524378,55.03589397211901 74.79028824207991,50.613590624946646 57.570760344912244,14.497546996461388 67.48572462693018,9.77025721502365 84.70525252409784,45.886300841858926 94.14046046972943,41.387750887357704 130.72742100678096,23.94369765336435 131.43295020415098,24.098057559062262 136.70526759131027,0.0 147.43570263920637,2.3476688574408993" style="fill:none;stroke:#ff0000" /><polyline points="142.80019777411778,39.46132819564791 149.58535907754398,69.4585221289306 141.055612210765,76.08248326189542 50.59987016918191,76.08248326189542 132.2499553565663,37.15308296046826 142.80019777411778,39.46132819564791" style="fill:none;stroke:#ff0000" /></svg>