<?xml version="1.0" encoding="UTF-8" standalone="no"?>
<svg
   xmlns:dc="http://purl.org/dc/elements/1.1/"
   xmlns:cc="http://creativecommons.org/ns#"
   xmlns:rdf="http://www.w3.org/1999/02/22-rdf-syntax-ns#"
   xmlns:svg="http://www.w3.org/2000/svg"
   xmlns="http://www.w3.org/2000/svg"
   xmlns:sodipodi="http://sodipodi.sourceforge.net/DTD/sodipodi-0.dtd"
   xmlns:inkscape="http://www.inkscape.org/namespaces/inkscape"
   height="36mm"
   version="1.1"
   width="52mm"
   id="svg12057"
   sodipodi:docname="num0.svg">
  <metadata
     id="metadata12061">
    <rdf:RDF>
      <cc:Work
         rdf:about="">
        <dc:format>image/svg+xml</dc:format>
        <dc:type
           rdf:resource="http://purl.org/dc/dcmitype/StillImage" />
        <dc:title></dc:title>
      </cc:Work>
    </rdf:RDF>
  </metadata>
  <sodipodi:namedview
     pagecolor="#ffffff"
     bordercolor="#666666"
     inkscape:document-rotation="0"
     borderopacity="1"
     objecttolerance="10"
     gridtolerance="10"
     guidetolerance="10"
     inkscape:pageopacity="0"
     inkscape:pageshadow="2"
     inkscape:window-width="640"
     inkscape:window-height="480"
     id="namedview12059"
     showgrid="false" />
  <defs
     id="defs12051" />
  <path
     id="polyline12053"
     style="fill:none;stroke:#ff0000"
     d="M 136.70508 0 L 131.43359 24.097656 L 130.72656 23.943359 L 94.140625 41.388672 L 84.705078 45.886719 L 67.486328 9.7695312 L 57.570312 14.498047 L 74.791016 50.613281 L 65.515625 55.035156 L 48.294922 18.919922 L 38.380859 23.646484 L 55.599609 59.763672 L 46.324219 64.185547 L 29.105469 28.070312 L 19.189453 32.796875 L 36.410156 68.912109 L 27.134766 73.335938 L 9.9140625 37.21875 L 0 41.947266 L 17.21875 78.0625 L 11.5 80.789062 L 12.388672 84.724609 L 13.279297 88.662109 L 30.246094 88.662109 L 30.246094 128.67188 L 41.230469 128.67188 L 41.230469 88.662109 L 51.505859 88.662109 L 51.505859 128.67188 L 62.490234 128.67188 L 62.490234 88.662109 L 72.765625 88.662109 L 72.765625 128.67188 L 83.75 128.67188 L 83.75 88.662109 L 94.025391 88.662109 L 94.025391 128.67188 L 105.00977 128.67188 L 105.00977 88.662109 L 145.36523 88.662109 L 146.07617 88.109375 L 154.33203 81.699219 L 169.46289 101.18164 L 178.13867 94.445312 L 163.00781 74.960938 L 163.61914 74.486328 L 163.15234 72.419922 L 160.8457 62.224609 L 186.5957 56.400391 L 184.17188 45.6875 L 158.42188 51.511719 L 156.15625 41.490234 L 181.9043 35.666016 L 179.48242 24.951172 L 153.73242 30.775391 L 153.30469 28.882812 L 152.375 28.679688 L 142.16406 26.445312 L 147.43555 2.3476562 L 136.70508 0 z M 132.25 37.152344 L 142.80078 39.460938 L 149.58594 69.458984 L 141.05469 76.082031 L 50.599609 76.082031 L 132.25 37.152344 z " />
</svg>
