<?xml version="1.0" encoding="utf-8" ?>
<svg baseProfile="full" height="42mm" version="1.1" width="49mm" xmlns="http://www.w3.org/2000/svg" xmlns:ev="http://www.w3.org/2001/xml-events" xmlns:xlink="http://www.w3.org/1999/xlink"><defs /><circle cx="141.3323764909465" cy="107.57238218160454" r="15" style="fill:none;stroke:#ff00dd" /><circle cx="41.23617230866129" cy="107.5723821816045" r="15" style="fill:none;stroke:#ff00dd" /><circle cx="37.41046298995663" cy="101.12249013394263" r="15" style="fill:none;stroke:#ff00dd" /><circle cx="84.2010596281846" cy="19.49474435748318" r="15" style="fill:none;stroke:#ff00dd" /><circle cx="98.36730449154305" cy="19.49475452463504" r="15" style="fill:none;stroke:#ff00dd" /><circle cx="145.15780331062103" cy="101.12296214889898" r="15" style="fill:none;stroke:#ff00dd" /><polyline points="149.76847373061537,125.97883177730307 32.79997516198682,125.97883177730307 17.3570548542493,99.94309288868334 71.9313175135193,4.73648390415367 110.63732090317929,4.7365116835560075 165.2112622620245,99.94329785908336 149.76847373061537,125.97883177730307" style="fill:none;stroke:#000000" /><polyline points="145.01370499907887,101.36590250064151 141.3322765839409,107.5723821816044 141.3322765839409,151.6354678625355 128.80524913388967,151.6354678625355 128.80524913388967,107.57238218160444 116.30825051512102,107.5723821816044 116.30825051512102,151.6354678625355 103.78122306506978,151.63546786253553 103.78122306506978,107.57238218160444 91.28422444630108,107.57238218160444 91.28422444630108,151.63546786253553 78.75719699624985,151.6354678625356 78.75719699624985,107.57238218160444 66.2601983774812,107.5723821816045 66.2601983774812,151.6354678625356 53.73317092742996,151.6354678625356 53.73317092742996,107.57238218160444 41.23617230866129,107.5723821816045 41.23617230866129,107.5723821816045 37.41046298995663,101.12249013394263 0.0,79.67809194357599 5.715960694553523,69.70640917041696 43.12642368451017,91.1508073607836 48.828682515632856,81.20302794225456 11.418219525676236,59.75862975188792 17.13418022022976,49.786946978728885 54.54464321018641,71.23134516909553 60.24690204130912,61.283565750566495 22.83643905135247,39.83916756019985 28.55239974590602,29.867484787040816 65.96286273586261,51.311882977407464 71.66512156698535,41.364103558878426 34.25465857702871,19.919705368511778 39.97061927158223,9.948022595352745 77.38108226153888,31.392420785719366 83.08334109266158,21.444641367190354 84.20131274108199,19.494744357665134 99.48492949560742,21.444503473253956 136.8958660338667,0.0 142.6118261918157,9.971759103256977 105.20088965355637,31.41626257651093 110.90314794936084,41.36411814216521 148.31408448762014,19.919614668911258 154.03004464556912,29.891373772168233 116.61910810730973,51.33587724542219 122.3213664031142,61.28373281107647 159.73230294137355,39.839229337822516 165.44826309932247,49.810988441079495 128.03732656106314,71.25549191433345 133.73958485686757,81.20334747998773 171.15052139512696,59.758844006733774 176.86648155307591,69.73060310999075 139.45554501481652,91.1751065832447 145.15780331062098,101.12296214889898 145.01370499907887,101.36590250064151" style="fill:none;stroke:#ff0000" /><polyline points="141.3323764909465,107.57238218160454 41.23617230866129,107.5723821816045 37.41046298995663,101.12249013394263 84.2010596281846,19.49474435748318 98.36730449154305,19.49475452463504 145.15780331062103,101.12296214889898 141.3323764909465,107.57238218160454" style="fill:none;stroke:#00ff00" /><polyline points="170.34797136954467,116.39273926098572 166.66664286141236,122.59921894194875" style="fill:none;stroke:#0000ff" /><polyline points="141.3322765839409,141.00554686253548 41.23617230866129,141.0055468625356" style="fill:none;stroke:#0000ff" /><polyline points="15.901733742545634,122.59933100343369 12.220222279844567,116.39254697241644" style="fill:none;stroke:#0000ff" /><polyline points="9.222233796679422,84.96445404483475 54.89511189938436,5.286605278082449" style="fill:none;stroke:#0000ff" /><polyline points="84.20133068075295,-5.5012204726954925 98.367322431214,-5.501210305725584" style="fill:none;stroke:#0000ff" /><polyline points="127.6736145643069,5.286331270214112 173.34648837932056,84.96478994585917" style="fill:none;stroke:#0000ff" /></svg>