<?xml version="1.0" encoding="utf-8" ?>
<svg baseProfile="full" height="50mm" version="1.1" width="47mm" xmlns="http://www.w3.org/2000/svg" xmlns:ev="http://www.w3.org/2001/xml-events" xmlns:xlink="http://www.w3.org/1999/xlink"><defs /><polyline points="119.92266050513402,162.18836784726994 42.72028360807844,162.18836784726992 4.733837846767959,80.10138363934777 61.75081046824318,-8.001699519446637 100.89210563725553,-8.001688048833456 157.9091434809713,80.10138141688735 119.92266050513402,162.18836784726994" style="fill:none;stroke:#000000" /><polyline points="132.3153644290062,9.221612163129585 103.87705618683643,27.625830167096616 109.4599165944851,36.252499612898454 137.89822483500487,17.848281608931423 143.86611009710174,27.069893772061008 115.42780185493199,45.47411177602804 121.01066226093066,54.10078122182988 149.4489705031004,35.696563217862845 155.41685576519728,44.91817538099243 126.97854752302753,63.32239338495946 132.65766414346325,72.09779851091822 138.98851763874745,81.8802713694271 137.25262632469543,85.63145009264386 167.10725056304048,99.44694295537542 162.49418284605758,109.41556330284232 132.63955860771253,95.60007043846076 128.32410816215435,104.92555399102008 158.1787323988494,118.74104685540163 153.5656646818665,128.7096672028685 123.71104044517143,114.89417433683698 119.39558999961325,124.2196578893963 149.25021423630832,138.03515075542785 144.63714651932543,148.00377110124475 114.78252228098036,134.1882782368632 110.392667517566,143.6745459881494 109.74982147404255,145.06370577039942 102.7585459080543,145.06370577039942 102.7585459080543,179.56014093253077 91.77429420937428,179.56014093253077 91.77429420937428,145.06370577039942 81.4987039080543,145.06370577039942 81.4987039080543,179.56014093253077 70.51445221102426,179.56014093253077 70.51445221102426,145.06370577039942 52.89310894688427,145.06370577039942 52.32468115860565,143.83535913909114 22.470086413669165,157.65082519458304 17.857022316744356,147.68220317238553 47.71161706168084,133.86673711524364 43.39617000023347,124.54125199685245 13.541575255296987,138.35671805399434 8.928511158372178,128.38809603179683 38.78310590330866,114.57262997465496 34.46765884351127,105.24714485626376 4.613064098574791,119.06261091340565 0.0,109.09398889120816 29.854594744936485,95.27852283406627 25.464743426682233,85.79225349219847 23.654459171392332,81.88031142931335 29.889076318009515,72.24653103631167 1.4507151131028835,53.84230266881461 7.418594907163048,44.62068696977596 35.85695611371966,63.02491533562304 41.439811408077524,54.3982425816095 13.001450201520909,35.99401421411244 18.969329997231053,26.772398515073792 47.407691202137684,45.17662688092087 52.99054649649555,36.54995412690733 24.552185291588913,18.145725759410272 30.52006508729906,8.924110060371621 58.958426292205694,27.3283384262187 64.63753771190163,18.55292993594888 68.75968132053222,12.183360587609917 81.3214456284901,12.183364268717302 93.88326757193074,12.183367949824687 97.90917092638955,18.40421800396703 126.3474791685593,0.0 132.3153644290062,9.221612163129585" style="fill:none;stroke:#ff0000" /><polyline points="87.04069175611538,24.762105794437904 124.66010408095772,82.89184775728265 101.71044761539568,132.48496592105943 60.9324860213439,132.48496592105943 37.98286906952442,82.89188590484103 75.60225937207171,24.762102441676717 87.04069175611538,24.762105794437904" style="fill:none;stroke:#ff0000" /></svg>