<?xml version="1.0" encoding="utf-8" ?>
<svg baseProfile="full" height="42mm" version="1.1" width="49mm" xmlns="http://www.w3.org/2000/svg" xmlns:ev="http://www.w3.org/2001/xml-events" xmlns:xlink="http://www.w3.org/1999/xlink"><defs /><circle cx="141.3322010668656" cy="107.57237081693872" r="15" style="fill:none;stroke:#ff00dd" /><circle cx="41.23599203693804" cy="107.57237081693872" r="15" style="fill:none;stroke:#ff00dd" /><circle cx="37.410310923439404" cy="101.1224617054669" r="15" style="fill:none;stroke:#ff00dd" /><circle cx="84.2007815043426" cy="19.494564702593877" r="15" style="fill:none;stroke:#ff00dd" /><circle cx="98.36720191911733" cy="19.494602362578274" r="15" style="fill:none;stroke:#ff00dd" /><circle cx="145.1577000382653" cy="101.12268184263665" r="15" style="fill:none;stroke:#ff00dd" /><polyline points="149.76856885594583,125.97878751655607 32.79975858300851,125.97878751655607 17.357020583558224,99.94309515911424 71.93113056304004,4.736319652847784 110.63713325555443,4.7364225488099745 165.21109648950073,99.94309885002558 149.76856885594583,125.97878751655607" style="fill:none;stroke:#000000" /><polyline points="145.01346687934844,101.36585509186439 141.3322010668656,107.57237081693872 141.3322010668656,151.63538330686532 128.8051773188143,151.63538330686532 128.8051773188143,107.57237081693872 116.30818239317136,107.57237081693866 116.30818239317136,151.63538330686532 103.78115864512006,151.63538330686532 103.78115864512006,107.57237081693866 91.28416371947715,107.57237081693866 91.28416371947715,151.63538330686526 78.75713997142584,151.63538330686526 78.75713997142584,107.57237081693866 66.26014504578293,107.57237081693866 66.26014504578293,151.63538330686526 53.73312129773162,151.6353833068652 53.73312129773162,107.57237081693866 41.236126372088734,107.57237081693862 41.23599203693804,107.57237081693872 37.410310923439404,101.1224617054669 0.0,79.67824818341543 5.715953767213379,69.70653215682546 43.12626469065278,91.15074567887693 48.82851661104105,81.20293308662949 11.418205687601647,59.758719564578065 17.13415945481505,49.787003537988035 54.54447037825443,71.2312170600395 60.2467222986427,61.28340446779206 22.836411375203294,39.83919094574064 28.5523651424167,29.86747491915064 65.96267606585607,51.31168844120209 71.66492798624435,41.36387584895469 34.25461706280495,19.919662326903246 39.970570830018325,9.947946300313244 77.38088175345776,31.39215982236469 83.08313367384599,21.44434723011727 84.2009834330707,19.494564703130344 99.48486600276689,21.444416455598525 136.89559256489193,0.0 142.61154774443455,9.971734913187854 105.20082118230953,31.416151368786352 110.90307451164152,41.36398280235803 148.31380107376657,19.919566346759535 154.0297562533092,29.89130125994736 116.61902969118414,51.33571771554586 122.32128302051609,61.28354914911759 159.73200958264113,39.83913269351909 165.44796476218374,49.81086760670687 128.0372382000587,71.25528406230542 133.73949152939065,81.20311549587714 171.1502180915157,59.7586990402786 176.86617327105833,69.73043395346643 139.45544670893332,91.17485040906493 145.1577000382653,101.12268184263665 145.01346687934844,101.36585509186439" style="fill:none;stroke:#ff0000" /><polyline points="141.3322010668656,107.57237081693872 41.23599203693804,107.57237081693872 37.410310923439404,101.1224617054669 84.2007815043426,19.494564702593877 98.36720191911733,19.494602362578274 145.1577000382653,101.12268184263665 141.3322010668656,107.57237081693872" style="fill:none;stroke:#00ff00" /><polyline points="170.34808239566178,116.39255575675188 166.66681658317893,122.5990714818262" style="fill:none;stroke:#0000ff" /><polyline points="141.3322010668656,141.00546230686533 41.236126372088734,141.0054623068652" style="fill:none;stroke:#0000ff" /><polyline points="15.9015590615273,122.59916578104783 12.220169634683696,116.39252531556518" style="fill:none;stroke:#0000ff" /><polyline points="9.22224416685124,84.9645921935248 54.895066917257836,5.286477718175191" style="fill:none;stroke:#0000ff" /><polyline points="84.20104988204041,-5.501304380851519 98.36726836808704,-5.5012667214035895" style="fill:none;stroke:#0000ff" /><polyline points="127.67334464172605,5.286337457058837 173.34617867722443,84.96460284409702" style="fill:none;stroke:#0000ff" /></svg>