<?xml version="1.0" encoding="utf-8" ?>
<svg baseProfile="full" height="68mm" version="1.1" width="56mm" xmlns="http://www.w3.org/2000/svg" xmlns:ev="http://www.w3.org/2001/xml-events" xmlns:xlink="http://www.w3.org/1999/xlink"><defs /><circle cx="130.60329070239501" cy="199.79551851412512" r="15" style="fill:none;stroke:#ff00dd" /><circle cx="65.39499757426408" cy="199.79551851412506" r="15" style="fill:none;stroke:#ff00dd" /><circle cx="32.024209531392714" cy="127.68276102442313" r="15" style="fill:none;stroke:#ff00dd" /><circle cx="83.35921660939107" cy="48.359496571643305" r="15" style="fill:none;stroke:#ff00dd" /><circle cx="112.63908701392342" cy="48.359505152301324" r="15" style="fill:none;stroke:#ff00dd" /><circle cx="163.97412917348333" cy="127.68272074632027" r="15" style="fill:none;stroke:#ff00dd" /><polyline points="140.8893603496631,217.0973459396056 55.1089415751569,217.09734593960553 12.901779618145259,125.88958570858097 76.25397141978438,27.997271087698277 119.74429938535364,27.99728383282404 183.096563656149,125.88958323918047 140.8893603496631,217.0973459396056" style="fill:none;stroke:#000000" /><polyline points="163.25010019496884,129.24731299805123 199.5360923987098,146.03897858413976 194.09006046185698,157.80759506764613 157.80406825811596,141.01592948155763 152.3678303641109,152.7633815034092 188.65382256785185,169.55504708949772 183.207790630999,181.3236635730041 146.92179842725804,164.5319979869156 141.48556053325296,176.27945000876716 177.7715527369939,193.07111559485568 172.32552080014105,204.83973207836206 136.03952859640015,188.04806649227356 130.60329070239501,199.79551851412512 130.60329070239501,199.79551851412512 130.60329070239501,241.37856767597768 119.72546288047802,241.37856767597768 119.72546288047802,199.79551851412512 108.867197542405,199.79551851412506 108.867197542405,241.37856767597756 97.989369720488,241.37856767597756 97.989369720488,199.79551851412498 87.13110438241499,199.79551851412498 87.13110438241499,241.37856767597748 76.25327656049798,241.37856767597748 76.25327656049798,199.79551851412492 65.39501122242497,199.79551851412486 65.39499757426408,199.79551851412506 29.109033782454254,216.58715495654945 23.663009139769205,204.81854302457015 59.948972931579,188.02690658214576 54.51274231862399,176.2794591036359 18.226778526814194,193.07109554606023 12.780753884129096,181.30248361408087 49.06671767593892,164.51084717165654 43.63048706298388,152.76339969314662 7.3445232711741095,169.55503613557102 1.8984986284890104,157.7864242035917 38.18446242029883,140.99478776116726 32.74823180734382,129.24734028265738 34.38779069032582,124.03053647050811 0.0,101.77606307404999 6.128773953771026,92.30583243070706 40.516564644096846,114.56030582716521 46.63064717009213,105.1127764957919 12.242856479766314,82.85830309933378 18.371630433537316,73.38807245599088 52.759421123863135,95.64254585244895 58.87350364985845,86.1950165210757 24.485712959532627,63.94054312461757 30.61448691330363,54.47031248127467 65.00227760362948,76.7247858777328 71.11636012962477,67.27725654635948 36.72856943929894,45.022783149901386 42.85734339306994,35.55255250655846 77.24513408339578,57.80702590301659 83.35921660939107,48.359496571643305 83.35921660939107,48.359496571643305 83.35923078145859,0.0 98.00353558120125,4.2916094824825276e-06 98.00352140913373,48.35950086325279 112.63904226118082,48.35950515228808 112.63908701392342,48.359505152301324 147.02682245863608,26.105038592839005 153.15560325680303,35.5752675072404 118.7678678120904,57.82973406670271 124.88195716607473,67.2772616732789 159.2696926107874,45.022795113816585 165.39847340895426,54.49302402821795 131.01073796424166,76.74749058768029 137.12482731822598,86.1950181942565 171.51256276293864,63.94055163479416 177.64134356110554,73.41078054919555 143.2536081163929,95.66524710865787 149.36769747037724,105.11277471523411 183.7554329150899,82.85830815577174 189.88421371325686,92.32853707017313 155.49647826854422,114.5830036296355 161.61056762252855,124.03053123621169 163.25010019496884,129.24731299805123" style="fill:none;stroke:#ff0000" /><polyline points="130.60329070239501,199.79551851412512 65.39499757426408,199.79551851412506 32.024209531392714,127.68276102442313 83.35921660939107,48.359496571643305 112.63908701392342,48.359505152301324 163.97412917348333,127.68272074632027 130.60329070239501,199.79551851412512" style="fill:none;stroke:#00ff00" /><polyline points="189.8890404490848,141.57471950255876 157.24223095651098,212.12292501863266" style="fill:none;stroke:#0000ff" /><polyline points="130.60329070239501,230.74864667597768 65.39501122242497,230.74864667597743" style="fill:none;stroke:#0000ff" /><polyline points="38.75608735293919,212.12289937757157 6.1093215860189325,141.57472114610388" style="fill:none;stroke:#0000ff" /><polyline points="8.9241442272321,107.55143061887351 57.89557014629735,31.880390720008705" style="fill:none;stroke:#0000ff" /><polyline points="83.35922766629058,10.629920999999547 112.63905331808031,10.629929580644319" style="fill:none;stroke:#0000ff" /><polyline points="138.10268165423466,31.880411426644528 187.0741622628398,107.55143751055482" style="fill:none;stroke:#0000ff" /></svg>