<?xml version="1.0" encoding="utf-8" ?>
<svg baseProfile="full" height="88mm" version="1.1" width="70mm" xmlns="http://www.w3.org/2000/svg" xmlns:ev="http://www.w3.org/2001/xml-events" xmlns:xlink="http://www.w3.org/1999/xlink"><defs /><polyline points="244.2771657045858,285.58855341863665 21.048709443340417,285.58855341863665 60.10920095558158,-22.613937893315004 244.2771657045858,285.58855341863665" style="fill:none;stroke:#000000" /><polyline points="108.12477226827352,9.4290734552477 70.99879318763638,31.613890902741627 76.26967486206624,40.434637038508825 113.39565394270338,18.2498195910149 119.03004469755942,27.6788930462626 81.90406561692228,49.86371049375653 87.17494729135214,58.68445662952373 124.30092637198928,36.4996391820298 129.93531712684532,45.9287126372775 92.80933804620818,68.11353008477143 98.08021972063804,76.93427622053864 135.20619880127518,54.7494587730447 140.84058955613122,64.1785322282924 103.71461047549408,86.36334967578632 108.98549214992394,95.18409581155353 146.11147123056108,72.9992783640596 151.74586198541712,82.42835181930731 114.61988290477998,104.61316926680124 119.89076457920984,113.43391540256843 157.01674365984698,91.2490979550745 162.65113441470302,100.67817141032221 125.5251553340659,122.86298885781613 130.79603700849574,131.68373499523332 167.92201608913288,109.49891754773938 173.55640684398892,118.92799100298708 136.4304277633518,141.11280845048103 141.70130943778165,149.93355458624822 178.82728851841878,127.7487371387543 184.46167927327483,137.17781059400198 147.3357001926377,159.36262804149592 152.60658186706755,168.18337417726312 189.73256094770468,145.99855672976918 195.36695170256073,155.42763018501688 158.2409726219236,177.61244763251082 163.51185429635345,186.43319376827802 200.63783337699059,164.2483763207841 206.27222413184663,173.67744977603178 169.1462450512095,195.86226722352572 174.41712672563935,204.68301335929291 211.5431058062765,182.498195911799 217.17749656113253,191.9272693670467 180.0515174804954,214.11208681454062 185.32239915492525,222.9328329503078 222.4483782355624,200.7480155028139 228.08276899041843,210.1770889580616 190.9567899097813,232.36190640555552 196.22767158421115,241.1826525413227 233.3536506648483,218.9978350938288 238.98804141970433,228.4269085490765 201.8620623390672,250.6117259965704 207.13294401349705,259.43247213233764 244.2589230941342,237.2476546848437 249.89331384899023,246.6767281400914 217.52514022382522,266.0184947611487 217.52514022382522,262.1552200233648 207.24954992250525,262.1552200233648 207.24954992250525,314.9260408982706 196.26529822382523,314.9260408982706 196.26529822382523,262.1552200233648 185.98970792250523,262.1552200233648 185.98970792250523,314.9260408982706 175.00545622382523,314.9260408982706 175.00545622382523,262.1552200233648 164.72986592250524,262.1552200233648 164.72986592250524,314.9260408982706 153.7456142238252,314.9260408982706 153.7456142238252,262.1552200233648 143.47002392250525,262.1552200233648 143.47002392250525,314.9260408982706 132.48577222382522,314.9260408982706 132.48577222382522,262.1552200233648 122.21018192250524,262.1552200233648 122.21018192250524,314.9260408982706 111.22593022382523,314.9260408982706 111.22593022382523,262.1552200233648 100.95033992250524,262.1552200233648 100.95033992250524,314.9260408982706 89.96608822382522,314.9260408982706 89.96608822382522,262.1552200233648 79.69049792250524,262.1552200233648 79.69049792250524,314.9260408982706 68.70624622382523,314.9260408982706 68.70624622382523,262.1552200233648 58.430655922505245,262.1552200233648 58.430655922505245,314.9260408982706 47.446404223825226,314.9260408982706 47.446404223825226,262.1552200233648 37.170813922505246,262.1552200233648 37.170813922505246,314.9260408982706 0.0,314.9260408982706 4.833507900750488,276.7877810017828 31.380764096691106,280.15228617003754 32.67272153575698,269.9582387893335 6.125465339816357,266.59373361942875 7.5065232918074605,255.69664848941233 34.053779486098094,259.0611536593171 35.34573692516397,248.86710627861302 8.79848072922335,245.50260110870826 10.179538681214453,234.60551597869184 36.72679487715507,237.9700211485966 38.01875231457096,227.77597376789257 11.471496118630341,224.4114685979878 12.852554070621444,213.51438346797138 39.39981026656206,216.87888863787614 40.69176770397795,206.68484125717208 14.144511509687312,203.32033608726732 15.525569460028436,192.4232509572509 42.072825655969055,195.78775612715566 43.36478309503492,185.59370874480163 16.817526899094304,182.22920357654684 18.198584849435427,171.33211844653042 44.74584104537605,174.6966236164352 46.037798484441915,164.50257623408115 19.490542288501295,161.13807106582638 20.8716002404924,150.24098593580996 47.41885643478304,153.60549110571472 48.710813873848906,143.4114437233607 22.163557677908287,140.04693855345593 23.54461562989939,129.14985342508947 50.09187182584001,132.51435859499423 51.3838292632559,122.3203112126402 24.83657306731528,118.95580604273545 26.21763101930638,108.058720914369 52.764887215247,111.42322608427376 54.05684465266289,101.22917870191974 27.509588458372253,97.86467353201498 28.890646408713376,86.96758840364853 55.43790260465399,90.3320935735533 56.72986004371986,80.13804619119925 30.182603847779244,76.77354102129449 31.563661798120368,65.87645589292806 58.11091799406098,69.24096106118284 59.40287543312685,59.04691368047878 32.85561923718623,55.68240851057402 34.236677189177335,44.78532338220759 60.783933383467975,48.14982855046237 62.07589082253384,37.95578116975831 35.528634626593224,34.59127599985355 36.909692578584334,23.69419086983713 63.456948772874966,27.05869603974189 64.3003281637681,20.404104168024737 65.36440243278034,22.184817447493927 102.49038151341747,0.0 108.12477226827352,9.4290734552477" style="fill:none;stroke:#ff0000" /><polyline points="268.5061412479843,302.3473010489306 14.273543007400301,302.3473010489306 58.75913598269595,-48.66135377087527 268.5061412479843,302.3473010489306" style="fill:none;stroke:#ff0000" /></svg>