<?xml version="1.0" encoding="utf-8" ?>
<svg baseProfile="full" height="50mm" version="1.1" width="47mm" xmlns="http://www.w3.org/2000/svg" xmlns:ev="http://www.w3.org/2001/xml-events" xmlns:xlink="http://www.w3.org/1999/xlink"><defs /><polyline points="119.92273474631196,162.18850398142376 42.72036255561356,162.18850398142374 4.73387502368593,80.10149848369385 61.75090071282262,-8.001783063174601 100.89220831836651,-8.001753856124564 157.90920731845847,80.10153218074687 119.92273474631196,162.18850398142376" style="fill:none;stroke:#000000" /><polyline points="132.3153949899524,9.221620710030642 103.87714382227192,27.625743996844168 109.45999187816358,36.25242143845344 137.8982430425441,17.848298148339953 143.86611509819383,27.069918858370592 115.42786393216333,45.4740421468341 121.01071198640501,54.100719586793396 149.4489631524355,35.69659629832989 155.41683520808527,44.91821700836053 126.97858404040478,63.32234029517406 132.65768809623597,72.09775355388867 138.98856281357448,81.88028991521242 137.25261351424373,85.63159430097443 167.10739036757204,99.44715646620371 162.49432301358493,109.41577698196865 132.63954616025663,95.6002148134394 128.3240960545945,104.92569852439689 158.1788729079228,118.74126069127615 153.5658055539357,128.7098812070411 123.7110287006074,114.89431903851184 119.39557859494528,124.21980274781934 149.25035544827358,138.03536491634858 144.63728809428648,148.00398543046356 114.78251124095817,134.18842326358427 110.39265682403979,143.67469117326866 109.74981022612275,145.06385228870326 102.75853822244326,145.06385228870326 102.75853822244326,179.56026390560717 91.77428652376325,179.56026390560717 91.77428652376325,145.06385228870326 81.49869622409325,145.06385228870326 81.49869622409325,179.56026390560717 70.51444452541324,179.56026390560717 70.51444452541324,145.06385228870326 52.89324277683498,145.06385228870326 52.32479476639046,143.8354629872389 22.470101964739136,157.6509860297711 17.857034673451306,147.68236548430653 47.711727476752614,133.8668424434243 43.3962774304898,124.54135870606713 13.541584627188493,138.35688174859933 8.928517335900663,128.38826120313473 38.78321013920197,114.57273816060254 34.46776009293916,105.24725442489533 4.613067289637849,119.06277746577754 0.0,109.09415692196293 29.85469280165133,95.27863387943074 25.46483844413226,85.79236594169669 23.65454921414995,81.88041640934804 29.889240298061196,72.24650904041631 1.4507831715150032,53.842242909806416 7.418657410089482,44.62062361380941 35.85711453663568,63.02488974276932 41.4399646335537,54.39821362609471 13.00150750700751,35.99394749548481 18.969381745581988,26.772328199487802 47.4078388704782,45.17659432844771 52.99068896739623,36.549918211773104 24.552231842500017,18.14565208116321 30.520106079424515,8.9240327851662 58.958563205970705,27.328298914126112 64.63766933912784,18.55288700179591 68.75990602483093,12.183165414669341 81.32154813025348,12.18317478821083 93.88332340893436,12.183184163402297 97.90927176827215,18.40412328846351 126.34752293430265,0.0 132.3153949899524,9.221620710030642" style="fill:none;stroke:#ff0000" /><polyline points="87.04073391477732,24.76191890605142 124.66015435092578,82.89185589498844 101.71043604242966,132.48511243936323 60.932617016627425,132.48511243936323 37.982958463839545,82.89198419420318 75.6024869803368,24.76191037070023 87.04073391477732,24.76191890605142" style="fill:none;stroke:#ff0000" /></svg>