<?xml version="1.0" encoding="utf-8" ?>
<svg baseProfile="full" height="42mm" version="1.1" width="49mm" xmlns="http://www.w3.org/2000/svg" xmlns:ev="http://www.w3.org/2001/xml-events" xmlns:xlink="http://www.w3.org/1999/xlink"><defs /><circle cx="141.33240919525775" cy="107.57242620289426" r="15" style="fill:none;stroke:#ff00dd" /><circle cx="41.23608652847859" cy="107.57242620289422" r="15" style="fill:none;stroke:#ff00dd" /><circle cx="37.410610301170685" cy="101.12277557452268" r="15" style="fill:none;stroke:#ff00dd" /><circle cx="84.20109490295856" cy="19.4947196761291" r="15" style="fill:none;stroke:#ff00dd" /><circle cx="98.36746417762312" cy="19.494682016283253" r="15" style="fill:none;stroke:#ff00dd" /><circle cx="145.15799315316053" cy="101.12268089095113" r="15" style="fill:none;stroke:#ff00dd" /><polyline points="149.76864419689483,125.97884029315338 32.79983392395756,125.97884029315338 17.357306290402605,99.94315162662281 71.93126952434889,4.736475325449543 110.63727221686334,4.736372429494653 165.21138219634508,99.9431479357117 149.76864419689483,125.97884029315338" style="fill:none;stroke:#000000" /><polyline points="145.01380171751643,101.3657805186952 141.3323915923738,107.57242620289432 141.3323915923738,151.6354328872174 128.80533901362733,151.6354328872174 128.80533901362733,107.57242620289432 116.30831532639999,107.57242620289432 116.30831532639999,151.6354328872174 103.78126274765351,151.63543288721735 103.78126274765351,107.57242620289426 91.28423906042617,107.57242620289426 91.28423906042617,151.63543288721735 78.75718648167975,151.63543288721735 78.75718648167975,107.57242620289426 66.26016279445238,107.57242620289422 66.26016279445238,151.63543288721732 53.73311021570591,151.63543288721732 53.73311021570591,107.57242620289422 41.23608652847859,107.57242620289422 41.23608652847859,107.57242620289422 37.410610301170685,101.12277557452268 0.0,79.67842576152091 5.715965324721256,69.70667314962778 43.126575625891945,91.15102296262954 48.82883907608331,81.20317387277842 11.418228774912624,59.758824059776664 17.134194099633856,49.78707144788352 54.54480440080454,71.23142126088528 60.247067850995904,61.28357217103417 22.836457549825223,39.83922235803246 28.552422874546476,29.867469746139292 65.96303317571719,51.311819559141036 71.66529662590851,41.363970469289946 34.25468632473782,19.919620656288206 39.97065164945908,9.947868044395038 77.38126195062979,31.39221785739678 83.08352540082116,21.44436876754572 84.201156030333,19.494719675966532 99.48507562968997,21.444401080141972 136.89571375589955,0.0 142.61167938396193,9.971736718322775 105.20104125775235,31.416137798464746 110.9033050105576,41.36397103284425 148.3139431367672,19.91956995270228 154.02990876482957,29.891306671025053 116.61927063861992,51.33570775116702 122.32153439142529,61.28354098554653 159.7321725176348,39.83913990540458 165.4481381456972,49.81087662372733 128.0375000194876,71.25527770386935 133.73976377229292,81.20311093824886 171.15040189850245,59.75870985810688 176.86636752656483,69.73044657642966 139.45572940035524,91.17484765657159 145.15799315316053,101.12268089095113 145.01380171751643,101.3657805186952" style="fill:none;stroke:#ff0000" /><polyline points="141.33240919525775,107.57242620289426 41.23608652847859,107.57242620289422 37.410610301170685,101.12277557452268 84.20109490295856,19.4947196761291 98.36746417762312,19.494682016283253 145.15799315316053,101.12268089095113 141.33240919525775,107.57242620289426" style="fill:none;stroke:#00ff00" /><polyline points="170.34823469292715,116.39257548280442 166.66684217066847,122.59922116700348" style="fill:none;stroke:#0000ff" /><polyline points="141.3323915923738,141.0055118872174 41.23608652847859,141.0055118872173" style="fill:none;stroke:#0000ff" /><polyline points="15.901669578140979,122.59900909249998 12.220461428680755,116.39259058574054" style="fill:none;stroke:#0000ff" /><polyline points="9.22224792316486,84.96476321858154 54.895163022815304,5.286356411604602" style="fill:none;stroke:#0000ff" /><polyline points="84.20108958094914,-5.501306977945448 98.36739772823927,-5.50134463762873" style="fill:none;stroke:#0000ff" /><polyline points="127.67346958904947,5.286344010111378 173.34638711252006,84.96462382092054" style="fill:none;stroke:#0000ff" /></svg>