<?xml version="1.0" encoding="utf-8" ?>
<svg baseProfile="full" height="42mm" version="1.1" width="49mm" xmlns="http://www.w3.org/2000/svg" xmlns:ev="http://www.w3.org/2001/xml-events" xmlns:xlink="http://www.w3.org/1999/xlink"><defs /><circle cx="141.33218106663298" cy="107.57242592431027" r="15" style="fill:none;stroke:#ff00dd" /><circle cx="41.23620205984047" cy="107.57242592431022" r="15" style="fill:none;stroke:#ff00dd" /><circle cx="37.410497479337614" cy="101.12253760487039" r="15" style="fill:none;stroke:#ff00dd" /><circle cx="84.20080403160112" cy="19.494665402088486" r="15" style="fill:none;stroke:#ff00dd" /><circle cx="98.36723195775937" cy="19.494655234845233" r="15" style="fill:none;stroke:#ff00dd" /><circle cx="145.15789769464405" cy="101.1225215537426" r="15" style="fill:none;stroke:#ff00dd" /><polyline points="149.7684007050235,125.9787306126597 32.79990213639495,125.9787306126597 17.35711360498583,99.94319669403619 71.93105496383109,4.736410522073472 110.63705835349101,4.736382742780551 165.21132101276103,99.94299172444376 149.7684007050235,125.9787306126597" style="fill:none;stroke:#000000" /><polyline points="145.013831399717,101.36540776713736 141.332100781578,107.57242592431011 141.332100781578,151.63518919834843 128.80509905655254,151.63518919834848 128.80509905655254,107.57242592431011 116.30812610114361,107.57242592431017 116.30812610114361,151.63518919834848 103.7811243761182,151.63518919834848 103.7811243761182,107.57242592431017 91.28415142070924,107.57242592431017 91.28415142070924,151.63518919834848 78.75714969568381,151.63518919834848 78.75714969568381,107.57242592431017 66.26017674027486,107.57242592431017 66.26017674027486,151.63518919834848 53.73317501524941,151.63518919834854 53.73317501524941,107.57242592431017 41.23620205984047,107.57242592431022 41.23620205984047,107.57242592431022 37.410497479337614,101.12253760487039 0.0,79.67828580589685 5.715929882967596,69.70657951913033 43.12642736230521,91.15083131810385 48.828655455701124,81.20302844233234 11.418157976363508,59.75877664335881 17.13408785933108,49.78707035659233 54.544585338668696,71.2313221555658 60.246813432064656,61.28351927979435 22.83631595272704,39.839267480820816 28.552245835694613,29.86756119405429 65.96274331503223,51.31181299302782 71.66497140842814,41.36401011725633 34.25447392909057,19.9197583182828 39.970403812058144,9.948052031516271 77.38090129139572,31.392303830489777 83.08312938479168,21.44450095471831 84.20090254357011,19.494665402017763 99.4849126946818,21.444486303583208 136.89552939993712,0.0 142.61150347268241,9.971706111557443 105.20088676742708,31.416192415140653 110.90315894467237,41.36399511612306 148.3137756499277,19.91950881253985 154.02974972267296,29.891214924097316 116.61913301741765,51.3357012276805 122.32140519466293,61.2835039286629 159.73202189991827,39.83901762507972 165.44799597266353,49.81072373663714 128.0373792674082,71.25521004022038 133.7396514446535,81.20301274120273 171.1502681499088,59.758526437619544 176.8662422226541,69.73023254917702 139.45562551739872,91.1747188527602 145.15789769464405,101.1225215537426 145.013831399717,101.36540776713736" style="fill:none;stroke:#ff0000" /><polyline points="141.33218106663298,107.57242592431027 41.23620205984047,107.57242592431022 37.410497479337614,101.12253760487039 84.20080403160112,19.494665402088486 98.36723195775937,19.494655234845233 145.15789769464405,101.1225215537426 141.33218106663298,107.57242592431027" style="fill:none;stroke:#00ff00" /><polyline points="170.34816202092483,116.3922925624164 166.6665116878408,122.59931071958931" style="fill:none;stroke:#0000ff" /><polyline points="141.332100781578,141.00526819834843 41.23620205984047,141.00526819834852" style="fill:none;stroke:#0000ff" /><polyline points="15.901737124476934,122.59938046175351 12.220175953976046,116.39250852712148" style="fill:none;stroke:#0000ff" /><polyline points="9.222251469474374,84.96461707625994 54.89488337492846,5.286580426107864" style="fill:none;stroke:#0000ff" /><polyline points="84.20088460394871,-5.501328821535359 98.36721401813796,-5.501338988707889" style="fill:none;stroke:#0000ff" /><polyline points="127.67329560332637,5.2863621013785576 173.34628060328862,84.96439735153797" style="fill:none;stroke:#0000ff" /></svg>