<?xml version="1.0" encoding="utf-8" ?>
<svg baseProfile="tiny" height="54mm" version="1.2" width="59mm" xmlns="http://www.w3.org/2000/svg" xmlns:ev="http://www.w3.org/2001/xml-events" xmlns:xlink="http://www.w3.org/1999/xlink"><defs /><polyline fill="none" points="202.8539,108.4113 171.4692,165.409" stroke="rgb(0%,0%,100%)" /><polyline fill="none" points="134.0369,187.658 54.4249,187.658" stroke="rgb(0%,0%,100%)" /><polyline fill="none" points="17.965,166.5697 16.026,163.9329" stroke="rgb(0%,0%,100%)" /><polyline fill="none" points="6.7645,122.8443 30.4956,46.8515" stroke="rgb(0%,0%,100%)" /><polyline fill="none" points="62.8911,17.7529 126.653,4.7851" stroke="rgb(0%,0%,100%)" /><polyline fill="none" points="169.0263,19.2173 201.7087,63.6623" stroke="rgb(0%,0%,100%)" /><polyline fill="none" points="200.2291,86.7412 151.7535,174.7777 36.7084,174.7777 13.7783,143.5949 48.0714,33.7798 146.5555,13.7502 200.2291,86.7412" stroke="rgb(0%,0%,0%)" /><polyline fill="none" points="177.1412,94.2531 209.0617,111.8295 203.8262,121.3376 171.9057,103.7613 166.6796,113.2523 198.6001,130.8287 193.3646,140.3369 161.4442,122.7605 156.2181,132.2516 188.1385,149.828 182.903,159.3361 150.9826,141.7597 145.7565,151.2508 134.0369,158.0774 134.0369,194.7447 120.7563,194.7447 120.7563,158.0774 107.4996,158.0774 107.4996,194.7447 94.219,194.7447 94.219,158.0774 80.9622,158.0774 80.9622,194.7447 67.6816,194.7447 67.6816,158.0774 54.4249,158.0774 38.1025,151.7616 35.0004,131.6619 0.0,120.7319 3.9587,108.0551 38.9591,118.985 42.9107,106.3309 7.9104,95.401 11.8691,82.7241 46.8695,93.6541 50.8211,81.0 15.8207,70.07 19.7795,57.3932 54.7798,68.3231 58.7315,55.669 68.7412,46.5172 61.4787,10.8085 72.1153,8.6452 79.3777,44.354 89.9951,42.1946 82.7327,6.4859 93.3692,4.3226 100.6317,40.0314 111.2491,37.872 103.9866,2.1633 114.6232,0.0 121.8856,35.7087 132.503,33.5494 142.3288,38.8491 174.7355,15.019 182.911,26.137 150.5043,49.9671 158.67,61.0717 191.0767,37.2415 199.2522,48.3595 166.8455,72.1896 175.0112,83.2942 177.1412,94.2531" stroke="rgb(100%,0%,0%)" /><polyline fill="none" points="200.2291,86.7412 151.7535,174.7777 36.7084,174.7777 13.7783,143.5949 48.0714,33.7798 146.5555,13.7502" stroke="rgb(0%,100%,0%)" /></svg>