<?xml version="1.0" encoding="UTF-8" standalone="no"?>
<svg
   xmlns:dc="http://purl.org/dc/elements/1.1/"
   xmlns:cc="http://creativecommons.org/ns#"
   xmlns:rdf="http://www.w3.org/1999/02/22-rdf-syntax-ns#"
   xmlns:svg="http://www.w3.org/2000/svg"
   xmlns="http://www.w3.org/2000/svg"
   xmlns:sodipodi="http://sodipodi.sourceforge.net/DTD/sodipodi-0.dtd"
   xmlns:inkscape="http://www.inkscape.org/namespaces/inkscape"
   height="48mm"
   version="1.1"
   width="52mm"
   id="svg10009"
   sodipodi:docname="num11.svg">
  <metadata
     id="metadata10013">
    <rdf:RDF>
      <cc:Work
         rdf:about="">
        <dc:format>image/svg+xml</dc:format>
        <dc:type
           rdf:resource="http://purl.org/dc/dcmitype/StillImage" />
        <dc:title></dc:title>
      </cc:Work>
    </rdf:RDF>
  </metadata>
  <sodipodi:namedview
     pagecolor="#ffffff"
     bordercolor="#666666"
     inkscape:document-rotation="0"
     borderopacity="1"
     objecttolerance="10"
     gridtolerance="10"
     guidetolerance="10"
     inkscape:pageopacity="0"
     inkscape:pageshadow="2"
     inkscape:window-width="640"
     inkscape:window-height="480"
     id="namedview10011"
     showgrid="false" />
  <defs
     id="defs10003" />
  <g
     id="g10588">
    <polyline
       id="polyline10005"
       style="fill:none;stroke:#ff0000"
       points="108.73420362957305,32.23637306845812 118.80365410517692,30.188466050065283 120.41457485450444,29.86083983848997 126.07014487637808,37.551899320508674 155.62221760346978,15.820976948334767 162.33937788276188,24.955702374611274 132.7873051540202,46.686624746785185 138.66482040128827,54.67950949436463 168.21689312837998,32.94858712219072 174.93405340767208,42.08331254846723 145.38198067893038,63.814234920641134 151.46940718420444,72.09257983748235 157.33484106343283,80.06903503060903 156.71284816325232,81.1986298711704 185.5294703288596,97.06603096257469 180.06036373758644,106.99841858584078 151.2437415719792,91.1310174944365 146.45827330399644,99.82185666747557 175.2748954679537,115.68925775887985 169.80578887833056,125.62164538214596 140.98916671272332,109.75424428909169 136.2036984430906,118.44508346378073 165.02032060869783,134.31248455518502 159.55121401907468,144.24487217845112 130.73459185346744,128.37747108539685 125.7782140034246,137.37869737223016 124.28981885732576,140.08175632333695 116.10818240313611,140.08175632333695 116.10818240313611,173.20546660360918 104.76960000577608,173.20546660360918 104.76960000577608,140.08175632333695 94.84834040478609,140.08175632333695 94.84834040478609,173.20546660360918 83.50975800742606,173.20546660360918 83.50975800742606,140.08175632333695 73.5884984047861,140.08175632333695 73.5884984047861,173.20546660360918 62.24991600742606,173.20546660360918 62.24991600742606,140.08175632333695 36.15513638007685,140.08175632333695 31.58160456820535,133.86217928720748 27.00816559085915,127.64272849111659 31.61803664969826,112.88084814941811 0.0,103.00710112614735 3.3798670233678028,92.18398005618376 34.99790367306606,102.05772707945454 37.955287320575366,92.5874961393177 6.337250670877106,82.71374911604691 9.71711769589489,71.8906280493833 41.33515434559315,81.7643750710041 44.29253799145248,72.29414413251723 12.674501341754212,62.42039710924646 16.054368366771996,51.597276039282875 47.67240501647026,61.47102306255365 50.73540950835668,51.66256958996013 53.27988247583888,43.514574776167024 55.95639425066987,42.97023054798434 49.40021774024432,10.733857477876239 60.511335501705545,8.474098010499644 67.06751201378107,40.71047107895777 76.78974005856585,38.73318154190953 70.23356354814031,6.496808473451408 81.34468131125152,4.2370490060748125 87.90085782167706,36.473422074532934 97.62308586811183,34.4961325374847 91.06690935768628,2.2597594690265765 102.1780271191475,0.0 108.73420362957305,32.23637306845812" />
    <polyline
       id="polyline10007"
       style="fill:none;stroke:#ff0000"
       points="142.22853245931847,81.057830980283 116.75180485672142,127.32585112465695 42.6085729408245,127.32585112465695 41.10785474903376,125.2850142397665 63.208917238919476,54.51226685790404 114.96774630532887,43.985647792726084 142.22853245931847,81.057830980283" />
  </g>
</svg>
