<?xml version="1.0" encoding="utf-8" ?>
<svg baseProfile="full" height="34mm" version="1.1" width="40mm" xmlns="http://www.w3.org/2000/svg" xmlns:ev="http://www.w3.org/2001/xml-events" xmlns:xlink="http://www.w3.org/1999/xlink"><defs /><polyline points="126.59837861158263,102.76571735500549 21.326571736074616,102.76571735500549 7.428151997073613,79.33342866363698 56.54486063896262,-6.352641110023492 91.38031293703561,-6.352641110023492 140.49679835058365,79.33342866363698 126.59837861158263,102.76571735500549" style="fill:none;stroke:#000000" /><polyline points="121.49340284186982,9.529661777033969 90.23111449339065,27.449654299751842 95.34123157746662,36.36449919103197 126.60351992594578,18.444506668314098 132.0660588771494,27.974168443698087 100.80377052867024,45.89416096806594 105.91388761109621,54.809005857696086 137.17617596122537,36.889013334978216 142.63871491242898,46.41867511201219 111.37642656394982,64.33866763473006 116.57464911357022,73.40721674744864 120.6485735517115,80.51437375873186 119.45513811220273,82.52646753086782 118.2630225996638,84.53633594571569 106.02932734000473,84.53633594571569 106.02932734000473,121.51302380422716 95.04507564132471,121.51302380422716 95.04507564132471,84.53633594571569 84.76948534000472,84.53633594571569 84.76948534000472,121.51302380422716 73.78523364297469,121.51302380422716 73.78523364297469,84.53633594571569 63.50964334165471,84.53633594571569 63.50964334165471,121.51302380422716 52.52539164297469,121.51302380422716 52.52539164297469,84.53633594571569 29.661864290886378,84.53633594571569 28.469788097392268,82.52653382380038 27.276347471993542,80.51443131006562 31.262225687154565,73.56090677245145 0.0,55.6408687251106 5.462557638887285,46.111217659752626 36.72478332439187,64.03125570709348 41.834917890015454,55.11642083614735 10.57269220286089,37.196382790456475 16.035249841748175,27.66673172344852 47.29747552725276,45.586769772439354 52.40761009287635,36.67193490149322 21.14538440572178,18.75189685415237 26.607942044609064,9.222245787144418 57.87016773011365,27.142283836135253 63.06840806322817,18.073744916998656 68.71190970406178,8.22842977388537 79.21323262993126,8.22842977388537 84.76857554218702,17.919992522717873 116.0308638906662,0.0 121.49340284186982,9.529661777033969" style="fill:none;stroke:#ff0000" /><polyline points="101.24497034405731,71.9575960963757 46.6800222574691,71.9575960963757 73.96255829962047,24.362116852371916 101.24497034405731,71.9575960963757" style="fill:none;stroke:#ff0000" /></svg>