<?xml version="1.0" encoding="utf-8" ?>
<svg baseProfile="tiny" height="40mm" version="1.2" width="60mm" xmlns="http://www.w3.org/2000/svg" xmlns:ev="http://www.w3.org/2001/xml-events" xmlns:xlink="http://www.w3.org/1999/xlink"><defs /><polyline fill="none" points="196.6216,104.7895 183.1003,115.2899" stroke="rgb(0%,0%,100%)" /><polyline fill="none" points="146.553,136.6109 21.5499,136.6109" stroke="rgb(0%,0%,100%)" /><polyline fill="none" points="-17.0147,106.4779 -18.7923,98.6192" stroke="rgb(0%,0%,100%)" /><polyline fill="none" points="3.0499,54.8226 115.8842,1.0251" stroke="rgb(0%,0%,100%)" /><polyline fill="none" points="158.0496,4.5417 174.7737,8.2007" stroke="rgb(0%,0%,100%)" /><polyline fill="none" points="203.0396,34.9968 210.6036,68.4371" stroke="rgb(0%,0%,100%)" /><polyline fill="none" points="205.7763,87.6931 164.2695,119.9263 3.8334,119.9263 -5.7615,77.5076 139.0566,8.4608 190.395,19.6928 205.7763,87.6931" stroke="rgb(0%,0%,0%)" /><polyline fill="none" points="183.6647,88.1049 146.553,100.1432 146.553,143.6975 134.0339,143.6975 134.0339,100.1432 121.5523,100.1432 121.5523,143.6975 109.0333,143.6975 109.0333,100.1432 96.5517,100.1432 96.5517,143.6975 84.0327,143.6975 84.0327,100.1432 71.5511,100.1432 71.5511,143.6975 59.0321,143.6975 59.0321,100.1432 46.5505,100.1432 46.5505,143.6975 34.0315,143.6975 34.0315,100.1432 21.5499,100.1432 19.7852,98.154 18.7444,87.7402 0.0,48.4258 11.3004,43.038 30.0448,82.3523 41.3113,76.9807 22.5669,37.6663 33.8672,32.2785 52.6116,71.5928 63.8781,66.2212 45.1337,26.9068 56.4341,21.519 75.1785,60.8333 86.445,55.4617 67.7006,16.1473 79.0009,10.7595 97.7454,50.0738 109.0119,44.7022 90.2675,5.3878 101.5678,0.0 120.3122,39.3143 131.5787,33.9426 153.5346,25.1783 180.7459,40.0395 209.9516,33.4334 213.7347,50.1585 184.5291,56.7647 188.3099,73.4798 183.6647,88.1049" stroke="rgb(100%,0%,0%)" /><polyline fill="none" points="205.7763,87.6931 164.2695,119.9263 3.8334,119.9263 -5.7615,77.5076 139.0566,8.4608 190.395,19.6928" stroke="rgb(0%,100%,0%)" /></svg>