<?xml version="1.0" encoding="utf-8" ?>
<svg baseProfile="full" height="34mm" version="1.1" width="40mm" xmlns="http://www.w3.org/2000/svg" xmlns:ev="http://www.w3.org/2001/xml-events" xmlns:xlink="http://www.w3.org/1999/xlink"><defs /><polyline points="126.59849676755938,102.76557099615076 21.326848055793683,102.76557099615076 7.428219778829913,79.33340599639301 56.54505617217294,-6.3525420896837 91.38045922286689,-6.352517088221591 140.4970064458276,79.33359046975299 126.59849676755938,102.76557099615076" style="fill:none;stroke:#000000" /><polyline points="121.49384665703198,9.52965985150626 90.23107776481584,27.44994247881573 95.3411979937554,36.36478556666673 126.60396688597153,18.444502939357267 132.06650919818625,27.974162790863527 100.80374030597011,45.89444541652301 105.91386053490966,54.80928850272404 137.17662942547582,36.889005878714535 142.63917173769053,46.418665730220795 111.3764028454744,64.3389483542303 116.57462859440776,73.40749563217013 120.64862914781789,80.51477962103338 119.45536512152475,82.52654491992192 118.26330129958743,84.53628674823523 106.02965823707409,84.53628674823523 106.02965823707409,121.51275842954928 95.04540653839408,121.51275842954928 95.04540653839408,84.53628674823523 84.76981623707408,84.53628674823523 84.76981623707408,121.51275842954928 73.78556454004405,121.51275842954928 73.78556454004405,84.53628674823523 63.50997423872407,84.53628674823523 63.50997423872407,121.51275842954928 52.52572254004405,121.51275842954928 52.52572254004405,84.53628674823523 29.662143464354518,84.53628674823523 28.46990843379919,82.5262575988481 27.276546040594805,80.51432779356398 31.262307125261795,73.56103555016065 0.0,55.64087876029443 5.462574171695892,46.11123717242673 36.72488129695769,64.03139396064299 41.83503132785224,55.116567956694205 10.572724202590445,37.19641116847796 16.035298372636355,27.666769578960285 47.29760549954813,45.58692636882651 52.407755530442685,36.672100364877736 21.14544840518089,18.751943575011506 26.6080225752268,9.222301985493836 57.87032970213858,27.142458775360065 63.06858576782097,18.073928875019064 68.71214494843846,8.228552941659514 73.96262067714837,8.228556710215887 79.21309662860567,8.22856047877226 84.76853545425111,17.92028262730947 116.03130434481726,0.0 121.49384665703198,9.52965985150626" style="fill:none;stroke:#ff0000" /><polyline points="101.24475815321374,71.95754689889523 46.680223830685584,71.95754689889523 73.96259669137604,24.36254371563032 101.24475815321374,71.95754689889523" style="fill:none;stroke:#ff0000" /></svg>