<?xml version="1.0" encoding="utf-8" ?>
<svg baseProfile="full" height="48mm" version="1.1" width="52mm" xmlns="http://www.w3.org/2000/svg" xmlns:ev="http://www.w3.org/2001/xml-events" xmlns:xlink="http://www.w3.org/1999/xlink"><defs /><polyline points="133.61466091930234,156.21885720699476 30.074045738942758,156.21885720699476 9.43695999392396,128.154360103751 40.30079629880623,29.32077353446877 128.93647170072074,11.29412426274971 177.24268272010605,76.98602345836261 133.61466091930234,156.21885720699476" style="fill:none;stroke:#000000" /><polyline points="108.37393080353225,32.236520025656866 118.61699063254223,30.15329511497267 120.11697575101941,29.8482293991251 125.81040145790557,37.59075235297538 155.36251496097523,15.859752816144768 161.86977314955521,24.70901132968757 132.31765964648554,46.4400108648682 138.4050947300103,54.71834947548242 167.95720823307997,32.98734994030179 174.46446642330991,41.83660845219461 144.91235292024024,63.56760798902523 151.1047437804413,71.98867657537158 156.90315086015744,79.87396431295106 156.25030214403023,81.05960261592361 185.06689021773215,96.92689743535814 179.7687156251596,106.54891028998709 150.95212755310766,90.68161546890256 145.995770675972,99.6828533023022 174.81235874637397,115.55014812338672 169.5141841554514,125.17216097801567 140.69759608504944,109.30486615693114 135.74123920626386,118.30610399198076 164.55782727996575,134.1733988130653 159.25965268739319,143.79541166604426 130.44306461534126,127.92811684495973 125.4012533101714,137.08454843490418 123.96343951486602,139.69576151771741 115.70931763265611,139.69576151771741 115.70931763265611,172.8196827447476 104.7250659339761,172.8196827447476 104.7250659339761,139.69576151771741 94.4494756343061,139.69576151771741 94.4494756343061,172.8196827447476 83.46522393562608,172.8196827447476 83.46522393562608,139.69576151771741 73.18963363430609,139.69576151771741 73.18963363430609,172.8196827447476 62.20538193562608,172.8196827447476 62.20538193562608,139.69576151771741 36.02282419069288,139.69576151771741 31.50240993835436,133.5484229701669 26.98216195294105,127.40131053269884 31.618136697940052,112.55578041967446 0.0,102.68204185420578 3.274234185279528,92.19713957124223 34.89237088321958,102.07087813506094 37.95536415358591,92.26242115955797 6.337227455645857,82.38868259573927 9.611461639275404,71.90378031277572 41.229598338865436,81.77751887659443 44.292591607581784,71.96906190109145 12.674454911291715,62.09532333562277 15.948689094921264,51.610421052659234 47.566825794511296,61.48415961647794 50.68262929236844,51.50659131369733 53.1958664615528,43.45858844104451 55.9433533791379,42.8998068585463 49.38711699255552,10.663286831239452 60.15101037127025,8.474135230768763 66.70724675785263,40.71065525642563 76.7766954036277,38.66273924233693 70.22045901539532,6.426219216680061 80.98435239411006,4.237067614559391 87.54058878069245,36.47358764186624 97.6100374264675,34.42567162612756 91.05380103988512,2.1891516004706895 101.81769441859984,0.0 108.37393080353225,32.236520025656866" style="fill:none;stroke:#ff0000" /><polyline points="142.0066598957829,80.84905165537313 116.53010038168995,127.11702166837742 42.38662750753249,127.11702166837742 40.88601739444057,125.07633294517177 62.98700973538836,54.30352562940315 114.74581128176635,43.77686401121781 142.0066598957829,80.84905165537313" style="fill:none;stroke:#ff0000" /></svg>