<?xml version="1.0" encoding="utf-8" ?>
<svg baseProfile="full" height="43mm" version="1.1" width="62mm" xmlns="http://www.w3.org/2000/svg" xmlns:ev="http://www.w3.org/2001/xml-events" xmlns:xlink="http://www.w3.org/1999/xlink"><defs /><circle cx="170.87461921327156" cy="106.52178281377566" r="15" style="fill:none;stroke:#ff00dd" /><circle cx="22.946874231008064" cy="106.5217828137756" r="15" style="fill:none;stroke:#ff00dd" /><circle cx="20.26934851594136" cy="94.68451596300307" r="15" style="fill:none;stroke:#ff00dd" /><circle cx="153.79672552894203" cy="31.020890272366447" r="15" style="fill:none;stroke:#ff00dd" /><circle cx="181.33778254757553" cy="37.04646846909011" r="15" style="fill:none;stroke:#ff00dd" /><circle cx="193.1414016802732" cy="89.22994095355423" r="15" style="fill:none;stroke:#ff00dd" /><polyline points="166.98115369179177,126.30485207123733 6.545059384054542,126.30485207123733 -3.049825148290651,83.88613393433519 141.76824732699512,14.839293012653455 193.10665827456182,26.071382233150835 208.48795718559725,94.07167769133699 166.98115369179177,126.30485207123733" style="fill:none;stroke:#000000" /><polyline points="188.35687162660653,92.9454906602118 207.83357172412988,118.02572489738917 199.08982317960036,124.8159074179941 179.61312308207707,99.73567318081675 170.87461921327156,106.52178281377566 150.57933884483825,106.5217828137756 150.57933884483825,153.61933506067194 139.924155257327,153.61933506067194 139.924155257327,106.5217828137756 129.3072614091999,106.5217828137756 129.3072614091999,153.61933506067194 118.65207782168864,153.61933506067194 118.65207782168864,106.5217828137756 108.03518397356154,106.5217828137756 108.03518397356154,153.61933506067194 97.38000038605027,153.61933506067194 97.38000038605027,106.5217828137756 86.76310653792318,106.5217828137756 86.76310653792318,153.61933506067194 76.10792295041192,153.61933506067194 76.10792295041192,106.5217828137756 65.49102910228483,106.5217828137756 65.49102910228483,153.61933506067194 54.83584551477356,153.61933506067194 54.83584551477356,106.5217828137756 44.21895166664642,106.5217828137756 44.21895166664642,153.61933506067194 33.56376807913515,153.61933506067194 33.56376807913515,106.5217828137756 22.946874231008064,106.5217828137756 22.94687423100801,106.5217828137756 20.26934851594136,94.68451596300307 0.0,52.17181091777233 9.617929681040104,47.58614250407329 29.887278196981413,90.09884754930398 39.47064554337219,85.52965788015412 19.201297027430787,43.0169528349234 28.819226708470893,38.431284421224355 49.08857522441225,80.94398946645505 58.67194257080298,76.37479979730516 38.40259405486167,33.862094752074434 48.02052373590173,29.276426338375387 68.2898722518431,71.78913138360612 77.87323959823377,67.2199417144562 57.60389108229246,24.707236669225473 67.22182076333252,20.12156825552645 87.49116927927388,62.63427330075717 97.07453662566456,58.06508363160723 76.80518810972325,15.552378586376534 86.42311779076336,10.966710172677487 106.69246630670472,53.47941521790821 116.27583365309545,48.9102255487583 96.00648513715409,6.397520503527572 105.62441481819414,1.8118520898285249 125.8937633341355,44.32455713505925 135.47713068052624,39.75536746590933 153.79672552894203,31.020890272366447 160.58364005955227,0.0 171.39850344567097,2.3661330418747006 164.61158891506076,33.38702331424115 175.41996532923935,35.75173710206694 181.33778563249953,37.046482107452775 213.99941417843297,29.65859844898949 216.95208873278358,42.712290679341756 184.29046018685008,50.10017433780507 187.23959365638635,63.138211530503504 219.90122220231976,55.750327872040195 222.85389675667048,68.80402010239249 190.19226821073696,76.1919037608558 193.1414016802732,89.22994095355423 188.35687162660653,92.9454906602118" style="fill:none;stroke:#ff0000" /><polyline points="170.87461921327156,106.52178281377566 22.946874231008064,106.5217828137756 20.26934851594136,94.68451596300307 153.79672552894203,31.020890272366447 181.33778254757553,37.04646846909011 193.1414016802732,89.22994095355423 170.87461921327156,106.52178281377566" style="fill:none;stroke:#00ff00" /><polyline points="201.31372163661092,109.63008464172549 183.83146922327595,123.20637679528933" style="fill:none;stroke:#0000ff" /><polyline points="150.57933884483825,142.98941406067195 22.946874231008064,142.98941406067195" style="fill:none;stroke:#0000ff" /><polyline points="-13.853042004290133,114.84572475700207 -16.530564590249735,103.00847173992372" style="fill:none;stroke:#0000ff" /><polyline points="4.5747963852149525,61.76693772777673 119.78257854979984,6.837789230682997" style="fill:none;stroke:#0000ff" /><polyline points="158.31170937645624,10.384293497270185 179.93494917675355,15.115140326970675" style="fill:none;stroke:#0000ff" /><polyline points="203.63141870096553,32.0037829290371 215.43503474873918,84.18724177513853" style="fill:none;stroke:#0000ff" /></svg>