<?xml version="1.0" encoding="utf-8" ?>
<svg baseProfile="tiny" height="58mm" version="1.2" width="53mm" xmlns="http://www.w3.org/2000/svg" xmlns:ev="http://www.w3.org/2001/xml-events" xmlns:xlink="http://www.w3.org/1999/xlink"><defs /><polyline fill="none" points="181.8189,115.5303 154.4925,174.5812" stroke="rgb(0%,0%,100%)" /><polyline fill="none" points="117.7629,198.9556 67.4155,198.9556" stroke="rgb(0%,0%,100%)" /><polyline fill="none" points="30.6859,174.5812 3.3596,115.5303" stroke="rgb(0%,0%,100%)" /><polyline fill="none" points="5.9494,71.9954 50.0504,3.8502" stroke="rgb(0%,0%,100%)" /><polyline fill="none" points="88.5606,-21.1632 96.6178,-21.1632" stroke="rgb(0%,0%,100%)" /><polyline fill="none" points="135.128,3.8502 179.229,71.9954" stroke="rgb(0%,0%,100%)" /><polyline fill="none" points="177.6866,94.0965 135.4794,185.3043 49.699,185.3043 7.4918,94.0965 70.844,-3.7958 114.3344,-3.7958 177.6866,94.0965" stroke="rgb(0%,0%,0%)" /><polyline fill="none" points="155.1799,103.2029 188.2502,118.5064 183.6917,128.3571 150.6214,113.0535 146.0711,122.8865 179.1414,138.1901 174.583,148.0408 141.5127,132.7372 136.9624,142.5701 170.0327,157.8737 165.4742,167.7244 132.4039,152.4208 127.8536,162.2538 117.7629,168.0024 117.7629,206.0422 105.1685,206.0422 105.1685,168.0024 92.5892,168.0024 92.5892,206.0422 79.9948,206.0422 79.9948,168.0024 67.4155,168.0024 57.3248,162.2538 24.2545,177.5573 19.6961,167.7067 52.7663,152.4031 48.2161,142.5702 15.1458,157.8737 10.5873,148.023 43.6576,132.7195 39.1073,122.8865 6.037,138.1901 1.4785,128.3394 34.5488,113.0358 29.9985,103.2029 31.4131,88.4745 0.0,68.1452 7.3568,56.7774 38.7699,77.1068 46.1134,65.7595 14.7003,45.4301 22.0571,34.0623 53.4702,54.3917 60.8137,43.0444 29.4006,22.715 36.7574,11.3473 68.1705,31.6766 75.514,20.3293 88.5606,16.5664 109.6644,20.3293 141.0774,0.0 148.4342,11.3677 117.0212,31.6971 124.3647,43.0444 155.7777,22.7151 163.1345,34.0828 131.7215,54.4121 139.0651,65.7595 170.4781,45.4301 177.8349,56.7979 146.4218,77.1272 153.7654,88.4745 155.1799,103.2029" stroke="rgb(100%,0%,0%)" /><polyline fill="none" points="177.6866,94.0965 135.4794,185.3043 49.699,185.3043 7.4918,94.0965 70.844,-3.7958 114.3344,-3.7958" stroke="rgb(0%,100%,0%)" /></svg>