<?xml version="1.0" encoding="utf-8" ?>
<svg baseProfile="full" height="60mm" version="1.1" width="62mm" xmlns="http://www.w3.org/2000/svg" xmlns:ev="http://www.w3.org/2001/xml-events" xmlns:xlink="http://www.w3.org/1999/xlink"><defs /><polyline points="219.78501391599065,194.88389617611554 -3.4434466903921,194.8838961761156 131.22228531601996,31.01155154937588 219.78501391599065,194.88389617611554" style="fill:none;stroke:#000000" /><polyline points="149.24589372172488,24.929527227778646 122.6293808463863,39.31408376492748 127.51487685184493,48.353977835922024 154.13138972718352,33.96942130042317 159.3538164917531,43.63275633773462 132.7373036164145,58.01731287488346 137.62279962187313,67.057206945878 164.23931249556173,52.67265041037914 169.4617392601313,62.3359854476906 142.8452263864427,76.72054198483943 147.73072239190134,85.76043605583398 174.34723526558994,71.37587952033512 179.56966203015952,81.03921455764657 152.95314915647091,95.42377109479541 157.83864516192952,104.46366516578995 184.45515803561813,90.07910863029109 189.6775848001877,99.74244366925252 163.0610719264991,114.12700020475138 167.94656793195773,123.16689427739591 194.56308080564634,108.78233774024707 199.7855075702159,118.44567277920851 173.1689946948773,132.83022931470737 178.05449070033595,141.8701233873519 204.67100357567455,127.48556685020304 209.89343034024412,137.14890188916448 183.27691746490552,151.53345842466334 188.16241347036416,160.57335249730787 214.77892634570273,146.188795960159 220.0013531102723,155.85213099912045 193.38484023493373,170.2366875346193 197.2219071282135,177.33661725006954 193.3873169635118,177.33661725006954 193.3873169635118,212.7874818766195 182.40306526483178,212.7874818766195 182.40306526483178,177.33661725006954 172.12747496351182,177.33661725006954 172.12747496351182,212.7874818766195 161.1432232648318,212.7874818766195 161.1432232648318,177.33661725006954 150.8676329635118,177.33661725006954 150.8676329635118,212.7874818766195 139.8833812648318,212.7874818766195 139.8833812648318,177.33661725006954 129.6077909635118,177.33661725006954 129.6077909635118,212.7874818766195 118.62353926483179,212.7874818766195 118.62353926483179,177.33661725006954 108.3479489635118,177.33661725006954 108.3479489635118,212.7874818766195 97.36369726483179,212.7874818766195 97.36369726483179,177.33661725006954 87.0881069635118,177.33661725006954 87.0881069635118,212.7874818766195 76.1038552648318,212.7874818766195 76.1038552648318,177.33661725006954 65.8282649635118,177.33661725006954 65.8282649635118,212.7874818766195 54.84401326483179,212.7874818766195 54.84401326483179,177.33661725006954 44.5684229635118,177.33661725006954 44.5684229635118,212.7874818766195 33.58417126483179,212.7874818766195 33.58417126483179,177.33661725006954 23.3085809635118,177.33661725006954 23.3085809635118,212.7874818766195 12.324329264831787,212.7874818766195 12.324329264831787,188.87700096387056 12.21957962686912,188.7909206254822 12.324329264831787,188.66345264636908 12.324329264831787,188.64768921230495 12.332061537318902,188.65404337949573 18.85601243415523,180.7151630611324 0.0,165.2198168325238 6.973878541935419,156.73342752526472 25.82989097609065,172.2287737538733 32.35384187292698,164.28989343386 13.497829438771747,148.79454720690137 20.471707982357145,140.3081578996423 39.32772041651238,155.8035041282509 45.8516713133487,147.86462380823755 26.995658879193474,132.36927758127896 33.96953742112889,123.88288827401988 52.82554985528412,139.3782345009785 59.34950075212045,131.43935418261515 40.49348831796522,115.94400795400655 47.46736685990064,107.45761864839746 66.32337929405587,122.95296487535606 72.84733019254217,115.01408455699271 53.99131775838695,99.51873832838413 60.85271438987259,91.1692262671115 135.77304716348806,0.0 149.24589372172488,24.929527227778646" style="fill:none;stroke:#ff0000" /><polyline points="210.51617684115052,164.7578774007295 16.66074333315397,164.7578774007295 133.60678052583893,22.448315613649484 210.51617684115052,164.7578774007295" style="fill:none;stroke:#ff0000" /></svg>