<?xml version="1.0" encoding="utf-8" ?>
<svg baseProfile="full" height="42mm" version="1.1" width="49mm" xmlns="http://www.w3.org/2000/svg" xmlns:ev="http://www.w3.org/2001/xml-events" xmlns:xlink="http://www.w3.org/1999/xlink"><defs /><circle cx="141.33221505570643" cy="107.57231017592596" r="15" style="fill:none;stroke:#ff00dd" /><circle cx="41.23599488030224" cy="107.57231017592596" r="15" style="fill:none;stroke:#ff00dd" /><circle cx="37.41038766441177" cy="101.12245944570394" r="15" style="fill:none;stroke:#ff00dd" /><circle cx="84.20093430880114" cy="19.49447264897569" r="15" style="fill:none;stroke:#ff00dd" /><circle cx="98.36755564238021" cy="19.49447264897569" r="15" style="fill:none;stroke:#ff00dd" /><circle cx="145.15785652616535" cy="101.12240169360328" r="15" style="fill:none;stroke:#ff00dd" /><polyline points="149.76847385039406,125.97885693393967 32.79979954427404,125.97885693393967 17.357110945384022,99.94298061019687 71.93123165859403,4.736236417240773 110.63728976756406,4.736236417240773 165.21116244928402,99.94298061019687 149.76847385039406,125.97885693393967" style="fill:none;stroke:#000000" /><polyline points="145.01346695603465,101.36583786511441 141.33221505570643,107.57231017592596 141.33221505570643,151.63561203459784 128.8051810426058,151.63561203459784 128.8051810426058,107.57231017592596 116.30817587652025,107.57231017592596 116.30817587652025,151.63561203459784 103.78114186341963,151.63561203459784 103.78114186341963,107.57231017592596 91.28413669733406,107.57231017592596 91.28413669733406,151.63561203459784 78.75710268423344,151.63561203459784 78.75710268423344,107.57231017592596 66.26009751814784,107.57231017592596 66.26009751814784,151.63561203459784 53.73306350504725,151.63561203459784 53.73306350504725,107.57231017592596 41.23605833896166,107.57231017592596 41.23599488030224,107.57231017592596 37.41038766441177,101.12245944570394 0.0,79.67819066378038 5.715967131755784,69.70645656313933 43.126354796167554,91.15072534506287 48.82862004906175,81.20289472209012 11.41823238464995,59.75862594016658 17.13419951640571,49.78689183952551 54.54458718081751,71.2311606214491 60.2468524337117,61.28332999847637 22.8364647692999,39.83906121655282 28.552431901055687,29.867327115911753 65.96281956546746,51.311595897835296 71.66508481836162,41.36376527486261 34.254697153949856,19.91949649293901 39.97066428570566,9.947762392297967 77.38105195011741,31.392031174221536 83.0833172030116,21.444200551248795 84.20096578377786,19.49447264897544 99.48517377377034,21.444211201730532 136.8956310123446,0.0 142.61156725880684,9.97172554005788 105.2011100202326,31.41593674178841 110.90334446186911,41.36375882469872 148.31380170044338,19.91954762296819 154.0297379469056,29.891273163026096 116.61928070833132,51.335484364756574 122.32151514996787,61.28330644766691 159.73197238854215,39.8390952459364 165.44790863500435,49.81082078599431 128.03745139643007,71.25503198772479 133.73968583806658,81.20285407063507 171.15014307664086,59.75864286890459 176.86607932310307,69.73036840896248 139.45562208452878,91.17457961069296 145.15785652616535,101.12240169360328 145.01346695603465,101.36583786511441" style="fill:none;stroke:#ff0000" /><polyline points="141.33221505570643,107.57231017592596 41.23599488030224,107.57231017592596 37.41038766441177,101.12245944570394 84.20093430880114,19.49447264897569 98.36755564238021,19.49447264897569 145.15785652616535,101.12240169360328 141.33221505570643,107.57231017592596" style="fill:none;stroke:#00ff00" /><polyline points="170.3480392553121,116.39256121942032 166.6667873549839,122.59903353023188" style="fill:none;stroke:#0000ff" /><polyline points="141.33221505570643,141.00569103459785 41.23605833896166,141.00569103459785" style="fill:none;stroke:#0000ff" /><polyline points="15.901530526400123,122.59896950447006 12.2203116560598,116.39255288115655" style="fill:none;stroke:#0000ff" /><polyline points="9.22224296810832,84.96453676514548 54.89517250670815,5.286277870690288" style="fill:none;stroke:#0000ff" /><polyline points="84.20096578377786,-5.501454543393428 98.36755564238021,-5.5014545433931765" style="fill:none;stroke:#0000ff" /><polyline points="127.67337767832488,5.286328017575441 173.3460604307199,84.9645185094482" style="fill:none;stroke:#0000ff" /></svg>