<?xml version="1.0" encoding="utf-8" ?>
<svg baseProfile="tiny" height="39mm" version="1.2" width="45mm" xmlns="http://www.w3.org/2000/svg" xmlns:ev="http://www.w3.org/2001/xml-events" xmlns:xlink="http://www.w3.org/1999/xlink"><defs /><polyline fill="none" points="159.7567,112.3474 162.3902,107.9075" stroke="rgb(0%,0%,100%)" /><polyline fill="none" points="124.618,131.6371 43.0823,131.6371" stroke="rgb(0%,0%,100%)" /><polyline fill="none" points="5.3101,107.9076 7.9436,112.3474" stroke="rgb(0%,0%,100%)" /><polyline fill="none" points="6.1482,67.9902 43.1011,3.5242" stroke="rgb(0%,0%,100%)" /><polyline fill="none" points="82.2137,-14.8696 85.4866,-14.8696" stroke="rgb(0%,0%,100%)" /><polyline fill="none" points="124.5993,3.5242 161.5522,67.9901" stroke="rgb(0%,0%,100%)" /><polyline fill="none" points="157.7771,90.5748 142.3346,116.6105 25.3657,116.6105 9.923,90.5748 64.4971,-4.632 103.2031,-4.6319 157.7771,90.5748" stroke="rgb(0%,0%,0%)" /><polyline fill="none" points="134.4221,97.3207 124.618,98.2041 124.618,138.7238 111.0165,138.7238 111.0165,98.2041 97.4394,98.2041 97.4394,138.7238 83.8379,138.7238 83.8379,98.2041 70.2609,98.2041 70.2609,138.7238 56.6593,138.7238 56.6593,98.2041 43.0823,98.2041 30.6446,92.8808 34.3362,84.1481 0.0,64.466 6.1644,53.712 40.5006,73.3941 46.6539,62.6594 12.3177,42.9773 18.482,32.2233 52.8183,51.9054 58.9715,41.1708 24.6353,21.4887 30.7997,10.7347 65.1359,30.4168 71.2892,19.6821 82.2136,10.1263 96.4109,19.6823 130.7475,0.0 136.9118,10.754 102.5752,30.4363 108.7285,41.1709 143.0651,21.4886 149.2295,32.2426 114.8928,51.9249 121.0461,62.6595 155.3827,42.9772 161.5471,53.7312 127.2104,73.4135 133.3637,84.1482 134.4221,97.3207" stroke="rgb(100%,0%,0%)" /><polyline fill="none" points="157.7771,90.5748 142.3346,116.6105 25.3657,116.6105 9.923,90.5748 64.4971,-4.632 103.2031,-4.6319" stroke="rgb(0%,100%,0%)" /></svg>