<?xml version="1.0" encoding="utf-8" ?>
<svg baseProfile="full" height="105mm" version="1.1" width="49mm" xmlns="http://www.w3.org/2000/svg" xmlns:ev="http://www.w3.org/2001/xml-events" xmlns:xlink="http://www.w3.org/1999/xlink"><defs /><polyline points="176.72964127128617,282.4770308376672 -46.498724807635206,282.4770308376672 117.21988322745288,44.77855296076532 176.72964127128617,282.4770308376672" style="fill:none;stroke:#000000" /><polyline points="142.99044387667806,61.52685714073876 109.0029815646572,70.03589631164101 111.49853842951813,80.00384253796189 145.486000741539,71.49480336870961 148.15366497559378,82.15019416025781 114.16620266357295,90.65923332951007 116.66175952843388,100.62717955583093 150.64922184045474,92.11814038657867 153.31688607285955,102.77353117812686 119.3294237608387,111.28257034737914 121.82498062569964,121.2505165737 155.81244293772048,112.74147740444774 158.4801071717753,123.39686819599592 124.49264485810446,131.9059073652482 126.98820172296539,141.87385359156906 160.97566403663623,133.36481442231678 163.64332827069103,144.02020521386498 129.65586595702018,152.52924438311726 132.15142282023115,162.49719060778813 166.138885133902,153.98815144018585 168.8065493679568,164.64354223008405 134.81908705428594,173.15258139933633 137.31464391914687,183.1205276256572 171.30210623281772,174.61148845640494 173.92674362457407,185.0950181070588 176.4521518778595,195.18219905795527 165.9857145707356,195.18219905795527 165.9857145707356,373.02120421966606 155.0014628720556,373.02120421966606 155.0014628720556,195.18219905795527 144.72587257073562,195.18219905795527 144.72587257073562,373.02120421966606 133.7416208720556,373.02120421966606 133.7416208720556,195.18219905795527 123.46603057238559,195.18219905795527 123.46603057238559,373.02120421966606 112.48177887370558,373.02120421966606 112.48177887370558,195.18219905795527 102.2061885723856,195.18219905795527 102.2061885723856,373.02120421966606 91.22193687370559,373.02120421966606 91.22193687370559,195.18219905795527 80.9463465723856,195.18219905795527 80.9463465723856,373.02120421966606 69.96209487370558,373.02120421966606 69.96209487370558,195.18219905795527 59.686504572385594,195.18219905795527 59.686504572385594,373.02120421966606 48.70225287370558,373.02120421966606 48.70225287370558,195.18219905795527 38.426662572385595,195.18219905795527 38.426662572385595,373.02120421966606 27.44241087370558,373.02120421966606 27.44241087370558,195.18219905795527 14.435444046848051,195.18219905795527 0.0,185.23955732809614 6.230669027772701,176.1934228560938 27.64538786753631,190.94315113302102 33.47407824952689,182.48063823735595 12.059359408113298,167.7309099620787 18.290028434236017,158.68477549172633 39.70474727399963,173.43450376700358 45.533437655990205,164.9719908713385 24.118718814576617,150.22226259936122 30.349387840699336,141.17612812735888 51.764106680462945,155.9258564042861 57.59279706245352,147.46334350862102 36.17807822103993,132.71361523334377 42.40874724716265,123.6674807629914 63.82346608692626,138.41720903826865 69.65215647056682,129.95469614260358 48.237437629153234,115.20496786897631 54.46810665527595,106.15883339697396 75.88282549503955,120.90856167390118 81.71151587703014,112.4460487782361 60.29679703561655,97.69632050295887 66.52746606173928,88.6501860326065 87.94218490150288,103.39991430788373 93.77087528349345,94.93740141221866 72.35615644207986,80.1876731385914 78.58682546820259,71.14153866658906 100.0015443079662,85.89126694351627 105.83023469160676,77.4287540478512 84.41551585019316,62.679025772573965 90.64618487631589,53.632891302221594 112.0609037160795,68.38261957749883 117.88959409807008,59.92010668183375 96.47487525665649,45.1703784082065 102.60504962215866,36.27014933152596 127.58669197182503,0.0 142.99044387667806,61.52685714073876" style="fill:none;stroke:#ff0000" /><polyline points="160.33599975192905,182.60345920861528 17.089365624645126,182.60345920861528 122.14832366340924,30.071290062756624 160.33599975192905,182.60345920861528" style="fill:none;stroke:#ff0000" /></svg>