<?xml version="1.0" encoding="utf-8" ?>
<svg baseProfile="full" height="57mm" version="1.1" width="62mm" xmlns="http://www.w3.org/2000/svg" xmlns:ev="http://www.w3.org/2001/xml-events" xmlns:xlink="http://www.w3.org/1999/xlink"><defs /><circle cx="147.7524863109376" cy="162.2491191735321" r="15" style="fill:none;stroke:#ff00dd" /><circle cx="48.50195260601323" cy="162.24911917353216" r="15" style="fill:none;stroke:#ff00dd" /><circle cx="37.27436909812117" cy="146.9806519436754" r="15" style="fill:none;stroke:#ff00dd" /><circle cx="66.85956159535917" cy="52.2419779150509" r="15" style="fill:none;stroke:#ff00dd" /><circle cx="143.41555682973078" cy="36.67215507420469" r="15" style="fill:none;stroke:#ff00dd" /><circle cx="185.43485260788879" cy="93.81456548622401" r="15" style="fill:none;stroke:#ff00dd" /><polyline points="157.5084670457692,178.94928835869146 42.46344075818031,178.94928835869146 19.53335452260198,147.76650801957226 53.82662574858544,37.95146982582173 152.3107274210408,17.921947500552868 205.98421199776394,90.9129919035524 157.5084670457692,178.94928835869146" style="fill:none;stroke:#000000" /><polyline points="185.43485260788879,93.81456548622401 220.45921703888752,113.10015819772546 214.37676707922301,124.14643233653149 179.35240264822428,104.86083962503004 173.28089125377846,115.88724834925931 208.30525568477725,135.17284106076076 202.22280572511264,146.21911519956674 167.19844129411396,126.93352248806528 161.12692989966814,137.95993121229455 196.15129433066687,157.24552392379607 190.0688443710024,168.29179806260206 155.0444799400036,149.0062053511006 148.97296854555785,160.03261407532986 147.7524863109376,162.2491191735321 147.7524863109376,202.45944345387417 135.7965232489742,202.4594434538742 135.7965232489742,162.2491191735321 123.86922010645617,162.2491191735321 123.86922010645617,202.45944345387417 111.91325704449278,202.45944345387417 111.91325704449278,162.2491191735321 99.98595390197477,162.2491191735321 99.98595390197477,202.45944345387417 88.02999084001137,202.45944345387417 88.02999084001137,162.2491191735321 76.10268769749337,162.2491191735321 76.10268769749337,202.45944345387417 64.14672463552996,202.45944345387417 64.14672463552996,162.2491191735321 52.21942149301194,162.2491191735321 48.501895871251286,162.24904201954317 38.38248731963507,143.43219942023873 0.0,131.4460355065333 3.563905845606879,120.03357928515905 41.94639316524194,132.0197431988645 45.501755888566095,120.63464404394175 7.119268568931027,108.64848013023632 10.68317441453788,97.23602390886208 49.06566173417297,109.2221878225675 52.62102445749712,97.83708866764482 14.238537137862053,85.85092475393935 17.802442983468932,74.4384685325651 56.184930303103975,86.42463244627058 59.74029302642815,75.03953329134785 21.35780570679308,63.053369377642426 24.92171155239996,51.64091315626813 63.30419887203502,63.6270770699736 66.85956159535917,52.2419779150509 69.33900225257584,51.737713661688765 61.37047607354828,12.556891990024862 73.72767998626068,10.043705724989419 81.69620616528825,49.22452739665332 94.0311871116275,46.71586079919408 86.06266093259994,7.535039127530179 98.41986484531232,5.021852862494709 106.38839102433985,44.20267453415859 118.72337197067912,41.69400793669937 110.75484579165159,2.5131862650354693 123.11204970436398,0.0 131.08057588339153,39.18082167166393 143.41555682973078,36.67215507420469 143.41558563961019,36.672194253013224 178.67686175862252,10.74304670609025 185.6863758100476,20.275346600643697 150.42509969103523,46.20449414756669 157.42200796236972,55.719651330750146 192.68328408138206,29.79050378382718 199.692798132807,39.32280367838062 164.4315220137947,65.2519512253036 171.42843028512925,74.76710840848708 206.6897064041416,48.837960861564106 213.69922045556655,58.37026075611755 178.43794433655427,84.29940830304055 185.43485260788879,93.81456548622401 185.43485260788879,93.81456548622401" style="fill:none;stroke:#ff0000" /><polyline points="147.7524863109376,162.2491191735321 48.50195260601323,162.24911917353216 37.27436909812117,146.9806519436754 66.85956159535917,52.2419779150509 143.41555682973078,36.67215507420469 185.43485260788879,93.81456548622401 147.7524863109376,162.2491191735321" style="fill:none;stroke:#00ff00" /><polyline points="211.14760364065995,107.972870767886 174.685719578329,174.19091935699186" style="fill:none;stroke:#0000ff" /><polyline points="147.7524863109376,191.82952245387415 52.21942149301194,191.82952245387415" style="fill:none;stroke:#0000ff" /><polyline points="28.364305981374347,177.05710812942462 17.13677920824423,161.78871805355686" style="fill:none;stroke:#0000ff" /><polyline points="10.146676004847363,134.61466084236832 38.62375028057147,43.42443933718049" style="fill:none;stroke:#0000ff" /><polyline points="63.48900057600093,22.973564894496256 137.5655551531559,7.908006307012179" style="fill:none;stroke:#0000ff" /><polyline points="170.1130566715822,17.040384468782 212.1323236398608,74.18275570199279" style="fill:none;stroke:#0000ff" /></svg>