<?xml version="1.0" encoding="UTF-8" standalone="no"?>
<svg
   xmlns:dc="http://purl.org/dc/elements/1.1/"
   xmlns:cc="http://creativecommons.org/ns#"
   xmlns:rdf="http://www.w3.org/1999/02/22-rdf-syntax-ns#"
   xmlns:svg="http://www.w3.org/2000/svg"
   xmlns="http://www.w3.org/2000/svg"
   xmlns:sodipodi="http://sodipodi.sourceforge.net/DTD/sodipodi-0.dtd"
   xmlns:inkscape="http://www.inkscape.org/namespaces/inkscape"
   height="32mm"
   version="1.1"
   width="32mm"
   id="svg11233"
   sodipodi:docname="num19.svg">
  <metadata
     id="metadata11237">
    <rdf:RDF>
      <cc:Work
         rdf:about="">
        <dc:format>image/svg+xml</dc:format>
        <dc:type
           rdf:resource="http://purl.org/dc/dcmitype/StillImage" />
        <dc:title></dc:title>
      </cc:Work>
    </rdf:RDF>
  </metadata>
  <sodipodi:namedview
     pagecolor="#ffffff"
     bordercolor="#666666"
     inkscape:document-rotation="0"
     borderopacity="1"
     objecttolerance="10"
     gridtolerance="10"
     guidetolerance="10"
     inkscape:pageopacity="0"
     inkscape:pageshadow="2"
     inkscape:window-width="640"
     inkscape:window-height="480"
     id="namedview11235"
     showgrid="false" />
  <defs
     id="defs11227" />
  <g
     id="g11802">
    <polyline
       id="polyline11229"
       style="fill:none;stroke:#ff0000"
       points="81.31147649339809,6.664652551049398 65.79385376707405,28.022822844498954 73.82032073098796,33.85439383079213 89.337943457312,12.496223537342575 98.51104855633507,19.160876088391973 82.99342583001103,40.51904638184153 91.30655232770224,46.55888775973625 91.31005659013503,46.56143375616245 116.65981947594295,54.79818023896919 113.15596279654513,65.58179925482949 88.04807918236455,57.42364515554566 84.98220458665398,66.85931180246708 110.09008819918456,75.01746590175091 106.58623151978675,85.80108492091117 81.47834790725615,77.64293081997735 78.30297778897378,87.41558556119597 78.30158955444472,87.41985805143536 78.30158955444472,114.0741572350396 66.96300715708469,114.0741572350396 66.96300715708469,87.67398134951937 57.0417475560947,87.67398134951937 57.0417475560947,114.0741572350396 45.70316515873467,114.0741572350396 45.70316515873467,87.67398134951937 35.42319587410812,87.67398134951937 10.073349804513175,95.91053957445547 6.569575960756404,85.12689364080678 31.677571206044682,76.96891650032438 28.61176909069503,67.5332263032256 3.5037738454067524,75.691203443708 0.0,64.90755751005932 25.107995245288276,56.74958036957692 21.932700196186865,46.97690123504069 21.93136568173591,46.97279397058856 6.264320772652265,25.40886824417296 15.437439611066281,18.744234603554645 30.955011915624027,40.10242809408566 38.98149090294875,34.27087365545092 23.463918598391004,12.912680166569887 32.637037438454996,6.248046525951572 48.15460974136276,27.606240014832604 56.46774869805974,21.56641577198951 56.4713509033587,21.563798628386955 72.13837139437501,0.0 81.31147649339809,6.664652551049398" />
    <polyline
       id="polyline11231"
       style="fill:none;stroke:#ff0000"
       points="76.53090368409292,51.59091532496788 68.95134916378368,74.91807615083934 44.42355732180326,74.91807615083934 36.844181893720744,51.590856800145396 56.68754552952511,37.17386829949616 76.53090368409292,51.59091532496788" />
  </g>
</svg>
