<?xml version="1.0" encoding="utf-8" ?>
<svg baseProfile="full" height="40mm" version="1.1" width="49mm" xmlns="http://www.w3.org/2000/svg" xmlns:ev="http://www.w3.org/2001/xml-events" xmlns:xlink="http://www.w3.org/1999/xlink"><defs /><polyline points="140.80764060152947,128.610730218851 -16.859108134307814,128.610730218851 163.26421702999053,-3.246909627385026 140.80764060152947,128.610730218851" style="fill:none;stroke:#000000" /><polyline points="153.86631825804136,10.609004523790215 153.04694851139985,15.420074509193904 174.90097049205744,19.142016715968065 173.0568048277467,29.9703516925727 151.2027828470891,26.24840948579854 149.477595610871,36.378142209893156 171.33161759317858,40.100084416667315 169.4874519288678,50.928419393271945 147.63342994656026,47.206477186497786 145.90824271199213,57.3362099105924 167.76226469264972,61.05815211736656 165.918099028339,71.8864870939712 144.0640770476814,68.16454488719704 142.33888981311327,78.29427761129165 164.19291179377086,82.0162198180658 162.3487461294601,92.84455479467044 140.49472414715254,89.12261258789628 138.7695369125844,99.2523453119909 160.623558894892,102.97428751876505 158.8091378371919,113.62797193141719 153.4692989482973,144.98175175704253 136.20654788585392,144.98175175704253 136.20654788585392,120.11458447165212 125.93095758453394,120.11458447165212 125.93095758453394,144.98175175704253 114.94670588585393,144.98175175704253 114.94670588585393,120.11458447165212 104.67111558453394,120.11458447165212 104.67111558453394,144.98175175704253 93.68686388585392,144.98175175704253 93.68686388585392,120.11458447165212 83.41127358453394,120.11458447165212 83.41127358453394,144.98175175704253 72.42702188585393,144.98175175704253 72.42702188585393,120.11458447165212 62.151431584533945,120.11458447165212 62.151431584533945,144.98175175704253 51.167179885853926,144.98175175704253 51.167179885853926,120.11458447165212 40.89158958453394,120.11458447165212 40.89158958453394,144.98175175704253 29.907337885853927,144.98175175704253 29.907337885853927,120.11458447165212 19.631747584533944,120.11458447165212 19.631747584533944,144.98175175704253 8.647495885853926,144.98175175704253 8.647495885853926,123.70873378672454 11.004231936128196,121.98350662426864 0.0,106.95124266362427 8.863215038674669,100.46300680783169 19.867446976452847,115.49527076847608 28.158841694522646,109.42563077349594 17.15460975839445,94.39336681285155 26.01782479706912,87.90513095705899 37.0220567348473,102.93739491770336 45.31345145456708,96.86775492272322 34.3092195167889,81.83549096207884 43.172434557113554,75.34725510628627 54.17666649324175,90.37951906693064 62.46806121296153,84.3098790719505 51.46382927518335,69.27761511130612 60.327044315508005,62.78937925551355 71.33127625328618,77.82164321615792 79.62267097135599,71.75200322117779 68.61843903522778,56.71973926053341 77.48165407390246,50.231503403090855 88.48588601168063,65.26376736373524 96.77728072975043,59.1941273687551 85.77304879362224,44.16186340811072 94.6362638322969,37.673627552318145 105.64049577007508,52.70589151296252 113.93189048979487,46.63625151798238 102.9276585520167,31.603987557338 111.79087359234134,25.115751701545427 122.79510552846953,40.148015662189806 131.0865002481893,34.07837566720967 120.08226831041114,19.046111706565288 128.9454833507358,12.557875850772714 139.94971528851397,27.590139811417092 148.24111000658377,21.520499816436953 137.23687807045556,6.488235855792574 146.10009310913023,0.0 153.86631825804136,10.609004523790215" style="fill:none;stroke:#ff0000" /><polyline points="142.85171419053646,132.4030119077025 18.06589393828575,132.4030119077025 160.6250388271095,28.04388814403588 142.85171419053646,132.4030119077025" style="fill:none;stroke:#ff0000" /></svg>