<?xml version="1.0" encoding="utf-8" ?>
<svg baseProfile="full" height="57mm" version="1.1" width="62mm" xmlns="http://www.w3.org/2000/svg" xmlns:ev="http://www.w3.org/2001/xml-events" xmlns:xlink="http://www.w3.org/1999/xlink"><defs /><circle cx="147.7527129782912" cy="162.24922706706255" r="15" style="fill:none;stroke:#ff00dd" /><circle cx="48.50191080242752" cy="162.24922706706255" r="15" style="fill:none;stroke:#ff00dd" /><circle cx="37.27443695586209" cy="146.98091781367225" r="15" style="fill:none;stroke:#ff00dd" /><circle cx="66.85953108451723" cy="52.24217785793124" r="15" style="fill:none;stroke:#ff00dd" /><circle cx="143.41549512439607" cy="36.672290144575754" r="15" style="fill:none;stroke:#ff00dd" /><circle cx="185.4348674862366" cy="93.81468064068054" r="15" style="fill:none;stroke:#ff00dd" /><polyline points="157.5086292974556,178.94948810525577 42.4635013192783,178.94948810525577 19.5334060470352,147.76671354609607 53.82655749690438,37.95161735800468 152.31064127680943,17.9220070560946 205.98420907612643,90.91300616233114 157.5086292974556,178.94948810525577" style="fill:none;stroke:#000000" /><polyline points="185.4348674862366,93.81468064068054 220.45920578700537,113.10015261802283 214.37678151774384,124.1464410130234 179.35244321697508,104.86096903568111 173.28095746673102,115.88739199046687 208.3052957674998,135.17286396780918 202.22287149823822,146.2191523628097 167.19853319746943,126.93368038546738 161.1270474472254,137.96010334025314 196.15138574799417,157.24557531759544 190.06896147873263,168.29186371259607 155.04462317796384,149.00639173525371 148.97313742771982,160.0328146900395 147.7527129782912,162.24922706706255 147.7527129782912,202.45976229441766 135.79672106650915,202.45976229441766 135.79672106650915,162.24922706706255 123.86938914332907,162.24922706706255 123.86938914332907,202.45976229441766 111.91339723154701,202.45976229441766 111.91339723154701,162.24922706706255 99.98606530836696,162.24922706706255 99.98606530836696,202.45976229441766 88.03007339658491,202.45976229441766 88.03007339658491,162.24922706706255 76.10274147340483,162.24922706706255 76.10274147340483,202.45976229441766 64.14674956162277,202.45976229441766 64.14674956162277,162.24922706706255 52.21941763844269,162.24922706706255 48.50189446371529,162.2492048479496 38.38258978576706,143.43234019796344 0.0,131.44619248010306 3.563889203538573,120.03374366324806 41.94647898930566,132.01989138110847 45.501825110454604,120.63479961295539 7.119235324687543,108.648651895095 10.683124528226116,97.23620307823994 49.065714313993205,109.2223507961004 52.62106043514215,97.83725902794734 14.238470649375087,85.85111131008694 17.802359852913686,74.43866249323192 56.18494963868072,86.42481021109228 59.74029575982969,75.0397184429393 21.35770597406263,63.05357072507888 24.92159517760123,51.64112190822385 63.304184963368265,63.62726962608425 66.85953108451723,52.24217785793124 69.33896563036234,51.73791254097532 61.370373371613404,12.556945173692434 73.72757310004313,10.04374826426638 81.69616535879209,49.22471563154927 94.03114212837359,46.71603840884216 86.06254986962466,7.535071041559243 98.41974959805437,5.02187413213319 106.3883418568033,44.20284149941608 118.72331862638484,41.69416427670897 110.75472636763588,2.513196909426052 123.11192609606556,0.0 131.08051835481456,39.18096736728289 143.41549512439607,36.672290144575754 143.41549512439607,36.672290144575754 178.6768076684914,10.743059517470947 185.68633133185733,20.27535178767842 150.425018787762,46.204582414783225 157.42193665375152,55.71973198733223 192.68324919784683,29.790501360227424 199.6927728612127,39.32279363043487 164.4314603171174,65.25202425753967 171.4283781831069,74.76717383008865 206.68969072720222,48.83794320298387 213.6992143905681,58.37023547319133 178.43790184647278,84.29946610029616 185.43481971246229,93.81461567284514 185.4348674862366,93.81468064068054" style="fill:none;stroke:#ff0000" /><polyline points="147.7527129782912,162.24922706706255 48.50191080242752,162.24922706706255 37.27443695586209,146.98091781367225 66.85953108451723,52.24217785793124 143.41549512439607,36.672290144575754 185.4348674862366,93.81468064068054 147.7527129782912,162.24922706706255" style="fill:none;stroke:#00ff00" /><polyline points="211.14758044262064,107.97288688353501 174.68585038410384,174.19102093289396" style="fill:none;stroke:#0000ff" /><polyline points="147.7527129782912,191.82984129441766 52.21941763844269,191.82984129441766" style="fill:none;stroke:#0000ff" /><polyline points="28.36435847615984,177.0572399016242 17.136900968306644,161.78895286734686" style="fill:none;stroke:#0000ff" /><polyline points="10.146679629931757,134.61480620755054 38.62362092868193,43.424643867518334" style="fill:none;stroke:#0000ff" /><polyline points="63.48890717936332,22.973616185664614 137.56543667339707,7.907993789265041" style="fill:none;stroke:#0000ff" /><polyline points="170.1130091067981,17.04040615402994 212.13233369486431,74.1827316822993" style="fill:none;stroke:#0000ff" /></svg>