<?xml version="1.0" encoding="utf-8" ?>
<svg baseProfile="full" height="36mm" version="1.1" width="51mm" xmlns="http://www.w3.org/2000/svg" xmlns:ev="http://www.w3.org/2001/xml-events" xmlns:xlink="http://www.w3.org/1999/xlink"><defs /><polyline points="146.37751724880638,112.82208498309095 -18.809203249397278,112.82208498309095 172.8464714351879,-1.6290229892694674 146.37751724880638,112.82208498309095" style="fill:none;stroke:#000000" /><polyline points="165.00551407940605,15.994700681716745 168.5961348393769,13.850488020409076 183.31647135150877,17.254840496320302 180.8414836847779,27.956626394574144 161.09430303065835,23.389722420675284 158.77899198822624,33.40107052005306 178.5261726406958,37.96797449395192 176.0511849756149,48.66976039385575 156.30400431984538,44.102856419956886 153.98869327741326,54.11420451933467 173.7358739298828,58.68110849488351 171.2608862648019,69.38289439478734 151.5137056106824,64.81599041923849 149.19839456660029,74.82733852026625 168.94557522071983,79.39424249581509 166.47058755398893,90.09602839571892 146.72340689986942,85.52912442017008 144.4080958574373,95.54047252119784 164.15527650990686,100.10737649674668 161.72020799925068,110.63655294651899 157.2406449887465,130.006073416133 137.08343026099874,130.006073416133 137.08343026099874,103.26713602199555 126.80783995967877,103.26713602199555 126.80783995967877,130.006073416133 115.82358826099875,130.006073416133 115.82358826099875,103.26713602199555 105.54799795967877,103.26713602199555 105.54799795967877,130.006073416133 94.56374626099876,130.006073416133 94.56374626099876,103.26713602199555 84.28815595967876,103.26713602199555 84.28815595967876,130.006073416133 73.30390426099875,130.006073416133 73.30390426099875,103.26713602199555 63.02831395967877,103.26713602199555 63.02831395967877,130.006073416133 52.04406226099875,130.006073416133 52.04406226099875,103.26713602199555 41.76847195967877,103.26713602199555 41.76847195967877,130.006073416133 30.78422026099875,130.006073416133 30.78422026099875,103.26713602199555 20.508629959678768,103.26713602199555 20.508629959678768,130.006073416133 9.524378260998752,130.006073416133 9.524378260998752,108.84344253226561 9.551562810046002,108.8272087216468 9.524378260998752,108.7816864630866 9.524378260998752,103.26713602199555 6.231251621178291,103.26713602199555 0.0,92.83250803993006 9.430670234162541,87.2007903316794 18.98223304420854,103.19549101339615 27.804472939033197,97.92710992956813 18.252910128987196,81.9324092478514 27.683580363149737,76.30069153960073 37.23514317319574,92.29539222131748 46.05738306967037,87.02701113748947 36.50582025962437,71.03231045577272 45.93649049213693,65.40059274752207 55.488053302182934,81.3952934292388 64.31029319865758,76.1269123454108 54.75873038861157,60.13221166534404 64.1894006227741,54.500493957093376 73.74096343282011,70.49519463716014 82.56320332764477,65.22681355498212 73.01164051759876,49.232112873265365 82.4423107517613,43.60039516501471 91.9938735618073,59.59509584673145 100.81611345828195,54.32671476290344 91.26455064823594,38.3320140811867 100.6952208807485,32.700296374586024 110.2467836907945,48.69499705465279 119.06902358726914,43.42661597082478 109.51746077722314,27.431915290758013 118.94813101138567,21.800197584157335 128.4996938214317,37.79489826257412 137.32193371625632,32.52651718039609 127.77037090621033,16.531816500329324 137.20104114037287,10.900098792078667 146.75260395041886,26.894799472145433 155.57484384689351,21.6264183899674 146.0232810368475,5.631717708250656 155.45395126936006,0.0 165.00551407940605,15.994700681716745" style="fill:none;stroke:#ff0000" /><polyline points="147.23896680372468,117.42733356679301 19.6840137159735,117.42733356679301 167.67793549878917,29.049734786771985 147.23896680372468,117.42733356679301" style="fill:none;stroke:#ff0000" /></svg>