<?xml version="1.0" encoding="utf-8" ?>
<svg baseProfile="tiny" height="39mm" version="1.2" width="45mm" xmlns="http://www.w3.org/2000/svg" xmlns:ev="http://www.w3.org/2001/xml-events" xmlns:xlink="http://www.w3.org/1999/xlink"><defs /><polyline fill="none" points="159.7567,112.3474 162.39,107.9077" stroke="rgb(0%,0%,100%)" /><polyline fill="none" points="124.6179,131.6374 43.0823,131.6374" stroke="rgb(0%,0%,100%)" /><polyline fill="none" points="5.3102,107.9077 7.9435,112.3474" stroke="rgb(0%,0%,100%)" /><polyline fill="none" points="6.1482,67.9901 43.1011,3.5242" stroke="rgb(0%,0%,100%)" /><polyline fill="none" points="82.2137,-14.8697 85.4867,-14.8697" stroke="rgb(0%,0%,100%)" /><polyline fill="none" points="124.5993,3.5242 161.552,67.9901" stroke="rgb(0%,0%,100%)" /><polyline fill="none" points="157.7771,90.5747 142.3344,116.6106 25.3657,116.6106 9.923,90.5747 64.4972,-4.632 103.2032,-4.632 157.7771,90.5747" stroke="rgb(0%,0%,0%)" /><polyline fill="none" points="134.4221,97.3207 124.6179,98.2041 124.6179,138.7241 111.0164,138.7241 111.0164,98.2041 97.4393,98.2041 97.4393,138.7241 83.8378,138.7241 83.8378,98.2041 70.2608,98.2041 70.2608,138.7241 56.6593,138.7241 56.6593,98.2041 43.0823,98.2041 30.6447,92.881 34.3363,84.148 0.0,64.4659 6.1644,53.7119 40.5007,73.3941 46.654,62.6594 12.3177,42.9772 18.482,32.2233 52.8183,51.9054 58.9716,41.1708 24.6353,21.4886 30.7997,10.7346 65.136,30.4168 71.2893,19.6821 82.2137,10.1262 96.4111,19.6821 130.7474,0.0 136.9118,10.754 102.5754,30.4361 108.7287,41.1707 143.065,21.4886 149.2294,32.2426 114.893,51.9247 121.0462,62.6594 155.3826,42.9773 161.547,53.7313 127.2106,73.4134 133.3638,84.148 134.4221,97.3207" stroke="rgb(100%,0%,0%)" /><polyline fill="none" points="157.7771,90.5747 142.3344,116.6106 25.3657,116.6106 9.923,90.5747 64.4972,-4.632 103.2032,-4.632" stroke="rgb(0%,100%,0%)" /></svg>