<?xml version="1.0" encoding="utf-8" ?>
<svg baseProfile="full" height="34mm" version="1.1" width="40mm" xmlns="http://www.w3.org/2000/svg" xmlns:ev="http://www.w3.org/2001/xml-events" xmlns:xlink="http://www.w3.org/1999/xlink"><defs /><polyline points="126.598502648889,102.76553450100421 21.326573403245437,102.7655345010042 7.428109203740202,79.33341137930657 56.544808185273816,-6.352686576333248 91.38021060853679,-6.3525939699672564 140.49677751908845,79.33341470112678 126.598502648889,102.76553450100421" style="fill:none;stroke:#000000" /><polyline points="121.49351840983194,9.529656183598721 90.23095712976237,27.449847667613312 95.3410833382327,36.364687330103976 126.60364461830227,18.44449584608938 132.06619332419297,27.974152029688103 100.8036320441234,45.894343513702694 105.91375825259374,54.80918317454337 137.1763195326633,36.88899169217876 142.63886823690402,46.41864787577749 111.37630695683445,64.3388393581421 116.57453879089736,73.40738315132226 120.64846217305087,80.51452145512205 119.45513593752791,82.5264375754646 118.26303780753774,84.5362831496269 106.02952725664038,84.5362831496269 106.02952725664038,121.51268163943824 95.04527555796037,121.51268163943824 95.04527555796037,84.5362831496269 84.76968525664039,84.5362831496269 84.76968525664039,121.51268163943824 73.78543355796037,121.51268163943824 73.78543355796037,84.5362831496269 63.50984325829037,84.5362831496269 63.50984325829037,121.51268163943824 52.52559155961035,121.51268163943824 52.52559155961035,84.5362831496269 29.661904604869683,84.5362831496269 28.46977511204259,82.52641179781301 27.27631804788417,80.51430222545997 31.26214814465224,73.56085797096641 0.0,55.64087378890198 5.462555477412307,46.11122148605833 36.724703622064546,64.03120566647277 41.83483616481155,55.116369637240055 10.572688020159312,37.19638545682561 16.035243497571617,27.66673315398196 47.29739164222386,45.58671733604639 52.40752418497086,36.67188130681367 21.145376040318624,18.751897124749238 26.60793151773093,9.22224482025561 57.87007966238317,27.14222900232004 63.06831793797151,18.073688905097082 68.71180567111612,8.228392852262793 73.96236966885417,8.228406809451219 79.21293312539848,8.228420768289624 84.76840842552166,17.92019148401459 116.03096970559122,0.0 121.49351840983194,9.529656183598721" style="fill:none;stroke:#ff0000" /><polyline points="101.24472389466034,71.95754330028689 46.67994464071763,71.95754330028689 73.96235673300392,24.362255272569488 101.24472389466034,71.95754330028689" style="fill:none;stroke:#ff0000" /></svg>