<?xml version="1.0" encoding="utf-8" ?>
<svg baseProfile="full" height="34mm" version="1.1" width="40mm" xmlns="http://www.w3.org/2000/svg" xmlns:ev="http://www.w3.org/2001/xml-events" xmlns:xlink="http://www.w3.org/1999/xlink"><defs /><polyline points="126.59838465491526,102.76553208028395 21.326735943149572,102.76553208028393 7.428226264881349,79.3335515535228 56.54477348784206,-6.352556001243667 91.38017653853602,-6.352581002607286 140.49701293187903,79.33336708088957 126.59838465491526,102.76553208028395" style="fill:none;stroke:#000000" /><polyline points="121.49351846428131,9.52964158951767 90.23105762349901,27.449886491663865 95.34120765439356,36.36471249561264 126.60366849517587,18.44446759346645 132.06624266687174,27.97410918133414 100.80378182608945,45.89435408513032 105.91393185698401,54.80918008577913 137.17639269776632,36.88893518528292 142.6389668694622,46.41857677480059 111.3765060286799,64.3388216752968 116.57476209436228,73.4073515756378 120.64867148797772,80.51442146132963 119.45534841546815,82.52628497698116 118.26306675480264,84.53639273970822 106.02943254278684,84.53639273970822 106.02943254278684,121.5125420147546 95.04518084410682,121.5125420147546 95.04518084410682,84.53639273970822 84.76959054278684,84.53639273970822 84.76959054278684,121.5125420147546 73.78533884410683,121.5125420147546 73.78533884410683,84.53639273970822 63.509748544436825,84.53639273970822 63.509748544436825,121.5125420147546 52.525496845756805,121.5125420147546 52.525496845756805,84.53639273970822 29.662134095762973,84.53639273970822 28.46989984234865,82.52636357382129 27.276528484798042,80.5144173264775 31.262329832298928,73.56100096656101 0.0,55.64097001413802 5.4625423122147145,46.11131016428174 36.72487214451364,64.03134111505474 41.8349923734532,55.11649802885373 10.57266253950429,37.196467078080715 16.035204851719005,27.666807226574456 47.29753468401793,45.586838178997446 52.40765491295748,36.67199509114644 21.14532508065856,18.75196414037343 26.607867391223294,9.22230428886717 57.8701972251722,27.14233524129016 63.06842297575554,18.07378796170035 68.71186873668604,8.22853360388338 73.96243622083372,8.228529835327006 79.213003480584,8.228526066770632 84.7684834534531,17.920244902146194 116.0309442942354,0.0 121.49351846428131,9.52964158951767" style="fill:none;stroke:#ff0000" /><polyline points="101.24500076145519,71.95765289036821 46.68013105060965,71.95765289036821 73.96246020660605,24.36235716053998 101.24500076145519,71.95765289036821" style="fill:none;stroke:#ff0000" /></svg>