<?xml version="1.0" encoding="utf-8" ?>
<svg baseProfile="full" height="38mm" version="1.1" width="39mm" xmlns="http://www.w3.org/2000/svg" xmlns:ev="http://www.w3.org/2001/xml-events" xmlns:xlink="http://www.w3.org/1999/xlink"><defs /><circle cx="92.84698295719316" cy="103.29484940010049" r="15" style="fill:none;stroke:#ff00dd" /><circle cx="43.32682163852188" cy="103.29484940010049" r="15" style="fill:none;stroke:#ff00dd" /><circle cx="28.024462395338364" cy="56.19842384645653" r="15" style="fill:none;stroke:#ff00dd" /><circle cx="68.08707090530662" cy="27.09135425753138" r="15" style="fill:none;stroke:#ff00dd" /><circle cx="108.14969701048946" cy="56.19856282338282" r="15" style="fill:none;stroke:#ff00dd" /><polyline points="102.94599075808885,117.1950839182358 33.22771105536149,117.1950839182358 11.683820436690139,50.88895265223003 68.08709224041944,9.909744894809107 124.49038241754431,50.889143666010156 102.94599075808885,117.1950839182358" style="fill:none;stroke:#000000" /><polyline points="108.14969701048946,56.19856282338282 139.99734251203364,66.54662734832158 136.16937415296877,78.32774631958631 104.3217286514246,67.97968179464755 100.49835109990606,79.74667190046601 132.34599660145022,90.09473642540476 128.51802824238536,101.8758553966695 96.67038274084115,91.52779087173074 92.84700518932266,103.2947809775492 92.84688017492849,103.29484940010049 92.84688017492849,136.78163928572673 80.45943753204638,136.78163928572673 80.45943753204638,103.29484940010049 68.08685090672519,103.29484940010049 68.08685090672519,136.78163928572673 55.69940826384309,136.78163928572673 55.69940826384309,103.29484940010049 43.32682163852188,103.29484940010049 43.32682163852188,103.29484940010049 11.479047683371302,113.64268519503398 7.651168221936479,101.86153189580693 39.49894217708706,91.51369610087343 35.6756534165854,79.74667170826146 3.8278794614348226,90.09450750319496 0.0,78.3133542039679 31.847773955150604,67.9655184090344 28.02448519464892,56.19849401642244 28.024487882177997,56.19840532925963 8.341519552980998,29.107012563745542 18.36317469621662,21.825883738152704 38.04614302541364,48.91727650366682 48.055779393742284,41.64487979339549 28.37281106454531,14.553487027881404 38.39446620778094,7.272358202288567 58.07743453697793,34.36375096780268 68.08707090530662,27.09135425753138 68.08708016047109,27.09136098180348 87.77011073265098,0.0 97.79177433768311,7.281166540671076 78.10874376550322,34.37252752247453 88.1183885854803,41.64496190259315 107.80141915766019,14.553600920789671 117.82308276269227,21.834767461460746 98.14005219051238,48.926128443264226 108.14969701048946,56.19856282338282 108.14969701048946,56.19856282338282" style="fill:none;stroke:#ff0000" /><polyline points="92.84698295719316,103.29484940010049 43.32682163852188,103.29484940010049 28.024462395338364,56.19842384645653 68.08707090530662,27.09135425753138 108.14969701048946,56.19856282338282 92.84698295719316,103.29484940010049" style="fill:none;stroke:#00ff00" /><polyline points="129.88769967923287,63.26176171036304 114.58500785806606,110.35797986452941" style="fill:none;stroke:#0000ff" /><polyline points="92.84688017492849,126.15171828572673 43.32682163852188,126.15171828572673" style="fill:none;stroke:#0000ff" /><polyline points="21.588715748736,110.3578972149071 6.286379304863042,63.26154183122904" style="fill:none;stroke:#0000ff" /><polyline points="14.589613591931103,37.706811476899105 54.65219661505971,8.59976040517083" style="fill:none;stroke:#0000ff" /><polyline points="81.52199896402703,8.599786031816357 121.58461581404539,37.706987873395704" style="fill:none;stroke:#0000ff" /></svg>