<?xml version="1.0" encoding="utf-8" ?>
<svg baseProfile="full" height="73mm" version="1.1" width="100mm" xmlns="http://www.w3.org/2000/svg" xmlns:ev="http://www.w3.org/2001/xml-events" xmlns:xlink="http://www.w3.org/1999/xlink"><defs /><polyline points="380.2119061126676,236.00088157439805 15.689848991318552,236.00088157439805 105.09278312305794,31.457439336682373 380.2119061126676,236.00088157439805" style="fill:none;stroke:#000000" /><polyline points="116.93197306404876,18.065118508312537 100.13012335946694,40.66427937694739 108.37636138544454,46.79512878098497 125.17821109167635,24.195967915650076 133.99315518676104,30.749634519681624 117.19130548217923,53.34879538831648 125.43754350980682,59.47964479235406 142.23939321603862,36.880483925369184 151.0543373111233,43.43415052940073 134.25248760654148,66.0333113980356 142.4987256325191,72.16416080207317 159.3005753387509,49.56499993508829 168.1155194338356,56.11866653911984 151.31366973090377,78.7178274077547 159.55990775688136,84.84867681179227 176.36175746311315,62.2495159448074 185.17670155819786,68.80318254883895 168.37485185361604,91.4023434174738 176.62108987959365,97.53319282151138 193.42293958582545,74.9340319545265 202.23788368256012,81.48769855855805 185.4360339779783,104.0868594271929 193.68227200395592,110.21770883123048 210.4841217101877,87.61854796424561 219.29906580527242,94.17221456992715 202.4972161006906,116.77137543691202 210.74345412831818,122.90222484259958 227.54530383454997,100.3030639756147 236.36024792963468,106.85673057964625 219.55839822505285,129.4558914482811 227.80463625103044,135.58674085231868 244.60648595726227,112.98757998533381 253.42143005234695,119.54124658936536 236.61958034941512,142.14040745800023 244.86581837539273,148.2712568620378 261.6676680816245,125.67209599505291 270.4826121767092,132.22576259908448 253.6807624721274,154.82492346771932 261.92700049810503,160.9557728717569 278.7288502043368,138.35661200477202 287.5437943010715,144.91027860880357 270.74194459648965,167.50943947743843 278.98818262246726,173.640288881476 295.79003232869906,151.04112801449114 304.6049764237838,157.59479461852268 287.80312671920194,180.19395548715752 296.04936474682955,186.3248048911951 312.85121445141135,163.72564402421023 321.66615854814603,170.27931062989177 304.86430884356423,192.87847149687664 313.11054686954185,199.0093209025642 329.91239657577364,176.41016003557934 338.7273406708583,182.9638266396109 321.9254909662765,205.56298750824573 330.1717289939041,211.6938369122833 346.9735787001359,189.09467604529843 355.78852279522056,195.64834264932998 338.98667309063876,218.24750351796484 346.9469369007555,224.16573901838365 346.9469369007555,261.0297799304059 335.9626852020755,261.0297799304059 335.9626852020755,217.25775196370347 325.6870949007555,217.25775196370347 325.6870949007555,261.0297799304059 314.7028432020755,261.0297799304059 314.7028432020755,217.25775196370347 304.4272529007555,217.25775196370347 304.4272529007555,261.0297799304059 293.44300120207544,261.0297799304059 293.44300120207544,217.25775196370347 283.1674109007555,217.25775196370347 283.1674109007555,261.0297799304059 272.18315920207544,261.0297799304059 272.18315920207544,217.25775196370347 261.9075689007555,217.25775196370347 261.9075689007555,261.0297799304059 250.92331720207545,261.0297799304059 250.92331720207545,217.25775196370347 240.6477269007555,217.25775196370347 240.6477269007555,261.0297799304059 229.66347520207546,261.0297799304059 229.66347520207546,217.25775196370347 219.38788490075547,217.25775196370347 219.38788490075547,261.0297799304059 208.40363320207547,261.0297799304059 208.40363320207547,217.25775196370347 198.12804290075547,217.25775196370347 198.12804290075547,261.0297799304059 187.14379120207548,261.0297799304059 187.14379120207548,217.25775196370347 176.86820090075548,217.25775196370347 176.86820090075548,261.0297799304059 165.88394920207546,261.0297799304059 165.88394920207546,217.25775196370347 155.6083589007555,217.25775196370347 155.6083589007555,261.0297799304059 144.62410720207546,261.0297799304059 144.62410720207546,217.25775196370347 134.34851690075547,217.25775196370347 134.34851690075547,261.0297799304059 123.36426520207546,261.0297799304059 123.36426520207546,217.25775196370347 113.08867490075548,217.25775196370347 113.08867490075548,261.0297799304059 102.10442320207547,261.0297799304059 102.10442320207547,217.25775196370347 91.82883290075549,217.25775196370347 91.82883290075549,261.0297799304059 80.84458120207546,261.0297799304059 80.84458120207546,217.25775196370347 70.56899090075548,217.25775196370347 70.56899090075548,261.0297799304059 59.58473920207546,261.0297799304059 59.58473920207546,217.25775196370347 49.30914890075548,217.25775196370347 49.30914890075548,261.0297799304059 38.32489720207546,261.0297799304059 38.32489720207546,228.64191991619094 38.30863796195105,228.67911915300286 38.14630191658915,228.60816445186208 38.21725661772992,228.4458284065002 38.32489720207546,228.49287652449624 38.32489720207546,217.25775196370347 28.04930690075548,217.25775196370347 28.04930690075548,224.19491624111265 0.0,211.93497620212707 4.399191457527849,201.87014138638986 42.54549337741697,218.5433296361249 46.66086603203172,209.12783900018528 8.514564115442564,192.45465074880028 12.913755574620392,182.38981593306306 51.06005749285953,199.0630041827981 55.17543014747428,189.64751354520848 17.029128229235145,172.97432529547348 21.428319688412977,162.9094904797363 59.574621608302095,179.5826787278213 63.68999426456683,170.1671880918817 25.54369234467771,153.4939998404967 29.942883803855537,143.4291650247595 68.08918572374466,160.10235327449453 72.20455838000939,150.6868626385549 34.058256461770256,134.0136743871699 38.457447919298104,123.9488395714327 76.6037498408372,140.62202782116773 80.71912249545196,131.20653718522811 42.572820577212816,114.5333489338431 46.972012036390645,104.46851411810592 85.11831395627976,121.14170236784092 89.23368661089452,111.72621173190132 51.08738469265538,95.05302348051632 55.48657615183321,84.98818866477912 93.63287807172233,101.66137691286416 97.74825072798706,92.24588627692454 59.601948808097944,75.57269802718952 64.00114026727577,65.50786320980234 102.14744218716488,82.18105145953736 106.26281484342962,72.76556082359774 68.11651292519049,56.09237257221274 72.51570438271834,46.02753775647554 110.66200630260745,62.70072600621056 114.77737895887219,53.28523537027094 76.63107704063304,36.61204711888594 80.95931379702013,26.709548346860654 92.63366505344187,0.0 116.93197306404876,18.065118508312537" style="fill:none;stroke:#ff0000" /><polyline points="405.7277096984222,248.45104008106588 -2.2328346368727057,248.45104008106588 97.82385318277296,19.53305719122625 405.7277096984222,248.45104008106588" style="fill:none;stroke:#ff0000" /></svg>