<?xml version="1.0" encoding="utf-8" ?>
<svg baseProfile="full" height="58mm" version="1.1" width="72mm" xmlns="http://www.w3.org/2000/svg" xmlns:ev="http://www.w3.org/2001/xml-events" xmlns:xlink="http://www.w3.org/1999/xlink"><defs /><polyline points="259.73367655223,185.6717298884704 37.08175012099639,185.67172988847042 103.79615453519071,-27.354279014836173 259.73367655223,185.6717298884704" style="fill:none;stroke:#000000" /><polyline points="126.76718259060002,22.753532499097037 127.6208988923776,20.02752785102179 128.11420372186942,20.70143081841383 148.5576753715553,5.736571237260626 155.04574251515098,14.599909778655563 134.60227086546507,29.564769359808768 140.6717530331723,37.85627961284107 161.1152246828582,22.89142003003789 167.6032918264539,31.754758573082807 147.159820176768,46.71961815423601 153.2293023461252,55.011128407268316 173.6727739958111,40.04626882446513 180.1608411377568,48.90960736751005 159.7173694880709,63.874466948663255 165.78685165742812,72.16597720004557 186.23032330711402,57.201117618892376 192.71839045070968,66.0644561602873 172.27491880102377,81.02931574309049 178.344400968731,89.32082599447283 198.7878726184169,74.35596641331962 205.2759397620126,83.21930495471456 184.8324681123267,98.18416453586777 190.9019502816839,106.47567478890006 211.3454219313698,91.51081520609688 217.8334890733155,100.3741537491418 197.3900174236296,115.339013330295 203.45949959298682,123.6305235833273 223.90297124267272,108.66566400052413 230.39103838626838,117.52900254191906 209.9475667365825,132.49386212472226 216.0170489042897,140.78537237610456 236.4605205556256,125.82051279495137 242.9485876975713,134.6838513363463 222.5051160478854,149.6487109191495 228.57459821724262,157.94022117053183 249.0180698669285,142.97536158937862 255.50613701052418,151.83870013077356 235.06266535918832,166.80355971192677 239.12339370549455,172.3509144578078 237.64233495196572,172.3509144578078 237.64233495196572,205.93373304519886 226.6580832532857,205.93373304519886 226.6580832532857,172.3509144578078 216.38249295196573,172.3509144578078 216.38249295196573,205.93373304519886 205.3982412532857,205.93373304519886 205.3982412532857,172.3509144578078 195.1226509519657,172.3509144578078 195.1226509519657,205.93373304519886 184.1383992532857,205.93373304519886 184.1383992532857,172.3509144578078 173.86280895196572,172.3509144578078 173.86280895196572,205.93373304519886 162.8785572532857,205.93373304519886 162.8785572532857,172.3509144578078 152.60296695196573,172.3509144578078 152.60296695196573,205.93373304519886 141.6187152532857,205.93373304519886 141.6187152532857,172.3509144578078 131.3431249519657,172.3509144578078 131.3431249519657,205.93373304519886 120.35887325328571,205.93373304519886 120.35887325328571,172.3509144578078 110.08328295196571,172.3509144578078 110.08328295196571,205.93373304519886 99.0990312532857,205.93373304519886 99.0990312532857,172.3509144578078 88.82344095196572,172.3509144578078 88.82344095196572,205.93373304519886 69.39973697905866,205.93373304519886 72.65438789909444,195.5412952776671 0.0,172.7877627769201 3.2827722803880133,162.30553059369606 75.93716017948245,185.05906309279308 79.00814070048413,175.25310395242386 6.353752801389696,152.4995714533268 9.636525081777709,142.01733926845282 82.29091298087215,164.77087176919983 85.36189350187384,154.96491262883058 12.707505602779392,132.21138012973356 15.990277883167405,121.72914794485955 88.64466578226184,144.48268044395658 91.71564630326353,134.67672130523732 19.061258404169088,111.92318880449031 22.3440306845571,101.44095662126628 94.99841858365154,124.19448912036331 98.06939910465323,114.38852997999408 25.415011205558784,91.63499748089704 28.697783485946797,81.15276529602303 101.35217138504123,103.90629779677005 104.42315190604292,94.10033865640082 31.76876400694848,71.34680615730377 35.051536287336496,60.864573972429774 107.70592418643093,83.61810647152681 110.77690470743262,73.81214733280756 38.122516808338176,51.058614832060535 41.40528908872619,40.57638264883651 114.05967698782062,63.32991514793355 117.13065750882231,53.52395600756431 44.47626960972787,30.77042350846727 47.75904189011589,20.288191323593264 120.41342978921033,43.04172382434028 123.48441031021201,33.23576468397104 50.83002241111757,10.482232184874007 54.112794691505584,0.0 126.76718259060002,22.753532499097037" style="fill:none;stroke:#ff0000" /><polyline points="270.30783411048276,193.35499319585887 86.52024909183552,193.35499319585887 141.58952008206447,17.51310244644307 270.30783411048276,193.35499319585887" style="fill:none;stroke:#ff0000" /></svg>