<?xml version="1.0" encoding="utf-8" ?>
<svg baseProfile="full" height="34mm" version="1.1" width="40mm" xmlns="http://www.w3.org/2000/svg" xmlns:ev="http://www.w3.org/2001/xml-events" xmlns:xlink="http://www.w3.org/1999/xlink"><defs /><polyline points="126.59847259298921,102.76558615140914 21.32654334734563,102.76558615140914 7.428268477146202,79.33346635153161 56.54483538769785,-6.3525423195243205 91.38023781096085,-6.352634925883741 140.49693679249447,79.33346302971164 126.59847259298921,102.76558615140914" style="fill:none;stroke:#000000" /><polyline points="121.4935365876715,9.529652304493629 90.23106124025713,27.44982404483678 95.34119378300414,36.364660074069505 126.60366913041851,18.444488333726348 132.0662246078308,27.97414063821998 100.80374926041645,45.89431237856313 105.91388180316345,54.80914840614587 137.17635715057781,36.888976667452695 142.63891262799012,46.418628971946326 111.37643727892578,64.3388007106395 116.5746755561641,73.40734080951243 120.64862924516676,80.5145202836356 119.45527088451568,82.5264634471651 118.26313984400652,84.53633740924876 106.02945024708188,84.53633740924876 106.02945024708188,121.5127300944273 95.04519854840187,121.5127300944273 95.04519854840187,84.53633740924876 84.76960824708189,84.53633740924876 84.76960824708189,121.5127300944273 73.78535654840188,121.5127300944273 73.78535654840188,84.53633740924876 63.50976624873187,84.53633740924876 63.50976624873187,121.5127300944273 52.52551455005185,121.5127300944273 52.52551455005185,84.53633740924876 29.661893003853983,84.53633740924876 28.46987780520376,82.52663165611781 27.27649138497753,80.5146140603 31.262445019115464,73.56094284268389 0.0,55.640818001397804 5.462548704240717,46.11116181779908 36.72499372335618,64.03128665743517 41.83511993347649,55.116446996594505 10.57267491436103,37.1963221569584 16.035223618601748,27.666665971709698 47.29766863771721,45.58679081299578 52.40779484783753,36.6719511521551 21.14534982872206,18.751826310869017 26.60789853296278,9.222170125620316 57.87034355207824,27.142294966906398 63.06857538449117,18.07375117537621 68.71200691268643,8.228536954994585 73.96254479782678,8.22852299780616 79.21308322746081,8.228509040617736 84.76850576284482,17.920171740343154 116.03098111025919,0.0 121.4935365876715,9.529652304493629" style="fill:none;stroke:#ff0000" /><polyline points="101.24490876017023,71.95759755990875 46.680251641113635,71.95759755990875 73.96255773367703,24.362416066508054 101.24490876017023,71.95759755990875" style="fill:none;stroke:#ff0000" /></svg>