<?xml version="1.0" encoding="utf-8" ?>
<svg baseProfile="full" height="32mm" version="1.1" width="32mm" xmlns="http://www.w3.org/2000/svg" xmlns:ev="http://www.w3.org/2001/xml-events" xmlns:xlink="http://www.w3.org/1999/xlink"><defs /><polyline points="87.8373503987964,100.97242020556462 25.09089866634177,100.97242020556462 5.701397109537573,41.296902066159454 56.46434173289394,4.415615084480603 107.22730289230628,41.297073978561535 87.8373503987964,100.97242020556462" style="fill:none;stroke:#000000" /><polyline points="80.84077059758904,6.456382159447847 65.32314787126501,27.814552452897402 73.63627437060619,33.85439383079213 89.15389709693022,12.496223537342575 98.04034266052602,18.95260569679042 82.52271993420199,40.310775990239975 90.97917619878183,46.45475256311049 91.00538138681668,46.47379175045276 116.21333673686381,54.66446156131748 112.81897557838779,65.11109248453056 87.71109196420721,56.95293838524673 84.53572184757482,66.72559312481536 109.64360546010542,74.8837472240992 106.2492443016294,85.33037815061225 81.14136068909882,77.17222404967843 77.91124281035553,87.11337283722065 77.90118327281007,87.14433250956507 77.90118327281007,113.64952692218519 66.91693157413006,113.64952692218519 66.91693157413006,87.24935103666495 56.64134127446005,87.24935103666495 56.64134127446005,113.64952692218519 45.65708957578004,113.64952692218519 45.65708957578004,87.24935103666495 35.17189505149964,87.24935103666495 9.963856874061376,95.43983367864642 6.569575960756404,84.99317667913522 31.677571206044682,76.83519953700284 28.50227615859325,67.06252040741656 3.3942809149549533,75.22049754789896 0.0,64.77384054838774 25.107995245288276,56.615863406255365 21.877953732610948,46.67468980795036 21.867948179140537,46.64389548349178 6.288544723022976,25.20059836076553 15.175003598664668,18.744234522705582 30.692575903222416,40.1024280132366 39.00571485331946,34.06260377204349 23.48814254876171,12.704410283162453 32.37460142605339,6.248046445102507 47.892173728961154,27.606239933983538 56.34864266374432,21.462280791511244 56.37494624344014,21.443170202895548 71.95432503399324,0.0 80.84077059758904,6.456382159447847" style="fill:none;stroke:#ff0000" /><polyline points="76.30766275179829,51.34345036145347 68.72810823148905,74.67061118732494 44.20031638950862,74.67061118732494 36.62094096142611,51.34339183663098 56.46430459723047,36.926403335981746 76.30766275179829,51.34345036145347" style="fill:none;stroke:#ff0000" /></svg>