<?xml version="1.0" encoding="utf-8" ?>
<svg baseProfile="tiny" height="39mm" version="1.2" width="45mm" xmlns="http://www.w3.org/2000/svg" xmlns:ev="http://www.w3.org/2001/xml-events" xmlns:xlink="http://www.w3.org/1999/xlink"><defs /><polyline fill="none" points="159.7567,112.3475 162.3901,107.9077" stroke="rgb(0%,0%,100%)" /><polyline fill="none" points="124.618,131.6372 43.0822,131.6372" stroke="rgb(0%,0%,100%)" /><polyline fill="none" points="5.3102,107.9076 7.9437,112.3475" stroke="rgb(0%,0%,100%)" /><polyline fill="none" points="6.1482,67.9902 43.101,3.5244" stroke="rgb(0%,0%,100%)" /><polyline fill="none" points="82.2137,-14.8696 85.4866,-14.8696" stroke="rgb(0%,0%,100%)" /><polyline fill="none" points="124.5993,3.5242 161.5523,67.9902" stroke="rgb(0%,0%,100%)" /><polyline fill="none" points="157.7773,90.5749 142.3345,116.6106 25.3657,116.6106 9.9232,90.5749 64.4971,-4.6318 103.2032,-4.6319 157.7773,90.5749" stroke="rgb(0%,0%,0%)" /><polyline fill="none" points="134.4223,97.3207 124.618,98.2042 124.618,138.7239 111.0165,138.7239 111.0165,98.2042 97.4394,98.2042 97.4394,138.7239 83.8379,138.7239 83.8379,98.2042 70.2608,98.2042 70.2608,138.7239 56.6593,138.7239 56.6593,98.2042 43.0822,98.2042 30.6446,92.881 34.3365,84.1482 0.0,64.466 6.1643,53.712 40.5009,73.3942 46.6541,62.6596 12.3176,42.9774 18.482,32.2234 52.8185,51.9056 58.9718,41.171 24.6352,21.4888 30.7996,10.7348 65.1361,30.417 71.2894,19.6824 82.2137,10.1264 96.4109,19.6823 130.7475,0.0 136.9119,10.754 102.5753,30.4363 108.7286,41.1709 143.0651,21.4887 149.2295,32.2427 114.893,51.9249 121.0462,62.6596 155.3828,42.9773 161.5472,53.7313 127.2106,73.4136 133.3639,84.1482 134.4223,97.3207" stroke="rgb(100%,0%,0%)" /><polyline fill="none" points="157.7773,90.5749 142.3345,116.6106 25.3657,116.6106 9.9232,90.5749 64.4971,-4.6318 103.2032,-4.6319" stroke="rgb(0%,100%,0%)" /></svg>