<?xml version="1.0" encoding="utf-8" ?>
<svg baseProfile="full" height="31mm" version="1.1" width="58mm" xmlns="http://www.w3.org/2000/svg" xmlns:ev="http://www.w3.org/2001/xml-events" xmlns:xlink="http://www.w3.org/1999/xlink"><defs /><polyline points="222.5355082919248,105.01579296814026 -0.6927582222344345,105.01579296814029 80.71252683338142,20.323165090410637 222.5355082919248,105.01579296814026" style="fill:none;stroke:#000000" /><polyline points="97.50240183001422,10.334744480969846 83.79309288414134,33.29182017144301 92.61532915560794,38.56020732390076 106.3246381031308,15.603131635077585 115.75530445983823,21.234855831053135 102.04599551231537,44.19193152317628 110.86823178378197,49.460318675634035 124.57754073295482,26.503242985160874 134.00820708801226,32.134967181136425 120.29889814213938,55.092042873259565 129.12113441360597,60.36043002571733 142.83044336112883,37.40335433524417 152.26110971783626,43.0350785328697 138.5518007719634,65.99215422499285 147.37403704342998,71.2605413774506 161.08334599095284,48.30346568697743 170.51401234766027,53.93518988460297 156.8047034001374,76.89226557672612 165.62693967160402,82.16065272918387 179.33624862077687,59.203577038710705 188.7669149758343,64.83530123633624 175.05760602996142,87.79237692845938 183.87984230142803,93.06076408091714 197.58915124895088,70.10368839044398 207.01981760565832,75.73541258641953 196.16954857002398,93.90485121296709 196.13790838450754,93.90485121296709 196.13790838450754,93.95783463895286 193.31050865978543,98.69248827854267 196.13790838450754,100.38093051934031 196.13790838450754,112.53444139325634 185.1536566858275,112.53444139325634 185.1536566858275,93.90485121296709 174.87806638450752,93.90485121296709 174.87806638450752,112.53444139325634 163.89381468582752,112.53444139325634 163.89381468582752,93.90485121296709 153.61822438450753,93.90485121296709 153.61822438450753,112.53444139325634 142.63397268582753,112.53444139325634 142.63397268582753,93.90485121296709 132.35838238450754,93.90485121296709 132.35838238450754,112.53444139325634 121.37413068582751,112.53444139325634 121.37413068582751,93.90485121296709 111.09854038450753,93.90485121296709 111.09854038450753,112.53444139325634 100.11428868582752,112.53444139325634 100.11428868582752,93.90485121296709 89.83869838450754,93.90485121296709 89.83869838450754,112.53444139325634 78.85444668582751,112.53444139325634 78.85444668582751,93.90485121296709 68.57885638450753,93.90485121296709 68.57885638450753,112.53444139325634 57.59460468582752,112.53444139325634 57.59460468582752,93.90485121296709 47.31901438450753,93.90485121296709 47.31901438450753,112.53444139325634 36.33476268582751,112.53444139325634 36.33476268582751,93.90485121296709 26.059172384507534,93.90485121296709 26.059172384507534,112.53444139325634 15.074920685827516,112.53444139325634 15.074920685827516,93.90485121296709 10.892899664719582,93.90485121296709 0.0,83.4347592526014 7.611826108966232,75.51554914687524 22.224526132005145,89.56105748627574 29.345266688588037,82.15276415895615 14.732566662249162,68.1072558228556 22.344392769565413,60.188045717129455 36.95709279425431,74.23355405487996 44.07783334918722,66.82526072756036 29.465133324498325,52.77975239145984 37.07695943181458,44.860542285733686 51.68965945650347,58.9060506234842 58.81040001143638,51.49775729781458 44.19769998674749,37.45224896006407 51.80952609406374,29.533038855987897 66.42222611875263,43.57854719373841 73.54296667368554,36.17025386641881 58.93026664734667,22.124745530318283 66.41932136862955,14.333264622081234 80.19624058026017,0.0 97.50240183001422,10.334744480969846" style="fill:none;stroke:#ff0000" /><polyline points="191.8479045829155,81.32611136362708 19.47400101384186,81.32611136362708 82.33408130408276,15.927588593041857 191.8479045829155,81.32611136362708" style="fill:none;stroke:#ff0000" /></svg>