<?xml version="1.0" encoding="UTF-8" standalone="no"?>
<svg
   xmlns:dc="http://purl.org/dc/elements/1.1/"
   xmlns:cc="http://creativecommons.org/ns#"
   xmlns:rdf="http://www.w3.org/1999/02/22-rdf-syntax-ns#"
   xmlns:svg="http://www.w3.org/2000/svg"
   xmlns="http://www.w3.org/2000/svg"
   xmlns:sodipodi="http://sodipodi.sourceforge.net/DTD/sodipodi-0.dtd"
   xmlns:inkscape="http://www.inkscape.org/namespaces/inkscape"
   height="34mm"
   version="1.1"
   width="40mm"
   id="svg8179"
   sodipodi:docname="num18.svg">
  <metadata
     id="metadata8183">
    <rdf:RDF>
      <cc:Work
         rdf:about="">
        <dc:format>image/svg+xml</dc:format>
        <dc:type
           rdf:resource="http://purl.org/dc/dcmitype/StillImage" />
        <dc:title></dc:title>
      </cc:Work>
    </rdf:RDF>
  </metadata>
  <sodipodi:namedview
     pagecolor="#ffffff"
     bordercolor="#666666"
     inkscape:document-rotation="0"
     borderopacity="1"
     objecttolerance="10"
     gridtolerance="10"
     guidetolerance="10"
     inkscape:pageopacity="0"
     inkscape:pageshadow="2"
     inkscape:window-width="640"
     inkscape:window-height="480"
     id="namedview8181"
     showgrid="false" />
  <defs
     id="defs8173" />
  <g
     id="g8748">
    <polyline
       id="polyline8175"
       style="fill:none;stroke:#ff0000"
       points="121.9771379669456,9.837064448277705 90.71457668687603,27.757255932292296 95.64849164746117,36.364687330103976 126.91105292753075,18.44449584608938 132.54981288130662,28.281560294367086 101.28725160123706,46.20175177838168 106.2211665618222,54.80918317454337 137.48372784189178,36.88899169217876 143.12248779401767,46.72605614045647 111.85992651394811,64.64624762282108 116.97005272406842,73.56108728366176 121.09535307780487,80.75785497536424 119.84932371505126,82.85862716231186 118.6057505567633,84.95525825524899 106.44850240681197,84.95525825524899 106.44850240681197,121.93165674506034 95.10992000945194,121.93165674506034 95.10992000945194,84.95525825524899 85.18866040681196,84.95525825524899 85.18866040681196,121.93165674506034 73.85007800945193,121.93165674506034 73.85007800945193,84.95525825524899 63.92881840846194,84.95525825524899 63.92881840846194,121.93165674506034 52.590236011101915,121.93165674506034 52.590236011101915,84.95525825524899 29.802812151949226,84.95525825524899 28.559207470776204,82.85860228389987 27.313046352097853,80.75763628029597 31.26214814465224,73.86826606404738 0.0,55.94828188198294 5.638766941444997,46.111221441508846 36.900915086097235,64.03120562192329 41.83483616481155,55.42377773032102 10.572688020159312,37.503793549906575 16.211454961604307,27.666733109432474 47.47360310625655,45.5867172914969 52.40752418497086,36.97928939989464 21.145376040318624,19.059305217830207 26.78414298176362,9.222244775706127 58.04629112641586,27.142228957770556 63.15642367081284,18.227392928537835 68.85096201426853,8.293036985308044 74.20417994158028,8.293051216393298 79.55739677990462,8.293065449128532 85.07581673475012,17.92019148401459 116.3383780148197,0.0 121.9771379669456,9.837064448277705" />
    <polyline
       id="polyline8177"
       style="fill:none;stroke:#ff0000"
       points="101.48653369549191,72.19935305656897 46.921754441549204,72.19935305656897 74.20416653383549,24.604065028851576 101.48653369549191,72.19935305656897" />
  </g>
</svg>
