<?xml version="1.0" encoding="utf-8" ?>
<svg baseProfile="full" height="48mm" version="1.1" width="52mm" xmlns="http://www.w3.org/2000/svg" xmlns:ev="http://www.w3.org/2001/xml-events" xmlns:xlink="http://www.w3.org/1999/xlink"><defs /><polyline points="133.61448862752144,156.2186748552488 30.07396496869143,156.2186748552488 9.436887356670923,128.1541725500415 40.30083146005607,29.320638175666026 128.9365229652659,11.294068082924056 177.2426590843167,76.98600804562363 133.61448862752144,156.2186748552488" style="fill:none;stroke:#000000" /><polyline points="108.37397946806888,32.23637306845812 118.61704115825731,30.15315730856799 120.11700276945663,29.848097770248906 125.81044873315828,37.59066507888571 155.3625214586,15.859742706711799 161.8697704798861,24.709007962076555 132.3176977511444,46.43993033425046 138.40512425641847,54.71827525274166 167.9571969835102,32.987352880567755 174.4644460047963,41.83661813593251 144.91237327605458,63.56754050810642 151.10475541115665,71.9886155112285 156.90310953308585,79.8738483506435 156.25027812855825,81.05944868260562 185.0669002941655,96.92684977235992 179.76870328330244,106.54885028348176 150.9520811176952,90.6814491904275 145.99570326765237,99.6826754772608 174.81232543325962,115.55007656866508 169.51412842404656,125.17207707978692 140.69750625843932,109.30467598508268 135.74112840674653,118.30590227356596 164.55775057400376,134.17330336497025 159.2595535647907,143.79530387609208 130.44293139918344,127.92790278138784 125.40109875811058,137.08432262511826 123.96320253140946,139.6956710179151 115.7090953653792,139.6956710179151 115.7090953653792,172.81938129818732 104.72484366669919,172.81938129818732 104.72484366669919,139.6956710179151 94.44925336702919,139.6956710179151 94.44925336702919,172.81938129818732 83.46500166834916,172.81938129818732 83.46500166834916,139.6956710179151 73.18941136702918,139.6956710179151 73.18941136702918,172.81938129818732 62.20515966834917,172.81938129818732 62.20515966834917,139.6956710179151 36.02284575429325,139.6956710179151 31.50241289017019,133.5483036006488 26.98207291667178,127.40106250427014 31.61803664969826,112.55562734929649 0.0,102.6818803260257 3.2742461789906825,92.19698178851881 34.89228282868895,102.07072881178959 37.955287320575366,92.26227533919607 6.337250670877106,82.38852831592529 9.611496851517769,71.90362978171835 41.22953350121603,81.77737680333915 44.29253799145248,71.9689233323956 12.674501341754212,62.09517630912483 15.948747522394875,51.61027777161793 47.566784172093136,61.484024794888704 50.682599086168125,51.506460056066835 53.19586404763074,43.458400542869725 55.94339251833481,42.89961306498976 49.38721600790927,10.663239994881653 60.15111134020138,8.474098010499644 66.7072878522769,40.71047107895777 76.7767383262308,38.662564058914946 70.22056181580525,6.426190990456822 80.98445714974736,4.2370490060748125 87.5406336601729,36.473422074532934 97.61008413577677,34.42551505449011 91.05390762535123,2.1891419860319914 101.81780295764334,0.0 108.37397946806888,32.23637306845812" style="fill:none;stroke:#ff0000" /><polyline points="142.00661077090157,80.84891102420114 116.52988316830452,127.11693116857509 42.3866512524076,127.11693116857509 40.885933060616864,125.07609428368464 62.98699555050257,54.30334690182219 114.74582461691197,43.776727836644234 142.00661077090157,80.84891102420114" style="fill:none;stroke:#ff0000" /></svg>