<?xml version="1.0" encoding="utf-8" ?>
<svg baseProfile="full" height="38mm" version="1.1" width="51mm" xmlns="http://www.w3.org/2000/svg" xmlns:ev="http://www.w3.org/2001/xml-events" xmlns:xlink="http://www.w3.org/1999/xlink"><defs /><polyline points="156.07613193294068,117.32224170218139 -17.69435257252756,117.32224170218139 171.7210829853348,-0.799094844427887 156.07613193294068,117.32224170218139" style="fill:none;stroke:#000000" /><polyline points="163.4949216957242,15.807805380165822 163.41916368898904,16.379787811394014 163.89055021511876,16.44222207882184 164.50299452073884,17.424317338916538 165.69467311503578,16.68117479747851 183.77997066204506,19.076538778275378 182.33772230877648,29.965694166090696 161.9769153340705,27.26894320085931 160.62771526442566,37.455572435739754 180.98852223583168,40.15232340262112 179.5462738842131,51.041478790436436 159.18546690950708,48.344727826855035 157.83626683821228,58.53135706173548 178.1970738112683,61.228108026966865 176.75482545964968,72.11726341643217 156.39401848494367,69.42051245120078 155.04481841364887,79.60714168608122 175.40562538670488,82.30389265296259 173.9633770334363,93.1930480407779 153.6025700603803,90.49629707554652 152.25336998908546,100.68292631042696 172.61417696214147,103.37967727730833 171.19519067977885,114.09320112812742 168.39339472670392,135.24711087955527 140.75945499258793,135.24711087955527 140.75945499258793,106.83054424099319 130.48386469126797,106.83054424099319 130.48386469126797,135.24711087955527 119.49961299258794,135.24711087955527 119.49961299258794,106.83054424099319 109.22402269126796,106.83054424099319 109.22402269126796,135.24711087955527 98.23977099258794,135.24711087955527 98.23977099258794,106.83054424099319 87.96418069126796,106.83054424099319 87.96418069126796,135.24711087955527 76.97992899258794,135.24711087955527 76.97992899258794,106.83054424099319 66.70433869126796,106.83054424099319 66.70433869126796,135.24711087955527 55.720086992587945,135.24711087955527 55.720086992587945,106.83054424099319 45.44449669126796,106.83054424099319 45.44449669126796,135.24711087955527 34.460244992587945,135.24711087955527 34.460244992587945,106.83054424099319 24.18465469126796,106.83054424099319 24.18465469126796,135.24711087955527 13.200402992587943,135.24711087955527 13.200402992587943,106.83054424099319 6.872793363051032,106.83054424099319 0.0,95.809562033725 9.320445325984505,89.99724026744266 20.18642172603207,107.42155760800918 28.905548000004654,101.98422433921121 18.03957159995709,84.55990700029467 27.360016924291614,78.74758523401232 38.22599332433918,96.17190257292886 46.94511959831176,90.73456930578088 36.0791431982642,73.31025196686434 45.3995885242487,67.49793020058199 56.26556492429627,84.92224753949853 64.98469119826885,79.48491427235055 54.11871479822129,62.06059693343401 63.43916012420579,56.24827516715166 74.30513652425336,73.6725925060682 83.02426279822595,68.23525923892022 72.15828639817838,50.81094190000368 81.47873172416288,44.99862013372133 92.34470812256046,62.42293747263787 101.06383439653305,56.985604205489885 90.19785799648548,39.56128686657335 99.51830332246999,33.748965100290995 110.38427972251756,51.17328243920753 119.10340599649014,45.73594917205955 108.23742959644258,28.311631833143014 117.55787492242708,22.499310066860666 128.42385132247463,39.923627405777204 137.14297759644722,34.48629413862922 126.27700119639967,17.06197679971268 135.59744652238416,11.249655033430333 146.46342292243173,28.67397237234687 155.18254919475433,23.236639105198886 144.3165727947068,5.812321766282349 153.63701812069127,0.0 163.4949216957242,15.807805380165822" style="fill:none;stroke:#ff0000" /><polyline points="157.3708338886608,122.66837103021527 19.508715554317938,122.66837103021527 169.78287325061402,28.955921971298864 157.3708338886608,122.66837103021527" style="fill:none;stroke:#ff0000" /></svg>