<?xml version="1.0" encoding="utf-8" ?>
<svg baseProfile="full" height="44mm" version="1.1" width="60mm" xmlns="http://www.w3.org/2000/svg" xmlns:ev="http://www.w3.org/2001/xml-events" xmlns:xlink="http://www.w3.org/1999/xlink"><defs /><polyline points="220.87070978253118,146.58583898565752 -2.357669357701802,146.58583898565752 109.62496537079936,24.47547097034698 220.87070978253118,146.58583898565752" style="fill:none;stroke:#000000" /><polyline points="127.33023076135595,18.39373424973253 107.56404971424503,36.401243033115776 114.48420454811456,43.997242842095645 134.25038559522548,25.989734058712397 141.64779248387228,34.10959592433742 121.88161143676135,52.11710470772067 128.80176627228087,59.71310451670054 148.5679473177418,41.70559573331729 155.96535420638858,49.825457598942315 136.19917316092764,67.83296638232557 143.1193279947972,75.42896619130543 162.88550904025814,57.42145740792218 170.2829159289049,65.5413192735472 150.51673488344397,83.54882805693046 157.4368897173135,91.14482786591033 177.20307076277444,73.13731908252707 184.60047765142124,81.2571809481521 164.8342966059603,99.26468973153536 171.75445143982984,106.86068954051522 191.52063248694077,88.85318075713197 198.91803937558754,96.97304262275699 179.1518583284766,114.98055140614025 186.07201316234617,122.57655121347013 205.83819420945707,104.56904243173686 213.23560109810387,112.68890429736189 193.46942005264293,130.69641307909515 196.41552096411715,133.93023985090232 194.47305356279944,133.93023985090232 194.47305356279944,157.4955132251567 183.4888018641194,157.4955132251567 183.4888018641194,133.93023985090232 173.21321156279942,133.93023985090232 173.21321156279942,157.4955132251567 162.22895986411942,157.4955132251567 162.22895986411942,133.93023985090232 151.95336956279942,133.93023985090232 151.95336956279942,157.4955132251567 140.9691178641194,157.4955132251567 140.9691178641194,133.93023985090232 130.69352756279943,133.93023985090232 130.69352756279943,157.4955132251567 119.7092758641194,157.4955132251567 119.7092758641194,133.93023985090232 109.43368556279943,133.93023985090232 109.43368556279943,157.4955132251567 98.44943386411941,157.4955132251567 98.44943386411941,133.93023985090232 88.17384356279942,133.93023985090232 88.17384356279942,157.4955132251567 77.18959186411941,157.4955132251567 77.18959186411941,133.93023985090232 66.91400156279943,133.93023985090232 66.91400156279943,157.4955132251567 55.92974986411941,157.4955132251567 55.92974986411941,133.93023985090232 45.65415956279942,133.93023985090232 45.65415956279942,157.4955132251567 34.66990786411941,157.4955132251567 34.66990786411941,133.93023985090232 24.394317562799422,133.93023985090232 24.394317562799422,157.4955132251567 13.410065864119407,157.4955132251567 13.410065864119407,140.91496948066978 17.416945833102996,136.54570643597478 0.0,120.57330773757845 7.424063151759751,112.47781073729283 24.841008984862746,128.45020943403918 31.786100323254093,120.87700256184618 14.369154490151097,104.90460386344986 21.793217641910847,96.80910686151427 39.21016347336386,112.78150556156056 46.155254811755206,105.2082986877176 28.738308978652213,89.23589998767129 36.16237213041197,81.14040298573569 53.57931796351496,97.112801685782 60.52440930025632,89.53959481193903 43.10746346880331,73.5671961135427 50.53152661891308,65.47169911160711 67.94847245201608,81.44409781000343 74.89356379040743,73.87089093616046 57.47661795730443,57.89849223776414 64.90068110906418,49.80299523582853 82.31762694051719,65.77539393587485 89.26271827890854,58.202187062031875 71.84577244580554,42.22978836198557 79.1500926442232,34.26486389207312 110.57305696588213,0.0 127.33023076135595,18.39373424973253" style="fill:none;stroke:#ff0000" /><polyline points="204.11139422910895,121.35150000156231 16.353621774105928,121.35150000156231 110.54240785624246,18.644260087862634 204.11139422910895,121.35150000156231" style="fill:none;stroke:#ff0000" /></svg>