<?xml version="1.0" encoding="utf-8" ?>
<svg baseProfile="full" height="113mm" version="1.1" width="58mm" xmlns="http://www.w3.org/2000/svg" xmlns:ev="http://www.w3.org/2001/xml-events" xmlns:xlink="http://www.w3.org/1999/xlink"><defs /><polyline points="199.14173343932902,340.75924973260805 -24.086605623495387,340.759249732608 139.00861184179482,54.99133595566148 199.14173343932902,340.75924973260805" style="fill:none;stroke:#000000" /><polyline points="181.50870945831866,148.7168804346131 144.36320005867486,156.5332773298595 146.4791175753921,166.58865644166093 183.6246269766859,158.77225954806454 185.886469840294,169.5211130786385 148.74096044065018,177.3375099738849 150.85687795736746,187.39288908568633 188.00238735866125,179.57649219208994 190.26423022226933,190.3253457226639 153.11872082262553,198.1417426179103 155.23463833934278,208.19712172971174 192.3801477389866,200.38072483611535 194.64199060424468,211.12957836668932 157.49648120460088,218.9459752619357 159.61239872131813,229.00135437373714 196.75790812096196,221.18495748014075 199.01975098622003,231.93381101071472 161.8742415865762,239.7502079059611 163.99015910329348,249.80558701776255 201.13566850293728,241.98919012416616 203.39751136819535,252.73804365474012 166.25200196690156,260.5544405499865 168.3679194852688,270.6098196617879 205.51342888491263,262.79342276819153 207.7752717501707,273.54227629876556 170.6297623488769,281.3586731940119 170.9939683564851,283.08947292935676 162.11417625836526,283.08947292935676 162.11417625836526,403.2401702755471 151.12992455968526,403.2401702755471 151.12992455968526,283.08947292935676 140.85433425836527,283.08947292935676 140.85433425836527,403.2401702755471 129.87008255968524,403.2401702755471 129.87008255968524,283.08947292935676 119.59449225836526,283.08947292935676 119.59449225836526,403.2401702755471 108.61024055968525,403.2401702755471 108.61024055968525,283.08947292935676 98.33465025836527,283.08947292935676 98.33465025836527,403.2401702755471 87.35039855968526,403.2401702755471 87.35039855968526,283.08947292935676 77.07480825836527,283.08947292935676 77.07480825836527,403.2401702755471 66.09055655968525,403.2401702755471 66.09055655968525,283.08947292935676 55.81496625836527,283.08947292935676 55.81496625836527,403.2401702755471 44.830714559685255,403.2401702755471 44.830714559685255,283.08947292935676 34.55512425836527,283.08947292935676 34.55512425836527,403.2401702755471 23.570872559685256,403.2401702755471 23.570872559685256,283.08947292935676 20.32917384780784,283.08947292935676 23.89704373890479,276.8380159489864 0.0,263.1993484949802 5.444662577999995,253.65946197606323 29.341706316904787,267.2981294317195 34.43510034462572,258.37371946091974 10.538056605720922,244.73505200526353 15.982719183720917,235.1951654863466 39.87976292262571,248.8338329420028 44.973156948696655,239.9094229712031 21.076113209791863,226.2707555155469 26.52077578944184,216.73086899662997 50.417819528346634,230.36953645228618 55.51121355441758,221.44512648148648 31.614169815512785,207.80645902583026 37.05883239351278,198.26657250691332 60.95587613241757,211.90523996256954 66.04927015848853,202.98082999176984 42.152226421233706,189.34216253611362 47.5968889992337,179.8022760171967 71.4939327381385,193.4409434728529 76.58732676420944,184.5165335020532 52.690283025304645,170.877866046397 58.13494560495462,161.33797952748006 82.03198934220944,174.97664698313628 87.12538336993036,166.05223701233658 63.22833963102557,152.41356955833035 68.67300220902557,142.8736830394134 92.57004594793035,156.51235049341963 97.6634399740013,147.58794052261993 73.76639623509651,133.9492730686137 79.21105881474648,124.40938654969676 103.10810255365128,138.048054003703 108.20149657972223,129.1236440329033 84.30445284081743,115.48497657889706 89.74911541881742,105.94509005998013 113.64615915772222,119.58375751398636 118.73955318544314,110.65934754483665 94.84250944653836,97.02068008918043 100.28717202453835,87.4807935702635 124.18421576344315,101.1194610259197 129.2776097895141,92.19505105512 105.38056605060929,78.5563835994638 110.82522863025928,69.01649708054686 134.72227236751408,82.65516453620307 139.815666395235,73.73075456540337 115.91862265633021,60.09208710974716 121.27546809634795,50.706069727859536 150.21474739011126,0.0 181.50870945831866,148.7168804346131" style="fill:none;stroke:#ff0000" /><polyline points="219.56602487731269,390.66143042620706 -58.262745792871904,390.66143042620706 144.72467041610238,34.996246895895794 219.56602487731269,390.66143042620706" style="fill:none;stroke:#ff0000" /></svg>