<?xml version="1.0" encoding="utf-8" ?>
<svg baseProfile="full" height="45mm" version="1.1" width="47mm" xmlns="http://www.w3.org/2000/svg" xmlns:ev="http://www.w3.org/2001/xml-events" xmlns:xlink="http://www.w3.org/1999/xlink"><defs /><polyline points="146.06842555213902,143.61315818225088 -13.96202325724955,143.6131581822509 153.73247371518525,-3.7282798789435776 146.06842555213902,143.61315818225088" style="fill:none;stroke:#000000" /><polyline points="149.57268377907997,15.426154586507707 154.76704872450802,10.862229026129151 168.53892630070328,11.578581020758753 167.96834560579785,22.548003205913076 144.98927075959855,21.352733641037126 144.45550172264186,31.614451170255673 167.43457657049112,32.80972073348164 166.86399587723568,43.77914291863597 143.88492102938642,42.58387335376002 143.35115199242972,52.84559088297856 166.33022684027898,54.04086044785451 165.75964614702352,65.01028263135886 142.78057129917426,63.815013066482905 142.24680226221756,74.07673059735144 165.22587711006682,75.2720001605774 164.65529641681135,86.24142234573173 141.67622157061209,85.04615278085578 141.14245253200542,95.30787031007432 164.12152738150465,96.50313987495028 163.55094668659922,107.47256205845463 140.57187184039995,106.27729249357867 140.03810280179326,116.5390100244472 163.01717765129249,117.73427958767317 162.45579987004925,128.52677560801857 160.8052735616667,160.25816805909997 140.2854827978913,160.25816805909997 140.2854827978913,134.75608375299555 130.00989249657133,134.75608375299555 130.00989249657133,160.25816805909997 119.0256407978913,160.25816805909997 119.0256407978913,134.75608375299555 108.75005049657132,134.75608375299555 108.75005049657132,160.25816805909997 97.7657987978913,160.25816805909997 97.7657987978913,134.75608375299555 87.49020849657131,134.75608375299555 87.49020849657131,160.25816805909997 76.5059567978913,160.25816805909997 76.5059567978913,134.75608375299555 66.23036649657132,134.75608375299555 66.23036649657132,160.25816805909997 55.2461147978913,160.25816805909997 55.2461147978913,134.75608375299555 44.970524496571315,134.75608375299555 44.970524496571315,160.25816805909997 33.9862727978913,160.25816805909997 33.9862727978913,134.75608375299555 23.710682496571316,134.75608375299555 23.710682496571316,160.25816805909997 12.726430797891302,160.25816805909997 12.726430797891302,135.66339594871866 13.553884246451581,134.93637041575158 0.0,119.51021582924389 8.251629716410537,112.26008531824769 21.80551396286212,127.6862399047554 29.524780472241325,120.90385975138312 15.970896227439725,105.47770516322544 24.222525943850265,98.22757465387923 37.776410188651866,113.65372924038694 45.49567669968105,106.87134908536468 31.94179245487945,91.44519449885698 40.19342217128999,84.19506398786078 53.74730641609159,99.62121857601846 61.46657292712078,92.83883842099621 47.91268868231918,77.4126838344885 56.16431839872971,70.1625533234923 69.71820264353131,85.58870791000002 77.4374691545605,78.80632775497777 63.88358490810892,63.38017316847006 72.13521462451946,56.130042657473865 85.68909887097104,71.55619724563155 93.40836538200023,64.7738170906093 79.85448113554865,49.34766250410159 88.10611085195919,42.0975319931054 101.65999509841076,57.523686579613106 109.37926160943995,50.74130642624083 95.82537736298838,35.315151838083146 104.07700707939891,28.065021328736933 117.6308913258505,43.49117591524464 125.35015783687967,36.70879576022239 111.7962735904281,21.28264117536466 120.04790330683863,14.032510664368466 133.60178755164023,29.458665249226193 141.32105406266942,22.676285097503904 127.76716981786782,7.2501305093462145 136.01879953427837,0.0 149.57268377907997,15.426154586507707" style="fill:none;stroke:#ff0000" /><polyline points="148.86381882852638,147.67942820975998 18.10787815600419,147.67942820975998 155.12587604518276,27.291286597050313 148.86381882852638,147.67942820975998" style="fill:none;stroke:#ff0000" /></svg>