<?xml version="1.0" encoding="utf-8" ?>
<svg baseProfile="full" height="36mm" version="1.1" width="52mm" xmlns="http://www.w3.org/2000/svg" xmlns:ev="http://www.w3.org/2001/xml-events" xmlns:xlink="http://www.w3.org/1999/xlink"><defs /><polyline points="141.41194861907576,108.26710539252922 -2.980536257887731,108.26710539252922 -11.615932336998387,70.09025906931728 118.72033289075881,7.948102239803733 164.92490274356885,18.05698253825138 178.76807176350073,79.25724845061892 141.41194861907576,108.26710539252922" style="fill:none;stroke:#000000" /><polyline points="147.43570301210204,2.347661704773702 142.16340893587292,26.445689646678826 152.37463087535517,28.679754819506197 153.30396762661033,28.883080030255783 153.7321212113275,30.775935140961693 179.48175277209367,24.951507803069855 181.90511006647512,35.66510312776152 156.1554785057089,41.48953046565336 158.42249017043025,51.51192609628906 184.17212173119643,45.68749875674724 186.59547902722784,56.401094083088886 160.84584746481167,62.225521420980726 163.151945538598,72.42071697389294 163.61917549554636,74.48632764383892 163.00771574177858,74.96117242103408 178.13784911308477,94.44431315261971 169.46235418326262,101.1814915743712 154.33222081030644,81.69835084278556 146.07650789276522,88.10953676174904 145.36612675166384,88.66120148328581 105.01060816998782,88.66120148328581 105.01060816998782,128.67213973040643 94.0263564713078,128.67213973040643 94.0263564713078,88.66120148328581 83.75076616998783,88.66120148328581 83.75076616998783,128.67213973040643 72.7665144713078,128.67213973040643 72.7665144713078,88.66120148328581 62.49092416998782,88.66120148328581 62.49092416998782,128.67213973040643 51.50667247130781,128.67213973040643 51.50667247130781,88.66120148328581 41.23108216998782,88.66120148328581 41.23108216998782,128.67213973040643 30.246830471307806,128.67213973040643 30.246830471307806,88.66120148328581 13.279711373772082,88.66120148328581 12.389460033343488,84.72542502557027 11.499208692914891,80.78964856620478 17.219484260122833,78.06231660914516 0.0,41.94636276932046 9.914964367816944,37.21907317268058 27.134448627939776,73.33502701250528 36.40973787892494,68.91272383858092 19.190253618802107,32.79677000040619 29.105217988269033,28.069480402116334 46.324702246741886,64.18543424194104 55.599991499377026,59.76313106801667 38.3805072392542,23.647177229841947 48.29547160872112,18.919887631552086 65.51495586719398,55.035841471376784 74.79024511982912,50.613538297452415 57.5707608580563,14.497584459277698 67.48572522752323,9.770294860987839 84.70520948764606,45.88624870081254 94.14041751907666,41.38769892120929 130.72736688905744,23.943651849894596 131.43297232379493,24.098027941905126 136.70526640002404,0.0 147.43570301210204,2.347661704773702" style="fill:none;stroke:#ff0000" /><polyline points="142.800184280574,39.46128096659466 149.58536954502281,69.45839664128331 141.05553128580183,76.0824616339458 50.599761227543084,76.0824616339458 132.24990534069528,37.153035109372205 142.800184280574,39.46128096659466" style="fill:none;stroke:#ff0000" /></svg>