<?xml version="1.0" encoding="utf-8" ?>
<svg baseProfile="full" height="58mm" version="1.1" width="112mm" xmlns="http://www.w3.org/2000/svg" xmlns:ev="http://www.w3.org/2001/xml-events" xmlns:xlink="http://www.w3.org/1999/xlink"><defs /><polyline points="345.5433567091312,184.67421868984601 53.51746969811428,184.67421868984607 99.484178984206,-33.770149080124824 345.5433567091312,184.67421868984601" style="fill:none;stroke:#000000" /><polyline points="146.1047230050321,24.741264290060204 146.772223030148,21.56915074732799 152.1546855984083,26.347548543562258 170.42189346032734,5.771077786094526 178.63618086018232,13.06348945032168 160.36897299826327,33.639960209439394 168.05330637604692,40.46189370327123 186.320514236316,19.885422944153515 194.53480163617098,27.17783461003065 176.26759377425194,47.75430536749838 183.95192715203558,54.5762388629802 202.21913501395466,33.999768103862486 210.43342241380964,41.29217976808964 192.1662145518906,61.86865052720735 199.85054792802424,68.69058402103919 218.11775578994332,48.114113263571454 226.3320431897983,55.406524927798614 208.06483532787925,75.98299568526635 215.7491687056629,82.80492918074816 234.01637656758194,62.22845842163045 242.23066396578696,69.5208700858576 223.9634561038679,90.0973408449753 231.64778948165156,96.91927433880716 249.9149973435706,76.34280358133942 258.1292847434256,83.63521524556657 239.86207688150654,104.21168600468428 247.54641025764022,111.03361949851612 265.8136181195593,90.4571487393984 274.0279055194143,97.74956040527555 255.7606976574952,118.32603116274328 263.4450310352789,125.14796465657511 281.71223889719795,104.57149389910738 289.92652629540294,111.86390556333453 271.65931843348386,132.44037632245224 279.34365181126753,139.26230981628407 297.6108596731866,118.68583905716636 305.8251470730416,125.9782507230435 287.5579392111225,146.55472148051123 295.2422725872562,153.37665497599306 313.50948044917527,132.80018421687535 321.72376784903025,140.09259588110248 303.4565599871112,160.6690666402202 311.14089336489485,167.49100013405203 329.40810122681387,146.9145293765843 337.6223886250189,154.20694104081147 319.35518076474983,174.78341179992918 327.0395141408835,181.60534529376102 345.30672200280253,161.0288745346433 353.38852089631473,168.20366665709662 397.0487077820488,206.96394379428318 245.07486773617651,206.96394379428318 245.07486773617651,169.00474316946028 234.79927743485652,169.00474316946028 234.79927743485652,206.96394379428318 223.81502573617652,206.96394379428318 223.81502573617652,169.00474316946028 213.53943543485653,169.00474316946028 213.53943543485653,206.96394379428318 202.5551837361765,206.96394379428318 202.5551837361765,169.00474316946028 192.27959343485654,169.00474316946028 192.27959343485654,206.96394379428318 181.2953417361765,206.96394379428318 181.2953417361765,169.00474316946028 171.01975143485652,169.00474316946028 171.01975143485652,206.96394379428318 160.03549973617652,206.96394379428318 160.03549973617652,169.00474316946028 149.75990943485652,169.00474316946028 149.75990943485652,206.96394379428318 138.77565773617653,206.96394379428318 138.77565773617653,169.00474316946028 128.50006743485653,169.00474316946028 128.50006743485653,206.96394379428318 117.51581573617652,206.96394379428318 117.51581573617652,169.00474316946028 115.74771512354641,169.00474316946028 117.57617458503049,160.3154835396356 0.0,135.5742192479254 2.261854220426624,124.82536810652377 119.8380288071071,149.56663239823396 121.95395695135133,139.51125552215663 4.377782366320837,114.76999123044645 6.639636586747461,104.0211400890448 124.21581117342792,128.762404380755 126.33173931767216,118.70702750467767 8.755564730991694,93.96576321131751 11.017418953068297,83.21691207156584 128.59359353974875,107.95817636162604 130.709521683993,97.9027994871987 13.13334709731253,73.16153519383853 15.395201319389134,62.412684054086874 132.9713759060696,87.15394834414708 135.08730405031383,77.09857146971974 17.511129463633367,52.35730717635957 19.77298368570997,41.60845603495793 137.34915827239044,66.34972032666812 139.46508641663468,56.294343450590794 21.888911829954203,31.553079158880607 24.150766052030807,20.804228017478966 141.72694063871128,45.54549230918915 143.84286878295552,35.49011543311183 26.26669419627504,10.748851141401643 28.528548418351644,0.0 146.1047230050321,24.741264290060204" style="fill:none;stroke:#ff0000" /><polyline points="363.93299244462287,194.38520394494316 0.47876469951606404,194.38520394494316 57.68874357052589,-77.48976510610484 363.93299244462287,194.38520394494316" style="fill:none;stroke:#ff0000" /></svg>