<?xml version="1.0" encoding="utf-8" ?>
<svg baseProfile="full" height="68mm" version="1.1" width="56mm" xmlns="http://www.w3.org/2000/svg" xmlns:ev="http://www.w3.org/2001/xml-events" xmlns:xlink="http://www.w3.org/1999/xlink"><defs /><circle cx="130.60339357007894" cy="199.7956351624259" r="15" style="fill:none;stroke:#ff00dd" /><circle cx="65.39524600987525" cy="199.79563516242598" r="15" style="fill:none;stroke:#ff00dd" /><circle cx="32.024409567222015" cy="127.68283367664674" r="15" style="fill:none;stroke:#ff00dd" /><circle cx="83.35955725401197" cy="48.359247164819195" r="15" style="fill:none;stroke:#ff00dd" /><circle cx="112.63925993891793" cy="48.35926901318845" r="15" style="fill:none;stroke:#ff00dd" /><circle cx="163.97428738507608" cy="127.68271090097045" r="15" style="fill:none;stroke:#ff00dd" /><polyline points="140.88954871236547,217.09745220427484 55.10913516714502,217.09745220427484 12.901926798336547,125.88966831790826 76.25417756404397,27.9971332658322 119.74451934798162,27.99716571811003 183.0967404591949,125.8897057590783 140.88954871236547,217.09745220427484" style="fill:none;stroke:#000000" /><polyline points="163.2502298215358,129.24736507325568 199.53637474935678,146.03909972752686 194.09033834867628,157.80772698290193 157.80419342085528,141.01599232863074 152.36795107105021,152.7634551029791 188.65409599887118,169.5551897572503 183.20805959819063,181.32381701262534 146.92191467036966,164.53208235835416 141.48567232056456,176.27954513270248 177.7718172483855,193.07127978697366 172.32578084770503,204.83990704234873 136.039635919884,188.04817238807755 130.60339357007894,199.7956351624259 130.60339357007894,199.7956351624259 130.60339357007894,241.37866078030092 119.725595144482,241.37866078030098 119.725595144482,199.79563516242592 108.86735914986315,199.79563516242598 108.86735914986315,241.37866078030103 97.98956072426617,241.3786607803011 97.98956072426617,199.79563516242604 87.13132472964733,199.7956351624261 87.13132472964733,241.37866078030112 76.25352630405035,241.37866078030117 76.25352630405035,199.79563516242615 65.39529030943156,199.79563516242618 65.39524600987525,199.79563516242598 29.109185113323957,216.58733065030356 23.66314853949452,204.81870282439493 59.94920943604582,188.02700733651736 54.5129669134032,176.27954399266144 18.226906016851903,193.07123948053905 12.780869443022443,181.30261165463034 49.066930339573716,164.51091616675276 43.630687816931115,152.76345282289694 7.344626920379822,169.55514831077446 1.8985903465503626,157.7865204848658 38.18465124310168,140.99482499698823 32.74840872045904,129.24736165313234 34.38788893090613,124.03076159305245 0.0,101.77625401803526 6.128804290636709,92.30596398734188 40.51669322154284,114.56047156235907 46.630806011682594,105.11288298599412 12.242917080776461,82.85837541097696 18.371721371413145,73.38808538028358 52.7596103023193,95.64259295530074 58.87372309245905,86.19500437893582 24.485834161552923,63.940496803918656 30.614638452189606,54.47020677322528 65.00252738309577,76.72471434824244 71.11664017323551,67.27712577187752 36.72875124232938,45.02261819686036 42.85755553296607,35.55232816616698 77.24544446387222,57.806835741184116 83.35955725401197,48.359247164819195 83.35955725401197,48.359247164819195 83.35959333944288,0.0 98.00376128014145,1.0927405661035464e-05 98.00372519471054,48.359258092224856 112.63910926980432,48.35926901307604 112.63925993891793,48.35926901318845 147.02694382068023,26.104905689198812 153.15573683384005,35.57518320938761 118.76805295207775,57.829546533377275 124.88215449177414,67.27712262922681 159.2698383735364,45.022759305237194 165.39863138669628,54.49303682542597 131.01094750493397,76.74740014941561 137.12504904463032,86.19497624526517 171.51273292639263,63.94061292127555 177.64152593955248,73.41089044146433 143.2538420577902,95.66525376545394 149.36794359748654,105.11282986130352 183.75562747924883,82.85846653731389 189.8844204924087,92.3287440575027 155.49673661064634,114.58310738149233 161.61083815034274,124.03068347734188 163.2502298215358,129.24736507325568" style="fill:none;stroke:#ff0000" /><polyline points="130.60339357007894,199.7956351624259 65.39524600987525,199.79563516242598 32.024409567222015,127.68283367664674 83.35955725401197,48.359247164819195 112.63925993891793,48.35926901318845 163.97428738507608,127.68271090097045 130.60339357007894,199.7956351624259" style="fill:none;stroke:#00ff00" /><polyline points="189.88932263697131,141.57484099766373 157.24248638551444,212.12311108683392" style="fill:none;stroke:#0000ff" /><polyline points="130.60339357007894,230.74873978030092 65.39529030943156,230.74873978030124" style="fill:none;stroke:#0000ff" /><polyline points="38.756237254100164,212.12307198179136 6.109399964683949,141.5747984724977" style="fill:none;stroke:#0000ff" /><polyline points="8.924147707237994,107.55161618552224 57.89581603034384,31.88010175728904" style="fill:none;stroke:#0000ff" /><polyline points="83.35958540744844,10.62992099999703 112.63913742324078,10.629942848253872" style="fill:none;stroke:#0000ff" /><polyline points="138.10279474610405,31.880265743860505 187.07437295752888,107.55168020801396" style="fill:none;stroke:#0000ff" /></svg>