<?xml version="1.0" encoding="utf-8" ?>
<svg baseProfile="full" height="58mm" version="1.1" width="74mm" xmlns="http://www.w3.org/2000/svg" xmlns:ev="http://www.w3.org/2001/xml-events" xmlns:xlink="http://www.w3.org/1999/xlink"><defs /><circle cx="153.03905263869953" cy="167.18663929987468" r="15" style="fill:none;stroke:#ff00dd" /><circle cx="61.55940650871283" cy="167.18663929987474" r="15" style="fill:none;stroke:#ff00dd" /><circle cx="36.58389779820376" cy="103.55219332556749" r="15" style="fill:none;stroke:#ff00dd" /><circle cx="103.64163276702516" cy="41.32889042464674" r="15" style="fill:none;stroke:#ff00dd" /><circle cx="224.42290720132596" cy="66.54696839832508" r="15" style="fill:none;stroke:#ff00dd" /><polyline points="165.21523260304087,184.2148034914575 48.61139005874072,184.2148034914575 15.510196739038586,99.87713804477254 100.9850710277244,20.564453299964555 258.03429425555095,53.35496305087182 165.21523260304087,184.2148034914575" style="fill:none;stroke:#000000" /><polyline points="224.42290720132596,66.5469683983251 262.83807913550373,93.79490176080797 255.59584253696897,104.00528213790382 217.18067060279114,76.75734877542092 209.95579453945058,86.94325361026245 248.37096647362836,114.1911869727453 241.12872987509363,124.40156734984114 202.71355794091573,97.15363398735823 195.4886818775752,107.33953882219977 233.903853811753,134.58747218468264 226.66161721321816,144.79785256177848 188.24644527904036,117.54991919929557 181.0215692156998,127.73582403413705 219.43674114987766,154.98375739661998 212.19450455134282,165.19413777371582 173.77933261716498,137.9462044112329 166.55445655382442,148.13210924607438 152.26721615306877,167.18663929987474 152.26721615306877,208.14747440526332 140.91513377607762,208.14747440526332 140.91513377607762,167.18663929987474 129.59026374197975,167.18663929987474 129.59026374197975,208.14747440526332 118.23818136498866,208.14747440526332 118.23818136498866,167.18663929987474 106.91331133089079,167.18663929987474 106.91331133089079,208.14747440526332 95.56122895389966,208.14747440526332 95.56122895389966,167.18663929987474 84.23635891980179,167.18663929987474 84.23635891980179,208.14747440526332 72.88427654281065,208.14747440526332 72.88427654281065,167.18663929987474 61.55940650871283,167.18663929987474 61.55940650871283,167.18663929987474 20.816634679530598,183.17752972297794 16.650310687700706,172.56226170010862 57.39308251688295,156.57137127700545 53.23425116486252,145.97519355530622 12.49147933568028,161.96608397840944 8.325155343850366,151.3508159555401 49.06792717303261,135.35992553243685 44.90909582101215,124.76374781073767 4.166323991829914,140.75463823384086 0.0,130.13937021097152 40.74277182918227,114.14847978786837 36.58394047716181,103.55230206616913 36.58389779820376,103.55219332556749 8.7229451366942,73.52658728325726 17.044428201289115,65.80502970971379 44.905380862798694,95.83063575202404 53.20691630518521,88.12758770522497 25.345963643675653,58.10198166291475 33.667446708270596,50.380424089371274 61.528399369780146,80.40603013168153 69.82993481216666,72.70298208488245 41.96898215065713,42.677376042572234 50.29046521525205,34.95581846902875 78.1514178767616,64.98142451133899 86.45295331914816,57.27837646453993 58.59200065763861,27.252770422229712 66.9134837222335,19.53121284868623 94.77443638374305,49.556818890996496 103.07597182612962,41.853770844197435 126.50974090277703,46.103552198824254 136.13576099288565,0.0 148.38959375514906,2.558493537367541 138.76357366504044,48.66204573619179 150.98803247741427,51.214406248699454 160.6140525675229,5.1108540498752015 172.86788532978628,7.669347587242743 163.24186523967765,53.77289978606699 175.46632405205145,56.325260298574655 185.0923441421601,10.221708099750403 197.34617690442352,12.780201637117944 187.7201568143149,58.883753835942194 199.9446156266887,61.436114348449884 209.5706357167974,15.332562149625629 221.82446847906076,17.89105568699317 212.19844838895213,63.99460788581742 224.42290720132596,66.54696839832508 224.42290720132596,66.5469683983251" style="fill:none;stroke:#ff0000" /><polyline points="153.03905263869953,167.18663929987468 61.55940650871283,167.18663929987474 36.58389779820376,103.55219332556749 103.64163276702516,41.32889042464674 224.42290720132596,66.54696839832508 153.03905263869953,167.18663929987468" style="fill:none;stroke:#00ff00" /><polyline points="254.1677639567422,87.6450354885076 196.29931330924063,169.23017633625693" style="fill:none;stroke:#0000ff" /><polyline points="152.26721615306877,197.51755340526333 61.55940650871283,197.51755340526333" style="fill:none;stroke:#0000ff" /><polyline points="30.711705245360935,179.29387178702638 5.736239213809911,115.65953455332075" style="fill:none;stroke:#0000ff" /><polyline points="15.953303542892602,81.31870752001934 82.44537757081847,19.620285038649286" style="fill:none;stroke:#0000ff" /><polyline points="133.96317654332947,10.405532051547752 231.87634284187837,30.848948251048583" style="fill:none;stroke:#0000ff" /></svg>