<?xml version="1.0" encoding="utf-8" ?>
<svg baseProfile="full" height="46mm" version="1.1" width="49mm" xmlns="http://www.w3.org/2000/svg" xmlns:ev="http://www.w3.org/2001/xml-events" xmlns:xlink="http://www.w3.org/1999/xlink"><defs /><polyline points="134.9939919016275,148.70569944190615 31.45339973796223,148.70569944190615 12.664327882854035,51.7442839428825 97.44183821330556,1.0756996444620943 166.49832967911837,78.22390765798167 134.9939919016275,148.70569944190615" style="fill:none;stroke:#000000" /><polyline points="82.19923521758253,30.930803344725277 91.17162732591558,25.568315060782094 95.09240834142628,23.22499992214024 99.47076402661008,28.11639084075623 124.15139307291601,6.024398125923997 131.47735281207287,14.20877954938642 106.79672376246697,36.30077226256867 113.65004094238462,43.957129080673816 138.33066999034054,21.86513636584158 145.65662972949738,30.049517789304 120.9760006798915,52.141510502486256 127.82931785815917,59.79786732059139 152.5099469061151,37.705874605759156 159.8359066469219,45.89025602922158 135.15527759731603,67.98224874240384 142.1267554153935,75.7706117114358 146.60242180790695,80.77071574818112 143.86014369687194,86.90576534359505 175.3535917870734,100.98287946311028 170.87119615701116,111.01093584326414 139.37774806845968,96.9338217237489 135.18453925121761,106.31490672863634 166.6779873397691,120.39202084815157 162.19559170970686,130.4200772299554 130.70214362115536,116.34296310879022 126.43663810070825,125.88579095790675 123.62206336896723,132.18258321770188 117.08858007873295,132.18258321770188 117.08858007873295,165.30655160283612 106.10432838005293,165.30655160283612 106.10432838005293,132.18258321770188 95.82873808038293,132.18258321770188 95.82873808038293,165.30655160283612 84.84448638170291,165.30655160283612 84.84448638170291,132.18258321770188 74.56889608038293,132.18258321770188 74.56889608038293,165.30655160283612 63.584644381702915,165.30655160283612 63.584644381702915,132.18258321770188 46.389978074974294,132.18258321770188 45.55472177599395,127.87222484584514 10.178588135468473,134.72737143878453 8.088944213344154,123.94371836236853 43.46507785551961,117.08857177107912 41.51024967014686,107.00063824409484 6.134116029621387,113.85578483703424 4.0444721058470865,103.07213176226823 39.420605749672525,96.21698517097882 37.46577756429978,86.12905164564452 2.0896439221243193,92.98419823858391 0.0,82.20054516216791 35.37613364217546,75.3453985708785 33.387601523027314,65.0835351569488 32.52279681501501,60.620691582741586 36.272753595377615,58.379472180185374 17.786482760697645,27.448668833810117 27.215098192797665,21.81351165787656 45.70136902582765,52.74431500260184 54.521686691255056,47.472716350422104 36.035415856575085,16.541913005696827 45.4640312886751,10.906755829763272 63.95030212170509,41.83755917283857 72.77061978713249,36.56596052230881 54.284348952452525,5.635157175933555 63.71296438620252,0.0 82.19923521758253,30.930803344725277" style="fill:none;stroke:#ff0000" /><polyline points="131.79056594220165,83.08333650665739 115.4664295247576,119.60384336836186 56.7652151595803,119.60384336836186 46.55056150567538,66.8909001950831 92.63973597666164,39.34499547562714 131.79056594220165,83.08333650665739" style="fill:none;stroke:#ff0000" /></svg>