<?xml version="1.0" encoding="utf-8" ?>
<svg baseProfile="full" height="61mm" version="1.1" width="70mm" xmlns="http://www.w3.org/2000/svg" xmlns:ev="http://www.w3.org/2001/xml-events" xmlns:xlink="http://www.w3.org/1999/xlink"><defs /><circle cx="212.92489814971483" cy="171.89812481199704" r="15" style="fill:none;stroke:#ff00dd" /><circle cx="89.53885030158901" cy="171.89812481199704" r="15" style="fill:none;stroke:#ff00dd" /><circle cx="36.614304565542085" cy="97.28274074986861" r="15" style="fill:none;stroke:#ff00dd" /><circle cx="74.06858694293751" cy="40.096038812548215" r="15" style="fill:none;stroke:#ff00dd" /><circle cx="163.61694325027898" cy="58.792939651197656" r="15" style="fill:none;stroke:#ff00dd" /><polyline points="243.13057510037916,191.68132948109704 82.69451311328055,191.68132948109704 15.23439383426827,96.57304581278521 64.87417824880549,20.781030177739268 179.01642651512958,44.612917052484775 243.13057510037916,191.68132948109704" style="fill:none;stroke:#000000" /><polyline points="172.95266241253708,80.20770419801363 216.12599182577344,61.38638688581533 221.12851712828123,72.86144302565536 177.9551877150449,91.68276033785367 182.94572134683153,103.1303093515095 226.1190507600679,84.30899203931115 231.12157606257568,95.78404817915123 187.94824664933932,114.60536549134953 192.938780281126,126.05291450500532 236.11210969436235,107.23159719280702 241.11463499687014,118.7066533326471 197.94130558363378,137.52797064484534 202.93183921542038,148.97551965850118 246.10516862865674,130.15420234630287 251.10769393116453,141.6292584861429 207.9343645179282,160.45057579834122 212.92489814971483,171.89812481199704 212.92489814971483,171.89812481199704 212.92489814971483,218.9959730293823 200.40680593278077,218.9959730293823 200.40680593278077,171.89812481199704 187.91872112827232,171.89812481199704 187.91872112827232,218.9959730293823 175.40062891133823,218.9959730293823 175.40062891133823,171.89812481199704 162.91254410682984,171.89812481199704 162.91254410682984,218.9959730293823 150.39445188989575,218.9959730293823 150.39445188989575,171.89812481199704 137.90636708538736,171.89812481199704 137.90636708538736,218.9959730293823 125.38827486845331,218.9959730293823 125.38827486845331,171.89812481199704 112.90019006394489,171.89812481199704 89.09249335850112,171.26883089413496 55.68295617300063,194.96615016708685 49.11531084556181,185.70679098553194 82.52484803106232,162.00947171258005 75.97294616026139,152.77230835806836 42.5634089747609,176.46962763102024 35.99576364732205,167.21026844946533 69.40530083282253,143.51294917651344 62.8533989620216,134.27578582200178 29.443861776521118,157.97310509495367 22.87621644908232,148.7137459133987 56.285753634582775,125.01642664044682 49.733851763781814,115.77926328593522 16.32431457828134,139.47658255888712 9.75666925084254,130.21722337733215 43.16620643634302,106.51990410438026 36.614304565542085,97.28274074986861 36.61436516776656,97.2826482199594 0.0,73.30216454797413 6.247988429128129,63.762484988661164 42.862353596894664,87.74296866064645 49.09910575949021,78.22044508415571 12.484740591723677,54.239961412170416 18.732729020851778,44.70028185285741 55.347094188618335,68.6807655248427 61.58384635121386,59.15824194835195 24.969481183447325,35.17775827636668 31.21746961257543,25.638078717053695 67.83183478034196,49.61856238903896 74.06858694293751,40.096038812548215 74.06858694293751,40.096038812548215 82.44028344988268,0.0 93.55271479337262,2.3201768907119495 85.18101828642743,42.416215703260164 96.26681176013672,44.7308308435349 104.63850826708189,4.6347920309866915 115.75093961057182,6.954968921698641 107.37924310362665,47.05100773424685 118.46503657733592,49.36562287452162 126.8367330842811,9.269584061973408 137.94916442777102,11.589760952685356 129.57746792082585,51.68579976523357 140.66326139453508,54.000414905508336 149.0349579014803,13.904376092960124 160.14738924497024,16.224552983672048 151.77569273802504,56.32059179622026 162.86148621173433,58.63520693649503 172.95266241253708,80.20770419801363" style="fill:none;stroke:#ff0000" /><polyline points="212.92489814971483,171.89812481199704 89.53885030158901,171.89812481199704 36.614304565542085,97.28274074986861 74.06858694293751,40.096038812548215 163.61694325027898,58.792939651197656 212.92489814971483,171.89812481199704" style="fill:none;stroke:#00ff00" /><polyline points="206.3817658579957,65.634360609266 246.35400159517346,157.32478122324937" style="fill:none;stroke:#0000ff" /><polyline points="212.92489814971483,208.3660520293823 112.90019006394489,208.3660520293823" style="fill:none;stroke:#0000ff" /><polyline points="64.35328489596127,188.81630298995762 11.87509610300227,114.83021284569125" style="fill:none;stroke:#0000ff" /><polyline points="8.892432799037186,79.12624038718238 46.34665457420814,21.939630979771174" style="fill:none;stroke:#0000ff" /><polyline points="80.26770077081063,10.40553242120926 169.06060003960746,28.944700545156074" style="fill:none;stroke:#0000ff" /></svg>