<?xml version="1.0" encoding="utf-8" ?>
<svg baseProfile="full" height="56mm" version="1.1" width="57mm" xmlns="http://www.w3.org/2000/svg" xmlns:ev="http://www.w3.org/2001/xml-events" xmlns:xlink="http://www.w3.org/1999/xlink"><defs /><circle cx="147.90940472220672" cy="158.03735778846783" r="15" style="fill:none;stroke:#ff00dd" /><circle cx="64.31289653995809" cy="158.03735778846777" r="15" style="fill:none;stroke:#ff00dd" /><circle cx="35.86022208328813" cy="79.43171436094264" r="15" style="fill:none;stroke:#ff00dd" /><circle cx="111.80533497036585" cy="34.04178534948683" r="15" style="fill:none;stroke:#ff00dd" /><circle cx="164.74100352260842" cy="71.17760006811086" r="15" style="fill:none;stroke:#ff00dd" /><polyline points="161.4353500811543,176.0216234808759 51.69630146379524,176.0216234808759 14.345909360014591,72.83443072473843 113.09774355380853,13.813664629201476 183.32153798120822,63.07757098982456 161.4353500811543,176.0216234808759" style="fill:none;stroke:#000000" /><polyline points="164.05694083055369,74.70771746230537 203.53312840859618,82.35737443719802 200.83945026012208,96.25814727094071 161.36326268207964,88.60849029604805 158.67442879443803,102.48426423769287 198.15061637248053,110.13392121258553 195.45693822400642,124.03469404632821 155.98075064596392,116.38503707143556 153.29191675832237,130.2608110130803 192.76810433636487,137.910467987973 190.07442618789082,151.81124082171567 150.5982386098483,144.16158384682302 147.90940472220672,158.03735778846783 147.90940472220672,158.03735778846783 147.90940472220672,201.15804619662003 134.11580866527783,201.15804619662003 134.11580866527783,158.03735778846783 120.34701875571876,158.03735778846777 120.34701875571876,201.15804619661998 106.55342269878986,201.15804619661998 106.55342269878986,158.03735778846777 92.78463278923077,158.03735778846777 92.78463278923077,201.15804619661998 78.9910367323019,201.15804619661998 78.9910367323019,158.03735778846772 65.2222468227428,158.03735778846772 64.00332840850521,157.18212000776074 23.45681007029635,171.85863477596737 18.762070883478067,158.88857127398404 59.30858922168694,144.21205650577738 54.622292966766196,131.26531812548805 14.075774628557326,145.94183289369468 9.381035441739021,132.97176939171132 49.92755377994789,118.29525462350463 45.24125752502717,105.34851624321534 4.69473918681828,120.02503101142197 0.0,107.05496750943863 40.54651833820884,92.37845274123198 35.86022208328813,79.43171436094264 35.86022208328813,79.43171436094264 15.231279960105889,44.915966652003455 27.385284744878657,37.651912476377944 48.014226868060916,72.16766018531713 60.14637411600425,64.91666955002141 39.51743199282201,30.400921841082233 51.67143677759478,23.136867665456702 72.30037890077699,57.65261537439586 84.43252614872034,50.40162473910017 63.803584025538115,15.88587703016099 75.95758881031088,8.621822854535482 96.5865309334931,43.13757056347464 108.71867818143645,35.886579928178946 111.80533497036585,34.04178534948683 135.68657550258084,0.0 144.5171243295274,6.1948707567112935 120.6358837973124,40.236656106198126 129.45055192899622,46.42038612221398 153.33179246121117,12.378600772727129 162.1623412881577,18.57347152943842 138.2811007559428,52.61525687892523 147.09576888762652,58.79898689494106 170.97700941984152,24.757201545454258 179.80755824678803,30.95207230216555 155.9263177145731,64.99385765165236 164.74098584625685,71.17758766766819 164.05694083055369,74.70771746230537" style="fill:none;stroke:#ff0000" /><polyline points="147.90940472220672,158.03735778846783 64.31289653995809,158.03735778846777 35.86022208328813,79.43171436094264 111.80533497036585,34.04178534948683 164.74100352260842,71.17760006811086 147.90940472220672,158.03735778846783" style="fill:none;stroke:#00ff00" /><polyline points="193.0973354356798,80.33513669334332 176.94979932733287,163.66477701950578" style="fill:none;stroke:#0000ff" /><polyline points="147.90940472220672,190.52812519662004 65.2222468227428,190.52812519661995" style="fill:none;stroke:#0000ff" /><polyline points="33.452086937811835,168.24067114873858 5.308980612594743,90.49026550192048" style="fill:none;stroke:#0000ff" /><polyline points="20.68467230663068,54.04042457459293 93.54312840477903,10.495290141829246" style="fill:none;stroke:#0000ff" /><polyline points="129.58179952717728,8.702122198428198 182.5174504030683,45.83792451660958" style="fill:none;stroke:#0000ff" /></svg>