<?xml version="1.0" encoding="utf-8" ?>
<svg baseProfile="full" height="61mm" version="1.1" width="70mm" xmlns="http://www.w3.org/2000/svg" xmlns:ev="http://www.w3.org/2001/xml-events" xmlns:xlink="http://www.w3.org/1999/xlink"><defs /><circle cx="212.9252578946273" cy="171.89792889136822" r="15" style="fill:none;stroke:#ff00dd" /><circle cx="89.53906591319043" cy="171.89792889136822" r="15" style="fill:none;stroke:#ff00dd" /><circle cx="36.614467174744064" cy="97.2827706942093" r="15" style="fill:none;stroke:#ff00dd" /><circle cx="74.0687251119635" cy="40.09595744719722" r="15" style="fill:none;stroke:#ff00dd" /><circle cx="163.61729492059234" cy="58.79272520840252" r="15" style="fill:none;stroke:#ff00dd" /><polyline points="243.13081139661227,191.68108067440434 82.69471202001671,191.6810806744044 15.234515249448343,96.57307090142025 64.874209380351,20.780996134887634 179.01667775311066,44.61270251966752 243.13081139661227,191.68108067440434" style="fill:none;stroke:#000000" /><polyline points="172.9529589225586,80.20736322567699 216.12610394832146,61.38612629682678 221.12863716467587,72.86120058988801 177.955492138913,91.68243751873824 182.94603366557578,103.13000464209976 226.1191786913386,84.3087677132496 231.121711907693,95.78384200631085 187.9485668819302,114.60507893516102 192.93910840859292,126.0526460585226 236.11225343435584,107.23140912967243 241.11478665071024,118.70648342273368 197.94164162494732,137.52772035158387 202.93218315161016,148.9752874749454 246.10532817737297,130.15405054609525 251.10786139372738,141.62912483915647 207.9347163679645,160.45036176800664 212.9252578946273,171.89792889136822 212.9252578946273,171.89792889136822 212.9252578946273,218.99566151524067 200.40713009919318,218.9956615152406 200.40713009919318,171.89792889136822 187.9190098014709,171.8979288913681 187.9190098014709,218.99566151524056 175.40088200603685,218.9956615152405 175.40088200603685,171.8979288913681 162.91276170831452,171.8979288913681 162.91276170831452,218.9956615152405 150.3946339128804,218.9956615152405 150.3946339128804,171.89792889136805 137.90651361515808,171.89792889136803 137.90651361515808,218.99566151524044 125.38838581972401,218.9956615152404 125.38838581972401,171.89792889136803 112.90026552200169,171.89792889136797 89.09262369108936,171.26851727896104 55.68312006854943,194.9659082112626 49.11547878052883,185.7065920261809 82.52498240306876,162.00920109387937 75.97308456200301,152.77208063277308 42.56358093946311,176.46947156507468 35.995939651442484,167.21015537999298 69.40544327398241,143.5127644476914 62.853545432916725,134.27564398658518 29.44404181037679,157.97303491888673 22.876400522356167,148.71371873380505 56.2859041448961,125.0163278015035 49.73400630383038,115.77920734039726 16.324502681290472,139.47659827269877 9.756861393269874,130.2172820876171 43.16636501580978,106.51989115531553 36.614467174744064,97.2827706942093 36.61448766881322,97.28273940296019 0.0,73.3022378236294 6.247991042808197,63.762529480375534 42.862478711621414,87.74303105970635 49.09923348319666,78.22047875103922 12.484745814383446,54.23997717170839 18.732736857191618,44.70026882845455 55.347224526004815,68.68077040778533 61.583979297580065,59.15821809911821 24.969491628766868,35.177716519787374 31.217482671575038,25.638008176533535 67.83197034038825,49.61850975586437 74.0687251119635,40.09595744719722 74.0687251119635,40.09595744719722 82.4403250845315,0.0 93.55276734393058,2.3201571239808616 85.1811673713626,42.416114571178085 96.26697173481425,44.73070999210506 104.63857170738223,4.634752544907815 115.75101396678131,6.954909668888676 107.37941399421334,47.050867116085925 118.46521835766502,49.365462537012874 126.83681833023296,9.26950508981563 137.94926058963205,11.58966221379649 129.5776606170641,51.68561966099374 140.66346498051576,54.000215081920665 149.0350649530837,13.904257634723443 160.1475072124828,16.224414758704306 151.77590723991486,56.32037220590153 162.8617116033665,58.634967626828505 172.9529589225586,80.20736322567699" style="fill:none;stroke:#ff0000" /><polyline points="212.9252578946273,171.89792889136822 89.53906591319043,171.89792889136822 36.614467174744064,97.2827706942093 74.0687251119635,40.09595744719722 163.61729492059234,58.79272520840252 212.9252578946273,171.89792889136822" style="fill:none;stroke:#00ff00" /><polyline points="206.38187798054062,65.63410002027032 246.35417695260932,157.32466568596158" style="fill:none;stroke:#0000ff" /><polyline points="212.9252578946273,208.36574051524065 112.90026552200169,208.36574051524036" style="fill:none;stroke:#0000ff" /><polyline points="64.3534371005073,188.8160445516696 11.87528058416204,114.83029796691787" style="fill:none;stroke:#0000ff" /><polyline points="8.892439736700235,79.12630307012137 46.34667717985052,21.93952111435837" style="fill:none;stroke:#0000ff" /><polyline points="80.26776218658254,10.405536551312311 169.06074867798552,28.944546730943593" style="fill:none;stroke:#0000ff" /></svg>