<?xml version="1.0" encoding="utf-8" ?>
<svg baseProfile="tiny" height="59mm" version="1.2" width="69mm" xmlns="http://www.w3.org/2000/svg" xmlns:ev="http://www.w3.org/2001/xml-events" xmlns:xlink="http://www.w3.org/1999/xlink"><defs /><polyline fill="none" points="194.8126,49.7426 244.7668,164.3303" stroke="rgb(0%,0%,100%)" /><polyline fill="none" points="218.8359,203.9229 93.8329,203.9229" stroke="rgb(0%,0%,100%)" /><polyline fill="none" points="55.0163,180.4837 8.0557,114.2765" stroke="rgb(0%,0%,100%)" /><polyline fill="none" points="5.9283,69.1651 36.1545,23.0145" stroke="rgb(0%,0%,100%)" /><polyline fill="none" points="78.3574,6.937 157.8146,23.527" stroke="rgb(0%,0%,100%)" /><polyline fill="none" points="172.4383,40.1698 236.5524,187.2382 76.1164,187.2382 8.6562,92.1299 58.296,16.3379 172.4383,40.1698" stroke="rgb(0%,0%,0%)" /><polyline fill="none" points="161.3835,64.316 201.3088,46.9106 206.3117,58.3866 166.3864,75.7919 171.3744,87.2335 211.2996,69.8282 216.3025,81.3041 176.3773,98.7094 181.3652,110.151 221.2905,92.7457 226.2934,104.2217 186.3681,121.627 191.356,133.0686 231.2813,115.6632 236.2842,127.1392 196.359,144.5445 201.3469,155.9861 241.2721,138.5808 246.2751,150.0567 206.3498,167.462 211.3377,178.9036 218.8359,167.455 218.8359,211.0095 206.3168,211.0095 206.3168,167.455 193.8353,167.455 193.8353,211.0095 181.3162,211.0095 181.3162,167.455 168.8347,167.455 168.8347,211.0095 156.3156,211.0095 156.3156,167.455 143.8341,167.455 143.8341,211.0095 131.315,211.0095 131.315,167.455 118.8335,167.455 118.8335,211.0095 106.3144,211.0095 106.3144,167.455 93.8329,167.455 79.7556,162.9363 49.2361,184.5836 41.4023,173.5392 71.9217,151.8918 64.102,140.8672 33.5826,162.5146 25.7488,151.4701 56.2682,129.8227 48.4485,118.7981 17.929,140.4455 10.0952,129.401 40.6147,107.7537 32.7949,96.7291 33.6502,87.3215 0.0,65.2824 7.5611,53.7378 41.2113,75.7769 48.7633,64.2462 15.1131,42.2071 22.6742,30.6625 56.3244,52.7017 63.8764,41.1709 72.1583,36.6275 79.8058,0.0 93.0606,2.7675 85.4131,39.395 98.644,42.1575 106.2915,5.53 119.5463,8.2975 111.8988,44.925 125.1297,47.6875 132.7772,11.06 146.032,13.8274 138.3845,50.455 151.6155,53.2175 161.3835,64.316" stroke="rgb(100%,0%,0%)" /><polyline fill="none" points="172.4383,40.1698 236.5524,187.2382 76.1164,187.2382 8.6562,92.1299 58.296,16.3379" stroke="rgb(0%,100%,0%)" /></svg>