<?xml version="1.0" encoding="utf-8" ?>
<svg baseProfile="full" height="51mm" version="1.1" width="64mm" xmlns="http://www.w3.org/2000/svg" xmlns:ev="http://www.w3.org/2001/xml-events" xmlns:xlink="http://www.w3.org/1999/xlink"><defs /><polyline points="218.50462009084876,169.20694758533975 -4.7238650767757475,169.20694758533975 118.04729758147855,27.41688831442904 218.50462009084876,169.20694758533975" style="fill:none;stroke:#000000" /><polyline points="138.4480544675856,25.2052036637021 115.26123647128115,41.63291140009966 121.20159955698932,50.017411530731856 144.38841755329378,33.58970379598427 150.73846084782667,42.55244531453766 127.55164285152223,58.980153049285235 133.4920059372304,67.3646531815674 156.67882393353486,50.936945446819834 163.02886722806775,59.89968696537321 139.8420492317633,76.32739470012079 145.78241231747148,84.71189483240296 168.96923031377594,68.28418709765539 175.31927360830883,77.2469286145588 152.13245561200438,93.67463635095635 158.07281869771256,102.05913648158854 181.25963669401702,85.63142874684097 187.6096799885499,94.59417026539435 164.42286199224546,111.02187800014192 170.36322507795364,119.40637813242411 193.5500430742581,102.97867039767652 199.900086368791,111.94141191622991 176.71326837248654,128.3691196509775 182.65363145819472,136.75361978325967 205.84044945449918,120.32591204851208 212.19049274903207,129.28865356706547 189.00367475272762,145.71636130181304 194.9440378384358,154.10086143244524 218.13085583474026,137.67315369769767 224.37847907624197,146.49133486885825 230.24889277107138,154.77710523268857 213.36675285757158,154.77710523268857 213.36675285757158,182.9458755849718 202.38250115889156,182.9458755849718 202.38250115889156,154.77710523268857 192.10691085757156,154.77710523268857 192.10691085757156,182.9458755849718 181.12265915889157,182.9458755849718 181.12265915889157,154.77710523268857 170.84706885757157,154.77710523268857 170.84706885757157,182.9458755849718 159.86281715889157,182.9458755849718 159.86281715889157,154.77710523268857 149.58722685757158,154.77710523268857 149.58722685757158,182.9458755849718 138.60297515889155,182.9458755849718 138.60297515889155,154.77710523268857 128.3273848575716,154.77710523268857 128.3273848575716,182.9458755849718 117.34313315889156,182.9458755849718 117.34313315889156,154.77710523268857 107.06754285757158,154.77710523268857 107.06754285757158,182.9458755849718 96.08329115889156,182.9458755849718 96.08329115889156,154.77710523268857 85.80770085757158,154.77710523268857 85.80770085757158,182.9458755849718 74.82344915889156,182.9458755849718 74.82344915889156,154.77710523268857 64.54785885757158,154.77710523268857 64.54785885757158,182.9458755849718 53.563607158891564,182.9458755849718 53.563607158891564,154.77710523268857 43.28801685757158,154.77710523268857 43.28801685757158,182.9458755849718 32.303765158891565,182.9458755849718 32.303765158891565,154.77710523268857 22.028174857571578,154.77710523268857 22.028174857571578,182.9458755849718 11.043923158891563,182.9458755849718 11.043923158891563,162.4262007901039 11.460323758067508,162.7867478264703 18.186568145797157,155.01851813886478 0.0,139.2713908178076 7.190123307721388,130.967421154762 25.376691455168526,146.7145484758192 32.102935844548156,138.94631878821372 13.916367697101018,123.1991914688065 21.106491006472385,114.89522180411095 39.29305915391952,130.64234912516815 46.01930354164917,122.87411943921262 27.832735395852016,107.12699211815543 35.022858705223385,98.82302245345987 53.209426851020545,114.57014977451706 59.935671240400175,106.80192008856154 41.749103092953035,91.05479276750435 48.9392264023244,82.7508231028088 67.12579454977154,98.497950423866 73.85203893750119,90.72972073791047 55.66547079170403,74.98259341685328 62.855594101075404,66.6786237538077 81.04216224687256,82.42575107321493 87.7684066362522,74.6575213872594 69.58183848880505,58.9103940662022 76.65599206900347,50.74035939660415 120.59033379147583,0.0 138.4480544675856,25.2052036637021" style="fill:none;stroke:#ff0000" /><polyline points="205.92111462817635,142.19836538334854 14.104427309323263,142.19836538334854 119.59973496212295,20.36042232785887 205.92111462817635,142.19836538334854" style="fill:none;stroke:#ff0000" /></svg>