<?xml version="1.0" encoding="utf-8" ?>
<svg baseProfile="full" height="57mm" version="1.1" width="64mm" xmlns="http://www.w3.org/2000/svg" xmlns:ev="http://www.w3.org/2001/xml-events" xmlns:xlink="http://www.w3.org/1999/xlink"><defs /><polyline points="216.5119629526271,178.40567961727334 -6.716241874583315,178.40567961727336 139.7569782974612,-9.240714674568126 216.5119629526271,178.40567961727334" style="fill:none;stroke:#000000" /><polyline points="168.80854116879866,10.166620129366455 139.18397227066103,22.284270136926878 143.07423799163297,31.794979294516416 172.6988068897706,19.677329286955995 176.85736679782678,29.84394941632245 147.2327978996892,41.96159942388287 151.12306362066113,51.47230858147241 180.74763251879872,39.35465857391199 184.90619242685494,49.52127870327844 155.28162352871735,61.63892871083887 159.1718892480393,71.1496378684284 188.79645814782688,59.03198786086798 192.95501805258314,69.19860799023444 163.3304491560955,81.31625799779486 167.22071487706745,90.8269671553844 196.84528377355508,78.70931714782398 201.0038436816113,88.87593727719043 171.37927478512367,100.99358728475086 175.2695405060956,110.50429644234039 204.89410940258324,98.38664643477998 209.05266931063943,108.55326656414643 179.4281004141518,120.67091657170685 183.31836613347377,130.1816257292964 212.94293503161137,118.06397572173596 217.10149493801762,128.2305958511024 187.47692604153,140.34824585866284 191.3671917625019,149.85895501625237 220.99176065898956,137.74130500869197 225.08324702027468,147.74394739470168 228.03184475049443,154.95251807956646 211.37423588770417,154.95251807956646 211.37423588770417,203.23058582176398 200.38998418902415,203.23058582176398 200.38998418902415,154.95251807956646 190.11439388935415,154.95251807956646 190.11439388935415,203.23058582176398 179.13014219067415,203.23058582176398 179.13014219067415,154.95251807956646 168.85455188935416,154.95251807956646 168.85455188935416,203.23058582176398 157.87030019067413,203.23058582176398 157.87030019067413,154.95251807956646 147.59470988935416,154.95251807956646 147.59470988935416,203.23058582176398 136.61045819067414,203.23058582176398 136.61045819067414,154.95251807956646 126.33486788935416,154.95251807956646 126.33486788935416,203.23058582176398 115.35061619067415,203.23058582176398 115.35061619067415,154.95251807956646 105.07502588935415,154.95251807956646 105.07502588935415,203.23058582176398 94.09077419067414,203.23058582176398 94.09077419067414,154.95251807956646 83.81518388935416,154.95251807956646 83.81518388935416,203.23058582176398 72.83093219067415,203.23058582176398 72.83093219067415,154.95251807956646 62.55534188935415,154.95251807956646 62.55534188935415,203.23058582176398 51.57109019067414,203.23058582176398 51.57109019067414,154.95251807956646 41.295499889354154,154.95251807956646 41.295499889354154,203.23058582176398 30.311248190674142,203.23058582176398 30.311248190674142,154.95251807956646 20.035657889354155,154.95251807956646 20.035657889354155,203.23058582176398 9.051406190674141,203.23058582176398 9.051406190674141,163.33881322111867 13.231785700235084,166.60193826320352 19.554526312038323,158.50189460855236 0.0,143.23800185786564 6.758791686544866,134.57933450408856 26.31331799693321,149.8432272547753 32.63605860873645,141.74318360177412 13.081532296698127,126.47929084943742 19.840323983242993,117.82062349566033 39.394850293631336,133.08451624799704 45.71759090543458,124.9844725933459 26.163064593396253,109.72057984265916 32.92185627829114,101.06191248723209 52.476382590329465,116.32580523956881 58.799123200482725,108.22576158656764 39.24459689009438,92.96186883423094 46.003388574989266,84.30320148045384 65.5579148870276,99.56709423114057 71.88065549718085,91.4670505781394 52.32612918679251,76.2031578258027 59.084920871687395,67.54449047202561 78.63944718372572,82.80838322436232 84.96218779387898,74.70833956971119 65.40766148349063,59.444446819024456 72.16645316838552,50.78577946524736 91.72097947877386,66.0496722159341 98.0437200905771,57.94962856293293 78.48919377853878,42.68573581059622 85.24798546508364,34.02706845681913 104.80251177547198,49.29096120915584 111.12525238727522,41.1909175545047 91.5707260752369,25.92702480381797 98.32951776178177,17.268357448390898 117.88404407217011,32.53225020072761 124.20678468397335,24.432206547726448 104.65225837193503,9.168313795389741 111.4110500584799,0.5096464416126483 130.96557636886823,15.773539192299376 134.61069962128934,11.103782946272934 135.0254123626048,12.117650007560421 164.64998126074244,0.0 168.80854116879866,10.166620129366455" style="fill:none;stroke:#ff0000" /><polyline points="209.2962683887074,142.37377823022646 16.631791725513125,142.37377823022646 143.05034323390134,-19.5806413847164 209.2962683887074,142.37377823022646" style="fill:none;stroke:#ff0000" /></svg>