<?xml version="1.0" encoding="utf-8" ?>
<svg baseProfile="full" height="47mm" version="1.1" width="48mm" xmlns="http://www.w3.org/2000/svg" xmlns:ev="http://www.w3.org/2001/xml-events" xmlns:xlink="http://www.w3.org/1999/xlink"><defs /><polyline points="139.85318132339737,150.35103434159092 41.08803756777421,150.35103434159092 7.472684674371625,57.48256086106723 96.34933544878616,4.363871375083968 159.5507504334459,48.701387099644734 139.85318132339737,150.35103434159092" style="fill:none;stroke:#000000" /><polyline points="129.36962073839658,6.3082685088899755 109.55823085484711,34.54863905794139 117.9702823153805,40.44992250445617 137.78167219728,12.209551952104798 146.7738651356881,18.517820459344794 126.96247525213866,46.75819101004618 135.51956208131574,52.76122072009229 141.16599839467602,56.72234973656316 139.9230730436387,63.136487575303654 172.44206530629725,69.43798605416708 170.35241964014313,80.22163878903703 137.83342737748458,73.92014031017361 135.87859755698076,84.00807352036155 168.39758981963928,90.30957199922497 166.3079441518352,101.09322473574491 133.78895188917664,94.79172625688147 131.83412206867283,104.87965946541944 164.35311433133137,111.18115794428287 162.26346866352725,121.9648106808028 129.74447640086873,115.66331220193936 127.75594261853983,125.92517529247282 126.47336603862617,132.5439339977137 122.08286265287059,132.5439339977137 122.08286265287059,168.5780084066181 111.09861095419058,168.5780084066181 111.09861095419058,132.5439339977137 100.8230206528706,132.5439339977137 100.8230206528706,168.5780084066181 89.83876895584056,168.5780084066181 89.83876895584056,132.5439339977137 79.56317865452057,132.5439339977137 79.56317865452057,168.5780084066181 68.57892695584056,168.5780084066181 68.57892695584056,132.5439339977137 53.58034635535975,132.5439339977137 52.09341734928809,128.43602451525132 18.210416923511065,140.7005635327967 14.471854508641245,130.3721107705406 48.35485493606825,118.1075717529952 44.85749009496747,108.44547078094755 10.974489669190444,120.71000979684295 7.235927254320623,110.38155703623681 41.11892768174763,98.11701801869144 37.621562840646845,88.4549170449938 3.73856241486982,100.7194560625392 0.0,90.39100330028307 33.88300042577702,78.12646428438767 30.32533619288396,68.29777536520041 28.770673109787875,64.00273828037632 34.405624194857246,60.63491091023111 17.412276967952256,32.202135149714415 26.840883488505437,26.566963059603516 43.834230713760455,54.999738820120214 52.654540040184386,49.72812621735198 35.66119281327939,21.295350456835283 45.08979933383258,15.66017836672438 62.083146559087595,44.09295412724108 70.90345588386155,38.82134152447284 53.91010865860653,10.388565763956146 63.33871517915972,4.7533936738452445 80.33206240441473,33.18616943436194 89.30444602689602,27.82366696058303 95.06463696842242,24.380987792811904 100.56603791973893,28.240370552351372 120.37742780163842,0.0 129.36962073839658,6.3082685088899755" style="fill:none;stroke:#ff0000" /><polyline points="127.26544645748339,62.33606720094418 116.09813066670034,119.9651941483737 62.40467296452749,119.9651941483737 44.12969768222821,69.47727980973174 94.51721973661446,39.362293311078226 127.26544645748339,62.33606720094418" style="fill:none;stroke:#ff0000" /></svg>