<?xml version="1.0" encoding="utf-8" ?>
<svg baseProfile="full" height="52mm" version="1.1" width="59mm" xmlns="http://www.w3.org/2000/svg" xmlns:ev="http://www.w3.org/2001/xml-events" xmlns:xlink="http://www.w3.org/1999/xlink"><defs /><polyline points="210.0611417779068,166.3326898045131 65.66866752196424,166.3326898045131 4.954444493976356,80.73554294134719 49.63017969347763,12.522696297059435 152.3582040289057,33.971212538441556 210.0611417779068,166.3326898045131" style="fill:none;stroke:#000000" /><polyline points="83.69561135098924,2.24498383397716 76.77236418891813,35.40399096268435 86.8310490984999,37.504137132029086 93.75429626057101,4.345130001671918 104.50668357503605,6.590113835649078 97.58343641296493,39.749120966006245 107.6421213225467,41.849267133701005 114.56536848461782,8.690260004993815 125.31775580073283,10.935243838970976 118.39450863866172,44.094250967678164 128.6266191482268,46.230606551943524 137.08455317694927,47.99653300289288 143.41641317708164,62.520825462084616 180.09357748843647,46.531429054812776 184.48316599443316,56.60045572622283 147.80600168307836,72.58985213349467 151.91239093253978,82.00926418333792 188.58955524389458,66.01986777606608 192.97914374989128,76.08889444582616 156.30197943853648,92.07829085474798 160.4083686863479,101.49770290459122 197.0855329977027,85.5083064973194 201.47512150369943,95.57733316872944 164.7979571923446,111.56672957600128 168.904346441806,120.98614162749452 205.58151075316084,104.99674522022268 209.97109925915754,115.06577189163274 173.29393494780274,131.05516829890456 177.47112401139796,140.636984005377 180.12595704359356,146.72675405607094 173.65979816817617,146.72675405607094 173.65979816817617,186.73776189608594 162.67554646949614,186.73776189608594 162.67554646949614,146.72675405607094 152.39995616817615,146.72675405607094 152.39995616817615,186.73776189608594 141.41570446949615,186.73776189608594 141.41570446949615,146.72675405607094 131.14011416817615,146.72675405607094 131.14011416817615,186.73776189608594 120.15586246949614,186.73776189608594 120.15586246949614,146.72675405607094 109.88027216817616,146.72675405607094 109.88027216817616,186.73776189608594 98.89602046949615,186.73776189608594 98.89602046949615,146.72675405607094 72.42163787608207,146.72675405607094 67.52534686234219,139.8237827222261 39.8958645186251,159.42142837614207 33.54099914666511,150.46210521706595 61.170481490382194,130.86445956314998 55.22560743279543,122.48315724894817 27.596125087428366,142.08080290286415 21.241259715468374,133.121479743788 48.87074206083544,113.52383408987204 42.925868001598694,105.14253177567024 15.29638565623163,124.7401774295862 8.94152028427164,115.78085427051008 36.571002629638706,96.18320861659411 30.523630742221147,87.65740109076123 26.120063591448645,81.44909000211116 30.686135145034044,74.47741427377481 0.0,54.37965094168618 6.018203016891863,45.190798030618126 36.70433816192591,65.28856136270676 42.33427001830053,56.69253767048344 11.648134873266487,36.59477433674483 17.66633788850837,27.405921425676773 48.352473035192396,47.503684757765406 54.07947268045884,38.7594537604184 58.74261190578743,31.63957091340621 66.01997687610309,33.15900712870719 72.94322403652421,0.0 83.69561135098924,2.24498383397716" style="fill:none;stroke:#ff0000" /><polyline points="128.15129542117623,58.98135170925892 160.9201745272622,134.14801420673095 78.92121884048765,134.14801420673095 41.341484469262284,81.16672116281252 64.5666369172868,45.705552925292615 128.15129542117623,58.98135170925892" style="fill:none;stroke:#ff0000" /></svg>