<?xml version="1.0" encoding="utf-8" ?>
<svg baseProfile="full" height="52mm" version="1.1" width="59mm" xmlns="http://www.w3.org/2000/svg" xmlns:ev="http://www.w3.org/2001/xml-events" xmlns:xlink="http://www.w3.org/1999/xlink"><defs /><polyline points="210.0610038966956,166.3329344383924 65.66854810830685,166.3329344383924 4.954440757195799,80.73547913691175 49.6302467302793,12.52266506537037 152.35827016997098,33.97136325264135 210.0610038966956,166.3329344383924" style="fill:none;stroke:#000000" /><polyline points="83.69571699266628,2.245002100915692 76.77240893805009,35.40401929945631 86.83109027872318,37.50418255600324 93.75439833333937,4.34516535746262 104.50678183469854,6.590167458378312 97.58347378008236,39.74918465691893 107.64215512240543,41.849347913465856 114.56546317537162,8.69033071492524 125.3178466767308,10.935332817490913 118.39453862211461,44.09435001438155 128.62664550502168,46.23072298449564 137.0846076824183,47.99667030605339 143.41643256765718,62.520943876263786 180.09361133614462,46.5316090462791 184.4831841838226,56.600642545310116 147.80600541533514,72.58997737529481 151.91238001461616,82.00939581056413 188.5895587831036,66.02006098222942 192.97913163078158,76.08909447961047 156.30195286229414,92.07842930959515 160.40832746157514,101.49784774486447 197.08550623006258,85.50851291487979 201.47507907774056,95.57754641391081 164.79790030925312,111.5668812438955 168.90427490853412,120.98629968081481 205.58145367702159,104.99696485083011 209.97102652469954,115.06599834986113 173.2938477562121,131.05533317984583 177.47102191717985,140.63715538229306 180.1258304653089,146.72689511788795 173.65969203315484,146.72689511788795 173.65969203315484,186.73812933528225 162.6754403344748,186.73812933528225 162.6754403344748,146.72689511788795 152.39985003315485,146.72689511788795 152.39985003315485,186.73812933528225 141.41559833447482,186.73812933528225 141.41559833447482,146.72689511788795 131.14000803315483,146.72689511788795 131.14000803315483,186.73812933528225 120.15575633447482,186.73812933528225 120.15575633447482,146.72689511788795 109.88016603315484,146.72689511788795 109.88016603315484,186.73812933528225 98.89591433447482,186.73812933528225 98.89591433447482,146.72689511788795 72.42134161046181,146.72689511788795 67.52512436736791,139.8239897634793 39.89580633039872,159.42141091769417 33.54096424791911,150.4620712390093 61.1702822848883,130.8646500847944 55.22543001364933,122.4833323168715 27.59611197668014,142.08075347273638 21.241269894200542,133.12141379405148 48.87058793116973,113.52399263818661 42.92573565993075,105.14267487191367 15.296417622961565,124.74009602612857 8.941575540481965,115.78075634744368 36.57089357745115,96.18333519322879 30.523543850927048,87.6575119463779 26.119965394485426,81.4491507164583 30.686076635061386,74.47742876720703 0.0,54.37966232160444 6.018211700741334,45.19081509802055 36.70428833580272,65.28858154362314 42.33422831338333,56.69256316928825 11.648151678321943,36.59479672368566 17.666363379063277,27.40594950010177 48.35244001412467,47.50371594570436 54.079447922495454,38.759490358644726 58.74262714501101,31.639561119119595 66.0200254383409,33.15901719689064 72.9433334913071,0.0 83.69571699266628,2.245002100915692" style="fill:none;stroke:#ff0000" /><polyline points="128.1513323856983,58.9814740701924 160.92008053115035,134.14815526854792 78.92094329037758,134.14815526854792 41.34137818739266,81.16680901274553 64.56663505775833,45.70555444492503 128.1513323856983,58.9814740701924" style="fill:none;stroke:#ff0000" /></svg>