<?xml version="1.0" encoding="utf-8" ?>
<svg baseProfile="full" height="61mm" version="1.1" width="70mm" xmlns="http://www.w3.org/2000/svg" xmlns:ev="http://www.w3.org/2001/xml-events" xmlns:xlink="http://www.w3.org/1999/xlink"><defs /><circle cx="212.92506364673335" cy="171.89793585661258" r="15" style="fill:none;stroke:#ff00dd" /><circle cx="89.53918359982566" cy="171.89793585661258" r="15" style="fill:none;stroke:#ff00dd" /><circle cx="36.61442734809803" cy="97.28266602950691" r="15" style="fill:none;stroke:#ff00dd" /><circle cx="74.06858855236653" cy="40.09603120394899" r="15" style="fill:none;stroke:#ff00dd" /><circle cx="163.61690569895921" cy="58.79276510039506" r="15" style="fill:none;stroke:#ff00dd" /><polyline points="243.13075235820082,191.68103695413456 82.69466985159794,191.68103695413456 15.23442204272254,96.57309599506134 64.87412781994617,20.78104416807492 179.0163770815329,44.61272888072172 243.13075235820082,191.68103695413456" style="fill:none;stroke:#000000" /><polyline points="172.9526398044211,80.20747301244744 216.12595035677023,61.386084020145226 221.12849920063562,72.86114544509249 177.95518864828645,91.68253443739472 182.94574576499915,103.13008872348874 226.11905631734828,84.3086997311865 231.12160516121364,95.78376115613383 187.94829460886456,114.60515014843602 192.93885172557725,126.05270443453003 236.11216227792636,107.23131544222785 241.11471112179174,118.70637686717508 197.94140056944255,137.52776585947726 202.9319576861553,148.97532014557132 246.1052682385044,130.15393115326916 251.1078170823698,141.62899257821644 207.93450653002066,160.45038157051863 212.92506364673335,171.89793585661263 212.92506364673335,171.89793585661258 212.92506364673335,218.99555769666765 200.40697180551234,218.99555769666765 200.40697180551234,171.89793585661258 187.91888737581635,171.89793585661258 187.91888737581635,218.99555769666765 175.40079553459532,218.9955576966676 175.40079553459532,171.89793585661258 162.9127111048994,171.89793585661258 162.9127111048994,218.99555769666765 150.39461926367838,218.9955576966676 150.39461926367838,171.89793585661258 137.9065348339824,171.89793585661258 137.9065348339824,218.99555769666765 125.38844299276133,218.99555769666765 125.38844299276133,171.89793585661258 112.9003585630654,171.89793585661258 89.09269311794985,171.26845713739198 55.68300228211454,194.9660159350661 49.1153473210176,185.7066941779143 82.52503815685291,162.00913538024014 75.97312667548692,152.77200936042067 42.5634358396516,176.46956815809483 35.99578087855466,167.21024640094305 69.40547171438992,143.51268760326886 62.853560233023934,134.27556158344944 29.443869397188646,157.97312038112358 22.8762144360917,148.71379862397177 56.285905271926985,125.01623982629762 49.733993790560994,115.77911380647821 16.324302954725685,139.47667260415236 9.75664799362874,130.21735084700055 43.166338829464024,106.51979204932638 36.61442734809803,97.28266602950691 36.61442734809803,97.28266602950691 0.0,73.30219107271245 6.247973047758097,63.76251533058556 42.862400395856106,87.74299028738002 49.0991372047432,78.22047052121059 12.484709856645189,54.23999556441612 18.732682904403237,44.70031982228923 55.347110252501245,68.6807947790837 61.58384706138834,59.15827501291426 24.96941971329033,35.17780005611979 31.217392761048377,25.6381243139929 67.83182010914638,49.61859927078737 74.06855691803348,40.09607950461793 74.06858855236653,40.09603120394899 82.44021238195354,0.0 93.55263841329497,2.320156079670523 85.18101458370796,42.416187283619514 96.26680275800261,44.730781662739474 104.63842658758958,4.6347504587904576 115.75085261893106,6.95490653846098 107.379228789344,47.05093774240997 118.46501696363865,49.36553212152993 126.83664079322565,9.26950091758094 137.9490668245671,11.589656997251463 129.57744299498012,51.68568820120043 140.66323116927478,54.000282580320416 149.03485499886173,13.904251376371423 160.14728103020312,16.22440745604192 151.77565720061617,56.32043865999091 162.8614453749108,58.635033039110894 172.9526398044211,80.20747301244744" style="fill:none;stroke:#ff0000" /><polyline points="212.92506364673335,171.89793585661258 89.53918359982566,171.89793585661258 36.61442734809803,97.28266602950691 74.06858855236653,40.09603120394899 163.61690569895921,58.79276510039506 212.92506364673335,171.89793585661258" style="fill:none;stroke:#00ff00" /><polyline points="206.38173099534512,65.6340728975635 246.35415483765738,157.3245357417287" style="fill:none;stroke:#0000ff" /><polyline points="212.92506364673335,208.36563669666765 112.9003585630654,208.36563669666765" style="fill:none;stroke:#0000ff" /><polyline points="64.35331501872508,188.81614621972983 11.875049248873266,114.83035511184478" style="fill:none;stroke:#0000ff" /><polyline points="8.892438302482208,79.12625850903119 46.3465678724177,21.939671984142176" style="fill:none;stroke:#0000ff" /><polyline points="80.26764738085872,10.405536112198101 169.06050420340299,28.944537947360008" style="fill:none;stroke:#0000ff" /></svg>