<?xml version="1.0" encoding="utf-8" ?>
<svg baseProfile="tiny" height="59mm" version="1.2" width="69mm" xmlns="http://www.w3.org/2000/svg" xmlns:ev="http://www.w3.org/2001/xml-events" xmlns:xlink="http://www.w3.org/1999/xlink"><defs /><polyline fill="none" points="194.8126,49.7424 244.767,164.33" stroke="rgb(0%,0%,100%)" /><polyline fill="none" points="218.8361,203.9225 93.8331,203.9225" stroke="rgb(0%,0%,100%)" /><polyline fill="none" points="55.0164,180.4836 8.0557,114.2767" stroke="rgb(0%,0%,100%)" /><polyline fill="none" points="5.9283,69.1651 36.1544,23.0146" stroke="rgb(0%,0%,100%)" /><polyline fill="none" points="78.3574,6.937 157.8145,23.5268" stroke="rgb(0%,0%,100%)" /><polyline fill="none" points="172.4382,40.1696 236.5526,187.2379 76.1165,187.2379 8.6563,92.13 58.296,16.3379 172.4382,40.1696" stroke="rgb(0%,0%,0%)" /><polyline fill="none" points="161.3835,64.3158 201.3087,46.9104 206.3117,58.3864 166.3864,75.7917 171.3744,87.2333 211.2996,69.8279 216.3026,81.3039 176.3773,98.7093 181.3653,110.1508 221.2905,92.7454 226.2934,104.2214 186.3682,121.6268 191.3562,133.0683 231.2814,115.663 236.2843,127.1389 196.3591,144.5443 201.347,155.9859 241.2723,138.5805 246.2752,150.0564 206.35,167.4618 211.3379,178.9034 218.8361,167.4548 218.8361,211.0091 206.317,211.0091 206.317,167.4548 193.8355,167.4548 193.8355,211.0091 181.3164,211.0091 181.3164,167.4548 168.8349,167.4548 168.8349,211.0091 156.3158,211.0091 156.3158,167.4548 143.8343,167.4548 143.8343,211.0091 131.3152,211.0091 131.3152,167.4548 118.8337,167.4548 118.8337,211.0091 106.3146,211.0091 106.3146,167.4548 93.8331,167.4548 79.7558,162.9359 49.2362,184.5835 41.4024,173.5391 71.9219,151.8915 64.1022,140.8669 33.5826,162.5145 25.7488,151.4701 56.2684,129.8225 48.4486,118.798 17.9291,140.4456 10.0952,129.4012 40.6148,107.7536 32.7951,96.729 33.6503,87.3216 0.0,65.2824 7.5611,53.7379 41.2114,75.777 48.7634,64.2463 15.1131,42.2071 22.6741,30.6626 56.3244,52.7017 63.8764,41.171 72.1583,36.6275 79.8058,0.0 93.0605,2.7675 85.4131,39.395 98.644,42.1575 106.2915,5.5299 119.5462,8.2974 111.8988,44.9249 125.1297,47.6874 132.7772,11.0599 146.0319,13.8273 138.3845,50.4548 151.6154,53.2173 161.3835,64.3158" stroke="rgb(100%,0%,0%)" /><polyline fill="none" points="172.4382,40.1696 236.5526,187.2379 76.1165,187.2379 8.6563,92.13 58.296,16.3379" stroke="rgb(0%,100%,0%)" /></svg>