<?xml version="1.0" encoding="utf-8" ?>
<svg baseProfile="full" height="61mm" version="1.1" width="70mm" xmlns="http://www.w3.org/2000/svg" xmlns:ev="http://www.w3.org/2001/xml-events" xmlns:xlink="http://www.w3.org/1999/xlink"><defs /><circle cx="212.92496427231018" cy="171.89806763179772" r="15" style="fill:none;stroke:#ff00dd" /><circle cx="89.5391310173382" cy="171.89806763179766" r="15" style="fill:none;stroke:#ff00dd" /><circle cx="36.61441926148004" cy="97.28272737232484" r="15" style="fill:none;stroke:#ff00dd" /><circle cx="74.06853817391061" cy="40.09605025670671" r="15" style="fill:none;stroke:#ff00dd" /><circle cx="163.61678510224985" cy="58.79284819491934" r="15" style="fill:none;stroke:#ff00dd" /><polyline points="243.13070030840058,191.68112305556508 82.69460600066337,191.68112305556508 15.234446240420509,96.5731364936588 64.87408710287832,20.78104215087944 179.01632974776834,44.61282579990772 243.13070030840058,191.68112305556508" style="fill:none;stroke:#000000" /><polyline points="172.9525267983951,80.20757351881969 216.12596083997067,61.38613069144574 221.12851138983112,72.86119602968495 177.9550773482556,91.68263885705886 182.94563616687384,103.13019704706423 226.11907020844941,84.30875421969026 231.1216207583099,95.78381955792945 187.94818671673434,114.6052623853034 192.93874553535264,126.05282057530871 236.11217957692824,107.23137774793476 241.11473012678871,118.70644308617399 197.9412960852131,137.5278859135479 202.93185490383144,148.97544410355323 246.10528894540704,130.15400127617926 251.1078394952675,141.6290666144185 207.93440545369185,160.4505094417924 212.92496427231018,171.89806763179772 212.92496427231018,171.89806763179772 212.92496427231018,218.99558964223345 200.40688279953028,218.99558964223345 200.40688279953028,171.89806763179772 187.9188087134211,171.89806763179772 187.9188087134211,218.9955896422334 175.40072724064117,218.99558964223345 175.40072724064117,171.89806763179772 162.91265315453194,171.89806763179766 162.91265315453194,218.9955896422334 150.39457168175204,218.99558964223334 150.39457168175204,171.89806763179766 137.9064975956428,171.8980676317976 137.9064975956428,218.99558964223334 125.38841612286295,218.99558964223334 125.38841612286295,171.8980676317976 112.90034203675371,171.8980676317976 89.09263330400147,171.2685775939608 55.68297363023974,194.96607199586663 49.1153251428182,185.70674284062886 82.5249848165799,162.0092484387231 75.97307979337108,152.77211503855182 42.563420119609376,176.46960944045762 35.99577163218784,167.2102802852199 69.40543130594956,143.51278588331405 62.85352628274074,134.2756524831428 29.443866608979036,157.97314688504866 22.87621812155748,148.7138177298109 56.28587779531918,125.01632332790504 49.733972772110405,115.77918992773385 16.3243130983487,139.47668432963965 9.756664610927114,130.21735517440192 43.16632428468884,106.51986077249609 36.61441926148004,97.28272737232484 36.61443658040661,97.28270092898865 0.0,73.30226473715283 6.2479683808230515,63.762578294171696 42.86240496122966,87.74301448600751 49.09913711157461,78.22048403822801 12.484700531168007,54.24004784639219 18.73266891199101,44.70036140341101 55.347105492397645,68.68079759524683 61.583837642742594,59.15826714746738 24.969401062335987,35.17783095563151 31.217369443159015,25.63814451265037 67.83180602356562,49.61858070448619 74.06853817391061,40.09605025670671 74.06853817391061,40.09605025670671 82.44020122131771,0.0 93.55262473084849,2.3201653196830203 85.18096168344142,42.41621557638971 96.2667473419705,44.7308191733727 104.63841038937761,4.63476891666599 115.7508338989084,6.9549342363489846 107.37917085150129,47.0509844930557 118.4649565100304,49.36558809003869 126.83661955743747,9.26953783333198 137.9490430669683,11.589703153014975 129.5773800195612,51.68575340972169 140.6631656780903,54.00035700670468 149.03482872549736,13.90430674999797 160.14725223502813,16.224472069680964 151.77558918762114,56.320522326387675 162.8613748461502,58.63512592337067 172.9525267983951,80.20757351881969" style="fill:none;stroke:#ff0000" /><polyline points="212.92496427231018,171.89806763179772 89.5391310173382,171.89806763179766 36.61441926148004,97.28272737232484 74.06853817391061,40.09605025670671 163.61678510224985,58.79284819491934 212.92496427231018,171.89806763179772" style="fill:none;stroke:#00ff00" /><polyline points="206.38174147854465,65.63411956886183 246.3541789524598,157.3246136818399" style="fill:none;stroke:#0000ff" /><polyline points="212.92496427231018,208.36566864223346 112.90034203675371,208.36566864223335" style="fill:none;stroke:#0000ff" /><polyline points="64.35329154609161,188.81620958242198 11.87507750357023,114.830359360786" style="fill:none;stroke:#0000ff" /><polyline points="8.892443290710474,79.12632455722157 46.34654488421447,21.93967388493961" style="fill:none;stroke:#0000ff" /><polyline points="80.26762745697438,10.405534282521403 169.06046412921398,28.944609949185363" style="fill:none;stroke:#0000ff" /></svg>