<?xml version="1.0" encoding="utf-8" ?>
<svg baseProfile="tiny" height="52mm" version="1.2" width="55mm" xmlns="http://www.w3.org/2000/svg" xmlns:ev="http://www.w3.org/2001/xml-events" xmlns:xlink="http://www.w3.org/1999/xlink"><defs /><polyline fill="none" points="191.6345,110.5636 171.089,156.5282" stroke="rgb(0%,0%,100%)" /><polyline fill="none" points="133.6799,180.0121 54.0679,180.0121" stroke="rgb(0%,0%,100%)" /><polyline fill="none" points="18.7393,152.4984 4.6033,79.5495" stroke="rgb(0%,0%,100%)" /><polyline fill="none" points="23.2399,37.8558 87.0222,-0.2647" stroke="rgb(0%,0%,100%)" /><polyline fill="none" points="131.085,7.7084 184.1823,67.0274" stroke="rgb(0%,0%,100%)" /><polyline fill="none" points="186.4012,88.8186 151.3964,167.1317 36.3513,167.1317 15.4746,59.3968 109.6718,3.0984 186.4012,88.8186" stroke="rgb(0%,0%,0%)" /><polyline fill="none" points="163.3759,97.9324 198.1042,113.4555 192.9648,124.9535 158.2365,109.4305 153.1032,120.9147 187.8315,136.4378 182.692,147.9358 147.9637,132.4127 142.8304,143.897 133.6799,150.4314 133.6799,187.0987 120.3993,187.0987 120.3993,150.4314 107.1425,150.4314 107.1425,187.0987 93.8619,187.0987 93.8619,150.4314 80.6052,150.4314 80.6052,187.0987 67.3246,187.0987 67.3246,150.4314 54.0679,150.4314 50.6368,146.3174 11.7821,153.8466 9.424,141.6775 48.2787,134.1483 45.9248,122.0011 7.0701,129.5303 4.712,117.3612 43.5667,109.832 41.2128,97.6847 2.3581,105.214 0.0,93.0449 38.8547,85.5157 36.5009,73.3684 39.9083,65.7451 19.6043,31.7728 30.2442,25.4137 50.5483,59.386 61.1691,53.0383 40.8651,19.066 51.505,12.7068 71.8091,46.6791 82.4299,40.3314 62.1258,6.3591 72.7658,0.0 93.0699,33.9723 103.6907,27.6246 109.0445,27.4372 136.3653,2.982 145.2228,12.8774 117.902,37.3326 126.7436,47.2102 154.0644,22.755 162.9219,32.6504 135.6011,57.1056 144.4427,66.9832 171.7635,42.528 180.621,52.4234 153.3002,76.8786 162.1418,86.7562 163.3759,97.9324" stroke="rgb(100%,0%,0%)" /><polyline fill="none" points="186.4012,88.8186 151.3964,167.1317 36.3513,167.1317 15.4746,59.3968 109.6718,3.0984" stroke="rgb(0%,100%,0%)" /></svg>