<?xml version="1.0" encoding="utf-8" ?>
<svg baseProfile="full" height="52mm" version="1.1" width="59mm" xmlns="http://www.w3.org/2000/svg" xmlns:ev="http://www.w3.org/2001/xml-events" xmlns:xlink="http://www.w3.org/1999/xlink"><defs /><polyline points="210.0611704307528,166.33269777582592 65.66868099181681,166.33269777582592 4.954503898305305,80.7354889801402 49.63022861611769,12.522621690260861 152.35845015160137,33.971157436562756 210.0611704307528,166.33269777582592" style="fill:none;stroke:#000000" /><polyline points="83.69582637320003,2.244981660952316 76.77260166736896,35.40391474181672 86.83128700099581,37.50405887508503 93.75451170847687,4.345125795870606 104.50689947668666,6.590107456822922 97.5836747692056,39.74904053768733 107.64236010448244,41.84918467095564 114.56558481196349,8.690251591741212 125.3179725785233,10.935233252693529 118.39474787104223,44.094166333557936 128.62685881455232,46.23051984874725 137.08488801087307,47.99646438513724 143.41668968418065,62.52068470881405 180.09368406565267,46.531430262598796 184.48325691168066,56.60046376162981 147.80626253185864,72.58971820784507 151.91263713113963,82.00913664311439 188.58963151261165,66.01988219854913 192.97920435863963,76.08891569593015 156.30220997881761,92.07817014214541 160.40858457809864,101.49758857741473 197.08557895957063,85.50833413119949 201.4751518055986,95.5773676302305 164.7981574257766,111.56662207644575 168.90453202505762,120.98604051336507 205.5815264065296,104.99678606714981 209.97109925255762,115.06581956618082 173.29410487273557,131.0550740123961 177.47127903370335,140.63689621484332 180.1261204478019,146.72671134136544 173.65994942192518,146.72671134136544 173.65994942192518,186.73782996439795 162.67569772324515,186.73782996439795 162.67569772324515,146.72671134136544 152.40010742192516,146.72671134136544 152.40010742192516,186.73782996439795 141.41585572324516,186.73782996439795 141.41585572324516,146.72671134136544 131.14026542192516,146.72671134136544 131.14026542192516,186.73782996439795 120.15601372324515,186.73782996439795 120.15601372324515,146.72671134136544 109.88042342192517,146.72671134136544 109.88042342192517,186.73782996439795 98.89617172324515,186.73782996439795 98.89617172324515,146.72671134136544 72.42149141222762,146.72671134136544 67.52525362687153,139.82380483362013 39.89596135930402,159.42128665928266 33.54110224572158,150.4619590617579 61.17039451328909,130.86447723609538 55.22552630818457,122.48317077054163 27.596234040617066,142.08065259620417 21.241374927034624,133.12132499702943 48.870667194602134,113.52384317136692 42.925798987847635,105.14253670581316 15.296506720280128,124.74001853147568 8.941647608347669,115.78069093395095 36.57093987591518,96.18320910828842 30.523573943278684,87.6573973601544 26.120069684828103,81.44916574778429 30.686194511346788,74.4774049365329 0.0,54.37961352011939 6.018200754768051,45.190759127368494 36.70439526611484,65.28855054213203 42.33432500391399,56.692525462274766 11.648130492567201,36.59473404751123 17.66633124733525,27.405879654760334 48.35252575868204,47.50367106952387 54.07952325072342,38.7594386614432 58.7427157819849,31.63947059786752 66.02021390080915,33.15893307921443 72.94343860664023,0.0 83.69582637320003,2.244981660952316" style="fill:none;stroke:#ff0000" /><polyline points="128.151618766283,58.98128203551549 160.92037051199338,134.14797149202542 78.92107794201878,134.14797149202542 41.34148572489775,81.16680044274474 64.56674403239678,45.705451515816584 128.151618766283,58.98128203551549" style="fill:none;stroke:#ff0000" /></svg>