<?xml version="1.0" encoding="utf-8" ?>
<svg baseProfile="full" height="46mm" version="1.1" width="49mm" xmlns="http://www.w3.org/2000/svg" xmlns:ev="http://www.w3.org/2001/xml-events" xmlns:xlink="http://www.w3.org/1999/xlink"><defs /><polyline points="134.99378597582117,148.70596435986036 31.45326231699111,148.70596435986036 12.664191247214934,51.744485873640386 97.44173630682636,1.0757049966232226 166.49818515678498,78.22391892136334 134.99378597582117,148.70596435986036" style="fill:none;stroke:#000000" /><polyline points="82.19913187432888,30.930990858454518 91.17151578555682,25.568488864820047 95.09244613918872,23.225076339355596 99.47071361474367,28.116372103573145 124.15124444593658,6.024482629695736 131.4772013636261,14.208866577628935 106.79667053078322,36.30075605150634 113.64998506743146,43.957115230734146 138.33051590192434,21.86522575850672 145.65647281961387,30.04960970643992 120.97594198677096,52.141499180317325 127.82925652341922,59.79785835954513 152.5097873579121,37.70596888566772 159.8357442756016,45.89035283360092 135.1552134427587,67.98224230747833 142.12668857466727,75.77060768053246 146.60226645230543,80.77061629888239 143.8599082082981,86.90585529065378 175.35349223547587,100.98300694558446 170.8711027680923,111.01106608285642 139.3775187425645,96.93391442462575 135.18431569200564,106.31500200678336 166.67789971753345,120.39215366501402 162.19551025179985,130.42021280228596 130.70192622462207,116.3430611440553 126.43642657150701,125.8858916149915 123.62177172494346,132.1828734938915 117.08831797101725,132.1828734938915 117.08831797101725,165.3067836429499 106.10406627233723,165.3067836429499 106.10406627233723,132.1828734938915 95.82847597266722,132.1828734938915 95.82847597266722,165.3067836429499 84.84422427398721,165.3067836429499 84.84422427398721,132.1828734938915 74.56863397266723,132.1828734938915 74.56863397266723,165.3067836429499 63.58438227398721,165.3067836429499 63.58438227398721,132.1828734938915 46.38974556296598,132.1828734938915 45.554496198855354,127.87254793850484 10.178581352396998,134.72764739148997 8.088938822856557,123.9439940444771 43.46485366931491,117.08889459149198 41.51002678742707,107.00096081536059 6.13411194096872,113.8560602683457 4.044469411428278,103.07240692133284 39.42038425788663,96.21730746834773 37.46555737599879,86.12937369386631 2.0896425311904214,92.98447314520145 0.0,82.20081979983857 35.37591484810834,75.34572034520347 33.38738405389485,65.08385667717671 32.5225863467515,60.621046147136965 36.272692192988444,58.37972987420217 17.786245140348466,27.448739014097672 27.214851962848154,21.81356743053091 45.70129901383815,52.744558287335444 54.5216086240588,47.47294615976171 36.035161569768846,16.54195529965721 45.463768392268534,10.906783716090445 63.95021544325853,41.83777457289498 72.77052505347918,36.56616244532125 54.28407799918922,5.635171586866727 63.71268482003893,0.0 82.19913187432888,30.930990858454518" style="fill:none;stroke:#ff0000" /><polyline points="131.79041550519318,83.08323833774384 115.46613238959739,119.60413364455147 56.7649840104562,119.60413364455147 46.55034727050548,66.89124130058428 92.63978141878559,39.34508579558155 131.79041550519318,83.08323833774384" style="fill:none;stroke:#ff0000" /></svg>