<?xml version="1.0" encoding="utf-8" ?>
<svg baseProfile="tiny" height="40mm" version="1.2" width="60mm" xmlns="http://www.w3.org/2000/svg" xmlns:ev="http://www.w3.org/2001/xml-events" xmlns:xlink="http://www.w3.org/1999/xlink"><defs /><polyline fill="none" points="196.6217,104.7896 183.1003,115.2899" stroke="rgb(0%,0%,100%)" /><polyline fill="none" points="146.5531,136.611 21.55,136.611" stroke="rgb(0%,0%,100%)" /><polyline fill="none" points="-17.0147,106.4781 -18.7923,98.6193" stroke="rgb(0%,0%,100%)" /><polyline fill="none" points="3.0499,54.8226 115.8842,1.0251" stroke="rgb(0%,0%,100%)" /><polyline fill="none" points="158.0497,4.5417 174.7737,8.2006" stroke="rgb(0%,0%,100%)" /><polyline fill="none" points="203.0395,34.9968 210.6036,68.4372" stroke="rgb(0%,0%,100%)" /><polyline fill="none" points="205.7764,87.6932 164.2696,119.9264 3.8335,119.9264 -5.7614,77.5077 139.0566,8.4609 190.395,19.6928 205.7764,87.6932" stroke="rgb(0%,0%,0%)" /><polyline fill="none" points="183.6648,88.105 146.5531,100.1433 146.5531,143.6976 134.034,143.6976 134.034,100.1433 121.5525,100.1433 121.5525,143.6976 109.0334,143.6976 109.0334,100.1433 96.5518,100.1433 96.5518,143.6976 84.0328,143.6976 84.0328,100.1433 71.5512,100.1433 71.5512,143.6976 59.0322,143.6976 59.0322,100.1433 46.5506,100.1433 46.5506,143.6976 34.0316,143.6976 34.0316,100.1433 21.55,100.1433 19.7854,98.154 18.7445,87.7404 0.0,48.4258 11.3004,43.038 30.0449,82.3525 41.3114,76.9809 22.5669,37.6663 33.8672,32.2785 52.6117,71.593 63.8782,66.2214 45.1337,26.9068 56.4341,21.519 75.1786,60.8335 86.4451,55.4618 67.7006,16.1473 79.0009,10.7595 97.7455,50.074 109.012,44.7023 90.2675,5.3878 101.5678,0.0 120.3123,39.3145 131.5788,33.9428 153.5347,25.1784 180.7459,40.0395 209.9515,33.4333 213.7347,50.1585 184.5291,56.7647 188.31,73.4799 183.6648,88.105" stroke="rgb(100%,0%,0%)" /><polyline fill="none" points="205.7764,87.6932 164.2696,119.9264 3.8335,119.9264 -5.7614,77.5077 139.0566,8.4609 190.395,19.6928" stroke="rgb(0%,100%,0%)" /></svg>