<?xml version="1.0" encoding="utf-8" ?>
<svg baseProfile="full" height="43mm" version="1.1" width="62mm" xmlns="http://www.w3.org/2000/svg" xmlns:ev="http://www.w3.org/2001/xml-events" xmlns:xlink="http://www.w3.org/1999/xlink"><defs /><circle cx="170.87472674291038" cy="106.52179783477406" r="15" style="fill:none;stroke:#ff00dd" /><circle cx="22.946953912697683" cy="106.52179783477406" r="15" style="fill:none;stroke:#ff00dd" /><circle cx="20.269439952283125" cy="94.68466685646443" r="15" style="fill:none;stroke:#ff00dd" /><circle cx="153.79684330184259" cy="31.021025545575714" r="15" style="fill:none;stroke:#ff00dd" /><circle cx="181.3376893908763" cy="37.046487642960194" r="15" style="fill:none;stroke:#ff00dd" /><circle cx="193.14139552302933" cy="89.23001979956231" r="15" style="fill:none;stroke:#ff00dd" /><polyline points="166.98117820116832,126.30492872610664 6.545095694565442,126.30492872610664 -3.0498514312497416,83.88623454284856 141.76822432870574,14.839388732637433 193.106541526772,26.071327047837674 208.4879596058588,94.07172590203677 166.98117820116832,126.30492872610664" style="fill:none;stroke:#000000" /><polyline points="188.35679223246862,92.94563163642582 207.8334887152321,118.02582573962837 199.08983366062955,124.81594526373222 179.61313717786607,99.73575116052967 170.87472674291038,106.52179783477406 150.57931998303607,106.52179783477396 150.57931998303607,153.61948479545583 139.92414462226398,153.61948479545583 139.92414462226398,106.52179783477396 129.30725897131305,106.52179783477396 129.30725897131305,153.6194847954559 118.65208361054093,153.6194847954559 118.65208361054093,106.52179783477396 108.03519795958998,106.521797834774 108.03519795958998,153.6194847954559 97.38002259881787,153.6194847954559 97.38002259881787,106.521797834774 86.76313694786688,106.521797834774 86.76313694786688,153.6194847954559 76.10796158709478,153.6194847954559 76.10796158709478,106.521797834774 65.49107593614379,106.521797834774 65.49107593614379,153.6194847954559 54.835900575371724,153.6194847954559 54.835900575371724,106.52179783477406 44.21901492442073,106.52179783477406 44.21901492442073,153.6194847954559 33.56383956364867,153.61948479545595 33.56383956364867,106.52179783477406 22.946953912697683,106.52179783477406 22.946937938570052,106.52172721410082 20.269439952283125,94.68466685646443 0.0,52.17177207934339 9.617917279917105,47.58610935763617 29.88735723220023,90.09900413475721 39.4707122220318,85.52982013714477 19.201272269748674,43.016925360023706 28.81918954966578,38.43126263831648 49.08862950194885,80.94415741543752 58.67198449178047,76.37497341782506 38.40254453949735,33.86207864070402 48.0204618194144,29.276415918996772 68.28990177169753,71.78931069611781 77.87325676152909,67.22012669850535 57.60381680924602,24.707231921384313 67.22173408916308,20.12156919967706 87.4911740414462,62.63446397679812 97.07452903127772,58.06527997918564 76.8050890789947,15.55238520206463 86.42300635891175,10.96672248035738 106.69244631119483,53.47961725747842 116.27580130102639,48.910433259865954 96.00636134874337,6.3975384827449195 105.62427862866042,1.8118757610376945 125.8937185809435,44.32477053815873 135.47707357077508,39.755586540546275 153.79684330184259,31.021025545575714 160.58370863788215,0.0 171.39840596444435,2.366069242216758 164.6115406284048,33.38709478779245 175.41975108263276,35.751744814228616 181.3376893908763,37.046487642960194 213.99931864123712,29.658557820355817 216.9520127232369,42.71225509573309 184.29038347287602,50.10018491833749 187.23953644664235,63.13822715001058 219.9011656970031,55.75029732740617 222.85385977900282,68.8039946027835 190.19223052864206,76.19192442538788 193.1413835024084,89.22996665706096 188.35679223246862,92.94563163642582" style="fill:none;stroke:#ff0000" /><polyline points="170.87472674291038,106.52179783477406 22.946953912697683,106.52179783477406 20.269439952283125,94.68466685646443 153.79684330184259,31.021025545575714 181.3376893908763,37.046487642960194 193.14139552302933,89.23001979956231 170.87472674291038,106.52179783477406" style="fill:none;stroke:#00ff00" /><polyline points="201.31363287426572,109.63018995195526 183.83156738470745,123.20635615030349" style="fill:none;stroke:#0000ff" /><polyline points="150.57931998303607,142.98956379545584 22.946953912697683,142.98956379545595" style="fill:none;stroke:#0000ff" /><polyline points="-13.853134715646583,114.84576354152564 -16.53063270193356,103.00870318388925" style="fill:none;stroke:#0000ff" /><polyline points="4.5747965645760535,61.7668988038314 119.78243018306804,6.837818487913251" style="fill:none;stroke:#0000ff" /><polyline points="158.31180312506714,10.384299004125495 179.93471090585732,15.115018272778398" style="fill:none;stroke:#0000ff" /><polyline points="203.6313263062533,32.0037561931931 215.43502041778544,84.18723520729384" style="fill:none;stroke:#0000ff" /></svg>