<?xml version="1.0" encoding="utf-8" ?>
<svg baseProfile="full" height="46mm" version="1.1" width="49mm" xmlns="http://www.w3.org/2000/svg" xmlns:ev="http://www.w3.org/2001/xml-events" xmlns:xlink="http://www.w3.org/1999/xlink"><defs /><polyline points="134.99413155184746,148.70593328263487 31.453557075306033,148.70593328263487 12.664294988887177,51.74463761549451 97.4417828162386,1.0758918510786606 166.498379565044,78.22409622032643 134.99413155184746,148.70593328263487" style="fill:none;stroke:#000000" /><polyline points="82.19931501725873,30.931256940974205 91.17169896973618,25.568755018288915 95.09252094437274,23.225407310674093 99.47081649930263,28.116723364706758 124.15147963586391,6.024665412929741 131.47744576869675,14.209041112608425 106.79678263048548,36.30109906438544 113.65010578828394,43.957450529952546 138.33076892484522,21.865392578175527 145.65673505767805,30.049768276204233 120.97607192111677,52.14182622798125 127.82939507726523,59.798177693548354 152.5100582154765,37.70611974177133 159.83602434830934,45.89049544145002 135.15536121009808,67.98255339322704 142.12684511165511,75.77091091567205 146.60245134256505,80.77093988158643 143.8601767245396,86.90600309099275 175.35367966010614,100.9830925729932 170.8712970731429,111.01115478582955 139.37779413757636,96.93406530217912 135.184597525243,106.31515576190341 166.67810046080953,120.39224524555384 162.19571787384632,130.4203074567402 130.70221493827975,116.34321797308976 126.43672183228892,125.88605137109207 123.62215070740616,132.18285754517612 117.08871523361832,132.18285754517612 117.08871523361832,165.30673295058676 106.1044635349383,165.30673295058676 106.1044635349383,132.18285754517612 95.8288732352683,132.18285754517612 95.8288732352683,165.30673295058676 84.84462153658829,165.30673295058676 84.84462153658829,132.18285754517612 74.5690312352683,132.18285754517612 74.5690312352683,165.30673295058676 63.584779536588286,165.30673295058676 63.584779536588286,132.18285754517612 46.39016152480058,132.18285754517612 45.55492052939307,127.8726271194382 10.178699583428292,134.72786850708022 8.089032781018847,123.94421986581287 43.46525372698363,117.08897847817086 41.51040413805866,107.00104910088855 6.134183192093879,113.85629048688057 4.044516389684434,103.07264184561323 39.420737335649214,96.21740045797122 37.46588774837423,86.1294710823389 2.089666802409445,92.98471246833091 0.0,82.20106382706358 35.37622094596478,75.34582244107156 33.38766705366869,65.08396324614301 32.522877251583836,60.621247293008395 36.27287511812081,58.379995593726065 17.786269365368025,27.448738652751857 27.214876232417197,21.81356714178425 45.70148198516998,52.744824082758456 54.52179163334019,47.473212022833934 36.035185882237386,16.54195508185973 45.46379274928656,10.906783570892125 63.95039850038936,41.83804051186633 72.77070815020956,36.56642845194181 54.28410239745678,5.635171510967606 63.712709264505946,0.0 82.19931501725873,30.931256940974205" style="fill:none;stroke:#ff0000" /><polyline points="131.79060037895297,83.0835756697387 115.46650524238105,119.60411769583611 56.76537618451619,119.60411769583611 46.55065632017776,66.8914316836303 92.639866381252,39.345410599271446 131.79060037895297,83.0835756697387" style="fill:none;stroke:#ff0000" /></svg>