<?xml version="1.0" encoding="utf-8" ?>
<svg baseProfile="full" height="50mm" version="1.1" width="62mm" xmlns="http://www.w3.org/2000/svg" xmlns:ev="http://www.w3.org/2001/xml-events" xmlns:xlink="http://www.w3.org/1999/xlink"><defs /><polyline points="141.08749805587283,162.64118314264985 36.144039766002685,162.64118314264985 6.352965778270772,86.73728424063334 83.280352638088,15.355867970306178 224.62465354313187,44.86732674612271 141.08749805587283,162.64118314264985" style="fill:none;stroke:#000000" /><polyline points="120.32356679701195,2.24500393239449 112.14593633969677,41.41153476307295 122.20461732397399,43.51169973065007 130.38224778128918,4.34516889997161 141.13463089985277,6.59017283071612 132.95700044253758,45.75670366139458 143.01568142846477,47.85686863062168 151.19331188413,8.690337798293239 161.94569500269358,10.93534173068773 153.7680645453784,50.10187256136619 163.8267455313056,52.202037528943315 172.00437598862078,13.03550669826485 182.7567591055344,15.28051062900936 174.5791286482192,54.447041459687824 184.81123516648051,56.58341616888178 191.31426967785603,57.94119312633602 187.5733415286232,63.21529579282795 220.20830334390672,86.36331830634948 213.85344152930554,95.32264399154636 181.218479715672,72.17462147637485 175.27360898444672,80.55592615004934 207.90857079973026,103.70394866522086 201.55370898512908,112.66327434711778 168.91874717149554,89.51525183359625 162.97387644027026,97.89655650727074 195.6088382555538,121.04457901914229 189.2539764426026,130.00390470433916 156.61901462731907,106.85588219081765 150.6741438960938,115.23718686284217 183.30910571137733,138.38520937966365 176.95424389512615,147.34453506156058 144.31928208149264,124.19651254803905 138.27191357983588,132.72232247294417 129.00286152889558,145.79018430004888 120.53961157521309,145.79018430004888 120.53961157521309,179.66440540515998 109.55535987653307,179.66440540515998 109.55535987653307,145.79018430004888 99.27976957521308,145.79018430004888 99.27976957521308,179.66440540515998 88.29551787653307,179.66440540515998 88.29551787653307,145.79018430004888 78.01992757521309,145.79018430004888 78.01992757521309,179.66440540515998 67.03567587818306,179.66440540515998 67.03567587818306,145.79018430004888 48.971268391189355,145.79018430004888 45.92648718924047,138.03246584050984 11.780429071258729,151.43425097354137 7.767315872084315,141.20934472442593 41.913373990066056,127.8075595913944 38.15917131880613,118.24232470962355 4.013113199174413,131.6441098410051 0.0,121.41920359188967 34.14605811798174,108.01741846050811 30.327127814743196,98.2872657373136 27.217618979165707,90.3646294363509 32.66727262893641,85.30786081673483 9.626558905101453,60.47700160027299 17.67841648458014,53.00563124721648 40.719130208415095,77.83649046532831 48.25151310305809,70.8471440058577 25.21079937922313,46.01628478774587 33.26265695705184,38.54491443468936 56.30337068088679,63.375773654451166 63.835753577179766,56.386427194980556 40.795039851694824,31.55556797521875 48.84689743117351,24.084197622162236 71.88761115170851,48.91505684027406 79.54986271797291,41.805204408644464 85.88351308597903,35.92816955826508 101.39355322113317,39.16653083232844 109.57118367844835,0.0 120.32356679701195,2.24500393239449" style="fill:none;stroke:#ff0000" /><polyline points="169.9430431466024,66.32905988954428 122.50327739982664,133.21144445070888 57.54720400321295,133.21144445070888 42.06001703904839,93.75204550347696 89.67500470516234,49.56979267915494 169.9430431466024,66.32905988954428" style="fill:none;stroke:#ff0000" /></svg>