<?xml version="1.0" encoding="utf-8" ?>
<svg baseProfile="tiny" height="53mm" version="1.2" width="55mm" xmlns="http://www.w3.org/2000/svg" xmlns:ev="http://www.w3.org/2001/xml-events" xmlns:xlink="http://www.w3.org/1999/xlink"><defs /><polyline fill="none" points="188.3132,75.9096 173.1678,154.0677" stroke="rgb(0%,0%,100%)" /><polyline fill="none" points="139.4358,183.5168 65.1298,183.5168" stroke="rgb(0%,0%,100%)" /><polyline fill="none" points="27.7427,157.289 2.4522,87.4194" stroke="rgb(0%,0%,100%)" /><polyline fill="none" points="18.6624,45.678 86.9993,4.8352" stroke="rgb(0%,0%,100%)" /><polyline fill="none" points="131.1582,5.8014 172.3749,34.7161" stroke="rgb(0%,0%,100%)" /><polyline fill="none" points="179.0385,56.0663 157.1523,169.0103 47.4133,169.0103 10.0629,65.8231 108.8147,6.8024 179.0385,56.0663" stroke="rgb(0%,0%,0%)" /><polyline fill="none" points="159.2728,70.2822 195.2704,77.2578 192.7439,90.2959 156.7463,83.3203 154.2244,96.3349 190.2219,103.3105 187.6954,116.3486 151.6978,109.373 149.1759,122.3876 185.1735,129.3632 182.647,142.4012 146.6494,135.4257 144.1274,148.4403 139.4358,151.0261 139.4358,190.6035 127.0403,190.6035 127.0403,151.0261 114.6671,151.0261 114.6671,190.6035 102.2716,190.6035 102.2716,151.0261 89.8984,151.0261 89.8984,190.6035 77.503,190.6035 77.503,151.0261 65.1298,151.0261 58.294,146.2304 21.0792,159.701 16.8603,148.0455 54.0751,134.575 49.8638,122.9406 12.6491,136.4111 8.4302,124.7557 45.6449,111.2852 41.4336,99.6507 4.2189,113.1212 0.0,101.4658 37.2148,87.9953 33.0035,76.3608 33.8379,71.0693 15.0268,39.595 26.4265,32.7817 45.2377,64.256 56.6169,57.455 37.8058,25.9807 49.2055,19.1675 68.0166,50.6417 79.3959,43.8407 60.5848,12.3665 71.9845,5.5532 90.7956,37.0275 102.1749,30.2265 113.3817,31.1411 135.2281,0.0 145.5384,7.233 123.6921,38.3741 133.9901,45.5984 155.8364,14.4573 166.1468,21.6903 144.3005,52.8314 154.5985,60.0557 159.2728,70.2822" stroke="rgb(100%,0%,0%)" /><polyline fill="none" points="179.0385,56.0663 157.1523,169.0103 47.4133,169.0103 10.0629,65.8231 108.8147,6.8024" stroke="rgb(0%,100%,0%)" /></svg>