<?xml version="1.0" encoding="utf-8" ?>
<svg baseProfile="full" height="36mm" version="1.1" width="52mm" xmlns="http://www.w3.org/2000/svg" xmlns:ev="http://www.w3.org/2001/xml-events" xmlns:xlink="http://www.w3.org/1999/xlink"><defs /><polyline points="141.41192156441875,108.26721684335064 -2.980552691523866,108.26721684335064 -11.616005104757514,70.09039207841836 118.72026307920243,7.948230849228351 164.92474855746204,18.05697533290855 178.7680248286402,79.25733430168775 141.41192156441875,108.26721684335064" style="fill:none;stroke:#000000" /><polyline points="147.4355876371877,2.3476356944748114 142.1633259764833,26.445795238856437 152.37455333120286,28.67983565867036 153.30383680127483,28.883146854482188 153.73199032164274,30.77598989062788 179.4816246824265,24.95152565091324 181.90499633329173,35.665117730092476 156.155361972508,41.48958196980712 158.42238706642382,51.511974561178 184.1720214272076,45.687510319813384 186.5953930797228,56.40110239899262 160.84575871893904,62.225566640357236 163.15187045126726,72.42075910285523 163.6191200957877,74.48644394274258 163.00769273939486,74.9612642342212 178.1378186610373,94.44436780988698 169.4623283495117,101.18155217816961 154.33220242621928,81.69844860250383 146.07649390092718,88.10964017760185 145.36618278501518,88.66125130115908 105.01061958950562,88.66125130115908 105.01061958950562,128.6723242609702 94.02636789082561,128.6723242609702 94.02636789082561,88.66125130115908 83.75077758950562,88.66125130115908 83.75077758950562,128.6723242609702 72.7665258908256,128.6723242609702 72.7665258908256,88.66125130115908 62.490935589505625,88.66125130115908 62.490935589505625,128.6723242609702 51.506683890825606,128.6723242609702 51.506683890825606,88.66125130115908 41.231093589505626,88.66125130115908 41.231093589505626,128.6723242609702 30.246841890825607,128.6723242609702 30.246841890825607,88.66125130115908 13.27973853245768,88.66125130115908 12.389496037576682,84.72554184421793 11.499253445346813,80.78983195663174 17.21957557501572,78.06247766708067 0.0,41.94633403985305 9.914964280367958,37.21904425676533 27.13453985703366,73.33518788399294 36.4098290238698,68.91288453847056 19.190253447204096,32.79674091124295 29.105217729222034,28.069451128155226 46.32479330588774,64.18559475538285 55.60008247272388,59.763291408210485 38.38050689605817,23.647147780982863 48.295471178076106,18.919857999545123 65.51504675474182,55.036001626772745 74.79033592157795,50.61369827960038 57.570760344912244,14.49755465237276 67.48572462693018,9.77026486928504 84.70530020359588,45.88640849651266 94.14050814922747,41.387858542011436 130.72743762868853,23.94382011494667 131.43288367362118,24.098159542731644 136.70514533432558,0.0 147.4355876371877,2.3476356944748114" style="fill:none;stroke:#ff0000" /><polyline points="142.80006974219995,39.46137120405002 149.58530613130694,69.45852610703454 141.05558250120893,76.08251145181907 50.60008451655052,76.08251145181907 132.24999158684685,37.153196073258805 142.80006974219995,39.46137120405002" style="fill:none;stroke:#ff0000" /></svg>