<?xml version="1.0" encoding="utf-8" ?>
<svg baseProfile="full" height="55mm" version="1.1" width="58mm" xmlns="http://www.w3.org/2000/svg" xmlns:ev="http://www.w3.org/2001/xml-events" xmlns:xlink="http://www.w3.org/1999/xlink"><defs /><circle cx="143.91999064402424" cy="154.90694746412228" r="15" style="fill:none;stroke:#ff00dd" /><circle cx="55.44437615592566" cy="154.90694746412234" r="15" style="fill:none;stroke:#ff00dd" /><circle cx="39.540908441498686" cy="72.83719658339407" r="15" style="fill:none;stroke:#ff00dd" /><circle cx="111.29805932957107" cy="29.950391314422014" r="15" style="fill:none;stroke:#ff00dd" /><circle cx="170.30697093525256" cy="95.87358745340808" r="15" style="fill:none;stroke:#ff00dd" /><polyline points="155.40682353160963,171.6072006106328 40.36169555343233,171.6072006106328 19.484841968389613,63.872321421762294 113.68204107238502,7.573863569708036 190.41156285163137,93.29405694837794 155.40682353160963,171.6072006106328" style="fill:none;stroke:#000000" /><polyline points="170.30697093525256,95.87358745340808 208.27017220485322,112.8425393055655 203.86839316334795,122.6902673887665 165.9051918937473,105.72131553660908 161.51132893004663,115.55133364823473 199.47453019964735,132.52028550039213 195.07275115814195,142.36801358359315 157.1095498885413,125.39906173143574 152.7156869248407,135.22907984306138 190.67888819444136,152.1980316952188 186.27710915293608,162.04575977841975 148.3139078833354,145.07680792626238 143.9200449196348,154.906826037888 140.32414292911633,154.90694746412223 140.32414292911633,195.1174645676853 126.16478316856856,195.1174645676853 126.16478316856856,154.90694746412228 112.03088733805275,154.90694746412228 112.03088733805275,195.11746456768532 97.871527577505,195.11746456768532 97.871527577505,154.90694746412228 83.73763174698921,154.90694746412228 83.73763174698921,195.11746456768532 69.57827198644148,195.11746456768532 69.57827198644148,154.90694746412234 55.44437615592566,154.90694746412234 55.44437615592566,154.90694746412234 13.111097318898947,163.110285795305 10.486990196883728,149.56859654518203 52.82026903391044,141.36525821399937 50.2008810574838,127.847922086716 7.8676022204570835,136.05126041789862 5.243495098441838,122.5095711677756 47.57677393546858,114.30623283659297 44.957385959041936,100.7888967093096 2.6241071220152197,108.99223504049223 0.0,95.45054579036928 42.33327883702669,87.24720745918658 39.713890860600074,73.72987133190324 40.321634071009036,72.37058346362933 18.199590802804668,35.3565231531618 30.0396414763538,28.280128099471558 52.161684744558166,65.29418840993905 63.98044249052973,58.230519413893575 41.85839922232534,21.21645910342605 53.69844989587447,14.140064049735779 75.82049316407884,51.15412436020328 87.63925091005038,44.09045536415779 65.51720764184604,7.0763950536902716 77.35725831539514,0.0 99.47930158359948,37.01406031046752 111.29805932957107,29.950391314422014 111.29805932957107,29.950391314422014 141.2591542873225,3.131734035670463 150.70273947472137,13.681857764849331 120.74164451696996,40.500515043600906 130.16824653588316,51.031665625899464 160.1293414936346,24.213008347147916 169.57292668103347,34.76313207632676 139.61183172328202,61.581789355078335 149.0384337421952,72.1129399373769 178.99952869994664,45.29428265862532 188.44311388734556,55.844406387804185 158.48201892959406,82.66306366655579 167.9086209485073,93.19421424885435 170.30697093525256,95.87358745340808" style="fill:none;stroke:#ff0000" /><polyline points="143.91999064402424,154.90694746412228 55.44437615592566,154.90694746412234 39.540908441498686,72.83719658339407 111.29805932957107,29.950391314422014 170.30697093525256,95.87358745340808 143.91999064402424,154.90694746412228" style="fill:none;stroke:#00ff00" /><polyline points="198.5655969383247,108.50474731394999 172.17867092270689,167.53798589842992" style="fill:none;stroke:#0000ff" /><polyline points="140.32414292911633,184.48754356768526 55.44437615592566,184.48754356768538" style="fill:none;stroke:#0000ff" /><polyline points="23.546888587862068,161.08803925818984 7.816403292536475,79.91096312597075" style="fill:none;stroke:#0000ff" /><polyline points="23.652972395049133,44.48098750322697 94.62939765361115,2.0607953540196595" style="fill:none;stroke:#0000ff" /><polyline points="133.33879070527783,10.221378680817422 189.94935232421403,73.46520161524971" style="fill:none;stroke:#0000ff" /></svg>