<?xml version="1.0" encoding="utf-8" ?>
<svg baseProfile="full" height="88mm" version="1.1" width="67mm" xmlns="http://www.w3.org/2000/svg" xmlns:ev="http://www.w3.org/2001/xml-events" xmlns:xlink="http://www.w3.org/1999/xlink"><defs /><polyline points="224.27839235825587,275.2103681198707 1.0500132180229016,275.21036811987074 155.19953595807837,-31.003112868877736 224.27839235825587,275.2103681198707" style="fill:none;stroke:#000000" /><polyline points="144.805004280215,12.662318824935484 147.1177834269577,8.068051252662142 147.8908722587716,11.495007556099479 186.40980058658988,2.805502737463224 188.82699986515976,13.520489113201345 150.30807153734148,22.209993931837598 152.56932247525202,32.23369086610872 191.08825080142034,23.544186047472465 193.50545007999023,34.259172423210586 154.9865217538219,42.94867724184684 157.24777269173245,52.97237417611796 195.76670101790077,44.28286935748171 198.18390029647065,54.99785573321983 159.66497197030233,63.68736055185608 161.92622290821288,73.7110574861272 200.4451512343812,65.02155266749095 202.86235051295108,75.73653904322907 164.34342218678276,84.42604386186532 166.60467312304334,94.44974079613644 205.12360145086163,85.76023597750019 207.5408007294315,96.47522235488829 169.02187240161322,105.16472717187456 171.28312333952377,115.18842410779567 209.80205166734206,106.49891928915942 212.21925094426197,117.21390566489752 173.70032261809365,125.90341048353379 175.9615735560042,135.9271074178049 214.48050188217252,127.23760259916865 216.8977011607424,137.95258897490677 178.37877283457408,146.642093793543 180.64002377248462,156.66579072781414 219.15895209865295,147.9762859091779 221.57615137722283,158.691272284916 183.0572230510545,167.38077710355228 185.31847398896505,177.40447403782338 223.83740231513337,168.71496921918714 226.25460159370326,179.42995559492525 187.73567326753493,188.1194604135615 189.99692420379552,198.14315734783264 228.5158525316138,189.45365252919638 230.93305181018368,200.16863890493448 192.4141234823654,208.85814372357075 194.67537442027594,218.88184065784188 233.19430274809423,210.1923358392056 235.61150202501415,220.90732221494375 197.09257369884583,229.59682703357998 199.35382463675637,239.6205239678511 237.8727529629247,230.93101914921485 240.28995224149457,241.64600552495298 218.78624743872965,246.49703733163744 218.78624743872965,242.71607580475222 208.51065713740965,242.71607580475222 208.51065713740965,248.81511302266452 201.77102391532625,250.33551034193925 204.0322748532368,260.3592072762104 208.51065713740965,259.3489267173536 208.51065713740965,313.13014069466334 197.52640543872965,313.13014069466334 197.52640543872965,242.71607580475222 187.25081513740966,242.71607580475222 187.25081513740966,313.13014069466334 176.26656343872963,313.13014069466334 176.26656343872963,242.71607580475222 165.99097313740967,242.71607580475222 165.99097313740967,313.13014069466334 155.00672143872964,313.13014069466334 155.00672143872964,242.71607580475222 144.73113113740965,242.71607580475222 144.73113113740965,313.13014069466334 133.74687943872965,313.13014069466334 133.74687943872965,242.71607580475222 123.47128913740966,242.71607580475222 123.47128913740966,313.13014069466334 112.48703743872964,313.13014069466334 112.48703743872964,242.71607580475222 102.21144713740966,242.71607580475222 102.21144713740966,313.13014069466334 91.22719543872964,313.13014069466334 91.22719543872964,242.71607580475222 80.95160513740966,242.71607580475222 80.95160513740966,313.13014069466334 69.96735343872965,313.13014069466334 69.96735343872965,242.71607580475222 59.69176313740966,242.71607580475222 59.69176313740966,313.13014069466334 48.70751143872965,313.13014069466334 48.70751143872965,242.71607580475222 38.43192113740966,242.71607580475222 38.43192113740966,313.13014069466334 27.447669440379627,313.13014069466334 27.447669440379627,242.71607580475222 17.17207913905964,242.71607580475222 17.17207913905964,246.32905395605204 0.0,237.68453642926906 4.939017472065764,227.8733238751161 30.092340400266757,240.5356427000516 34.71271158445085,231.35741159711986 9.55938865789984,218.69509277383438 14.498406128315622,208.88388021803144 39.651729056516615,221.54619904296692 44.27210024070071,212.3679679400352 19.118777314149696,199.7056491167497 24.05779478456548,189.89443656259675 49.21111771276647,202.55675538753223 53.83148889695057,193.37852428295054 28.678165970399554,180.716205461315 33.61718343916536,170.9049929055121 58.77050637066631,183.56731173044759 63.390877554850405,174.38908062751585 38.23755462664941,161.72676180423034 43.1765720970652,151.91554925007742 68.32989502691618,164.5778680750129 72.95026621110027,155.39963697208117 47.79694328289927,142.73731814879565 52.735960753315055,132.92610559299274 77.88928368316603,145.58842441792822 82.50965486735012,136.4101933149965 57.35633193914913,123.74787449171099 62.29534940956491,113.93666193755806 87.4486723394159,126.59898076249354 92.06904352524997,117.42074965791183 66.91572059704897,104.7584308362763 71.85473806746475,94.9472182804734 97.00806099731572,107.60953710540888 101.62843218149982,98.43130600247714 76.47510925329883,85.76898717919164 81.41412672371462,75.95777462503871 106.56744965356559,88.62009344997419 111.18782083774968,79.44186234704246 86.03449790954869,66.77954352375696 90.97351537996447,56.96833096795404 116.12683830981544,69.63064979288953 120.74720949564951,60.45241868995779 95.59388656579854,47.790099866672286 100.53290403786431,37.978887312519355 125.68622696771529,50.64120613745484 130.30659815189938,41.462975034523105 105.15327522369839,28.8006562112376 110.09229269411416,18.989443655434684 135.24561562396514,31.65176248037017 139.86598680814924,22.473531377438437 114.71266387994824,9.811212554152934 119.65168135036403,0.0 144.805004280215,12.662318824935484" style="fill:none;stroke:#ff0000" /><polyline points="240.68360971845695,300.5514008453233 -17.56485207611193,300.5514008453233 160.76765782677637,-53.70087097890282 240.68360971845695,300.5514008453233" style="fill:none;stroke:#ff0000" /></svg>