<?xml version="1.0" encoding="utf-8" ?>
<svg baseProfile="full" height="55mm" version="1.1" width="58mm" xmlns="http://www.w3.org/2000/svg" xmlns:ev="http://www.w3.org/2001/xml-events" xmlns:xlink="http://www.w3.org/1999/xlink"><defs /><circle cx="143.9200859269882" cy="154.907100558657" r="15" style="fill:none;stroke:#ff00dd" /><circle cx="55.44458649484533" cy="154.90710055865694" r="15" style="fill:none;stroke:#ff00dd" /><circle cx="39.54105100438145" cy="72.83749081286868" r="15" style="fill:none;stroke:#ff00dd" /><circle cx="111.29829678382079" cy="29.950520034051916" r="15" style="fill:none;stroke:#ff00dd" /><circle cx="170.30710918959647" cy="95.87360534952018" r="15" style="fill:none;stroke:#ff00dd" /><polyline points="155.4069350153309,171.6073416444242 40.36185226361824,171.6073416444242 19.48489438981951,63.872568680934926 113.68210308687668,7.57396227602846 190.41165502999374,93.29418935297042 155.4069350153309,171.6073416444242" style="fill:none;stroke:#000000" /><polyline points="170.30710918959647,95.87360534952018 208.27032968282273,112.84255456605321 203.86853569549635,122.690322602498 165.90531520227017,105.72137338596498 161.5114373196267,115.5514313789832 199.47465781285297,132.52038059551623 195.07286382552658,142.36814863196096 157.10964333230035,125.39919941542794 152.71576544965694,135.22925740844622 190.6789859428832,152.1982066249792 186.27719195555682,162.045974661424 148.31397146233058,145.07702544489092 143.92009357968718,154.9070834379092 140.32420078410382,154.90710055865677 140.32420078410382,195.11758996388735 126.16486646041734,195.1175899638874 126.16486646041734,154.90710055865682 112.03099602101764,154.90710055865688 112.03099602101764,195.1175899638874 97.87166169733118,195.1175899638874 97.87166169733118,154.90710055865688 83.7377912579315,154.90710055865688 83.7377912579315,195.11758996388747 69.57845693424504,195.11758996388747 69.57845693424504,154.90710055865694 55.44458649484533,154.907100558657 55.44458649484533,154.90710055865694 13.11117287538468,163.11051407573083 10.487050631194116,149.56882778622025 52.820464250654794,141.36541426914633 50.201061179248285,127.84808109715107 7.867647559787634,136.05149461422502 5.243525315597045,122.50980832471443 47.5769389350577,114.30639480764046 44.957535863651216,100.78906163564524 2.624122244190563,108.99247515271915 0.0,95.45078886320856 42.33341361946065,87.24737534613465 39.71401054805414,73.73004217413937 40.32164882244609,72.37095289812979 18.199448546605687,35.35672378499449 30.039536370695675,28.280288576051923 52.16173664653608,65.29451768918722 63.98053147623767,58.230808610103836 41.858331200397245,21.216579496968546 53.69841902448726,14.14014428802595 75.82061930032764,51.15437340116124 87.63941413002922,44.09066432207786 65.5172138541888,7.0764352089425735 77.35730167827882,0.0 99.4795019541192,37.01422911313529 111.29829678382079,29.950520034051916 111.29829678382079,29.950520034051916 141.25920230976567,3.132032318750548 150.70276151613558,13.682127022609825 120.74185599019071,40.50061473791119 130.16843207479872,51.03173634708873 160.12933760074358,24.213248631787362 169.57289680711347,34.76334333564659 139.6119912811686,61.58183105094798 149.0385673657766,72.11295266012552 178.99947289172147,45.294464944824156 188.44303209809138,55.84455964868341 158.4821265721465,82.6630473639848 167.90870265675454,93.19416897316233 170.30710918959647,95.87360534952018" style="fill:none;stroke:#ff0000" /><polyline points="143.9200859269882,154.907100558657 55.44458649484533,154.90710055865694 39.54105100438145,72.83749081286868 111.29829678382079,29.950520034051916 170.30710918959647,95.87360534952018 143.9200859269882,154.907100558657" style="fill:none;stroke:#00ff00" /><polyline points="198.56575334696382,108.5047649667609 172.17873773705452,167.5382430551499" style="fill:none;stroke:#0000ff" /><polyline points="140.32420078410382,184.48766896388736 55.44458649484533,184.48766896388744" style="fill:none;stroke:#0000ff" /><polyline points="23.546961885229656,161.08825588048484 7.81638593843847,79.91119749596729" style="fill:none;stroke:#0000ff" /><polyline points="23.652840332056485,44.48118204291965 94.62948829343118,2.0607491788417818" style="fill:none;stroke:#0000ff" /><polyline points="133.33883872772122,10.221676963897835 189.94924460065496,73.46532590300824" style="fill:none;stroke:#0000ff" /></svg>