<?xml version="1.0" encoding="utf-8" ?>
<svg baseProfile="full" height="55mm" version="1.1" width="58mm" xmlns="http://www.w3.org/2000/svg" xmlns:ev="http://www.w3.org/2001/xml-events" xmlns:xlink="http://www.w3.org/1999/xlink"><defs /><circle cx="143.91966202971287" cy="154.90719059830735" r="15" style="fill:none;stroke:#ff00dd" /><circle cx="55.444131515585894" cy="154.90719059830735" r="15" style="fill:none;stroke:#ff00dd" /><circle cx="39.54074171506742" cy="72.8373435965891" r="15" style="fill:none;stroke:#ff00dd" /><circle cx="111.29821006667233" cy="29.950239026146512" r="15" style="fill:none;stroke:#ff00dd" /><circle cx="170.30689609548628" cy="95.87333250956543" r="15" style="fill:none;stroke:#ff00dd" /><polyline points="155.40654443958206,171.6074468123757 40.3615181519931,171.6074468123757 19.48477251890845,63.872470716575734 113.68204480736559,7.573825297667788 190.41143241843073,93.29406299182348 155.40654443958206,171.6074468123757" style="fill:none;stroke:#000000" /><polyline points="170.3068571948917,95.87341953847407 208.27015679386247,112.8424353686991 203.86833285372458,122.69025227766363 165.90503325475382,105.7212364474386 161.5111254731654,115.55134322508515 199.47442507213623,132.52035905531022 195.07260113199828,142.3681759642747 157.10930153302752,125.39916013404968 152.71539375143917,135.22926691169624 190.67869335040993,152.1982827419213 186.27686941027198,162.0460996508858 148.31356981130122,145.07708382066076 143.91966202971287,154.90719059830735 140.32393107598926,154.90719059830735 140.32393107598926,195.11771474672838 126.16456584598797,195.11771474672838 126.16456584598797,154.9071905983074 112.03066455585484,154.9071905983074 112.03066455585484,195.11771474672838 97.8712993258535,195.11771474672838 97.8712993258535,154.90719059830735 83.73739803572035,154.90719059830735 83.73739803572035,195.11771474672838 69.57803280571906,195.11771474672838 69.57803280571906,154.90719059830735 55.444131515585894,154.90719059830735 55.444131515585894,154.90719059830735 13.111020961199976,163.11044652250504 10.486929121718072,149.56875393456906 52.82003967610401,141.36549801037143 50.200666954726856,127.84815855127778 7.86755640034094,136.0514144754754 5.243464560859036,122.50972188753943 47.57657511524495,114.30646596334178 44.95720239386782,100.78912650424813 2.6240918394819044,108.99238242844577 0.0,95.45068984050984 42.33311055438594,87.24743391631213 39.713737833008786,73.73009445721848 40.32141370256572,72.37076134484342 18.199372077455564,35.35679834392855 30.03948465759463,28.28034821246462 52.161526282704784,65.29431121337946 63.9803458239346,58.230587238611136 41.85830419882444,21.216624237696244 53.698416778963484,14.140174106232285 75.82045840407363,51.15413710714717 87.63927794530348,44.0904131323788 65.51723632019329,7.076450131463959 77.35734890033234,0.0 99.4793905254425,37.01396300091486 111.29821006667233,29.950239026146512 111.29821006667233,29.950239026146512 141.2589886096201,3.1319257340934663 150.70254854040223,13.682045149211923 120.74176999745441,40.50035844126497 130.16834680517195,51.0315047172614 160.12912534811966,24.21319142520835 169.5726852789018,34.76331084032678 139.61190673595397,61.58162413237983 149.03848354367145,72.11277040837625 178.9992620866192,45.29445711632321 188.44282201740128,55.84457653144167 158.48204347445352,82.6628898234947 167.908620282171,93.19403609949114 170.3068571948917,95.87341953847407" style="fill:none;stroke:#ff0000" /><polyline points="143.91966202971287,154.90719059830735 55.444131515585894,154.90719059830735 39.54074171506742,72.8373435965891 111.29821006667233,29.950239026146512 170.30689609548628,95.87333250956543 143.91966202971287,154.90719059830735" style="fill:none;stroke:#00ff00" /><polyline points="198.565583434553,108.5046391102262 172.17838826937415,167.53841017005948" style="fill:none;stroke:#0000ff" /><polyline points="140.32393107598926,184.48779374672836 55.444131515585894,184.48779374672836" style="fill:none;stroke:#0000ff" /><polyline points="23.546814522868733,161.08821181691962 7.816420840291623,79.91111567583074" style="fill:none;stroke:#0000ff" /><polyline points="23.652763934812203,44.481256558877945 94.62956029891882,2.0607342401810422" style="fill:none;stroke:#0000ff" /><polyline points="133.33861704560047,10.221561461978956 189.94902726109913,73.46535853532359" style="fill:none;stroke:#0000ff" /></svg>