<?xml version="1.0" encoding="utf-8" ?>
<svg baseProfile="full" height="55mm" version="1.1" width="58mm" xmlns="http://www.w3.org/2000/svg" xmlns:ev="http://www.w3.org/2001/xml-events" xmlns:xlink="http://www.w3.org/1999/xlink"><defs /><circle cx="143.91994393591995" cy="154.90680616246996" r="15" style="fill:none;stroke:#ff00dd" /><circle cx="55.444346582070175" cy="154.90680616246996" r="15" style="fill:none;stroke:#ff00dd" /><circle cx="39.540934721148574" cy="72.83690206128925" r="15" style="fill:none;stroke:#ff00dd" /><circle cx="111.2981507866547" cy="29.950097093048743" r="15" style="fill:none;stroke:#ff00dd" /><circle cx="170.3070347445732" cy="95.87336596466334" r="15" style="fill:none;stroke:#ff00dd" /><polyline points="155.40674054982514,171.60708773482185 40.36163814575263,171.60708773482182 19.48489164007687,63.872181624795566 113.68212534057857,7.573754626550668 190.41156030259276,93.29398575268354 155.40674054982514,171.60708773482185" style="fill:none;stroke:#000000" /><polyline points="170.30702023541843,95.87339842467684 208.2701821199425,112.84238069428478 203.8683780085812,122.69013699507765 165.90521612405715,105.72115472546969 161.51132813558564,115.55120100394126 199.4744900201097,132.5201832735492 195.07268590874833,142.36793957434205 157.1095240242243,125.39895730473408 152.7156360357528,135.22900358320558 190.67879792027685,152.19798585281356 186.27699380891553,162.04574215360637 148.31383192439148,145.07675988399842 143.91994393591995,154.90680616246996 140.32403211350763,154.90680616246993 140.32403211350763,195.1173885479172 126.16468590543836,195.11738854791722 126.16468590543836,154.90680616246996 112.03080360302852,154.90680616246996 112.03080360302852,195.11738854791722 97.87145739495918,195.1173885479172 97.87145739495918,154.90680616246993 83.7375750925493,154.90680616246996 83.7375750925493,195.11738854791722 69.57822888448004,195.1173885479172 69.57822888448004,154.90680616246993 55.444346582070175,154.90680616246996 55.444346582070175,154.90680616246996 13.11101740741094,163.11011012245217 10.4869262791985,149.56843056786917 52.82025545385776,141.365126607887 50.20088344247092,127.84780015870741 7.867554267811703,136.0511041186896 5.243463139599236,122.50942456410662 47.576792314258476,114.30612060412439 44.957420302871675,100.78879415494482 2.6240911282124406,108.992098114927 0.0,95.45041856034402 42.33332917465921,87.2471146003618 39.71395716327242,73.72978815118222 40.32151030688173,72.37037904459709 18.19965419605534,35.35659800191633 30.03974077208949,28.280187967698897 52.16159688291588,65.29396901037964 63.980390466806064,58.23028506074766 41.85853435597967,21.21650401806691 53.698620932013796,14.140093983849422 75.82047704284018,51.15387502653017 87.6392706267304,44.090191076898186 65.51741451590398,7.076410034217439 77.35750109193813,0.0 99.47935720276449,37.01378104268075 111.2981507866547,29.950097093048743 111.2981507866547,29.950097093048743 141.25902591452635,3.131678741535276 150.70262629722697,13.681836029526401 120.74175116935533,40.500254381039866 130.16836835624335,51.03143846179911 160.12924348411494,24.21302011028562 169.57284386681556,34.76317739827672 139.61196873894392,61.58159574979019 149.03858592583188,72.11277983054943 178.99946105370353,45.294361479035935 188.4430614364041,55.84451876702704 158.4821863085325,82.66293711854055 167.90880349542047,93.1941211992998 170.30702023541843,95.87339842467684" style="fill:none;stroke:#ff0000" /><polyline points="143.91994393591995,154.90680616246996 55.444346582070175,154.90680616246996 39.540934721148574,72.83690206128925 111.2981507866547,29.950097093048743 170.3070347445732,95.87336596466334 143.91994393591995,154.90680616246996" style="fill:none;stroke:#00ff00" /><polyline points="198.56561142681736,108.50457847099503 172.17853512731887,167.53798620878817" style="fill:none;stroke:#0000ff" /><polyline points="140.32403211350763,184.4874675479172 55.444346582070175,184.48746754791722" style="fill:none;stroke:#0000ff" /><polyline points="23.546810707945795,161.08787406927922 7.8164212891480345,79.91085605799148" style="fill:none;stroke:#0000ff" /><polyline points="23.653032110464082,44.481064550097656 94.62967259023705,2.060782598549314" style="fill:none;stroke:#0000ff" /><polyline points="133.33865679466135,10.221317199970947 189.94930950342714,73.46534130622196" style="fill:none;stroke:#0000ff" /></svg>