<?xml version="1.0" encoding="utf-8" ?>
<svg baseProfile="full" height="46mm" version="1.1" width="49mm" xmlns="http://www.w3.org/2000/svg" xmlns:ev="http://www.w3.org/2001/xml-events" xmlns:xlink="http://www.w3.org/1999/xlink"><defs /><polyline points="134.9940374494632,148.70580720836972 31.45342226910366,148.70580720836972 12.664254042565222,51.74441593838627 97.44173323616108,1.0758038715374378 166.4983028374828,78.22397791234033 134.9940374494632,148.70580720836972" style="fill:none;stroke:#000000" /><polyline points="82.1991494169258,30.931084077425364 91.17153936213388,25.568592176724056 95.0922960354764,23.225289442638598 99.47064258801592,28.116662468861723 124.15149515558424,6.024434953497662 131.4774612884171,14.208810653176347 106.79660871919877,36.30103816854041 113.64993187534724,43.95738963410751 138.33078444621552,21.86516211874345 145.65675057904838,30.04953781677215 120.97589800818008,52.14176533213621 127.82922116597852,59.798116797703315 152.5100737368468,37.70588928233926 159.83603986802967,45.89026498036796 135.15518729881137,67.98249249573202 142.1266712003684,75.77085001982701 146.60232855923647,80.77093610643013 143.8600811774457,86.90593431978888 175.35356560187654,100.98302484292728 170.8711805448919,111.01108595027642 139.3776961188111,96.93399542548805 135.1844971948545,106.31508485232429 166.6779816192853,120.39217537711266 162.1955965606507,130.42023648281182 130.70211213621985,116.34314595802346 126.43661667735626,125.88597830498793 123.62207277550834,132.18271941042522 117.08858206530995,132.18271941042522 117.08858206530995,165.30662251406523 106.10433036662994,165.30662251406523 106.10433036662994,132.18271941042522 95.82874006695992,132.18271941042522 95.82874006695992,165.30662251406523 84.84448836827991,165.30662251406523 84.84448836827991,132.18271941042522 74.56889806695993,132.18271941042522 74.56889806695993,165.30662251406523 63.58464636827991,165.30662251406523 63.58464636827991,132.18271941042522 46.38997292373393,132.18271941042522 45.554725561050134,127.87243034931612 10.178640903507603,134.72760432203856 8.0889861476087,123.94395334604825 43.465070806801215,117.0887793733258 41.5102324855958,107.00084781146879 6.134147828053272,113.85602178419121 4.04449307380435,103.0723708082009 39.42057773134688,96.21719683547848 37.46573941179145,86.12926527527144 2.089654754248921,92.98443924634388 0.0,82.20078827200355 35.37608465754253,75.34561429928112 33.38754222931373,65.08375288347828 32.52274626290023,60.62097842367096 36.27267885784282,58.37977142402117 17.786223317701094,27.448687346595804 27.214836477777418,21.813526369106256 45.70129201791914,52.744610444881644 54.52160755817114,47.473008238643054 36.03515201802942,16.541924161217686 45.46376517810574,10.906763183728138 63.950220718247465,41.837847261153506 72.77053625684948,36.566245054914916 54.28408071835774,5.635160977489547 63.71269387678408,0.0 82.1991494169258,30.931084077425364" style="fill:none;stroke:#ff0000" /><polyline points="131.79047612879137,83.0835702545014 115.46642951320773,119.60397956108523 56.76519939071285,119.60397956108523 46.55051832732524,66.89117848416147 92.63963359699684,39.34528393518777 131.79047612879137,83.0835702545014" style="fill:none;stroke:#ff0000" /></svg>