<?xml version="1.0" encoding="utf-8" ?>
<svg baseProfile="full" height="52mm" version="1.1" width="59mm" xmlns="http://www.w3.org/2000/svg" xmlns:ev="http://www.w3.org/2001/xml-events" xmlns:xlink="http://www.w3.org/1999/xlink"><defs /><polyline points="210.06111397125605,166.3327712913712 65.6686290942926,166.33277129137122 4.95448531007403,80.73558338565553 49.63016208628606,12.522698477154087 152.3581804666871,33.97130376127956 210.06111397125605,166.3327712913712" style="fill:none;stroke:#000000" /><polyline points="83.69557117395435,2.2449928907223144 76.77229063606961,35.40402029109483 86.83097377687187,37.504174931441504 93.7542543147566,4.345147529419007 104.50663973834352,6.590140418491341 97.58335920045879,39.74916782051383 107.64204234126103,41.849322459210526 114.56532287914577,8.690295057188033 125.31770830438266,10.935287947910348 118.39442776649794,44.09431534993284 128.62653647923383,46.230679552048436 137.08445638906974,47.996610487645874 143.4163442474796,62.52096684729786 180.09363204835483,46.53151660444926 184.48322055435153,56.60054327585931 147.80593275347633,72.58999351870791 151.91232200293774,82.00940556855117 188.58960980216298,66.01995532735255 192.97919830815968,76.08898199711261 156.30191050728445,92.07843223996123 160.40829975674586,101.49784429145446 197.0855875576211,85.50839404860585 201.4751760636178,95.57742072001591 164.7978882627426,111.56687096286451 168.90427751220398,120.98628301435774 205.5815653130792,104.99683277150913 209.97115381742594,115.06585944291919 173.2938660182007,131.0553096857678 177.47105508014596,140.63712539224025 180.12588191336332,146.72688121679886 173.65976185209658,146.72688121679886 173.65976185209658,186.73778922636953 162.67551015341655,186.73778922636953 162.67551015341655,146.72688121679886 152.3999198520966,146.72688121679886 152.3999198520966,186.73778922636953 141.41566815341656,186.73778922636953 141.41566815341656,146.72688121679886 131.14007785209657,146.72688121679886 131.14007785209657,186.73778922636953 120.15582615341656,186.73778922636953 120.15582615341656,146.72688121679886 109.88023585209658,146.72688121679886 109.88023585209658,186.73778922636953 98.89598415341656,186.73778922636953 98.89598415341656,146.72688121679886 72.4216106216976,146.72688121679886 67.52530128491982,139.82387172879572 39.895853556152005,159.4214578563508 33.540995727904686,150.46212934473664 61.170443459972454,130.86454321883153 55.225576459353995,122.4832358969377 27.596128728936208,142.0808220244928 21.24127090233887,133.1214935128786 48.870718632756656,113.52390738697352 42.9258516321382,105.14260006507968 15.29640390172041,124.74018619428473 8.941546075123071,115.78085768102059 36.57099380554086,96.1832715551155 30.523629098840175,87.65745893579158 26.12007224889842,81.44915128900168 30.686141053615643,74.47746672831757 0.0,54.379737085538935 6.018195148132956,45.190879018280576 36.704336200098616,65.28860866435917 42.334260694258475,56.69258014924168 11.648119640642829,36.59485050316308 17.666314787125803,27.4059924375547 48.35245584074145,47.50372208198332 54.0794479967446,38.759486179243105 58.742584588703664,31.639594047788396 66.0199052124827,33.159027403672475 72.94318574871745,0.0 83.69557117395435,2.2449928907223144" style="fill:none;stroke:#ff0000" /><polyline points="128.15119595042776,58.981423041233136 160.92009939703195,134.14814136745886 78.92119829822546,134.14814136745886 41.34148431086412,81.16678250580239 64.56661307341284,45.70558416273099 128.15119595042776,58.981423041233136" style="fill:none;stroke:#ff0000" /></svg>