<?xml version="1.0" encoding="utf-8" ?>
<svg baseProfile="full" height="39mm" version="1.1" width="55mm" xmlns="http://www.w3.org/2000/svg" xmlns:ev="http://www.w3.org/2001/xml-events" xmlns:xlink="http://www.w3.org/1999/xlink"><defs /><polyline points="223.4557900664615,127.7397926406067 0.2274570837074747,127.7397926406067 68.7963557490431,23.923179333144517 223.4557900664615,127.7397926406067" style="fill:none;stroke:#000000" /><polyline points="90.31254406196881,15.786142200150277 73.45040403883966,40.906293536163204 81.98208377574272,46.63326454106121 98.84422380052185,21.51311320669826 107.96429523989066,27.63504772928923 91.10215521676153,52.75519906365218 99.63383495531457,58.48217006855018 116.4959749784437,33.36201873418724 125.61604641781253,39.48395325677821 108.7539063946834,64.60410459279113 117.28558613323644,70.33107559768914 134.14772615636556,45.21092426167621 143.2677975957344,51.33285878426718 126.40565757260526,76.45301012028011 134.9373373111583,82.17998112517812 151.79947733428745,57.059829790815165 160.91954877365626,63.181764313406134 144.05740875052712,88.30191564776908 152.58908848908015,94.02888665431706 169.4512285122093,68.90873531830414 178.5712999532281,75.0306698408951 161.709159928449,100.15082117690804 170.24083966700204,105.87779218180604 187.10297969013115,80.7576408457931 196.22305113114996,86.87957536838408 179.36091110637085,111.999726704397 183.95596624257695,115.08420107938669 175.79831492382266,115.08420107938669 175.79831492382266,138.6494533586353 164.81406322514263,138.6494533586353 164.81406322514263,115.08420107938669 154.53847292382267,115.08420107938669 154.53847292382267,138.6494533586353 143.55422122514264,138.6494533586353 143.55422122514264,115.08420107938669 133.27863092382265,115.08420107938669 133.27863092382265,138.6494533586353 122.29437922514263,138.6494533586353 122.29437922514263,115.08420107938669 112.01878892382265,115.08420107938669 112.01878892382265,138.6494533586353 101.03453722514264,138.6494533586353 101.03453722514264,115.08420107938669 90.75894692382265,115.08420107938669 90.75894692382265,138.6494533586353 79.77469522514264,138.6494533586353 79.77469522514264,115.08420107938669 69.49910492382266,115.08420107938669 69.49910492382266,138.6494533586353 58.51485322514264,138.6494533586353 58.51485322514264,115.08420107938669 48.23926292382265,115.08420107938669 48.23926292382265,138.6494533586353 37.25501122514264,138.6494533586353 37.25501122514264,115.08420107938669 26.979420923822655,115.08420107938669 26.979420923822655,138.6494533586353 15.995169225142638,138.6494533586353 15.995169225142638,115.47925351125033 17.735030376737715,112.84501997578404 0.0,101.13136970365854 6.053659931623824,91.96583716062155 23.78869030671156,103.67948743274705 29.45179153604994,95.10527956522218 11.716761159312224,83.39162929474665 17.770421090936047,74.22609675005968 35.505451466023786,85.93974702383517 41.168552695362166,77.36553915631029 23.433522318624448,65.65188888583477 29.487182250248274,56.4863563411478 47.222212625336006,68.2000066132733 52.885313854674386,59.625798745748426 35.150283477936675,47.9121484752729 41.203943409560495,38.746615930585925 58.93897378464823,50.46026620436141 64.6020750139866,41.886058336836534 46.867044637248895,30.172408066361015 52.823064893301364,21.15470669220205 66.79534633296525,0.0 90.31254406196881,15.786142200150277" style="fill:none;stroke:#ff0000" /><polyline points="196.93216535091787,102.50546123004668 14.167181352949191,102.50546123004668 70.30698000593247,17.507103645538372 196.93216535091787,102.50546123004668" style="fill:none;stroke:#ff0000" /></svg>