<?xml version="1.0" encoding="utf-8" ?>
<svg baseProfile="tiny" height="58mm" version="1.2" width="53mm" xmlns="http://www.w3.org/2000/svg" xmlns:ev="http://www.w3.org/2001/xml-events" xmlns:xlink="http://www.w3.org/1999/xlink"><defs /><polyline fill="none" points="181.8188,115.5305 154.4926,174.5813" stroke="rgb(0%,0%,100%)" /><polyline fill="none" points="117.763,198.9558 67.4154,198.9558" stroke="rgb(0%,0%,100%)" /><polyline fill="none" points="30.6857,174.5814 3.3594,115.5305" stroke="rgb(0%,0%,100%)" /><polyline fill="none" points="5.9494,71.9957 50.0505,3.8503" stroke="rgb(0%,0%,100%)" /><polyline fill="none" points="88.5605,-21.1632 96.6178,-21.1632" stroke="rgb(0%,0%,100%)" /><polyline fill="none" points="135.1279,3.8502 179.2289,71.9956" stroke="rgb(0%,0%,100%)" /><polyline fill="none" points="177.6865,94.0967 135.4795,185.3044 49.6989,185.3044 7.4917,94.0967 70.844,-3.7959 114.3343,-3.7959 177.6865,94.0967" stroke="rgb(0%,0%,0%)" /><polyline fill="none" points="155.1798,103.2031 188.2502,118.5066 183.6917,128.3573 150.6214,113.0537 146.0711,122.8867 179.1415,138.1903 174.583,148.0409 141.5126,132.7374 136.9624,142.5703 170.0327,157.8739 165.4743,167.7246 132.4039,152.421 127.8536,162.254 117.763,168.0026 117.763,206.0424 105.1685,206.0424 105.1685,168.0026 92.5892,168.0026 92.5892,206.0424 79.9948,206.0424 79.9948,168.0026 67.4154,168.0026 57.3248,162.2539 24.2544,177.5576 19.6959,167.7069 52.7663,152.4033 48.216,142.5703 15.1456,157.8739 10.5871,148.0232 43.6575,132.7196 39.1072,122.8867 6.0368,138.1903 1.4783,128.3396 34.5488,113.036 29.9985,103.203 31.4129,88.4746 0.0,68.1454 7.3568,56.7776 38.7697,77.1068 46.1132,65.7595 14.7003,45.4303 22.0571,34.0625 53.47,54.3917 60.8136,43.0444 29.4007,22.7152 36.7575,11.3474 68.1703,31.6766 75.5139,20.3292 88.5605,16.5664 109.6643,20.3292 141.0773,0.0 148.4341,11.3678 117.0211,31.697 124.3647,43.0444 155.7776,22.7151 163.1344,34.0829 131.7215,54.4122 139.065,65.7595 170.478,45.4303 177.8348,56.798 146.4218,77.1273 153.7654,88.4746 155.1798,103.2031" stroke="rgb(100%,0%,0%)" /><polyline fill="none" points="177.6865,94.0967 135.4795,185.3044 49.6989,185.3044 7.4917,94.0967 70.844,-3.7959 114.3343,-3.7959" stroke="rgb(0%,100%,0%)" /></svg>