<?xml version="1.0" encoding="utf-8" ?>
<svg baseProfile="full" height="68mm" version="1.1" width="56mm" xmlns="http://www.w3.org/2000/svg" xmlns:ev="http://www.w3.org/2001/xml-events" xmlns:xlink="http://www.w3.org/1999/xlink"><defs /><circle cx="130.60330388042786" cy="199.7957143534781" r="15" style="fill:none;stroke:#ff00dd" /><circle cx="65.39489848574965" cy="199.79571435347808" r="15" style="fill:none;stroke:#ff00dd" /><circle cx="32.024033068885046" cy="127.68280310891097" r="15" style="fill:none;stroke:#ff00dd" /><circle cx="83.35898140768629" cy="48.35952789895082" r="15" style="fill:none;stroke:#ff00dd" /><circle cx="112.63903637521727" cy="48.359513532965956" r="15" style="fill:none;stroke:#ff00dd" /><circle cx="163.97402128094853" cy="127.68289295493375" r="15" style="fill:none;stroke:#ff00dd" /><polyline points="140.88940498920138,217.0975779536954 55.108790782425636,217.0975779536954 12.901622343220174,125.88982072236104 76.25386847014863,27.997296870396344 119.74421025439028,27.997275532267263 183.096436004256,125.88982677409514 140.88940498920138,217.0975779536954" style="fill:none;stroke:#000000" /><polyline points="163.24993472929827,129.24761580909166 199.5360077847621,146.03925238667497 194.09000564865636,157.8078510255211 157.80393259319254,141.01621444793776 152.36772444634147,152.76364865722047 188.6537975018053,169.55528523480382 183.20779536569958,181.32388387364986 146.92172231023574,164.53224729606657 141.48551416338466,176.2796815053493 177.77158721884848,193.07131808293263 172.32558508274272,204.83991672177868 136.0395120272789,188.04828014419536 130.60330388042786,199.7957143534781 130.60329728587737,199.79571435347796 130.60329728587737,241.3788455383472 119.72544955936941,241.37884553834726 119.72544955936941,199.79571435347802 108.86716435250149,199.79571435347802 108.86716435250149,241.37884553834726 97.9893166259935,241.37884553834726 97.9893166259935,199.79571435347802 87.13103141912552,199.79571435347802 87.13103141912552,241.37884553834732 76.25318369261757,241.37884553834732 76.25318369261757,199.79571435347808 65.39489848574965,199.79571435347808 65.39489848574965,199.79571435347808 29.108804434623792,216.58741420563237 23.66278034770486,204.81880566911877 59.94887439883072,188.02710581696442 54.51264434064238,176.27966172781393 18.226550289516524,193.07136157996823 12.780526202597567,181.30275304345454 49.06662025372343,164.51105319130028 43.630390195535064,152.76360910214973 7.344296144409231,169.55530895430408 1.8982720574902976,157.78670041779046 38.18436610861616,140.9950005656361 32.748136050427796,129.24755647648558 34.38758212928139,124.03062347969045 0.0,101.77631353811996 6.128770619692369,92.30607592619042 40.51635274897376,114.56038586776087 46.63043194888261,105.11284958450553 12.242849819601219,82.85853964293506 18.371620439293586,73.38830203100548 52.759202568575006,95.64261197257596 58.87328176848386,86.19507568932063 24.485699639202462,63.940765747750156 30.614470258894833,54.47052813582059 65.00205238817622,76.72483807739106 71.11613158808507,67.27730179413572 36.728549458803684,45.022991852565255 42.85732007849605,35.55275424063568 77.24490220777744,57.807064182206155 83.35898140768629,48.35952789895082 83.35906233040113,48.35952789891102 83.359038603255,7.185127416478128e-06 98.00341762176981,0.0 98.00344134891594,48.35952071378361 112.63903637521727,48.359513532965956 112.63903637521727,48.359513532965956 147.0267228447705,26.105149451136988 153.155494748637,35.57539474318972 118.76780827908375,57.829758825018686 124.88188876008844,67.27730276998702 159.26957522964167,45.02293868815804 165.3983471335082,54.49318398021077 131.01066066395498,76.74754806203974 137.12474114495964,86.19509200700804 171.51242761451283,63.94072792517907 177.64119951837938,73.4109732172318 143.25351304882616,95.6653372990608 149.36759352983086,105.1128812440291 183.75527999938407,82.8585171622001 189.88405190325057,92.32876245425282 155.49636543369735,114.58312653608183 161.61044591470204,124.03067048105015 163.24993472929827,129.24761580909166" style="fill:none;stroke:#ff0000" /><polyline points="130.60330388042786,199.7957143534781 65.39489848574965,199.79571435347808 32.024033068885046,127.68280310891097 83.35898140768629,48.35952789895082 112.63903637521727,48.359513532965956 163.97402128094853,127.68289295493375 130.60330388042786,199.7957143534781" style="fill:none;stroke:#00ff00" /><polyline points="189.88894910445606,141.575007849805 157.24231825558562,212.12310639419147" style="fill:none;stroke:#0000ff" /><polyline points="130.60329728587737,230.7489245383472 65.39489848574965,230.74892453834732" style="fill:none;stroke:#0000ff" /><polyline points="38.755857687831195,212.12315794103225 6.109095252509335,141.57500006403976" style="fill:none;stroke:#0000ff" /><polyline points="8.924147598730373,107.55167587327402 57.895546877135274,31.880580292534383" style="fill:none;stroke:#0000ff" /><polyline points="83.35904381872625,10.629928185126133 112.63901786354238,10.629913819181073" style="fill:none;stroke:#0000ff" /><polyline points="138.1025736616615,31.88050933809261 187.07398320114626,107.55166628617675" style="fill:none;stroke:#0000ff" /></svg>