<?xml version="1.0" encoding="utf-8" ?>
<svg baseProfile="full" height="61mm" version="1.1" width="63mm" xmlns="http://www.w3.org/2000/svg" xmlns:ev="http://www.w3.org/2001/xml-events" xmlns:xlink="http://www.w3.org/1999/xlink"><defs /><circle cx="156.52814527664762" cy="174.48578487767008" r="15" style="fill:none;stroke:#ff00dd" /><circle cx="66.30584077902243" cy="174.48578487767014" r="15" style="fill:none;stroke:#ff00dd" /><circle cx="38.425556855104496" cy="88.67891815925586" r="15" style="fill:none;stroke:#ff00dd" /><circle cx="111.41743923820096" cy="35.647399149969544" r="15" style="fill:none;stroke:#ff00dd" /><circle cx="184.4086172257705" cy="88.67884904462831" r="15" style="fill:none;stroke:#ff00dd" /><polyline points="169.90129978921888,192.89223447336877 52.9328012205903,192.89223447336877 16.787518045235316,81.64826348689328 111.4173891093581,12.895881135051123 206.0467351014913,81.64845588320443 169.90129978921888,192.89223447336877" style="fill:none;stroke:#000000" /><polyline points="184.40857014233544,88.67899395197743 226.31524494219858,102.29535095034369 222.82600977025774,113.03407083469413 180.91933497039463,99.41771383632786 177.43846392591348,110.13069168340058 219.34513872577662,123.74704868176681 215.8559035538358,134.48576856611726 173.94922875397262,120.86941156775104 170.46835770949153,131.58238941482378 212.37503250935467,145.19874641319 208.88579733741378,155.93746629754045 166.97912253755067,142.32110929917417 163.49825149306957,153.03408714624692 205.4049262929327,166.65044414461312 201.91569112099188,177.3891640289636 160.00901632112877,163.77280703059736 156.52814527664762,174.48578487767008 156.52814527664762,174.48578487767008 156.52814527664762,218.54887055860118 145.2368382552803,218.54887055860118 145.2368382552803,174.48578487767014 133.97259789077611,174.48578487767008 133.97259789077611,218.54887055860124 122.68129086940884,218.54887055860124 122.68129086940884,174.48578487767008 111.41705050490458,174.48578487767014 111.41705050490458,218.54887055860124 100.12574348353732,218.54887055860124 100.12574348353732,174.48578487767014 88.86150311903307,174.4857848776702 88.86150311903307,218.54887055860124 77.5701960976658,218.54887055860124 77.5701960976658,174.4857848776702 66.30595573316155,174.4857848776702 66.30584077902243,174.48578487767014 24.39942294225136,188.1019775229236 20.91020648653203,177.36325146889092 62.81662432330313,163.74705882363747 59.335771950178405,153.03407482167202 17.42935411340733,166.65026746692553 13.940137657688028,155.91154141289286 55.8465554944591,142.2953487676394 52.365703121334406,131.582364765674 10.45928528456333,145.1985574109275 6.970068828844027,134.45983135689482 48.876486665615076,120.84363871164136 45.39563429249038,110.13065470967592 3.489216455719329,123.74684735492943 0.0,113.00812130089676 41.90641783677107,99.39192865564331 38.42556546364637,88.67894465367785 38.425556855104496,88.67891815925586 12.526027953233287,53.031148630874895 21.660949705138766,46.39426298389364 47.560478607010005,82.0420325122746 56.67350282375308,75.42105629952499 30.773973921881872,39.773286771144036 39.90889567378733,33.13640112416278 65.80842457565856,68.78417065254376 74.92144879240169,62.16319443979416 49.021919890530455,26.515424911413206 58.156841642435914,19.87853926443192 84.05637054430714,55.526308792812905 93.16939476105026,48.90533258006333 67.26986585917902,13.257563051682371 76.4047876110845,6.6206774047010875 102.30431651295574,42.26844693308207 111.41734072969886,35.64747072033247 111.41753001847633,35.64746510601737 137.31705393030163,0.0 146.45188849429456,6.636877699917168 120.5523645824692,42.28434280593454 129.6653018202999,48.905311090670104 155.56482573212517,13.257845984652736 164.69966029611803,19.89472368456988 138.80013638429278,55.54218879058725 147.91307362212342,62.16315707532284 173.81259753394875,26.515691969305472 182.9474320979416,33.152569669222615 157.0479081861163,68.80003477523998 166.16084542394694,75.42100305997555 192.06036933577232,39.773537953958204 201.19520389976512,46.410415653875376 175.29567998793982,82.05788075989273 184.4086172257705,88.6788490446283 184.40857014233544,88.67899395197743" style="fill:none;stroke:#ff0000" /><polyline points="156.52814527664762,174.48578487767008 66.30584077902243,174.48578487767014 38.425556855104496,88.67891815925586 111.41743923820096,35.647399149969544 184.4086172257705,88.67884904462831 156.52814527664762,174.48578487767008" style="fill:none;stroke:#00ff00" /><polyline points="216.20559306172865,99.01051315800873 188.32516819604083,184.81730408370132" style="fill:none;stroke:#0000ff" /><polyline points="156.52814527664762,207.91894955860118 66.30595573316155,207.9189495586013" style="fill:none;stroke:#0000ff" /><polyline points="34.50908055570596,184.81715737488497 6.628805240329902,99.01031715089269" style="fill:none;stroke:#0000ff" /><polyline points="18.774124272726816,61.63094588712301 91.76590814732116,8.599498448199625" style="fill:none;stroke:#0000ff" /><polyline points="131.06892347583857,8.599772455725358 204.06001068313276,61.6311563943363" style="fill:none;stroke:#0000ff" /></svg>