<?xml version="1.0" encoding="utf-8" ?>
<svg baseProfile="full" height="74mm" version="1.1" width="59mm" xmlns="http://www.w3.org/2000/svg" xmlns:ev="http://www.w3.org/2001/xml-events" xmlns:xlink="http://www.w3.org/1999/xlink"><defs /><polyline points="233.7135662892368,224.78517572805757 10.485225289236816,224.78517572805757 39.2729753729378,39.45187616363547 233.7135662892368,224.78517572805757" style="fill:none;stroke:#000000" /><polyline points="55.56830492299763,25.1478520568347 30.40392773326663,51.5488085087187 37.84197211697223,58.63846659477875 63.006349306703235,32.23751014454473 70.95736226461271,39.81611016575376 45.792985074881706,66.21706661763777 53.23102946023729,73.30672470534779 78.3954066499683,46.90576825346379 86.34641960787776,54.484368276322805 61.182042418146764,80.88532472655683 68.62008680350235,87.97498281426685 93.78446399158337,61.57402636238285 101.73547695114283,69.15262638524187 76.57109976141183,95.55358283712587 84.00914414511743,102.64324092318591 109.17352133484843,76.2422844729519 117.1245342927579,83.82088449416094 91.96015710467688,110.22184094604494 99.39820148838248,117.31149903375496 124.56257867811348,90.91054258187096 132.51359163602297,98.48914260472998 107.34921444629197,124.890099054964 114.78725883164755,131.97975714267403 139.95163601972857,105.57880069079002 147.90264897928802,113.15740071364904 122.73827178955702,139.55835716553304 130.17631617326262,146.64801525159308 155.34069336299362,120.24705880135907 163.2917063209031,127.8256588225681 138.12732913282207,154.22661527445212 145.56537351652767,161.31627336216212 170.72975070625867,134.91531691027814 178.68076366416815,142.49391693313714 153.51638647443716,168.89487338337116 160.95443085979275,175.9845314710812 186.11880804787376,149.58357501919718 194.06982100743323,157.16217504205622 168.9054438177022,183.5631314939402 176.3434882014078,190.65278958000025 201.5078653911388,164.25183312976623 209.4588783490483,171.83043315097527 192.40671465893385,189.72054136319977 192.40671465893385,187.88873992810414 182.13112435761388,187.88873992810414 182.13112435761388,264.02263953012675 171.14687265893386,264.02263953012675 171.14687265893386,187.88873992810414 160.87128235761386,187.88873992810414 160.87128235761386,264.02263953012675 149.88703065893387,264.02263953012675 149.88703065893387,187.88873992810414 139.61144035761387,187.88873992810414 139.61144035761387,264.02263953012675 128.62718865893385,264.02263953012675 128.62718865893385,187.88873992810414 118.35159835761387,187.88873992810414 118.35159835761387,264.02263953012675 107.36734665893385,264.02263953012675 107.36734665893385,187.88873992810414 97.09175635761387,187.88873992810414 97.09175635761387,264.02263953012675 86.10750465893386,264.02263953012675 86.10750465893386,187.88873992810414 75.83191435761387,187.88873992810414 75.83191435761387,264.02263953012675 64.84766265893386,264.02263953012675 64.84766265893386,187.88873992810414 54.57207235761388,187.88873992810414 54.57207235761388,264.02263953012675 43.58782065893386,264.02263953012675 43.58782065893386,187.88873992810414 33.31223035761387,187.88873992810414 33.31223035761387,264.02263953012675 22.32797865893386,264.02263953012675 22.32797865893386,187.88873992810414 0.0,187.88873992810414 1.543152836144804,177.95404179368575 25.31477425545485,181.64647859983006 26.891964481564788,171.4926504044274 3.12034306225474,167.80021359828308 4.8063050253653925,156.94612139190778 28.57792644632542,160.63855819640213 30.155116672435355,150.48473000099946 6.3834952514753285,146.7922931965051 8.069457216235962,135.93820098847985 31.84107863554601,139.63063779462416 33.418268861655946,129.47680959757153 9.646647442345898,125.78437279307718 11.332609405456552,114.9302805867019 35.104230824766596,118.62271739119623 36.68142105252652,108.46888919579357 12.909799631566488,104.77645238964925 14.595761594677139,93.92236018327397 38.36738301563717,97.6147969877683 39.9445732417471,87.46096879236563 16.172951822437057,83.7685319878713 17.85891378554771,72.91443977984602 41.63053520485776,76.60687658599034 43.20772543096769,66.4530483889377 19.436104011657644,62.76061158444336 21.09487304051812,52.08158538081123 29.184685652009236,0.0 55.56830492299763,25.1478520568347" style="fill:none;stroke:#ff0000" /><polyline points="194.87809001423275,175.31000007876415 14.68343169296161,175.31000007876415 37.92151502479137,25.705024111015668 194.87809001423275,175.31000007876415" style="fill:none;stroke:#ff0000" /></svg>