<?xml version="1.0" encoding="utf-8" ?>
<svg baseProfile="full" height="34mm" version="1.1" width="58mm" xmlns="http://www.w3.org/2000/svg" xmlns:ev="http://www.w3.org/2001/xml-events" xmlns:xlink="http://www.w3.org/1999/xlink"><defs /><polyline points="222.9434813914365,113.67791239357783 -0.28497486980884806,113.67791239357777 75.49438172125693,21.727328179257924 222.9434813914365,113.67791239357783" style="fill:none;stroke:#000000" /><polyline points="97.97590146853142,14.622452683936942 82.93938086901414,38.73454988591885 91.65851061619652,44.171877586031286 106.69503121406382,20.059780384049372 116.01548024920538,25.87209619885062 100.97895965133809,49.98419340248251 109.69808939687049,55.421521102594944 124.73460999638776,31.309423898963047 134.0550590315293,37.12173971541428 119.01853843366203,61.23383691739619 127.73766817919443,66.67116461750862 142.7741887787117,42.559067413876726 152.09463781385327,48.37138323032795 137.058117215986,72.48348043395984 145.7772469615184,77.9208081324223 160.81376756103563,53.808710930440384 170.1342165961772,59.62102674689161 155.09769599830992,83.73312394887353 163.81682574384232,89.17045164898596 178.8533463417096,65.05835444535406 188.17379537850115,70.87067026180529 173.13727477898388,94.98276746543718 181.85640452616627,100.42009516389963 196.89292512403355,76.30799796191772 206.21337416082508,82.12031377671896 191.17685356130784,106.23241098035086 196.545786609593,109.58052589834786 196.545786609593,122.56901096246007 185.56153491091297,122.56901096246007 185.56153491091297,102.03430805576556 175.285944609593,102.03430805576556 175.285944609593,122.56901096246007 164.30169291091298,122.56901096246007 164.30169291091298,102.03430805576556 154.026102609593,102.03430805576556 154.026102609593,122.56901096246007 143.04185091091298,122.56901096246007 143.04185091091298,102.03430805576556 132.766260609593,102.03430805576556 132.766260609593,122.56901096246007 121.78200891091298,122.56901096246007 121.78200891091298,102.03430805576556 111.506418609593,102.03430805576556 111.506418609593,122.56901096246007 100.52216691091299,122.56901096246007 100.52216691091299,102.03430805576556 90.24657660959299,102.03430805576556 90.24657660959299,122.56901096246007 79.26232491091298,122.56901096246007 79.26232491091298,102.03430805576556 68.986734609593,102.03430805576556 68.986734609593,122.56901096246007 58.00248291091298,122.56901096246007 58.00248291091298,102.03430805576556 47.72689261124298,102.03430805576556 47.72689261124298,122.56901096246007 36.74264091256296,122.56901096246007 36.74264091256296,102.03430805576556 26.46705061124298,102.03430805576556 26.46705061124298,122.56901096246007 15.482798912562965,122.56901096246007 15.482798912562965,103.93923294504532 15.84963411028427,103.49411553711037 15.482798912562965,103.19179516178129 15.482798912562965,102.03430805576556 14.078305389224457,102.03430805576556 0.0,90.43193561392891 6.985808270130562,81.95536388771632 22.835442378764853,95.01754381254776 29.37055334050635,87.08784767891342 13.520919230222082,74.02566775573196 20.506727500352643,65.54909603116934 36.35636160898694,78.6112759543508 42.89147257072843,70.68157982071646 27.041838460444165,57.619399897535004 34.02764673057472,49.142828172972386 49.877280839209014,62.20500809615385 56.412391799300536,54.27531196416949 40.562757690666245,41.21313203933805 47.54856596079681,32.73656031477543 63.3982000694311,45.79874023795689 69.93331102952261,37.869044104322555 54.08367691923835,24.806864181141094 60.956810861446655,16.46701135554803 74.52779071014048,0.0 97.97590146853142,14.622452683936942" style="fill:none;stroke:#ff0000" /><polyline points="194.20436059513165,89.45556820642555 17.10464616704947,89.45556820642555 77.22468030841698,16.50598785773538 194.20436059513165,89.45556820642555" style="fill:none;stroke:#ff0000" /></svg>