<?xml version="1.0" encoding="utf-8" ?>
<svg baseProfile="full" height="50mm" version="1.1" width="47mm" xmlns="http://www.w3.org/2000/svg" xmlns:ev="http://www.w3.org/2001/xml-events" xmlns:xlink="http://www.w3.org/1999/xlink"><defs /><polyline points="119.92292794289189,162.18844732391284 42.72037515679374,162.18844732391284 4.733923561508808,80.1014658157119 61.75094507574443,-8.001805651056328 100.89225268156194,-8.001824855372483 157.90925585644104,80.10147126227257 119.92292794289189,162.18844732391284" style="fill:none;stroke:#000000" /><polyline points="132.31548639394427,9.221620822229342 103.87723271334286,27.625744978582805 109.46008060588642,36.252422522490896 137.8983342864878,17.84829836613743 143.86620616888956,27.069919188366775 115.42795248828817,45.474043344720236 121.01080037918173,54.100720888628324 149.44905405978312,35.69659673227486 155.4169259421849,44.9182175545042 126.97867226158348,63.322341710857664 132.6577761507666,72.09775507352107 138.9886496075197,81.88028989541264 137.2527390975899,85.63152494072737 167.10743970035094,99.4469984920825 162.49438701304405,109.41562579421888 132.63968641028302,95.60015224121376 128.32425002421206,104.92564229964778 158.1789506269731,118.74111585265288 153.5658979380162,128.70974315478927 123.71119733690517,114.89426960178415 119.39576095083423,124.21975966021816 149.25046155194525,138.03523321322325 144.63740886463836,148.00386051535963 114.78270826352733,134.1883869623545 110.39286780214739,143.67466133171413 109.75005763910858,145.06374907249813 102.75866969457128,145.06374907249813 102.75866969457128,179.56026625682995 91.77441799589126,179.56026625682995 91.77441799589126,145.06374907249813 81.49882769622126,145.06374907249813 81.49882769622126,179.56026625682995 70.51457599754124,179.56026625682995 70.51457599754124,145.06374907249813 52.8932522081258,145.06374907249813 52.32481507930531,143.83538248467087 22.470089863779222,157.65091149518398 17.85702505901261,147.68228979968268 47.711750276188674,133.86676079246956 43.39630255309897,124.54127597767484 13.5415773359229,138.3568049898379 8.928512529506305,128.38818329433664 38.783237746682374,114.5726542871235 34.46779002359266,105.24716947232879 4.613064806416596,119.0626984828419 0.0,109.09407678734063 29.854725217176068,95.27854778012748 25.464873222429645,85.7922787468061 23.65452572337189,81.8802007436447 29.889087742477262,72.24649320389965 1.45093734408022,53.84242481855054 7.418811757552674,44.62080563310225 35.85696215429973,63.02487402010133 41.43981241291589,54.39819800572553 13.00166201451885,35.99412962037644 18.969536427991304,26.77251043657813 47.40768682473836,45.17657882192722 52.99053708335452,36.54990280920141 24.55238668495748,18.145834423852314 30.52026109842993,8.924215238404024 58.95841149517699,27.328283625403103 64.63751779168223,18.552871818671676 68.75968356120629,12.183260077373475 81.3216633880192,12.183253913044839 93.88345322613152,12.1832477487162 97.90936083094111,18.40412415635346 126.34761451319248,0.0 132.31548639394427,9.221620822229342" style="fill:none;stroke:#ff0000" /><polyline points="124.66024776459437,82.89186586417303 101.71067042221635,132.48500922315813 60.93262865559269,132.48500922315813 37.98293392862358,82.89177038472835 75.60226984120052,24.761996569002353 87.04086905646285,24.761990955767335 124.66024776459437,82.89186586417303" style="fill:none;stroke:#ff0000" /></svg>