<?xml version="1.0" encoding="utf-8" ?>
<svg baseProfile="full" height="51mm" version="1.1" width="53mm" xmlns="http://www.w3.org/2000/svg" xmlns:ev="http://www.w3.org/2001/xml-events" xmlns:xlink="http://www.w3.org/1999/xlink"><defs /><polyline points="145.9910146408391,165.0732436586305 40.71936592907342,165.0732436586305 8.188611071253913,64.95366977080256 93.35549502896443,3.0765256541446067 178.5219064218843,64.9538429274826 145.9910146408391,165.0732436586305" style="fill:none;stroke:#000000" /><polyline points="129.90169059697385,6.456401467524326 108.16758698737765,36.370684936422506 116.48070036112077,42.41054437830811 138.21480397071699,12.496260909409935 147.10123550782518,18.952662376934263 125.36713189822895,48.86694584583244 133.68024527362206,54.906805286068064 155.4143488815683,24.99252181716989 164.30078041867648,31.448923286344197 142.56667681073023,61.36320675524237 151.02311972531464,67.50720170230018 157.09205893380744,71.91656533166957 154.82857920829852,78.88281253374943 189.9954860870439,90.30927767068228 186.60115370258478,100.75591794433711 151.43424682218944,89.32945281070423 148.25890362334542,99.10211629352165 183.4258105020908,110.5285814304545 180.03147811763168,120.97522170575931 144.86457123723633,109.54875657047644 141.68922803839232,119.32142005494384 176.8561349171377,130.7478851918767 173.46180253267858,141.19452546553154 138.29489565228323,129.76806033024866 135.06480515827295,139.7092180128379 132.74657813429778,146.84395941138962 125.42206115658874,146.84395941138962 125.42206115658874,183.82043109270367 114.43780945790873,183.82043109270367 114.43780945790873,146.84395941138962 104.16221915658873,146.84395941138962 104.16221915658873,183.82043109270367 93.17796745790872,183.82043109270367 93.17796745790872,146.84395941138962 82.90237715823872,146.84395941138962 82.90237715823872,183.82043109270367 71.91812545955871,183.82043109270367 71.91812545955871,146.84395941138962 53.963687245902406,146.84395941138962 51.70024083845779,139.87777338565158 16.533594744143432,151.30408593400088 13.13928059197325,140.85743973526462 48.305926687937585,129.4311271885653 45.13060054329615,119.6584581585121 9.963954447331817,131.0847707068614 6.569640295161634,120.63812450812516 41.736286391125965,109.21181196142584 38.560960246484534,99.43914293302262 3.394314152170182,110.86545548137192 0.0,100.4188092809857 35.16664609596433,88.99249673593636 31.936572948203228,79.05133341536238 29.61837951783916,71.91665303805424 35.544240860377194,67.61127799955779 13.810109503052196,37.696706641992364 22.696566667663696,31.240340446109716 44.430698023338714,61.15491180532512 52.74383537295429,55.11508536140751 31.00970401562929,25.200514003842088 39.89616118024079,18.744147806309456 61.63029253591581,48.658719165524865 69.94342988553137,42.61889272160725 48.20929852820638,12.704321364041828 57.09575569281788,6.247955168159177 78.82988704849289,36.16252652737458 87.28635435144496,30.018565145878206 93.35554559122012,25.609055207752558 99.28115545026947,29.914283468898176 121.0152590582157,0.0 129.90169059697385,6.456401467524326" style="fill:none;stroke:#ff0000" /><polyline points="142.30486128519553,76.72118907434839 123.6075996677567,134.26521956204962 63.102682482849325,134.26521956204962 44.405575386121676,76.721322912549 93.35551473492734,41.15723613636865 142.30486128519553,76.72118907434839" style="fill:none;stroke:#ff0000" /></svg>