<?xml version="1.0" encoding="utf-8" ?>
<svg baseProfile="tiny" height="40mm" version="1.2" width="60mm" xmlns="http://www.w3.org/2000/svg" xmlns:ev="http://www.w3.org/2001/xml-events" xmlns:xlink="http://www.w3.org/1999/xlink"><defs /><polyline fill="none" points="196.6215,104.7896 183.1002,115.2899" stroke="rgb(0%,0%,100%)" /><polyline fill="none" points="146.5529,136.6108 21.5499,136.6108" stroke="rgb(0%,0%,100%)" /><polyline fill="none" points="-17.0145,106.4779 -18.7921,98.6192" stroke="rgb(0%,0%,100%)" /><polyline fill="none" points="3.0499,54.8226 115.8839,1.0251" stroke="rgb(0%,0%,100%)" /><polyline fill="none" points="158.0494,4.5416 174.7735,8.2006" stroke="rgb(0%,0%,100%)" /><polyline fill="none" points="203.0393,34.9968 210.6033,68.4372" stroke="rgb(0%,0%,100%)" /><polyline fill="none" points="205.7761,87.6932 164.2694,119.9264 3.8334,119.9264 -5.7615,77.5076 139.0564,8.4607 190.3948,19.6928 205.7761,87.6932" stroke="rgb(0%,0%,0%)" /><polyline fill="none" points="183.6645,88.105 146.5529,100.1434 146.5529,143.6974 134.0338,143.6974 134.0338,100.1434 121.5523,100.1434 121.5523,143.6974 109.0332,143.6974 109.0332,100.1434 96.5517,100.1434 96.5517,143.6974 84.0326,143.6974 84.0326,100.1434 71.5511,100.1434 71.5511,143.6974 59.0321,143.6974 59.0321,100.1434 46.5505,100.1434 46.5505,143.6974 34.0315,143.6974 34.0315,100.1434 21.5499,100.1434 19.7851,98.1541 18.7445,87.7402 0.0,48.4259 11.3003,43.038 30.0448,82.3523 41.3113,76.9807 22.5668,37.6664 33.8671,32.2785 52.6116,71.5928 63.8781,66.2211 45.1336,26.9068 56.434,21.519 75.1784,60.8333 86.4449,55.4616 67.7004,16.1473 79.0008,10.7595 97.7452,50.0738 109.0117,44.7021 90.2673,5.3878 101.5676,0.0 120.312,39.3143 131.5785,33.9426 153.5344,25.1783 180.7458,40.0395 209.9513,33.4333 213.7344,50.1586 184.5289,56.7647 188.3098,73.4799 183.6645,88.105" stroke="rgb(100%,0%,0%)" /><polyline fill="none" points="205.7761,87.6932 164.2694,119.9264 3.8334,119.9264 -5.7615,77.5076 139.0564,8.4607 190.3948,19.6928" stroke="rgb(0%,100%,0%)" /></svg>