<?xml version="1.0" encoding="utf-8" ?>
<svg baseProfile="full" height="90mm" version="1.1" width="67mm" xmlns="http://www.w3.org/2000/svg" xmlns:ev="http://www.w3.org/2001/xml-events" xmlns:xlink="http://www.w3.org/1999/xlink"><defs /><polyline points="224.9070698891489,290.7968512776924 1.6788069493230504,290.7968512776924 141.407194786674,-31.598651537305514 224.9070698891489,290.7968512776924" style="fill:none;stroke:#000000" /><polyline points="176.83055262659187,10.633395455527861 137.16884043324532,20.905710006869665 139.74519196723435,30.853079950042492 179.4069041572809,20.580765400350668 182.16093510700884,31.21416085587853 142.4992229153123,41.48647540722033 145.0755744493013,51.43384535039316 184.73728663934787,41.161530800701335 187.4913175890758,51.794926256229196 147.82960539737925,62.067240807571004 150.40595693136828,72.01461075074383 190.06766912141484,61.74229620105201 192.82170007114277,72.37569165657987 153.15998787944622,82.64800620792167 155.73633941343522,92.5953761510945 195.3980516034818,82.32306160140267 198.1520825532097,92.95645705693053 158.49037036151316,103.22877160827234 161.06672189550218,113.17614155144517 200.72843408554877,102.90382700175334 203.48246503527668,113.53722245563122 163.82075284358012,123.80953700862301 166.39710437756915,133.75690695179583 206.0588165676157,123.48459240045403 208.81284751734364,134.1179878559819 169.1511353239971,144.39030240897367 171.72748685798612,154.3376723521465 211.38919904968267,144.0653578008047 214.1432299994106,154.69875325633257 174.48151780606406,164.97106780932435 177.0578693400531,174.91843775249717 216.71958153174964,164.64612320115538 219.47361248147757,175.27951865668322 179.81190028813103,185.551833209675 182.38825182212005,195.49920315284785 222.0499640121666,185.22688860150603 224.80399496189455,195.8602840570339 185.142282770198,206.1325986100257 187.71863430418702,216.07996855154855 227.38034649423358,205.80765400185672 230.1343774439615,216.44104945738457 190.47266525226496,226.7133640087264 193.049016786254,236.6607339518992 232.71072897630054,226.38841940220738 235.46475992602848,237.02181485773525 195.80304773433193,247.29412940907704 198.37939926832092,257.2414993522499 238.0411114583675,246.96918480255806 240.79514240809542,257.60258025808594 201.13343021639886,267.8748948094277 203.7097817503879,277.8222647526005 209.13939276703275,276.41600493130966 209.13939276703275,320.13443899064356 198.15514106835272,320.13443899064356 198.15514106835272,267.3634102461941 187.87955076703275,267.3634102461941 187.87955076703275,320.13443899064356 176.89529906835273,320.13443899064356 176.89529906835273,267.3634102461941 166.61970876703273,267.3634102461941 166.61970876703273,320.13443899064356 155.63545706835274,320.13443899064356 155.63545706835274,267.3634102461941 145.35986676703274,267.3634102461941 145.35986676703274,320.13443899064356 134.37561506835272,320.13443899064356 134.37561506835272,267.3634102461941 124.10002476703275,267.3634102461941 124.10002476703275,320.13443899064356 113.11577306835272,320.13443899064356 113.11577306835272,267.3634102461941 102.84018276868272,267.3634102461941 102.84018276868272,320.13443899064356 91.85593107000271,320.13443899064356 91.85593107000271,267.3634102461941 81.58034076868272,267.3634102461941 81.58034076868272,320.13443899064356 70.5960890700027,320.13443899064356 70.5960890700027,267.3634102461941 60.320498768682725,267.3634102461941 60.320498768682725,320.13443899064356 49.336247070002706,320.13443899064356 49.336247070002706,267.3634102461941 39.060656768682726,267.3634102461941 39.060656768682726,320.13443899064356 28.07640507000271,320.13443899064356 28.07640507000271,267.3634102461941 23.378056377577582,267.3634102461941 26.237406933019923,260.7660267481525 0.0,249.39455741990903 4.368043129667402,239.3161654536166 30.605450062687325,250.68763478186008 34.69168396057777,241.25946165188975 8.454277025907867,229.88799232364624 12.822320157225251,219.8096003590038 39.059727090245175,231.1810696872473 43.14596098648564,221.75289655727696 16.908554053465718,210.38142722903345 21.27659718313312,200.30303526274102 47.51400411615304,211.6745045909845 51.60023801404349,202.24633146101417 25.362831079373585,190.8748621327707 29.730874210690967,180.79647016812822 55.96828114371089,192.1679394963717 60.054515039951355,182.73976636640137 33.817108106931435,171.36829703815786 38.185151236598834,161.28990507186543 64.42255817126873,172.6613744001089 68.5087920675092,163.23320127178857 42.27138513448928,151.86173194354507 46.639428264156685,141.78333997725264 72.8768351971766,153.15480930549612 76.96306909341708,143.72663617552578 50.72566216039715,132.3551668472823 55.093705291714535,122.27677488098986 81.33111222473445,133.64824420923335 85.41734612097493,124.22007108091299 59.17993918795499,112.8486017526695 63.5479823176224,102.77020978637705 89.78538925064233,114.14167911462054 93.87162314853276,104.7135059846502 67.63421621386287,93.34203665640672 72.00225934518025,83.26364469176426 98.23966627820018,94.63511402000775 102.32590017444063,85.2069408900374 76.08849324142071,73.83547156179391 80.45653637108812,63.75707959550147 106.69394330410803,75.12854892374496 110.7801772003485,65.70037579377463 84.54277026897856,54.328906465531134 88.91081339864597,44.25051450088868 115.1482203300159,55.62198382913216 119.23445422625637,46.19381069916182 92.99704729488643,34.82234137091833 97.36509042455383,24.743949404625894 123.60249735757375,36.11541873286938 127.68873125381423,26.68724560454902 101.45132432244428,15.315776276305533 105.81936745211168,5.237384310013096 132.0567743834816,16.608853638256583 134.8521673266312,10.159039628722349 174.07652167686393,0.0 176.83055262659187,10.633395455527861" style="fill:none;stroke:#ff0000" /><polyline points="240.73912933338246,307.55569914130353 -11.498097254231494,307.55569914130353 146.38827680616302,-56.735750444179466 240.73912933338246,307.55569914130353" style="fill:none;stroke:#ff0000" /></svg>