<?xml version="1.0" encoding="utf-8" ?>
<svg baseProfile="tiny" height="44mm" version="1.2" width="50mm" xmlns="http://www.w3.org/2000/svg" xmlns:ev="http://www.w3.org/2001/xml-events" xmlns:xlink="http://www.w3.org/1999/xlink"><defs /><polyline fill="white" points="151.8452,17.1996 151.8452,141.2153 27.8295,141.2153 27.8295,17.1996 151.8452,17.1996" stroke="rgb(0%,0%,0%)" /><polyline fill="white" points="122.0547,68.5775 179.6747,68.5775 179.6747,74.2114 122.0547,74.2114 122.0547,79.2074 179.6747,79.2074 179.6747,84.8413 122.0547,84.8413 122.0547,89.8374 100.4673,120.996 100.4673,158.4149 94.8334,158.4149 94.8334,120.996 89.8374,120.996 89.8374,158.4149 84.2035,158.4149 84.2035,120.996 79.2074,120.996 57.62,89.8374 0.0,89.8374 0.0,84.2035 57.62,84.2035 57.62,79.2074 0.0,79.2074 0.0,73.5736 57.62,73.5736 57.62,68.5775 79.2074,37.4189 79.2074,0.0 84.8413,0.0 84.8413,37.4189 89.8374,37.4189 89.8374,0.0 95.4712,0.0 95.4712,37.4189 100.4673,37.4189 122.0547,68.5775" stroke="rgb(100%,0%,0%)" /></svg>