<?xml version="1.0" encoding="UTF-8" standalone="no"?>
<svg
   xmlns:dc="http://purl.org/dc/elements/1.1/"
   xmlns:cc="http://creativecommons.org/ns#"
   xmlns:rdf="http://www.w3.org/1999/02/22-rdf-syntax-ns#"
   xmlns:svg="http://www.w3.org/2000/svg"
   xmlns="http://www.w3.org/2000/svg"
   xmlns:sodipodi="http://sodipodi.sourceforge.net/DTD/sodipodi-0.dtd"
   xmlns:inkscape="http://www.inkscape.org/namespaces/inkscape"
   height="51mm"
   version="1.1"
   width="53mm"
   id="svg16767"
   sodipodi:docname="num30.svg">
  <metadata
     id="metadata16771">
    <rdf:RDF>
      <cc:Work
         rdf:about="">
        <dc:format>image/svg+xml</dc:format>
        <dc:type
           rdf:resource="http://purl.org/dc/dcmitype/StillImage" />
        <dc:title></dc:title>
      </cc:Work>
    </rdf:RDF>
  </metadata>
  <sodipodi:namedview
     pagecolor="#ffffff"
     bordercolor="#666666"
     inkscape:document-rotation="0"
     borderopacity="1"
     objecttolerance="10"
     gridtolerance="10"
     guidetolerance="10"
     inkscape:pageopacity="0"
     inkscape:pageshadow="2"
     inkscape:window-width="640"
     inkscape:window-height="480"
     id="namedview16769"
     showgrid="false" />
  <defs
     id="defs16761" />
  <path
     id="polyline16763"
     style="fill:none;stroke:#ff0000"
     d="M 121.01562 0 L 99.28125 29.914062 L 93.355469 25.609375 L 87.287109 30.019531 L 78.830078 36.162109 L 57.095703 6.2480469 L 48.208984 12.705078 L 69.943359 42.619141 L 61.630859 48.658203 L 39.896484 18.744141 L 31.009766 25.201172 L 52.744141 55.115234 L 44.431641 61.154297 L 22.697266 31.240234 L 13.810547 37.697266 L 35.544922 67.611328 L 29.619141 71.916016 L 31.9375 79.050781 L 35.166016 88.992188 L 0 100.41797 L 3.3945312 110.86523 L 38.560547 99.439453 L 41.736328 109.21094 L 6.5703125 120.63867 L 9.9648438 131.08398 L 45.130859 119.6582 L 48.306641 129.43164 L 13.138672 140.85742 L 16.533203 151.30469 L 51.701172 139.87695 L 53.962891 146.84375 L 71.917969 146.84375 L 71.917969 183.82031 L 82.902344 183.82031 L 82.902344 146.84375 L 93.177734 146.84375 L 93.177734 183.82031 L 104.16211 183.82031 L 104.16211 146.84375 L 114.4375 146.84375 L 114.4375 183.82031 L 125.42188 183.82031 L 125.42188 146.84375 L 132.74609 146.84375 L 135.06445 139.70898 L 138.29492 129.76758 L 173.46094 141.19531 L 176.85547 130.74805 L 141.68945 119.32227 L 144.86523 109.54883 L 180.03125 120.97461 L 183.42578 110.5293 L 148.25977 99.101562 L 151.43359 89.330078 L 186.60156 100.75586 L 189.99609 90.308594 L 154.82812 78.882812 L 157.0918 71.916016 L 151.02344 67.507812 L 142.56641 61.363281 L 164.30078 31.449219 L 155.41406 24.992188 L 133.67969 54.90625 L 125.36719 48.867188 L 147.10156 18.953125 L 138.21484 12.496094 L 116.48047 42.410156 L 108.16797 36.371094 L 129.90234 6.4570312 L 121.01562 0 z M 93.355469 41.158203 L 142.30469 76.720703 L 123.60742 134.26562 L 63.103516 134.26562 L 44.40625 76.720703 L 93.355469 41.158203 z " />
</svg>
