<?xml version="1.0" encoding="utf-8" ?>
<svg baseProfile="full" height="36mm" version="1.1" width="52mm" xmlns="http://www.w3.org/2000/svg" xmlns:ev="http://www.w3.org/2001/xml-events" xmlns:xlink="http://www.w3.org/1999/xlink"><defs /><polyline points="141.41204363718074,108.2672259749035 -2.9804121512080264,108.26722597490348 -11.615759719576518,70.0903647434846 118.72027496174292,7.948143501603616 164.924876083596,18.05701977259073 178.76803465329607,79.25738060342145 141.41204363718074,108.2672259749035" style="fill:none;stroke:#000000" /><polyline points="147.43567341804464,2.3476592958015896 142.16337019267144,26.44575497437256 152.37459263374788,28.67981785372648 153.30399286306817,28.883156736217792 153.732131531958,30.77595027623648 179.48165179326267,24.951561542947736 181.90500377305563,35.66515806882549 156.155483511751,41.48954680376422 158.42249020342985,51.51194355803691 184.1720104647345,45.68755482474817 186.59536244452747,56.40115135227591 160.84584218322283,62.22554008721463 163.1519351965177,72.4207367835636 163.61917722142638,74.48640556418687 163.00772011422796,74.96124977543859 178.1379369085684,94.44443678733846 169.4624522201777,101.18162839738726 154.33223542748723,81.69844138713736 146.07653225638316,88.10963985585556 145.36600562821604,88.66141929066436 105.01069639611647,88.66141929066436 105.01069639611647,128.67214503344505 94.02644469743646,128.67214503344505 94.02644469743646,88.66141929066436 83.75085439611647,88.66141929066436 83.75085439611647,128.67214503344505 72.76660269743645,128.67214503344505 72.76660269743645,88.66141929066436 62.49101239611647,88.66141929066436 62.49101239611647,128.67214503344505 51.506760697436455,128.67214503344505 51.506760697436455,88.66141929066436 41.23117039611647,88.66141929066436 41.23117039611647,128.67214503344505 30.246918697436453,128.67214503344505 30.246918697436453,88.66141929066436 13.279754283175341,88.66141929066436 12.389499873782274,84.7256056225796 11.49924558483781,80.78979247258884 17.21951780588449,78.06245446009933 0.0,41.946531580516215 9.914959214926597,37.219231176501445 27.134477022461066,73.33515405773454 36.40976145385203,68.91284077602718 19.190243647967534,32.79691789479409 29.105202864544115,28.069617492429305 46.324720670428604,64.18554037201241 55.60000510181956,59.763227091955045 38.38048729593507,23.64730421072195 48.29544651251165,18.920003808357162 65.51496431839614,55.035926687940275 74.7902487497871,50.6136134078829 57.57073094390261,14.497690526649807 67.48569016047918,9.77039012263504 84.70520796801365,45.88631300386813 94.14041109570101,41.387752941583926 130.7272598217969,23.94370491823025 131.43293305259954,24.098095676920988 136.70523627797277,0.0 147.43567341804464,2.3476592958015896" style="fill:none;stroke:#ff0000" /><polyline points="142.80020567422633,39.46135867079511 149.58537769427846,69.45848497136075 141.0553994770777,76.08267944132434 50.59954861925435,76.08267944132434 132.24980717838167,37.153089137996744 142.80020567422633,39.46135867079511" style="fill:none;stroke:#ff0000" /></svg>