<?xml version="1.0" encoding="utf-8" ?>
<svg baseProfile="tiny" height="50mm" version="1.2" width="44mm" xmlns="http://www.w3.org/2000/svg" xmlns:ev="http://www.w3.org/2001/xml-events" xmlns:xlink="http://www.w3.org/1999/xlink"><defs /><polyline fill="white" points="141.2153,27.8295 141.2153,151.8452 17.1996,151.8452 17.1996,27.8295 141.2153,27.8295" stroke="rgb(0%,0%,0%)" /><polyline fill="white" points="120.996,79.2074 158.4149,79.2074 158.4149,84.8413 120.996,84.8413 120.996,89.8374 158.4149,89.8374 158.4149,95.4712 120.996,95.4712 120.996,100.4673 89.8374,122.0547 89.8374,179.6747 84.2035,179.6747 84.2035,122.0547 79.2074,122.0547 79.2074,179.6747 73.5736,179.6747 73.5736,122.0547 68.5775,122.0547 37.4189,100.4673 0.0,100.4673 0.0,94.8334 37.4189,94.8334 37.4189,89.8374 0.0,89.8374 0.0,84.2035 37.4189,84.2035 37.4189,79.2074 68.5775,57.62 68.5775,0.0 74.2114,0.0 74.2114,57.62 79.2074,57.62 79.2074,0.0 84.8413,0.0 84.8413,57.62 89.8374,57.62 120.996,79.2074" stroke="rgb(100%,0%,0%)" /></svg>