<?xml version="1.0" encoding="utf-8" ?>
<svg baseProfile="tiny" height="59mm" version="1.2" width="61mm" xmlns="http://www.w3.org/2000/svg" xmlns:ev="http://www.w3.org/2001/xml-events" xmlns:xlink="http://www.w3.org/1999/xlink"><defs /><polyline fill="none" points="209.4366,97.7219 184.2406,175.2668" stroke="rgb(0%,0%,100%)" /><polyline fill="none" points="146.758,202.4994 65.2226,202.4994" stroke="rgb(0%,0%,100%)" /><polyline fill="none" points="27.7401,175.2667 2.5442,97.7216" stroke="rgb(0%,0%,100%)" /><polyline fill="none" points="16.8613,53.6584 82.8252,5.733" stroke="rgb(0%,0%,100%)" /><polyline fill="none" points="129.156,5.7332 195.1194,53.6587" stroke="rgb(0%,0%,100%)" /><polyline fill="none" points="200.62,76.2289 164.4745,187.4727 47.506,187.4727 11.3608,76.2287 105.9906,7.4763 200.62,76.2289" stroke="rgb(0%,0%,0%)" /><polyline fill="none" points="177.6396,87.3904 216.1764,99.9118 211.9733,112.8476 173.4365,100.3262 169.2409,113.2387 207.7777,125.7601 203.5746,138.6959 165.0378,126.1745 160.8423,139.087 199.3791,151.6084 195.1759,164.5442 156.6392,152.0228 152.4436,164.9353 146.758,169.0662 146.758,209.586 133.1565,209.586 133.1565,169.0662 119.5795,169.0662 119.5795,209.586 105.9781,209.586 105.9781,169.0662 92.401,169.0662 92.401,209.586 78.7996,209.586 78.7996,169.0662 65.2226,169.0662 59.5369,164.9354 21.0003,177.4566 16.7973,164.5208 55.3338,151.9996 51.1383,139.087 12.6017,151.6083 8.3986,138.6724 46.9352,126.1512 42.7396,113.2386 4.2031,125.7599 0.0,112.8241 38.5365,100.3028 34.341,87.3903 36.5127,80.7063 12.6959,47.9252 23.6998,39.9304 47.5166,72.7116 58.5007,64.7312 34.6839,31.95 45.6877,23.9553 69.5046,56.7365 80.4887,48.7561 56.6718,15.9749 67.6757,7.9802 91.4925,40.7613 102.4766,32.781 109.5046,32.7809 133.3214,0.0 144.3252,7.9948 120.5084,40.7756 131.4924,48.756 155.3092,15.9752 166.313,23.9699 142.4962,56.7508 153.4802,64.7312 177.297,31.9503 188.3008,39.9451 164.484,72.726 175.468,80.7063 177.6396,87.3904" stroke="rgb(100%,0%,0%)" /><polyline fill="none" points="200.62,76.2289 164.4745,187.4727 47.506,187.4727 11.3608,76.2287 105.9906,7.4763" stroke="rgb(0%,100%,0%)" /></svg>