<?xml version="1.0" encoding="utf-8" ?>
<svg baseProfile="tiny" height="59mm" version="1.2" width="61mm" xmlns="http://www.w3.org/2000/svg" xmlns:ev="http://www.w3.org/2001/xml-events" xmlns:xlink="http://www.w3.org/1999/xlink"><defs /><polyline fill="white" points="211.3886,109.5998 195.5584,158.3204" stroke="rgb(0%,0%,100%)" /><polyline fill="white" points="132.8181,203.9039 81.5902,203.9039" stroke="rgb(0%,0%,100%)" /><polyline fill="white" points="18.8499,158.3204 3.0197,109.5998" stroke="rgb(0%,0%,100%)" /><polyline fill="white" points="26.9843,35.8442 68.4285,5.7332" stroke="rgb(0%,0%,100%)" /><polyline fill="white" points="145.9798,5.7332 187.424,35.8442" stroke="rgb(0%,0%,100%)" /><polyline fill="white" points="205.9803,70.586 168.2512,186.7043 46.1571,186.7043 8.428,70.586 107.2041,-1.1791 205.9803,70.586" stroke="rgb(0%,0%,0%)" /><polyline fill="white" points="175.8012,98.0367 218.1284,111.7897 213.9334,124.7006 171.6061,110.9477 167.886,122.397 210.2133,136.15 206.0182,149.061 163.691,135.308 159.9709,146.7573 132.8181,166.485 132.8181,210.9905 119.2427,210.9905 119.2427,166.485 107.2041,166.485 107.2041,210.9905 93.6288,210.9905 93.6288,166.485 81.5902,166.485 54.4374,146.7573 12.1102,160.5103 7.9151,147.5993 50.2424,133.8464 46.5223,122.397 4.195,136.15 0.0,123.239 42.3272,109.4861 38.6071,98.0367 48.9786,66.1167 22.8189,30.111 33.8016,22.1316 59.9613,58.1373 69.7007,51.0612 43.541,15.0555 54.5237,7.0761 80.6834,43.0818 90.4228,36.0057 123.9855,36.0057 150.1452,0.0 161.1279,7.9794 134.9682,43.9851 144.7076,51.0612 170.8673,15.0555 181.85,23.0349 155.6903,59.0406 165.4297,66.1167 175.8012,98.0367" stroke="rgb(100%,0%,0%)" /><polyline fill="white" points="205.9803,70.586 168.2512,186.7043 46.1571,186.7043 8.428,70.586 107.2041,-1.1791" stroke="rgb(0%,100%,0%)" /></svg>