<?xml version="1.0" encoding="utf-8" ?>
<svg baseProfile="full" height="43mm" version="1.1" width="62mm" xmlns="http://www.w3.org/2000/svg" xmlns:ev="http://www.w3.org/2001/xml-events" xmlns:xlink="http://www.w3.org/1999/xlink"><defs /><circle cx="170.87449314800597" cy="106.52202442614109" r="15" style="fill:none;stroke:#ff00dd" /><circle cx="22.94691576896032" cy="106.52202442614113" r="15" style="fill:none;stroke:#ff00dd" /><circle cx="20.26938903440683" cy="94.68468194754824" r="15" style="fill:none;stroke:#ff00dd" /><circle cx="153.79659680171582" cy="31.02095834896622" r="15" style="fill:none;stroke:#ff00dd" /><circle cx="181.33778941841453" cy="37.04655973406191" r="15" style="fill:none;stroke:#ff00dd" /><circle cx="193.14138402426386" cy="89.2300441131241" r="15" style="fill:none;stroke:#ff00dd" /><polyline points="166.98124391892287,126.30499645989407 6.545181931824195,126.30499645989407 -3.0496486996963155,83.88626175831756 141.76816761288083,14.839349267338683 193.10661330382868,26.071434012879905 208.48790060349543,94.07183493602514 166.98124391892287,126.30499645989407" style="fill:none;stroke:#000000" /><polyline points="188.3569593715324,92.94552362770547 207.83375139814623,118.02579753651337 199.08989591644942,124.8160844108509 179.61310388983566,99.73581050204305 170.87449314800597,106.52202442614109 150.57951008178674,106.52202442614113 150.57951008178674,153.61936416998935 139.92431566657095,153.61936416998935 139.92431566657095,106.52202442614113 129.30741102964905,106.52202442614113 129.30741102964905,153.61936416998935 118.65221661443319,153.61936416998935 118.65221661443319,106.52202442614113 108.03531197751127,106.52202442614113 108.03531197751127,153.61936416998935 97.38011756229548,153.61936416998935 97.38011756229548,106.52202442614113 86.76321292537355,106.52202442614113 86.76321292537355,153.61936416998935 76.10801851015772,153.61936416998935 76.10801851015772,106.52202442614113 65.49111387323579,106.52202442614113 65.49111387323579,153.61936416998935 54.83591945802,153.61936416998935 54.83591945802,106.52202442614113 44.21901482109803,106.52202442614113 44.21901482109803,153.61936416998935 33.56382040588224,153.61936416998935 33.56382040588224,106.52202442614113 22.94691576896032,106.52202442614113 22.9469119406154,106.5220075010327 20.26938903440683,94.68468194754824 0.0,52.1720111842262 9.61793379685361,47.58632794355365 29.88732283126044,90.09899870687569 39.47069427867442,85.52979426403353 19.201305244267587,43.017123500711456 28.819239041121197,38.431440260038904 49.08862807552798,80.94411102336097 58.67199952294201,76.37490658051877 38.402610488535124,33.862235817196726 48.02054428538873,29.27655257652418 68.28993331979557,71.7892233398462 77.87330476720949,67.220018897004 57.60391573280266,24.707348133681954 67.22184952965632,20.121664893009427 87.49123856406315,62.63433565633147 97.07461001147708,58.065131213489245 76.80522097707025,15.552460450167205 86.42315477392391,10.966777209494653 106.69254380833068,53.47944797281669 116.27591525574466,48.9102435299745 96.00652622133778,6.397572766652455 105.62446001819144,1.8118895259799044 125.89384905259827,44.32456028930195 135.4772205000122,39.75535584645975 153.79659680171582,31.02095834896622 160.58351892945228,0.0 171.3984461853692,2.3661444716612015 164.61152405763275,33.387102820627426 175.41996430329917,35.751828031383894 181.33778941841453,37.04655973406191 213.9993074411755,29.658718110611478 216.9519763229791,42.71241536261505 184.29045830021818,50.10025698606548 187.2395861040104,63.13829919439286 219.90110412677137,55.750457570942444 222.85377300857505,68.80415482294602 190.19225498581406,76.19199644639644 193.14138278960633,89.23003865472383 188.3569593715324,92.94552362770547" style="fill:none;stroke:#ff0000" /><polyline points="170.87449314800597,106.52202442614109 22.94691576896032,106.52202442614113 20.26938903440683,94.68468194754824 153.79659680171582,31.02095834896622 181.33778941841453,37.04655973406191 193.14138402426386,89.2300441131241 170.87449314800597,106.52202442614109" style="fill:none;stroke:#00ff00" /><polyline points="201.3138885474362,109.63016719244906 183.83142232390975,123.20666799088468" style="fill:none;stroke:#0000ff" /><polyline points="150.57951008178674,142.98944316998936 22.94691576896032,142.98944316998936" style="fill:none;stroke:#0000ff" /><polyline points="-13.852759236645054,114.84584400217987 -16.530282142853675,103.00851844869543" style="fill:none;stroke:#0000ff" /><polyline points="4.574806842212358,61.767133008501695 119.78263830781773,6.837806907413196" style="fill:none;stroke:#0000ff" /><polyline points="158.31159057746157,10.384294007281483 179.93495807904492,15.115163689699154" style="fill:none;stroke:#0000ff" /><polyline points="203.63131080006775,32.00389744623179 215.43490417125955,84.1873763668937" style="fill:none;stroke:#0000ff" /></svg>