<?xml version="1.0" encoding="utf-8" ?>
<svg baseProfile="full" height="30mm" version="1.1" width="58mm" xmlns="http://www.w3.org/2000/svg" xmlns:ev="http://www.w3.org/2001/xml-events" xmlns:xlink="http://www.w3.org/1999/xlink"><defs /><polyline points="222.0076575722593,102.1226975746401 -1.2207106828033456,102.12269757464014 84.83159333787047,19.70656293320555 222.0076575722593,102.1226975746401" style="fill:none;stroke:#000000" /><polyline points="98.36081541456355,8.416872594171396 85.22718731725402,30.27690545359387 94.03530162330398,35.56886902306853 107.1689297206135,13.708836163646053 116.58450018262901,19.365762737115524 103.45087208531949,41.225795596538 112.25898639136945,46.51775916601265 125.39261448867897,24.6577263049402 134.8081849490445,30.31465287840967 121.67455685338496,52.17468573948213 130.48267115778492,57.46664930895678 143.61629925509445,35.60661644788433 153.03186971710997,41.2635430213538 139.89824161980044,63.12357588077627 148.7063559258504,68.41553945025093 161.83998402315993,46.55550659082846 171.25555448517542,52.21243316429793 158.1219263878659,74.0724660237204 166.93004069391586,79.36442959319506 180.06366879122538,57.50439673377259 189.4792392532409,63.16132330559208 176.34561115593138,85.02135616666453 185.15372546198134,90.31331973613919 198.28735355929086,68.45328687506674 207.70292402130636,74.1102134485362 197.41615604483508,91.23184079495253 195.61000679347617,91.23184079495253 195.61000679347617,94.23805367853872 194.56929592399683,95.97024630960865 195.61000679347617,96.59551113016167 195.61000679347617,108.92633280418389 184.62575509479615,108.92633280418389 184.62575509479615,91.23184079495253 174.35016479347618,91.23184079495253 174.35016479347618,108.92633280418389 163.36591309479616,108.92633280418389 163.36591309479616,91.23184079495253 153.09032279347616,91.23184079495253 153.09032279347616,108.92633280418389 142.10607109479616,108.92633280418389 142.10607109479616,91.23184079495253 131.83048079347617,91.23184079495253 131.83048079347617,108.92633280418389 120.84622909479616,108.92633280418389 120.84622909479616,91.23184079495253 110.57063879347616,91.23184079495253 110.57063879347616,108.92633280418389 99.58638709479615,108.92633280418389 99.58638709479615,91.23184079495253 89.31079679347617,91.23184079495253 89.31079679347617,108.92633280418389 78.32654509479616,108.92633280418389 78.32654509479616,91.23184079495253 68.05095479347617,91.23184079495253 68.05095479347617,108.92633280418389 57.06670309479615,108.92633280418389 57.06670309479615,91.23184079495253 46.79111279347617,91.23184079495253 46.79111279347617,108.92633280418389 35.806861094796155,108.92633280418389 35.806861094796155,91.23184079495253 25.53127079347617,91.23184079495253 25.53127079347617,108.92633280418389 14.547019094796154,108.92633280418389 14.547019094796154,91.23184079495253 10.003298324366241,91.23184079495253 0.0,80.78720064629319 7.932832607074857,73.18957258171287 22.139017871694094,88.02252948554138 29.560054826486702,80.91507096994854 15.353869561867468,66.08211406612004 23.286702168942327,58.484485999889735 37.49288743356156,73.31744290536822 44.91392438835417,66.20998438977539 30.707739123734935,51.377027485946876 38.640571730809796,43.779399419716576 52.846756995429025,58.612356323545086 60.26779395022164,51.504897809602234 46.06160868725239,36.67194090577372 53.994441294327245,29.074312839543417 68.2006265572965,43.90726974337193 75.62166351208911,36.799811229429075 61.41547824911985,21.966854323950578 69.22036194229916,14.491768647854615 84.3515020626507,0.0 98.36081541456355,8.416872594171396" style="fill:none;stroke:#ff0000" /><polyline points="190.83967398837729,78.65310094561254 20.413936945395292,78.65310094561254 86.11135457916514,15.731750041922732 190.83967398837729,78.65310094561254" style="fill:none;stroke:#ff0000" /></svg>