<?xml version="1.0" encoding="utf-8" ?>
<svg baseProfile="tiny" height="35mm" version="1.2" width="37mm" xmlns="http://www.w3.org/2000/svg" xmlns:ev="http://www.w3.org/2001/xml-events" xmlns:xlink="http://www.w3.org/1999/xlink"><defs /><polyline fill="white" points="120.5384,49.5804 99.7874,113.4455" stroke="rgb(10%,10%,16%)" /><polyline fill="white" points="120.5384,49.5804 115.0637,66.4299 98.7059,61.1149 96.2555,68.6565 124.4979,77.833 122.0475,85.3745 93.8051,76.198 91.3547,83.7396 119.5971,92.9161 117.1467,100.4576 105.2621,96.5961 99.7874,113.4455" stroke="rgb(100%,10%,16%)" /><polyline fill="white" points="99.7874,113.4455 32.6356,113.4455" stroke="rgb(10%,10%,16%)" /><polyline fill="white" points="99.7874,113.4455 82.0708,113.4455 82.0708,96.246 74.1412,96.246 74.1412,125.9418 66.2115,125.9418 66.2115,96.246 58.2818,96.246 58.2818,125.9418 50.3522,125.9418 50.3522,113.4455 32.6356,113.4455" stroke="rgb(100%,10%,16%)" /><polyline fill="white" points="32.6356,113.4455 11.8846,49.5804" stroke="rgb(10%,10%,16%)" /><polyline fill="white" points="32.6356,113.4455 27.1609,96.5961 43.5187,91.2811 41.0683,83.7396 12.8259,92.9161 10.3755,85.3745 38.6179,76.198 36.1675,68.6565 7.9251,77.833 5.4747,70.2914 17.3593,66.4299 11.8846,49.5804" stroke="rgb(100%,10%,16%)" /><polyline fill="white" points="11.8846,49.5804 66.2115,10.1097" stroke="rgb(10%,10%,16%)" /><polyline fill="white" points="11.8846,49.5804 26.2176,39.1669 36.3272,53.0817 42.7425,48.4207 25.2877,24.3963 31.703,19.7354 49.1577,43.7598 55.5729,39.0989 38.1182,15.0745 44.5334,10.4135 51.8785,20.5232 66.2115,10.1097" stroke="rgb(100%,10%,16%)" /><polyline fill="white" points="66.2115,10.1097 120.5384,49.5804" stroke="rgb(10%,10%,16%)" /><polyline fill="white" points="66.2115,10.1097 80.5445,20.5232 70.4348,34.4379 76.8501,39.0989 94.3048,15.0745 100.72,19.7354 83.2653,43.7598 89.6805,48.4207 107.1353,24.3963 113.5505,29.0573 106.2054,39.1669 120.5384,49.5804" stroke="rgb(100%,10%,16%)" /></svg>