<?xml version="1.0" encoding="utf-8" ?>
<svg baseProfile="full" height="62mm" version="1.1" width="60mm" xmlns="http://www.w3.org/2000/svg" xmlns:ev="http://www.w3.org/2001/xml-events" xmlns:xlink="http://www.w3.org/1999/xlink"><defs /><polyline points="233.89970218285504,195.8565543353224 10.671543767417116,195.85655433532241 49.28644092293748,34.7357255936325 233.89970218285504,195.8565543353224" style="fill:none;stroke:#000000" /><polyline points="134.8686613689374,81.64534621124527 111.83067362804503,108.04241779465256 119.57247777266663,114.79906079522176 142.610465513559,88.40198921346443 150.88618718186834,95.62460759150567 127.84819944097596,122.02167917326298 135.59000358394758,128.77832217548217 158.62799132483994,102.38125059372484 166.90371299314927,109.6038689701161 143.8657252522569,136.00094055352338 151.6075293968785,142.75758355409258 174.64551713777087,116.36051197233526 182.9212388060802,123.58313035037649 159.88325106518784,149.9802019321338 167.62505520980943,156.736844934353 190.6630429507018,130.33977335259567 198.93876461736116,137.5623917289869 175.90077687811876,163.9594633123942 183.64258102109036,170.7161063129634 206.68056876198276,144.3190347312061 214.95629043029209,151.54165310924733 196.51790462516962,172.66847179789568 196.51790462516962,172.4033300758668 186.24231432384966,172.4033300758668 186.24231432384966,220.68153077022518 175.25806262516963,220.68153077022518 175.25806262516963,172.4033300758668 164.98247232384963,172.4033300758668 164.98247232384963,220.68153077022518 153.99822062516964,220.68153077022518 153.99822062516964,172.4033300758668 143.72263032384964,172.4033300758668 143.72263032384964,220.68153077022518 132.73837862516962,220.68153077022518 132.73837862516962,172.4033300758668 122.46278832384965,172.4033300758668 122.46278832384965,220.68153077022518 111.47853662516962,220.68153077022518 111.47853662516962,172.4033300758668 101.20294632384964,172.4033300758668 101.20294632384964,220.68153077022518 90.21869462516963,220.68153077022518 90.21869462516963,172.4033300758668 79.94310432384964,172.4033300758668 79.94310432384964,220.68153077022518 68.95885262516963,220.68153077022518 68.95885262516963,172.4033300758668 58.68326232384965,172.4033300758668 58.68326232384965,220.68153077022518 47.69901062516963,220.68153077022518 47.69901062516963,172.4033300758668 37.42342032384965,172.4033300758668 37.42342032384965,220.68153077022518 26.43916862516963,220.68153077022518 26.43916862516963,172.4033300758668 0.0,172.4033300758668 1.787430397908267,164.9452688564867 24.7685138203052,170.45301220568027 27.163385931896208,160.46039775348186 4.182302509499276,154.9526544042883 6.742338213968986,144.2708941295072 29.7234216380159,149.77863747705078 32.118293749606906,139.78602302485237 9.137210327209976,134.27827967565884 11.697246031679686,123.59651940087775 34.6783294557266,129.1042627500713 37.073201567317604,119.11164829787289 14.092118144920676,113.60390494867934 16.652153849390388,102.92214467224828 39.633237271787316,108.42988802144184 42.02810938502831,98.43727356924343 19.047025960981394,92.92953022004987 21.607061667101085,82.2477699452688 44.58814508949802,87.75551329446235 46.98301720108903,77.76289884226394 24.001933778692095,72.25515549307039 26.561969484811787,61.573395216639334 49.54305290720872,67.08113856583289 51.937925018799724,57.08852411363447 28.956841596402793,51.580780764440924 31.47558640347782,41.071306944480526 41.31890899500794,0.0 134.8686613689374,81.64534621124527" style="fill:none;stroke:#ff0000" /><polyline points="205.31702130158092,159.8245902265268 15.949624718239992,159.8245902265268 48.707152242837886,23.14366210899988 205.31702130158092,159.8245902265268" style="fill:none;stroke:#ff0000" /></svg>