<?xml version="1.0" encoding="utf-8" ?>
<svg baseProfile="tiny" height="54mm" version="1.2" width="56mm" xmlns="http://www.w3.org/2000/svg" xmlns:ev="http://www.w3.org/2001/xml-events" xmlns:xlink="http://www.w3.org/1999/xlink"><defs /><polyline fill="white" points="199.5989,56.6102 161.276,174.5562 37.2602,174.5562 -1.0628,56.6102 99.2681,-16.2845 199.5989,56.6102" stroke="rgb(0%,0%,0%)" /><polyline fill="white" points="164.4926,99.2254 200.08,110.7885 198.3391,116.1466 162.7516,104.5835 161.2077,109.3351 196.7952,120.8981 195.0543,126.2562 159.4668,114.6932 157.9229,119.4447 109.898,154.3368 109.898,191.7557 104.2641,191.7557 104.2641,154.3368 99.2681,154.3368 99.2681,191.7557 93.6342,191.7557 93.6342,154.3368 88.6382,154.3368 40.6133,119.4447 5.0258,131.0078 3.2848,125.6497 38.8723,114.0866 37.3284,109.3351 1.741,120.8981 0.0,115.54 35.5875,103.9769 34.0436,99.2254 52.3875,42.7687 30.3932,12.4962 34.9511,9.1847 56.9454,39.4572 60.9873,36.5206 38.993,6.2481 43.5509,2.9366 65.5452,33.2091 69.5871,30.2725 128.9491,30.2725 150.9434,0.0 155.5013,3.3115 133.507,33.584 137.5489,36.5206 159.5432,6.2481 164.101,9.5596 142.1068,39.8321 146.1487,42.7687 164.4926,99.2254" stroke="rgb(100%,0%,0%)" /></svg>