<?xml version="1.0" encoding="utf-8" ?>
<svg baseProfile="full" height="36mm" version="1.1" width="52mm" xmlns="http://www.w3.org/2000/svg" xmlns:ev="http://www.w3.org/2001/xml-events" xmlns:xlink="http://www.w3.org/1999/xlink"><defs /><polyline points="141.41195679616473,108.2671875419635 -2.980347698997496,108.2671875419635 -11.615835588513596,70.09035805050938 118.72033565797312,7.948071696452304 164.92479228266498,18.056948060037485 178.76807828326065,79.25728006661612 141.41195679616473,108.2671875419635" style="fill:none;stroke:#000000" /><polyline points="147.43571716398822,2.3476663247202194 142.16341966239872,26.445660257219057 152.37464063829216,28.679729822295577 153.30385247114344,28.883028125156663 153.73203565981788,30.776000160108996 179.4816913713545,24.951524429927375 181.90506565888919,35.66511591181353 156.15540994570262,41.48959164199515 158.42243750633992,51.51198367732247 184.17209321787652,45.687507945490864 186.59546750706122,56.40109942737702 160.84581179387462,62.22557515755864 163.15192603582378,72.42076705411317 163.61915805029832,74.48637159768008 163.0077229191955,74.96119810133679 178.13789413611357,94.4443527604112 169.46240503732392,101.18153869287573 154.33223382040583,81.69838403050136 146.07652645010037,88.10957709388214 145.36620756442832,88.66119445436718 105.01071226728274,88.66119445436718 105.01071226728274,128.67232762033132 94.02646056860272,128.67232762033132 94.02646056860272,88.66119445436718 83.75087026728274,88.66119445436718 83.75087026728274,128.67232762033132 72.76661856860272,128.67232762033132 72.76661856860272,88.66119445436718 62.491028267282736,88.66119445436718 62.491028267282736,128.67232762033132 51.50677656860272,128.67232762033132 51.50677656860272,88.66119445436718 41.23118626728274,88.66119445436718 41.23118626728274,128.67232762033132 30.246934568602722,128.67232762033132 30.246934568602722,88.66119445436718 13.279847127600524,88.66119445436718 12.389610745898759,84.7255277137815 11.49937424869833,80.78986044850191 17.219664007391984,78.0625140739092 0.0,41.94628455032596 9.914959214926597,37.21898414796118 27.13462322396856,73.33521367154442 36.40990765535952,68.91290038983706 19.190243646317555,32.79667086625383 29.10520286289413,28.069370463889037 46.324866871936095,64.18559998747227 55.60015130332705,59.76328670576492 38.38048729428509,23.647057182181683 48.295446510861666,18.919756778166914 65.51511051990363,55.03598630175016 74.79039495129459,50.613673021692776 57.570730942252624,14.49744349810954 67.48569016047918,9.770143094094774 84.70535416952114,45.88637261767801 94.14055729720852,41.38781255704379 130.72760875645747,23.943667874509085 131.43298405845908,24.097993932498838 136.70528156169854,0.0 147.43571716398822,2.3476663247202194" style="fill:none;stroke:#ff0000" /><polyline points="142.80008197350836,39.461228348703784 149.58534272128333,69.45845664448868 141.05560601508674,76.08245460502717 50.600291422505265,76.08245460502717 132.25015196004028,37.15305407425266 142.80008197350836,39.461228348703784" style="fill:none;stroke:#ff0000" /></svg>