<?xml version="1.0" encoding="utf-8" ?>
<svg baseProfile="tiny" height="40mm" version="1.2" width="60mm" xmlns="http://www.w3.org/2000/svg" xmlns:ev="http://www.w3.org/2001/xml-events" xmlns:xlink="http://www.w3.org/1999/xlink"><defs /><polyline fill="none" points="196.6216,104.7897 183.1003,115.2901" stroke="rgb(0%,0%,100%)" /><polyline fill="none" points="146.553,136.6112 21.5501,136.6112" stroke="rgb(0%,0%,100%)" /><polyline fill="none" points="-17.0145,106.4782 -18.7921,98.6195" stroke="rgb(0%,0%,100%)" /><polyline fill="none" points="3.0499,54.8227 115.8841,1.0251" stroke="rgb(0%,0%,100%)" /><polyline fill="none" points="158.0496,4.5418 174.7736,8.2008" stroke="rgb(0%,0%,100%)" /><polyline fill="none" points="203.0395,34.9969 210.6036,68.4373" stroke="rgb(0%,0%,100%)" /><polyline fill="none" points="205.7763,87.6933 164.2695,119.9266 3.8336,119.9266 -5.7614,77.5079 139.0566,8.4609 190.3949,19.693 205.7763,87.6933" stroke="rgb(0%,0%,0%)" /><polyline fill="none" points="183.6647,88.1051 146.553,100.1434 146.553,143.6978 134.0339,143.6978 134.0339,100.1434 121.5524,100.1434 121.5524,143.6978 109.0334,143.6978 109.0334,100.1434 96.5518,100.1434 96.5518,143.6978 84.0328,143.6978 84.0328,100.1434 71.5513,100.1434 71.5513,143.6978 59.0322,143.6978 59.0322,100.1434 46.5507,100.1434 46.5507,143.6978 34.0317,143.6978 34.0317,100.1434 21.5501,100.1434 19.7854,98.1542 18.7446,87.7405 0.0,48.4259 11.3003,43.0381 30.0449,82.3527 41.3114,76.981 22.5668,37.6664 33.8672,32.2786 52.6118,71.5932 63.8783,66.2215 45.1337,26.9069 56.434,21.5191 75.1786,60.8337 86.4451,55.462 67.7005,16.1474 79.0009,10.7595 97.7455,50.0741 109.012,44.7024 90.2674,5.3878 101.5677,0.0 120.3123,39.3146 131.5788,33.9429 153.5346,25.1784 180.7458,40.0397 209.9515,33.4334 213.7347,50.1587 184.529,56.7649 188.3099,73.4801 183.6647,88.1051" stroke="rgb(100%,0%,0%)" /><polyline fill="none" points="205.7763,87.6933 164.2695,119.9266 3.8336,119.9266 -5.7614,77.5079 139.0566,8.4609 190.3949,19.693" stroke="rgb(0%,100%,0%)" /></svg>