<?xml version="1.0" encoding="utf-8" ?>
<svg baseProfile="full" height="43mm" version="1.1" width="62mm" xmlns="http://www.w3.org/2000/svg" xmlns:ev="http://www.w3.org/2001/xml-events" xmlns:xlink="http://www.w3.org/1999/xlink"><defs /><circle cx="170.87471098853786" cy="106.52173758045888" r="15" style="fill:none;stroke:#ff00dd" /><circle cx="22.94704072780444" cy="106.52173758045882" r="15" style="fill:none;stroke:#ff00dd" /><circle cx="20.269535237220847" cy="94.68469121038147" r="15" style="fill:none;stroke:#ff00dd" /><circle cx="153.79697791017725" cy="31.020855612391617" r="15" style="fill:none;stroke:#ff00dd" /><circle cx="181.33766543952257" cy="37.046365390889996" r="15" style="fill:none;stroke:#ff00dd" /><circle cx="193.14139496787413" cy="89.22994131497974" r="15" style="fill:none;stroke:#ff00dd" /><polyline points="166.98117291633926,126.3048960168327 6.54527903282567,126.3048960168327 -3.0497075110810767,83.88619658188367 141.76826054057082,14.839211744042462 193.10654567911732,26.071296592470453 208.48797456866808,94.07166548866893 166.98117291633926,126.3048960168327" style="fill:none;stroke:#000000" /><polyline points="188.35678269475923,92.94556150848516 207.83352547904985,118.02580591261403 199.08986731518323,124.81593037501167 179.61312453089263,99.73568597088284 170.87471098853786,106.52173758045888 150.57941122136052,106.52173758045882 150.57941122136052,153.61948474659073 139.9242354913235,153.61948474659073 139.9242354913235,106.52173758045882 129.3073494724345,106.52173758045882 129.3073494724345,153.61948474659073 118.65217374239745,153.61948474659073 118.65217374239745,106.52173758045882 108.03528772350849,106.52173758045882 108.03528772350849,153.61948474659079 97.38011199347147,153.61948474659073 97.38011199347147,106.52173758045882 86.76322597458245,106.52173758045882 86.76322597458245,153.61948474659073 76.10805024454544,153.61948474659073 76.10805024454544,106.52173758045882 65.49116422565646,106.52173758045882 65.49116422565646,153.61948474659073 54.8359884956194,153.61948474659073 54.8359884956194,106.52173758045882 44.21910247673048,106.52173758045882 44.21910247673048,153.61948474659073 33.56392674669341,153.61948474659073 33.56392674669341,106.52173758045882 22.94704072780444,106.52173758045882 22.94701663366047,106.5216310620966 20.269535237220847,94.68469121038147 0.0,52.171713803771596 9.617923402453561,47.58603551898949 29.88745863967436,90.09901292559935 39.47081973004086,85.52981342083842 19.201284492820065,43.01683601422859 28.819207895273575,38.431157729446454 49.08874313249442,80.94413513605635 58.67210422286092,76.37493563129544 38.40256898564002,33.86195822468557 48.02049238809359,29.276279939903464 68.29002762531448,71.78925734651334 77.87338871568093,67.2200578417524 57.60385347846009,24.707080435142533 67.22177688091365,20.121402150360428 87.4913121181345,62.634379556970295 97.07467320850095,58.06518005220939 76.8051379712801,15.552202645599497 86.42306137373366,10.966524360817415 106.69259661095451,53.47950176742729 116.27595770132096,48.910302262666356 96.00642246410017,6.397324856056509 105.62434586655368,1.8116465712743761 125.89388110377458,44.32462397788427 135.477242194141,39.75542447312334 153.79697791017725,31.020855612391617 160.58389884781494,0.0 171.39845709776858,2.366071159835858 164.6115361601309,33.386926772227476 175.41960762117128,35.751578715132524 181.3376806932796,37.04643282682784 213.99933091015967,29.6584898144421 216.9520300359495,42.7121944627533 184.29037981906941,50.10013747513902 187.23953783057686,63.1381870709038 219.90118804745694,55.75024405851806 222.85388717324676,68.80394870682926 190.19223695636674,76.19189171921498 193.14139496787413,89.22994131497974 188.35678269475923,92.94556150848516" style="fill:none;stroke:#ff0000" /><polyline points="170.87471098853786,106.52173758045888 22.94704072780444,106.52173758045882 20.269535237220847,94.68469121038147 153.79697791017725,31.020855612391617 181.33766543952257,37.046365390889996 193.14139496787413,89.22994131497974 170.87471098853786,106.52173758045888" style="fill:none;stroke:#00ff00" /><polyline points="201.3136681264477,109.63017129884237 183.83159642022633,123.20634737081609" style="fill:none;stroke:#0000ff" /><polyline points="150.57941122136052,142.98956374659073 22.94704072780444,142.98956374659073" style="fill:none;stroke:#0000ff" /><polyline points="-13.852890757077882,114.84566317375139 -16.530372153517504,103.00872332203626" style="fill:none;stroke:#0000ff" /><polyline points="4.574806842212409,61.76683562804711 119.78251379913253,6.837568890788987" style="fill:none;stroke:#0000ff" /><polyline points="158.3119636954303,10.384292519454561 179.93459340642437,15.115015622195465" style="fill:none;stroke:#0000ff" /><polyline points="203.63133915218899,32.003690738221046 215.43505342678355,84.187199226373" style="fill:none;stroke:#0000ff" /></svg>