<?xml version="1.0" encoding="utf-8" ?>
<svg baseProfile="full" height="34mm" version="1.1" width="58mm" xmlns="http://www.w3.org/2000/svg" xmlns:ev="http://www.w3.org/2001/xml-events" xmlns:xlink="http://www.w3.org/1999/xlink"><defs /><polyline points="219.39339401913722,113.81999562507602 -3.835084797756675,113.81999562507602 92.17163414062365,20.6888388542753 219.39339401913722,113.81999562507602" style="fill:none;stroke:#000000" /><polyline points="105.55434609948934,10.196787972577512 90.86571757223903,30.262180006013455 99.15712390617436,36.33180413312729 113.84575243177468,16.266412099691347 122.70897989150556,22.754630990380317 108.02035136590524,42.82002302546624 116.31175769984057,48.889647152580075 131.00038622544088,28.824255117494154 139.86361368517177,35.3124740098331 125.17498515957145,55.37786604491903 133.46639149350676,61.447490172032865 148.1550200191071,41.382098136946944 157.01824747883796,47.87031702928589 142.32961895323766,67.93570906272184 150.621025285523,74.00533318983567 165.30965381112333,53.939941156399726 174.1728812708542,60.428160047088696 159.48425274525388,80.49355208217462 167.7756590791892,86.56317620928846 182.46428760478952,66.49778417420254 191.3275150645204,72.98600306654149 176.63888653892008,93.0513951016274 184.9302928728554,99.12101922874125 199.61892139845574,79.05562719365533 208.4821488581866,85.54384608599428 195.9165710714756,102.70904595309202 192.99568796151672,102.70904595309202 192.99568796151672,121.33866758036723 182.0114362628367,121.33866758036723 182.0114362628367,102.70904595309202 171.7358459615167,102.70904595309202 171.7358459615167,121.33866758036723 160.7515942628367,121.33866758036723 160.7515942628367,102.70904595309202 150.4760039615167,102.70904595309202 150.4760039615167,121.33866758036723 139.4917522628367,121.33866758036723 139.4917522628367,102.70904595309202 129.21616196151672,102.70904595309202 129.21616196151672,121.33866758036723 118.2319102628367,121.33866758036723 118.2319102628367,102.70904595309202 107.95631996151671,102.70904595309202 107.95631996151671,121.33866758036723 96.9720682628367,121.33866758036723 96.9720682628367,102.70904595309202 86.69647796151672,102.70904595309202 86.69647796151672,121.33866758036723 75.7122262628367,121.33866758036723 75.7122262628367,102.70904595309202 65.43663596151671,102.70904595309202 65.43663596151671,121.33866758036723 54.4523842628367,121.33866758036723 54.4523842628367,102.70904595309202 44.176793961516715,102.70904595309202 44.176793961516715,121.33866758036723 33.1925422628367,121.33866758036723 33.1925422628367,102.70904595309202 22.916951961516716,102.70904595309202 22.916951961516716,121.33866758036723 11.9327002628367,121.33866758036723 11.9327002628367,108.19078497962539 15.435549585996213,104.79285186495024 0.0,88.88070686542515 7.884214068608829,81.23263822642166 23.31976365295506,97.14478322759672 30.69531875061976,89.99013836685802 15.259769164623545,74.07799336733294 23.143983233232376,66.42992472832945 38.57953281757861,82.34206972950452 45.955087915243304,75.18742486876582 30.51953832924709,59.275279869240734 38.40375239785592,51.627211230237236 53.83930198220215,67.5393562314123 61.21485707986685,60.38471137067361 45.77930749387064,44.472566371148524 53.66352156247947,36.82449773214503 69.0990711468257,52.736642733320096 76.4746262444904,45.5819978725814 61.03907665849418,29.669852873056318 68.79612598477948,22.145140180269003 91.6250301112846,0.0 105.55434609948934,10.196787972577512" style="fill:none;stroke:#ff0000" /><polyline points="193.45226040639207,90.130306103752 16.777560809312945,90.130306103752 92.7623021727204,16.421435117862718 193.45226040639207,90.130306103752" style="fill:none;stroke:#ff0000" /></svg>