<?xml version="1.0" encoding="utf-8" ?>
<svg baseProfile="full" height="48mm" version="1.1" width="52mm" xmlns="http://www.w3.org/2000/svg" xmlns:ev="http://www.w3.org/2001/xml-events" xmlns:xlink="http://www.w3.org/1999/xlink"><defs /><polyline points="133.6145762658427,156.21881730468138 30.074028588781623,156.21881730468138 9.436931481003713,128.15426742809396 40.300852403443855,29.32075388861119 128.93646096094608,11.294061376064926 177.24260587023406,76.98596591439396 133.6145762658427,156.21881730468138" style="fill:none;stroke:#000000" /><polyline points="108.37398664053585,32.236411706060835 118.61704518586069,30.153180487499657 120.11694984961926,29.84813017422378 125.81032943623933,37.590601635470165 155.36242916691845,15.859643734257558 161.86968123241928,24.70890675059823 132.31758150174016,46.439864651810844 138.40501085653125,54.718207473176314 167.95711058721037,32.98724957196371 174.46436265271123,41.83651258830439 144.9122629220321,63.56747048951699 151.10464795615061,71.98854336086376 156.9030665791331,79.87385823072913 156.2501958704105,81.05953652428872 185.06684503300522,96.92686428724188 179.7686706186306,106.54887724086969 150.95202145768587,90.68154947791652 145.9956647471983,99.6827874020651 174.81231390814304,115.55011516666825 169.51413949541842,125.17212812029605 140.6974903328237,109.30480035569289 135.74113362233615,118.30603827984149 164.55778278328089,134.17336604444463 159.25960837055624,143.79537899807244 130.4429592096115,127.92805123346928 125.40114807108971,137.08448291746265 123.96330371318814,139.695751621132 115.70913689374845,139.695751621132 115.70913689374845,172.81960393670994 104.72488519506842,172.81960393670994 104.72488519506842,139.695751621132 94.44929489539842,139.695751621132 94.44929489539842,172.81960393670994 83.46504319671841,172.81960393670994 83.46504319671841,139.695751621132 73.18945289539843,139.695751621132 73.18945289539843,172.81960393670994 62.20520119671841,172.81960393670994 62.20520119671841,139.695751621132 36.022817681518234,139.695751621132 31.502445820488973,133.54846254825875 26.98211265811171,127.40122610317624 31.61807590439383,112.55578448027745 0.0,102.68203053368683 3.2742445686093253,92.19713149293575 34.89232047300315,102.07088543952638 37.95532345680704,92.2624314966883 6.337247552413207,82.38867755174766 9.611492121022533,71.90377850934661 41.22956802376638,81.77753245758721 44.29257100922025,71.96907851474913 12.674495104826415,62.09532456650852 15.948739673435739,51.61042552575745 47.566815576179586,61.48417947399806 50.68262895742232,51.50661425503175 53.19590362902253,43.4585193018949 55.94341577976552,42.899730822476535 49.38718075441738,10.66331911476572 60.15107278344774,8.47416088797174 66.70730781209583,40.71057259403258 76.77675519563552,38.66265037931566 70.22052016863738,6.426238671604841 80.98441219766774,4.23708044316088 87.54064722631584,36.47349214922171 97.61009460985551,34.42556993615477 91.05385958450736,2.1891582284439606 101.81775161353772,0.0 108.37398664053585,32.236411706060835" style="fill:none;stroke:#ff0000" /><polyline points="142.0065786688732,80.84894033446184 116.52996442326388,127.117011771792 42.386626009349825,127.117011771792 40.8859712378749,125.07625960187083 62.98704022538539,54.30345317544191 114.74578260344835,43.77677040285147 142.0065786688732,80.84894033446184" style="fill:none;stroke:#ff0000" /></svg>