<?xml version="1.0" encoding="utf-8" ?>
<svg baseProfile="tiny" height="29mm" version="1.2" width="33mm" xmlns="http://www.w3.org/2000/svg" xmlns:ev="http://www.w3.org/2001/xml-events" xmlns:xlink="http://www.w3.org/1999/xlink"><defs /><polyline fill="white" points="60.4199,-30.5799 122.4278,76.8209 -1.5879,76.8209 60.4199,-30.5799" stroke="rgb(0%,0%,0%)" /><polyline fill="white" points="60.3096,28.81 110.21,0.0 113.0269,4.8791 63.1265,33.6891 65.6245,38.0158 115.5249,9.2058 118.3419,14.0848 68.4415,42.8949 70.9395,47.2216 71.0499,47.0304 71.0499,104.6504 65.416,104.6504 65.416,47.0304 60.4199,47.0304 60.4199,104.6504 54.7861,104.6504 54.7861,47.0304 49.79,47.0304 49.9004,47.2216 0.0,18.4116 2.8169,13.5325 52.7173,42.3425 55.2154,38.0158 5.315,9.2058 8.1319,4.3267 58.0323,33.1367 60.5303,28.81 60.3096,28.81" stroke="rgb(100%,0%,0%)" /></svg>