<?xml version="1.0" encoding="utf-8" ?>
<svg baseProfile="full" height="57mm" version="1.1" width="62mm" xmlns="http://www.w3.org/2000/svg" xmlns:ev="http://www.w3.org/2001/xml-events" xmlns:xlink="http://www.w3.org/1999/xlink"><defs /><circle cx="147.75257181804503" cy="162.24920537298095" r="15" style="fill:none;stroke:#ff00dd" /><circle cx="48.501906509068505" cy="162.249205372981" r="15" style="fill:none;stroke:#ff00dd" /><circle cx="37.274388586534876" cy="146.98081587606544" r="15" style="fill:none;stroke:#ff00dd" /><circle cx="66.85957844206212" cy="52.242099123182896" r="15" style="fill:none;stroke:#ff00dd" /><circle cx="143.41547204082707" cy="36.67217664633954" r="15" style="fill:none;stroke:#ff00dd" /><circle cx="185.43477875986366" cy="93.81456072474658" r="15" style="fill:none;stroke:#ff00dd" /><polyline points="157.50853928887472,178.94943640471263 42.46348631436243,178.94943640471263 19.533378416831408,147.76660320850436 53.82662388620936,37.95158816463465 152.31063339454514,17.92192981736102 205.9841277381984,90.91293485994882 157.50853928887472,178.94943640471263" style="fill:none;stroke:#000000" /><polyline points="185.43477875986366,93.81456072474658 220.45917821411078,113.10006553056299 214.37674610221242,124.14636865228483 179.35234664796525,104.86086384646843 173.28085306918848,115.88730150149118 208.30525252343563,135.17280630730758 202.2228204115372,146.21910942902943 167.19842095729004,126.93360462321303 161.12692737851327,137.9600422782358 196.15132683276042,157.2455470840522 190.068894720862,168.29185020577404 155.04449526661486,149.00634539995758 148.97300168783806,160.03278305498037 147.75257181804503,162.24920537298095 147.75257181804503,202.45967168841568 135.7966020962335,202.45967168841574 135.7966020962335,162.24920537298095 123.8692923098318,162.249205372981 123.8692923098318,202.4596716884158 111.91332258802029,202.4596716884158 111.91332258802029,162.24920537298104 99.98601280161857,162.24920537298104 99.98601280161857,202.45967168841582 88.03004307980703,202.45967168841588 88.03004307980703,162.24920537298104 76.10273329340534,162.2492053729811 76.10273329340534,202.45967168841588 64.14676357159381,202.45967168841594 64.14676357159381,162.2492053729811 52.21945378519213,162.24920537298115 48.501886457577044,162.24917810480105 38.38252689843151,143.43229710142015 0.0,131.44612730362803 3.563903000685371,120.03367402665167 41.94642989911688,132.01984382444377 45.50178978433916,120.6347476068608 7.119262885907652,108.64857780906875 10.683165886592999,97.23612453209238 49.06569278502453,109.22229432988442 52.62105267024681,97.83719811230152 14.238525771815304,85.85102831450942 17.802428772500676,74.43857503753304 56.18495567093218,86.42474483532513 59.740315556154464,75.0396486177422 21.357788657722956,63.053478819950136 24.921691658408328,51.64102554297375 63.304218556839835,63.62719534076582 66.85957844206212,52.242099123182896 69.33904882832455,51.73782492712864 61.370453652307546,12.556966747899699 73.72763565120651,10.043765520526078 81.69623082722353,49.22462369975502 94.03118989915875,46.71594216686564 86.06259472314173,7.535083987636673 98.41977672204068,5.0218827602630265 106.38837189805768,44.20274093949197 118.7233309699929,41.694059406602584 110.75473579397585,2.5132012273736213 123.11191779287482,0.0 131.08051296889187,39.18085817922894 143.41547204082707,36.67217664633954 143.41547204082707,36.67217664633954 178.67677371763008,10.742991605039284 185.68629201112074,20.275290393534043 150.42499033431776,46.204475434834265 157.42190284008905,55.719631513948144 192.68320451689206,29.790446472647897 199.69272281038266,39.32274526114263 164.43142113357968,65.25193030244286 171.42833363935097,74.76708638155677 206.68963531615398,48.83790134025651 213.69915360964464,58.37020012875124 178.43785193284165,84.29938517005147 185.43476443861294,93.81454124916537 185.43477875986366,93.81456072474658" style="fill:none;stroke:#ff0000" /><polyline points="147.75257181804503,162.24920537298095 48.501906509068505,162.249205372981 37.274388586534876,146.98081587606544 66.85957844206212,52.242099123182896 143.41547204082707,36.67217664633954 185.43477875986366,93.81456072474658 147.75257181804503,162.24920537298095" style="fill:none;stroke:#00ff00" /><polyline points="211.14755277486097,107.97279996835964 174.68577570283537,174.19102229859345" style="fill:none;stroke:#0000ff" /><polyline points="147.75257181804503,191.8297506884157 52.21945378519213,191.829750688416" style="fill:none;stroke:#0000ff" /><polyline points="28.364371393919033,177.0571780800561 17.13687352287687,161.7888158513205" style="fill:none;stroke:#0000ff" /><polyline points="10.146676491937127,134.6147510796878 38.62372803556774,43.42455310145059" style="fill:none;stroke:#0000ff" /><polyline points="63.488993874203075,22.97363645536628 137.5654170867056,7.907988174577175" style="fill:none;stroke:#0000ff" /><polyline points="170.11297079823504,17.04033231552987 212.13226319602092,74.1826969183557" style="fill:none;stroke:#0000ff" /></svg>