<?xml version="1.0" encoding="utf-8" ?>
<svg baseProfile="tiny" height="54mm" version="1.2" width="59mm" xmlns="http://www.w3.org/2000/svg" xmlns:ev="http://www.w3.org/2001/xml-events" xmlns:xlink="http://www.w3.org/1999/xlink"><defs /><polyline fill="none" points="202.8538,108.4112 171.4691,165.409" stroke="rgb(0%,0%,100%)" /><polyline fill="none" points="134.0368,187.6579 54.4249,187.6579" stroke="rgb(0%,0%,100%)" /><polyline fill="none" points="17.9649,166.5696 16.026,163.9328" stroke="rgb(0%,0%,100%)" /><polyline fill="none" points="6.7645,122.8442 30.4956,46.8515" stroke="rgb(0%,0%,100%)" /><polyline fill="none" points="62.8911,17.7529 126.6529,4.7851" stroke="rgb(0%,0%,100%)" /><polyline fill="none" points="169.0263,19.2172 201.7086,63.6622" stroke="rgb(0%,0%,100%)" /><polyline fill="none" points="200.229,86.7411 151.7534,174.7776 36.7083,174.7776 13.7782,143.5948 48.0715,33.7798 146.5555,13.7501 200.229,86.7411" stroke="rgb(0%,0%,0%)" /><polyline fill="none" points="177.1411,94.253 209.0616,111.8294 203.8261,121.3376 171.9056,103.7612 166.6795,113.2522 198.6,130.8287 193.3645,140.3368 161.444,122.7604 156.2179,132.2515 188.1385,149.8279 182.903,159.3361 150.9824,141.7597 145.7564,151.2507 134.0368,158.0774 134.0368,194.7446 120.7562,194.7446 120.7562,158.0774 107.4995,158.0774 107.4995,194.7446 94.2189,194.7446 94.2189,158.0774 80.9622,158.0774 80.9622,194.7446 67.6816,194.7446 67.6816,158.0774 54.4249,158.0774 38.1025,151.7616 35.0003,131.6618 0.0,120.7318 3.9588,108.055 38.9591,118.9849 42.9107,106.3309 7.9104,95.4009 11.8691,82.724 46.8694,93.654 50.8211,80.9999 15.8208,70.07 19.7795,57.3931 54.7798,68.3231 58.7315,55.669 68.7412,46.5171 61.4788,10.8085 72.1153,8.6452 79.3777,44.3539 89.9951,42.1945 82.7327,6.4859 93.3692,4.3226 100.6317,40.0313 111.2491,37.8719 103.9866,2.1633 114.6232,0.0 121.8856,35.7086 132.503,33.5493 142.3288,38.8491 174.7355,15.019 182.911,26.1369 150.5043,49.967 158.67,61.0716 191.0767,37.2415 199.2521,48.3594 166.8454,72.1895 175.0111,83.2941 177.1411,94.253" stroke="rgb(100%,0%,0%)" /><polyline fill="none" points="200.229,86.7411 151.7534,174.7776 36.7083,174.7776 13.7782,143.5948 48.0715,33.7798 146.5555,13.7501" stroke="rgb(0%,100%,0%)" /></svg>