<?xml version="1.0" encoding="utf-8" ?>
<svg baseProfile="tiny" height="62mm" version="1.2" width="58mm" xmlns="http://www.w3.org/2000/svg" xmlns:ev="http://www.w3.org/2001/xml-events" xmlns:xlink="http://www.w3.org/1999/xlink"><defs /><polyline fill="white" points="202.0818,147.0886 189.055,171.4482" stroke="rgb(0%,0%,100%)" /><polyline fill="white" points="118.3728,213.8037 90.7488,213.8037" stroke="rgb(0%,0%,100%)" /><polyline fill="white" points="20.0666,171.4482 9.5381,151.7604" stroke="rgb(0%,0%,100%)" /><polyline fill="white" points="6.2492,67.6809 14.2793,52.6649" stroke="rgb(0%,0%,100%)" /><polyline fill="white" points="86.0339,8.7167 108.2539,6.5418" stroke="rgb(0%,0%,100%)" /><polyline fill="white" points="182.7258,41.8107 198.0636,64.7854" stroke="rgb(0%,0%,100%)" /><polyline fill="white" points="200.2514,105.9283 153.8059,192.7795 55.3157,192.7795 11.3685,110.6001 52.8173,33.0925 145.5664,24.0145 200.2514,105.9283" stroke="rgb(0%,0%,0%)" /><polyline fill="white" points="162.7673,126.0644 208.331,150.4305 204.8788,156.8858 159.3152,132.5196 156.2539,138.2441 201.8175,162.6103 198.3654,169.0656 152.8018,144.6994 149.7405,150.4239 118.3728,169.2207 118.3728,220.8904 111.0524,220.8904 111.0524,169.2207 104.5608,169.2207 104.5608,220.8904 97.2404,220.8904 97.2404,169.2207 90.7488,169.2207 59.381,150.4239 13.8174,174.7901 11.0274,169.5728 56.591,145.2067 54.1168,140.58 8.5532,164.9462 5.7631,159.7289 51.3267,135.3628 48.8526,130.7361 51.8341,92.0585 0.0,64.3391 2.128,60.3598 53.962,88.0792 55.8491,84.5505 4.0151,56.8311 6.1431,52.8518 57.9771,80.5712 59.8642,77.0425 90.3768,53.0877 85.3436,1.6637 91.2319,1.0874 96.2651,52.5113 101.4868,52.0002 96.4536,0.5763 102.3419,0.0 107.3751,51.4239 112.5968,50.9128 145.6464,66.5646 188.6197,37.8759 192.6842,43.9643 149.7109,72.6529 153.3152,78.052 196.2886,49.3633 200.3531,55.4516 157.3797,84.1403 160.9841,89.5394 162.7673,126.0644" stroke="rgb(100%,0%,0%)" /><polyline fill="white" points="200.2514,105.9283 153.8059,192.7795 55.3157,192.7795 11.3685,110.6001 52.8173,33.0925 145.5664,24.0145" stroke="rgb(0%,100%,0%)" /></svg>