<?xml version="1.0" encoding="UTF-8" standalone="no"?>
<svg
   xmlns:dc="http://purl.org/dc/elements/1.1/"
   xmlns:cc="http://creativecommons.org/ns#"
   xmlns:rdf="http://www.w3.org/1999/02/22-rdf-syntax-ns#"
   xmlns:svg="http://www.w3.org/2000/svg"
   xmlns="http://www.w3.org/2000/svg"
   xmlns:sodipodi="http://sodipodi.sourceforge.net/DTD/sodipodi-0.dtd"
   xmlns:inkscape="http://www.inkscape.org/namespaces/inkscape"
   height="29mm"
   version="1.2"
   width="33mm"
   id="svg8"
   sodipodi:docname="num53.svg"
   inkscape:version="0.92.2 5c3e80d, 2017-08-06">
  <metadata
     id="metadata12">
    <rdf:RDF>
      <cc:Work
         rdf:about="">
        <dc:format>image/svg+xml</dc:format>
        <dc:type
           rdf:resource="http://purl.org/dc/dcmitype/StillImage" />
        <dc:title></dc:title>
      </cc:Work>
    </rdf:RDF>
  </metadata>
  <sodipodi:namedview
     pagecolor="#ffffff"
     bordercolor="#666666"
     borderopacity="1"
     objecttolerance="10"
     gridtolerance="10"
     guidetolerance="10"
     inkscape:pageopacity="0"
     inkscape:pageshadow="2"
     inkscape:window-width="640"
     inkscape:window-height="480"
     id="namedview10"
     showgrid="false"
     inkscape:zoom="2.8284271"
     inkscape:cx="-38.456227"
     inkscape:cy="21.338101"
     inkscape:current-layer="svg8" />
  <defs
     id="defs2" />
  <polyline
     fill="white"
     points="60.4199,-30.5799 122.4278,76.8209 -1.5879,76.8209 60.4199,-30.5799"
     stroke="rgb(0%,0%,0%)"
     id="polyline4" />
  <polyline
     fill="white"
     points="60.3096,28.81 110.21,0.0 113.0269,4.8791 63.1265,33.6891 65.6245,38.0158 115.5249,9.2058 118.3419,14.0848 68.4415,42.8949 70.9395,47.2216 71.0499,47.0304 71.0499,104.6504 65.416,104.6504 65.416,47.0304 60.4199,47.0304 60.4199,104.6504 54.7861,104.6504 54.7861,47.0304 49.79,47.0304 49.9004,47.2216 0.0,18.4116 2.8169,13.5325 52.7173,42.3425 55.2154,38.0158 5.315,9.2058 8.1319,4.3267 58.0323,33.1367 60.5303,28.81 60.3096,28.81"
     stroke="rgb(100%,0%,0%)"
     id="polyline6" />
</svg>
