<?xml version="1.0" encoding="UTF-8" standalone="no"?>
<svg
   xmlns:dc="http://purl.org/dc/elements/1.1/"
   xmlns:cc="http://creativecommons.org/ns#"
   xmlns:rdf="http://www.w3.org/1999/02/22-rdf-syntax-ns#"
   xmlns:svg="http://www.w3.org/2000/svg"
   xmlns="http://www.w3.org/2000/svg"
   xmlns:sodipodi="http://sodipodi.sourceforge.net/DTD/sodipodi-0.dtd"
   xmlns:inkscape="http://www.inkscape.org/namespaces/inkscape"
   height="48mm"
   version="1.1"
   width="52mm"
   id="svg13239"
   sodipodi:docname="num5.svg">
  <metadata
     id="metadata13243">
    <rdf:RDF>
      <cc:Work
         rdf:about="">
        <dc:format>image/svg+xml</dc:format>
        <dc:type
           rdf:resource="http://purl.org/dc/dcmitype/StillImage" />
        <dc:title></dc:title>
      </cc:Work>
    </rdf:RDF>
  </metadata>
  <sodipodi:namedview
     pagecolor="#ffffff"
     bordercolor="#666666"
     inkscape:document-rotation="0"
     borderopacity="1"
     objecttolerance="10"
     gridtolerance="10"
     guidetolerance="10"
     inkscape:pageopacity="0"
     inkscape:pageshadow="2"
     inkscape:window-width="640"
     inkscape:window-height="480"
     id="namedview13241"
     showgrid="false" />
  <defs
     id="defs13233" />
  <path
     id="polyline13235"
     style="fill:none;stroke:#ff0000"
     d="M 101.81836 0 L 91.054688 2.1894531 L 97.609375 34.425781 L 87.541016 36.472656 L 80.984375 4.2363281 L 70.220703 6.4257812 L 76.777344 38.662109 L 66.707031 40.710938 L 60.150391 8.4746094 L 49.386719 10.664062 L 55.943359 42.900391 L 53.195312 43.458984 L 50.683594 51.505859 L 47.566406 61.484375 L 15.949219 51.611328 L 12.673828 62.095703 L 44.292969 71.96875 L 41.230469 81.777344 L 9.6113281 71.904297 L 6.3378906 82.388672 L 37.955078 92.261719 L 34.892578 102.07031 L 3.2734375 92.197266 L 0 102.68164 L 31.617188 112.55664 L 26.982422 127.40039 L 31.501953 133.54883 L 36.023438 139.69531 L 62.205078 139.69531 L 62.205078 172.82031 L 73.189453 172.82031 L 73.189453 139.69531 L 83.464844 139.69531 L 83.464844 172.82031 L 94.449219 172.82031 L 94.449219 139.69531 L 104.72461 139.69531 L 104.72461 172.82031 L 115.70898 172.82031 L 115.70898 139.69531 L 123.96289 139.69531 L 125.40039 137.08398 L 130.44336 127.92773 L 159.25977 143.79492 L 164.55859 134.17383 L 135.74023 118.30664 L 140.69727 109.30469 L 169.51367 125.17188 L 174.8125 115.55078 L 145.99609 99.683594 L 150.95117 90.681641 L 179.76953 106.54883 L 185.06641 96.927734 L 156.25 81.058594 L 156.90234 79.873047 L 151.10547 71.988281 L 144.91211 63.568359 L 174.46484 41.835938 L 167.95703 32.986328 L 138.4043 54.71875 L 132.31836 46.439453 L 161.86914 24.708984 L 155.36328 15.859375 L 125.81055 37.589844 L 120.11719 29.847656 L 118.61719 30.152344 L 108.37305 32.236328 L 101.81836 0 z M 114.74609 43.777344 L 142.00586 80.849609 L 116.5293 127.11719 L 42.386719 127.11719 L 40.886719 125.07617 L 62.986328 54.302734 L 114.74609 43.777344 z " />
</svg>
