<?xml version="1.0" encoding="utf-8" ?>
<svg baseProfile="tiny" height="34mm" version="1.2" width="35mm" xmlns="http://www.w3.org/2000/svg" xmlns:ev="http://www.w3.org/2001/xml-events" xmlns:xlink="http://www.w3.org/1999/xlink"><defs /><polyline fill="white" points="101.3029,105.1932 119.4853,71.1929" stroke="rgb(0%,0%,100%)" /><polyline fill="white" points="43.5889,116.673 82.1456,116.673" stroke="rgb(0%,0%,100%)" /><polyline fill="white" points="6.2492,71.1929 25.4309,107.0619" stroke="rgb(0%,0%,100%)" /><polyline fill="white" points="22.1419,16.7332 1.9609,54.4709" stroke="rgb(0%,0%,100%)" /><polyline fill="white" points="78.9129,7.0529 38.4305,11.0152" stroke="rgb(0%,0%,100%)" /><polyline fill="white" points="118.3963,48.8858 96.9883,16.8184" stroke="rgb(0%,0%,100%)" /><polyline fill="white" points="101.1435,60.9083 82.5653,95.6487 43.1692,95.6487 25.5903,62.777 42.1699,31.7739 79.2695,28.1427 101.1435,60.9083" stroke="rgb(0%,0%,0%)" /><polyline fill="white" points="61.9885,84.1689 107.5521,108.535 112.3704,99.525 66.8068,75.1588 71.0797,67.1687 116.6433,91.5349 121.4616,82.5248 75.898,58.1587 80.1709,50.1686 43.5889,72.09 43.5889,123.7596 53.8064,123.7596 53.8064,72.09 62.8672,72.09 62.8672,123.7596 73.0848,123.7596 73.0848,72.09 82.1456,72.09 45.5636,50.1686 0.0,74.5348 5.0832,84.04 50.6468,59.6739 55.1545,68.1031 9.5909,92.4693 14.674,101.9745 60.2376,77.6084 64.7453,86.0376 67.7269,41.1108 15.8928,13.3914 10.5448,23.3919 62.3789,51.1113 57.6363,59.9796 5.8023,32.2602 0.4543,42.2607 52.2883,69.9801 47.5458,78.8485 83.2558,51.4239 78.2226,0.0 67.4947,1.05 72.5279,52.4739 63.0146,53.4051 57.9814,1.9811 47.2535,3.0312 52.2868,54.4551 42.7734,55.3862 81.3168,73.6398 124.2902,44.9511 118.6171,36.4532 75.6437,65.1419 70.6128,57.6061 113.5862,28.9174 107.9131,20.4196 64.9397,49.1082 59.9088,41.5724 61.9885,84.1689" stroke="rgb(100%,0%,0%)" /></svg>