<?xml version="1.0" encoding="utf-8" ?>
<svg baseProfile="tiny" height="48mm" version="1.2" width="50mm" xmlns="http://www.w3.org/2000/svg" xmlns:ev="http://www.w3.org/2001/xml-events" xmlns:xlink="http://www.w3.org/1999/xlink"><defs /><polyline fill="white" points="172.9054,97.9438 167.6434,114.1387" stroke="rgb(0%,0%,100%)" /><polyline fill="white" points="97.7184,164.9421 80.6901,164.9421" stroke="rgb(0%,0%,100%)" /><polyline fill="white" points="10.7652,114.1387 5.5032,97.9438" stroke="rgb(0%,0%,100%)" /><polyline fill="white" points="32.2121,15.7422 45.9883,5.7332" stroke="rgb(0%,0%,100%)" /><polyline fill="white" points="132.4203,5.7332 146.1964,15.7422" stroke="rgb(0%,0%,100%)" /><polyline fill="white" points="160.3124,56.5956 133.1515,140.1882 45.2571,140.1882 18.0962,56.5956 89.2043,4.9325 160.3124,56.5956" stroke="rgb(0%,0%,0%)" /><polyline fill="white" points="123.7417,81.9696 179.6452,100.1337 178.2507,104.4254 122.3472,86.2612 121.1107,90.067 177.0141,108.2312 175.6197,112.5228 119.7162,94.3587 118.4796,98.1645 97.7184,113.2484 97.7184,172.0288 93.2059,172.0288 93.2059,113.2484 89.2043,113.2484 89.2043,172.0288 84.6918,172.0288 84.6918,113.2484 80.6901,113.2484 59.9289,98.1645 4.0255,116.3286 2.631,112.037 58.5345,93.8728 57.2979,90.067 1.3944,108.2312 0.0,103.9395 55.9035,85.7754 54.6669,81.9696 62.597,57.5633 28.0467,10.009 31.6974,7.3566 66.2477,54.9109 69.4851,52.5588 34.9348,5.0045 38.5855,2.3521 73.1358,49.9065 76.3732,47.5543 102.0354,47.5543 136.5857,0.0 140.2364,2.6524 105.6861,50.2067 108.9235,52.5588 143.4738,5.0045 147.1245,7.6569 112.5742,55.2112 115.8116,57.5633 123.7417,81.9696" stroke="rgb(100%,0%,0%)" /><polyline fill="white" points="160.3124,56.5956 133.1515,140.1882 45.2571,140.1882 18.0962,56.5956 89.2043,4.9325" stroke="rgb(0%,100%,0%)" /></svg>