<?xml version="1.0" encoding="utf-8" ?>
<svg baseProfile="full" height="73mm" version="1.1" width="100mm" xmlns="http://www.w3.org/2000/svg" xmlns:ev="http://www.w3.org/2001/xml-events" xmlns:xlink="http://www.w3.org/1999/xlink"><defs /><polyline points="380.21216795728554,236.00080495143882 15.689820341580077,236.00080495143877 105.09281464297145,31.457403981147493 380.21216795728554,236.00080495143882" style="fill:none;stroke:#000000" /><polyline points="116.93206132647698,18.065126246722954 100.13022485474198,40.664292797892024 108.37646592988429,46.79513810007709 125.17830240491925,24.195971550557996 133.9932497603662,30.749633770590297 117.1914132886312,53.34880032010939 125.4376543637735,59.47964562229445 142.23949083880848,36.88047907442534 151.05443819425543,43.43414129280766 134.2526017225204,66.03330784397673 142.49884279766272,72.1641531461618 159.3006792726977,49.564986596642704 168.11562662814467,56.118648815025026 151.31379015475966,78.7178153661941 159.56003123155196,84.84866066837915 176.36186770493694,62.24949412051004 185.17681506203388,68.80315633889236 168.3749785886489,91.40232288841146 176.62121966544117,97.5331681922465 193.42305613882615,74.93400164272741 202.2380034959231,81.48766386110972 185.43616702253811,104.0868304122788 193.68240809768042,110.21767571281389 210.4842445727154,87.61850916494477 219.29919192816234,94.17217138497708 202.49735545642733,116.77133793284618 210.74359653156964,122.90218323503125 227.5454330066046,100.30301668881212 236.36038036205156,106.85667890554446 219.55854389031654,129.45584545671352 227.80478496545885,135.58669075889858 244.60662144049383,112.9875242093795 253.4215687959408,119.54118642776182 236.6197323225558,142.14035297893088 244.8659733993481,148.27119828111594 261.66780987438307,125.67203173324684 270.48275722983,132.22569395162915 253.68092075644503,154.82486050114827 261.92716183323734,160.9557058049833 278.7289983066223,138.3565392554642 287.5439456637192,144.9102014738465 270.74210919033425,167.5093680250156 278.9883502671265,173.64021332720066 295.7901867405115,151.04104677768157 304.60513409760847,157.59470899771387 287.8032976242235,180.19387554723295 296.04953869936577,186.32472084941801 312.85137517440074,163.72555430154893 321.6663225298477,170.27921651993123 304.8644860581127,192.8783830711003 313.110727133255,199.00922837328537 329.91256360829,176.41006182376628 338.7275109637369,182.96372404214858 321.9256744920019,205.56289059331766 330.1719155671442,211.69373589550273 346.97375204217917,189.0945693476336 355.78869939762615,195.64823156601594 338.98686292424117,218.24739811553502 346.94705349995564,224.16557302205533 346.94705349995564,261.0298165946314 335.96280180127565,261.0298165946314 335.96280180127565,217.2575500093414 325.68721149995565,217.2575500093414 325.68721149995565,261.0298165946314 314.70295980127565,261.0298165946314 314.70295980127565,217.2575500093414 304.42736949995566,217.2575500093414 304.42736949995566,261.0298165946314 293.44311780127566,261.0298165946314 293.44311780127566,217.2575500093414 283.16752749995567,217.2575500093414 283.16752749995567,261.0298165946314 272.18327580127567,261.0298165946314 272.18327580127567,217.2575500093414 261.9076854999557,217.2575500093414 261.9076854999557,261.0298165946314 250.92343380127565,261.0298165946314 250.92343380127565,217.2575500093414 240.64784349995566,217.2575500093414 240.64784349995566,261.0298165946314 229.66359180127566,261.0298165946314 229.66359180127566,217.2575500093414 219.38800149995566,217.2575500093414 219.38800149995566,261.0298165946314 208.40374980127564,261.0298165946314 208.40374980127564,217.2575500093414 198.12815949995567,217.2575500093414 198.12815949995567,261.0298165946314 187.14390780127565,261.0298165946314 187.14390780127565,217.2575500093414 176.86831749995565,217.2575500093414 176.86831749995565,261.0298165946314 165.88406580127565,261.0298165946314 165.88406580127565,217.2575500093414 155.60847549995566,217.2575500093414 155.60847549995566,261.0298165946314 144.62422380127566,261.0298165946314 144.62422380127566,217.2575500093414 134.34863349995567,217.2575500093414 134.34863349995567,261.0298165946314 123.36438180127566,261.0298165946314 123.36438180127566,217.2575500093414 113.08879149995566,217.2575500093414 113.08879149995566,261.0298165946314 102.10453980127565,261.0298165946314 102.10453980127565,217.2575500093414 91.82894949995567,217.2575500093414 91.82894949995567,261.0298165946314 80.84469780127564,261.0298165946314 80.84469780127564,217.2575500093414 70.56910749995566,217.2575500093414 70.56910749995566,261.0298165946314 59.58485580127565,261.0298165946314 59.58485580127565,217.2575500093414 49.309265499955664,217.2575500093414 49.309265499955664,261.0298165946314 38.32501380127565,261.0298165946314 38.32501380127565,228.64145159386248 38.308582473093416,228.6790445161169 38.146246450831256,228.6080897638267 38.217201203121434,228.44575374156454 38.32501380127565,228.49287708548974 38.32501380127565,217.2575500093414 28.049423499955665,217.2575500093414 28.049423499955665,224.19491289990134 0.0,211.9349111714299 4.399194688190449,201.87007776642636 42.545441140671684,218.5432563588232 46.660816819701424,209.1277670428683 8.51457036887017,192.45458845047148 12.9137650587106,182.38975504711792 51.06001150954186,199.06293363786475 55.17538719022158,189.64744432190986 17.02914073774034,172.97426573116303 21.42833542758077,162.9094323261595 59.574581878412026,179.58261091690633 63.689957559091745,170.1671216026014 25.543711108260492,153.4939430102046 29.94290579645094,143.42910960520106 68.08915224893218,160.1022881975979 72.20452792796192,150.686798881643 34.05828147713066,134.01362028924618 38.45747616697109,123.94878688589262 76.60372261780235,140.62196547663945 80.71909829848207,131.20647616068456 42.57285184600083,114.53329756993773 46.972046535841265,104.46846416493419 85.11829298667251,121.14164275568103 89.23366866735223,111.72615344137611 51.087422216520984,95.05297485062928 55.48661690471143,84.98814144562574 93.63286335719268,101.66132003802257 97.74823903622242,92.24583072206767 59.60199258539115,75.57265212967084 64.00118727523159,65.5078187263173 102.14743372606284,82.18099731706414 106.26280940674256,72.76550800110924 68.11656295426133,56.0923294103624 72.51575764410175,46.02749600535887 110.66200409493301,62.700674597755686 114.77737977561273,53.28518528180079 76.63113332478147,36.61200668940398 80.95937326068174,26.709509306662603 92.63371766473281,0.0 116.93206132647698,18.065126246722954" style="fill:none;stroke:#ff0000" /><polyline points="405.72814470433633,248.45107674529143 -2.2328911223188,248.45107674529143 97.82390484532489,19.53304667919794 405.72814470433633,248.45107674529143" style="fill:none;stroke:#ff0000" /></svg>