<?xml version="1.0" encoding="utf-8" ?>
<svg baseProfile="full" height="68mm" version="1.1" width="56mm" xmlns="http://www.w3.org/2000/svg" xmlns:ev="http://www.w3.org/2001/xml-events" xmlns:xlink="http://www.w3.org/1999/xlink"><defs /><circle cx="130.60333732434617" cy="199.79544755491526" r="15" style="fill:none;stroke:#ff00dd" /><circle cx="65.39486428946074" cy="199.79544755491526" r="15" style="fill:none;stroke:#ff00dd" /><circle cx="32.024178394975" cy="127.68267676320559" r="15" style="fill:none;stroke:#ff00dd" /><circle cx="83.35914427133626" cy="48.359509447254105" r="15" style="fill:none;stroke:#ff00dd" /><circle cx="112.63907301918796" cy="48.359509447254105" r="15" style="fill:none;stroke:#ff00dd" /><circle cx="163.9740297549017" cy="127.68266263900972" r="15" style="fill:none;stroke:#ff00dd" /><polyline points="140.8894554505649,217.0973260860221 55.10875676002489,217.0973260860221 12.901734169704888,125.88957100780816 76.2539373455049,27.997280118759573 119.74427486508489,27.997280118759573 183.0964780408849,125.88957100780816 140.8894554505649,217.0973260860221" style="fill:none;stroke:#000000" /><polyline points="163.24995499020508,129.24736040122335 199.53607276290984,146.0390136025791 194.09007282595013,157.80761034126746 157.80395505324543,141.0159571399117 152.3677491015855,152.76338945245402 188.65386687429023,169.55504265380978 183.20786693733052,181.32363939249814 146.9217491646258,164.53198619114238 141.48554321296584,176.27941850368458 177.77166098567056,193.0710717050404 172.32566104871086,204.83966844372875 136.03954327600613,188.048015242373 130.60333732434617,199.79544755491526 130.60333732434617,199.79544755491526 130.60333732434617,241.37861259423906 119.72547898196335,241.37861259423912 119.72547898196335,199.79544755491526 108.86718317831205,199.79544755491526 108.86718317831205,241.37861259423912 97.9893248359292,241.37861259423906 97.9893248359292,199.79544755491526 87.1310290322778,199.79544755491526 87.1310290322778,241.37861259423906 76.25317068989496,241.37861259423906 76.25317068989496,199.79544755491526 65.3948748862436,199.79544755491526 65.39486428946074,199.79544755491526 29.10876660706583,216.58709145934046 23.66276729366748,204.81849606814419 59.94886497606242,188.02685216371898 54.512659646842415,176.2794211962455 18.226561964447498,193.0710651006707 12.780562651049172,181.30246970947437 49.06666033344406,164.51082580504917 43.6304550042241,152.76339483757573 7.344357321829189,169.55503874200093 1.898358008430837,157.7864433508046 38.18445569082575,140.99479944637943 32.74825036160577,129.24736847890594 34.3877337909953,124.03049355944968 0.0,101.7760475954501 6.128772021614693,92.30582393380885 40.51650581260999,114.56026989780841 46.63058641108056,105.11274753140077 12.242852620085229,82.85830156740123 18.37162464169992,73.38807790575994 52.759358432695194,95.64252386975951 58.87343903116578,86.19500150335189 24.485705240170482,63.94055553935232 30.61447726178515,54.47033187771104 65.00221105278045,76.72477784171063 71.116291651251,67.27725547530298 36.728557860255734,45.022809511303414 42.85732988187038,35.55258584966214 77.2450636728657,57.80703181366173 83.35914427133626,48.359509447254105 83.35914427133626,48.359509447254105 83.35914427133626,2.5176710494179133e-14 98.00349809384504,0.0 98.00349809384504,48.359509447254084 112.63906793925352,48.359509447254055 112.63907301918796,48.359509447254105 147.02679864669366,26.105068766357498 153.15557029297395,35.57529184802925 118.7678446654682,57.82973252892584 124.88192488950412,67.27725431675421 159.26965051700978,45.022813635857595 165.3984221632901,54.49303671752935 131.01069653578438,76.74747739842594 137.12477675982024,86.19499918625428 171.51250238732595,63.94055850535769 177.6412740336062,73.41078158702945 143.2535484061005,95.66522226792601 149.3676286301364,105.11274405575438 183.75535425764213,82.85830337485778 189.88412590392235,92.32852645652952 155.49640027641667,114.5829671374261 161.61048050045252,124.03048892525446 163.24995499020508,129.24736040122335" style="fill:none;stroke:#ff0000" /><polyline points="130.60333732434617,199.79544755491526 65.39486428946074,199.79544755491526 32.024178394975,127.68267676320559 83.35914427133626,48.359509447254105 112.63907301918796,48.359509447254105 163.9740297549017,127.68266263900972 130.60333732434617,199.79544755491526" style="fill:none;stroke:#00ff00" /><polyline points="189.8890136702476,141.574769956795 157.2423960043887,212.12285711048693" style="fill:none;stroke:#0000ff" /><polyline points="130.60333732434617,230.74869159423906 65.3948748862436,230.74869159423906" style="fill:none;stroke:#0000ff" /><polyline points="38.75582569972809,212.12284781355638 6.109211771873114,141.57476873754703" style="fill:none;stroke:#0000ff" /><polyline points="8.924143115644078,107.55141685790802 57.89555359598504,31.880432745712458" style="fill:none;stroke:#0000ff" /><polyline points="83.35914427133626,10.629921000000039 112.63906793925352,10.629920999999987" style="fill:none;stroke:#0000ff" /><polyline points="138.10265553104963,31.880438028815394 187.0740630123142,107.55141750681581" style="fill:none;stroke:#0000ff" /></svg>