<?xml version="1.0" encoding="utf-8" ?>
<svg baseProfile="full" height="50mm" version="1.1" width="47mm" xmlns="http://www.w3.org/2000/svg" xmlns:ev="http://www.w3.org/2001/xml-events" xmlns:xlink="http://www.w3.org/1999/xlink"><defs /><polyline points="119.92291284041836,162.18835087608687 42.720284018932354,162.18835087608687 4.733963687644345,80.10137130569436 61.75094654586435,-8.001690494449402 100.89225031348634,-8.001690494449402 157.90923317170638,80.10137130569436 119.92291284041836,162.18835087608687" style="fill:none;stroke:#000000" /><polyline points="132.31548228879177,9.221614552301926 103.87718540509053,27.625809058890976 109.46004236097916,36.25248073711697 137.89833924468041,17.8482862321779 143.86622081247003,27.069900782829844 115.42792392876879,45.4740952894189 121.01078088465741,54.10076696929487 149.44907776835865,35.69657246270582 155.41695933779826,44.918187015007746 126.97866245409702,63.322381521596796 132.6577755633734,72.09778891792928 138.9885934075203,81.88021527007655 137.25270542147976,85.63140254679428 167.1074504664763,99.44689331570008 162.49439869985875,109.41552104353153 132.63965365486223,95.60003027297573 128.3242181300813,104.92552073070512 158.17896317342783,118.74101150126091 153.5659114068103,128.70963922909235 123.71116636346375,114.89414845853656 119.39573083868282,124.21963891461597 149.25047588202938,138.03512968682173 144.63742411541182,148.0037574146532 114.78267907206526,134.18826664244742 110.39283948682518,143.6745414177023 109.75002553048027,145.0636376938375 102.75855811461298,145.0636376938375 102.75855811461298,179.56018873247743 91.77430641593297,179.56018873247743 91.77430641593297,145.0636376938375 81.49871611461299,145.0636376938375 81.49871611461299,179.56018873247743 70.51446441758296,179.56018873247743 70.51446441758296,145.0636376938375 52.893160731534785,145.0636376938375 52.324751302593626,143.83532674336615 22.4700263494145,157.65080821792955 17.856974582796948,147.68218049009812 47.711699535976074,133.86669901553472 43.39626401119515,124.54120855780533 13.541539058016026,138.35669003236873 8.928487291398474,128.3880623045373 38.7832122445776,114.57258082997389 34.467776719796674,105.2470903722445 4.613051766617552,119.0625718468079 0.0,109.09394411897645 29.854724953179122,95.27846264441305 25.464885367939043,85.79218787245811 23.654599391719067,81.88022939391304 29.889167248456857,72.24652923123257 1.450862202300101,53.84232944305466 7.4187437700897325,44.62071489075274 35.85704881789647,63.02491467893064 41.43990577378509,54.39824300070465 13.001600725978358,35.99404321087676 18.96948229541797,26.772428658574835 47.407787343224705,45.176628448402724 52.990644299113335,36.54995676852675 24.552339251306595,18.145756980348843 30.520220820746207,8.924142428046915 58.95852586855295,27.328342216224822 64.63763897617933,18.552934819892343 68.75977913799984,12.183373485510604 93.88342280213372,12.183373485510604 97.90930383565092,18.40419450658905 126.34760071935217,0.0 132.31548228879177,9.221614552301926" style="fill:none;stroke:#ff0000" /><polyline points="124.6601883570321,82.89179969498905 101.71063749684753,132.4848978444975 60.93254876516754,132.4848978444975 37.983004442207275,82.89181381882554 75.60235691894246,24.76211333485061 87.0408450211911,24.76211333485061 124.6601883570321,82.89179969498905" style="fill:none;stroke:#ff0000" /></svg>