<?xml version="1.0" encoding="utf-8" ?>
<svg baseProfile="tiny" height="41mm" version="1.2" width="45mm" xmlns="http://www.w3.org/2000/svg" xmlns:ev="http://www.w3.org/2001/xml-events" xmlns:xlink="http://www.w3.org/1999/xlink"><defs /><polyline fill="white" points="149.5114,70.262 117.8509,133.5829" stroke="rgb(10%,10%,16%)" /><polyline fill="white" points="149.5114,70.262 141.5883,86.1081 128.5021,79.565 124.5485,87.4722 149.3869,99.8914 145.4333,107.7985 120.5949,95.3793 116.6413,103.2865 141.4797,115.7057 137.5261,123.6129 125.774,117.7368 117.8509,133.5829" stroke="rgb(100%,10%,16%)" /><polyline fill="white" points="117.8509,133.5829 47.0559,133.5829" stroke="rgb(10%,10%,16%)" /><polyline fill="white" points="117.8509,133.5829 100.1344,133.5829 100.1344,118.9521 91.2939,118.9521 91.2939,146.7222 82.4534,146.7222 82.4534,118.9521 73.6129,118.9521 73.6129,146.7222 64.7724,146.7222 64.7724,133.5829 47.0559,133.5829" stroke="rgb(100%,10%,16%)" /><polyline fill="white" points="47.0559,133.5829 11.7522,76.4603" stroke="rgb(10%,10%,16%)" /><polyline fill="white" points="47.0559,133.5829 37.7418,118.5123 52.3726,109.47 48.2037,102.7246 22.943,118.3366 18.7741,111.5913 44.0349,95.9792 39.866,89.2339 14.6052,104.8459 10.4364,98.1005 21.0663,91.5309 11.7522,76.4603" stroke="rgb(100%,10%,16%)" /><polyline fill="white" points="11.7522,76.4603 43.4126,13.1393" stroke="rgb(10%,10%,16%)" /><polyline fill="white" points="11.7522,76.4603 19.6752,60.6141 32.7614,67.1572 36.715,59.2501 11.8767,46.8309 15.8302,38.9237 40.6686,51.3429 44.6222,43.4357 19.7838,31.0165 23.7374,23.1094 35.4896,28.9855 43.4126,13.1393" stroke="rgb(100%,10%,16%)" /><polyline fill="white" points="43.4126,13.1393 114.2076,13.1393" stroke="rgb(10%,10%,16%)" /><polyline fill="white" points="43.4126,13.1393 61.1292,13.1393 61.1292,27.7701 69.9696,27.7701 69.9696,0.0 78.8101,0.0 78.8101,27.7701 87.6506,27.7701 87.6506,0.0 96.4911,0.0 96.4911,13.1393 114.2076,13.1393" stroke="rgb(100%,10%,16%)" /><polyline fill="white" points="114.2076,13.1393 149.5114,70.262" stroke="rgb(10%,10%,16%)" /><polyline fill="white" points="114.2076,13.1393 123.5218,28.2099 108.8909,37.2522 113.0598,43.9976 138.3205,28.3856 142.4894,35.131 117.2287,50.743 121.3975,57.4884 146.6583,41.8764 150.8272,48.6217 140.1972,55.1914 149.5114,70.262" stroke="rgb(100%,10%,16%)" /></svg>