<?xml version="1.0" encoding="utf-8" ?>
<svg baseProfile="full" height="57mm" version="1.1" width="62mm" xmlns="http://www.w3.org/2000/svg" xmlns:ev="http://www.w3.org/2001/xml-events" xmlns:xlink="http://www.w3.org/1999/xlink"><defs /><circle cx="147.7526270695385" cy="162.24911286353657" r="15" style="fill:none;stroke:#ff00dd" /><circle cx="48.50189157513857" cy="162.24911286353657" r="15" style="fill:none;stroke:#ff00dd" /><circle cx="37.274402341718094" cy="146.9807737586993" r="15" style="fill:none;stroke:#ff00dd" /><circle cx="66.85951246285356" cy="52.241982591107316" r="15" style="fill:none;stroke:#ff00dd" /><circle cx="143.415514809669" cy="36.67213613066062" r="15" style="fill:none;stroke:#ff00dd" /><circle cx="185.4348558583617" cy="93.81453117409396" r="15" style="fill:none;stroke:#ff00dd" /><polyline points="157.50857787617286,178.94938987291178 42.46347547210035,178.94938987291178 19.53338890110219,147.7666089153375 53.82654797421332,37.951488315752606 152.310663289264,17.921934691704926 205.98420235598422,90.91295492630475 157.50857787617286,178.94938987291178" style="fill:none;stroke:#000000" /><polyline points="185.4348558583617,93.81453117409396 220.4592710547312,113.1000735715561 214.3768297446849,124.14637683127904 179.35241454831538,104.8608344338169 173.28091178793244,115.88727222659261 208.305326984302,135.17281462405475 202.22288567425568,146.21911788377776 167.19847047788616,126.93357548631558 161.12696771750322,137.9600132790913 196.15138291387274,157.2455556765534 190.06894160382646,168.29185893627638 155.04452640745694,149.00631653881425 148.973023647074,160.03275433158996 147.7526270695385,162.24911286353657 147.7526270695385,202.45968476979948 135.79664699056943,202.45968476979948 135.79664699056943,162.2491128635366 123.86932687183756,162.24911286353657 123.86932687183756,202.45968476979948 111.91334679286844,202.45968476979948 111.91334679286844,162.24911286353657 99.98602667413661,162.24911286353657 99.98602667413661,202.45968476979948 88.03004659516755,202.45968476979948 88.03004659516755,162.24911286353657 76.10272647643566,162.24911286353657 76.10272647643566,202.45968476979948 64.14674639746657,202.45968476979942 64.14674639746657,162.24911286353657 52.219426278734716,162.24911286353657 48.50189157513857,162.24911286353657 38.382527471629025,143.4322848451765 0.0,131.44615658682798 3.5638946716517594,120.03369025973126 41.946422143280756,132.01981851807977 45.501773719435164,120.6347092816592 7.11924624780614,108.64858102331068 10.683140919457898,97.23611469621396 49.065668391086895,109.22224295456243 52.621019967241274,97.83713371814191 14.238492495612254,85.85100545979338 17.802387167264012,74.43853913269666 56.184914638893034,86.42466739104519 59.74026621504741,75.03955815462461 21.35773874341842,63.053429896276114 24.92163341507015,51.64096356917937 63.30416088669917,63.62709182752784 66.85951246285356,52.241982591107316 69.33890939550238,51.73772651225726 61.37037464442019,12.556918489887785 73.72758703759342,10.043726921064447 81.69612178867561,49.22453494343392 94.0311112002246,46.715863051725066 86.06257644914241,7.535055029355586 98.41978884231564,5.021863460532224 106.38832359339779,44.2026714829017 118.72331300494677,41.69399959119284 110.75477825386459,2.5131915688233626 123.11199064703781,0.0 131.08052539812002,39.180808022369476 143.415514809669,36.67213613066062 143.415546903213,36.67217977489494 178.6767791904186,10.743029550318687 185.68630024595333,20.275326136228422 150.42506795874775,46.20447636080468 157.42198322159592,55.71963024129461 192.68321550880148,29.79048001671836 199.6927365643362,39.32277660262807 164.4315042771306,65.25192682720433 171.4284195399788,74.76708070769429 206.6896518271843,48.83793048311803 213.699172882719,58.37022706902774 178.43794059551348,84.29937729360402 185.4348558583617,93.81453117409396 185.4348558583617,93.81453117409396" style="fill:none;stroke:#ff0000" /><polyline points="147.7526270695385,162.24911286353657 48.50189157513857,162.24911286353657 37.274402341718094,146.9807737586993 66.85951246285356,52.241982591107316 143.415514809669,36.67213613066062 185.4348558583617,93.81453117409396 147.7526270695385,162.24911286353657" style="fill:none;stroke:#00ff00" /><polyline points="211.14764886454012,107.9728021087425 174.68581665325246,174.1910252662385" style="fill:none;stroke:#0000ff" /><polyline points="147.7526270695385,191.82976376979948 52.219426278734716,191.82976376979948" style="fill:none;stroke:#0000ff" /><polyline points="28.36432777546272,177.0571597110518 17.13685732849811,161.78884615404405" style="fill:none;stroke:#0000ff" /><polyline points="10.146679629931757,134.61477031427546 38.62366462115629,43.424468060206316" style="fill:none;stroke:#0000ff" /><polyline points="63.488902044041815,22.97359080513767 137.56550745820843,7.908000423541025" style="fill:none;stroke:#0000ff" /><polyline points="170.11297814980253,17.04037281577476 212.1322871049512,74.18272421497375" style="fill:none;stroke:#0000ff" /></svg>