<?xml version="1.0" encoding="utf-8" ?>
<svg baseProfile="full" height="65mm" version="1.1" width="77mm" xmlns="http://www.w3.org/2000/svg" xmlns:ev="http://www.w3.org/2001/xml-events" xmlns:xlink="http://www.w3.org/1999/xlink"><defs /><polyline points="284.3020932567822,208.45343486976583 -7.72409196894755,208.45343486976583 146.57917967055928,47.14192324207846 284.3020932567822,208.45343486976583" style="fill:none;stroke:#000000" /><polyline points="194.8866901948225,122.9285543022458 202.11200130869122,115.37507960607267 214.78729343844083,102.12409333881354 218.18237981962127,106.1006757513377 199.62103027534226,121.94779734495819 206.29308791261644,129.76261678916597 224.85443745524552,113.91549519554547 231.98663699552313,122.26926770219694 213.4252874512441,138.11638929581744 220.09734509016826,145.93120874002523 238.6586946327973,130.08408714640473 245.79089417307495,138.43785965305617 227.2295446287959,154.28498124667667 233.9016022660701,162.09980069088445 252.46295180869916,146.25267909561398 259.5951513489768,154.60645160391542 241.03380180469776,170.45357319753592 247.70585944197194,178.2683926417437 266.267208984601,162.42127104647324 273.3994085265286,170.77504355477467 254.83805898059958,186.62216514839517 260.0989091836591,192.78407151755084 252.1931684511543,192.78407151755084 252.1931684511543,230.74306161306092 241.2089167524743,230.74306161306092 241.2089167524743,192.78407151755084 230.9333264511543,192.78407151755084 230.9333264511543,230.74306161306092 219.9490747524743,230.74306161306092 219.9490747524743,192.78407151755084 209.6734844511543,192.78407151755084 209.6734844511543,230.74306161306092 198.68923275247428,230.74306161306092 198.68923275247428,192.78407151755084 188.41364245115432,192.78407151755084 188.41364245115432,230.74306161306092 177.4293907524743,230.74306161306092 177.4293907524743,192.78407151755084 167.1538004511543,192.78407151755084 167.1538004511543,230.74306161306092 156.1695487524743,230.74306161306092 156.1695487524743,192.78407151755084 145.8939584511543,192.78407151755084 145.8939584511543,230.74306161306092 134.90970675247428,230.74306161306092 134.90970675247428,192.78407151755084 128.06607250031195,192.78407151755084 128.51179826610422,192.31810150746668 0.0,69.3895472035709 7.5926998141823585,61.45199752550335 136.10449808028656,184.38055182774914 143.2073462951507,176.95510212444086 14.695548029046483,54.026547822195056 22.28824784322884,46.088998144127515 150.80004610768307,169.01755244637332 157.90289432254718,161.59210274306503 29.391096058092966,38.66354844081922 36.98379587227532,30.725998762751676 165.49559413672955,153.65455306499746 172.5984423515937,146.22910336168917 44.08664408548947,23.30054905944338 51.67934389967183,15.362999381375838 180.19114216577603,138.29155368362163 187.29399038064017,130.86610398031334 58.782192114535945,7.937549678067543 66.37489192871831,0.0 194.8866901948225,122.9285543022458" style="fill:none;stroke:#ff0000" /><polyline points="297.319349312715,218.16432176372092 121.19536567175608,218.16432176372092 214.25724938186178,120.8756967290132 297.319349312715,218.16432176372092" style="fill:none;stroke:#ff0000" /></svg>