<?xml version="1.0" encoding="utf-8" ?>
<svg baseProfile="full" height="48mm" version="1.1" width="52mm" xmlns="http://www.w3.org/2000/svg" xmlns:ev="http://www.w3.org/2001/xml-events" xmlns:xlink="http://www.w3.org/1999/xlink"><defs /><polyline points="133.61460101437336,156.21876282511744 30.07400885070809,156.21876282511744 9.436930936809732,128.15425996330066 40.30077410260977,29.32065142367422 128.93647788615536,11.294053162031302 177.24266304620357,76.98597137317114 133.61460101437336,156.21876282511744" style="fill:none;stroke:#000000" /><polyline points="108.3739347205869,32.23635981251158 118.61699583163204,30.153141201454456 120.11697970272367,29.848076701642807 125.81045955208303,37.5906796696668 155.36249114515095,15.85975828913141 161.86974585227122,24.70901936344457 132.3177142592033,46.43994074562994 138.4051460840158,54.71828175201642 167.9571776770837,32.98736036983105 174.46443238420397,41.836621445794194 144.91240078948607,63.567542826329586 151.1047883348755,71.98861384969774 156.90312630019176,79.87381410198998 156.25026694663768,81.05946999870885 185.0669340181251,96.9268314179724 179.76875350542105,106.54884101223908 150.95208643723362,90.68147959132556 145.99572402111212,99.68271437721047 174.8123910925995,115.55007579977398 169.5142105798955,125.17208539404066 140.69754351170806,109.30472397147716 135.74118109558657,118.30595875736208 164.55784816707396,134.17332017992558 159.25966765436993,143.79532977419228 130.4430005845325,127.92796835162876 125.40118364632787,137.08439683960913 123.96334505015959,139.69565116369495 115.70919860138409,139.69565116369495 115.70919860138409,172.81960906980052 104.72494690270408,172.81960906980052 104.72494690270408,139.69565116369495 94.44935660303406,139.69565116369495 94.44935660303406,172.81960906980052 83.46510490435405,172.81960906980052 83.46510490435405,139.69565116369495 73.18951460303407,139.69565116369495 73.18951460303407,172.81960906980052 62.20526290435405,172.81960906980052 62.20526290435405,139.69565116369495 36.02279389209364,139.69565116369495 31.502434869565747,133.54838413126654 26.982115438329526,127.40117093936485 31.61807438311144,112.55569141805479 0.0,102.68197231081085 3.2742341836295474,92.1970700278473 34.892308568390966,102.07078913344127 37.9553018387573,92.2623321579383 6.337227453995877,82.38861305069436 9.611461639275404,71.9037107693808 41.229536024036825,81.77742987332478 44.29252929275317,71.9689728994718 12.674454909641735,62.095253792227844 15.948689093271282,51.610351509264305 47.566763478032705,61.48407061485827 50.68256697753983,51.50650231207766 53.19583518781484,43.458400036325585 55.943350737518486,42.89961438992442 49.387167585919826,10.66325457741284 60.15106231101897,8.474109598315497 66.70724546096766,40.71046941082708 76.77669536732812,38.66255959076667 70.22051221572946,6.42619977825509 80.98440694082859,4.2370547991577485 87.54059009242725,36.47341461166933 97.61003999878773,34.42550479160892 91.05385684718907,2.189144979097342 101.81775157063822,0.0 108.3739347205869,32.23635981251158" style="fill:none;stroke:#ff0000" /><polyline points="142.0066337897851,80.84889399804825 116.53001113587311,127.11691131435494 42.386599410007754,127.11691131435494 40.885970221486666,125.0761954572134 62.986976907368394,54.303342205976556 114.74580858734754,43.7767076177783 142.0066337897851,80.84889399804825" style="fill:none;stroke:#ff0000" /></svg>