<?xml version="1.0" encoding="utf-8" ?>
<svg baseProfile="full" height="50mm" version="1.1" width="48mm" xmlns="http://www.w3.org/2000/svg" xmlns:ev="http://www.w3.org/2001/xml-events" xmlns:xlink="http://www.w3.org/1999/xlink"><defs /><polyline points="155.47364901357037,160.70780388910273 -9.71291002385839,160.70780388910273 140.62146271424098,-4.30875594566505 155.47364901357037,160.70780388910273" style="fill:none;stroke:#000000" /><polyline points="134.19466137606858,11.166242148212106 134.72609226964286,17.07075317846267 158.26288122009805,14.952342911852803 159.24753003848141,25.892372711818957 135.71074108802623,28.010782978428825 136.6318641766171,38.245004410856765 160.16865312707228,36.126594144246894 161.15330194710563,47.06662394586303 137.61651299665044,49.18503421082292 138.5376360852413,59.41925564325086 162.0744250356965,57.30084537829097 163.05907385407986,68.2408751799071 139.52228490362467,70.359285444867 140.44340799221555,80.59350687729493 163.9801969443207,78.47509661068507 164.96484576270407,89.4151264123012 141.42805681224888,91.53353667891106 142.34917990083974,101.767758111339 165.88596885129493,99.64934784472914 166.8706176696783,110.58937764634527 143.3338287192231,112.70778791130516 144.25495180946396,122.9420093437331 167.79174075991915,120.82359907877321 168.76050814585437,131.5871767880923 172.92812007846956,177.891806284607 148.04565727709817,177.891806284607 148.04565727709817,151.15283704088822 137.77006697577818,151.15283704088822 137.77006697577818,177.891806284607 126.78581527709817,177.891806284607 126.78581527709817,151.15283704088822 116.51022497742817,151.15283704088822 116.51022497742817,177.891806284607 105.52597327874815,177.891806284607 105.52597327874815,151.15283704088822 95.25038297742816,151.15283704088822 95.25038297742816,177.891806284607 84.26613127874815,177.891806284607 84.26613127874815,151.15283704088822 73.99054097742817,151.15283704088822 73.99054097742817,177.891806284607 63.00628927874815,177.891806284607 63.00628927874815,151.15283704088822 52.73069897742816,151.15283704088822 52.73069897742816,177.891806284607 41.74644727874815,177.891806284607 41.74644727874815,151.15283704088822 31.470856977428163,151.15283704088822 31.470856977428163,177.891806284607 20.486605278748147,177.891806284607 20.486605278748147,151.15283704088822 16.111932831075244,151.15283704088822 17.420088051777007,149.71692274979318 0.0,133.84677000339352 7.397405906908147,125.72690724512883 24.817493958685155,141.59705999152848 31.737647873515336,134.00105934435834 14.317559821738326,118.13090659795866 21.714965730296456,110.01104383969397 39.13505378207346,125.88119658609364 46.05520769690364,118.28519593892347 28.635119645126636,102.41504319252381 36.032525552034784,94.29518043260914 53.45261360381179,110.1653331790088 60.37276751864197,102.56933253183863 42.952679468514944,86.69917978543897 50.35008537542309,78.57931702717428 67.77017342720009,94.44946977357394 74.69032734203027,86.85346912640378 57.27023929025327,70.98331638000411 64.66764519716142,62.863453621739424 82.08773324893842,78.73360636813909 89.0078871637686,71.13760572096892 71.58779911364158,55.26745297456926 78.98520502054973,47.14759021630457 96.40529307232673,63.01774296270423 103.32544698715691,55.42174231553406 85.90535893537991,39.5515895691344 93.30276484228806,31.431726810869712 110.72285289406506,47.301879555619394 117.64300680889524,39.70587890844923 100.22291875876822,23.835726162049564 107.62032466567636,15.715863405434856 125.04041271580338,31.586016150184538 131.96056663063356,23.990015503014373 114.54047858050654,8.11986275826469 121.9378844857647,0.0 134.19466137606858,11.166242148212106" style="fill:none;stroke:#ff0000" /><polyline points="159.16639468954722,165.31306643526696 20.227652638371172,165.31306643526696 146.67419137026445,26.51731104900151 159.16639468954722,165.31306643526696" style="fill:none;stroke:#ff0000" /></svg>