<?xml version="1.0" encoding="utf-8" ?>
<svg baseProfile="tiny" height="32mm" version="1.2" width="32mm" xmlns="http://www.w3.org/2000/svg" xmlns:ev="http://www.w3.org/2001/xml-events" xmlns:xlink="http://www.w3.org/1999/xlink"><defs /><polyline fill="white" points="99.8467,93.3874 113.0711,52.687" stroke="rgb(0%,0%,100%)" /><polyline fill="white" points="38.508,106.8603 81.3029,106.8603" stroke="rgb(0%,0%,100%)" /><polyline fill="white" points="6.7398,52.687 19.9641,93.3874" stroke="rgb(0%,0%,100%)" /><polyline fill="white" points="48.4447,5.7332 13.8229,30.8874" stroke="rgb(0%,0%,100%)" /><polyline fill="white" points="105.988,30.8874 71.3661,5.7332" stroke="rgb(0%,0%,100%)" /><polyline fill="white" points="88.3487,48.6693 77.4843,82.1063 42.3266,82.1063 31.4622,48.6693 59.9054,28.0041 88.3487,48.6693" stroke="rgb(0%,0%,0%)" /><polyline fill="white" points="50.683,77.4132 106.5865,95.5773 110.091,84.7917 54.1875,66.6276 57.2952,57.063 113.1987,75.2271 116.7032,64.4415 60.7997,46.2773 63.9074,36.7127 38.508,55.1665 38.508,113.9469 49.8486,113.9469 49.8486,55.1665 59.9054,55.1665 59.9054,113.9469 71.2461,113.9469 71.2461,55.1665 81.3029,55.1665 55.9035,36.7127 0.0,54.8769 3.5045,65.6625 59.4079,47.4984 62.5157,57.063 6.6122,75.2271 10.1166,86.0127 66.0201,67.8486 69.1279,77.4132 78.8296,47.5543 44.2793,0.0 35.1045,6.6659 69.6548,54.2202 61.5187,60.1315 26.9684,12.5771 17.7936,19.243 52.3439,66.7973 44.2077,72.7086 75.6032,72.7086 110.1534,25.1543 100.9786,18.4884 66.4284,66.0427 58.2922,60.1315 92.8425,12.5771 83.6677,5.9113 49.1174,53.4656 40.9813,47.5543 50.683,77.4132" stroke="rgb(100%,0%,0%)" /></svg>