<?xml version="1.0" encoding="utf-8" ?>
<svg baseProfile="tiny" height="54mm" version="1.2" width="59mm" xmlns="http://www.w3.org/2000/svg" xmlns:ev="http://www.w3.org/2001/xml-events" xmlns:xlink="http://www.w3.org/1999/xlink"><defs /><polyline fill="none" points="202.8539,108.4113 171.4692,165.409" stroke="rgb(0%,0%,100%)" /><polyline fill="none" points="134.0369,187.658 54.4248,187.658" stroke="rgb(0%,0%,100%)" /><polyline fill="none" points="17.9649,166.5696 16.026,163.9328" stroke="rgb(0%,0%,100%)" /><polyline fill="none" points="6.7645,122.8442 30.4956,46.8514" stroke="rgb(0%,0%,100%)" /><polyline fill="none" points="62.8911,17.7529 126.653,4.7851" stroke="rgb(0%,0%,100%)" /><polyline fill="none" points="169.0263,19.2172 201.7087,63.6623" stroke="rgb(0%,0%,100%)" /><polyline fill="none" points="200.229,86.7412 151.7534,174.7776 36.7083,174.7776 13.7782,143.5948 48.0714,33.7797 146.5555,13.7501 200.229,86.7412" stroke="rgb(0%,0%,0%)" /><polyline fill="none" points="177.1411,94.253 209.0617,111.8294 203.8262,121.3376 171.9056,103.7612 166.6796,113.2522 198.6001,130.8287 193.3646,140.3368 161.4441,122.7604 156.218,132.2515 188.1385,149.8279 182.903,159.3361 150.9825,141.7596 145.7564,151.2507 134.0369,158.0773 134.0369,194.7446 120.7563,194.7446 120.7563,158.0773 107.4995,158.0773 107.4995,194.7446 94.2189,194.7446 94.2189,158.0773 80.9622,158.0773 80.9622,194.7446 67.6816,194.7446 67.6816,158.0773 54.4248,158.0773 38.1025,151.7615 35.0003,131.6618 0.0,120.7318 3.9587,108.055 38.959,118.9849 42.9107,106.3308 7.9104,95.4009 11.8691,82.724 46.8694,93.6539 50.821,80.9999 15.8207,70.0699 19.7795,57.3931 54.7798,68.323 58.7314,55.6689 68.7411,46.517 61.4788,10.8084 72.1153,8.6452 79.3777,44.3538 89.9951,42.1944 82.7327,6.4858 93.3693,4.3226 100.6316,40.0312 111.249,37.8718 103.9867,2.1632 114.6232,0.0 121.8856,35.7086 132.503,33.5492 142.3288,38.849 174.7355,15.019 182.911,26.1369 150.5043,49.967 158.67,61.0716 191.0767,37.2415 199.2522,48.3594 166.8455,72.1895 175.0112,83.2941 177.1411,94.253" stroke="rgb(100%,0%,0%)" /><polyline fill="none" points="200.229,86.7412 151.7534,174.7776 36.7083,174.7776 13.7782,143.5948 48.0714,33.7797 146.5555,13.7501" stroke="rgb(0%,100%,0%)" /></svg>