<?xml version="1.0" encoding="utf-8" ?>
<svg baseProfile="full" height="58mm" version="1.1" width="112mm" xmlns="http://www.w3.org/2000/svg" xmlns:ev="http://www.w3.org/2001/xml-events" xmlns:xlink="http://www.w3.org/1999/xlink"><defs /><polyline points="345.54363650434277,184.67421647866217 53.51755840416456,184.67421647866217 99.48402054052721,-33.77024412665254 345.54363650434277,184.67421647866217" style="fill:none;stroke:#000000" /><polyline points="146.10466480030593,24.74114185487758 146.7721615436098,21.56902550222789 152.15473871624337,26.347518561759344 170.4218870732513,5.771086926988707 178.63617938344942,13.063493062129867 160.36903102479152,33.63992469690051 168.053368994472,40.46185301639224 186.32051735312993,19.885421381621605 194.53480966167808,27.177827516762765 176.26766130467016,47.754259151533404 183.95199927435067,54.57618747267512 202.2191476313586,33.99975583790448 210.4334399415567,41.292161971395664 192.16629158289882,61.86859360781628 199.85062955257933,68.69052192730801 218.11777791123723,48.114090292537384 226.33207021978538,55.40649642767854 208.06492186277745,75.98292806244918 215.74925983245797,82.8048563835909 234.0164081878159,62.22842474717028 242.23070049801404,69.52083088231144 223.96355214100612,90.09726251708207 231.64789010903664,96.9191908382238 249.91503846769453,76.34275920345316 258.1293307762427,83.63516533859432 239.8621824175848,104.21159697336496 247.54652038891527,111.0335252928567 265.8136687459232,90.45709365808605 274.02796105612134,97.74949979322722 255.76081269746345,118.32593142799786 263.44515066714393,125.14785974913957 281.7122990258018,104.57142811436894 289.92659133435,111.86383424786011 271.6594429756921,132.44026588428073 279.3437809470226,139.26219420377248 297.6109293040305,118.68576256900184 305.8252216125787,125.978168704143 287.5580732555707,146.55460033891364 295.24241122525126,153.37652866005536 313.50955958390915,132.8000970252847 321.7238518924573,140.09250315877588 303.4567035337994,160.66893479354653 311.14104150512986,167.49086311468824 329.4081898621378,146.91443147991762 337.62248217068594,154.2068376150588 319.35533381367804,174.7832692498294 327.03967178335853,181.60519757097114 345.3068201420164,161.0287659345505 353.3886238650227,168.20355261536682 397.0490003896614,206.96394554821288 245.0749467867614,206.96394554821288 245.0749467867614,169.0047364375382 234.7993564854414,169.0047364375382 234.7993564854414,206.96394554821288 223.81510478841136,206.96394554821288 223.81510478841136,169.0047364375382 213.53951448709137,169.0047364375382 213.53951448709137,206.96394554821288 202.55526278841137,206.96394554821288 202.55526278841137,169.0047364375382 192.27967248709137,169.0047364375382 192.27967248709137,206.96394554821288 181.29542078841138,206.96394554821288 181.29542078841138,169.0047364375382 171.01983048709138,169.0047364375382 171.01983048709138,206.96394554821288 160.03557878841136,206.96394554821288 160.03557878841136,169.0047364375382 149.7599884870914,169.0047364375382 149.7599884870914,206.96394554821288 138.77573678841136,206.96394554821288 138.77573678841136,169.0047364375382 128.50014648709137,169.0047364375382 128.50014648709137,206.96394554821288 117.51589478841136,206.96394554821288 117.51589478841136,169.0047364375382 115.7478086923132,169.0047364375382 117.57627487581946,160.3153944555169 0.0,135.5742526006393 2.261841654172098,124.82539881596826 119.83811653329153,149.56654066919586 121.95403292142186,139.51116131979717 4.377758043952405,114.77001946491959 6.639599698124504,104.02116568024854 124.21587457724394,128.76230753347613 126.33179096537425,118.70692818407746 8.75551608625483,93.96578632919987 11.01735774537687,83.21693254452883 128.59363262119635,107.95807439775643 130.70954900932665,97.90269504835774 13.133274133507197,73.16155319348016 15.395115787679295,62.41269940880912 132.97139066679873,87.15384126203672 135.08730705492906,77.09846191263803 17.5110321774596,52.357320057760454 19.7728738316317,41.608466271439426 137.34914871075114,66.34960812631701 139.46506509888147,56.29422877691832 21.88879022141201,31.553086922040738 24.150631877234087,20.804233135719713 141.72690675635351,45.545374990597296 143.8428231461338,35.489995641198604 26.266548267014393,10.748853786321025 28.52838992118649,0.0 146.10466480030593,24.74114185487758" style="fill:none;stroke:#ff0000" /><polyline points="363.93325146852425,194.38520569887285 0.47883998484452117,194.38520569887285 57.688502739313876,-77.48983843455596 363.93325146852425,194.38520569887285" style="fill:none;stroke:#ff0000" /></svg>