<?xml version="1.0" encoding="utf-8" ?>
<svg baseProfile="full" height="50mm" version="1.1" width="47mm" xmlns="http://www.w3.org/2000/svg" xmlns:ev="http://www.w3.org/2001/xml-events" xmlns:xlink="http://www.w3.org/1999/xlink"><defs /><polyline points="119.9227007214476,162.18834031816144 42.720323824392004,162.18834031816144 4.733840848554724,80.10135388777752 61.750878692270526,-8.00171557793585 100.89217386128287,-8.001727048562461 157.9091464827581,80.10135611024054 119.9227007214476,162.18834031816144" style="fill:none;stroke:#000000" /><polyline points="132.31544083962163,9.221615700688632 103.87711802647054,27.625819221123333 109.4599733208284,36.25249197513687 137.89829613397947,17.84828845470217 143.86617592968963,27.0699041553908 115.42785311653854,45.47410767582551 121.01070841089641,54.10078042983904 149.44903122404747,35.69657690940434 155.41691101810764,44.91819261009297 126.97858820660656,63.32239612887769 132.6576996246525,72.09780462079749 138.98852124890567,81.88024094377933 137.25262865611845,85.6314260062227 167.10726849833284,99.44691292902303 162.49420439975808,109.41553495122052 132.63956455919364,95.60004802677021 128.32411749774627,104.92553314516141 158.17875733996067,118.7410200712617 153.56569324303587,128.7096420934592 123.71105340082146,114.8941551673589 119.39560633937408,124.21964028575009 149.2502461815885,138.03512721185038 144.6371820846637,148.0037492340479 114.78254224244928,134.18826230794758 110.39269092254504,143.67453165311534 109.74985495875491,145.06367097560224 102.75852899740006,145.06367097560224 102.75852899740006,179.56012261114287 91.77427729872005,179.56012261114287 91.77427729872005,145.06367097560224 81.49868699905004,145.06367097560224 81.49868699905004,179.56012261114287 70.51443530037002,179.56012261114287 70.51443530037002,145.06367097560224 52.89316212411866,145.06367097560224 52.324733268302396,143.8353232058071 22.470104043715068,157.65081837851193 17.857036326732167,147.68219803104506 47.7116655513195,133.86670285834023 43.39621510576131,124.5412193057809 13.541585881173976,138.35671447848574 8.928518164191074,128.38809413266884 38.7831473887784,114.572598959964 34.46769694322021,105.24711540740468 4.613067718632883,119.0626105801095 0.0,109.09399023264262 29.854629224587327,95.2784950599378 25.46477446117296,85.79222731030156 23.65442472309112,81.8801474641115 29.888971328074934,72.24648858890306 1.4508307602640906,53.84237909757984 7.418716020710974,44.62076693445025 35.8568565901718,63.02487642577348 41.43971699617048,54.39820697997165 13.00157642835964,35.994097488648414 18.969461688806522,26.77248532551883 47.407602256617366,45.17659481684206 52.99046266426603,36.549925371040224 24.55232209645519,18.14581587971699 30.520207356902073,8.924203716587407 58.95834792471292,27.32831320956062 64.63746454349867,18.552908085251836 68.75955693177221,12.183426161150802 81.32156839696886,12.183422478393435 93.88338238750158,12.18341879728605 97.9092382307604,18.404203520434702 126.34756104391147,0.0 132.31544083962163,9.221615700688632" style="fill:none;stroke:#ff0000" /><polyline points="124.66011135077358,82.89181541930701 101.71047788429527,132.4849311262622 60.932535982765515,132.4849311262622 37.98283828088085,82.89172385196704 75.60213274758759,24.762164005764017 87.0408043359621,24.76216065135285 124.66011135077358,82.89181541930701" style="fill:none;stroke:#ff0000" /></svg>