<?xml version="1.0" encoding="utf-8" ?>
<svg baseProfile="full" height="46mm" version="1.1" width="62mm" xmlns="http://www.w3.org/2000/svg" xmlns:ev="http://www.w3.org/2001/xml-events" xmlns:xlink="http://www.w3.org/1999/xlink"><defs /><polyline points="196.6113831504403,143.54405755937785 -26.040398919450087,143.54405755937785 148.30486759572642,4.135904525338845 196.6113831504403,143.54405755937785" style="fill:none;stroke:#000000" /><polyline points="146.94841813792004,27.68771389859774 148.24476194890696,26.651144910169794 149.91957652721564,31.484505469275987 171.66143600402583,23.950703105965516 175.25781457694117,34.32952030757619 153.51595510178095,41.86332267253664 156.880309252234,51.57253876665466 178.62216872904418,44.03873640334419 182.21854730195952,54.41755360660484 160.47668782679932,61.95135597156529 163.84104197725236,71.66057206568331 185.58290145406255,64.12676970237284 189.1792800269779,74.50558690398351 167.4374205518177,82.03938926894396 170.80177470227073,91.74860536306198 192.54363417908093,84.21480300140149 196.14001275199627,94.59362020301216 174.39815327848603,102.12742256797262 177.76250742728908,111.83663866209064 199.50436690409927,104.30283629878016 203.1007454786646,114.68165350039084 181.35888600350438,122.21545586535129 184.72324015230745,131.9246719611193 206.46509962911765,124.39086959780882 210.0034720988924,134.60228652213382 220.12290491622417,163.80603725463558 155.4997069111185,163.80603725463558 155.4997069111185,130.22326977540283 145.22411660979853,130.22326977540283 145.22411660979853,163.80603725463558 134.2398649111185,163.80603725463558 134.2398649111185,130.22326977540283 123.96427460979852,130.22326977540283 123.96427460979852,163.80603725463558 112.98002291111851,163.80603725463558 112.98002291111851,130.22326977540283 102.70443260979852,130.22326977540283 102.70443260979852,163.80603725463558 91.7201809111185,163.80603725463558 91.7201809111185,130.22326977540283 81.44459060979852,130.22326977540283 81.44459060979852,163.80603725463558 70.4603389111185,163.80603725463558 70.4603389111185,130.22326977540283 60.18474860979852,130.22326977540283 60.18474860979852,163.80603725463558 49.200496911118506,163.80603725463558 49.200496911118506,130.22326977540283 38.92490660979852,130.22326977540283 38.92490660979852,163.80603725463558 27.940654911118504,163.80603725463558 27.940654911118504,130.22326977540283 18.716399940583457,130.22326977540283 22.139362503204456,127.486235966957 0.0,99.79852206835926 8.578892958587776,92.93875669543931 30.718255463442212,120.62647059238707 38.74367145717271,114.20927072569422 16.604308952318274,86.52155682709649 25.183201912556033,79.66179145252656 47.32256441576049,107.3495053511243 55.347980411140966,100.93230548278147 33.208617906286534,73.24459158418374 41.787510866524286,66.38482621126379 63.926873369728746,94.07254010821154 71.95228936510922,87.6553402415187 49.81292686025479,59.967626342920965 58.39181981884256,53.107860968351034 80.531182323697,80.79557486694877 88.5565983174275,74.37837499860596 66.41723581422305,46.6906611016582 74.99612877281082,39.83089572708827 97.13549127766525,67.51860962568601 105.16090727139576,61.10140975734319 83.02154476654133,33.41369585874545 91.60043772677908,26.553930484175517 113.73980023163351,54.24164438277326 121.76521622536401,47.82444451443044 99.62585372050958,20.13673061748268 108.20474668074733,13.27696524291275 130.3441091839518,40.96467914151049 138.36952517933227,34.54747927316767 116.23016267447782,6.859765374569932 124.80905563306561,0.0 146.94841813792004,27.68771389859774" style="fill:none;stroke:#ff0000" /><polyline points="202.45172414072962,151.2272974052956 12.590350745126123,151.2272974052956 161.25941343145283,32.35008406617934 202.45172414072962,151.2272974052956" style="fill:none;stroke:#ff0000" /></svg>