<?xml version="1.0" encoding="utf-8" ?>
<svg baseProfile="full" height="45mm" version="1.1" width="55mm" xmlns="http://www.w3.org/2000/svg" xmlns:ev="http://www.w3.org/2001/xml-events" xmlns:xlink="http://www.w3.org/1999/xlink"><defs /><polyline points="224.27146475619895,146.60579220421323 1.0430046475035153,146.60579220421323 60.666384948504955,26.873733690345823 224.27146475619895,146.60579220421323" style="fill:none;stroke:#000000" /><polyline points="92.63302744802313,26.05236785173041 73.73033616159704,51.88150964409401 82.02254129088509,57.95004242599183 100.92523257731118,32.12090063197825 109.78931392195703,38.60795291357251 90.88662263553094,64.4370947059361 99.17882776646897,70.50562748783393 118.08151905289506,44.67648569547034 126.94560039754091,51.16353797541461 108.04290911111482,76.9926797694282 116.33511424040287,83.06121254967603 135.23780552847896,57.232070757312435 144.1018868731248,63.719123037256715 125.1991955866987,89.54826483127029 133.49140071598677,95.61679761151814 152.39409200241286,69.78765581915454 161.25817334870868,76.27470809909882 142.35548206063262,102.1038498931124 150.64768719157064,108.17238267336023 169.55037847799673,82.34324088099665 178.41445982264258,88.83029316259089 159.5117685362165,114.65943495495449 167.80397366550454,120.72796773520234 186.70666495358063,94.89882594283874 195.57074629822648,101.385878224433 176.6680550118004,127.2150200167966 183.44679875576966,132.17594753737004 176.61392605027592,132.17594753737004 176.61392605027592,160.34472357383746 165.62967435159592,160.34472357383746 165.62967435159592,132.17594753737004 155.35408405027593,132.17594753737004 155.35408405027593,160.34472357383746 144.3698323515959,160.34472357383746 144.3698323515959,132.17594753737004 134.09424205027594,132.17594753737004 134.09424205027594,160.34472357383746 123.10999035159591,160.34472357383746 123.10999035159591,132.17594753737004 112.83440005027593,132.17594753737004 112.83440005027593,160.34472357383746 101.85014835159592,160.34472357383746 101.85014835159592,132.17594753737004 91.57455805027593,132.17594753737004 91.57455805027593,160.34472357383746 80.59030635159591,160.34472357383746 80.59030635159591,132.17594753737004 70.31471605027593,132.17594753737004 70.31471605027593,160.34472357383746 59.330464351595914,160.34472357383746 59.330464351595914,132.17594753737004 49.05487405027593,132.17594753737004 49.05487405027593,160.34472357383746 38.070622351595915,160.34472357383746 38.070622351595915,132.17594753737004 27.795032050275932,132.17594753737004 27.795032050275932,160.34472357383746 16.810780353245896,160.34472357383746 16.810780353245896,132.17594753737004 15.97953613461958,132.17594753737004 19.844320279879746,124.4149222636624 0.0,114.53297861708009 4.896358880754229,104.70040748423538 24.740679158983994,114.58235112916772 29.321143918346014,105.38413942249204 9.47682364176623,95.5021957775597 14.373182522520459,85.66962464306502 34.217502799100245,95.55156828799736 38.79796756011224,86.35335658132169 18.95364728353246,76.47141293638936 23.85000616263671,66.63884180189467 43.694326440866476,76.520785446827 48.27479120187847,67.32257374015133 28.43047092199873,57.44063009521899 33.32682980275296,47.60805896072431 53.1711500826327,57.49000260565664 57.7516148436447,48.29179090063095 37.907294563764964,38.409847254048636 42.72467991540862,28.735865975683712 57.03437680597241,0.0 92.63302744802313,26.05236785173041" style="fill:none;stroke:#ff0000" /><polyline points="199.15614382256425,119.59720768803001 11.530225414998876,119.59720768803001 61.64431696931153,18.961126470399428 199.15614382256425,119.59720768803001" style="fill:none;stroke:#ff0000" /></svg>