<?xml version="1.0" encoding="utf-8" ?>
<svg baseProfile="tiny" height="74mm" version="1.2" width="72mm" xmlns="http://www.w3.org/2000/svg" xmlns:ev="http://www.w3.org/2001/xml-events" xmlns:xlink="http://www.w3.org/1999/xlink"><defs /><polyline fill="white" points="251.2899,163.8122 225.4177,215.5567" stroke="rgb(0%,0%,100%)" /><polyline fill="white" points="161.0522,255.3367 103.2002,255.3367" stroke="rgb(0%,0%,100%)" /><polyline fill="white" points="34.5081,219.607 7.576,176.03" stroke="rgb(0%,0%,100%)" /><polyline fill="white" points="6.3385,98.6111 32.2107,46.8666" stroke="rgb(0%,0%,100%)" /><polyline fill="white" points="96.5761,7.0866 154.4281,7.0866" stroke="rgb(0%,0%,100%)" /><polyline fill="white" points="223.1203,42.8163 250.0524,86.3933" stroke="rgb(0%,0%,100%)" /><polyline fill="white" points="254.0498,125.5768 196.4853,240.7059 67.7672,240.7059 3.5785,136.8465 61.143,21.7174 189.8612,21.7174 254.0498,125.5768" stroke="rgb(0%,0%,0%)" /><polyline fill="white" points="222.0282,149.1814 257.6284,166.9815 250.7722,180.6937 215.1721,162.8937 209.0921,175.0536 244.6922,192.8537 237.8361,206.566 202.236,188.7659 196.156,200.9258 161.0522,222.6212 161.0522,262.4233 145.7215,262.4233 145.7215,222.6212 132.1262,222.6212 132.1262,262.4233 116.7955,262.4233 116.7955,222.6212 103.2002,222.6212 66.3385,199.9348 28.4798,223.3327 21.3428,211.7848 59.2015,188.3869 52.8724,178.1462 15.0138,201.5442 7.8768,189.9962 45.7354,166.5983 39.4064,156.3577 35.6001,113.2419 0.0,95.4418 6.8561,81.7296 42.4563,99.5296 48.5362,87.3697 12.9361,69.5696 19.7922,55.8573 55.3924,73.6574 61.4723,61.4975 96.5761,39.8021 96.5761,0.0 111.9069,0.0 111.9069,39.8021 125.5021,39.8021 125.5021,0.0 140.8329,0.0 140.8329,39.8021 154.4281,39.8021 191.2899,62.4885 229.1485,39.0906 236.2855,50.6385 198.4269,74.0365 204.7559,84.2771 242.6146,60.8791 249.7516,72.4271 211.8929,95.825 218.222,106.0656 222.0282,149.1814" stroke="rgb(100%,0%,0%)" /><polyline fill="white" points="254.0498,125.5768 196.4853,240.7059 67.7672,240.7059 3.5785,136.8465 61.143,21.7174 189.8612,21.7174" stroke="rgb(0%,100%,0%)" /></svg>