<?xml version="1.0" encoding="utf-8" ?>
<svg baseProfile="full" height="68mm" version="1.1" width="56mm" xmlns="http://www.w3.org/2000/svg" xmlns:ev="http://www.w3.org/2001/xml-events" xmlns:xlink="http://www.w3.org/1999/xlink"><defs /><circle cx="130.60310464727377" cy="199.79560748350013" r="15" style="fill:none;stroke:#ff00dd" /><circle cx="65.39483121165773" cy="199.79560748350016" r="15" style="fill:none;stroke:#ff00dd" /><circle cx="32.02395150414513" cy="127.68272060573891" r="15" style="fill:none;stroke:#ff00dd" /><circle cx="83.35887580558212" cy="48.35968712680625" r="15" style="fill:none;stroke:#ff00dd" /><circle cx="112.6389854143961" cy="48.359678546068096" r="15" style="fill:none;stroke:#ff00dd" /><circle cx="163.97390920592872" cy="127.68281430394124" r="15" style="fill:none;stroke:#ff00dd" /><polyline points="140.8891810707309,217.09744217482356 55.10876229622466,217.09744217482356 12.90155898973881,125.88967947439701 76.25382326053413,27.99738006804878 119.74415122610338,27.99736732290811 183.09634302774253,125.88968194380038 140.8891810707309,217.09744217482356" style="fill:none;stroke:#000000" /><polyline points="163.24987208030421,129.24742565164502 199.53588096898773,146.03908296302907 194.08985604836772,157.80769549561305 157.8038471596842,141.016038184229 152.3676162692941,152.76348626226337 188.65362515797761,169.55514357364743 183.20760023735755,181.3237561062314 146.92159134867404,164.53209879484734 141.48536045828388,176.27954687288172 177.7713693469674,193.07120418426584 172.32534442634739,204.83981671684975 136.03933553766387,188.0481594054657 130.60310464727377,199.79560748350013 130.60310464727377,199.79560748350013 130.60310464727377,241.37867312001362 119.72527908611931,241.37867312001356 119.72527908611931,199.79560748350013 108.86701600474312,199.79560748350013 108.86701600474312,241.37867312001356 97.98919044358863,241.37867312001356 97.98919044358863,199.79560748350008 87.13092736221245,199.79560748350008 87.13092736221245,241.37867312001356 76.253101801058,241.3786731200135 76.253101801058,199.79560748350002 65.3948387196818,199.79560748350002 65.39483121165773,199.79560748350016 29.10883402078996,216.5872753774257 23.66280305093243,204.8186609835502 59.94880024180017,188.02699308962465 54.51256331305139,176.2795431536459 18.226566122183648,193.07121104757144 12.780535152326092,181.30259665369587 49.066532343193835,164.51092875977034 43.63029541444505,152.76347882379162 7.344298223577287,169.55514671771715 1.8982672537197551,157.7865323238416 38.1842644445875,140.99486442991608 32.748027515838714,129.24741449393736 34.38756777102203,124.03044654825912 0.0,101.7760885009866 6.128759200525178,92.30589295939178 40.51632697154723,114.56025100666429 46.63039477966204,105.11275669289589 12.242827008640015,82.85839864562341 18.371586209165194,73.38820310402859 52.75915398018722,95.64256115130104 58.87322178830208,86.19506683753268 24.485654017280055,63.9407087902602 30.614413217805232,54.47051324866538 65.00198098882726,76.72487129593786 71.1160487969421,67.27737698216946 36.72848102592007,45.02301893489699 42.85724022644527,35.55282339330216 77.2448079974673,57.80718144057464 83.35887580558212,48.35968712680625 83.35900100687176,48.359687126769415 83.35898683473305,4.291637768516768e-06 98.00337103615634,0.0 98.00338520829506,48.35968283513166 112.6389854143961,48.359678546068096 112.6389854143961,48.359678546068096 147.0267377121573,26.105229995823294 153.1554960123085,35.575436451068256 118.76774371454722,57.82988500131306 124.88181062444629,67.27739020257022 159.26956292220754,45.022941652325414 165.39832122235867,54.49314810757038 131.0105689245974,76.74759665781518 137.12463583449653,86.19510185907234 171.51238813225774,63.94065330882756 177.64114643240885,73.41085976407253 143.25339413464764,95.66530831431733 149.36746104454676,105.11281351557446 183.7552133423079,82.85836496532968 189.8839716424591,92.32857142057463 155.49621934469783,114.58301997081944 161.61028625459693,124.0305251720766 163.24987208030421,129.24742565164502" style="fill:none;stroke:#ff0000" /><polyline points="130.60310464727377,199.79560748350013 65.39483121165773,199.79560748350016 32.02395150414513,127.68272060573891 83.35887580558212,48.35968712680625 112.6389854143961,48.359678546068096 163.97390920592872,127.68281430394124 130.60310464727377,199.79560748350013" style="fill:none;stroke:#00ff00" /><polyline points="189.88882739850285,141.5748273840512 157.24205996547238,212.1230092159063" style="fill:none;stroke:#0000ff" /><polyline points="130.60310464727377,230.7487521200136 65.3948387196818,230.7487521200135" style="fill:none;stroke:#0000ff" /><polyline points="38.755885970414965,212.12301629584482 6.109082274595954,141.574823306282" style="fill:none;stroke:#0000ff" /><polyline points="8.924140804401183,107.55146133479245 57.895448838961265,31.88070191333965" style="fill:none;stroke:#0000ff" /><polyline points="83.35898994990474,10.629925291637315 112.63897435742908,10.629916710935996" style="fill:none;stroke:#0000ff" /><polyline points="138.1025934849249,31.880597540646416 187.07389432512574,107.55144416665489" style="fill:none;stroke:#0000ff" /></svg>