<?xml version="1.0" encoding="utf-8" ?>
<svg baseProfile="full" height="57mm" version="1.1" width="62mm" xmlns="http://www.w3.org/2000/svg" xmlns:ev="http://www.w3.org/2001/xml-events" xmlns:xlink="http://www.w3.org/1999/xlink"><defs /><circle cx="147.75268420759096" cy="162.24902778044776" r="15" style="fill:none;stroke:#ff00dd" /><circle cx="48.50171888506054" cy="162.2490277804478" r="15" style="fill:none;stroke:#ff00dd" /><circle cx="37.27436496150312" cy="146.98084493202572" r="15" style="fill:none;stroke:#ff00dd" /><circle cx="66.85956407557616" cy="52.242149714755094" r="15" style="fill:none;stroke:#ff00dd" /><circle cx="143.41549910157718" cy="36.672222406706034" r="15" style="fill:none;stroke:#ff00dd" /><circle cx="185.4348365735073" cy="93.81462549635327" r="15" style="fill:none;stroke:#ff00dd" /><polyline points="157.50850817786346,178.94939952153004 42.46342542615077,178.94939952153004 19.533366319591003,147.76659923325423 53.82662071443783,37.95161493672176 152.31063112542674,17.92196102963467 205.98415473267767,90.91297673177606 157.50850817786346,178.94939952153004" style="fill:none;stroke:#000000" /><polyline points="185.4348365735073,93.81462549635327 220.45912005186204,113.10010681113859 214.376684664803,124.14639275847497 179.35240118644828,104.86091144368966 173.28090433840083,115.88733195521299 208.30518781675556,135.1728132699983 202.2227524296965,146.21909921733462 167.19846895134177,126.93361790254932 161.12697210329432,137.9600384140727 196.15125558164908,157.245519728858 190.06882019459002,168.29180567619434 155.04453671623534,149.006324361409 148.97303986818784,160.0327448729324 147.75268420759096,162.24902778044776 147.75268420759096,202.45981724425377 135.79667484097334,202.45981724425377 135.79667484097334,162.24902778044776 123.86932550479906,162.24902778044776 123.86932550479906,202.45981724425377 111.9133161381814,202.45981724425377 111.9133161381814,162.24902778044776 99.98596680200711,162.24902778044776 99.98596680200711,202.45981724425377 88.02995743538949,202.45981724425377 88.02995743538949,162.24902778044776 76.10260809921517,162.24902778044776 76.10260809921517,202.45981724425377 64.14659873259757,202.45981724425377 64.14659873259757,162.24902778044776 52.21924939642328,162.24902778044776 48.50171888506054,162.24902778044776 38.38252048337136,143.4322729641709 0.0,131.4460986940241 3.5639020055644335,120.03365476935976 41.946422488935795,132.0198290395065 45.50178138142255,120.63474215181698 7.11926089805122,108.64856788167017 10.683162903615653,97.23612395700577 49.06568338698699,109.22229822715258 52.62104227947378,97.837211339463 14.238521796102415,85.8510370693162 17.802423801666848,74.4385931446518 56.184944285038206,86.4247674147986 59.74030317752497,75.03968052710903 21.35778269415361,63.05350625696222 24.921684699718067,51.64106233229785 63.3042051830894,63.62723660244465 66.85956407557616,52.242149714755094 69.33902309610376,51.73787794667087 61.3704202070334,12.556972798301683 73.7276110126798,10.04377035997655 81.69621390175016,49.22467550834574 94.0311817645949,46.71599276668261 86.06257887552455,7.535087618313421 98.41976968117092,5.021885179988288 106.38837257024132,44.20279032835747 118.72334043308604,41.69410758669432 110.7547375440157,2.5132024383251323 123.11192834966202,0.0 131.08053123873242,39.180905148369185 143.41549910157718,36.672222406706034 143.41549910157718,36.672222406706034 178.67677224423218,10.74304799752609 185.686289853006,20.27534204980861 150.42501671035095,46.20451645898858 157.4219285326368,55.71966781040778 192.6832016752918,29.790493401227835 199.6927192840656,39.32278745351035 164.4314461414106,65.2519618626903 171.42835796369639,74.76711321410947 206.68963110635138,48.83793880492955 213.6991487151252,58.37023285721207 178.43787557247015,84.29940726639201 185.434787394756,93.81455861781123 185.4348365735073,93.81462549635327" style="fill:none;stroke:#ff0000" /><polyline points="147.75268420759096,162.24902778044776 48.50171888506054,162.2490277804478 37.27436496150312,146.98084493202572 66.85956407557616,52.242149714755094 143.41549910157718,36.672222406706034 185.4348365735073,93.81462549635327 147.75268420759096,162.24902778044776" style="fill:none;stroke:#00ff00" /><polyline points="211.1474991473678,107.97283301337569 174.68570244204832,174.19095238995482" style="fill:none;stroke:#0000ff" /><polyline points="147.75268420759096,191.82989624425377 52.21924939642328,191.82989624425377" style="fill:none;stroke:#0000ff" /><polyline points="28.364243055580037,177.05698302366298 17.136977947121885,161.7889209557189" style="fill:none;stroke:#0000ff" /><polyline points="10.146676004847388,134.61472402985913 38.623719597052194,43.424600780443306" style="fill:none;stroke:#0000ff" /><polyline points="63.488959959297745,22.973642601281753 137.56543596477115,7.907987061316915" style="fill:none;stroke:#0000ff" /><polyline points="170.11297052457152,17.04039033954448 212.1322588177503,74.18272655064966" style="fill:none;stroke:#0000ff" /></svg>