<?xml version="1.0" encoding="utf-8" ?>
<svg baseProfile="full" height="48mm" version="1.1" width="52mm" xmlns="http://www.w3.org/2000/svg" xmlns:ev="http://www.w3.org/2001/xml-events" xmlns:xlink="http://www.w3.org/1999/xlink"><defs /><polyline points="133.6145643079964,156.21878704442923 30.073989831454966,156.21878704442923 9.436936635551191,128.15426678498102 40.30086559091333,29.32078091810178 128.9364749608033,11.294092401723399 177.2426462073292,76.98600653365067 133.6145643079964,156.21878704442923" style="fill:none;stroke:#000000" /><polyline points="108.3740207307912,32.23645861336781 118.61707937181494,30.153227856801287 120.11699315996788,29.848175758246075 125.81038343846417,37.59065866870992 155.36245543461436,15.859712487311636 161.86970918804565,24.708974264516655 132.31763719189547,46.439920445914936 138.40506812241833,54.71826210734384 167.9571401185685,32.98731592924552 174.46439387199982,41.83657770315058 144.91232187584964,63.56752388454886 151.1047085120996,71.98859557615928 156.9031378121085,79.87392181604302 156.25028878413488,81.05955825618713 185.06682499233722,96.92685703722582 179.7686420706611,106.54886530490786 150.95210586080876,90.6815665222192 145.99574118916337,99.68280006401852 174.8122773973657,115.55009884505719 169.51409447568957,125.17210711273924 140.69755826418728,109.30480833005058 135.74119359419188,118.30604187349988 164.55772980239422,134.17334065453855 159.2595468790681,143.7953489222206 130.44301066921577,127.92805013788197 125.40119143588768,137.08447736197695 123.96343515066654,139.69558065176122 115.70919898252967,139.69558065176122 115.70919898252967,172.81975611609823 104.72494728384966,172.81975611609823 104.72494728384966,139.69558065176122 94.44935698417966,139.69558065176122 94.44935698417966,172.81975611609823 83.46510528549963,172.81975611609823 83.46510528549963,139.69558065176122 73.18951498417965,139.69558065176122 73.18951498417965,172.81975611609823 62.20526328549964,172.81975611609823 62.20526328549964,139.69558065176122 36.02265213068474,139.69558065176122 31.502363778488732,133.54839854714965 26.9821062924854,127.40125842135211 31.61806981431433,112.55582393627068 0.0,102.68206655771979 3.2742461806406635,92.1971680202129 34.89231599330501,102.07092540041377 37.955320485191436,92.26247192782024 6.3372506725270865,82.38871454761937 9.611496851517769,71.90381601341244 41.2295666658321,81.77757339031335 44.29257115606854,71.9691199193698 12.674501343404193,62.09536254081891 15.948747524044856,51.61046400331202 47.56681733670921,61.48422138351289 50.68263225078419,51.50665664469102 53.195905640349245,43.458570141106364 55.943449391526414,42.89977536536088 49.38720633737122,10.663316753643054 60.15109846540043,8.474159008643497 66.7073415212056,40.710617622011306 76.77678899714421,38.66269586103913 70.220545942989,6.426237249321305 80.98443807101822,4.237079504321748 87.5406811268234,36.47353811768956 97.61012860276199,34.425616356717384 91.0538855486068,2.1891577449995574 101.81777767498602,0.0 108.3740207307912,32.23645861336781" style="fill:none;stroke:#ff0000" /><polyline points="142.00664444866172,80.84899908698169 116.5301033648554,127.11684080242122 42.38646450096954,127.11684080242122 40.88596438550423,125.07629676274064 62.98704084742819,54.303504641646114 114.74582733278054,43.776815328531384 142.00664444866172,80.84899908698169" style="fill:none;stroke:#ff0000" /></svg>