<?xml version="1.0" encoding="utf-8" ?>
<svg baseProfile="tiny" height="54mm" version="1.2" width="59mm" xmlns="http://www.w3.org/2000/svg" xmlns:ev="http://www.w3.org/2001/xml-events" xmlns:xlink="http://www.w3.org/1999/xlink"><defs /><polyline fill="none" points="202.8539,108.4113 171.4691,165.4089" stroke="rgb(0%,0%,100%)" /><polyline fill="none" points="134.0368,187.6577 54.4248,187.6577" stroke="rgb(0%,0%,100%)" /><polyline fill="none" points="17.9648,166.5695 16.0259,163.9327" stroke="rgb(0%,0%,100%)" /><polyline fill="none" points="6.7645,122.8441 30.4956,46.8514" stroke="rgb(0%,0%,100%)" /><polyline fill="none" points="62.8912,17.7529 126.653,4.7851" stroke="rgb(0%,0%,100%)" /><polyline fill="none" points="169.0263,19.2173 201.7087,63.6623" stroke="rgb(0%,0%,100%)" /><polyline fill="none" points="200.229,86.7412 151.7533,174.7775 36.7083,174.7775 13.7782,143.5947 48.0715,33.7797 146.5556,13.7501 200.229,86.7412" stroke="rgb(0%,0%,0%)" /><polyline fill="none" points="177.1411,94.253 209.0616,111.8295 203.8261,121.3376 171.9056,103.7611 166.6795,113.2522 198.6,130.8287 193.3645,140.3368 161.444,122.7603 156.2179,132.2514 188.1384,149.8279 182.9029,159.336 150.9824,141.7595 145.7563,151.2506 134.0368,158.0773 134.0368,194.7443 120.7562,194.7443 120.7562,158.0773 107.4994,158.0773 107.4994,194.7443 94.2188,194.7443 94.2188,158.0773 80.9621,158.0773 80.9621,194.7443 67.6815,194.7443 67.6815,158.0773 54.4248,158.0773 38.1024,151.7614 35.0003,131.6617 0.0,120.7317 3.9588,108.0549 38.959,118.9848 42.9107,106.3308 7.9104,95.4008 11.8692,82.7239 46.8694,93.6539 50.8211,80.9998 15.8208,70.0699 19.7795,57.393 54.7798,68.323 58.7314,55.6689 68.7412,46.517 61.4788,10.8084 72.1154,8.6452 79.3777,44.3538 89.9951,42.1944 82.7328,6.4858 93.3693,4.3226 100.6317,40.0312 111.2491,37.8718 103.9867,2.1632 114.6233,0.0 121.8856,35.7086 132.503,33.5492 142.3289,38.8491 174.7355,15.019 182.911,26.137 150.5044,49.967 158.6701,61.0716 191.0767,37.2415 199.2522,48.3595 166.8455,72.1895 175.0112,83.2941 177.1411,94.253" stroke="rgb(100%,0%,0%)" /></svg>