<?xml version="1.0" encoding="utf-8" ?>
<svg baseProfile="tiny" height="35mm" version="1.2" width="35mm" xmlns="http://www.w3.org/2000/svg" xmlns:ev="http://www.w3.org/2001/xml-events" xmlns:xlink="http://www.w3.org/1999/xlink"><defs /><polyline fill="none" points="120.3376,63.1623 109.7428,95.7694" stroke="rgb(0%,0%,100%)" /><polyline fill="none" points="78.0333,118.8077 43.7481,118.8077" stroke="rgb(0%,0%,100%)" /><polyline fill="none" points="12.0387,95.7693 1.4441,63.1621" stroke="rgb(0%,0%,100%)" /><polyline fill="none" points="13.5561,25.8854 41.2934,5.7332" stroke="rgb(0%,0%,100%)" /><polyline fill="none" points="80.4885,5.7332 108.2258,25.8856" stroke="rgb(0%,0%,100%)" /><polyline fill="none" points="117.2942,43.5451 95.7498,109.8511 26.0315,109.8511 4.4876,43.5449 60.8909,2.5657 117.2942,43.5451" stroke="rgb(0%,0%,0%)" /><polyline fill="none" points="98.5996,56.0991 127.0774,65.3522 121.7783,81.6607 93.3006,72.4075 88.0048,88.7062 78.0333,95.9508 78.0333,125.8943 60.8855,125.8943 60.8855,95.9508 43.7481,95.9508 33.7768,88.7063 5.2989,97.9592 0.0,81.6507 28.4779,72.3978 23.1822,56.099 26.991,44.377 9.3907,20.1522 23.2635,10.073 40.8638,34.2978 54.7282,24.2247 67.0535,24.2248 84.6539,0.0 98.5267,10.0792 80.9264,34.304 94.7909,44.3771 98.5996,56.0991" stroke="rgb(100%,0%,0%)" /></svg>