<?xml version="1.0" encoding="utf-8" ?>
<svg baseProfile="tiny" height="39mm" version="1.2" width="45mm" xmlns="http://www.w3.org/2000/svg" xmlns:ev="http://www.w3.org/2001/xml-events" xmlns:xlink="http://www.w3.org/1999/xlink"><defs /><polyline fill="none" points="159.7567,112.3474 162.39,107.9077" stroke="rgb(0%,0%,100%)" /><polyline fill="none" points="124.6179,131.637 43.0825,131.637" stroke="rgb(0%,0%,100%)" /><polyline fill="none" points="5.3102,107.9078 7.9437,112.3477" stroke="rgb(0%,0%,100%)" /><polyline fill="none" points="6.1482,67.9903 43.101,3.5244" stroke="rgb(0%,0%,100%)" /><polyline fill="none" points="82.2136,-14.8696 85.4865,-14.8696" stroke="rgb(0%,0%,100%)" /><polyline fill="none" points="124.5993,3.5242 161.5523,67.9901" stroke="rgb(0%,0%,100%)" /><polyline fill="none" points="157.7773,90.5748 142.3344,116.6105 25.3659,116.6105 9.9231,90.575 64.4971,-4.6318 103.2031,-4.6318 157.7773,90.5748" stroke="rgb(0%,0%,0%)" /><polyline fill="none" points="134.4223,97.3205 124.6179,98.2042 124.6179,138.7237 111.0164,138.7237 111.0164,98.2042 97.4394,98.2042 97.4394,138.7237 83.8379,138.7237 83.8379,98.2042 70.2609,98.2042 70.2609,138.7237 56.6595,138.7237 56.6595,98.2042 43.0825,98.2042 30.6447,92.8808 34.3364,84.1483 0.0,64.4661 6.1643,53.7121 40.5008,73.3943 46.654,62.6596 12.3176,42.9775 18.482,32.2235 52.8184,51.9056 58.9716,41.171 24.6352,21.4888 30.7996,10.7348 65.136,30.417 71.2893,19.6823 82.2136,10.1264 96.4109,19.6824 130.7474,0.0 136.9118,10.754 102.5753,30.4363 108.7286,41.171 143.0651,21.4886 149.2295,32.2426 114.893,51.925 121.0463,62.6596 155.3828,42.9772 161.5472,53.7312 127.2107,73.4136 133.364,84.1482 134.4223,97.3205" stroke="rgb(100%,0%,0%)" /></svg>