<?xml version="1.0" encoding="utf-8" ?>
<svg baseProfile="tiny" height="39mm" version="1.2" width="45mm" xmlns="http://www.w3.org/2000/svg" xmlns:ev="http://www.w3.org/2001/xml-events" xmlns:xlink="http://www.w3.org/1999/xlink"><defs /><polyline fill="none" points="159.7566,112.3476 162.3901,107.9077" stroke="rgb(0%,0%,100%)" /><polyline fill="none" points="124.6179,131.6372 43.0825,131.6372" stroke="rgb(0%,0%,100%)" /><polyline fill="none" points="5.3103,107.9077 7.9437,112.3474" stroke="rgb(0%,0%,100%)" /><polyline fill="none" points="6.1482,67.9901 43.1012,3.5242" stroke="rgb(0%,0%,100%)" /><polyline fill="none" points="82.2139,-14.8696 85.4868,-14.8696" stroke="rgb(0%,0%,100%)" /><polyline fill="none" points="124.5996,3.5242 161.5525,67.9902" stroke="rgb(0%,0%,100%)" /><polyline fill="none" points="157.7773,90.5749 142.3345,116.6105 25.366,116.6105 9.9231,90.5747 64.4973,-4.6319 103.2033,-4.6319 157.7773,90.5749" stroke="rgb(0%,0%,0%)" /><polyline fill="none" points="134.4223,97.3207 124.6179,98.204 124.6179,138.7238 111.0165,138.7238 111.0165,98.204 97.4395,98.204 97.4395,138.7238 83.838,138.7238 83.838,98.204 70.261,98.204 70.261,138.7238 56.6595,138.7238 56.6595,98.204 43.0825,98.204 30.6447,92.8808 34.3364,84.1481 0.0,64.4658 6.1644,53.7119 40.5008,73.3941 46.6541,62.6595 12.3177,42.9772 18.4821,32.2233 52.8185,51.9055 58.9718,41.1709 24.6354,21.4886 30.7998,10.7346 65.1361,30.4169 71.2894,19.6823 82.2139,10.1264 96.411,19.6824 130.7478,0.0 136.9122,10.754 102.5753,30.4364 108.7286,41.171 143.0654,21.4886 149.2298,32.2426 114.8929,51.925 121.0462,62.6597 155.383,42.9773 161.5474,53.7313 127.2105,73.4137 133.3638,84.1483 134.4223,97.3207" stroke="rgb(100%,0%,0%)" /></svg>