<?xml version="1.0" encoding="utf-8" ?>
<svg baseProfile="tiny" height="58mm" version="1.2" width="53mm" xmlns="http://www.w3.org/2000/svg" xmlns:ev="http://www.w3.org/2001/xml-events" xmlns:xlink="http://www.w3.org/1999/xlink"><defs /><polyline fill="none" points="181.819,115.5305 154.4927,174.5814" stroke="rgb(0%,0%,100%)" /><polyline fill="none" points="117.763,198.9557 67.4156,198.9557" stroke="rgb(0%,0%,100%)" /><polyline fill="none" points="30.686,174.5814 3.3596,115.5304" stroke="rgb(0%,0%,100%)" /><polyline fill="none" points="5.9494,71.9955 50.0505,3.8501" stroke="rgb(0%,0%,100%)" /><polyline fill="none" points="88.5607,-21.1631 96.618,-21.1631" stroke="rgb(0%,0%,100%)" /><polyline fill="none" points="135.128,3.8502 179.2291,71.9956" stroke="rgb(0%,0%,100%)" /><polyline fill="none" points="177.6867,94.0967 135.4795,185.3044 49.6991,185.3044 7.4919,94.0966 70.8441,-3.7959 114.3345,-3.7959 177.6867,94.0967" stroke="rgb(0%,0%,0%)" /><polyline fill="none" points="155.1799,103.203 188.2504,118.5067 183.6919,128.3573 150.6215,113.0537 146.0712,122.8866 179.1416,138.1903 174.5831,148.041 141.5127,132.7373 136.9624,142.5703 170.0329,157.8739 165.4744,167.7246 132.4039,152.4209 127.8536,162.2539 117.763,168.0026 117.763,206.0423 105.1686,206.0423 105.1686,168.0026 92.5893,168.0026 92.5893,206.0423 79.9949,206.0423 79.9949,168.0026 67.4156,168.0026 57.325,162.2539 24.2546,177.5575 19.6961,167.7069 52.7665,152.4032 48.2162,142.5703 15.1458,157.8739 10.5873,148.0232 43.6577,132.7196 39.1074,122.8866 6.037,138.1902 1.4785,128.3396 34.5489,113.0359 29.9986,103.203 31.4132,88.4746 0.0,68.1453 7.3568,56.7775 38.77,77.1069 46.1135,65.7595 14.7003,45.4301 22.0571,34.0624 53.4703,54.3917 60.8139,43.0444 29.4007,22.715 36.7575,11.3472 68.1707,31.6766 75.5142,20.3293 88.5607,16.5662 109.6645,20.3292 141.0775,0.0 148.4343,11.3678 117.0213,31.697 124.3649,43.0444 155.7778,22.7151 163.1346,34.0829 131.7216,54.4122 139.0652,65.7595 170.4782,45.4303 177.8349,56.798 146.422,77.1273 153.7655,88.4746 155.1799,103.203" stroke="rgb(100%,0%,0%)" /></svg>