<?xml version="1.0" encoding="utf-8" ?>
<svg baseProfile="tiny" height="59mm" version="1.2" width="69mm" xmlns="http://www.w3.org/2000/svg" xmlns:ev="http://www.w3.org/2001/xml-events" xmlns:xlink="http://www.w3.org/1999/xlink"><defs /><polyline fill="none" points="194.8127,49.7425 244.7669,164.3301" stroke="rgb(0%,0%,100%)" /><polyline fill="none" points="218.8361,203.9226 93.8331,203.9226" stroke="rgb(0%,0%,100%)" /><polyline fill="none" points="55.0165,180.4835 8.0558,114.2766" stroke="rgb(0%,0%,100%)" /><polyline fill="none" points="5.9283,69.1651 36.1544,23.0145" stroke="rgb(0%,0%,100%)" /><polyline fill="none" points="78.3574,6.937 157.8147,23.5269" stroke="rgb(0%,0%,100%)" /><polyline fill="none" points="172.4385,40.1696 236.5526,187.238 76.1165,187.238 8.6563,92.13 58.296,16.3379 172.4385,40.1696" stroke="rgb(0%,0%,0%)" /><polyline fill="none" points="161.3838,64.3157 201.3089,46.9105 206.3118,58.3864 166.3867,75.7917 171.3746,87.2333 211.2997,69.828 216.3026,81.304 176.3776,98.7092 181.3655,110.1508 221.2906,92.7455 226.2935,104.2215 186.3684,121.6267 191.3563,133.0683 231.2814,115.6631 236.2843,127.139 196.3593,144.5443 201.3472,155.9858 241.2723,138.5806 246.2752,150.0565 206.3501,167.4618 211.338,178.9034 218.8361,167.4548 218.8361,211.0093 206.317,211.0093 206.317,167.4548 193.8355,167.4548 193.8355,211.0093 181.3164,211.0093 181.3164,167.4548 168.8349,167.4548 168.8349,211.0093 156.3158,211.0093 156.3158,167.4548 143.8343,167.4548 143.8343,211.0093 131.3152,211.0093 131.3152,167.4548 118.8337,167.4548 118.8337,211.0093 106.3146,211.0093 106.3146,167.4548 93.8331,167.4548 79.7557,162.936 49.2363,184.5835 41.4025,173.539 71.9219,151.8916 64.1021,140.867 33.5827,162.5145 25.7489,151.47 56.2683,129.8226 48.4486,118.798 17.9292,140.4455 10.0954,129.4011 40.6148,107.7536 32.795,96.7291 33.6503,87.3216 0.0,65.2824 7.5611,53.7378 41.2114,75.777 48.7634,64.2462 15.1131,42.2071 22.6741,30.6625 56.3245,52.7017 63.8765,41.1709 72.1584,36.6274 79.8058,0.0 93.0606,2.7675 85.4132,39.3949 98.6441,42.1574 106.2915,5.5299 119.5464,8.2974 111.8989,44.9248 125.1299,47.6873 132.7773,11.0599 146.0321,13.8273 138.3847,50.4548 151.6157,53.2173 161.3838,64.3157" stroke="rgb(100%,0%,0%)" /></svg>