<?xml version="1.0" encoding="utf-8" ?>
<svg baseProfile="tiny" height="52mm" version="1.2" width="55mm" xmlns="http://www.w3.org/2000/svg" xmlns:ev="http://www.w3.org/2001/xml-events" xmlns:xlink="http://www.w3.org/1999/xlink"><defs /><polyline fill="none" points="191.6345,110.5637 171.0891,156.5283" stroke="rgb(0%,0%,100%)" /><polyline fill="none" points="133.68,180.0122 54.0679,180.0122" stroke="rgb(0%,0%,100%)" /><polyline fill="none" points="18.7393,152.4986 4.6033,79.5497" stroke="rgb(0%,0%,100%)" /><polyline fill="none" points="23.2397,37.8558 87.022,-0.2647" stroke="rgb(0%,0%,100%)" /><polyline fill="none" points="131.0851,7.7084 184.1824,67.0274" stroke="rgb(0%,0%,100%)" /><polyline fill="none" points="186.4012,88.8187 151.3965,167.1318 36.3514,167.1318 15.4745,59.397 109.6717,3.0985 186.4012,88.8187" stroke="rgb(0%,0%,0%)" /><polyline fill="none" points="163.3759,97.9326 198.1042,113.4556 192.9648,124.9536 158.2365,109.4306 153.1032,120.9148 187.8315,136.4379 182.6921,147.9359 147.9637,132.4129 142.8305,143.8971 133.68,150.4316 133.68,187.0988 120.3993,187.0988 120.3993,150.4316 107.1426,150.4316 107.1426,187.0988 93.862,187.0988 93.862,150.4316 80.6053,150.4316 80.6053,187.0988 67.3246,187.0988 67.3246,150.4316 54.0679,150.4316 50.6368,146.3175 11.7821,153.8468 9.424,141.6777 48.2787,134.1484 45.9248,122.0012 7.0701,129.5305 4.712,117.3614 43.5667,109.8321 41.2128,97.6849 2.3581,105.2142 0.0,93.0451 38.8547,85.5158 36.5008,73.3686 39.9084,65.7454 19.6041,31.7728 30.2441,25.4137 50.5483,59.3863 61.1691,53.0385 40.8649,19.066 51.5048,12.7068 71.8091,46.6794 82.4299,40.3317 62.1257,6.3591 72.7656,0.0 93.0699,33.9726 103.6907,27.6249 109.0443,27.4375 136.3653,2.982 145.2228,12.8774 117.9019,37.3328 126.7435,47.2104 154.0644,22.755 162.922,32.6504 135.601,57.1058 144.4426,66.9834 171.7636,42.528 180.6211,52.4234 153.3001,76.8788 162.1417,86.7564 163.3759,97.9326" stroke="rgb(100%,0%,0%)" /></svg>