<?xml version="1.0" encoding="utf-8" ?>
<svg baseProfile="tiny" height="52mm" version="1.2" width="55mm" xmlns="http://www.w3.org/2000/svg" xmlns:ev="http://www.w3.org/2001/xml-events" xmlns:xlink="http://www.w3.org/1999/xlink"><defs /><polyline fill="none" points="191.6346,110.5638 171.0892,156.5284" stroke="rgb(0%,0%,100%)" /><polyline fill="none" points="133.6801,180.0123 54.0681,180.0123" stroke="rgb(0%,0%,100%)" /><polyline fill="none" points="18.7394,152.4987 4.6033,79.5499" stroke="rgb(0%,0%,100%)" /><polyline fill="none" points="23.2397,37.8559 87.022,-0.2647" stroke="rgb(0%,0%,100%)" /><polyline fill="none" points="131.085,7.7086 184.1824,67.0276" stroke="rgb(0%,0%,100%)" /><polyline fill="none" points="186.4013,88.8188 151.3966,167.1319 36.3515,167.1319 15.4746,59.3972 109.6718,3.0986 186.4013,88.8188" stroke="rgb(0%,0%,0%)" /><polyline fill="none" points="163.376,97.9327 198.1043,113.4557 192.9649,124.9537 158.2365,109.4307 153.1033,120.9149 187.8316,136.438 182.6922,147.936 147.9638,132.413 142.8306,143.8972 133.6801,150.4317 133.6801,187.0989 120.3995,187.0989 120.3995,150.4317 107.1427,150.4317 107.1427,187.0989 93.8621,187.0989 93.8621,150.4317 80.6054,150.4317 80.6054,187.0989 67.3248,187.0989 67.3248,150.4317 54.0681,150.4317 50.637,146.3176 11.7822,153.8469 9.4241,141.6778 48.2789,134.1485 45.925,122.0013 7.0702,129.5306 4.712,117.3616 43.5668,109.8322 41.213,97.685 2.3581,105.2144 0.0,93.0453 38.8548,85.516 36.5009,73.3688 39.9085,65.7457 19.6041,31.7729 30.244,25.4138 50.5484,59.3865 61.1693,53.0388 40.8649,19.066 51.5048,12.7069 71.8092,46.6796 82.43,40.3319 62.1256,6.3592 72.7656,0.0 93.07,33.9727 103.6908,27.625 109.0445,27.4374 136.3653,2.9822 145.2228,12.8776 117.902,37.3328 126.7436,47.2104 154.0644,22.7552 162.9219,32.6506 135.6011,57.1058 144.4427,66.9834 171.7635,42.5282 180.6211,52.4236 153.3003,76.8788 162.1419,86.7565 163.376,97.9327" stroke="rgb(100%,0%,0%)" /></svg>