<?xml version="1.0" encoding="utf-8" ?>
<svg baseProfile="tiny" height="52mm" version="1.2" width="55mm" xmlns="http://www.w3.org/2000/svg" xmlns:ev="http://www.w3.org/2001/xml-events" xmlns:xlink="http://www.w3.org/1999/xlink"><defs /><polyline fill="none" points="191.6345,110.5637 171.0889,156.5285" stroke="rgb(0%,0%,100%)" /><polyline fill="none" points="133.6797,180.0124 54.0677,180.0124" stroke="rgb(0%,0%,100%)" /><polyline fill="none" points="18.7393,152.4987 4.6033,79.5498" stroke="rgb(0%,0%,100%)" /><polyline fill="none" points="23.2396,37.8559 87.0221,-0.2648" stroke="rgb(0%,0%,100%)" /><polyline fill="none" points="131.0849,7.7085 184.1821,67.0275" stroke="rgb(0%,0%,100%)" /><polyline fill="none" points="186.4011,88.8186 151.3962,167.132 36.3512,167.132 15.4745,59.3971 109.6717,3.0984 186.4011,88.8186" stroke="rgb(0%,0%,0%)" /><polyline fill="none" points="163.3757,97.9325 198.1042,113.4556 192.9647,124.9537 158.2363,109.4306 153.1029,120.9149 187.8314,136.438 182.6919,147.9361 147.9635,132.413 142.8302,143.8973 133.6797,150.4318 133.6797,187.099 120.3991,187.099 120.3991,150.4318 107.1424,150.4318 107.1424,187.099 93.8618,187.099 93.8618,150.4318 80.6051,150.4318 80.6051,187.099 67.3245,187.099 67.3245,150.4318 54.0677,150.4318 50.6366,146.3177 11.7821,153.8469 9.424,141.6778 48.2785,134.1486 45.9246,122.0014 7.0701,129.5306 4.712,117.3615 43.5665,109.8323 41.2126,97.6851 2.3581,105.2142 0.0,93.0451 38.8545,85.516 36.5006,73.3687 39.9083,65.7454 19.604,31.7729 30.244,25.4138 50.5483,59.3863 61.1691,53.0385 40.8649,19.0661 51.5048,12.7069 71.8091,46.6794 82.4299,40.3316 62.1257,6.3592 72.7656,0.0 93.0699,33.9725 103.6907,27.6247 109.0445,27.4372 136.3651,2.9821 145.2226,12.8775 117.902,37.3326 126.7436,47.2102 154.0642,22.7551 162.9217,32.6505 135.6011,57.1056 144.4426,66.9832 171.7633,42.5281 180.6208,52.4235 153.3002,76.8786 162.1417,86.7562 163.3757,97.9325" stroke="rgb(100%,0%,0%)" /></svg>