<?xml version="1.0" encoding="utf-8" ?>
<svg baseProfile="tiny" height="57mm" version="1.2" width="73mm" xmlns="http://www.w3.org/2000/svg" xmlns:ev="http://www.w3.org/2001/xml-events" xmlns:xlink="http://www.w3.org/1999/xlink"><defs /><polyline fill="none" points="254.808,76.5423 182.4885,178.5011" stroke="rgb(0%,0%,100%)" /><polyline fill="none" points="140.9134,196.6016 59.7426,196.6016" stroke="rgb(0%,0%,100%)" /><polyline fill="none" points="21.7165,172.2378 1.5608,120.8837" stroke="rgb(0%,0%,100%)" /><polyline fill="none" points="12.8635,77.1593 72.3646,21.9478" stroke="rgb(0%,0%,100%)" /><polyline fill="none" points="115.1524,6.937 237.5165,32.4856" stroke="rgb(0%,0%,100%)" /><polyline fill="none" points="251.449,52.439 158.6299,183.2989 42.0261,183.2989 8.9249,98.9612 94.3998,19.6485 251.449,52.439" stroke="rgb(0%,0%,0%)" /><polyline fill="none" points="225.0631,55.4442 260.5882,80.6422 253.3454,90.8534 217.8203,65.6554 210.5992,75.836 246.1243,101.0339 238.8815,111.2451 203.3564,86.0471 196.1353,96.2277 231.6604,121.4257 224.4176,131.6369 188.8925,106.4389 181.6714,116.6195 217.1965,141.8175 209.9537,152.0286 174.4286,126.8307 167.2075,137.0112 202.7326,162.2092 195.4898,172.4204 159.9647,147.2224 152.7436,157.403 140.9134,166.2707 140.9134,203.6882 127.3727,203.6882 127.3727,166.2707 113.8565,166.2707 113.8565,203.6882 100.3158,203.6882 100.3158,166.2707 86.7995,166.2707 86.7995,203.6882 73.2589,203.6882 73.2589,166.2707 59.7426,166.2707 52.5642,160.1306 15.1198,174.8269 10.0778,161.9807 47.5222,147.2844 42.4864,134.4535 5.0419,149.1499 0.0,136.3036 37.4444,121.6073 32.4085,108.7765 33.494,99.3928 8.0432,71.9646 17.969,62.7544 43.4198,90.1826 53.3278,80.989 27.8769,53.5607 37.8027,44.3505 63.2535,71.7788 73.1615,62.5851 47.7106,35.1569 57.6364,25.9467 83.0873,53.3749 92.9952,44.1813 107.6989,42.635 116.6008,0.0 128.8555,2.5587 119.9537,45.1937 132.1718,47.7448 141.0736,5.1097 153.3284,7.6684 144.4265,50.3034 156.6446,52.8545 165.5464,10.2194 177.8012,12.7781 168.8994,55.4132 181.1174,57.9642 190.0192,15.3291 202.274,17.8878 193.3722,60.5229 205.5902,63.0739 214.4921,20.4388 226.7468,22.9975 217.845,65.6326 230.0631,68.1836 225.0631,55.4442" stroke="rgb(100%,0%,0%)" /></svg>