<?xml version="1.0" encoding="utf-8" ?>
<svg baseProfile="tiny" height="59mm" version="1.2" width="69mm" xmlns="http://www.w3.org/2000/svg" xmlns:ev="http://www.w3.org/2001/xml-events" xmlns:xlink="http://www.w3.org/1999/xlink"><defs /><polyline fill="none" points="194.8126,49.7425 244.767,164.33" stroke="rgb(0%,0%,100%)" /><polyline fill="none" points="218.836,203.9226 93.833,203.9226" stroke="rgb(0%,0%,100%)" /><polyline fill="none" points="55.0163,180.4836 8.0557,114.2767" stroke="rgb(0%,0%,100%)" /><polyline fill="none" points="5.9283,69.1652 36.1544,23.0146" stroke="rgb(0%,0%,100%)" /><polyline fill="none" points="78.3573,6.937 157.8145,23.5269" stroke="rgb(0%,0%,100%)" /><polyline fill="none" points="172.4382,40.1697 236.5526,187.238 76.1165,187.238 8.6563,92.13 58.2959,16.3379 172.4382,40.1697" stroke="rgb(0%,0%,0%)" /><polyline fill="none" points="161.3834,64.3159 201.3088,46.9105 206.3117,58.3864 166.3863,75.7919 171.3743,87.2334 211.2996,69.828 216.3026,81.3039 176.3772,98.7094 181.3652,110.151 221.2905,92.7455 226.2935,104.2214 186.3681,121.6269 191.356,133.0685 231.2814,115.663 236.2843,127.139 196.359,144.5444 201.3469,155.986 241.2723,138.5805 246.2752,150.0565 206.3499,167.4619 211.3378,178.9035 218.836,167.455 218.836,211.0092 206.317,211.0092 206.317,167.455 193.8354,167.455 193.8354,211.0092 181.3164,211.0092 181.3164,167.455 168.8348,167.455 168.8348,211.0092 156.3158,211.0092 156.3158,167.455 143.8342,167.455 143.8342,211.0092 131.3152,211.0092 131.3152,167.455 118.8336,167.455 118.8336,211.0092 106.3145,211.0092 106.3145,167.455 93.833,167.455 79.7557,162.936 49.2361,184.5835 41.4023,173.5391 71.9219,151.8916 64.1022,140.867 33.5826,162.5146 25.7488,151.4701 56.2683,129.8226 48.4486,118.7981 17.9291,140.4456 10.0952,129.4012 40.6148,107.7536 32.7951,96.7291 33.6503,87.3216 0.0,65.2825 7.5611,53.7379 41.2113,75.777 48.7633,64.2463 15.1131,42.2072 22.6741,30.6626 56.3244,52.7017 63.8764,41.171 72.1582,36.6275 79.8057,0.0 93.0605,2.7675 85.413,39.395 98.644,42.1575 106.2914,5.53 119.5462,8.2974 111.8987,44.925 125.1297,47.6875 132.7771,11.0599 146.0319,13.8274 138.3844,50.4549 151.6154,53.2174 161.3834,64.3159" stroke="rgb(100%,0%,0%)" /></svg>