<?xml version="1.0" encoding="utf-8" ?>
<svg baseProfile="tiny" height="58mm" version="1.2" width="53mm" xmlns="http://www.w3.org/2000/svg" xmlns:ev="http://www.w3.org/2001/xml-events" xmlns:xlink="http://www.w3.org/1999/xlink"><defs /><polyline fill="none" points="181.8189,115.5303 154.4927,174.5812" stroke="rgb(0%,0%,100%)" /><polyline fill="none" points="117.763,198.9556 67.4154,198.9556" stroke="rgb(0%,0%,100%)" /><polyline fill="none" points="30.6857,174.5811 3.3595,115.5303" stroke="rgb(0%,0%,100%)" /><polyline fill="none" points="5.9494,71.9954 50.0504,3.8502" stroke="rgb(0%,0%,100%)" /><polyline fill="none" points="88.5605,-21.1632 96.6178,-21.1632" stroke="rgb(0%,0%,100%)" /><polyline fill="none" points="135.1279,3.8502 179.2289,71.9954" stroke="rgb(0%,0%,100%)" /><polyline fill="none" points="177.6865,94.0965 135.4795,185.3042 49.6988,185.3042 7.4918,94.0965 70.844,-3.7958 114.3343,-3.7958 177.6865,94.0965" stroke="rgb(0%,0%,0%)" /><polyline fill="none" points="155.1798,103.2029 188.2502,118.5064 183.6918,128.3571 150.6214,113.0535 146.0711,122.8865 179.1415,138.1901 174.583,148.0407 141.5126,132.7372 136.9623,142.5701 170.0328,157.8737 165.4743,167.7244 132.4039,152.4208 127.8536,162.2537 117.763,168.0023 117.763,206.0422 105.1685,206.0422 105.1685,168.0023 92.5892,168.0023 92.5892,206.0422 79.9947,206.0422 79.9947,168.0023 67.4154,168.0023 57.3247,162.2537 24.2543,177.5573 19.6959,167.7066 52.7663,152.4031 48.216,142.5701 15.1456,157.8737 10.5871,148.023 43.6575,132.7194 39.1073,122.8865 6.0368,138.19 1.4784,128.3394 34.5488,113.0358 29.9985,103.2029 31.413,88.4745 0.0,68.1451 7.3568,56.7774 38.7698,77.1067 46.1133,65.7594 14.7003,45.4301 22.0571,34.0623 53.4701,54.3917 60.8137,43.0444 29.4006,22.715 36.7574,11.3473 68.1704,31.6766 75.514,20.3293 88.5605,16.5664 109.6644,20.3293 141.0774,0.0 148.4341,11.3677 117.0211,31.6971 124.3647,43.0444 155.7777,22.715 163.1345,34.0828 131.7215,54.4121 139.065,65.7594 170.478,45.4301 177.8348,56.7978 146.4218,77.1272 153.7653,88.4745 155.1798,103.2029" stroke="rgb(100%,0%,0%)" /></svg>