<?xml version="1.0" encoding="utf-8" ?>
<svg baseProfile="tiny" height="58mm" version="1.2" width="53mm" xmlns="http://www.w3.org/2000/svg" xmlns:ev="http://www.w3.org/2001/xml-events" xmlns:xlink="http://www.w3.org/1999/xlink"><defs /><polyline fill="none" points="181.8187,115.5303 154.4924,174.5812" stroke="rgb(0%,0%,100%)" /><polyline fill="none" points="117.7628,198.9556 67.4154,198.9556" stroke="rgb(0%,0%,100%)" /><polyline fill="none" points="30.6858,174.5812 3.3595,115.5303" stroke="rgb(0%,0%,100%)" /><polyline fill="none" points="5.9494,71.9955 50.0504,3.8503" stroke="rgb(0%,0%,100%)" /><polyline fill="none" points="88.5605,-21.1633 96.6178,-21.1633" stroke="rgb(0%,0%,100%)" /><polyline fill="none" points="135.1279,3.8502 179.2289,71.9954" stroke="rgb(0%,0%,100%)" /><polyline fill="none" points="177.6865,94.0965 135.4793,185.3042 49.6989,185.3042 7.4917,94.0965 70.844,-3.7958 114.3343,-3.7958 177.6865,94.0965" stroke="rgb(0%,0%,0%)" /><polyline fill="none" points="155.1798,103.2029 188.2501,118.5064 183.6916,128.3571 150.6213,113.0535 146.071,122.8865 179.1413,138.1901 174.5829,148.0408 141.5125,132.7372 136.9622,142.5701 170.0326,157.8737 165.4741,167.7244 132.4038,152.4208 127.8535,162.2538 117.7628,168.0024 117.7628,206.0422 105.1684,206.0422 105.1684,168.0024 92.5891,168.0024 92.5891,206.0422 79.9947,206.0422 79.9947,168.0024 67.4154,168.0024 57.3247,162.2538 24.2544,177.5574 19.6959,167.7067 52.7663,152.4031 48.216,142.5701 15.1456,157.8737 10.5872,148.023 43.6575,132.7195 39.1072,122.8865 6.0369,138.1901 1.4784,128.3394 34.5487,113.0358 29.9984,103.2029 31.4129,88.4745 0.0,68.1452 7.3568,56.7775 38.7696,77.1067 46.1132,65.7594 14.7003,45.4302 22.0571,34.0624 53.47,54.3917 60.8135,43.0443 29.4007,22.7151 36.7575,11.3474 68.1703,31.6766 75.5139,20.3293 88.5605,16.5665 109.6643,20.3293 141.0773,0.0 148.4341,11.3677 117.0211,31.6971 124.3646,43.0444 155.7777,22.7151 163.1344,34.0828 131.7214,54.4121 139.0649,65.7594 170.478,45.4301 177.8348,56.7979 146.4217,77.1272 153.7653,88.4745 155.1798,103.2029" stroke="rgb(100%,0%,0%)" /></svg>