<?xml version="1.0" encoding="utf-8" ?>
<svg baseProfile="tiny" height="54mm" version="1.2" width="59mm" xmlns="http://www.w3.org/2000/svg" xmlns:ev="http://www.w3.org/2001/xml-events" xmlns:xlink="http://www.w3.org/1999/xlink"><defs /><polyline fill="none" points="202.8538,108.4112 171.4691,165.4089" stroke="rgb(0%,0%,100%)" /><polyline fill="none" points="134.0368,187.6581 54.4248,187.6581" stroke="rgb(0%,0%,100%)" /><polyline fill="none" points="17.9649,166.5695 16.026,163.9328" stroke="rgb(0%,0%,100%)" /><polyline fill="none" points="6.7645,122.8442 30.4956,46.8515" stroke="rgb(0%,0%,100%)" /><polyline fill="none" points="62.8911,17.7529 126.6529,4.7851" stroke="rgb(0%,0%,100%)" /><polyline fill="none" points="169.0263,19.2172 201.7086,63.6623" stroke="rgb(0%,0%,100%)" /><polyline fill="none" points="200.229,86.7412 151.7533,174.7776 36.7083,174.7776 13.7782,143.5948 48.0715,33.7798 146.5555,13.7502 200.229,86.7412" stroke="rgb(0%,0%,0%)" /><polyline fill="none" points="177.1411,94.253 209.0616,111.8294 203.8261,121.3376 171.9056,103.7612 166.6796,113.2523 198.6,130.8287 193.3645,140.3368 161.4441,122.7604 156.218,132.2515 188.1384,149.8279 182.9029,159.336 150.9825,141.7597 145.7564,151.2507 134.0368,158.0772 134.0368,194.7447 120.7562,194.7447 120.7562,158.0772 107.4995,158.0772 107.4995,194.7447 94.2189,194.7447 94.2189,158.0772 80.9621,158.0772 80.9621,194.7447 67.6815,194.7447 67.6815,158.0772 54.4248,158.0772 38.1024,151.7616 35.0003,131.6618 0.0,120.7318 3.9588,108.055 38.959,118.9849 42.9107,106.3309 7.9104,95.4009 11.8691,82.724 46.8694,93.654 50.8211,81.0 15.8208,70.07 19.7795,57.3931 54.7798,68.3231 58.7315,55.669 68.7412,46.5172 61.4788,10.8085 72.1153,8.6452 79.3777,44.3539 89.9951,42.1946 82.7327,6.4859 93.3692,4.3226 100.6317,40.0313 111.2491,37.8719 103.9866,2.1633 114.6232,0.0 121.8856,35.7087 132.503,33.5493 142.3288,38.8491 174.7355,15.019 182.911,26.1369 150.5043,49.967 158.67,61.0716 191.0767,37.2415 199.2522,48.3594 166.8455,72.1895 175.0112,83.2941 177.1411,94.253" stroke="rgb(100%,0%,0%)" /></svg>