<?xml version="1.0" encoding="utf-8" ?>
<svg baseProfile="full" height="55mm" version="1.1" width="82mm" xmlns="http://www.w3.org/2000/svg" xmlns:ev="http://www.w3.org/2001/xml-events" xmlns:xlink="http://www.w3.org/1999/xlink"><defs /><polyline points="258.35194359492885,174.2477425569701 -10.26645394075779,174.2477425569701 151.31871890401402,20.231106629751213 258.35194359492885,174.2477425569701" style="fill:none;stroke:#000000" /><polyline points="168.20277445962518,55.10960495810156 175.76906430004337,47.89771486146407 184.36516841563568,39.70424627214949 190.10273797713918,47.96038510256013 170.34793820457259,61.68890157342652 176.21194598716022,70.12698007025715 195.96674576137679,56.39846360104074 202.23516787339977,65.41847854706657 182.48036810083318,79.14699501628297 188.3443758834208,87.5850735131136 208.09917565763737,73.85655704554718 214.36759776966036,82.87657198992302 194.61279799709376,96.60508846078942 200.4768057796814,105.04316695762003 220.23160555389796,91.31465048840363 226.50002766592095,100.33466543277947 206.74522789335438,114.06318190364587 212.609235675942,122.5012604004765 232.36403545015858,108.77274393291007 238.63245756218157,117.79275887728592 218.87765778796498,131.5212753465023 224.7416655705526,139.95935384498293 244.49646534641917,126.23083737576653 250.76488745844216,135.25085232014237 231.0100876842256,148.97936879100877 236.8740954668132,157.4174472878394 256.6288952426798,143.688930818623 262.79621377358137,152.56346165235001 292.8743441093514,195.8447181306333 256.4251590282882,195.8447181306333 256.4251590282882,159.37216560428402 246.1495687269682,159.37216560428402 246.1495687269682,195.8447181306333 235.16531702828817,195.8447181306333 235.16531702828817,159.37216560428402 224.88972672696818,159.37216560428402 224.88972672696818,195.8447181306333 213.90547502828818,195.8447181306333 213.90547502828818,159.37216560428402 203.62988472696819,159.37216560428402 203.62988472696819,195.8447181306333 192.64563302828816,195.8447181306333 192.64563302828816,159.37216560428402 182.3700427269682,159.37216560428402 182.3700427269682,195.8447181306333 171.38579102828817,195.8447181306333 171.38579102828817,159.37216560428402 161.1102007269682,159.37216560428402 161.1102007269682,195.8447181306333 150.12594902828818,195.8447181306333 150.12594902828818,159.37216560428402 139.85035872696818,159.37216560428402 139.85035872696818,195.8447181306333 128.86610702993815,195.8447181306333 128.86610702993815,159.37216560428402 118.59051672861817,159.37216560428402 118.59051672861817,195.8447181306333 107.60626502993816,195.8447181306333 107.60626502993816,159.37216560428402 97.33067472861816,159.37216560428402 97.33067472861816,195.8447181306333 86.34642302993815,195.8447181306333 86.34642302993815,159.37216560428402 76.07083272861817,159.37216560428402 76.07083272861817,195.8447181306333 65.08658102993816,195.8447181306333 65.08658102993816,159.37216560428402 54.81099072861817,159.37216560428402 54.81099072861817,195.8447181306333 43.82673902993815,195.8447181306333 43.82673902993815,171.12999967871443 45.09026181687863,172.4556132829587 52.52830945764652,165.3659586123591 0.0,110.25635365425754 7.951016441019157,102.67775728445622 60.4793258970157,157.78736224255778 67.91737353778359,150.6977075719582 15.38906408013707,95.58810261385663 23.340080521156228,88.00950624405533 75.86838997880275,143.1191112021569 83.30643761957064,136.02945653155732 30.77812816027414,80.91985157345574 38.72914460129329,73.34125520200446 91.25745405893981,128.450860161756 98.6955016997077,121.36120548950645 46.16719224041121,66.25160053305486 54.11820868308035,58.673004161603565 106.64651813907689,113.78260912135511 114.08456577984478,106.69295444910554 61.55625632219826,51.583349492653966 69.50727276321741,44.004753121202675 122.03558221921395,99.11435808095422 129.47362985998186,92.02470340870465 76.94532040233533,36.91509845060309 84.89633684335449,29.336502080801782 137.42464629770103,84.44610703890335 144.86269393846894,77.35645236830376 92.3343844824724,22.2468474102022 100.28540092349155,14.668251040400891 152.8137103794881,69.77785599850246 160.25175802025598,62.688201327902874 107.72344856260946,7.578596369801307 115.67446500362863,0.0 168.20277445962518,55.10960495810156" style="fill:none;stroke:#ff0000" /><polyline points="268.81486118147876,183.26597828129331 51.98001450529952,183.26597828129331 182.41522110475935,58.94026588304022 268.81486118147876,183.26597828129331" style="fill:none;stroke:#ff0000" /></svg>