<?xml version="1.0" encoding="utf-8" ?>
<svg baseProfile="full" height="43mm" version="1.1" width="53mm" xmlns="http://www.w3.org/2000/svg" xmlns:ev="http://www.w3.org/2001/xml-events" xmlns:xlink="http://www.w3.org/1999/xlink"><defs /><polyline points="172.3922539622064,133.60866525677378 -30.34477040481423,133.60866525677378 149.79620333989686,1.774978594166057 172.3922539622064,133.60866525677378" style="fill:none;stroke:#000000" /><polyline points="145.5938990067015,22.73163804950879 146.26460599079192,22.2407903963214 147.7292749395578,30.786208827878045 169.5793783624287,27.04114141941348 171.43499953392444,37.86751918207586 149.58489610940356,41.612586588890444 151.32079978676245,51.740488370431024 173.17090320798337,47.99542096196645 175.0265243794791,58.821798724628835 153.17642095660818,62.56686613144342 154.9123246339671,72.69476791298399 176.762428055188,68.94970050451943 178.61804922668372,79.77607826718182 156.76794580381284,83.5211456739964 158.50384948117173,93.64904745553697 180.35395290239265,89.90398004707241 182.20957407388838,100.73035780973478 160.3594706510175,104.47542521654937 162.0953743267264,114.60332699808994 183.9454777495973,110.85825958962538 185.77116954632132,121.5100183574198 191.19423288931551,153.15016845702104 147.08093969503025,153.15016845702104 147.08093969503025,121.14326846206099 136.80534939371026,121.14326846206099 136.80534939371026,153.15016845702104 125.82109769503026,153.15016845702104 125.82109769503026,121.14326846206099 115.54550739371027,121.14326846206099 115.54550739371027,153.15016845702104 104.56125569503025,153.15016845702104 104.56125569503025,121.14326846206099 94.28566539371027,121.14326846206099 94.28566539371027,153.15016845702104 83.30141369503025,153.15016845702104 83.30141369503025,121.14326846206099 73.02582339371027,121.14326846206099 73.02582339371027,153.15016845702104 62.04157169503026,153.15016845702104 62.04157169503026,121.14326846206099 51.76598139371027,121.14326846206099 51.76598139371027,153.15016845702104 40.78172969503026,153.15016845702104 40.78172969503026,121.14326846206099 30.50613939371027,121.14326846206099 30.50613939371027,153.15016845702104 19.521887695030255,153.15016845702104 19.521887695030255,121.14326846206099 11.121691037059383,121.14326846206099 16.63583573134757,117.10781773237767 0.0,94.37617968451886 8.864079735914476,87.88912520515005 25.499915467262046,110.62076325300886 33.7921190934175,104.55222841688482 17.156283362069928,81.82059036902601 26.020363097984404,75.33353588965718 42.65619883098196,98.06517393916597 50.948402457137405,91.99663910304193 34.312566724139856,69.26500105518312 43.17664646005433,62.77794657416433 59.812482193051885,85.50958462367312 68.10468581920733,79.44104978754908 51.468850087859764,56.70941173969027 60.33292982377424,50.22235726032145 76.96876555677179,72.95399530818027 85.26096918292724,66.88546047205622 68.62513344992969,44.15382242419741 77.48921318584416,37.66676794482859 94.12504891884171,60.39840599433738 102.41725254499717,54.32987115821334 85.78141681199962,31.59823311035453 94.64549654956407,25.111178629335736 111.28133228091164,47.84281667884453 119.5735359070671,41.774281842720484 102.93770017571953,19.04264379486167 111.801779911634,12.555589315492858 128.43761564463156,35.28722736335167 136.729819270787,29.21869252722762 120.09398353778946,6.487054479368814 128.95806327370394,0.0 145.5938990067015,22.73163804950879" style="fill:none;stroke:#ff0000" /><polyline points="176.27609276151315,140.57142860768104 5.87359019350656,140.57142860768104 157.28388555967075,29.76389258730274 176.27609276151315,140.57142860768104" style="fill:none;stroke:#ff0000" /></svg>