<?xml version="1.0" encoding="utf-8" ?>
<svg baseProfile="full" height="37mm" version="1.1" width="50mm" xmlns="http://www.w3.org/2000/svg" xmlns:ev="http://www.w3.org/2001/xml-events" xmlns:xlink="http://www.w3.org/1999/xlink"><defs /><polyline points="139.1415358876128,117.91613777145477 -18.525164934258996,117.91613777145477 169.24467944996397,-2.8041331463686103 139.1415358876128,117.91613777145477" style="fill:none;stroke:#000000" /><polyline points="159.25345135958307,10.812068060769075 158.9348315043954,12.08980423196788 160.29260620467576,12.428382718103856 161.87126604732262,14.883850312209441 164.18198796488088,13.398249806408355 179.55744739151262,17.23231726541116 176.89976734037563,27.890202709279936 156.2771514532584,22.747689675836654 153.79093463362213,32.7179696087413 174.4135505207394,37.86048264383456 171.7558704696024,48.51836808770334 151.13325458413513,43.37585505261007 148.6470377628489,53.346134987164696 169.26965364996616,58.488648020607975 166.61197359882914,69.14653346282677 145.98935771336187,64.00402042938349 143.50314089207563,73.97430036393811 164.1257567791929,79.11681339738139 161.4680767280559,89.77469884125017 140.84546084258864,84.63218580615691 138.3592440213024,94.60246574071154 158.98185990841966,99.74497877415482 156.36704566639534,110.23096284069504 150.36832592425475,134.28715720318786 134.5404671283379,134.28715720318786 134.5404671283379,109.41999480999084 124.26487682701791,109.41999480999084 124.26487682701791,134.28715720318786 113.2806251283379,134.28715720318786 113.2806251283379,109.41999480999084 103.00503482701791,109.41999480999084 103.00503482701791,134.28715720318786 92.0207831283379,134.28715720318786 92.0207831283379,109.41999480999084 81.74519282701792,109.41999480999084 81.74519282701792,134.28715720318786 70.7609411283379,134.28715720318786 70.7609411283379,109.41999480999084 60.48535082701792,109.41999480999084 60.48535082701792,134.28715720318786 49.5010991283379,134.28715720318786 49.5010991283379,109.41999480999084 39.22550882701792,109.41999480999084 39.22550882701792,134.28715720318786 28.2412571283379,134.28715720318786 28.2412571283379,109.41999480999084 17.965666827017916,109.41999480999084 17.965666827017916,134.28715720318786 6.9814151283379005,134.28715720318786 6.9814151283379005,114.46504145875664 9.569068175144617,112.80139744913153 0.0,97.9175471369221 9.239467970971289,91.97734369016587 18.808536146115905,106.8611940023753 27.45190941279546,101.30422948724205 17.88284123765084,86.42037917503262 27.12230920862213,80.4801757282764 36.69137738376675,95.3640260421358 45.334750650446296,89.80706152700256 35.76568247530168,74.92321121314315 45.00515044627297,68.9830077663869 54.574218621417586,83.86685808024633 63.21759188809714,78.30989356511309 53.648523712952525,63.426043252903646 62.88799168392381,57.4858398077974 72.45705985906842,72.36969011835686 81.10043312574798,66.81272560322361 71.53136495060336,51.92887529266415 80.77083292157465,45.98867184590792 90.33990109671927,60.87252215811736 98.98327436339882,55.31555764298412 89.4142061882542,40.43170733077468 98.65367415922549,34.49150388401844 108.22274233437011,49.37535419787787 116.86611560104966,43.81838968274462 107.29704742590505,28.9345393688852 116.53651539687633,22.994335922128972 126.10558357202095,37.878186235988395 134.7489568387005,32.32122172085515 125.17988866355589,17.437371408645706 134.41935663452716,11.497167961889476 143.98842480967178,26.381018274098917 152.63179807635134,20.824053758965672 143.06272990120672,5.9402034467562315 152.302197872178,0.0 159.25345135958307,10.812068060769075" style="fill:none;stroke:#ff0000" /><polyline points="140.54106899049006,121.70841735384785 18.97479306913764,121.70841735384785 163.75159497658825,28.629069038121667 140.54106899049006,121.70841735384785" style="fill:none;stroke:#ff0000" /></svg>