<?xml version="1.0" encoding="utf-8" ?>
<svg baseProfile="full" height="65mm" version="1.1" width="93mm" xmlns="http://www.w3.org/2000/svg" xmlns:ev="http://www.w3.org/2001/xml-events" xmlns:xlink="http://www.w3.org/1999/xlink"><defs /><polyline points="357.4806408397675,207.34261075568122 24.447036536262196,207.3426107556812 80.41587838838792,-8.755590131115884 357.4806408397675,207.34261075568122" style="fill:none;stroke:#000000" /><polyline points="129.57817360507804,6.755424747072342 111.99155090879435,29.303661704129393 120.09405218854472,35.623252594795474 137.68067488482842,13.075015637738424 146.34196935469262,19.830440384810768 128.7553466584089,42.378677341867814 136.8578479381593,48.6982682325339 154.44447063444298,26.15003127547685 163.10576510430718,32.90545602089921 145.5191424080235,55.45369297795626 153.62164368777385,61.77328387027232 171.20826638405757,39.22504691321527 179.86956085392177,45.98047165863763 162.28293815928805,68.52870861569468 170.3854394390384,74.84829950636077 187.97206213532212,52.30006254930372 196.63335660518632,59.05548729637606 179.0467339089026,81.60372425343311 187.149235188653,87.92331514409919 204.73585788493668,65.37507818704215 213.39715235480088,72.13050293411449 195.8105296585172,94.67873989117153 203.91303093826755,100.99833078183762 221.49965363455124,78.45009382478057 230.16094810441547,85.20551857020293 212.57432540813176,107.75375552725998 220.67682668788214,114.07334641957604 238.26344938416582,91.525109462519 246.92474385403003,98.28053420794136 229.3381211593963,120.8287711649984 237.4406224391467,127.14836205731447 255.02724513378038,104.60012510025742 263.6885396052946,111.35554984567977 246.1019169090109,133.90378680273682 254.20441818876125,140.2233776934029 271.79104088504494,117.67514073634587 280.45233535490917,124.4305654834182 262.86571265862545,146.97880244047525 270.9682139383758,153.29839333114134 288.5548366346595,130.7501563740843 297.2161311045237,137.50558111950664 279.62950840824004,160.0538180765637 287.7320096879904,166.37340896887977 305.3186323842741,143.8251720118227 313.9799268541383,150.58059675724508 296.39330415785463,173.12883371430212 304.495805439255,179.44842460661818 322.08242813388864,156.90018764956113 330.74372260540287,163.6556123949835 313.15709990911915,186.20384935204055 318.7000560369209,190.5271087809978 318.7000560369209,231.0457797443354 307.7158043382409,231.0457797443354 307.7158043382409,190.0755242498297 297.4402140369209,190.0755242498297 297.4402140369209,231.0457797443354 286.4559623382409,231.0457797443354 286.4559623382409,190.0755242498297 276.1803720369209,190.0755242498297 276.1803720369209,231.0457797443354 265.1961203382409,231.0457797443354 265.1961203382409,190.0755242498297 254.92053003692092,190.0755242498297 254.92053003692092,231.0457797443354 243.9362783382409,231.0457797443354 243.9362783382409,190.0755242498297 233.66068803692093,190.0755242498297 233.66068803692093,231.0457797443354 222.6764363382409,231.0457797443354 222.6764363382409,190.0755242498297 212.4008460369209,190.0755242498297 212.4008460369209,231.0457797443354 201.4165943382409,231.0457797443354 201.4165943382409,190.0755242498297 191.14100403692092,190.0755242498297 191.14100403692092,231.0457797443354 180.15675233824092,231.0457797443354 180.15675233824092,190.0755242498297 169.88116203692093,190.0755242498297 169.88116203692093,231.0457797443354 158.8969103382409,231.0457797443354 158.8969103382409,190.0755242498297 148.62132003692093,190.0755242498297 148.62132003692093,231.0457797443354 137.6370683382409,231.0457797443354 137.6370683382409,190.0755242498297 127.36147803692093,190.0755242498297 127.36147803692093,231.0457797443354 116.3772263382409,231.0457797443354 116.3772263382409,190.0755242498297 106.10163603692092,190.0755242498297 106.10163603692092,231.0457797443354 95.11738433824091,231.0457797443354 95.11738433824091,190.0755242498297 84.84179403692092,190.0755242498297 84.84179403692092,231.0457797443354 73.8575423382409,231.0457797443354 73.8575423382409,190.0755242498297 63.581952036920924,190.0755242498297 63.581952036920924,231.0457797443354 52.597700338240905,231.0457797443354 52.597700338240905,190.0755242498297 42.322110036920925,190.0755242498297 42.322110036920925,195.68416738440385 0.0,184.72285686009465 2.7540209541436362,174.08945881739675 53.839261793617396,187.32039620305235 56.415603977164665,177.37302383935756 5.3303631376909015,164.142086448752 8.08438409348452,153.5086884060541 59.16962493295828,166.7396257933597 61.74596711650555,156.7922534280149 10.660726277031785,143.5613160390593 13.41474723117542,132.9279179963614 64.4999880689992,146.158855382017 67.07633025419645,136.2114830183222 15.991089414722687,122.98054562936663 18.745110370516304,112.34714758666873 69.83035120834008,125.57808497232435 72.40669339188734,115.63071260862954 21.32145255406357,102.39977521802398 24.075473508207207,91.76637717532606 75.16071434603099,104.99731456263167 77.73705653122823,95.04994219728688 26.65181569175447,81.8190048083313 29.405836645898106,71.18560676563338 80.49107748537186,84.416544151289 83.06741966891913,74.4691717875942 31.982178831095354,61.23823439863862 34.73619978523899,50.604836355940705 85.82144062306277,63.83577374159633 88.39778280661004,53.88840137790152 37.312541968786256,40.657463988945935 40.06656292292989,30.024065944598046 91.15180376240365,43.25500333190365 93.72814594595091,33.30763096820884 42.64290510812714,20.07669357760328 45.39692606227077,9.443295534905367 96.48216690009455,22.67423292056099 97.66018912223488,18.12583645075945 103.33025643893015,22.54823695705705 120.91687913521383,0.0 129.57817360507804,6.755424747072342" style="fill:none;stroke:#ff0000" /><polyline points="380.5658850951411,218.46703989499537 4.254129977936428,218.46703989499537 67.49619575386087,-25.71340376670833 380.5658850951411,218.46703989499537" style="fill:none;stroke:#ff0000" /></svg>