<?xml version="1.0" encoding="utf-8" ?>
<svg baseProfile="full" height="50mm" version="1.1" width="48mm" xmlns="http://www.w3.org/2000/svg" xmlns:ev="http://www.w3.org/2001/xml-events" xmlns:xlink="http://www.w3.org/1999/xlink"><defs /><polyline points="155.47379688767077,160.70774134494752 -9.712923610532872,160.70774134494746 140.62152636424784,-4.30874812516415 155.47379688767077,160.70774134494752" style="fill:none;stroke:#000000" /><polyline points="134.19476975176397,11.166294305758303 134.72619736187627,17.070732850697993 158.2629290200447,14.95231482422796 159.24758379485908,25.892344091250283 135.71085213669068,28.01076211607034 136.63198079726703,38.2449830452541 160.16871245543547,36.12656502043405 161.15336722859988,47.066594285806396 137.61663557043147,49.18501231227643 138.53776423100783,59.41923324146019 162.07449588917626,57.30081521664014 163.05915066399066,68.24084448201248 139.52241900417224,70.35926250848252 140.4435476663986,80.59348343766628 163.98027932456702,78.47506541284623 164.96493409773146,89.41509467821857 141.42820243956302,91.5335127046886 142.34933110013938,101.76773363387237 165.88606275830782,99.64931560905232 166.87071753147222,110.58934487442465 143.33398587330382,112.70776290089469 144.25511453553017,122.94198383007846 167.79184619369858,120.82356580525841 168.760619438716,131.58714298658361 172.9282529382315,177.89172977829267 148.04572667859475,177.89172977829267 148.04572667859475,151.15279238580518 137.77013637727475,151.15279238580518 137.77013637727475,177.89172977829267 126.78588467859474,177.89172977829267 126.78588467859474,151.15279238580518 116.51029437727475,151.15279238580518 116.51029437727475,177.89172977829267 105.52604267859473,177.89172977829267 105.52604267859473,151.15279238580518 95.25045237727475,151.15279238580518 95.25045237727475,177.89172977829267 84.26620067859474,177.89172977829267 84.26620067859474,151.15279238580518 73.99061037727475,151.15279238580518 73.99061037727475,177.89172977829267 63.00635867859474,177.89172977829267 63.00635867859474,151.15279238580518 52.73076837727476,151.15279238580518 52.73076837727476,177.89172977829267 41.74651667859474,177.89172977829267 41.74651667859474,151.15279238580518 31.470926377274754,151.15279238580518 31.470926377274754,177.89172977829267 20.48667467859474,177.89172977829267 20.48667467859474,151.15279238580518 16.11191739055399,151.15279238580518 17.42007903958134,149.71687238907617 0.0,133.8467129322042 7.397409706814157,125.72685363559944 24.817488746395494,141.5970130941214 31.737646218584494,134.00101568421377 14.317567177353174,118.13085622734178 21.71497688581731,110.010996932387 39.13505592539865,125.88115638925898 46.05521339593767,118.28515898100132 28.63513435635633,102.41499952247935 36.032544063170484,94.29514022752457 53.4526231044018,110.16529968439654 60.37278057494082,102.56930227613888 42.95270153535949,86.69914281761693 50.35011124217364,78.57928352266215 67.77019028175498,94.44944297953413 74.69034775394398,86.85344557127647 57.27026871271266,70.98328611440448 64.6676784211768,62.86342681779972 82.08775746075814,78.73358627632167 89.00791493129715,71.13758886641403 71.58783589171581,55.26742940954206 78.98524559852997,47.147570114587275 96.40532463976129,63.017729571459256 103.32548211030031,55.42173216320159 85.90540307071898,39.551572704679636 93.30281277753312,31.43171340972485 110.72289181711446,47.30187286659683 117.64304928930346,39.705875458339165 100.22297024807214,23.835715999817207 107.62037995653628,15.715856704862425 125.04045899611762,31.586016161734403 131.96061646665663,23.990018753476743 114.5405374270753,8.119859296604764 121.93794713388945,0.0 134.19476975176397,11.166294305758303" style="fill:none;stroke:#ff0000" /><polyline points="159.16652002869623,165.31298992895265 20.227661342020415,165.31298992895265 146.67424759171362,26.517312878830328 159.16652002869623,165.31298992895265" style="fill:none;stroke:#ff0000" /></svg>