<?xml version="1.0" encoding="utf-8" ?>
<svg baseProfile="full" height="39mm" version="1.1" width="55mm" xmlns="http://www.w3.org/2000/svg" xmlns:ev="http://www.w3.org/2001/xml-events" xmlns:xlink="http://www.w3.org/1999/xlink"><defs /><polyline points="223.45581820861352,127.73990188054277 0.2274852258595587,127.73990188054277 68.79624183291519,23.923151469895902 223.45581820861352,127.73990188054277" style="fill:none;stroke:#000000" /><polyline points="90.31248600079095,15.786220628692346 73.45040889803342,40.90626812975732 81.9820875706988,46.63324072358693 98.84416467345633,21.51319322417194 107.96423497433834,27.63512944129329 91.1021578715808,52.75517694235827 99.6338365425962,58.482149536187876 116.4959136470037,33.36210203677288 125.61598394788571,39.484038253894234 108.75390684512818,64.60408575495921 117.28558551614358,70.33105834878882 134.1476626189011,45.21101084937383 143.2677329214331,51.33294706649518 126.40565581867557,76.45299456756015 134.93733448969095,82.17996716138977 151.7994115924485,57.05991966197477 160.9194818949805,63.18185587909612 144.05740479222294,88.3019033801611 152.58908346323835,94.02887597399071 169.45116056599588,68.90882847457571 178.57123086852786,75.03076469169706 161.70915376412034,100.15081219111205 170.24083243678572,105.87778478659165 187.10290953954325,80.75773728717665 196.22297983877527,86.87967350429801 179.36090273766774,111.999721003713 183.9561261125262,115.08430955243094 175.79834306754685,115.08430955243094 175.79834306754685,138.64956397335476 164.81409136886683,138.64956397335476 164.81409136886683,115.08430955243094 154.53850106754683,115.08430955243094 154.53850106754683,138.64956397335476 143.55424936886683,138.64956397335476 143.55424936886683,115.08430955243094 133.27865906754684,115.08430955243094 133.27865906754684,138.64956397335476 122.29440736886683,138.64956397335476 122.29440736886683,115.08430955243094 112.01881706754685,115.08430955243094 112.01881706754685,138.64956397335476 101.03456536886684,138.64956397335476 101.03456536886684,115.08430955243094 90.75897506754684,115.08430955243094 90.75897506754684,138.64956397335476 79.77472336886683,138.64956397335476 79.77472336886683,115.08430955243094 69.49913306754685,115.08430955243094 69.49913306754685,138.64956397335476 58.51488136886683,138.64956397335476 58.51488136886683,115.08430955243094 48.239291067546844,115.08430955243094 48.239291067546844,138.64956397335476 37.25503936886683,138.64956397335476 37.25503936886683,115.08430955243094 26.979449067546845,115.08430955243094 26.979449067546845,138.64956397335476 15.995197368866831,138.64956397335476 15.995197368866831,115.47930451215991 17.735045012068287,112.84508249191032 0.0,101.1314622906867 6.053645632889354,91.96592030315904 23.788690644957644,103.67954050438267 29.451778496250896,95.10532380286006 11.716733484182607,83.39170360163644 17.77037911707196,74.22616161575876 35.50542412914025,85.9397818153324 41.1685119804335,77.36556511545977 23.433466968365213,65.65194491423615 29.487112601254566,56.48640292670849 47.22215761332286,68.20002312793211 52.885245464616105,59.625806426409504 35.15020045254782,47.912186225185884 41.20384608708715,38.74664423765823 58.93889109750546,50.46026443888185 64.60197894879872,41.88604773735924 46.866933938380406,30.1724275377856 52.82294012504575,21.1547168725842 66.79518088938052,0.0 90.31248600079095,15.786220628692346" style="fill:none;stroke:#ff0000" /><polyline points="196.93210635585083,102.50556970309094 14.167158405014849,102.50556970309094 70.30682967782276,17.507116630888046 196.93210635585083,102.50556970309094" style="fill:none;stroke:#ff0000" /></svg>