<?xml version="1.0" encoding="utf-8" ?>
<svg baseProfile="full" height="62mm" version="1.1" width="63mm" xmlns="http://www.w3.org/2000/svg" xmlns:ev="http://www.w3.org/2001/xml-events" xmlns:xlink="http://www.w3.org/1999/xlink"><defs /><polyline points="223.7694174408935,201.41643836049508 21.031971695383135,201.41643836049496 105.54456389396435,-5.195403483711256 223.7694174408935,201.41643836049508" style="fill:none;stroke:#000000" /><polyline points="113.52040461777344,15.102768726843832 108.91746372785701,17.73660620584508 114.02082057619305,26.65532275750482 135.55178446754232,14.335142895987339 141.00709695945326,23.86894334485985 119.47613306810399,36.18912320637733 124.57948991644002,45.10783975638709 146.1104538077893,32.787659896519585 151.56576629970024,42.3214603453921 130.03480240835097,54.64164020525959 135.138159256687,63.56035675691933 156.66912314803628,51.24017689540185 162.12443564159722,60.773977344274364 140.59347174859795,73.09415720579184 145.69682859693398,82.01287375580159 167.22779248993325,69.6926938959341 172.6831049818442,79.22649434480661 151.15214108884493,91.5466742046741 156.25549793718096,100.46539075633385 177.78646183018023,88.14521089481636 183.24177432209117,97.67901134368887 161.7108104290919,109.99919120520636 166.81416727742794,118.9179077552161 188.3451311704272,106.59772789534861 193.80044366233815,116.13152834422112 172.2694797693389,128.45170820408862 177.37283661932491,137.37042475574836 198.9038005106742,125.05024489423087 204.35911300258513,134.58404534310338 182.82814911123586,146.90422520462087 187.9315059595719,155.82294175463062 209.46246985092117,143.50276189311313 214.9177823428321,153.03656234363564 193.38681845148284,165.35674220350313 198.49017529981887,174.27545875351288 220.02113919116815,161.95527889364539 225.4764516830791,171.4890793425179 203.94548779172982,183.80925920403538 206.88758998109537,188.95092894544106 205.79229351787782,188.95092894544106 205.79229351787782,220.9580356962076 194.8080418191978,220.9580356962076 194.8080418191978,188.95092894544106 184.5324515178778,188.95092894544106 184.5324515178778,220.9580356962076 173.5481998191978,220.9580356962076 173.5481998191978,188.95092894544106 163.2726095178778,188.95092894544106 163.2726095178778,220.9580356962076 152.2883578191978,220.9580356962076 152.2883578191978,188.95092894544106 142.01276751787782,188.95092894544106 142.01276751787782,220.9580356962076 131.0285158191978,220.9580356962076 131.0285158191978,188.95092894544106 120.75292551787781,188.95092894544106 120.75292551787781,220.9580356962076 109.7686738191978,220.9580356962076 109.7686738191978,188.95092894544106 99.49308351787782,188.95092894544106 99.49308351787782,220.9580356962076 88.50883181919781,220.9580356962076 88.50883181919781,188.95092894544106 78.23324151787781,188.95092894544106 78.23324151787781,220.9580356962076 67.2489898191978,220.9580356962076 67.2489898191978,188.95092894544106 56.973399517877816,188.95092894544106 56.973399517877816,220.9580356962076 38.378063574643356,220.9580356962076 44.68451392008135,205.54036494023657 0.0,187.2625931102616 4.158558662320636,177.09597246940106 48.84307258075201,195.37374429937603 52.73333713518745,185.863034664942 8.048823215106097,167.58526283496704 12.20738187412677,157.4186421957565 56.891895795858105,175.69641402573146 60.782160348643565,166.18570439129743 16.09764642856221,147.90793256132247 20.256205089232868,137.74131192046195 64.9407190109642,156.01908375043692 68.83098356374967,146.50837411765286 24.146469642018328,128.23060228602793 28.305028304338965,118.06398164681737 72.98954222442032,136.34175347679235 76.87980677885575,126.83104384235833 32.19529285712442,108.55327201238336 36.35385151779508,98.38665137152282 81.03836543952642,116.66442320149778 84.92862999231187,107.15371356871375 40.24411607058054,88.87594173873879 44.402674732901176,78.70932109787825 89.08718865463251,96.98709292785321 92.97745320741797,87.4763832934192 48.292939285686636,69.19861146344424 52.45149794635729,59.031990822583694 97.13601186808863,77.30976265420864 101.02627642252406,67.79905301977462 56.34176250079273,49.52128118979966 60.50032116146339,39.35466054893912 105.18483508319473,57.63243237891409 109.07509963598018,48.121722744480074 64.39058571424884,29.843950914505108 68.54914437656949,19.67733027529455 113.23365829830082,37.95510210526952 117.12392285108628,28.444392470835503 72.43940892935494,10.166620640860534 76.5979675900256,0.0 113.52040461777344,15.102768726843832" style="fill:none;stroke:#ff0000" /><polyline points="232.0928702567106,208.3792958468676 57.113637453209144,208.3792958468676 130.0550148624609,30.056137827816926 232.0928702567106,208.3792958468676" style="fill:none;stroke:#ff0000" /></svg>