<?xml version="1.0" encoding="utf-8" ?>
<svg baseProfile="full" height="52mm" version="1.1" width="104mm" xmlns="http://www.w3.org/2000/svg" xmlns:ev="http://www.w3.org/2001/xml-events" xmlns:xlink="http://www.w3.org/1999/xlink"><defs /><polyline points="330.2590199288053,166.8075135292389 85.2243740367772,166.80751352923878 139.43820165905726,-49.737597331380016 330.2590199288053,166.8075135292389" style="fill:none;stroke:#000000" /><polyline points="206.16224968581912,43.190598244791076 208.70083286333465,33.0507907455774 209.32120005878517,30.572871572633197 222.4718031711329,18.984483190809655 229.73390506904198,27.225579076065404 210.2248859314385,44.417040849291396 217.0184651272147,52.12645313319834 236.5274842648182,34.93499135997235 243.7895861627273,43.176087245228096 224.2805670251238,60.36754901845409 231.07414622090002,68.07696130236104 250.5831653585035,50.885499529135046 257.84526725641257,59.12659541439079 238.3362481188091,76.31805718761679 245.1298273145853,84.02746947152373 264.6388464521888,66.83600769829773 271.90094835009785,75.0771035835535 252.39192921249438,92.26856535677949 259.1855084082706,99.97797764068643 278.6945275458741,82.78651586746044 285.9566294437832,91.02761175271618 266.4476103061797,108.21907352594218 273.2411895019559,115.92848580984912 292.7502086395594,98.73702403662313 300.01231053746847,106.97811992187889 280.50329139986496,124.16958169510488 287.29687059564117,131.87899397901182 306.80588973324467,114.68753220578583 314.06799163115375,122.92862809104157 294.55897249355024,140.12008986426756 301.3525516893265,147.82950214817453 320.86157082693,130.63804037494853 328.123672724839,138.87913626020426 308.6146535872356,156.07059803343026 315.4082327830118,163.7800103173372 334.9172519206153,146.5885485441112 342.0622231429911,154.69672352902975 371.17922565948624,187.73894918746115 307.7535542908274,187.73894918746115 307.7535542908274,152.7025962454542 297.4779639895075,152.7025962454542 297.4779639895075,187.73894918746115 286.49371229082743,187.73894918746115 286.49371229082743,152.7025962454542 276.21812198950744,152.7025962454542 276.21812198950744,187.73894918746115 265.23387029082744,187.73894918746115 265.23387029082744,152.7025962454542 254.95827998950747,152.7025962454542 254.95827998950747,187.73894918746115 243.97402829082745,187.73894918746115 243.97402829082745,152.7025962454542 233.69843798950745,152.7025962454542 233.69843798950745,187.73894918746115 222.71418629082746,187.73894918746115 222.71418629082746,152.7025962454542 212.43859598950746,152.7025962454542 212.43859598950746,187.73894918746115 201.45434429082744,187.73894918746115 201.45434429082744,152.7025962454542 191.17875398950747,152.7025962454542 191.17875398950747,187.73894918746115 169.97339577942424,187.73894918746115 172.5152658558389,177.58601289748333 0.0,134.39541465104227 2.6676636796612203,123.74002372089568 175.18292953715007,166.93062196568675 177.67848588061705,156.96267561066736 5.163220024778173,113.77207736422632 7.830883704439393,103.11668643407972 180.34614956192826,146.30728467887081 182.84170590539523,136.33933832385142 10.326440049556346,93.14874007741037 12.994103729217565,82.49334914726379 185.5093695867064,125.68394739205486 188.00492593017339,115.71600103703548 15.489660074334518,72.52540279059443 18.15732375399574,61.87001186044784 190.6725896114846,105.06061010523891 193.16814595495157,95.09266375021954 20.652880099112693,51.90206550377848 23.32054377877391,41.24667457363189 195.83580963626278,84.43727281842297 198.33136597972975,74.46932646340359 25.816100123890863,31.278728216962534 28.483763803552083,20.623337286815946 200.99902966104094,63.81393553160702 203.4945860045079,53.84598917658764 30.979320148669036,10.655390930146588 33.64698382833026,0.0 206.16224968581912,43.190598244791076" style="fill:none;stroke:#ff0000" /><polyline points="343.3290297318166,175.16020933812115 186.0895470407647,175.16020933812115 220.8787262573857,36.202548526758704 343.3290297318166,175.16020933812115" style="fill:none;stroke:#ff0000" /></svg>