<?xml version="1.0" encoding="utf-8" ?>
<svg baseProfile="full" height="50mm" version="1.1" width="48mm" xmlns="http://www.w3.org/2000/svg" xmlns:ev="http://www.w3.org/2001/xml-events" xmlns:xlink="http://www.w3.org/1999/xlink"><defs /><polyline points="155.47350824899286,160.70780878903435 -9.712924688324822,160.70780878903435 140.62149908788723,-4.30876698882476 155.47350824899286,160.70780878903435" style="fill:none;stroke:#000000" /><polyline points="134.19469113842405,11.166257229037521 134.72611208756345,17.070728762045327 158.26289122063227,14.952344848930377 159.2475282944516,25.892375708184268 135.71074916138275,28.01075962129922 136.6318612660508,38.244982040415735 160.16864039911962,36.12659812895077 161.15327747293895,47.06662898820466 137.6164983398701,49.18501290131961 138.53761044453813,59.41923532043612 162.07438957760698,57.300851407321176 163.05902665142628,68.24088226657507 139.52224751835746,70.35926617969002 140.4433596230255,80.59348859880653 163.98013875609433,78.47510468734157 164.96477582991363,89.41513554659545 141.42799669684482,91.5335194597104 142.34910879986285,101.76774187882693 165.8858879312817,99.64935796736195 166.870525008401,110.58938882496587 143.33374587533214,112.7077727397308 144.2548579783502,122.94199515719733 167.79163710976906,120.82361124573237 168.76039294418803,131.5871899961894 172.92795387919358,177.89180962416833 148.04558146212585,177.89180962416833 148.04558146212585,151.15284394275832 137.76999116080586,151.15284394275832 137.76999116080586,177.89180962416833 126.78573946212585,177.89180962416833 126.78573946212585,151.15284394275832 116.51014916080585,151.15284394275832 116.51014916080585,177.89180962416833 105.52589746212584,177.89180962416833 105.52589746212584,151.15284394275832 95.25030716080586,151.15284394275832 95.25030716080586,177.89180962416833 84.26605546212583,177.89180962416833 84.26605546212583,151.15284394275832 73.99046516080585,151.15284394275832 73.99046516080585,177.89180962416833 63.00621346212584,177.89180962416833 63.00621346212584,151.15284394275832 52.730623160805855,151.15284394275832 52.730623160805855,177.89180962416833 41.74637146212584,177.89180962416833 41.74637146212584,151.15284394275832 31.470781160805856,151.15284394275832 31.470781160805856,177.89180962416833 20.48652946212584,177.89180962416833 20.48652946212584,151.15284394275832 16.111924569620882,151.15284394275832 17.420092566124747,149.71691597662158 0.0,133.84675526246417 7.397406888646782,125.72689339683915 24.81749945642151,141.59705411264656 31.73765429029105,134.0010543020167 14.317561722516322,118.13089358785928 21.714968611163105,110.01103172223425 39.13506117893783,125.88119243804165 46.05521601280737,118.2851926274118 28.635123445032644,102.41503191325438 36.032530333679425,94.29517004762936 53.452622901454156,110.16533076343676 60.372777735323695,102.56933095280691 42.95268516919895,86.69917023864949 50.35009205784573,78.57930837302446 67.77018462397048,94.44946908883188 74.69033945784001,86.85346927820201 57.27024689171527,70.98330856404459 64.66765378036206,62.86344669841957 82.08774634813678,78.73360741422698 89.00790118200632,71.13760760359713 71.58780861423159,55.267446889439704 78.98521550287838,47.14758502381468 96.4053080706531,63.017745739622086 103.32546290452264,55.42174592899223 85.90537033674792,39.55158521483481 93.30277722539469,31.431723349209786 110.72286979316942,47.30188406501719 117.64302462703897,39.70588425438734 100.22293205926424,23.835723540229917 107.620338949561,15.715861674604893 125.04043151568575,31.586022390412296 131.96058634955529,23.990022579782448 114.54049378343053,8.119861865625023 121.93790067207732,0.0 134.19469113842405,11.166257229037521" style="fill:none;stroke:#ff0000" /><polyline points="159.16624332194954,165.3130697748283 20.227646363493815,165.3130697748283 146.67419250215136,26.517339969866708 159.16624332194954,165.3130697748283" style="fill:none;stroke:#ff0000" /></svg>