<?xml version="1.0" encoding="utf-8" ?>
<svg baseProfile="full" height="93mm" version="1.1" width="72mm" xmlns="http://www.w3.org/2000/svg" xmlns:ev="http://www.w3.org/2001/xml-events" xmlns:xlink="http://www.w3.org/1999/xlink"><defs /><polyline points="245.46895737921577,306.01774141444275 22.240777786646717,306.01774141444275 78.72441035675533,-18.13178616363702 245.46895737921577,306.01774141444275" style="fill:none;stroke:#000000" /><polyline points="121.22247249020317,9.767682111284415 82.2982156049331,29.790563624344674 86.99860749840505,38.92807269709621 125.92286438202514,18.905191187335916 130.94742123304172,28.67287329862033 92.02316434777164,48.695754811680594 96.72355624124359,57.83326388443213 135.6478131248637,37.81038237302185 140.67236997753022,47.57806448595625 101.74811309226016,67.60094599736652 106.44850498573211,76.73845507176804 145.3727618693522,56.71557356035777 150.3973187203688,66.48325567164218 111.4730618350987,86.50613718470244 116.17345372857065,95.64364625745398 155.09771061219075,75.62076474769368 160.12226746320732,85.3884468589781 121.19801057793724,105.41132837203835 125.89840247140918,114.5488374447899 164.8226593550293,94.52595593337962 169.84721620604586,104.29363804631402 130.9229593207758,124.31651955772429 135.62335121424772,133.4540286321258 174.54760809786782,113.43114712071554 179.5721649488844,123.19882923199995 140.64790806361432,143.2217107450602 145.34829995708625,152.35921981781175 184.27255684070636,132.33633830805144 189.29711369172293,142.10402041933585 150.37285680645286,162.12690193239612 155.07324870157478,171.26441100514765 193.9975055851949,151.24152949373737 199.02206243621146,161.00921160667178 160.0978055509414,181.03209311808206 164.79819744441332,190.16960219248358 203.72245432803342,170.1467206810733 208.74701117905,179.91440279235772 169.82275429377992,199.93728430541796 174.52314618725185,209.07479337816952 213.44740307087196,189.0519118684092 218.47195992188853,198.81959397969362 179.54770303661846,218.8424754927539 184.24809493009042,227.97998456550542 223.1723518137105,207.95710305409514 228.19690866472706,217.72478516702955 189.272651779457,237.74766667843983 193.97304367292895,246.88517575284135 232.89730055654903,226.86229424143107 237.9218574075656,236.6299763527155 198.99760052229553,256.65285786577573 203.6979924157675,265.79036693852726 242.62224929938756,245.76748542876697 247.64680615205413,255.5351675400514 208.72254926678406,275.55804905311163 213.422941160256,284.6955581258632 252.3471980438761,264.6726766144529 257.37175489489266,274.4403587273873 233.52970152964016,286.70486029201624 229.70132193099167,286.70486029201624 229.70132193099167,288.6742027323643 218.71707023231164,294.32457059711084 218.71707023231164,286.70486029201624 208.44147993099168,286.70486029201624 208.44147993099168,331.56281153684523 197.45722823231165,331.56281153684523 197.45722823231165,286.70486029201624 187.18163793099166,286.70486029201624 187.18163793099166,331.56281153684523 176.19738623231166,331.56281153684523 176.19738623231166,286.70486029201624 165.92179593099166,286.70486029201624 165.92179593099166,331.56281153684523 154.93754423231167,331.56281153684523 154.93754423231167,286.70486029201624 144.66195393099167,286.70486029201624 144.66195393099167,331.56281153684523 133.67770223231165,331.56281153684523 133.67770223231165,286.70486029201624 123.40211193099167,286.70486029201624 123.40211193099167,331.56281153684523 112.41786023231165,331.56281153684523 112.41786023231165,286.70486029201624 102.14226993099167,286.70486029201624 102.14226993099167,331.56281153684523 91.15801823231165,331.56281153684523 91.15801823231165,286.70486029201624 80.88242793099167,286.70486029201624 80.88242793099167,331.56281153684523 69.89817623231166,331.56281153684523 69.89817623231166,286.70486029201624 59.62258593099167,286.70486029201624 59.62258593099167,331.56281153684523 48.63833423231166,331.56281153684523 48.63833423231166,286.70486029201624 38.36274393099167,286.70486029201624 38.36274393099167,331.56281153684523 0.0,331.56281153684523 5.875947207720515,297.8417949251077 32.98255130415335,302.56516897187606 34.74651131446726,292.4421160172529 7.639907218034429,287.71874197048453 9.52551964023554,276.89754743636837 36.63212373501839,281.62092148478666 38.396083745332305,271.49786853016354 11.289479650549454,266.7744944817452 13.175092072750566,255.953299945979 40.28169616753342,260.6766739943974 42.045656177847334,250.5536210397742 14.939052083064482,245.83024699300583 16.82466450526559,235.00905245723968 43.93126860004845,239.73242650400803 45.695228610362356,229.60937354938488 18.588624513929528,224.8859995026165 20.474236936130637,214.06480496685035 47.58084103091349,218.7881790136187 49.344801041227406,208.66512605899555 22.238196946444553,203.9417520122272 24.123809368645663,193.12055747646102 51.23041346342851,197.84393152322937 52.99437347374243,187.72087856860622 25.88776937895958,182.99750452183787 27.77338180116069,172.1763099860717 54.87998589594354,176.89968403284004 56.64394590625746,166.7766310782169 29.537341809824625,162.05325703144854 31.422954232025734,151.23206249568236 58.52955832680858,155.95543654245074 60.2935183371225,145.83238358782756 33.18691424233965,141.1090095410592 35.07252666454076,130.28781500529303 62.17913075932361,135.01118905371138 63.94309076963753,124.88813609908821 36.836486674854676,120.16476205066988 38.72209909705579,109.34356751490371 65.82870319183864,114.06694156332205 67.59266320215255,103.94388860869888 40.48605910571972,99.22051456193053 42.37167152792083,88.39932002616436 69.47827562435367,93.12269407293273 71.2422356330176,82.99964111830955 44.13563153823475,78.2762670715412 46.02124396043586,67.45507253577505 73.1278480552187,72.1784465825434 74.89180806553263,62.05539362792023 47.78520397074977,57.332019581151876 49.67081639295088,46.51082504538571 76.77742048773374,51.23419909215407 78.54138049804764,41.11114613753091 51.43477640161482,36.387772090762546 53.32038882381593,25.566577554996385 80.42699292024876,30.28995160176474 82.1909529289127,20.16689864714158 78.30875903329704,19.49041944577339 116.1979156391866,0.0 121.22247249020317,9.767682111284415" style="fill:none;stroke:#ff0000" /><polyline points="266.1398917510428,318.9840716875052 14.960148082146013,318.9840716875052 78.51639074039232,-45.75390805915796 266.1398917510428,318.9840716875052" style="fill:none;stroke:#ff0000" /></svg>