<?xml version="1.0" encoding="utf-8" ?>
<svg baseProfile="full" height="45mm" version="1.1" width="55mm" xmlns="http://www.w3.org/2000/svg" xmlns:ev="http://www.w3.org/2001/xml-events" xmlns:xlink="http://www.w3.org/1999/xlink"><defs /><polyline points="224.27141798077858,146.60602535025134 1.0430640234898627,146.60602535025131 60.6662271250441,26.873768073974833 224.27141798077858,146.60602535025134" style="fill:none;stroke:#000000" /><polyline points="92.63295848212151,26.05249446136471 73.73026822693349,51.88160949928803 82.02247051990437,57.95014615699099 100.9251607750924,32.121031119067666 109.78923908542338,38.608087547063924 90.88654883023534,64.43720258498725 99.17875112320624,70.5057392426902 118.08144137839426,44.67662420476688 126.94551968872524,51.16368063276313 108.04282943353721,76.99279567068646 116.33503172650809,83.06133232838941 135.23772198169613,57.232217290466096 144.10180029202712,63.71927371846235 125.19911003683907,89.54838875638566 133.49131232980997,95.61692541408863 152.394002584998,69.78781037616531 161.258080895329,76.27486680416156 142.35539064014094,102.10398184208488 150.64759293311184,108.17251849978784 169.55028318829986,82.34340346186451 178.41436149863083,88.83045988986078 159.5116712434428,114.65957492778409 167.8038735364137,120.72811158548706 186.70656379160172,94.89899654756373 195.5706421019327,101.38605297555999 176.66795184674467,127.21516801348331 183.446825330362,132.17619534800124 176.613932349903,132.17619534800124 176.613932349903,160.34493534063594 165.629680651223,160.34493534063594 165.629680651223,132.17619534800124 155.354090349903,132.17619534800124 155.354090349903,160.34493534063594 144.36983865122298,160.34493534063594 144.36983865122298,132.17619534800124 134.094248349903,132.17619534800124 134.094248349903,160.34493534063594 123.10999665122299,160.34493534063594 123.10999665122299,132.17619534800124 112.834406349903,132.17619534800124 112.834406349903,160.34493534063594 101.850154651223,160.34493534063594 101.850154651223,132.17619534800124 91.574564349903,132.17619534800124 91.574564349903,160.34493534063594 80.59031265122299,160.34493534063594 80.59031265122299,132.17619534800124 70.31472234990301,132.17619534800124 70.31472234990301,160.34493534063594 59.33047065122299,160.34493534063594 59.33047065122299,132.17619534800124 49.054880349903,132.17619534800124 49.054880349903,160.34493534063594 38.07062865122299,160.34493534063594 38.07062865122299,132.17619534800124 27.795038349903002,132.17619534800124 27.795038349903002,160.34493534063594 16.810786651222987,160.34493534063594 16.810786651222987,132.17619534800124 15.97956071273505,132.17619534800124 19.84436689184014,124.41508467128229 0.0,114.53317021781201 4.896338076145073,104.70058872308726 24.740704966335233,114.5825031798575 29.32115026417255,105.38428177789406 9.476783372332411,95.5023673244238 14.373121448477484,85.66978582969904 34.21748833866764,95.55170028481929 38.797933636504965,86.35347888450585 18.953566744664823,76.47156443103557 23.849904820809897,66.63898293631082 43.694271711000056,76.52089739143108 48.27471700883737,67.32267599111762 28.430350116997232,57.44076153599737 33.3266881931423,47.6081800429226 53.17105508333246,57.49009449804285 57.751500381169784,48.291873096079414 37.907133489329645,38.40995864260914 42.724498371310276,28.735967173962184 57.03416977296913,0.0 92.63295848212151,26.05249446136471" style="fill:none;stroke:#ff0000" /><polyline points="199.1561286509899,119.59745549866123 11.530195992539486,119.59745549866123 61.644132626845575,18.961151720057128 199.1561286509899,119.59745549866123" style="fill:none;stroke:#ff0000" /></svg>