<?xml version="1.0" encoding="utf-8" ?>
<svg baseProfile="full" height="108mm" version="1.1" width="67mm" xmlns="http://www.w3.org/2000/svg" xmlns:ev="http://www.w3.org/2001/xml-events" xmlns:xlink="http://www.w3.org/1999/xlink"><defs /><polyline points="243.64524791974347,347.1671823529037 20.416726721193417,347.1671823529037 46.81869088788133,59.752314938368485 243.64524791974347,347.1671823529037" style="fill:none;stroke:#000000" /><polyline points="69.29830228307046,49.537587838825246 34.41913841455948,73.42342853247243 40.22510009681953,81.9015512621798 75.10426396368054,58.015710566882625 81.31063679501888,67.07853141286466 46.4314729265079,90.96437210651185 52.237434607117976,99.44249483621921 87.11659847397897,75.55665414092205 93.32297130531732,84.6194749869041 58.443807436806345,108.50531568055128 64.24976911741642,116.98343841025863 99.12893298592739,93.09759771496147 105.33530581561577,102.16041856094351 70.45614194710478,126.0462592545907 76.26210362936484,134.52438198429806 111.14126749622584,110.63854128900088 117.34764032756419,119.70136213498293 82.46847645740323,143.58720282863013 88.27443813966327,152.06532555833746 123.15360200652428,128.1794848630403 129.35997483786264,137.24230570902236 94.48081096935165,161.12814640266953 100.28677264996172,169.6062691323769 135.1659365184727,145.72042843707973 141.37230934816108,154.78324928306176 106.4931454796501,178.66908997670896 112.29910716191014,187.14721270641633 147.17827102877115,163.26137201111916 153.3846438601095,172.3241928571012 118.50547998994853,196.21003355074836 124.31144167220859,204.68815628045573 159.1906055390696,180.80231558515857 165.39697837040794,189.86513643114063 130.51781450189696,213.7509771247878 136.32377618250703,222.22909985449516 171.20294004936804,198.343259159198 177.40931288070638,207.40608000518003 142.5301490121954,231.29192069882723 148.33611069445544,239.7700434285346 183.21527456131645,215.8842027332374 189.42164739100483,224.94702357921946 154.54248352249382,248.83286427286663 160.3484452047539,257.310987002574 195.2276090716149,233.42514630727683 201.43398190295324,242.48796715325886 166.55481803444226,266.37380784690606 172.36077971505233,274.8519305766134 207.23994358191334,250.96608988131626 213.44631641325168,260.0289107272983 178.5671525447407,283.9147514209455 184.37311422535078,292.39287415065286 219.25227809386175,268.50703345535567 225.45865092355012,277.5698543013377 190.57948705503915,301.4556949949849 196.38544873729919,309.9338177246923 231.2646126041602,286.0479770293951 237.47098543549853,295.11079787537716 208.90540797256475,314.6729879312459 206.61759966974634,314.6729879312459 206.61759966974634,316.2397177091015 202.5918215653376,318.9966385690243 206.61759966974634,324.8752582904064 206.61759966974634,385.08686099932766 195.6333479710663,385.08686099932766 195.6333479710663,314.6729879312459 185.35775766974635,314.6729879312459 185.35775766974635,385.08686099932766 174.37350597106632,385.08686099932766 174.37350597106632,314.6729879312459 164.09791566974633,314.6729879312459 164.09791566974633,385.08686099932766 153.11366397106633,385.08686099932766 153.11366397106633,314.6729879312459 142.83807366974634,314.6729879312459 142.83807366974634,385.08686099932766 131.85382197106634,385.08686099932766 131.85382197106634,314.6729879312459 121.57823166974634,314.6729879312459 121.57823166974634,385.08686099932766 110.59397997106633,385.08686099932766 110.59397997106633,314.6729879312459 100.31838966974634,314.6729879312459 100.31838966974634,385.08686099932766 89.33413797106633,385.08686099932766 89.33413797106633,314.6729879312459 79.05854766974635,314.6729879312459 79.05854766974635,385.08686099932766 68.07429597106632,385.08686099932766 68.07429597106632,314.6729879312459 57.79870566974634,314.6729879312459 57.79870566974634,385.08686099932766 46.81445397106633,385.08686099932766 46.81445397106633,314.6729879312459 36.53886366974634,314.6729879312459 36.53886366974634,385.08686099932766 0.0,385.08686099932766 3.758545848331002,344.17089161877715 29.652375209487015,346.54950188657386 30.59233467471801,336.3169932861173 4.698505315211978,333.9383830199705 5.70328957154683,323.00018417410826 31.59711893270284,325.37879444190503 32.53707839793384,315.14628584144845 6.643249038427806,312.76767557530167 7.648033294762658,301.8294767294394 33.54186265591867,304.20808699723614 34.48182212114966,293.97557839677955 8.587992761643633,291.59696812898284 9.592777017978484,280.6587692831206 35.4866063791345,283.0373795525673 36.42656584436549,272.8048709521107 10.532736484859461,270.42626068431395 11.537520741194314,259.4880618384517 37.43135010235032,261.8666721078984 38.37130956758132,251.63416350579186 12.477480208075288,249.2555532396451 13.482264464410141,238.31735439378286 39.37609382556615,240.69596466157958 40.31605329079715,230.463456061123 14.422223931291116,228.08484579497625 15.427008187625969,217.146646949114 41.32083754878198,219.52525721691075 42.26079701401297,209.29274861645413 16.366967654506944,206.91413835030738 17.371751910841795,195.97593950444514 43.26558127199781,198.35454977224188 44.2055407372288,188.12204117178527 18.311711377722773,185.74343090563852 19.316495634057624,174.80523205977627 45.21032499521364,177.18384232757302 46.15028446044463,166.95133372711643 20.2564551009386,164.57272346096968 21.245033160734973,153.81094717604634 35.374125202926216,0.0 69.29830228307046,49.537587838825246" style="fill:none;stroke:#ff0000" /><polyline points="275.2283907234112,372.50812114998763 13.787184386295499,372.50812114998763 44.70868726718788,35.89302710844271 275.2283907234112,372.50812114998763" style="fill:none;stroke:#ff0000" /></svg>