<?xml version="1.0" encoding="utf-8" ?>
<svg baseProfile="full" height="88mm" version="1.1" width="67mm" xmlns="http://www.w3.org/2000/svg" xmlns:ev="http://www.w3.org/2001/xml-events" xmlns:xlink="http://www.w3.org/1999/xlink"><defs /><polyline points="224.2785639448813,275.21008591750495 1.050042746331332,275.21008591750495 155.19978285419992,-31.0029269047822 224.2785639448813,275.21008591750495" style="fill:none;stroke:#000000" /><polyline points="144.80527391019362,12.662350535918382 147.1180026186702,8.068196660528823 147.89105008876294,11.494968113306088 186.41001717628254,2.8054507416151555 188.82721746299075,13.520436888005932 150.30825037712114,22.209954262996828 152.56950225882073,32.23365098277043 191.08846934469037,23.544133611079495 193.50566963139858,34.25911975747027 154.98670254717894,42.948637132461165 157.2479544272286,52.97233385388475 195.7669215147482,44.282816480543836 198.1841217998064,54.997802626934615 159.66515471558677,63.68732000192551 161.9264065972864,73.71101672334909 200.44537368315602,65.02149935000818 202.86257396986423,75.73648549804894 164.3436068856446,84.42600287138985 166.60485876569422,94.44969959281343 205.12382585321384,85.76018221947253 207.54102613827206,96.47516836751328 169.02205905405242,105.1646857408542 171.28331093575204,115.18838246227777 209.80227802162167,106.49886508893687 212.21947830832988,117.21385123697762 173.70051122246025,125.90336861031854 175.96176310415987,135.9270653317421 214.4807301900295,127.23754795840121 216.8979304767377,137.95253410644196 178.37896339251807,146.64205147813288 180.6402152742177,156.66574819955648 219.15918236008733,147.97623082621556 221.57638264679554,158.69121697425632 183.0574155609259,167.3807343492472 185.31866744262553,177.40443106902083 223.83763452849516,168.7149136956799 226.25483481520337,179.42989984372065 187.73586773098373,188.11941721871156 189.99711961103336,198.14311393848516 228.51608669855295,189.45359656514424 230.9332869852612,200.168582713185 192.41431989939156,208.8581000881759 194.67557178109118,218.88179680794948 233.1945388669608,210.19227943625856 235.61173915366902,220.90726558264933 197.09277206944938,229.59678295764024 199.354023949499,239.62047967741384 237.8729910370186,230.93096230572291 240.29019132207685,241.6459484521137 218.78634799681552,246.49701363791172 218.78634799681552,242.7159088233853 208.51075769549556,242.7159088233853 208.51075769549556,248.81509034697703 201.7712242378572,250.33546582710457 204.03247611955683,260.35916254687817 208.51075769549556,259.34890426441353 208.51075769549556,313.1297479348601 197.52650599681553,313.1297479348601 197.52650599681553,242.7159088233853 187.25091569549554,242.7159088233853 187.25091569549554,313.1297479348601 176.26666399681554,313.1297479348601 176.26666399681554,242.7159088233853 165.99107369549554,242.7159088233853 165.99107369549554,313.1297479348601 155.00682199681552,313.1297479348601 155.00682199681552,242.7159088233853 144.73123169549555,242.7159088233853 144.73123169549555,313.1297479348601 133.74697999681553,313.1297479348601 133.74697999681553,242.7159088233853 123.47138969549555,242.7159088233853 123.47138969549555,313.1297479348601 112.48713799681553,313.1297479348601 112.48713799681553,242.7159088233853 102.21154769549554,242.7159088233853 102.21154769549554,313.1297479348601 91.22729599681553,313.1297479348601 91.22729599681553,242.7159088233853 80.95170569549555,242.7159088233853 80.95170569549555,313.1297479348601 69.96745399681554,313.1297479348601 69.96745399681554,242.7159088233853 59.69186369549555,242.7159088233853 59.69186369549555,313.1297479348601 48.70761199681553,313.1297479348601 48.70761199681553,242.7159088233853 38.43202169549554,242.7159088233853 38.43202169549554,313.1297479348601 27.44776999681553,313.1297479348601 27.44776999681553,242.7159088233853 17.172179695495547,242.7159088233853 17.172179695495547,246.32898874880692 0.0,237.6843951925541 4.939029054931675,227.87318846943364 30.092341052009214,240.53553900535204 34.712723068317906,231.35731335725714 9.55941107124037,218.69496282133875 14.498440126172046,208.88375609656833 39.65175212324959,221.54610663248673 44.27213413955828,212.36788098439183 19.11882214413072,199.70553044847347 24.057851197412415,189.89432372370305 49.211163194489956,202.55667425962142 53.83154521244863,193.37844861152655 28.678233215371094,180.71609807560816 33.61726226865279,170.90489135083774 58.770574265730325,183.56724188675614 63.390956283689,174.38901623866124 38.23764428661146,161.72666570274288 43.176673341543136,151.91545897797243 68.3299853369707,164.57780951554082 72.95036735492937,155.39958386744593 47.79705535785183,142.73723332987757 52.736084412783505,132.9260266084071 77.88939640821107,145.5883771426755 82.50977842616975,136.4101514962306 57.3564664290922,123.74780096031223 62.29549548402388,113.9365942355418 87.44880748110141,126.5989447714602 92.06918949741011,117.42071912336532 66.91587750033257,104.75836858744692 71.85490655526425,94.94716186267651 97.00821855234179,107.60951239859489 101.62860056865048,98.4312867505 76.47528857322293,85.76893621458163 81.41431762650463,75.95772948981121 106.56762962358216,88.62008002572959 111.18801164154084,79.44185437928469 86.0346996444633,66.77950384171633 90.97372869774499,56.96829711694591 116.12704069482253,69.63064765451428 120.7474227127812,60.4524220064194 95.59411071570366,47.79007147050102 100.53313977063534,37.9788647457306 125.6864517660629,50.641215281648975 130.30683378402156,41.462989633554095 105.15352178694404,28.800639097635717 110.0925508418757,18.9894323728653 135.24586283895326,31.65178290878368 139.86624485526195,22.4735572606888 114.7129328581844,9.811206724770418 119.65196191311608,0.0 144.80527391019362,12.662350535918382" style="fill:none;stroke:#ff0000" /><polyline points="240.68377862700157,300.5510080855201 -17.564810098947877,300.5510080855201 160.76792543882834,-53.70067080322016 240.68377862700157,300.5510080855201" style="fill:none;stroke:#ff0000" /></svg>