<?xml version="1.0" encoding="utf-8" ?>
<svg baseProfile="full" height="39mm" version="1.1" width="55mm" xmlns="http://www.w3.org/2000/svg" xmlns:ev="http://www.w3.org/2001/xml-events" xmlns:xlink="http://www.w3.org/1999/xlink"><defs /><polyline points="223.4557972440763,127.73968533027806 0.22741810384327138,127.73968533027809 68.79639138119326,23.92312130267086 223.4557972440763,127.73968533027806" style="fill:none;stroke:#000000" /><polyline points="90.31253589786331,15.78609848390636 73.45044636909964,40.90618189845558 81.98212687654377,46.63315175661686 98.84421640695743,21.51306834206764 107.96428866966673,27.63500163707282 91.10219914090304,52.755085053272026 99.63387964834718,58.48205490978332 116.49596917876084,33.3619714952341 125.61604144147014,39.48390479023928 108.75395191270646,64.60398820643849 117.28563242015059,70.33095806294978 134.14772195056426,45.21087464840056 143.26779421327356,51.33280794505572 126.40570468450987,76.45289135960495 134.937385191954,82.17986121776622 151.79947472236768,57.05977780156702 160.91954698672694,63.18171109822218 144.05745745631327,88.30179451277141 152.5891379654074,94.02876437093268 169.4512274941711,68.90868095473348 178.57129975853036,75.03061425138864 161.7092102281167,100.15069766593787 170.2408907372108,105.87766752409914 187.10298026597448,80.75758410954992 196.22305253033377,86.8795174045551 179.3609629999201,111.99960082075431 183.95604134145756,115.08408987562404 175.79829902295674,115.08408987562404 175.79829902295674,138.6493530001971 164.81404732427671,138.6493530001971 164.81404732427671,115.08408987562404 154.53845702295672,115.08408987562404 154.53845702295672,138.6493530001971 143.55420532427672,138.6493530001971 143.55420532427672,115.08408987562404 133.27861502295673,115.08408987562404 133.27861502295673,138.6493530001971 122.29436332427672,138.6493530001971 122.29436332427672,115.08408987562404 112.01877302295674,115.08408987562404 112.01877302295674,138.6493530001971 101.03452132427671,138.6493530001971 101.03452132427671,115.08408987562404 90.75893102295673,115.08408987562404 90.75893102295673,138.6493530001971 79.77467932427672,138.6493530001971 79.77467932427672,115.08408987562404 69.49908902295672,115.08408987562404 69.49908902295672,138.6493530001971 58.51483732427671,138.6493530001971 58.51483732427671,115.08408987562404 48.23924702295673,115.08408987562404 48.23924702295673,138.6493530001971 37.25499532427671,138.6493530001971 37.25499532427671,115.08408987562404 26.97940502295673,115.08408987562404 26.97940502295673,138.6493530001971 15.995153324276714,138.6493530001971 15.995153324276714,115.47905561749126 17.73495955625757,112.84490934786473 0.0,101.13128754450966 6.053666518347573,91.96575935247229 23.788626076255124,103.67938115582737 29.4517334649722,95.10517736045536 11.71677390871463,83.3915555554503 17.7704404270622,74.22602736341294 35.505399984969756,85.939649166768 41.16850737368683,77.36544537139599 23.43354781742926,65.65182356639095 29.487214335776834,56.486295374353574 47.222173893684385,68.19991717770866 52.885281282401465,59.625713382336635 35.15032172614389,47.91209157733158 41.20398824449146,38.746563385294216 58.938947802399014,50.46018518864929 64.6020551911161,41.88598139327728 46.86709563485852,30.172359588272222 52.823122370385974,21.154662494163713 66.79539645773498,0.0 90.31253589786331,15.78609848390636" style="fill:none;stroke:#ff0000" /><polyline points="196.93208968114388,102.50535002628403 14.167206272610708,102.50535002628403 70.3070235060289,17.507097144613628 196.93208968114388,102.50535002628403" style="fill:none;stroke:#ff0000" /></svg>