<?xml version="1.0" encoding="utf-8" ?>
<svg baseProfile="full" height="30mm" version="1.1" width="58mm" xmlns="http://www.w3.org/2000/svg" xmlns:ev="http://www.w3.org/2001/xml-events" xmlns:xlink="http://www.w3.org/1999/xlink"><defs /><polyline points="222.00770690657978,102.12286099016382 -1.220647633223218,102.12286099016386 84.83152178003228,19.706607858506 222.00770690657978,102.12286099016382" style="fill:none;stroke:#000000" /><polyline points="98.36083066863696,8.416940822531549 85.22716610014965,30.27702222604205 94.03527910436468,35.568987956991684 107.168943672852,13.708906555131165 116.58451274558358,19.365835441873855 103.45084817874624,41.225916843734375 112.25896118296127,46.51788257633399 125.39262575144859,24.657801174473473 134.8081948241802,30.31473005956618 121.67453025734285,52.174811463076686 130.4826432599079,57.46677719402632 143.6163078300452,35.60669579381578 153.0318769027768,41.263624678908485 139.89821233428947,63.12370608241899 148.70632533850448,68.41567181336862 161.8399899086418,46.555590411508106 171.25555898137338,52.21251929660082 158.12189441288606,74.07260070011132 166.93000741710108,79.36456643271093 180.0636719872384,57.50448503085041 189.47924105996998,63.16141391594312 176.34557649148266,85.02149531945362 185.1536894956977,90.31346105040326 198.287354065835,68.45337964854274 207.70292313856658,74.11030853528543 197.41611215369318,91.23199794078333 195.61006298687565,91.23199794078333 195.61006298687565,94.23804256756735 194.56925857007926,95.97038993879593 195.61006298687565,96.59571131079427 195.61006298687565,108.92651872733154 184.62581128819562,108.92651872733154 184.62581128819562,91.23199794078333 174.35022098687566,91.23199794078333 174.35022098687566,108.92651872733154 163.36596928819563,108.92651872733154 163.36596928819563,91.23199794078333 153.09037898687563,91.23199794078333 153.09037898687563,108.92651872733154 142.10612728819564,108.92651872733154 142.10612728819564,91.23199794078333 131.83053698687564,91.23199794078333 131.83053698687564,108.92651872733154 120.84628528819563,108.92651872733154 120.84628528819563,91.23199794078333 110.57069498687565,91.23199794078333 110.57069498687565,108.92651872733154 99.58644328819562,108.92651872733154 99.58644328819562,91.23199794078333 89.31085298687564,91.23199794078333 89.31085298687564,108.92651872733154 78.32660128819563,108.92651872733154 78.32660128819563,91.23199794078333 68.05101098687564,91.23199794078333 68.05101098687564,108.92651872733154 57.06675928819563,108.92651872733154 57.06675928819563,91.23199794078333 46.79116898687565,91.23199794078333 46.79116898687565,108.92651872733154 35.80691728819563,108.92651872733154 35.80691728819563,91.23199794078333 25.531326986875644,91.23199794078333 25.531326986875644,108.92651872733154 14.54707528819563,108.92651872733154 14.54707528819563,91.23199794078333 10.00332961790397,91.23199794078333 0.0,80.78735647543924 7.93282121395675,73.18971651284664 22.139072773158524,88.02269810863932 29.560099070724508,80.91522846722528 15.353847511522735,66.08224686978262 23.286668723829504,58.48460690719005 37.49292028468126,73.3175885046327 44.91394658059726,66.21011886156867 30.707695021395487,51.37713726577601 38.64051623535224,43.779497303183426 52.84676779455401,58.61247889897609 60.26779409212,51.50500925591207 46.061542531268245,36.672027660119404 53.994363745224994,29.07438769752682 68.20061530442676,43.90736929496947 75.62164160199275,36.79989965190545 61.415390042790975,21.96691805611278 69.22026252600006,14.491820673402339 84.35141154634857,0.0 98.36083066863696,8.416940822531549" style="fill:none;stroke:#ff0000" /><polyline points="190.8397821710249,78.65325809144333 20.413900406568285,78.65325809144333 86.11127509793526,15.731759428664065 190.8397821710249,78.65325809144333" style="fill:none;stroke:#ff0000" /></svg>