<?xml version="1.0" encoding="utf-8" ?>
<svg baseProfile="full" height="88mm" version="1.1" width="67mm" xmlns="http://www.w3.org/2000/svg" xmlns:ev="http://www.w3.org/2001/xml-events" xmlns:xlink="http://www.w3.org/1999/xlink"><defs /><polyline points="224.27841435330137,275.21025101978705 1.0500352130683563,275.21025101978705 155.19960411070974,-31.003027361884428 224.27841435330137,275.21025101978705" style="fill:none;stroke:#000000" /><polyline points="144.80509217634747,12.662329056467039 147.11788199846657,8.068044695638049 147.89096624663352,11.494980701010366 186.40980268041565,2.8054966704834587 188.8270019441357,13.520483049521541 150.3081655103536,22.20996708004845 152.56941643341432,32.23366401761953 191.08825286719642,23.544179987092622 193.5054521309165,34.25916636613071 154.98661569713437,42.94865039830759 157.24786662019508,52.97234733587868 195.7667030539772,44.28286330370179 198.18390231934725,54.99784968273987 159.66506588391513,63.68733371491676 161.92631680697585,73.71103065248784 200.44515324240797,65.02154662031096 202.86235250612802,75.73653299934904 164.34351607069593,84.42601703152593 166.60476699375664,94.449713969097 205.12360342918873,85.76022993692011 207.54080269290878,96.47521631595819 169.0219662574767,105.16470034813509 171.2832171805374,115.18839728570617 209.8020536159695,106.49891325352928 212.21925287968958,117.21389963256736 173.70041644590745,125.90338366474425 175.96166736896816,135.92708060231533 214.4805038027503,127.23759657013845 216.89770306647034,137.95258294917653 178.37886663268822,146.64206698135342 180.64011755574893,156.6657639189245 219.15895398953106,147.97627988674762 221.5761532532511,158.69126626578569 183.057316819469,167.38075029796258 185.31856774252972,177.40444723553367 223.83740417631182,168.71496320335677 226.2546034400319,179.42994958239487 187.73576700624977,188.11943361457173 189.9970179293105,198.14313055214282 228.51585436474258,189.45364651996593 230.93305362846266,200.16863289900402 192.41421719303054,208.85811693118092 194.67546811609125,218.881813868752 233.19430455152337,210.1923298365751 235.61150381524342,220.90731621726317 197.09266737981133,229.59680024779007 199.35391830287205,239.62049718536116 237.87275473830414,230.93101315483426 240.2899540020242,241.64599953387233 218.786269434625,246.49702674371002 218.786269434625,242.71607323738195 208.51067913330502,242.71607323738195 208.51067913330502,248.81510242153723 201.7711175682421,250.33548356439925 204.0323684913028,260.35918050197034 208.51067913330502,259.3489161112764 208.51067913330502,313.12991369854115 197.52642743462502,313.12991369854115 197.52642743462502,242.71607323738195 187.25083713330503,242.71607323738195 187.25083713330503,313.12991369854115 176.266585434625,313.12991369854115 176.266585434625,242.71607323738195 165.99099513330503,242.71607323738195 165.99099513330503,313.12991369854115 155.006743434625,313.12991369854115 155.006743434625,242.71607323738195 144.731153133305,242.71607323738195 144.731153133305,313.12991369854115 133.74690143462502,313.12991369854115 133.74690143462502,242.71607323738195 123.47131113330502,242.71607323738195 123.47131113330502,313.12991369854115 112.48705943462501,313.12991369854115 112.48705943462501,242.71607323738195 102.21146913330503,242.71607323738195 102.21146913330503,313.12991369854115 91.227217434625,313.12991369854115 91.227217434625,242.71607323738195 80.95162713330502,242.71607323738195 80.95162713330502,313.12991369854115 69.96737543462501,313.12991369854115 69.96737543462501,242.71607323738195 59.691785133305025,242.71607323738195 59.691785133305025,313.12991369854115 48.707533434625006,313.12991369854115 48.707533434625006,242.71607323738195 38.431943133305026,242.71607323738195 38.431943133305026,313.12991369854115 27.447691434625007,313.12991369854115 27.447691434625007,242.71607323738195 17.172101133305024,242.71607323738195 17.172101133305024,246.32902715211233 0.0,237.68449024465372 4.939021258771927,227.8732795962287 30.092340335917502,240.53560865269574 34.71271506426057,231.35737933339337 9.559395987114993,218.6950502785763 14.49841724588692,208.8838396301513 39.651736323032495,221.54616868661836 44.27211105137556,212.36793936731598 19.118791972580002,199.70561031249892 24.057813233001912,189.89439966407392 49.211132308497504,202.55672872054095 53.83150703849055,193.37849940123857 28.678187959694995,180.7161703464215 33.617209218466925,170.90495969634654 58.7705282956125,183.56728875446356 63.390903023955566,174.3890594351612 38.23758394680999,161.72673037869413 43.176605205581915,151.91551973026915 68.32992428272749,164.57784878838618 72.95029901107056,155.39961946908377 47.796979932275,142.73729041261674 52.73600119269691,132.92607976419174 77.88932026984249,145.58840882230876 82.50969499818555,136.4101795013564 57.35637591938999,123.74785044653935 62.29539717816192,113.93663979811436 87.44871625530749,126.59896885458139 92.06909098530055,117.42073953527901 66.91577190650499,104.75841048046196 71.85479316527692,94.94719983203696 97.00811224242248,107.609528888504 101.62848697076555,98.43129956920161 76.47516789361998,85.76897051438456 81.4141891523919,75.95775986595956 106.56750822953748,88.6200889224266 111.18788295788055,79.44185960312421 86.03456387908498,66.77953054830716 90.9735851395069,56.96831989988217 116.1269042150025,69.6306489563492 120.74727894499554,60.45241963704682 95.59395986619998,47.790090580579786 100.53298112497191,37.97887993215479 125.68630020211748,50.641208990271814 130.30667493046056,41.46297967096943 105.15335585331498,28.80065061450239 110.09237711208691,18.989439966077395 135.2456961892325,31.651769024194415 139.86607091757554,22.473539704892033 114.71275183877998,9.811210648424996 119.65177309920189,0.0 144.80509217634747,12.662329056467039" style="fill:none;stroke:#ff0000" /><polyline points="240.68356153736474,300.5511738492011 -17.564788734995197,300.5511738492011 160.76769755666643,-53.70071060075944 240.68356153736474,300.5511738492011" style="fill:none;stroke:#ff0000" /></svg>