<?xml version="1.0" encoding="utf-8" ?>
<svg baseProfile="full" height="65mm" version="1.1" width="93mm" xmlns="http://www.w3.org/2000/svg" xmlns:ev="http://www.w3.org/2001/xml-events" xmlns:xlink="http://www.w3.org/1999/xlink"><defs /><polyline points="357.4801953576982,207.34253827345603 24.447022683439442,207.34253827345609 80.41594316573378,-8.755442548158006 357.4801953576982,207.34253827345603" style="fill:none;stroke:#000000" /><polyline points="129.5780189606183,6.7554282037823254 111.99139004720656,29.303654571261966 120.09388880248616,35.62324869754059 137.68051771754787,13.075022331710931 146.3418094896933,19.830450533843276 128.7551805762816,42.37867690132292 136.85767933156117,48.69827102760154 154.44430824827285,26.150044661771883 163.10560002041828,32.90547286390423 145.5189711053566,55.453699233033845 153.62146986063618,61.773293357662496 171.20809877734786,39.22506699183283 179.8693905494933,45.98049519561516 162.28276163608157,68.5287215630948 170.38526039136116,74.84831568772344 187.97188930642287,52.300089321893786 196.6331810802183,59.05551752567611 179.04655216515658,81.60374389315575 187.14905092043617,87.92333801943438 204.73567983714784,65.37511165195474 213.3969716092933,72.13053985573706 195.8103426942316,94.6787662232167 203.91284145116117,100.99836034949533 221.49947036622285,78.45013398366567 230.16076213836828,85.20556218579802 212.57413322495657,107.75378855492764 220.67663198023618,114.07338267955627 238.26326089529786,91.52515631372661 246.9245526690933,98.28058451750894 229.33792375403158,120.82881088498858 237.4404225093112,127.14840500961722 255.02705142602287,104.60017864378757 263.6883431981683,111.35560684756989 246.1017142831066,133.90383321504953 254.20421304003617,140.22342734132815 271.79084195509785,117.67520097384852 280.4521337272433,124.43062917763085 262.8655048138316,146.9788555451105 270.9680035691112,153.2984496713891 288.5546324858229,130.75022330555944 297.2159242579683,137.5056515076918 279.6292953429066,160.05387787682142 287.7317940981862,166.37347200145007 305.31842301489786,143.8252456356204 313.9797147870433,150.58067383940272 296.3930858736316,173.12890020688238 304.49558462891116,179.448494331511 322.0822135439729,156.90026796568137 330.74350531776827,163.65569616946368 313.1568764027066,186.2039225369433 318.69982637112963,190.52718072181497 318.69982637112963,231.04578988016803 307.71557467244963,231.04578988016803 307.71557467244963,190.0753591576909 297.43998437112964,190.0753591576909 297.43998437112964,231.04578988016803 286.45573267244964,231.04578988016803 286.45573267244964,190.0753591576909 276.18014237112965,190.0753591576909 276.18014237112965,231.04578988016803 265.19589067244965,231.04578988016803 265.19589067244965,190.0753591576909 254.92030037112966,190.0753591576909 254.92030037112966,231.04578988016803 243.93604867244963,231.04578988016803 243.93604867244963,190.0753591576909 233.66045837112966,190.0753591576909 233.66045837112966,231.04578988016803 222.67620667244964,231.04578988016803 222.67620667244964,190.0753591576909 212.40061637112964,190.0753591576909 212.40061637112964,231.04578988016803 201.41636467244965,231.04578988016803 201.41636467244965,190.0753591576909 191.14077437112965,190.0753591576909 191.14077437112965,231.04578988016803 180.15652267244963,231.04578988016803 180.15652267244963,190.0753591576909 169.88093237112966,190.0753591576909 169.88093237112966,231.04578988016803 158.89668067244963,231.04578988016803 158.89668067244963,190.0753591576909 148.62109037112967,190.0753591576909 148.62109037112967,231.04578988016803 137.63683867244964,231.04578988016803 137.63683867244964,190.0753591576909 127.36124837112966,190.0753591576909 127.36124837112966,231.04578988016803 116.37699667244964,231.04578988016803 116.37699667244964,190.0753591576909 106.10140637112966,190.0753591576909 106.10140637112966,231.04578988016803 95.11715467244964,231.04578988016803 95.11715467244964,190.0753591576909 84.84156437112965,190.0753591576909 84.84156437112965,231.04578988016803 73.85731267244964,231.04578988016803 73.85731267244964,190.0753591576909 63.58172237112966,190.0753591576909 63.58172237112966,231.04578988016803 52.59747067244964,231.04578988016803 52.59747067244964,190.0753591576909 42.32188037112966,190.0753591576909 42.32188037112966,195.68414759288297 0.0,184.72286999064264 2.754027210871205,174.089473566576 53.839208868830084,187.3204276879879 56.41555690155963,177.37305683732555 5.330375243600757,164.14210271591367 8.084402454471963,153.50870629184703 59.16958411243084,166.73966041325892 61.74593214516039,156.79228956259658 10.660750487201515,143.5613354411847 13.414777696422739,132.92793901711806 64.4999593560316,146.15889313852995 67.07630738876115,136.2115222878676 15.991125730802272,122.98056816480575 18.745152940023495,112.3471717407391 69.83033459798237,125.57812586380096 72.4066826323619,115.63075501148866 21.32150097440303,102.39980089007678 24.075528183624254,91.76640446601013 75.16070984158313,104.99735858742201 77.73705787596266,95.04998773675969 26.651876216353806,81.8190336153478 29.40590342722501,71.18563719128116 80.49108508518388,84.41659131269304 83.06743311791344,74.46922046203072 31.98225145995456,61.238266340618836 34.73627867082577,50.60486991655219 85.82146032878464,63.83582403796407 88.3978083615142,53.88845318730175 37.31262670355532,40.657499065889866 40.066653912776545,30.02410264017324 91.15183557238541,43.2550567632351 93.72818360511495,33.30768591257278 42.64300194715608,20.076731789510916 45.3970291563773,9.443335365444268 96.48221081433618,22.67428948685615 97.66021670496558,18.125967094597048 103.33009827176117,22.54822636582966 120.91672718847285,0.0 129.5780189606183,6.7554282037823254" style="fill:none;stroke:#ff0000" /><polyline points="380.56552600319816,218.46705003082803 4.254111555899692,218.46705003082803 67.49629089340948,-25.713240387249698 380.56552600319816,218.46705003082803" style="fill:none;stroke:#ff0000" /></svg>