<?xml version="1.0" encoding="utf-8" ?>
<svg baseProfile="full" height="46mm" version="1.1" width="62mm" xmlns="http://www.w3.org/2000/svg" xmlns:ev="http://www.w3.org/2001/xml-events" xmlns:xlink="http://www.w3.org/1999/xlink"><defs /><polyline points="196.61138251608037,143.5440753161794 -26.04042831214634,143.5440753161794 148.30493547265513,4.135898542216082 196.61138251608037,143.5440753161794" style="fill:none;stroke:#000000" /><polyline points="146.94845757576348,27.68775035657568 148.2447986114825,26.651183989967386 149.91960389049888,31.48452539114536 171.66152212477886,23.95071463438206 175.25789559760324,34.32953360477225 153.51597736497322,41.86334436153555 156.8803267436815,51.572562110584414 178.62224497631152,44.03875135382111 182.21861845078587,54.41757032421131 160.47670021815588,61.95138108097461 163.84104959686417,71.66059883002347 185.58296782949415,64.12678807326017 189.17934130396853,74.50560704365036 167.43742307133851,82.03941779876368 170.8017724500468,91.74863554781254 192.5436906826768,84.21482479104924 196.14006415715116,94.59364376143944 174.39814592452117,102.12745451820274 177.76249530322946,111.8366722672516 199.50441353585944,104.3028615104883 203.10078701033382,114.6816804808785 181.3588687777038,122.2154912376418 184.7232181564121,131.92470898669066 206.4651363890421,124.39089822992736 210.00350383957493,134.6023168949822 220.12290939922227,163.8060353522076 155.4998467981491,163.8060353522076 155.4998467981491,130.22331070317904 145.2242564968291,130.22331070317904 145.2242564968291,163.8060353522076 134.2400047981491,163.8060353522076 134.2400047981491,130.22331070317904 123.96441449682911,130.22331070317904 123.96441449682911,163.8060353522076 112.9801627981491,163.8060353522076 112.9801627981491,130.22331070317904 102.70457249682912,130.22331070317904 102.70457249682912,163.8060353522076 91.7203207981491,163.8060353522076 91.7203207981491,130.22331070317904 81.44473049682911,130.22331070317904 81.44473049682911,163.8060353522076 70.4604787981491,163.8060353522076 70.4604787981491,130.22331070317904 60.1848884984791,130.22331070317904 60.1848884984791,163.8060353522076 49.20063679979908,163.8060353522076 49.20063679979908,130.22331070317904 38.92504649847909,130.22331070317904 38.92504649847909,163.8060353522076 27.94079479979908,163.8060353522076 27.94079479979908,130.22331070317904 18.716384085917,130.22331070317904 22.139383076816284,127.4862488285581 0.0,99.79849847198243 8.578894255472763,92.93873471934371 30.71827733063907,120.62648507591939 38.743694540405485,114.209286725559 16.6043114635892,86.52153636898332 25.183205719061966,79.6617726163446 47.322588794228274,107.3495229729203 55.34800600399469,100.9323246225599 33.2086229271784,73.24457426598423 41.78751718430115,66.38481051334551 63.92690025781747,94.07256086992119 71.95231746593392,87.65536251956081 49.81293439241759,59.96761216298512 58.39182864789036,53.10784841034641 80.5312117197567,80.79559876857208 88.55662892952311,74.3784004165617 66.4172458560068,46.690650061636006 74.99614010982958,39.83088630734731 97.1355231833459,67.51863666557298 105.1609403947623,61.10143831356261 83.02155731794602,33.413687958636906 91.60045157341878,26.553924204348217 113.73983464858509,54.24167456257388 121.7652518583515,47.82447621221349 99.62586878153522,20.136725855637806 108.20476303700798,13.276962101349119 130.3441461121743,40.964712459574784 138.36956332194072,34.54751410921439 116.23018024512443,6.859763752638708 124.80907450059719,0.0 146.94845757576348,27.68775035657568" style="fill:none;stroke:#ff0000" /><polyline points="202.45173781247135,151.2272955028676 12.590383030302373,151.2272955028676 161.2594948827599,32.350088927023066 202.45173781247135,151.2272955028676" style="fill:none;stroke:#ff0000" /></svg>