<?xml version="1.0" encoding="utf-8" ?>
<svg baseProfile="full" height="36mm" version="1.1" width="51mm" xmlns="http://www.w3.org/2000/svg" xmlns:ev="http://www.w3.org/2001/xml-events" xmlns:xlink="http://www.w3.org/1999/xlink"><defs /><polyline points="146.37733460494985,112.82211778963614 -18.80909833236778,112.82211778963608 172.8463067238796,-1.628986035486489 146.37733460494985,112.82211778963614" style="fill:none;stroke:#000000" /><polyline points="165.0054577886577,15.994678288175985 168.59598789702798,13.850516822475647 183.31630202551898,17.254866549518695 180.8413126824075,27.95665206167701 161.09414354350466,23.389747490485064 158.77883093029072,33.40109522851702 178.52600006919357,37.96799979970897 176.0510107260821,48.66978531186729 156.30384158717925,44.10288074067534 153.9885289756153,54.114228478707304 173.73569811451816,58.681133049899245 171.26070877305665,69.38291856205757 151.51353963250384,64.81601398921563 149.1982270192899,74.82736172724759 168.94539615984272,79.39426630008953 166.47040681673127,90.09605181224784 146.72323767617843,85.52914723940592 144.4079250629645,95.54049497743787 164.15509420351734,100.1073995502798 161.72002404288023,110.63657561890653 157.24045262242345,130.00611862395968 137.0833892672233,130.00611862395968 137.0833892672233,103.26715294089969 126.80779896590333,103.26715294089969 126.80779896590333,130.00611862395968 115.82354726722332,130.00611862395968 115.82354726722332,103.26715294089969 105.54795696590334,103.26715294089969 105.54795696590334,130.00611862395968 94.56370526722331,130.00611862395968 94.56370526722331,103.26715294089969 84.28811496590333,103.26715294089969 84.28811496590333,130.00611862395968 73.30386326722332,130.00611862395968 73.30386326722332,103.26715294089969 63.028272965903334,103.26715294089969 63.028272965903334,130.00611862395968 52.044021267223314,130.00611862395968 52.044021267223314,103.26715294089969 41.768430965903335,103.26715294089969 41.768430965903335,130.00611862395968 30.784179267223315,130.00611862395968 30.784179267223315,103.26715294089969 20.508588965903332,103.26715294089969 20.508588965903332,130.00611862395968 9.524337267223316,130.00611862395968 9.524337267223316,108.84353826580734 9.55156252954925,108.82728011962027 9.524337267223316,108.78168974489861 9.524337267223316,103.26715294089969 6.2312142573608345,103.26715294089969 0.0,92.83260183144428 9.430666835201889,87.2008784324095 18.98222936310116,103.19555672223547 27.804466081712583,97.92717031556907 18.252903552163332,81.93249202574312 27.683570387365222,76.30076862835831 37.23513291691447,92.29544691818428 46.057369635525895,87.02706051151789 36.50580710597664,71.03238222169192 45.936473941178534,65.40065882430713 55.488036470727785,81.3953371141331 64.31027318768923,76.1269507074667 54.758710659789955,60.132272417640735 64.18937749334187,54.50054902025594 73.74094002289111,70.4952273100819 82.56317674150255,65.2268409034155 73.01161421195329,49.232162613589544 82.44228104715518,43.60043921620475 91.99384357670444,59.59511750438074 100.81608029531586,54.326731097714344 91.2645177657666,38.33205280953836 100.69518460096849,32.700329412153565 110.24674712886777,48.69500770032955 119.06898384747919,43.42662129366315 109.51742131792993,27.43194300548717 118.94808815313182,21.800219608102374 128.49965068268108,37.79489789627836 137.32188740129249,32.52651148961197 127.77032487174324,16.531833201435983 137.20099170694513,10.900109804051187 146.75255423649438,26.894788092227174 155.5747909551058,21.62640168556078 146.02322842555657,5.631723397384796 155.45389525910846,0.0 165.0054577886577,15.994678288175985" style="fill:none;stroke:#ff0000" /><polyline points="147.23877604613298,117.42737877461965 19.68405224302749,117.42737877461965 167.67775743120058,29.04978820655357 147.23877604613298,117.42737877461965" style="fill:none;stroke:#ff0000" /></svg>