<?xml version="1.0" encoding="utf-8" ?>
<svg baseProfile="full" height="71mm" version="1.1" width="96mm" xmlns="http://www.w3.org/2000/svg" xmlns:ev="http://www.w3.org/2001/xml-events" xmlns:xlink="http://www.w3.org/1999/xlink"><defs /><polyline points="370.300530258573,229.9673208476959 5.778182642867554,229.96732084769596 107.89005089836616,31.462684059470895 370.300530258573,229.9673208476959" style="fill:none;stroke:#000000" /><polyline points="122.64632212921502,20.65030466867724 106.04657891494135,42.594107315736245 114.24154617860647,48.79332239298655 130.84128939288016,26.849519745927545 139.601426809986,33.47626689803993 123.00168359736232,55.42006954509894 131.19665085937746,61.61928462234925 147.79639407530112,39.67548197694022 156.55653149405694,46.302229125752646 139.9567882781333,68.24603177281165 148.15175554179842,74.44524685006196 164.7514987560721,52.50144420300295 173.51163617317795,59.12819135511534 156.91189296055424,81.07199400217435 165.1068602242194,87.27120907777467 181.70660343849306,65.32740643401563 190.46674085724888,71.95415358282806 173.8669976429752,93.89795622988706 182.06196490664033,100.09717130713736 198.66170812091403,78.15336866007836 207.42184553801988,84.78011581219074 190.82210232539617,106.72391845924976 199.0170695890613,112.92313353485008 215.61681280333497,90.97933088779106 224.37695022044082,97.60607803990345 207.77720700781714,119.54988068696247 215.97217426983227,125.74909576421277 232.57191748575593,103.80529311715377 241.33205490121182,110.43204026926615 224.7323116885881,132.3758429146752 232.92727895225323,138.5750579919255 249.5270221665269,116.63125534486647 258.2871595836328,123.25800249697886 241.68741637100908,145.20180514403788 249.8823836346742,151.40102022128818 266.48212684894787,129.45721757587916 275.2422642677037,136.08396472469158 258.64252105343,158.0277673717506 266.83748831709516,164.2269824490009 283.4372315313688,142.28317980194188 292.1973689484747,148.90992695405427 275.597625735851,170.8537296011133 283.7925929995161,177.0529446783636 300.3923362137898,155.10914203295457 309.15247363254565,161.735889181767 292.55273041662196,183.67969182882598 300.7476976802871,189.8789069060763 317.34744089621074,167.9351042590173 326.10757831166666,174.56185141112968 309.50783509904295,196.5056540581887 317.70280236270804,202.704869133789 334.30254557698174,180.76106648673 343.0626829957376,187.3878136388424 326.4629397814639,209.33161628425142 334.65790704512904,215.53083136150173 337.03541579887747,212.38791630480236 337.03541579887747,254.99633249084152 326.05116410019747,254.99633249084152 326.05116410019747,211.22406590720146 315.7755737988775,211.22406590720146 315.7755737988775,254.99633249084152 304.7913221001974,254.99633249084152 304.7913221001974,211.22406590720146 294.5157317988775,211.22406590720146 294.5157317988775,254.99633249084152 283.5314801001974,254.99633249084152 283.5314801001974,211.22406590720146 273.2558897988775,211.22406590720146 273.2558897988775,254.99633249084152 262.27163810019744,254.99633249084152 262.27163810019744,211.22406590720146 251.99604779887747,211.22406590720146 251.99604779887747,254.99633249084152 241.01179610019744,254.99633249084152 241.01179610019744,211.22406590720146 230.73620579887745,211.22406590720146 230.73620579887745,254.99633249084152 219.75195410019745,254.99633249084152 219.75195410019745,211.22406590720146 209.47636379887746,211.22406590720146 209.47636379887746,254.99633249084152 198.49211210019746,254.99633249084152 198.49211210019746,211.22406590720146 188.21652179887747,211.22406590720146 188.21652179887747,254.99633249084152 177.23227010019744,254.99633249084152 177.23227010019744,211.22406590720146 166.95667979887747,211.22406590720146 166.95667979887747,254.99633249084152 155.97242810019745,254.99633249084152 155.97242810019745,211.22406590720146 145.69683779887745,211.22406590720146 145.69683779887745,254.99633249084152 134.71258610019746,254.99633249084152 134.71258610019746,211.22406590720146 124.43699579887746,211.22406590720146 124.43699579887746,254.99633249084152 113.45274410019745,254.99633249084152 113.45274410019745,211.22406590720146 103.17715379887747,211.22406590720146 103.17715379887747,254.99633249084152 92.19290210019744,254.99633249084152 92.19290210019744,211.22406590720146 81.91731179887746,211.22406590720146 81.91731179887746,254.99633249084152 70.93306010019745,254.99633249084152 70.93306010019745,211.22406590720146 60.657469798877464,211.22406590720146 60.657469798877464,254.99633249084152 49.673218100197445,254.99633249084152 49.673218100197445,211.22406590720146 39.397627798877465,211.22406590720146 39.397627798877465,254.99633249084152 28.41337610019745,254.99633249084152 28.41337610019745,228.18485047231908 30.16471643290344,224.78025918972241 28.41337610019745,223.87936016615706 28.41337610019745,211.52701859481058 35.18926705359214,215.0125738725251 39.889653120981535,205.87506180340827 0.0,185.35560658964837 5.024550620688697,175.58792127245107 44.91420374167023,196.10737648621097 49.61458980905962,186.96986441379417 9.72493668642811,166.45040920168424 14.749487307116809,156.68272388448696 54.63914042974832,177.20217909824683 59.33952649713771,168.06466702583003 19.4498733745062,147.54521181207014 24.4744239951949,137.77752649652282 64.36407711782641,158.2969817102827 69.0644631852158,149.1594696378659 29.174810062584292,128.640014424106 34.19936068327299,118.87232910855869 74.0890138059045,139.39178432231856 78.7893998732939,130.25427224990176 38.89974675066239,109.73481703614186 43.92429737135108,99.96713172059455 83.81395049398259,120.48658693435443 88.51433655972201,111.34907486193762 48.624683438740476,90.82961964817774 53.649234059429176,81.06193433263041 93.53888718041071,101.5813895463903 98.2392732478001,92.44387747397349 58.349620126818564,71.9244222602136 63.374170747507264,62.15673694466628 103.2638238684888,82.67619215842616 107.96420993587819,73.53868008600935 68.07455681489665,53.01922487224947 73.09910743558535,43.25153955670215 112.98876055656689,63.77099477046203 117.68914662395628,54.63348269804522 77.79949350297476,34.11402748428534 82.74300298533862,24.503885479933135 95.34793537395991,0.0 122.64632212921502,20.65030466867724" style="fill:none;stroke:#ff0000" /><polyline points="394.9584885528345,242.41759264150153 -15.20757355831755,242.41759264150153 99.6902459328212,19.057171216684537 394.9584885528345,242.41759264150153" style="fill:none;stroke:#ff0000" /></svg>