<?xml version="1.0" encoding="utf-8" ?>
<svg baseProfile="full" height="76mm" version="1.1" width="95mm" xmlns="http://www.w3.org/2000/svg" xmlns:ev="http://www.w3.org/2001/xml-events" xmlns:xlink="http://www.w3.org/1999/xlink"><defs /><polyline points="368.1387845824777,248.13501193705707 19.788223513282247,248.13501193705707 85.34366982160735,34.74967124203988 368.1387845824777,248.13501193705707" style="fill:none;stroke:#000000" /><polyline points="102.00309473680748,24.67944455636821 84.68671571468978,47.62847834058874 92.88920704965227,53.81773450932865 110.20558607176997,30.86870072510812 118.97376646431609,37.484802142711175 101.65738744219837,60.433835928581686 109.85987877716086,66.62309209732159 127.17625780092855,43.674058311451084 135.94443819347467,50.29015973070412 118.62805917135695,73.23919351657463 126.83055050631944,79.42844968531453 144.14692952843714,56.47941589944403 152.91510992263323,63.09551731869706 135.59873089886554,86.04455110456757 143.801222235478,92.23380727330748 161.11760125759574,69.28477348743696 169.88578165014184,75.90087490669 152.56940262802414,98.84990869256052 160.7718939629866,105.03916486130042 178.0882729851043,82.09013107542991 186.8564533793004,88.70623249468295 169.5400743555327,111.65526628055346 177.74256569214518,117.84452244929336 195.0589447142629,94.89548866342285 203.827125106809,101.5115900826759 186.5107460846913,124.4606238685464 194.71323741965378,130.64988003728632 212.02961644177148,107.7008462514158 220.79779683596757,114.31694767066884 203.48141781219988,137.26598145488936 211.68390914881235,143.45523762362927 229.00028817093008,120.50620383940874 237.76846856347618,127.12230525866178 220.45208954135848,150.0713390428823 228.65458087632095,156.26059521162222 245.97095990008864,133.3115614274017 254.73914029263474,139.92766284500473 237.42276127051704,162.87669663087524 245.62525260547952,169.06595279961516 262.94163162759725,146.11691901374465 271.7098120201433,152.73302043299768 254.39343299802565,175.6820542188682 262.59592433298815,181.8713103876081 279.9123033567558,158.9222766017376 288.6804837493019,165.53837802099062 271.3641047271842,188.48741180686113 279.5665960621467,194.67666797560105 296.8829750842644,171.72763418973054 305.6511554768105,178.34373560898356 288.3347764546928,201.29276939485408 296.5372677913053,207.482025563594 313.853646813423,184.53299177772348 322.6218272059691,191.1490931969765 305.3054481838514,214.09812698284702 313.5079395188139,220.28738315158694 330.8243185409316,197.33834936571643 339.59249893512765,203.95445078496945 322.27611991135996,226.90348457083996 330.4786112479724,233.09274073957988 332.3296423970047,230.63960799714482 332.3296423970047,272.45391523161015 321.3453906983247,272.45391523161015 321.3453906983247,230.17996144480693 311.0698003970047,230.17996144480693 311.0698003970047,272.45391523161015 300.0855486983247,272.45391523161015 300.0855486983247,230.17996144480693 289.8099583970047,230.17996144480693 289.8099583970047,272.45391523161015 278.82570669832467,272.45391523161015 278.82570669832467,230.17996144480693 268.55011639700473,230.17996144480693 268.55011639700473,272.45391523161015 257.5658646983247,272.45391523161015 257.5658646983247,230.17996144480693 247.2902743970047,230.17996144480693 247.2902743970047,272.45391523161015 236.30602269832468,272.45391523161015 236.30602269832468,230.17996144480693 226.03043239700472,230.17996144480693 226.03043239700472,272.45391523161015 215.0461806983247,272.45391523161015 215.0461806983247,230.17996144480693 204.7705903970047,230.17996144480693 204.7705903970047,272.45391523161015 193.7863386983247,272.45391523161015 193.7863386983247,230.17996144480693 183.5107483970047,230.17996144480693 183.5107483970047,272.45391523161015 172.5264966983247,272.45391523161015 172.5264966983247,230.17996144480693 162.2509063970047,230.17996144480693 162.2509063970047,272.45391523161015 151.2666546983247,272.45391523161015 151.2666546983247,230.17996144480693 140.99106439700472,230.17996144480693 140.99106439700472,272.45391523161015 130.0068126983247,272.45391523161015 130.0068126983247,230.17996144480693 119.73122239700471,230.17996144480693 119.73122239700471,272.45391523161015 108.74697069832469,272.45391523161015 108.74697069832469,230.17996144480693 98.47138039700471,230.17996144480693 98.47138039700471,272.45391523161015 87.4871286983247,272.45391523161015 87.4871286983247,230.17996144480693 77.21153839700472,230.17996144480693 77.21153839700472,272.45391523161015 66.22728669832469,272.45391523161015 66.22728669832469,230.17996144480693 55.95169639865469,230.17996144480693 55.95169639865469,272.45391523161015 44.96744469997468,272.45391523161015 44.96744469997468,230.17996144480693 34.69185439865469,230.17996144480693 34.69185439865469,236.21869952997397 0.0,225.5607977694441 3.2257465150485003,215.0608765881473 46.10576832558701,228.23431651687395 49.12340216245818,218.41180960422048 6.243380353569656,205.23836967549383 9.469126868618156,194.73844849419703 52.349148677506676,207.91188842292368 55.36678251602783,198.08938151027021 12.486760707139313,184.91594158154356 15.712507220537832,174.41602040189673 58.59252903107634,187.58946032897342 61.61016286959749,177.76695341796994 18.73014106070897,164.5935134875933 21.95588757410749,154.09359230794647 64.83590938464599,167.26703223502315 67.85354321986719,157.44452532401968 24.973521414278625,144.27108539364303 28.199267927677145,133.7711642139962 71.07928973656567,146.9446041410729 74.09692357343684,137.12209723006941 31.2169017661983,123.94865729969278 34.4426482812468,113.44873612004595 77.32267008848534,126.62217604712264 80.3403039270065,116.79966913611916 37.46028211976795,103.62622920574252 40.68602863481646,93.12630802609569 83.566050442055,106.29974795317237 86.58368428057615,96.4772410421689 43.70366247333761,83.30380111179225 46.92940898673613,72.80387993214542 89.80943079562465,85.9773198592221 92.82706463249583,76.15481294821863 49.94704282690727,62.98137301784199 53.17278934030579,52.48145183819516 96.05281114919431,65.65489176527184 99.07044498606548,55.83238485426837 92.99852542367482,53.96699243483979 92.92391800141989,54.065868086352836 92.78249573784898,53.95915677289957 92.81835015772921,53.91163966268282 56.19042318047693,42.65894492389173 59.36414152433111,32.32837731016825 69.29594469301317,0.0 102.00309473680748,24.67944455636821" style="fill:none;stroke:#ff0000" /><polyline points="392.8194575344414,259.87517538227013 2.6170254111266584,259.87517538227013 76.04849774732975,20.853086072122228 392.8194575344414,259.87517538227013" style="fill:none;stroke:#ff0000" /></svg>