<?xml version="1.0" encoding="utf-8" ?>
<svg baseProfile="full" height="65mm" version="1.1" width="93mm" xmlns="http://www.w3.org/2000/svg" xmlns:ev="http://www.w3.org/2001/xml-events" xmlns:xlink="http://www.w3.org/1999/xlink"><defs /><polyline points="357.4802894320342,207.3426871518826 24.44712385018983,207.3426871518826 80.41618906035664,-8.755455885670695 357.4802894320342,207.3426871518826" style="fill:none;stroke:#000000" /><polyline points="129.57825192802133,6.755433658619178 111.99159824509637,29.303662501070164 120.094093022272,35.623261729089734 137.68074670519698,13.075032888288723 146.34203422369166,19.8304665469079 128.75538054076668,42.37869538770891 136.85787531794233,48.69829461737845 154.4445290008673,26.150065776577446 163.10581651936198,32.905499433546645 145.519162836437,55.45372827599763 153.62165761361265,61.773327505667176 171.20831129653763,39.22509866321619 179.8695988150323,45.98053232183537 162.28294513045734,68.52876116428635 170.38543990763299,74.84836039230592 187.97209359220795,52.30013155150491 196.63338111070263,59.05556521012409 179.04672742612766,81.6037940509251 187.1492222033033,87.92339328059464 204.73587588787828,65.37516443814366 213.39716340637295,72.13059809676284 195.81050972179798,94.67882693921382 203.91300449897363,100.99842616888337 221.49965818354858,78.45019732643237 230.16094570204328,85.20563098505156 212.5742920174683,107.75385982585256 220.67678679464396,114.07345905552211 238.2634404792189,91.5252302147211 246.92472799771357,98.2806638716903 229.33807431313863,120.82889271414129 237.44056909031428,127.14849194381082 255.02722277488922,104.60026310135984 263.6885102933839,111.35569675997903 246.10185660880896,133.90392560243 254.2043513859846,140.22352483044958 271.79100507055955,117.67529598964856 280.45229258905425,124.43072964826774 262.8656389044793,146.97895848906876 270.96813368165493,153.2985577187383 288.5547873662299,130.7503288762873 297.21607488307455,137.5057625349065 279.6294212001496,160.05399137735748 287.73191597732523,166.373590607027 305.3185696602502,143.82536176457603 313.9798571770949,150.5807954231952 296.39320349581993,173.12902426399623 304.4956982729956,179.44862349366576 322.08235195427056,156.90039465286475 330.7436394727652,163.65582831148393 313.1569857898403,186.20405715228495 318.6999239889496,190.5273117715479 318.6999239889496,231.04584288415444 307.71567229026954,231.04584288415444 307.71567229026954,190.07561550532327 297.44008199059954,190.07561550532327 297.44008199059954,231.04584288415444 286.45583029191954,231.04584288415444 286.45583029191954,190.07561550532327 276.18023999059955,190.07561550532327 276.18023999059955,231.04584288415444 265.19598829191955,231.04584288415444 265.19598829191955,190.07561550532327 254.92039799059955,190.07561550532327 254.92039799059955,231.04584288415444 243.93614629191956,231.04584288415444 243.93614629191956,190.07561550532327 233.66055599059956,190.07561550532327 233.66055599059956,231.04584288415444 222.67630429191954,231.04584288415444 222.67630429191954,190.07561550532327 212.40071399059957,190.07561550532327 212.40071399059957,231.04584288415444 201.41646229191954,231.04584288415444 201.41646229191954,190.07561550532327 191.14087199059955,190.07561550532327 191.14087199059955,231.04584288415444 180.15662029191955,231.04584288415444 180.15662029191955,190.07561550532327 169.88102999059956,190.07561550532327 169.88102999059956,231.04584288415444 158.89677829191953,231.04584288415444 158.89677829191953,190.07561550532327 148.62118799059957,190.07561550532327 148.62118799059957,231.04584288415444 137.63693629191954,231.04584288415444 137.63693629191954,190.07561550532327 127.36134599059956,190.07561550532327 127.36134599059956,231.04584288415444 116.37709429191955,231.04584288415444 116.37709429191955,190.07561550532327 106.10150399059955,190.07561550532327 106.10150399059955,231.04584288415444 95.11725229191954,231.04584288415444 95.11725229191954,190.07561550532327 84.84166199059956,190.07561550532327 84.84166199059956,231.04584288415444 73.85741029191955,231.04584288415444 73.85741029191955,190.07561550532327 63.58181999059956,190.07561550532327 63.58181999059956,231.04584288415444 52.59756829191954,231.04584288415444 52.59756829191954,190.07561550532327 42.321977990599564,190.07561550532327 42.321977990599564,195.68420231944944 0.0,184.72287931798468 2.754031946316385,174.0894841215038 53.83948867919085,187.32053376855984 56.41584114376909,177.37316406463424 5.330384410894632,164.1421144175782 8.084416357211017,153.50871921944736 59.1698730884355,166.7397688665034 61.74622555466373,156.7923991642278 10.660768821789263,143.56134951717175 13.414800766455668,132.9279543190409 64.50025749933013,146.15900396609695 67.07660996555836,136.2116342638213 15.991153232683896,122.9805846167653 18.7451851773503,112.34718941863446 69.83064191022477,125.57823906569048 72.406994374803,115.63086936176488 21.321537643578527,102.39981971470885 24.07556958824493,91.76642451822799 75.1610263211194,104.99747416528402 77.73737878569764,95.05010446135843 26.651922052823178,81.8190548143024 29.405953999139562,71.18565961782154 80.49141073201403,84.41670926487757 83.06776319659227,74.46933956095197 31.98230646371781,61.23828991389594 34.73633841003419,50.6048947157651 85.82179514125868,63.835944362821124 88.3981476074869,53.88857466054551 37.31269087461244,40.65752501348948 40.066722819278844,30.024129815358645 91.15217955215331,43.25517946241467 93.72853201838154,33.30780975848907 42.643075285507074,20.07676011308303 45.397107230173475,9.443364914952188 96.48256396304794,22.674414562008213 97.66057565996012,18.12607809211208 103.33031072660168,22.54822884245099 120.91696440952666,0.0 129.57825192802133,6.755433658619178" style="fill:none;stroke:#ff0000" /><polyline points="380.565483950135,218.46710303481444 4.254085702348986,218.46710303481444 67.4964272016315,-25.71336536835285 380.565483950135,218.46710303481444" style="fill:none;stroke:#ff0000" /></svg>