<?xml version="1.0" encoding="utf-8" ?>
<svg baseProfile="full" height="43mm" version="1.1" width="53mm" xmlns="http://www.w3.org/2000/svg" xmlns:ev="http://www.w3.org/2001/xml-events" xmlns:xlink="http://www.w3.org/1999/xlink"><defs /><polyline points="172.39268087865307,133.60869886286255 -30.344826652992385,133.60869886286255 149.79628149461587,1.7749484588628617 172.39268087865307,133.60869886286255" style="fill:none;stroke:#000000" /><polyline points="145.5939208078991,22.73165766778168 146.2647304686509,22.2407349998627 147.7294381589683,30.786251700981726 169.5795302481204,27.04113024409285 171.4351783720541,37.867503385158734 149.585086282902,41.61262484204761 151.32101517031904,51.740522302288205 173.17110725947114,47.99540084539934 175.02675538340486,58.82177398646522 153.17666329425276,62.56689544335409 154.9125921833198,72.69479290359469 176.7626842724719,68.94967144670582 178.61833239475564,79.77604458777171 156.76824030560354,83.52116604466057 158.50416919467057,93.64906350490118 180.35426128382267,89.9039420480123 182.2099094061064,100.73031518907818 160.3598173169543,104.47543664596705 162.09574620602132,114.60333410620765 183.94583829517342,110.85821264931879 185.77155661039046,121.50996686976585 191.1947288768737,153.15027942318645 147.08116925522273,153.15027942318645 147.08116925522273,121.14320951484339 136.80557895390277,121.14320951484339 136.80557895390277,153.15027942318645 125.82132725522274,153.15027942318645 125.82132725522274,121.14320951484339 115.54573695390276,121.14320951484339 115.54573695390276,153.15027942318645 104.56148525522275,153.15027942318645 104.56148525522275,121.14320951484339 94.28589495390275,121.14320951484339 94.28589495390275,153.15027942318645 83.30164325522274,153.15027942318645 83.30164325522274,121.14320951484339 73.02605295390276,121.14320951484339 73.02605295390276,153.15027942318645 62.041801255222744,153.15027942318645 62.041801255222744,121.14320951484339 51.76621095390276,121.14320951484339 51.76621095390276,153.15027942318645 40.781959255222745,153.15027942318645 40.781959255222745,121.14320951484339 30.50636895390276,121.14320951484339 30.50636895390276,153.15027942318645 19.522117255222746,153.15027942318645 19.522117255222746,121.14320951484339 11.12178487972301,121.14320951484339 16.635845723631896,117.10782121053741 0.0,94.37616354275573 8.864080549355059,87.88911017217407 25.49992626968699,110.62076784160574 33.792130658133615,104.55223404166969 17.156284934501723,81.820576375538 26.020365482206802,75.33352300495635 42.656211204188715,98.065180674388 50.94841559098536,91.99664687445197 34.31256986900345,69.2649892066703 43.176650416708526,62.777935837738625 59.81249613869044,85.5095935055203 68.10470052548709,79.44105970723425 51.468854801855194,56.70940203945256 60.33293535121025,50.222348668870914 76.96878107154218,72.95400633830258 85.26098545998882,66.88547253836653 68.62513973635691,44.15381487223483 77.489220284062,37.666761501653184 94.12506600604391,60.398419171084846 102.41727039284055,54.329885371148805 85.78142467085864,31.598227703367126 94.64550521856373,25.111174334435457 111.28135094054564,47.842832002217136 119.57355532734228,41.774298203931075 102.93770960536037,19.042640536149396 111.80179015306544,12.555587165567747 128.43763587339737,35.287244834999406 136.729840261844,29.218711035063365 120.09399453821212,6.487053368931669 128.95807508756718,0.0 145.5939208078991,22.73165766778168" style="fill:none;stroke:#ff0000" /><polyline points="176.27655107010753,140.57153957384642 5.873448527796557,140.57153957384642 157.28402912450875,29.76382391014778 176.27655107010753,140.57153957384642" style="fill:none;stroke:#ff0000" /></svg>