<?xml version="1.0" encoding="utf-8" ?>
<svg baseProfile="full" height="55mm" version="1.1" width="82mm" xmlns="http://www.w3.org/2000/svg" xmlns:ev="http://www.w3.org/2001/xml-events" xmlns:xlink="http://www.w3.org/1999/xlink"><defs /><polyline points="258.35150380787195,174.24777864860454 -10.266418396708058,174.24777864860454 151.31866936317724,20.23105345538904 258.35150380787195,174.24777864860454" style="fill:none;stroke:#000000" /><polyline points="168.2027114336548,55.10954177868297 175.76899728936914,47.89764750264385 184.36504516701248,39.70422345456364 190.10256946788994,47.960332039174425 170.34775955454074,61.68879754378082 176.21175062942177,70.12688765317702 195.96656054277096,56.3984221502206 202.23496479210075,65.41844950905273 182.48015487875156,79.14691501200915 188.3441459536326,87.58500512140535 208.09895586698178,73.85653961679894 214.36736011796154,82.87656697563108 194.61255020461235,96.60503248023747 200.4765412794934,105.04312258963367 220.2313511928426,91.31465708502726 226.49975544217236,100.3346844438594 206.74494552882317,114.06314994846579 212.60893660370422,122.50124005786199 232.3637465170534,108.77277455325559 238.63215076803317,117.79280191208773 218.87734085468398,131.52126741669412 224.74133192956504,139.95935752609032 244.49614184291423,126.23089202148391 250.764546092244,135.25091938031605 231.0097361788948,148.97938488492244 236.87372725377585,157.41747499596863 256.62853716712505,143.6890094913622 262.7958381240801,152.56355253659788 292.8738019553277,195.84475230833766 256.4249380364465,195.84475230833766 256.4249380364465,159.3722039003407 246.1493477351265,159.3722039003407 246.1493477351265,195.84475230833766 235.1650960364465,195.84475230833766 235.1650960364465,159.3722039003407 224.8895057351265,159.3722039003407 224.8895057351265,195.84475230833766 213.90525403644648,195.84475230833766 213.90525403644648,159.3722039003407 203.6296637351265,159.3722039003407 203.6296637351265,195.84475230833766 192.6454120364465,195.84475230833766 192.6454120364465,159.3722039003407 182.3698217351265,159.3722039003407 182.3698217351265,195.84475230833766 171.3855700364465,195.84475230833766 171.3855700364465,159.3722039003407 161.1099797351265,159.3722039003407 161.1099797351265,195.84475230833766 150.1257280364465,195.84475230833766 150.1257280364465,159.3722039003407 139.8501377351265,159.3722039003407 139.8501377351265,195.84475230833766 128.86588603644648,195.84475230833766 128.86588603644648,159.3722039003407 118.5902957351265,159.3722039003407 118.5902957351265,195.84475230833766 107.60604403644649,195.84475230833766 107.60604403644649,159.3722039003407 97.33045373512651,159.3722039003407 97.33045373512651,195.84475230833766 86.3462020364465,195.84475230833766 86.3462020364465,159.3722039003407 76.0706117351265,159.3722039003407 76.0706117351265,195.84475230833766 65.0863600364465,195.84475230833766 65.0863600364465,159.3722039003407 54.810769735126506,159.3722039003407 54.810769735126506,195.84475230833766 43.826518036446494,195.84475230833766 43.826518036446494,171.12977223544743 45.090263615357806,172.45561811410275 52.52830734072103,165.36595933340075 0.0,110.25641755801774 7.951012253367636,102.67781679431731 60.479319592438685,157.78735857300026 67.9173633178019,150.69769979229827 15.389055977080874,95.58815801526528 23.34006823044851,88.00955725156484 75.86837556951956,143.1190990302478 83.30641929488277,136.02944024954581 30.778111954161748,80.91989847251281 38.72912420752939,73.34129771046236 91.25743154660043,128.45083948749533 98.69547527196366,121.36118070679333 46.16716793124262,66.25163893306032 54.11818018461026,58.67303816935988 106.6464875236813,113.78257994639286 114.08453124904453,106.69292116569085 61.556223908323496,51.583379390307854 69.50723616169114,44.00477862660741 122.03554350076219,99.11432040364039 129.4735872261254,92.0246616229384 76.94527988540437,36.91511984755539 84.89629213877201,29.33651908550493 137.42459947784306,84.44606086088793 144.8626432032063,77.35640208018593 92.33433586248525,22.246860306452906 100.28534811585288,14.668259542752464 152.81365545492392,69.77780131978545 160.25169918028715,62.68814254073342 107.72339183956612,7.5786007637004404 115.67440409293376,0.0 168.2027114336548,55.10954177868297" style="fill:none;stroke:#ff0000" /><polyline points="268.81437704573335,183.26601245899766 51.979987495112205,183.26601245899766 182.41508124082847,58.940270105341334 268.81437704573335,183.26601245899766" style="fill:none;stroke:#ff0000" /></svg>