<?xml version="1.0" encoding="utf-8" ?>
<svg baseProfile="full" height="37mm" version="1.1" width="50mm" xmlns="http://www.w3.org/2000/svg" xmlns:ev="http://www.w3.org/2001/xml-events" xmlns:xlink="http://www.w3.org/1999/xlink"><defs /><polyline points="139.1415660725576,117.916124338956 -18.52518266327971,117.91612433895597 169.2446719911817,-2.8041559658059696 139.1415660725576,117.916124338956" style="fill:none;stroke:#000000" /><polyline points="159.25341239363414,10.812008800055109 158.93478820394665,12.089764040083162 160.2925823509019,12.428346926718197 161.87124961351287,14.883826004690837 164.1819837326799,13.398217618580977 179.55747825275537,17.23228873724142 176.89980152797986,27.890175011050584 156.27711147917114,22.74765031224235 153.79089776644892,32.71793102228799 174.41358781690764,37.86045571779627 171.75591108883216,48.51834198995545 151.13322104167344,43.37581729444718 148.64700732895122,53.346098002842844 169.26969737610995,58.4886227000011 166.61202065133443,69.14650897381027 145.98933060252574,64.00398427500203 143.50311688980352,73.97426498504768 164.1258069402622,79.11678968220593 161.46813021218674,89.7746759560151 140.845440165028,84.63215125720686 138.3592264523058,94.60243196725251 158.9819165011145,99.74495666441076 156.36710552770234,110.2309415427416 150.3683912667983,134.287145874419 134.54047335371584,134.287145874419 134.54047335371584,109.41997858902862 124.26488305239585,109.41997858902862 124.26488305239585,134.287145874419 113.28063135371583,134.287145874419 113.28063135371583,109.41997858902862 103.00504105239585,109.41997858902862 103.00504105239585,134.287145874419 92.02078935371583,134.287145874419 92.02078935371583,109.41997858902862 81.74519905239585,109.41997858902862 81.74519905239585,134.287145874419 70.76094735371584,134.287145874419 70.76094735371584,109.41997858902862 60.48535705239585,109.41997858902862 60.48535705239585,134.287145874419 49.50110535371583,134.287145874419 49.50110535371583,109.41997858902862 39.22551505239585,109.41997858902862 39.22551505239585,134.287145874419 28.241263353715834,134.287145874419 28.241263353715834,109.41997858902862 17.965673052395847,109.41997858902862 17.965673052395847,134.287145874419 6.981421353715832,134.287145874419 6.981421353715832,114.46500487868012 9.569052767622983,112.80137473879444 0.0,97.9175487341036 9.239467909921995,91.97734519329846 18.808520677544976,106.86117119633931 27.451893884825218,101.3042065921071 17.882841117202236,86.42038058576628 27.12230902712423,80.48017704331116 36.691361794747216,95.364003048002 45.33473500037747,89.8070384421198 35.76568223440447,74.92321243577899 45.005150144326464,68.98300889497385 54.57420291194945,83.8668348980147 63.2175761175797,78.3098702937825 53.648523351606705,63.42604428744167 62.88799125987872,57.48584074498655 72.45704402915169,72.36966674967738 81.10041723478194,66.81270214379519 71.53136446880895,51.928876139104354 80.77083237708095,45.98867259664923 90.33988514635392,60.87249860134007 98.98325835198418,55.315533995457876 89.41420558601118,40.43170798911706 98.65367349428318,34.491504446661935 108.22272626355615,49.37533045135277 116.86609946918641,43.818365845470574 107.29704670321341,28.93453984077974 116.53651461148543,22.994336298324615 126.10556737910841,37.87816230301545 134.74894058638864,32.32119769713326 125.17988782041564,17.437371690792443 134.41935572868766,11.497168148337318 143.98840849631065,26.380994153028155 152.6317817035909,20.82402954714596 143.0627289359679,5.940203542455124 152.30219684588988,0.0 159.25341239363414,10.812008800055109" style="fill:none;stroke:#ff0000" /><polyline points="140.54113117662015,121.708406025079 18.974759899571627,121.708406025079 163.75163929012527,28.629005748154345 140.54113117662015,121.708406025079" style="fill:none;stroke:#ff0000" /></svg>