<?xml version="1.0" encoding="utf-8" ?>
<svg baseProfile="full" height="71mm" version="1.1" width="96mm" xmlns="http://www.w3.org/2000/svg" xmlns:ev="http://www.w3.org/2001/xml-events" xmlns:xlink="http://www.w3.org/1999/xlink"><defs /><polyline points="370.3008332627163,229.9670406149734 5.7781951526125255,229.96704061497346 107.89021562597446,31.4626710688323 370.3008332627163,229.9670406149734" style="fill:none;stroke:#000000" /><polyline points="122.64646261188872,20.650255322698495 106.04672599918862,42.5940903456827 114.24169885133905,48.793298039268485 130.84143546238917,26.849463014634296 139.60157885407585,33.4762022699381 123.00184224137577,55.42003729292231 131.1968150935262,61.61924498650809 147.7965517045763,39.6754099618739 156.556695096263,46.30214921717771 139.95695848356291,68.24598424016192 148.15193133571333,74.4451919337477 164.75166794676346,52.50135690911351 173.51181133845014,59.128096164417315 156.91207472575005,81.07193118740153 165.10704757790046,87.27113888098731 181.7067841889506,65.32730385635311 190.46692758063728,71.95404311165693 173.86719096793718,93.89787813464113 182.06216382008762,100.09708582822691 198.66190043113772,78.15325080359273 207.42204382117444,84.77999005889653 190.82230720847434,106.72382508188073 199.01728006062476,112.92303277546652 215.6170166716749,90.97919775083233 224.37716006336157,97.60593700613614 207.77742345066147,119.54977202912035 215.97239630281192,125.74897972270612 232.57213291386202,103.80514469807194 241.3322763055487,110.43188395337575 224.7325396928486,132.37571897635996 232.92751254499905,138.57492666994574 249.52724915604915,116.63109164366156 258.28739254773586,123.25783089896538 241.68765593503576,145.20166592359956 249.88262878718618,151.40087361718534 266.4823653982363,129.45703859090116 275.24250878992297,136.08377784620498 258.64277217722287,158.02761287083916 266.8377450293733,164.22682056277498 283.43748164042347,142.2829855381408 292.19762503046013,148.90972479344458 275.59788841776003,170.8535598164288 283.7928612699105,177.05276751001458 300.3925978809606,155.1089324853804 309.1527412726473,161.73567174068418 292.5530046599472,183.6795067636684 300.74797751209763,189.87871445725418 317.34771412314774,167.93487943262 326.10785751483445,174.5616186879238 309.50812090213435,196.505453710908 317.70309375428474,202.7046614044938 334.3028303653349,180.7608263798596 343.06297375702155,187.3875656351634 326.46323714432145,209.33140065814763 334.6582099964719,215.5306083517334 337.03557355850114,212.38787934193024 337.03557355850114,254.99601901757046 326.05132185982114,254.99601901757046 326.05132185982114,211.2238224475699 315.77573155850115,211.2238224475699 315.77573155850115,254.99601901757046 304.79147985982115,254.99601901757046 304.79147985982115,211.2238224475699 294.51588955850116,211.2238224475699 294.51588955850116,254.99601901757046 283.53163785982116,254.99601901757046 283.53163785982116,211.2238224475699 273.25604755850117,211.2238224475699 273.25604755850117,254.99601901757046 262.2717958598211,254.99601901757046 262.2717958598211,211.2238224475699 251.99620555850115,211.2238224475699 251.99620555850115,254.99601901757046 241.01195385982115,254.99601901757046 241.01195385982115,211.2238224475699 230.73636355850115,211.2238224475699 230.73636355850115,254.99601901757046 219.75211185982113,254.99601901757046 219.75211185982113,211.2238224475699 209.47652155850116,211.2238224475699 209.47652155850116,254.99601901757046 198.49226985982114,254.99601901757046 198.49226985982114,211.2238224475699 188.21667955850114,211.2238224475699 188.21667955850114,254.99601901757046 177.23242785982114,254.99601901757046 177.23242785982114,211.2238224475699 166.95683755850115,211.2238224475699 166.95683755850115,254.99601901757046 155.97258585982115,254.99601901757046 155.97258585982115,211.2238224475699 145.69699555850116,211.2238224475699 145.69699555850116,254.99601901757046 134.71274385982113,254.99601901757046 134.71274385982113,211.2238224475699 124.43715355850115,211.2238224475699 124.43715355850115,254.99601901757046 113.45290185982114,254.99601901757046 113.45290185982114,211.2238224475699 103.17731155850116,211.2238224475699 103.17731155850116,254.99601901757046 92.19305985982113,254.99601901757046 92.19305985982113,211.2238224475699 81.91746955850115,211.2238224475699 81.91746955850115,254.99601901757046 70.93321785982114,254.99601901757046 70.93321785982114,211.2238224475699 60.657627558501154,211.2238224475699 60.657627558501154,254.99601901757046 49.67337585982114,254.99601901757046 49.67337585982114,211.2238224475699 39.397785558501155,211.2238224475699 39.397785558501155,254.99601901757046 28.41353385982114,254.99601901757046 28.41353385982114,228.184387217082 30.164724658058223,224.78009628545828 28.41353385982114,223.879271628182 28.41353385982114,211.52692272432043 35.18928654976644,215.01241676794385 39.88968316218376,205.87491012066423 0.0,185.35538124020715 5.024561893358199,175.5877017226927 44.914245053891975,196.1072306031498 49.614641666309296,186.9697239542202 9.724958504125537,166.4501950754131 14.749520397483737,156.68251555624866 54.63920355801751,177.20204443670576 59.339600170434835,168.06453778942614 19.449917009901057,147.54500890896904 24.474478903259254,137.7773293914546 64.36416206379303,158.2968582719117 69.06455867621035,149.1593516229821 29.174875514026592,128.63982274417498 34.19943740738479,118.87214322501057 74.08912056791857,139.39167210711764 78.78951718033589,130.25416545818803 38.89983401815213,109.73463657938093 43.92439591151033,99.96695706021652 83.81407907204411,120.48648594067359 88.51447568446143,111.34897929174399 48.624792522277666,90.8294504129369 53.64935441563587,81.06177089377248 93.53903757616965,101.58129977587953 98.23943418858697,92.44379312694994 58.349751026403204,71.92426424814283 63.3743129197614,62.15658472897841 103.26399608029519,82.67611360943549 107.9643926927125,73.53860696215588 68.07470953052874,53.019078081698794 73.09927142553693,43.25139856418435 112.98895458442072,63.77092744464144 117.68935119848801,54.633420795711835 77.79966803630425,34.113891916904734 82.74318860983973,24.503755616536502 95.3480899557204,0.0 122.64646261188872,20.650255322698495" style="fill:none;stroke:#ff0000" /><polyline points="394.95880419418046,242.41727916823046 -15.207603102875527,242.41727916823046 99.69039279762102,19.057148473347826 394.95880419418046,242.41727916823046" style="fill:none;stroke:#ff0000" /></svg>