<?xml version="1.0" encoding="utf-8" ?>
<svg baseProfile="full" height="55mm" version="1.1" width="57mm" xmlns="http://www.w3.org/2000/svg" xmlns:ev="http://www.w3.org/2001/xml-events" xmlns:xlink="http://www.w3.org/1999/xlink"><defs /><polyline points="182.01049377883675,177.22272820018762 8.240258831075971,177.22272820018762 137.28947746004886,-4.923359272840852 182.01049377883675,177.22272820018762" style="fill:none;stroke:#000000" /><polyline points="133.706803841366,11.862406369146074 133.1719371447164,11.993728335693381 135.6220608813353,21.972939214258663 158.98487719548993,16.23683527468835 161.60397498427565,26.904267587237513 138.24115866847103,32.640371525157846 140.69128240508994,42.61958240372313 164.0540987192446,36.883478464152816 166.67319650638032,47.550910778351955 143.3103801922257,53.28701471627229 145.7605039288446,63.26622559318759 169.12332024299923,57.53012165361728 171.74241803013496,68.19755396781642 148.37960171433036,73.93365790573675 150.82972545259923,83.91286878265205 174.19254176675386,78.17676484473172 176.81163955223963,88.84419715728089 153.448823238085,94.58030109520122 155.8989469763539,104.55951197376649 179.26176328720857,98.82340803419619 181.8808610759943,109.49084034674534 158.51804476183963,115.22694428466568 160.96816849845854,125.20615516323096 184.3309848109632,119.47005122366065 186.90783908588222,129.9654281793638 202.9115313880072,195.14753220357716 172.0213896940611,195.14753220357716 172.0213896940611,166.73111212951838 161.74579939274113,166.73111212951838 161.74579939274113,195.14753220357716 150.7615476940611,195.14753220357716 150.7615476940611,166.73111212951838 140.48595739274114,166.73111212951838 140.48595739274114,195.14753220357716 129.50170569406112,195.14753220357716 129.50170569406112,166.73111212951838 119.22611539274112,166.73111212951838 119.22611539274112,195.14753220357716 108.24186369406111,195.14753220357716 108.24186369406111,166.73111212951838 97.96627339274113,166.73111212951838 97.96627339274113,195.14753220357716 86.98202169406112,195.14753220357716 86.98202169406112,166.73111212951838 76.70643139274112,166.73111212951838 76.70643139274112,195.14753220357716 65.72217969406111,195.14753220357716 65.72217969406111,166.73111212951838 55.44658939274113,166.73111212951838 55.44658939274113,195.14753220357716 44.46233769406111,195.14753220357716 44.46233769406111,166.73111212951838 34.186747392741125,166.73111212951838 34.186747392741125,195.14753220357716 13.22507767319076,195.14753220357716 22.984650864248334,181.372415305682 0.0,165.08795223840823 6.350040547314717,156.12520877122742 29.33469141156305,172.4096718385012 35.27505192495099,164.0251698862901 12.290401062352643,147.7407068190163 18.64044160966736,138.77796335348546 41.62509247226571,155.06242642075924 47.56545298565366,146.67792446854813 24.580802123055303,130.39346140127435 30.930842670370023,121.43071793409354 53.91549353296838,137.7151810013673 59.85585404635632,129.3306790491562 36.87120318375797,113.04621598188243 43.22124373107268,104.08347251470161 66.20589459367103,120.36793558197539 72.14625510705898,111.98343362976428 49.16160424446063,95.6989705624905 55.511644791775346,86.73622709530967 78.4962956543737,103.02069016258345 84.43665616776164,94.63618821037235 61.45200530516329,78.35172514309856 67.802045852478,69.38898167591775 90.78669671507636,85.67344474319152 96.7270572284643,77.28894279098041 73.74240636586595,61.00447972370664 80.09244691318067,52.04173625652581 103.07709777577902,68.32619932544956 109.01745828916697,59.94169737323847 86.03280742656861,43.657234305964685 92.38284797388333,34.694490838783864 115.36749883648169,50.97895390605764 121.30785934986963,42.59445195384654 98.32320848727127,26.309988886572757 104.673249034586,17.347245419391932 127.65789989718435,33.63170848666571 133.5982604105723,25.247206534454605 110.61360954797394,8.962743467180825 116.96365009528866,0.0 133.706803841366,11.862406369146074" style="fill:none;stroke:#ff0000" /><polyline points="186.87083956770826,182.56879235423716 37.552846673541616,182.56879235423716 148.44278312280886,26.053562898245918 186.87083956770826,182.56879235423716" style="fill:none;stroke:#ff0000" /></svg>