<?xml version="1.0" encoding="utf-8" ?>
<svg baseProfile="full" height="38mm" version="1.1" width="51mm" xmlns="http://www.w3.org/2000/svg" xmlns:ev="http://www.w3.org/2001/xml-events" xmlns:xlink="http://www.w3.org/1999/xlink"><defs /><polyline points="156.0757782316815,117.32214579972283 -17.694456716079273,117.32214579972283 171.72123919371518,-0.7991385980817151 156.0757782316815,117.32214579972283" style="fill:none;stroke:#000000" /><polyline points="163.49502520067597,15.80787479486224 163.41928416564434,16.379710191342582 163.89055286498808,16.44213091572719 164.50305184272526,17.424315632836286 165.6948305248635,16.681112025605188 183.7800164061155,19.07654034410725 182.33772123298894,29.96568953129435 161.9769889908678,27.268859378529683 160.62774511753005,37.455482813727265 180.9884773580012,40.152312966491934 179.54618218487465,51.041462153679035 159.1854499427535,48.344632000914366 157.83620606941577,58.53125543611195 178.19693830988692,61.22808558887662 176.75464313676034,72.11723477606371 156.39391089463922,69.42040462329905 155.04466702130148,79.60702805684666 175.40539926177263,82.30385820961132 173.96310408864605,93.19300739679842 153.6023718465249,90.49617724403375 152.25312797318716,100.68280067923133 172.61386021365834,103.379630831996 171.19482786547897,114.09314858118572 168.39295373300908,135.24694980017 140.75921067001636,135.24694980017 140.75921067001636,106.8305297277612 130.48362036869636,106.8305297277612 130.48362036869636,135.24694980017 119.49936867001635,135.24694980017 119.49936867001635,106.8305297277612 109.22377836869636,106.8305297277612 109.22377836869636,135.24694980017 98.23952667001635,135.24694980017 98.23952667001635,106.8305297277612 87.96393636869637,106.8305297277612 87.96393636869637,135.24694980017 76.97968467001635,135.24694980017 76.97968467001635,106.8305297277612 66.70409436869636,106.8305297277612 66.70409436869636,135.24694980017 55.71984267001635,135.24694980017 55.71984267001635,106.8305297277612 45.44425236869637,106.8305297277612 45.44425236869637,135.24694980017 34.46000067001635,135.24694980017 34.46000067001635,106.8305297277612 24.184410368696366,106.8305297277612 24.184410368696366,135.24694980017 13.20015867001635,135.24694980017 13.20015867001635,106.8305297277612 6.872849950795941,106.8305297277612 0.0,95.8094367638752 9.320450063079665,89.99712259575489 20.18640566676798,107.42143822859117 28.90553637423924,101.98411207121089 18.039580772200907,84.5597964383746 27.360030835280572,78.74748227190427 38.22598643896889,96.17179790309058 46.94511714644015,90.73447174736027 36.079161542751834,73.31015611452398 45.39961160748148,67.49784194640367 56.265567211169795,84.92215757923996 64.98469791864106,79.48483142185967 54.11874231495274,62.060515789023384 63.43919237968239,56.248201622553054 74.3051479833707,73.67251725538934 83.02427869084197,68.23519109800905 72.15832308715365,50.810875465172764 81.47877315188329,44.998561297052454 92.34472875392163,62.422876929888744 101.06385946304287,56.98555077415843 90.19790385935455,39.56123514132214 99.5183539240842,33.748920973201834 110.38430952612254,51.173236606038124 119.10344023524378,45.73591044865783 108.23748463155546,28.311594815821547 117.5579346962851,22.499280649351217 128.42389029832344,39.923596280537524 137.14302100744467,34.48627012480722 126.27706540375637,17.06195449197093 135.59751546848602,11.249640323850619 146.46347107052435,28.673955956686907 155.18260177964558,23.236629799306616 144.3166461759573,5.812314166470329 153.63709624068693,0.0 163.49502520067597,15.80787479486224" style="fill:none;stroke:#ff0000" /><polyline points="157.3704407064625,122.66820995083 19.508753048483886,122.66820995083 169.7828636559751,28.95596043730356 157.3704407064625,122.66820995083" style="fill:none;stroke:#ff0000" /></svg>