<?xml version="1.0" encoding="utf-8" ?>
<svg baseProfile="full" height="46mm" version="1.1" width="62mm" xmlns="http://www.w3.org/2000/svg" xmlns:ev="http://www.w3.org/2001/xml-events" xmlns:xlink="http://www.w3.org/1999/xlink"><defs /><polyline points="196.61146000353747,143.54415725804787 -26.040350824689238,143.54415725804787 148.3048018843018,4.1359084478176085 196.61146000353747,143.54415725804787" style="fill:none;stroke:#000000" /><polyline points="146.9483856976456,27.68771779255266 148.24467380197737,26.651191959375126 149.91950623472937,31.48459309976153 171.661442209604,23.950747168705423 175.25782805398515,34.329561852445245 153.51589207911053,41.86340778350135 156.88025303078484,51.57262152144664 178.62218900565946,44.03877559204052 182.2185748516906,54.417590274130355 160.476638875166,61.95143620518646 163.84099982684032,71.66064994478174 185.58293580171494,64.12680401372563 189.17932164774606,74.50561869746545 167.43738567287147,82.03946462852156 170.8017466228958,91.74867836646686 192.54368259777038,84.21483243541076 196.14006844380154,94.59364711915057 174.39813246892695,102.12749305020668 177.76249341895127,111.83670678980195 199.50442939547585,104.30286085874585 203.100815239857,114.68167554248566 181.3588792649824,122.21552147189179 184.7232402166567,131.92473521148708 206.46517619153133,124.39088928043095 210.00355581232327,134.60230372813464 220.12303407012902,163.80611946823385 155.4999357700691,163.80611946823385 155.4999357700691,130.2233900821101 145.22434546874914,130.2233900821101 145.22434546874914,163.80611946823385 134.2400937700691,163.80611946823385 134.2400937700691,130.2233900821101 123.96450346874913,130.2233900821101 123.96450346874913,163.80611946823385 112.98025177006912,163.80611946823385 112.98025177006912,130.2233900821101 102.70466146874912,130.2233900821101 102.70466146874912,163.80611946823385 91.72040977006911,163.80611946823385 91.72040977006911,130.2233900821101 81.44481946874913,130.2233900821101 81.44481946874913,163.80611946823385 70.4605677700691,163.80611946823385 70.4605677700691,130.2233900821101 60.184977468749125,130.2233900821101 60.184977468749125,163.80611946823385 49.20072577006911,163.80611946823385 49.20072577006911,130.2233900821101 38.925135468749126,130.2233900821101 38.925135468749126,163.80611946823385 27.94088377006911,163.80611946823385 27.94088377006911,130.2233900821101 18.716393716855507,130.2233900821101 22.139395280075014,127.48632142111774 0.0,99.79860362856508 8.578888475589675,92.93883264736004 30.718283755664686,120.62655044156269 38.743695556793725,114.20934532958057 16.604300276718707,86.52162753702791 25.183188752308382,79.66185655582288 47.322584034033376,107.34957434837554 55.34799583516241,100.93236923639343 33.2086005550874,73.24465144384077 41.78748903067707,66.38488046263575 63.92688431075209,94.07259825518841 71.95229611188113,87.65539314320628 49.812900831806104,59.96767535065363 58.39178930739578,53.107904369448605 80.53118458747079,80.79562216365125 88.55659639024981,74.37841705166913 66.41720110852482,46.69069925911647 74.99608958576447,39.83092827791144 97.13548486583949,67.5186460704641 105.16089666696851,61.10144095848199 83.0215013868935,33.413723165929326 91.60038986248318,26.553952184724302 113.73978514255819,54.24166997727696 121.76519694368723,47.82446486529485 99.62580166361221,20.136747072742185 108.20469013920189,13.27697609153716 130.3440854209269,40.96469388408982 138.3694972220559,34.547488773757685 116.2301019419809,6.859770981205026 124.80899041757058,0.0 146.9483856976456,27.68771779255266" style="fill:none;stroke:#ff0000" /><polyline points="202.45184019213616,151.22737961889382 12.590410890229851,151.22737961889382 161.25940110444554,32.35006495940053 202.45184019213616,151.22737961889382" style="fill:none;stroke:#ff0000" /></svg>