<?xml version="1.0" encoding="utf-8" ?>
<svg baseProfile="full" height="93mm" version="1.1" width="75mm" xmlns="http://www.w3.org/2000/svg" xmlns:ev="http://www.w3.org/2001/xml-events" xmlns:xlink="http://www.w3.org/1999/xlink"><defs /><polyline points="251.7331506189026,305.9021495194778 28.50473740711313,305.90214951947786 149.43307405565312,-27.08841784176101 251.7331506189026,305.9021495194778" style="fill:none;stroke:#000000" /><polyline points="186.42145383078577,10.499921536042702 146.0115430991321,22.91449830462155 149.0291758536158,32.73700555057115 189.43908658361948,20.322428781992297 192.66483194368135,30.822350318035 152.25492121367768,43.236927086613846 155.2725539681614,53.05943433256344 195.68246469816506,40.644857563984594 198.90821005822693,51.1447791000273 158.49829932657326,63.55935586860615 161.51593208105697,73.38186311455574 201.92584281106065,60.967286345976895 205.1515881711225,71.4672078820196 164.74167744111884,83.88178465059845 167.75931019560255,93.70429189489806 208.16922092560623,81.28971512796919 211.3949662856681,91.7896366640119 170.98505555401445,104.20421343094075 174.00268830849814,114.02672067689035 214.41259903850184,101.61214390831151 217.6383443985637,112.11206544435422 177.22843366856,124.52664221293306 180.24606642304371,134.34914945888266 220.6559771530474,121.93457269030381 223.88172251310928,132.43449422634652 183.4718117814556,144.84907099492534 186.48944453593933,154.67157824087494 226.899355265943,142.2570014722961 230.12510062600487,152.75692300833882 189.7151898960012,165.17149977691764 192.73282265048488,174.99400702286724 233.14273338048858,162.5794302542884 236.36847874055044,173.0793517903311 195.95856800889678,185.49392855725998 198.9762007633805,195.31643580320957 239.38611149338416,182.90185903628068 242.61185685344603,193.4017805723234 202.20194612344235,205.81635733925228 205.21957887627607,215.63886458520187 245.62948960792974,203.22428781662302 248.8552349679916,213.72420935266572 208.44532423633794,226.13878612124455 211.46295699082165,235.96129336719414 251.87286772082533,223.54671659861532 255.09861308088722,234.04663813465802 214.68870235088352,246.46121490323685 217.70633510371727,256.2837221491865 258.11624583537093,243.86914538060762 261.3419911954328,254.3690669166503 220.93208046377913,266.78364368522915 223.94971321826284,276.6061509311788 264.3596239482665,264.1915741625999 267.5853693083284,274.6914956986426 227.1754585783247,287.10607246722145 230.19309133115843,296.9285797131711 235.96539836127258,295.15523383271295 235.96539836127258,331.4472020232522 224.98114666259255,331.4472020232522 224.98114666259255,286.5892878006947 214.70555636127258,286.5892878006947 214.70555636127258,331.4472020232522 203.72130466259256,331.4472020232522 203.72130466259256,286.5892878006947 193.44571436127256,286.5892878006947 193.44571436127256,331.4472020232522 182.46146266259257,331.4472020232522 182.46146266259257,286.5892878006947 172.18587236127257,286.5892878006947 172.18587236127257,331.4472020232522 161.20162066259255,331.4472020232522 161.20162066259255,286.5892878006947 150.92603036127258,286.5892878006947 150.92603036127258,331.4472020232522 139.94177866259255,331.4472020232522 139.94177866259255,286.5892878006947 129.66618836127256,286.5892878006947 129.66618836127256,331.4472020232522 118.68193666259256,331.4472020232522 118.68193666259256,286.5892878006947 108.40634636127257,286.5892878006947 108.40634636127257,331.4472020232522 97.42209466259256,331.4472020232522 97.42209466259256,286.5892878006947 87.14650436127258,286.5892878006947 87.14650436127258,331.4472020232522 76.16225266259255,331.4472020232522 76.16225266259255,286.5892878006947 65.88666236127257,286.5892878006947 65.88666236127257,331.4472020232522 54.90241066259256,331.4472020232522 54.90241066259256,286.5892878006947 44.62682036127257,286.5892878006947 44.62682036127257,292.94132075439427 44.74314138952869,292.9835637188173 44.682666655916265,293.15008809384284 44.62682036127257,293.1298070401271 44.62682036127257,331.4472020232522 0.0,331.4472020232522 13.986175659867039,292.93460276476526 41.00860773796977,302.7480271777125 44.5161422808907,293.08961336023043 17.493710202787963,283.2761889472832 21.24314367850862,272.9516776280488 48.265575758261335,282.7651020409961 51.77311029953228,273.10668822351397 24.750678223079525,263.2932638105667 28.500111697150203,252.96875249133234 55.522543776902914,262.78217690427965 59.03007831982384,253.12376308679754 32.00764624172111,243.31033867385025 35.75707971744177,232.9858273529659 62.77951179719448,242.7992517675632 66.28704634011541,233.14083794843108 39.26461426201267,223.3274135371338 43.01404773773333,213.00290221624945 70.03647981583606,222.81632663084673 73.54401435875698,213.15791281171465 46.52158228065425,203.34448840041733 50.27101575637491,193.01997707953302 77.29344783612763,202.83340149413027 80.80098237904855,193.1749876749982 53.77855030094582,183.3615632637009 57.527983776666474,173.03705194281656 84.55041585641919,182.8504763574138 88.05795039769013,173.19206253828173 61.03551832123738,163.37863812698444 64.78495179530806,153.0541268061001 91.80738387506076,162.86755122069738 95.3149184179817,153.2091374015653 68.29248633987896,143.39571298861802 72.04191981559961,133.07120166938364 99.06435189535233,142.88462608233093 102.57188643827325,133.22621226484884 75.54945436017053,123.41278785190156 79.29888783589118,113.0882765326672 106.32131991399392,122.90170094561448 109.82885445691484,113.24328712813238 82.8064223788121,103.4298627151851 86.55585585453277,93.10535139595075 113.57828793428548,102.91877580889803 117.0858224772064,93.26036199141593 90.06339039910367,83.44693758011863 93.81282387482433,73.12242626088427 120.83525595457704,82.93585067383155 124.34279049584798,73.27743685634945 97.32035841939523,63.464012443402176 101.0697918934659,53.13950112251784 128.09222397321864,62.95292553711511 131.59975851613956,53.29451171798302 104.57732643803682,43.48108730668572 108.32675991375747,33.15657598580139 135.34919199351017,42.97000040039865 138.85672653643113,33.31158658126657 111.83429445832837,23.498162169969266 115.58372793404904,13.173650849084936 142.60616001215178,22.9870752636822 146.1136945550727,13.328661444550118 143.22505836160641,12.279628817207863 183.19570847072387,0.0 186.42145383078577,10.499921536042702" style="fill:none;stroke:#ff0000" /><polyline points="267.998286679028,318.86846217391223 17.950601932167125,318.86846217391223 153.40759938106422,-54.12850184802121 267.998286679028,318.86846217391223" style="fill:none;stroke:#ff0000" /></svg>