<?xml version="1.0" encoding="utf-8" ?>
<svg baseProfile="full" height="59mm" version="1.1" width="60mm" xmlns="http://www.w3.org/2000/svg" xmlns:ev="http://www.w3.org/2001/xml-events" xmlns:xlink="http://www.w3.org/1999/xlink"><defs /><polyline points="189.4722818128249,191.0244943353863 3.199871648683237,191.0244943353863 109.3332143375218,-5.359361055792775 189.4722818128249,191.0244943353863" style="fill:none;stroke:#000000" /><polyline points="107.12070642022199,11.368001386840215 107.2464259310763,11.316698573648774 107.30885535251022,11.469684263055342 107.32244217797194,11.477027102100744 107.31336357717063,11.480731840512728 111.19574706714145,20.99466133677192 133.79270199381347,11.773440519411908 137.9428360681616,21.94350308312692 115.34588114148958,31.16472390048693 119.22826463311038,40.67865339674612 141.8252195581324,31.45743257938611 145.97535363248053,41.62749514310112 123.37839870745852,50.848715960461135 127.26078219742934,60.36264545672032 149.85773712410133,51.14142463936031 154.00787119844946,61.31148720307532 131.41091627177747,70.53270802043534 135.2932997617483,80.04663751834451 157.8902546884203,70.82541670098449 162.04038876276843,80.99547926469951 139.4434338377464,90.21670008205952 143.32581732771723,99.73062957831871 165.92277225273926,90.50940876095869 170.00596868264304,100.51543805780975 214.590810802428,209.77230195074054 186.25376774710875,209.77230195074054 186.25376774710875,179.5175725011255 175.97817744578876,179.5175725011255 175.97817744578876,209.77230195074054 164.99392574710873,209.77230195074054 164.99392574710873,179.5175725011255 154.71833544578877,179.5175725011255 154.71833544578877,209.77230195074054 143.73408374710874,209.77230195074054 143.73408374710874,179.5175725011255 133.45849344578875,179.5175725011255 133.45849344578875,209.77230195074054 122.47424174710875,209.77230195074054 122.47424174710875,179.5175725011255 112.19865144578876,179.5175725011255 112.19865144578876,209.77230195074054 101.21439974710874,209.77230195074054 101.21439974710874,179.5175725011255 90.93880944578876,179.5175725011255 90.93880944578876,209.77230195074054 79.95455774710875,209.77230195074054 79.95455774710875,179.5175725011255 69.67896744578876,179.5175725011255 69.67896744578876,209.77230195074054 58.694715747108745,209.77230195074054 58.694715747108745,179.5175725011255 48.41912544578876,179.5175725011255 48.41912544578876,209.77230195074054 37.434873747108746,209.77230195074054 37.434873747108746,179.5175725011255 29.364530997674184,179.5175725011255 31.18767466124676,176.14411819947063 0.0,159.2891065904692 5.22243364828988,149.6257752722147 36.41010830953664,166.48078688121612 41.295610754870715,157.4408962900313 10.10793609362396,140.58588468102988 15.33036974191384,130.92255336277537 46.5180444031606,147.7775649717768 51.40354685014466,138.73767438224195 20.2158721888979,121.88266277324053 25.43830583718778,112.21933145333603 56.62598049678456,129.07434306233748 61.51148294376862,120.03445247280263 30.32380828252186,103.17944086380119 35.54624193081174,93.5161095438967 66.7339165920585,110.37112115289813 71.61941903904255,101.33123056336329 40.4317443777958,84.47621895436185 45.65417802608568,74.81288763610735 76.84185268568245,91.66789924510879 81.72735513266652,82.62800865392396 50.539680471419764,65.77299704492252 55.76211411970964,56.10966572666801 86.9497887809564,72.96467733566945 91.83529122629048,63.92478674613461 60.6476165666937,47.06977513713317 65.8700502133336,37.406443817228684 97.05772487458036,54.261455426230114 101.94322732156442,45.22156483669527 70.75555266031766,28.36655322769384 75.97798630860754,18.703221907789352 107.1656609698543,35.558233516790786 112.05116341518838,26.51834292725594 80.8634887555916,9.663331318254507 86.0859224022315,0.0 107.12070642022199,11.368001386840215" style="fill:none;stroke:#ff0000" /><polyline points="195.87199759648178,197.19356210140054 34.10992988707129,197.19356210140054 126.2778948112047,26.650546716194803 195.87199759648178,197.19356210140054" style="fill:none;stroke:#ff0000" /></svg>