<?xml version="1.0" encoding="UTF-8" standalone="no"?>
<svg
   xmlns:dc="http://purl.org/dc/elements/1.1/"
   xmlns:cc="http://creativecommons.org/ns#"
   xmlns:rdf="http://www.w3.org/1999/02/22-rdf-syntax-ns#"
   xmlns:svg="http://www.w3.org/2000/svg"
   xmlns="http://www.w3.org/2000/svg"
   xmlns:sodipodi="http://sodipodi.sourceforge.net/DTD/sodipodi-0.dtd"
   xmlns:inkscape="http://www.inkscape.org/namespaces/inkscape"
   height="52mm"
   version="1.1"
   width="59mm"
   id="svg15585"
   sodipodi:docname="num21.svg">
  <metadata
     id="metadata15589">
    <rdf:RDF>
      <cc:Work
         rdf:about="">
        <dc:format>image/svg+xml</dc:format>
        <dc:type
           rdf:resource="http://purl.org/dc/dcmitype/StillImage" />
        <dc:title></dc:title>
      </cc:Work>
    </rdf:RDF>
  </metadata>
  <sodipodi:namedview
     pagecolor="#ffffff"
     bordercolor="#666666"
     inkscape:document-rotation="0"
     borderopacity="1"
     objecttolerance="10"
     gridtolerance="10"
     guidetolerance="10"
     inkscape:pageopacity="0"
     inkscape:pageshadow="2"
     inkscape:window-width="640"
     inkscape:window-height="480"
     id="namedview15587"
     showgrid="false" />
  <defs
     id="defs15579" />
  <path
     id="polyline15581"
     style="fill:none;stroke:#ff0000"
     d="M 72.943359 0 L 66.019531 33.158203 L 58.742188 31.638672 L 54.080078 38.759766 L 48.351562 47.503906 L 17.666016 27.40625 L 11.648438 36.595703 L 42.333984 56.693359 L 36.705078 65.289062 L 6.0175781 45.191406 L 0 54.378906 L 30.685547 74.476562 L 26.119141 81.449219 L 30.523438 87.658203 L 36.570312 96.183594 L 8.9414062 115.78125 L 15.296875 124.74023 L 42.925781 105.14258 L 48.871094 113.52344 L 21.242188 133.12109 L 27.595703 142.08008 L 55.224609 122.48242 L 61.169922 130.86523 L 33.541016 150.46289 L 39.896484 159.42188 L 67.525391 139.82422 L 72.421875 146.72656 L 98.896484 146.72656 L 98.896484 186.73828 L 109.88086 186.73828 L 109.88086 146.72656 L 120.15625 146.72656 L 120.15625 186.73828 L 131.14062 186.73828 L 131.14062 146.72656 L 141.41602 146.72656 L 141.41602 186.73828 L 152.40039 186.73828 L 152.40039 146.72656 L 162.67578 146.72656 L 162.67578 186.73828 L 173.66016 186.73828 L 173.66016 146.72656 L 180.125 146.72656 L 177.4707 140.63672 L 173.29297 131.05469 L 209.9707 115.06641 L 205.58203 104.99609 L 168.9043 120.98633 L 164.79883 111.56641 L 201.47461 95.578125 L 197.08594 85.507812 L 160.4082 101.49805 L 156.30273 92.078125 L 192.97852 76.089844 L 188.58984 66.019531 L 151.91211 82.009766 L 147.80664 72.589844 L 184.48242 56.601562 L 180.09375 46.53125 L 143.41602 62.521484 L 137.08398 47.996094 L 128.62695 46.230469 L 118.39453 44.09375 L 125.31836 10.935547 L 114.56641 8.6894531 L 107.64258 41.849609 L 97.583984 39.75 L 104.50586 6.5898438 L 93.753906 4.3457031 L 86.832031 37.503906 L 76.771484 35.404297 L 83.695312 2.2441406 L 72.943359 0 z M 64.566406 45.705078 L 128.15039 58.982422 L 160.91992 134.14844 L 78.921875 134.14844 L 41.341797 81.166016 L 64.566406 45.705078 z " />
</svg>
