<?xml version="1.0" encoding="UTF-8" standalone="no"?>
<svg
   xmlns:dc="http://purl.org/dc/elements/1.1/"
   xmlns:cc="http://creativecommons.org/ns#"
   xmlns:rdf="http://www.w3.org/1999/02/22-rdf-syntax-ns#"
   xmlns:svg="http://www.w3.org/2000/svg"
   xmlns="http://www.w3.org/2000/svg"
   xmlns:sodipodi="http://sodipodi.sourceforge.net/DTD/sodipodi-0.dtd"
   xmlns:inkscape="http://www.inkscape.org/namespaces/inkscape"
   height="52mm"
   version="1.1"
   width="59mm"
   id="svg8795"
   sodipodi:docname="num22.svg">
  <metadata
     id="metadata8799">
    <rdf:RDF>
      <cc:Work
         rdf:about="">
        <dc:format>image/svg+xml</dc:format>
        <dc:type
           rdf:resource="http://purl.org/dc/dcmitype/StillImage" />
        <dc:title></dc:title>
      </cc:Work>
    </rdf:RDF>
  </metadata>
  <sodipodi:namedview
     pagecolor="#ffffff"
     bordercolor="#666666"
     inkscape:document-rotation="0"
     borderopacity="1"
     objecttolerance="10"
     gridtolerance="10"
     guidetolerance="10"
     inkscape:pageopacity="0"
     inkscape:pageshadow="2"
     inkscape:window-width="640"
     inkscape:window-height="480"
     id="namedview8797"
     showgrid="false" />
  <defs
     id="defs8789" />
  <g
     id="g9364">
    <polyline
       id="polyline8791"
       style="fill:none;stroke:#ff0000"
       points="84.15052146320865,2.3174026654683804 77.22727430278752,35.47640979582555 86.93910800910268,37.504137132029086 93.86235517117379,4.345130001671918 104.96159368725546,6.662532667140298 98.03834652683433,39.821539797497465 107.75018023314948,41.849267132051025 114.67342739522059,8.690260004993815 125.77266591295223,11.007662670462196 118.84941875253111,44.166669799169384 128.9081036604629,46.266815966864144 137.4556488035496,48.05145226236842 143.75329211359252,62.49725700787553 180.43045642494732,46.50786060060369 184.96164456086166,56.901694583622145 148.28448024950686,72.89109099089399 152.24926986905064,81.98569572912884 188.92643418040544,65.996299321857 193.45762231631977,76.39013330322547 156.78045800496497,92.37952971214729 160.74524762285876,101.47413445038214 197.42241193421359,85.48473804311031 201.95360007012792,95.87857202612875 165.2764357587731,111.86796843340059 169.2412253783169,120.96257317328543 205.9183896896717,104.9731767660136 210.44957782558603,115.36701074903205 173.77241351423123,131.35640715630387 177.87880276369265,140.7758192077971 180.64173611771162,147.1135544219649 174.08223861318166,147.1135544219649 174.08223861318166,187.12456226197986 162.74365621582163,187.12456226197986 162.74365621582163,147.1135544219649 152.82239661318164,147.1135544219649 152.82239661318164,187.12456226197986 141.4838142158216,187.12456226197986 141.4838142158216,147.1135544219649 131.56255461318165,147.1135544219649 131.56255461318165,187.12456226197986 120.22397221582162,187.12456226197986 120.22397221582162,147.1135544219649 110.30271261318165,147.1135544219649 110.30271261318165,187.12456226197986 98.96413021582163,187.12456226197986 98.96413021582163,147.1135544219649 72.57536957795242,147.1135544219649 67.7286145745574,140.28042077859192 40.09913223084032,159.8780664325079 33.539271202518705,150.6297328501696 61.16875354623579,131.03208719625366 55.42887514501065,122.93979530531398 27.799392799643584,142.53744095922994 21.23953177132197,133.28910737689168 48.86901411668904,113.69146172297572 43.129135713813916,105.59916983203605 15.499653368446848,125.19681548595202 8.939792340125237,115.94848190361374 36.5692746854923,96.35083624969778 30.624400626255557,87.96953393549596 26.15095247796252,81.66270204352494 30.686135146684027,74.7381888049106 0.0,54.64042547282198 6.212338597975473,45.155157951506574 36.89847374300952,65.2529212852452 42.334270019950516,56.95331220161924 11.648134873266487,36.85554886788063 17.86047346959198,27.37028134656522 48.546608616276,47.468044680303834 54.17654047265063,38.87202098643053 58.90585848155853,31.651093507164557 66.12803578670585,33.15900712705721 73.05128294712698,0.0 84.15052146320865,2.3174026654683804" />
    <polyline
       id="polyline8793"
       style="fill:none;stroke:#ff0000"
       points="128.3965705168417,59.19098672581284 161.1654496229277,134.35764922328488 79.16649393615315,134.35764922328488 41.58675956492777,81.37635617936645 64.81191201295229,45.91518794184655 128.3965705168417,59.19098672581284" />
  </g>
</svg>
