<?xml version="1.0" encoding="utf-8" ?>
<svg baseProfile="full" height="74mm" version="1.1" width="59mm" xmlns="http://www.w3.org/2000/svg" xmlns:ev="http://www.w3.org/2001/xml-events" xmlns:xlink="http://www.w3.org/1999/xlink"><defs /><polyline points="233.71362050548413,224.7854452559675 10.485279505484039,224.7854452559675 39.27280636084406,39.451925152968535 233.71362050548413,224.7854452559675" style="fill:none;stroke:#000000" /><polyline points="55.56822399968444,25.147990901077367 30.40385253373718,51.548940244843656 37.841896767294514,58.638598486001904 63.00626823654174,32.2376491438856 70.95728103605306,39.81624933339268 45.79290956845581,66.217198675509 53.23095380366313,73.30685691831722 78.39532527126038,46.90590757620092 86.34633807242167,54.48450776405802 61.181966604824424,80.88545710782431 68.62001083838176,87.97511534898257 93.78438230762899,61.57416600686626 101.73539510714029,69.15276619637335 76.57102364119304,95.55371553848966 84.00906787475037,102.64337378129788 109.1734393439976,76.24242443918158 117.1244521435089,83.82102462703868 91.96008067591167,110.22197397080497 99.39812491111898,117.31163221196321 124.56249637871623,90.91068286984691 132.51350917987753,98.489283059354 107.34913771228028,124.89023240147031 114.78718194583762,131.97989064427853 139.95155341508485,105.57894130216224 147.90256621459616,113.15754149001934 122.7381947486489,139.55849083378564 130.17623898220623,146.6481490749439 155.34061045145344,120.24719973447755 163.29162325096476,127.82579992233465 138.1272517833675,154.22674926445097 145.56529601857483,161.31640750725919 170.72966748617208,134.9154581651429 178.6806802873334,142.49405835299999 153.51630881973614,168.8950076967663 160.95435305329346,175.98466593792455 186.1187245225407,149.58371659745822 194.06973732205202,157.1623167853153 168.90536585445477,183.56326612743163 176.3434100896621,190.65292437023984 201.5077815589093,164.25197502812355 209.45879435842062,171.83057521598064 192.4067449575331,189.7205627733519 192.4067449575331,187.88896879365467 182.1311546562131,187.88896879365467 182.1311546562131,264.02295149861527 171.14690295753311,264.02295149861527 171.14690295753311,187.88896879365467 160.87131265621312,187.88896879365467 160.87131265621312,264.02295149861527 149.8870609575331,264.02295149861527 149.8870609575331,187.88896879365467 139.61147065621313,187.88896879365467 139.61147065621313,264.02295149861527 128.6272189575331,264.02295149861527 128.6272189575331,187.88896879365467 118.35162865621312,187.88896879365467 118.35162865621312,264.02295149861527 107.36737695753311,264.02295149861527 107.36737695753311,187.88896879365467 97.09178665621312,187.88896879365467 97.09178665621312,264.02295149861527 86.1075349575331,264.02295149861527 86.1075349575331,187.88896879365467 75.83194465621312,187.88896879365467 75.83194465621312,264.02295149861527 64.84769295753311,264.02295149861527 64.84769295753311,187.88896879365467 54.57210265621312,187.88896879365467 54.57210265621312,264.02295149861527 43.58785095753311,264.02295149861527 43.58785095753311,187.88896879365467 33.31226065621312,187.88896879365467 33.31226065621312,264.02295149861527 22.328008957533108,264.02295149861527 22.328008957533108,187.88896879365467 0.0,187.88896879365467 1.5431484537955364,177.95421002243825 25.314803974910802,181.64661910065354 26.891980426980194,171.49278876357567 3.120324904214947,167.8003796886603 4.806272144546038,156.94628519376153 28.577927665661303,160.63869427032685 30.155104117730694,150.48486393489895 6.3834485966154295,146.79245485833363 8.069395836946521,135.93836036343484 31.841051356411807,139.63076944165016 33.4182278084812,129.47693910457227 9.646572287365933,125.78453002965693 11.332519527697023,114.93043553475813 35.10417504881229,118.62284461132346 36.68135150088168,108.46901427589557 12.909695978116433,104.77660519933025 14.595643218447526,93.92251070443145 38.36729873956279,97.61491978264675 39.94447519163218,87.46108944556889 16.172819668866936,83.76868037065354 17.858766909198028,72.91458587575474 41.630422430313295,76.60699495232006 43.20759888238268,66.45316461689218 19.43594335961744,62.76075554032685 21.09469790494558,52.08172708612077 29.184460167269567,0.0 55.56822399968444,25.147990901077367" style="fill:none;stroke:#ff0000" /><polyline points="194.87809733354803,175.31022894431467 14.68341153514497,175.31022894431467 37.92131821506974,25.705052140891176 194.87809733354803,175.31022894431467" style="fill:none;stroke:#ff0000" /></svg>