<?xml version="1.0" encoding="utf-8" ?>
<svg baseProfile="full" height="38mm" version="1.1" width="60mm" xmlns="http://www.w3.org/2000/svg" xmlns:ev="http://www.w3.org/2001/xml-events" xmlns:xlink="http://www.w3.org/1999/xlink"><defs /><polyline points="224.24823028803905,127.85853813578034 1.0197740267936815,127.85853813578034 104.02945989344876,22.23109286205949 224.24823028803905,127.85853813578034" style="fill:none;stroke:#000000" /><polyline points="119.36016221034411,13.543951661736447 102.5276635891704,32.701683650476184 110.24694247835629,39.48404971466156 127.07944110117998,20.32631772592182 135.3310840537373,27.57643317259241 118.49858542926361,46.73416516133214 126.2178643200995,53.51653122551752 143.05036294457318,34.358799238427764 151.3020058954805,41.608914685098355 134.4695072726568,60.76664667383809 142.18878616349267,67.54901273802346 159.02128478631636,48.39128074928373 167.2729277372237,55.641396195954314 150.4404291144,74.79912818469406 158.15970800523587,81.58149424887942 174.99220662970956,62.42376226013969 183.24384958061688,69.67387770681027 166.4113509577932,88.83160969555001 174.13062984862907,95.61397575973538 190.96312847145276,76.45624377264564 199.2147714223601,83.70635921931623 182.3822727995364,102.86409120805595 190.10155169037225,109.64645727224134 206.93405031319594,90.4887252835016 215.18569326575326,97.73884073017219 198.95211227809156,116.21492088352488 197.85053550577817,116.21492088352488 197.85053550577817,136.7496662293781 186.86628380709817,136.7496662293781 186.86628380709817,116.21492088352488 176.59069350577818,116.21492088352488 176.59069350577818,136.7496662293781 165.60644180709815,136.7496662293781 165.60644180709815,116.21492088352488 155.33085150577818,116.21492088352488 155.33085150577818,136.7496662293781 144.34659980709816,136.7496662293781 144.34659980709816,116.21492088352488 134.0710095057782,116.21492088352488 134.0710095057782,136.7496662293781 123.08675780709817,136.7496662293781 123.08675780709817,116.21492088352488 112.81116750577817,116.21492088352488 112.81116750577817,136.7496662293781 101.82691580874814,136.7496662293781 101.82691580874814,116.21492088352488 91.55132550742816,116.21492088352488 91.55132550742816,136.7496662293781 80.56707380874815,136.7496662293781 80.56707380874815,116.21492088352488 70.29148350742815,116.21492088352488 70.29148350742815,136.7496662293781 59.30723180874814,136.7496662293781 59.30723180874814,116.21492088352488 49.03164150742816,116.21492088352488 49.03164150742816,136.7496662293781 38.04738980874814,136.7496662293781 38.04738980874814,116.21492088352488 27.77179950742816,116.21492088352488 27.77179950742816,136.7496662293781 16.787547808748144,136.7496662293781 16.787547808748144,116.21492088352488 9.872807854143092,116.21492088352488 0.0,106.58679030561795 7.668982597342427,98.72291776747478 24.142460094384976,114.7881339419168 31.31666962673266,107.4316080178603 14.843192128040132,91.36639184506826 22.512174725382557,83.5025193069251 38.98565222407509,99.56773547971714 46.1598617547728,92.21120955731062 29.686384256080263,76.1459933828686 37.35536685342269,68.2821208463754 53.82884435211522,84.34733701916745 61.00305388281293,76.99081109676094 44.529576384120396,60.925594922318915 52.198558981462824,53.061722385825725 68.67203648015536,69.12693855861777 75.84624601085306,61.77041263621125 59.372768513810506,45.705196461769226 67.04175111115293,37.84132392362606 83.51522860819549,53.906540098068085 90.6894381388932,46.55001417401159 74.21596064185064,30.48479800121954 81.76124997253189,22.747762116598043 103.94525550072503,0.0 119.36016221034411,13.543951661736447" style="fill:none;stroke:#ff0000" /><polyline points="202.84033150300482,103.63618103418487 20.447459562769705,103.63618103418487 104.61339771325662,17.331354930198657 202.84033150300482,103.63618103418487" style="fill:none;stroke:#ff0000" /></svg>