<?xml version="1.0" encoding="UTF-8" standalone="no"?>
<svg
   xmlns:dc="http://purl.org/dc/elements/1.1/"
   xmlns:cc="http://creativecommons.org/ns#"
   xmlns:rdf="http://www.w3.org/1999/02/22-rdf-syntax-ns#"
   xmlns:svg="http://www.w3.org/2000/svg"
   xmlns="http://www.w3.org/2000/svg"
   xmlns:sodipodi="http://sodipodi.sourceforge.net/DTD/sodipodi-0.dtd"
   xmlns:inkscape="http://www.inkscape.org/namespaces/inkscape"
   height="46mm"
   version="1.1"
   width="49mm"
   id="svg9393"
   sodipodi:docname="num29.svg">
  <metadata
     id="metadata9397">
    <rdf:RDF>
      <cc:Work
         rdf:about="">
        <dc:format>image/svg+xml</dc:format>
        <dc:type
           rdf:resource="http://purl.org/dc/dcmitype/StillImage" />
        <dc:title></dc:title>
      </cc:Work>
    </rdf:RDF>
  </metadata>
  <sodipodi:namedview
     pagecolor="#ffffff"
     bordercolor="#666666"
     inkscape:document-rotation="0"
     borderopacity="1"
     objecttolerance="10"
     gridtolerance="10"
     guidetolerance="10"
     inkscape:pageopacity="0"
     inkscape:pageshadow="2"
     inkscape:window-width="640"
     inkscape:window-height="480"
     id="namedview9395"
     showgrid="false" />
  <defs
     id="defs9387" />
  <g
     id="g9962">
    <polyline
       id="polyline9389"
       style="fill:none;stroke:#ff0000"
       points="82.46805384944555,30.930803344725277 91.28837151487296,25.65920469254554 95.3345868420396,23.240921805520077 99.69224335844794,28.10918812138873 124.37287240475386,6.017195408206476 131.9351534251803,14.46558913517253 107.2545243772244,36.557581848354786 113.87152027422248,43.94992636130631 138.5521493221784,21.857933648124057 146.11443034260483,30.30632737509011 121.43380129464892,52.398320088272364 128.050797189997,59.79066460122389 152.73142623795295,37.69867188804164 160.29370726002935,46.14706561500769 135.61307821207345,68.23905832818994 142.46639538869113,75.8954151446451 147.01867331645886,80.98110769842238 144.3018170650269,87.05928327724007 175.79526515522838,101.1363973967553 171.16827611875607,111.48793946536736 139.67482803020457,97.41082534585215 135.62621261937258,106.46842466228138 167.11966070792408,120.54553878179661 162.49267167145175,130.89708085205865 130.99922358290024,116.81996673089344 126.80601476565818,126.20105173578088 123.94456527281424,132.60271264171095 117.47337924879379,132.60271264171095 117.47337924879379,165.72668102684523 106.13479685143376,165.72668102684523 106.13479685143376,132.60271264171095 96.21353725044376,132.60271264171095 96.21353725044376,165.72668102684523 84.87495485308374,165.72668102684523 84.87495485308374,132.60271264171095 74.95369525044377,132.60271264171095 74.95369525044377,165.72668102684523 63.61511285308374,165.72668102684523 63.61511285308374,132.60271264171095 46.451481796074624,132.60271264171095 45.622129641894766,128.32282274288502 10.245996001369289,135.17796933417446 8.088944213344154,124.04645648221761 43.46507785386963,117.19130989092818 41.57765753604768,107.45123614113474 6.201523897172182,114.30638273242415 4.0444721058470865,103.17486988211729 39.420605748022545,96.31972329082788 37.53318543020059,86.57964954268442 2.157051788025133,93.43479613397383 0.0,82.30328328201699 35.376133640525474,75.44813669072757 33.421305455152726,65.36020316539327 32.53285648620893,60.775342860216426 36.23742334142936,58.561251443712266 17.751152506749392,27.63044809898699 27.48391682301071,21.81351165787656 45.97018765769068,52.74431500260184 54.4863564373068,47.654495613948995 36.00008560262683,16.7236922708737 45.73284991888815,10.906755829763272 64.21912075356812,41.83755917283857 72.73528953318424,36.747739785835705 54.24901869850427,5.816936441110428 63.98178301641557,0.0 82.46805384944555,30.930803344725277" />
    <polyline
       id="polyline9391"
       style="fill:none;stroke:#ff0000"
       points="131.99819976292247,83.32630058132646 115.67406334547843,119.84680744303095 56.97284898030113,119.84680744303095 46.75819532639622,67.13386426975218 92.84736979738248,39.58795955029622 131.99819976292247,83.32630058132646" />
  </g>
</svg>
