<?xml version="1.0" encoding="UTF-8" standalone="no"?>
<svg
   xmlns:dc="http://purl.org/dc/elements/1.1/"
   xmlns:cc="http://creativecommons.org/ns#"
   xmlns:rdf="http://www.w3.org/1999/02/22-rdf-syntax-ns#"
   xmlns:svg="http://www.w3.org/2000/svg"
   xmlns="http://www.w3.org/2000/svg"
   xmlns:sodipodi="http://sodipodi.sourceforge.net/DTD/sodipodi-0.dtd"
   xmlns:inkscape="http://www.inkscape.org/namespaces/inkscape"
   height="41mm"
   version="1.2"
   width="61mm"
   id="svg2738"
   sodipodi:docname="num2.svg">
  <metadata
     id="metadata2742">
    <rdf:RDF>
      <cc:Work
         rdf:about="">
        <dc:format>image/svg+xml</dc:format>
        <dc:type
           rdf:resource="http://purl.org/dc/dcmitype/StillImage" />
        <dc:title></dc:title>
      </cc:Work>
    </rdf:RDF>
  </metadata>
  <sodipodi:namedview
     pagecolor="#ffffff"
     bordercolor="#666666"
     inkscape:document-rotation="0"
     borderopacity="1"
     objecttolerance="10"
     gridtolerance="10"
     guidetolerance="10"
     inkscape:pageopacity="0"
     inkscape:pageshadow="2"
     inkscape:window-width="640"
     inkscape:window-height="480"
     id="namedview2740"
     showgrid="false" />
  <defs
     id="defs2694" />
  <circle
     cx="169.3498"
     cy="103.0604"
     fill="rgb(0%,0%,0%)"
     r="15"
     stroke="none"
     id="circle2696" />
  <circle
     cx="165.4562"
     cy="122.8435"
     fill="rgb(0%,0%,0%)"
     r="15"
     stroke="none"
     id="circle2698" />
  <circle
     cx="21.422"
     cy="103.0604"
     fill="rgb(0%,16%,16%)"
     r="15"
     stroke="none"
     id="circle2700" />
  <circle
     cx="5.0202"
     cy="122.8435"
     fill="rgb(0%,16%,16%)"
     r="15"
     stroke="none"
     id="circle2702" />
  <circle
     cx="18.7445"
     cy="91.2232"
     fill="rgb(0%,33%,33%)"
     r="15"
     stroke="none"
     id="circle2704" />
  <circle
     cx="-4.5748"
     cy="80.4248"
     fill="rgb(0%,33%,33%)"
     r="15"
     stroke="none"
     id="circle2706" />
  <circle
     cx="152.2719"
     cy="27.5596"
     fill="rgb(0%,50%,50%)"
     r="15"
     stroke="none"
     id="circle2708" />
  <circle
     cx="140.2433"
     cy="11.378"
     fill="rgb(0%,50%,50%)"
     r="15"
     stroke="none"
     id="circle2710" />
  <circle
     cx="179.8128"
     cy="33.5851"
     fill="rgb(0%,66%,66%)"
     r="15"
     stroke="none"
     id="circle2712" />
  <circle
     cx="191.5816"
     cy="22.6099"
     fill="rgb(0%,66%,66%)"
     r="15"
     stroke="none"
     id="circle2714" />
  <circle
     cx="191.6165"
     cy="85.7686"
     fill="rgb(0%,83%,83%)"
     r="15"
     stroke="none"
     id="circle2716" />
  <circle
     cx="206.963"
     cy="90.6103"
     fill="rgb(0%,83%,83%)"
     r="15"
     stroke="none"
     id="circle2718" />
  <polyline
     fill="none"
     points="199.7887,106.1688 182.3066,119.7449"
     stroke="rgb(0%,0%,100%)"
     id="polyline2720" />
  <polyline
     fill="none"
     points="149.0544,139.5281 21.422,139.5281"
     stroke="rgb(0%,0%,100%)"
     id="polyline2722" />
  <polyline
     fill="none"
     points="-15.3781,111.3843 -18.0556,99.5473"
     stroke="rgb(0%,0%,100%)"
     id="polyline2724" />
  <polyline
     fill="none"
     points="3.0499,58.3055 118.2575,3.3764"
     stroke="rgb(0%,0%,100%)"
     id="polyline2726" />
  <polyline
     fill="none"
     points="156.7869,6.9229 178.4098,11.6536"
     stroke="rgb(0%,0%,100%)"
     id="polyline2728" />
  <polyline
     fill="none"
     points="202.1064,28.5423 213.9101,80.7258"
     stroke="rgb(0%,0%,100%)"
     id="polyline2730" />
  <polyline
     fill="none"
     points="165.4562,122.8435 5.0202,122.8435 -4.5748,80.4248 140.2433,11.378 191.5816,22.6099 206.963,90.6103 165.4562,122.8435"
     stroke="rgb(0%,0%,0%)"
     id="polyline2732" />
  <polyline
     fill="none"
     points="186.8319,89.4842 204.1353,111.7658 195.3916,118.556 178.0882,96.2743 169.3498,103.0604 149.0544,103.0604 149.0544,146.6147 138.3992,146.6147 138.3992,103.0604 127.7823,103.0604 127.7823,146.6147 117.1272,146.6147 117.1272,103.0604 106.5103,103.0604 106.5103,146.6147 95.8551,146.6147 95.8551,103.0604 85.2382,103.0604 85.2382,146.6147 74.583,146.6147 74.583,103.0604 63.9661,103.0604 63.9661,146.6147 53.311,146.6147 53.311,103.0604 42.6941,103.0604 42.6941,146.6147 32.0389,146.6147 32.0389,103.0604 21.422,103.0604 21.422,103.0603 18.7445,91.2232 0.0,51.9087 9.6179,47.3231 28.3624,86.6376 37.9458,82.0684 19.2013,42.7539 28.8192,38.1682 47.5637,77.4827 57.1471,72.9135 38.4025,33.599 48.0205,29.0134 66.765,68.3279 76.3483,63.7587 57.6038,24.4442 67.2217,19.8585 85.9662,59.173 95.5496,54.6038 76.8051,15.2893 86.423,10.7037 105.1675,50.0182 114.7509,45.449 96.0064,6.1345 105.6243,1.5488 124.3688,40.8633 133.9521,36.2942 152.2719,27.5596 158.3015,0.0 169.1162,2.3661 163.0866,29.9257 173.8948,32.2903 179.8128,33.5851 209.0184,26.9789 211.9711,40.0326 182.7655,46.6388 185.7146,59.6768 214.9202,53.0706 217.8729,66.1243 188.6673,72.7305 191.6165,85.7685 186.8319,89.4842"
     stroke="rgb(100%,0%,0%)"
     id="polyline2734" />
  <polyline
     fill="none"
     points="169.3498,103.0604 21.422,103.0604 18.7445,91.2232 152.2719,27.5596 179.8128,33.5851 191.6165,85.7686 169.3498,103.0604"
     stroke="rgb(0%,100%,0%)"
     id="polyline2736" />
</svg>
