<?xml version="1.0" encoding="UTF-8" standalone="no"?>
<svg
   xmlns:dc="http://purl.org/dc/elements/1.1/"
   xmlns:cc="http://creativecommons.org/ns#"
   xmlns:rdf="http://www.w3.org/1999/02/22-rdf-syntax-ns#"
   xmlns:svg="http://www.w3.org/2000/svg"
   xmlns="http://www.w3.org/2000/svg"
   xmlns:sodipodi="http://sodipodi.sourceforge.net/DTD/sodipodi-0.dtd"
   xmlns:inkscape="http://www.inkscape.org/namespaces/inkscape"
   height="47mm"
   version="1.1"
   width="48mm"
   id="svg16176"
   sodipodi:docname="num25.svg">
  <metadata
     id="metadata16180">
    <rdf:RDF>
      <cc:Work
         rdf:about="">
        <dc:format>image/svg+xml</dc:format>
        <dc:type
           rdf:resource="http://purl.org/dc/dcmitype/StillImage" />
        <dc:title></dc:title>
      </cc:Work>
    </rdf:RDF>
  </metadata>
  <sodipodi:namedview
     pagecolor="#ffffff"
     bordercolor="#666666"
     inkscape:document-rotation="0"
     borderopacity="1"
     objecttolerance="10"
     gridtolerance="10"
     guidetolerance="10"
     inkscape:pageopacity="0"
     inkscape:pageshadow="2"
     inkscape:window-width="640"
     inkscape:window-height="480"
     id="namedview16178"
     showgrid="false" />
  <defs
     id="defs16170" />
  <path
     id="polyline16172"
     style="fill:none;stroke:#ff0000"
     d="M 120.37695 0 L 100.56641 28.240234 L 95.064453 24.380859 L 89.304688 27.824219 L 80.332031 33.185547 L 63.337891 4.7539062 L 53.910156 10.388672 L 70.904297 38.822266 L 62.083984 44.09375 L 45.089844 15.660156 L 35.662109 21.294922 L 52.654297 49.728516 L 43.833984 55 L 26.841797 26.566406 L 17.412109 32.201172 L 34.40625 60.634766 L 28.771484 64.001953 L 30.326172 68.296875 L 33.882812 78.126953 L 0 90.390625 L 3.7382812 100.71875 L 37.621094 88.455078 L 41.119141 98.117188 L 7.2363281 110.38086 L 10.974609 120.71094 L 44.857422 108.44531 L 48.355469 118.10742 L 14.472656 130.37305 L 18.210938 140.70117 L 52.09375 128.43555 L 53.580078 132.54297 L 68.578125 132.54297 L 68.578125 168.57812 L 79.5625 168.57812 L 79.5625 132.54297 L 89.837891 132.54297 L 89.837891 168.57812 L 100.82227 168.57812 L 100.82227 132.54297 L 111.09766 132.54297 L 111.09766 168.57812 L 122.08203 168.57812 L 122.08203 132.54297 L 126.47266 132.54297 L 127.75586 125.92578 L 129.74414 115.66406 L 162.26367 121.96484 L 164.35352 111.18164 L 131.83398 104.87891 L 133.78906 94.791016 L 166.30859 101.09375 L 168.39844 90.310547 L 135.87891 84.007812 L 137.83398 73.919922 L 170.35156 80.220703 L 172.44141 69.4375 L 139.92383 63.136719 L 141.16602 56.722656 L 135.51953 52.761719 L 126.96289 46.757812 L 146.77344 18.517578 L 137.78125 12.208984 L 117.9707 40.449219 L 109.55859 34.548828 L 129.36914 6.3085938 L 120.37695 0 z M 94.517578 39.361328 L 127.26562 62.335938 L 116.09766 119.96484 L 62.404297 119.96484 L 44.128906 69.476562 L 94.517578 39.361328 z " />
</svg>
