<?xml version="1.0" encoding="utf-8" ?>
<svg baseProfile="full" height="88mm" version="1.1" width="70mm" xmlns="http://www.w3.org/2000/svg" xmlns:ev="http://www.w3.org/2001/xml-events" xmlns:xlink="http://www.w3.org/1999/xlink"><defs /><polyline points="244.27718814608684,285.58854361071326 21.048731884841477,285.58854361071326 60.109335011195526,-22.6139122191515 244.27718814608684,285.58854361071326" style="fill:none;stroke:#000000" /><polyline points="108.12487220101664,9.429074672933604 70.99889823697028,31.613878173138993 76.2697780056722,40.43462544739301 113.39575196971856,18.249821948837607 119.0301406868482,27.67889662177121 81.90416672115185,49.86370012032662 87.17504648985376,58.68444739623062 124.30102045390014,36.49964389602523 129.93540917102976,45.928718570608815 92.80943520533343,68.11352206916422 98.08031497403533,76.93426934341824 135.2062889380817,54.74946584486283 140.84067765521135,64.17854051779643 103.71470368951499,86.36334401800183 108.98558345821691,95.18409129225584 146.11155742226327,72.99928779370045 151.7459461393929,82.42836246663404 114.61997217534655,104.61316596683943 119.89085194239848,113.43391324109345 157.01682590644484,91.24910974253805 162.6512146235745,100.67818441547165 125.52524065952812,122.86298791402706 130.79612042658005,131.68373518993107 167.92209439062643,109.49893168972567 173.55648310775607,118.92800636430925 136.43050914370968,141.11280986286465 141.70138891076164,149.93355713876866 178.827362874808,127.74875363856327 184.46175159193763,137.17782831314688 147.33577762789128,159.36263181170227 152.6066573949432,168.1833790859563 189.73263135898958,145.9985755874009 195.36702007611922,155.42765026033447 158.24104611207284,177.61245376053986 163.51192587912476,186.4332010347939 200.6378998448211,164.24839753623849 206.27228856030078,173.6774722091721 169.1463145962544,195.8622757077275 174.41719436330635,204.6830229836315 211.5431683290027,182.4982194834261 217.17755704448234,191.9272941580097 180.051583080436,214.1120976565651 185.3224628474879,222.9328449324691 222.44843681318426,200.74804143226373 228.08282552866393,210.1771161068473 190.95685156461755,232.3619196054027 196.22773133331947,241.18266687965672 233.35370529736582,218.99786338110133 238.9880940128455,228.42693805403493 201.8621200487991,250.61174155424033 207.13299981750103,259.43248882849434 244.2589737815474,237.24768532993892 249.89336249702706,246.67676000287253 217.52516266521545,266.0185327899084 217.52516266521545,262.1550874209999 207.24957236389545,262.1550874209999 207.24957236389545,314.9261454394104 196.26532066521543,314.9261454394104 196.26532066521543,262.1550874209999 185.98973036389546,262.1550874209999 185.98973036389546,314.9261454394104 175.00547866521543,314.9261454394104 175.00547866521543,262.1550874209999 164.72988836389544,262.1550874209999 164.72988836389544,314.9261454394104 153.74563666521544,314.9261454394104 153.74563666521544,262.1550874209999 143.47004636389545,262.1550874209999 143.47004636389545,314.9261454394104 132.48579466521542,314.9261454394104 132.48579466521542,262.1550874209999 122.21020436389544,262.1550874209999 122.21020436389544,314.9261454394104 111.22595266521543,314.9261454394104 111.22595266521543,262.1550874209999 100.95036236389545,262.1550874209999 100.95036236389545,314.9261454394104 89.96611066521544,314.9261454394104 89.96611066521544,262.1550874209999 79.69052036389544,262.1550874209999 79.69052036389544,314.9261454394104 68.70626866521543,314.9261454394104 68.70626866521543,262.1550874209999 58.43067836389545,262.1550874209999 58.43067836389545,314.9261454394104 47.446426665215434,314.9261454394104 47.446426665215434,262.1550874209999 37.17083636389545,262.1550874209999 37.17083636389545,314.9261454394104 0.0,314.9261454394104 4.833536131923669,276.7877761722887 31.380782284430556,280.1522900689424 32.67274350360266,269.9582431650829 6.1254973510957775,266.5937292684291 7.506559340590141,255.69664465155677 34.05380549474701,259.06115854986047 35.34576671391912,248.8671116460009 8.79852056141223,245.50259774934716 10.179582550906593,234.6055131324748 36.72682870341348,237.9700270307785 38.01878992258559,227.77598012691894 11.471543771728683,224.4114662302652 12.852605761223046,213.51438161174286 39.39985191372993,216.8788955100466 40.69181313290204,206.68484860618702 14.144566980395155,203.32033470953328 15.525628971539499,192.4232500926609 42.072875124046384,195.78776399096463 43.36483634321849,185.59371708710506 16.81759019071161,182.22920319045133 18.198652180205972,171.33211857357895 44.745898334362835,174.6966324702327 46.03785955353494,164.5025855663731 19.49061340102806,161.13807166971938 20.871675390522423,150.24098705284703 47.418921543029306,153.60550095115073 48.710882762201415,143.41145404729116 22.16363661134451,140.04694015063743 23.544698600838874,129.14985553376508 50.091944753345764,132.51436943206878 51.38390597251787,122.3203225282092 24.836659820010986,118.95580863155547 26.21772181115533,108.05872401303314 52.764967963662215,111.42323791133686 54.056929182834324,101.22919100747727 27.509683030327437,97.86467711082354 28.8907450198218,86.96759249395119 55.437991173978666,90.3321063922549 56.729952393150775,80.13805948839533 30.18270624064389,76.77354559174158 31.56376823013825,65.87646097321925 58.11101438264514,69.24097487152297 59.402975601817246,59.046927967663386 32.85572944931036,55.68241407100965 34.2367914404547,44.78532945413729 60.78403759296159,48.14984335244101 62.0759988121337,37.95579644858143 35.52875265962681,34.5912825519277 36.90981465077116,23.69419793505534 63.45706080327804,27.058711831709076 64.30044459962018,20.404104986415263 65.36450952149062,22.184803498555407 102.49048348553698,0.0 108.12487220101664,9.429074672933604" style="fill:none;stroke:#ff0000" /><polyline points="268.50621888783553,302.34740559007037 14.273548341788548,302.34740559007037 58.75928108531617,-48.66130865049761 268.50621888783553,302.34740559007037" style="fill:none;stroke:#ff0000" /></svg>