<?xml version="1.0" encoding="UTF-8" standalone="no"?>
<svg
   xmlns:dc="http://purl.org/dc/elements/1.1/"
   xmlns:cc="http://creativecommons.org/ns#"
   xmlns:rdf="http://www.w3.org/1999/02/22-rdf-syntax-ns#"
   xmlns:svg="http://www.w3.org/2000/svg"
   xmlns="http://www.w3.org/2000/svg"
   xmlns:sodipodi="http://sodipodi.sourceforge.net/DTD/sodipodi-0.dtd"
   xmlns:inkscape="http://www.inkscape.org/namespaces/inkscape"
   height="51mm"
   version="1.1"
   width="53mm"
   id="svg10635"
   sodipodi:docname="num30.svg">
  <metadata
     id="metadata10639">
    <rdf:RDF>
      <cc:Work
         rdf:about="">
        <dc:format>image/svg+xml</dc:format>
        <dc:type
           rdf:resource="http://purl.org/dc/dcmitype/StillImage" />
        <dc:title></dc:title>
      </cc:Work>
    </rdf:RDF>
  </metadata>
  <sodipodi:namedview
     pagecolor="#ffffff"
     bordercolor="#666666"
     inkscape:document-rotation="0"
     borderopacity="1"
     objecttolerance="10"
     gridtolerance="10"
     guidetolerance="10"
     inkscape:pageopacity="0"
     inkscape:pageshadow="2"
     inkscape:window-width="640"
     inkscape:window-height="480"
     id="namedview10637"
     showgrid="false" />
  <defs
     id="defs10629" />
  <g
     id="g11204">
    <polyline
       id="polyline10631"
       style="fill:none;stroke:#ff0000"
       points="130.37239693992774,6.664672482818657 108.63829332868153,36.578955951716836 116.66474762404209,42.41054437995809 138.3988512336383,12.496260909409935 147.57194185077904,19.160933392228593 125.83783823953284,49.07521686112677 133.8642925365434,54.90680528771804 155.59839614448964,24.99252181716989 164.77148676163034,31.657194301638526 143.03738315203412,61.5714777705367 151.35049652742723,67.61133721077233 157.52357061739946,72.09635962362555 155.27506199522713,79.01653068010728 190.44196887727247,90.44299581704014 186.9381418991808,101.22662448693868 151.77123501878543,89.80015935000583 148.70538641027403,99.2358344398795 183.87229329231937,110.66229957681236 180.3684663142277,121.44592824836087 145.20155943383236,110.01946310977804 142.13571082532093,119.4551382013017 177.30261770736627,130.88160333823456 173.7987907292746,141.6652320081331 138.63188384887926,130.23876686955026 135.45654065003524,140.01143035566764 133.09853743588033,147.26858980839307 125.82246780121918,147.26858980839307 125.82246780121918,184.24506148970713 114.48388540385915,184.24506148970713 114.48388540385915,147.26858980839307 104.56262580121918,147.26858980839307 104.56262580121918,184.24506148970713 93.22404340385916,184.24506148970713 93.22404340385916,147.26858980839307 83.30278380286916,147.26858980839307 83.30278380286916,184.24506148970713 71.96420140550913,184.24506148970713 71.96420140550913,147.26858980839307 54.05821029895344,147.26858980839307 51.80973484304715,140.34847973025543 16.643088748732797,151.77479227695474 13.13928059197325,140.991157492227 48.305926686287606,129.56484494552768 45.24009454788551,120.12916450311596 10.07344845192118,131.55547704981527 6.569640295161634,120.77184226508753 41.736286389475985,109.3455297183882 38.6704542510739,99.90984927762648 3.503808156759546,111.33616182432579 0.0,100.55252703794805 35.16664609431435,89.12621449289873 31.99131994967292,79.35354546614548 29.63335044957772,72.09644667826775 35.520017263102396,67.81954803146351 13.785885907427378,37.904976673898084 22.95900297871185,31.240340602857902 44.69313433438687,61.15491196042333 52.71961177567949,55.32335539331323 30.98548042000447,25.408784035747804 40.158597491288944,18.744147963057642 61.89272884696396,48.658719320623064 69.91920628825658,42.827162753512965 48.185074932581564,12.912591395947542 57.35819200386604,6.2479553249073625 79.09232335954106,36.16252668247279 87.40546070750665,30.12270024020516 93.57878732210551,25.63753179249252 99.46520271319079,29.914283470548156 121.19930632113703,0.0 130.37239693992774,6.664672482818657" />
    <polyline
       id="polyline10633"
       style="fill:none;stroke:#ff0000"
       points="142.52810258048598,76.96865412201181 123.83084096304714,134.51268460971306 63.32592377813976,134.51268460971306 44.62881668141211,76.96878796021244 93.57875603021776,41.404701184032085 142.52810258048598,76.96865412201181" />
  </g>
</svg>
