<?xml version="1.0" encoding="UTF-8" standalone="no"?>
<svg
   xmlns:dc="http://purl.org/dc/elements/1.1/"
   xmlns:cc="http://creativecommons.org/ns#"
   xmlns:rdf="http://www.w3.org/1999/02/22-rdf-syntax-ns#"
   xmlns:svg="http://www.w3.org/2000/svg"
   xmlns="http://www.w3.org/2000/svg"
   xmlns:sodipodi="http://sodipodi.sourceforge.net/DTD/sodipodi-0.dtd"
   xmlns:inkscape="http://www.inkscape.org/namespaces/inkscape"
   height="50mm"
   version="1.1"
   width="47mm"
   id="svg7549"
   sodipodi:docname="num3.svg">
  <metadata
     id="metadata7553">
    <rdf:RDF>
      <cc:Work
         rdf:about="">
        <dc:format>image/svg+xml</dc:format>
        <dc:type
           rdf:resource="http://purl.org/dc/dcmitype/StillImage" />
        <dc:title></dc:title>
      </cc:Work>
    </rdf:RDF>
  </metadata>
  <sodipodi:namedview
     pagecolor="#ffffff"
     bordercolor="#666666"
     inkscape:document-rotation="0"
     borderopacity="1"
     objecttolerance="10"
     gridtolerance="10"
     guidetolerance="10"
     inkscape:pageopacity="0"
     inkscape:pageshadow="2"
     inkscape:window-width="640"
     inkscape:window-height="480"
     id="namedview7551"
     showgrid="false" />
  <defs
     id="defs7543" />
  <g
     id="g8118">
    <polyline
       id="polyline7545"
       style="fill:none;stroke:#ff0000"
       points="132.7956667011725,9.519092459739989 104.35741301892112,27.923216616093452 109.74774891653557,36.252422524140876 138.18600259713696,17.84829836613743 144.3463864761178,27.36739082587742 115.90813279551641,45.77151498223088 121.29846869148086,54.1007208902783 149.7367223704323,35.69659673227486 155.89710624941313,45.21568919201485 127.45885256716174,63.61981334836831 133.04170045970528,72.24649089392638 139.4256465734112,82.11103416369468 137.72311597400787,85.79013652215563 167.57781657676887,99.60561007351076 162.81595573884402,109.89580599749831 132.961255136083,96.08033244449321 128.79462690063002,105.08425388107604 158.64932750339105,118.89972743408114 153.88746666381618,129.1899233580687 124.03276606270515,115.37444980506359 119.86613782725217,124.3783712416464 149.7208384283632,138.1938447946515 144.95897759043834,148.48404071863908 115.10427698932732,134.66856716563396 110.78884060325636,143.99405722406797 110.09847693472211,145.48590623888302 103.17102353409466,145.48590623888302 103.17102353409466,179.98242342321484 91.83244113673463,179.98242342321484 91.83244113673463,145.48590623888302 81.91118153574463,145.48590623888302 81.91118153574463,179.98242342321484 70.5725991383846,179.98242342321484 70.5725991383846,145.48590623888302 53.01521004467724,145.48590623888302 52.47362362096875,144.31556279354908 22.618898405442668,158.13109180241221 17.85702505901261,147.84090166820764 47.711750274538694,134.0253726593445 43.54511109311243,125.02145628655306 13.690385877586344,138.83698529706615 8.928512529506305,128.54679516286157 38.78323774503239,114.73126615399846 34.616598563606125,105.72734978120701 4.761873348080041,119.54287879007013 0.0,109.25268865586555 29.854725215526088,95.43715964700243 25.53927749243638,86.11167483550769 23.6879056470982,82.11094510102572 29.87928440076594,72.54396477541106 1.441134004018881,54.139896390061956 7.601520493269502,44.620805619902406 36.03967089001656,63.024874005251505 41.43000907120457,54.69566957723695 12.991858674457509,36.29160119188785 19.15224516370813,26.772510423378282 47.59039556045519,45.1765788070774 52.9807337416432,36.84737438071282 24.54258334489614,18.443305995363726 30.70296983414676,8.924215225204177 59.14112023089382,27.328283610553274 64.72397048950998,18.701607596177478 68.89849759602144,12.251086591277799 81.55685179240356,12.251080380749695 94.21501614198345,12.251074170221592 98.19702914159026,18.40412415635346 126.63528282384164,0.0 132.7956667011725,9.519092459739989" />
    <polyline
       id="polyline7547"
       style="fill:none;stroke:#ff0000"
       points="124.89543625477775,83.13685768121789 101.94585891239973,132.730001040203 61.16781714577606,132.730001040203 38.21812241880695,83.13676220177322 75.8374583313839,25.00698838604722 87.27605754664623,25.0069827728122 124.89543625477775,83.13685768121789" />
  </g>
</svg>
