<?xml version="1.0" encoding="utf-8" ?>
<svg baseProfile="full" height="60mm" version="1.1" width="62mm" xmlns="http://www.w3.org/2000/svg" xmlns:ev="http://www.w3.org/2001/xml-events" xmlns:xlink="http://www.w3.org/1999/xlink"><defs /><polyline points="219.78477584698314,194.8837722626404 -3.4435648928441527,194.8837722626404 131.22228174309424,31.011521835322487 219.78477584698314,194.8837722626404" style="fill:none;stroke:#000000" /><polyline points="149.24584523868614,24.929427415484128 122.62932650921533,39.31395729719154 127.5148146772647,48.35385560368705 154.1313334067355,33.96932572197964 159.3537517910521,43.63266529013864 132.7372330615813,58.017195171846055 137.62272122963063,67.05709347834156 164.23923996075143,52.67256359663415 169.46165834341804,62.335903164793145 142.84513961559722,76.72043304650056 147.7306277819966,85.7603313513461 174.3471465131174,71.37580147128865 179.56956489743396,81.03914103779768 152.95304616796315,95.42367092115508 157.83853433601251,104.4635692260006 184.45505306713332,90.07903934594317 189.67747144979992,99.74237891245218 163.06095272197908,114.1269087941596 167.94644088837845,123.1668071006551 194.56295961949925,108.7822772189477 199.78537800381585,118.4456167871067 173.168859274345,132.8301466688141 178.05434744239437,141.8700449753096 204.67086617186519,127.4855150936022 209.89328455618178,137.14885466011123 183.27676582671097,151.53338454346863 188.16225399476033,160.57328284831416 214.7787727258811,146.18875296825672 220.0011911101977,155.85209253476575 193.3846723807269,170.23662241812315 197.22170382416704,177.33650125476234 193.387138826624,177.33650125476234 193.387138826624,212.7873480714185 182.40288712794398,212.7873480714185 182.40288712794398,177.33650125476234 172.12729682662402,177.33650125476234 172.12729682662402,212.7873480714185 161.143045127944,212.7873480714185 161.143045127944,177.33650125476234 150.867454826624,177.33650125476234 150.867454826624,212.7873480714185 139.883203127944,212.7873480714185 139.883203127944,177.33650125476234 129.607612826624,177.33650125476234 129.607612826624,212.7873480714185 118.623361127944,212.7873480714185 118.623361127944,177.33650125476234 108.34777082662401,177.33650125476234 108.34777082662401,212.7873480714185 97.36351912794399,212.7873480714185 97.36351912794399,177.33650125476234 87.08792882662401,177.33650125476234 87.08792882662401,212.7873480714185 76.103677127944,212.7873480714185 76.103677127944,177.33650125476234 65.828086826624,177.33650125476234 65.828086826624,212.7873480714185 54.843835127944,212.7873480714185 54.843835127944,177.33650125476234 44.56824482662401,177.33650125476234 44.56824482662401,212.7873480714185 33.58399312794399,212.7873480714185 33.58399312794399,177.33650125476234 23.308402826624008,177.33650125476234 23.308402826624008,212.7873480714185 12.324151127943994,212.7873480714185 12.324151127943994,188.87668181796516 12.219511396858987,188.7906916774326 12.324151127943994,188.6633576239691 12.324151127943994,188.64736993440107 12.331993404657641,188.65381450899525 18.855949853679693,180.7149387528291 0.0,165.219621852631 6.973884478566694,156.73323742601542 25.82983433389637,172.22855432456353 32.35379078291842,164.2896785683974 13.497840929238727,148.79436166984925 20.47172540615544,140.3079772415837 39.3276752631351,155.8032941401318 45.85163171050717,147.86441838396567 26.995681856827474,132.36910148541753 33.96956633539417,123.88271705715198 52.825516190723846,139.3780339557001 59.3494726397459,131.43915819953395 40.4935227860662,115.94384130098582 47.4674072646329,107.45745687272026 66.32335711996257,122.95277377126838 72.84731356898462,115.01389801510223 53.99136371530493,99.5185811165541 60.85276618607297,91.16907385507591 135.77308055250154,0.0 149.24584523868614,24.929427415484128" style="fill:none;stroke:#ff0000" /><polyline points="210.51596966294892,164.75776140542234 16.66068832444078,164.75776140542234 133.60679606205906,22.448316714186745 210.51596966294892,164.75776140542234" style="fill:none;stroke:#ff0000" /></svg>