<?xml version="1.0" encoding="utf-8" ?>
<svg baseProfile="full" height="67mm" version="1.1" width="60mm" xmlns="http://www.w3.org/2000/svg" xmlns:ev="http://www.w3.org/2001/xml-events" xmlns:xlink="http://www.w3.org/1999/xlink"><defs /><polyline points="205.0275575384043,198.32996552087175 -18.200783461595698,198.32996552087175 138.48519814137336,-14.145781968023503 205.0275575384043,198.32996552087175" style="fill:none;stroke:#000000" /><polyline points="127.85254671989955,15.036671559569676 131.9328607338217,9.503516894150993 132.3755630350152,10.91710521945325 164.4234296219743,0.8804743027127669 167.70621462041507,11.362702501232922 135.658348031806,21.39933342127337 138.72934045081996,31.205288834335754 170.77720703777902,21.168657917595272 174.05999203621982,31.650886117765406 142.01212544761077,41.687517036155874 145.08311786662472,51.49347245086824 177.1309844519338,41.456841534127754 180.4137694503746,51.93906973264791 148.36590286176553,61.97570065268836 151.43689528077948,71.78165606575074 183.48476186773854,61.74502514901026 186.76754686617932,72.2272533491804 154.71968027757026,82.26388426757086 157.7906726965842,92.06983968228323 189.8385392835433,82.03320876554274 193.1213242803341,92.5154369640629 161.07345769337502,102.55206788410335 164.14445011073897,112.35802329716573 196.19231669769806,102.32139238042525 199.47510169613884,112.80362058059539 167.42723510752978,122.84025149898585 170.49822752654373,132.64620691369822 202.54609411350282,122.60957599695773 205.8288791119436,133.0918041954779 173.78101252333454,143.12843511551833 176.8520049423485,152.93439052858074 208.89987152765758,142.89775961184023 212.12970838165413,153.21091961688342 214.7049211862757,161.43380606874123 203.8146223880971,161.43380606874123 203.8146223880971,237.56714086250236 192.8303706894171,237.56714086250236 192.8303706894171,161.43380606874123 182.5547803880971,161.43380606874123 182.5547803880971,237.56714086250236 171.57052868941707,237.56714086250236 171.57052868941707,161.43380606874123 161.2949383880971,161.43380606874123 161.2949383880971,237.56714086250236 150.31068668941708,237.56714086250236 150.31068668941708,161.43380606874123 140.0350963880971,161.43380606874123 140.0350963880971,237.56714086250236 129.0508446894171,237.56714086250236 129.0508446894171,161.43380606874123 118.7752543880971,161.43380606874123 118.7752543880971,237.56714086250236 107.79100268941708,237.56714086250236 107.79100268941708,161.43380606874123 97.5154123880971,161.43380606874123 97.5154123880971,237.56714086250236 86.53116068941709,237.56714086250236 86.53116068941709,161.43380606874123 76.2555703880971,161.43380606874123 76.2555703880971,237.56714086250236 65.27131868941709,237.56714086250236 65.27131868941709,161.43380606874123 54.9957283880971,161.43380606874123 54.9957283880971,237.56714086250236 44.01147668941709,237.56714086250236 44.01147668941709,161.43380606874123 33.7358863880971,161.43380606874123 33.7358863880971,237.56714086250236 22.751634689417088,237.56714086250236 22.751634689417088,161.43380606874123 19.894913927980856,161.43380606874123 20.39064373604983,160.7615662127961 0.0,145.72489465157648 6.519215248708701,136.88444116210204 26.909858986408512,151.9211127233217 33.00847970294246,143.65101106650212 12.617835965242646,128.61433950693245 19.13705121560133,119.77388601745803 39.52769495330114,134.8105575770277 45.62631566983509,126.54045592185811 25.235671932135276,111.50378436228844 31.754887182493956,102.66333087116404 52.14553092019377,117.70000243238368 58.244151636727715,109.4299007772141 37.8535078990279,94.39322921599445 44.37272314938658,85.55277572652003 64.76336688543641,100.5894472860897 70.86198760362034,92.31934563092011 50.47134386592053,77.28267407135044 56.99055911627921,68.44222058187601 77.38120285232904,83.47889214144568 83.47982357051296,75.2087904862761 63.08917983281316,60.172118925056445 69.60839508152186,51.33166543558202 89.99903881922167,66.36833699680167 96.09765953740559,58.09823533998211 75.70701579970579,43.061563780412435 82.22623104841449,34.22111029093801 102.6168747861143,49.25778185050768 108.71549550429822,40.9876801953381 88.32485176659841,25.95100863411844 94.84406701530712,17.11055514464401 115.23471075300692,32.147226705863666 121.33333146954087,23.877125049044103 100.94268773349104,8.840453489474429 107.46190298219975,0.0 127.85254671989955,15.036671559569676" style="fill:none;stroke:#ff0000" /><polyline points="197.58438730860078,148.8550662194012 13.320785235979283,148.8550662194012 142.6570659026382,-26.532818712926574 197.58438730860078,148.8550662194012" style="fill:none;stroke:#ff0000" /></svg>