<?xml version="1.0" encoding="UTF-8" standalone="no"?>
<svg
   xmlns:dc="http://purl.org/dc/elements/1.1/"
   xmlns:cc="http://creativecommons.org/ns#"
   xmlns:rdf="http://www.w3.org/1999/02/22-rdf-syntax-ns#"
   xmlns:svg="http://www.w3.org/2000/svg"
   xmlns="http://www.w3.org/2000/svg"
   xmlns:sodipodi="http://sodipodi.sourceforge.net/DTD/sodipodi-0.dtd"
   xmlns:inkscape="http://www.inkscape.org/namespaces/inkscape"
   height="50mm"
   version="1.1"
   width="47mm"
   id="svg12648"
   sodipodi:docname="num3.svg">
  <metadata
     id="metadata12652">
    <rdf:RDF>
      <cc:Work
         rdf:about="">
        <dc:format>image/svg+xml</dc:format>
        <dc:type
           rdf:resource="http://purl.org/dc/dcmitype/StillImage" />
        <dc:title></dc:title>
      </cc:Work>
    </rdf:RDF>
  </metadata>
  <sodipodi:namedview
     pagecolor="#ffffff"
     bordercolor="#666666"
     inkscape:document-rotation="0"
     borderopacity="1"
     objecttolerance="10"
     gridtolerance="10"
     guidetolerance="10"
     inkscape:pageopacity="0"
     inkscape:pageshadow="2"
     inkscape:window-width="640"
     inkscape:window-height="480"
     id="namedview12650"
     showgrid="false" />
  <defs
     id="defs12642" />
  <path
     id="polyline12644"
     style="fill:none;stroke:#ff0000"
     d="M 126.34766 0 L 97.910156 18.404297 L 93.882812 12.183594 L 81.322266 12.183594 L 68.759766 12.183594 L 64.636719 18.552734 L 58.958984 27.328125 L 30.519531 8.9238281 L 24.552734 18.146484 L 52.990234 36.550781 L 47.408203 45.175781 L 18.96875 26.773438 L 13.001953 35.994141 L 41.439453 54.398438 L 35.857422 63.025391 L 7.4179688 44.621094 L 1.4511719 53.841797 L 29.888672 72.246094 L 23.654297 81.880859 L 25.464844 85.792969 L 29.855469 95.279297 L 0 109.09375 L 4.6132812 119.0625 L 34.46875 105.24805 L 38.783203 114.57227 L 8.9277344 128.38867 L 13.541016 138.35742 L 43.396484 124.54102 L 47.710938 133.86719 L 17.857422 147.68164 L 22.470703 157.65039 L 52.324219 143.83594 L 52.892578 145.06445 L 70.513672 145.06445 L 70.513672 179.56055 L 81.498047 179.56055 L 81.498047 145.06445 L 91.775391 145.06445 L 91.775391 179.56055 L 102.75781 179.56055 L 102.75781 145.06445 L 109.75 145.06445 L 110.39258 143.67383 L 114.7832 134.1875 L 144.63672 148.00391 L 149.25 138.03516 L 119.39648 124.2207 L 123.71094 114.89453 L 153.56641 128.70898 L 158.17969 118.74023 L 128.32422 104.92578 L 132.64062 95.599609 L 162.49414 109.41602 L 167.10742 99.447266 L 137.25195 85.630859 L 138.98828 81.880859 L 132.6582 72.097656 L 126.97852 63.322266 L 155.41602 44.917969 L 149.44922 35.697266 L 121.01172 54.101562 L 115.42773 45.474609 L 143.86523 27.070312 L 137.89844 17.847656 L 109.46094 36.251953 L 103.87695 27.625 L 132.31641 9.2207031 L 126.34766 0 z M 75.601562 24.761719 L 87.041016 24.761719 L 124.66016 82.892578 L 101.71094 132.48438 L 60.933594 132.48438 L 37.982422 82.892578 L 75.601562 24.761719 z " />
</svg>
