<?xml version="1.0" encoding="utf-8" ?>
<svg baseProfile="full" height="95mm" version="1.1" width="73mm" xmlns="http://www.w3.org/2000/svg" xmlns:ev="http://www.w3.org/2001/xml-events" xmlns:xlink="http://www.w3.org/1999/xlink"><defs /><polyline points="247.06277085728732,313.5541839524544 23.834416317484326,313.55418395245437 101.07150291939087,-20.45674907315038 247.06277085728732,313.5541839524544" style="fill:none;stroke:#000000" /><polyline points="141.72739957759836,10.06483487018657 101.61907518602136,27.595593757279325 105.73444773173738,37.01108444271837 145.84277212331438,19.480325555625612 150.24196346369357,29.545160424162198 110.13363907211658,47.07591931290494 114.24901161618261,56.491409996693996 154.3573360077596,38.960651109601244 158.7565273481388,49.02548597978781 118.64820295656182,66.55624486688056 122.76357550227783,75.97173555231961 162.87189989385482,58.440976663576876 167.27109123258404,68.50581153376345 127.16276684100706,86.0365704208562 131.27813938672307,95.45206110629525 171.38646377830005,77.92130221920249 175.78565511867927,87.98613708773907 135.6773307271023,105.5168959764818 139.7927032711683,114.93238666192086 179.9010276643953,97.40162777317812 184.3002190031245,107.46646264336468 144.19189461154753,124.99722153045744 148.3072671572635,134.41271221589648 188.41559154884052,116.88195332715375 192.8147828892197,126.94678819734031 152.70645849764273,144.47754708608306 156.82183104170875,153.8930377698721 196.93015543328576,136.36227888277935 201.32934677366495,146.42711375131594 161.22102238208797,163.9578726400587 165.33639492780398,173.37336332549773 205.44471931938097,155.84260443675498 209.8439106581102,165.90743930694157 169.7355862665332,183.43819819403433 173.85095881224922,192.85368887947337 213.9592832038262,175.32292999073061 218.35847454420542,185.3877648609172 178.25015015262844,202.91852374965993 182.36552269669446,212.334014433449 222.47384708827144,194.80325554635624 226.87303842865066,204.86809041489283 186.76471403707367,222.39884930363556 190.8800865827897,231.8143399890746 230.98841097436667,214.28358110033187 235.3876023130959,224.34841597051843 195.2792779215189,241.8791748576112 199.3946504672349,251.29466554305023 239.5029748588119,233.76390665595747 243.9021661991911,243.82874152449406 203.79384180761411,261.3595004132368 207.90921435168013,270.77499109702586 248.0175387449071,253.2442322099331 252.41673008363634,263.3090670801197 212.30840569205935,280.83982596721245 216.42377823777537,290.25531665265146 256.5321026293524,272.72455776390876 260.93129396973154,282.7893926340953 231.2535863725057,295.7610822786402 231.29504793567466,295.7610822786402 231.29504793567466,295.9382476279802 231.11788258633467,295.9382476279802 231.11788258633467,295.8203964074384 220.8229695765046,300.32015152118805 224.9383421222206,309.7356422066271 231.29504793567466,306.95721955627045 231.29504793567466,337.56908316401115 220.31079623699466,337.56908316401115 220.31079623699466,295.9382476279802 210.03520593567467,295.9382476279802 210.03520593567467,337.56908316401115 199.05095423699464,337.56908316401115 199.05095423699464,295.9382476279802 188.77536393567468,295.9382476279802 188.77536393567468,337.56908316401115 177.79111223699465,337.56908316401115 177.79111223699465,295.9382476279802 167.51552193567466,295.9382476279802 167.51552193567466,337.56908316401115 156.53127023699466,337.56908316401115 156.53127023699466,295.9382476279802 146.25567993567466,295.9382476279802 146.25567993567466,337.56908316401115 135.27142823699467,337.56908316401115 135.27142823699467,295.9382476279802 124.99583793567467,295.9382476279802 124.99583793567467,337.56908316401115 114.01158623699465,337.56908316401115 114.01158623699465,295.9382476279802 103.73599593567467,295.9382476279802 103.73599593567467,337.56908316401115 92.75174423699465,337.56908316401115 92.75174423699465,295.9382476279802 82.47615393567467,295.9382476279802 82.47615393567467,337.56908316401115 71.49190223699465,337.56908316401115 71.49190223699465,295.9382476279802 61.21631193567467,295.9382476279802 61.21631193567467,337.56908316401115 50.232060236994656,337.56908316401115 50.232060236994656,295.9382476279802 39.95646993567467,295.9382476279802 39.95646993567467,337.56908316401115 0.0,337.56908316401115 6.821544380486419,308.069389384153 34.25819204250999,314.4138725219032 36.573242079413646,304.40246405962426 9.136594414090112,298.057980923524 11.611303072350939,287.3561305027671 39.0479507360245,293.70061363886737 41.363000772928146,283.68920517658836 13.926353107604614,277.3447220421381 16.40106176586544,266.6428716197312 43.837709429539,272.98735475748146 46.15275946644265,262.97594629520245 18.716111801119112,256.6314631591022 21.19082045937994,245.9296127383453 48.62746812140352,252.27409587444555 50.942518158307166,242.26268741216657 23.505870494633616,235.91820427771628 25.98057915289444,225.21635385530942 53.41722681491802,231.56083699305967 55.73227685182167,221.54942853078066 28.295629188148116,215.2049453946804 30.770337846408943,204.50309497227354 58.20698550843252,210.84757811002376 60.52203554533617,200.83616964774478 33.08538788166262,194.4916865132945 35.56009653992344,183.78983609088763 62.99674420194702,190.13431922698788 65.31179423885067,180.12291076635887 37.87514657517712,173.77842763025862 40.34985523178796,163.07657720785176 67.78650289546151,169.42106034560197 70.10155293236517,159.409651883323 42.66490526704164,153.06516874887274 45.13961392530246,142.36331832646584 72.57626158897602,148.7078014625661 74.89131162587967,138.69639300193708 47.45466396055614,132.35190986583683 49.92937261881696,121.65005944342995 77.36602028249052,127.9945425811802 79.68107031774419,117.9831341189012 52.24442265407064,111.63865098280095 54.71913131233146,100.93680056204406 82.15577897435504,107.2812836981443 84.47082901125869,97.26987523586533 57.03418134758514,90.92539210141506 59.50889000584596,80.22354167900818 86.94553766786954,86.56802481675841 89.2605877047732,76.55661635447942 61.82394004109964,70.21213321837917 64.29864869936047,59.51028279762227 91.73529636138404,65.85476593372252 94.0503463982877,55.84335747144354 66.61369873461415,49.49887433699326 69.08840739122499,38.79702391458638 96.52505505489854,45.14150705233662 98.8401050918022,35.130098590057635 71.40345742647865,28.78561545395738 73.87816608473949,18.0837650315505 101.31481374841304,24.428248169300737 103.54955023411894,14.764154774368432 137.32820823886914,0.0 141.72739957759836,10.06483487018657" style="fill:none;stroke:#ff0000" /><polyline points="265.64890859977396,324.9903433146712 15.819391440439446,324.9903433146712 102.26048935797093,-48.82323558804555 265.64890859977396,324.9903433146712" style="fill:none;stroke:#ff0000" /></svg>