<?xml version="1.0" encoding="utf-8" ?>
<svg baseProfile="full" height="93mm" version="1.1" width="75mm" xmlns="http://www.w3.org/2000/svg" xmlns:ev="http://www.w3.org/2001/xml-events" xmlns:xlink="http://www.w3.org/1999/xlink"><defs /><polyline points="251.73289560027473,305.9022162365059 28.504650402532686,305.9022162365059 149.4326433527668,-27.088475941474538 251.73289560027473,305.9022162365059" style="fill:none;stroke:#000000" /><polyline points="186.421097745108,10.49992032000678 146.01111695526535,22.914535279043513 149.0287534139562,32.73704138815627 189.43873420379882,20.322426429119535 192.66448351721493,30.822346749126314 152.25450272902228,43.23696170816305 155.2721391860631,53.0594678172758 195.68211997590575,40.64485285823907 198.90786929097183,51.14477317824585 158.4978885011292,63.55938813728258 161.51552495982003,73.38189424639535 201.92550574801268,60.96727928735861 205.15125506307876,71.46719960736539 164.74127427323612,83.88181456640213 167.75891073027697,93.70432067551488 208.16889152011962,81.28970571647814 211.3946408351857,91.78962603648492 170.98466004534305,104.20424099552166 174.0022965023839,114.02674710463441 214.4122772938765,101.61213214559768 217.6380266072926,112.11205246560446 177.22804581744998,124.52666742299121 180.2456822761408,134.34917353210398 220.65566306598345,121.93455857471722 223.88141238104953,132.43447889472398 183.47143158955691,144.84909385211074 186.48906804824773,154.6715999612235 226.89904883809038,142.25698500383675 230.12479815315646,152.75690532219355 189.7148173633138,165.17152028123027 192.73245382035466,174.99402639034304 233.14243461184728,162.5794114313063 236.3681839252634,173.07933175131308 195.95820313542075,185.49394671034983 198.97583959411156,195.31645281946257 239.3858203839542,182.90183786042584 242.6115696990203,193.4017581804326 202.20158890752768,205.81637313946936 205.2192253662185,215.6388792485821 245.62920615606114,203.22426428954537 248.85495547112723,213.72418460955217 208.4449746796346,226.1387995685889 211.46261113832543,235.96130567770163 251.87259192981804,223.5466907186649 255.09834124323416,234.0466110386717 214.6883604533915,246.46122599770842 217.70599691043236,256.28373210682116 258.115977701925,243.86911714778444 261.34172701699106,254.36903746779123 220.93174622549844,266.783652426828 223.94938268418926,276.6061585359407 264.3593634740319,264.191543576904 267.585112789098,274.69146389691076 227.17513199760538,287.1060788542975 230.1927684562962,296.9285849617603 235.96522735065227,295.1551900438699 235.96522735065227,331.4472974878471 224.98097565197227,331.4472974878471 224.98097565197227,286.58932285618886 214.70538535065228,286.58932285618886 214.70538535065228,331.4472974878471 203.72113365197225,331.4472974878471 203.72113365197225,286.58932285618886 193.4455433506523,286.58932285618886 193.4455433506523,331.4472974878471 182.46129165197226,331.4472974878471 182.46129165197226,286.58932285618886 172.18570135065227,286.58932285618886 172.18570135065227,331.4472974878471 161.20144965362223,331.4472974878471 161.20144965362223,286.58932285618886 150.92585935230227,286.58932285618886 150.92585935230227,331.4472974878471 139.94160765362224,331.4472974878471 139.94160765362224,286.58932285618886 129.66601735230225,286.58932285618886 129.66601735230225,331.4472974878471 118.68176565362225,331.4472974878471 118.68176565362225,286.58932285618886 108.40617535230226,286.58932285618886 108.40617535230226,331.4472974878471 97.42192365362224,331.4472974878471 97.42192365362224,286.58932285618886 87.14633335230226,286.58932285618886 87.14633335230226,331.4472974878471 76.16208165362225,331.4472974878471 76.16208165362225,286.58932285618886 65.88649135230226,286.58932285618886 65.88649135230226,331.4472974878471 54.902239653622246,331.4472974878471 54.902239653622246,286.58932285618886 44.62664935230226,286.58932285618886 44.62664935230226,292.94134518236143 44.74297472660807,292.9835895888678 44.682500164593655,293.15011402659263 44.62664935230226,293.1298313971451 44.62664935230226,331.4472974878471 0.0,331.4472974878471 13.986128628811494,292.9347038425951 41.0084511514825,302.74805690211844 44.51597572686882,293.0896394662282 17.49365320254783,283.2762864067049 21.24307602434182,272.9517712182654 48.26539854701283,282.7651242744887 51.77292312074916,273.1067068402485 24.750600598078154,263.29335378072517 28.500023416572187,252.9688385906356 55.522345940893175,262.78219164850896 59.02987051462951,253.12377421261874 32.007547991958496,243.3104211547454 35.75697081045253,232.98590596300588 62.77929333477351,242.79925902252918 66.28681790850985,233.140841584989 39.26449538583884,223.32748852711566 43.013918204332874,213.00297333537614 70.03624072865387,222.81632639489945 73.5437653023902,213.15790895900923 46.52144277971919,203.34455589948593 50.27086560151319,193.0200407093964 77.2931881225342,202.83339376726974 80.80071269792052,193.17497633137953 53.77839017359953,183.3616232718562 57.52781299539353,173.03710808176666 84.55013551641456,182.85046113964 88.05766009180087,173.1920437037498 61.03533756747988,163.37869064587645 64.78476038762389,153.05417545413692 91.8070829102949,162.86752851366023 95.31460748568121,153.20911107612005 68.29228496136022,143.3957580182467 72.04170778150424,133.0712428265072 99.06403030417525,142.8845958860305 102.57155487956156,133.22617845014028 75.54923235689056,123.41282539061699 79.29865517538458,113.08831020052745 106.32097769970557,122.90166325840077 109.8285022734419,113.24324582251056 82.8061797507709,103.42989276298725 86.55560256926493,93.10537757289771 113.57792509358592,102.91873063077104 117.08544966732225,93.26031319488082 90.06312714465125,83.4469601370075 93.81254996314527,73.12244494526797 120.83487248746626,82.93579800479128 124.34239706120259,73.27738056725109 97.32007453853159,63.46402750937776 101.0694973586756,53.13951231763824 128.0918198813466,62.95286537716155 131.59934445673292,53.294447941271336 104.57702193241194,43.48109488174803 108.32644475420592,33.156579691658486 135.34876727522695,42.969932749531814 138.85629185061327,33.3115153136416 111.83396932629228,23.49816225411829 115.58339214808628,13.173647064028753 142.6057146691073,22.98700012190208 146.1132392444936,13.328582686011869 143.22478375528542,12.279619055920865 183.19534843004192,0.0 186.421097745108,10.49992032000678" style="fill:none;stroke:#ff0000" /><polyline points="267.9980859572017,318.86855763850707 17.950582219845323,318.86855763850707 153.40719857430418,-54.12855691943368 267.9980859572017,318.86855763850707" style="fill:none;stroke:#ff0000" /></svg>