<?xml version="1.0" encoding="UTF-8" standalone="no"?>
<svg
   xmlns:dc="http://purl.org/dc/elements/1.1/"
   xmlns:cc="http://creativecommons.org/ns#"
   xmlns:rdf="http://www.w3.org/1999/02/22-rdf-syntax-ns#"
   xmlns:svg="http://www.w3.org/2000/svg"
   xmlns="http://www.w3.org/2000/svg"
   xmlns:sodipodi="http://sodipodi.sourceforge.net/DTD/sodipodi-0.dtd"
   xmlns:inkscape="http://www.inkscape.org/namespaces/inkscape"
   height="41mm"
   version="1.2"
   width="61mm"
   id="svg1500"
   sodipodi:docname="num4.svg">
  <metadata
     id="metadata1504">
    <rdf:RDF>
      <cc:Work
         rdf:about="">
        <dc:format>image/svg+xml</dc:format>
        <dc:type
           rdf:resource="http://purl.org/dc/dcmitype/StillImage" />
        <dc:title></dc:title>
      </cc:Work>
    </rdf:RDF>
  </metadata>
  <sodipodi:namedview
     pagecolor="#ffffff"
     bordercolor="#666666"
     inkscape:document-rotation="0"
     borderopacity="1"
     objecttolerance="10"
     gridtolerance="10"
     guidetolerance="10"
     inkscape:pageopacity="0"
     inkscape:pageshadow="2"
     inkscape:window-width="640"
     inkscape:window-height="480"
     id="namedview1502"
     showgrid="false" />
  <defs
     id="defs1456" />
  <circle
     cx="169.3498"
     cy="103.0603"
     fill="rgb(0%,0%,0%)"
     r="15"
     stroke="none"
     id="circle1458" />
  <circle
     cx="165.4562"
     cy="122.8435"
     fill="rgb(0%,0%,0%)"
     r="15"
     stroke="none"
     id="circle1460" />
  <circle
     cx="21.4221"
     cy="103.0603"
     fill="rgb(0%,16%,16%)"
     r="15"
     stroke="none"
     id="circle1462" />
  <circle
     cx="5.0203"
     cy="122.8435"
     fill="rgb(0%,16%,16%)"
     r="15"
     stroke="none"
     id="circle1464" />
  <circle
     cx="18.7446"
     cy="91.2233"
     fill="rgb(0%,33%,33%)"
     r="15"
     stroke="none"
     id="circle1466" />
  <circle
     cx="-4.5746"
     cy="80.4248"
     fill="rgb(0%,33%,33%)"
     r="15"
     stroke="none"
     id="circle1468" />
  <circle
     cx="152.272"
     cy="27.5594"
     fill="rgb(0%,50%,50%)"
     r="15"
     stroke="none"
     id="circle1470" />
  <circle
     cx="140.2433"
     cy="11.3778"
     fill="rgb(0%,50%,50%)"
     r="15"
     stroke="none"
     id="circle1472" />
  <circle
     cx="179.8127"
     cy="33.5849"
     fill="rgb(0%,66%,66%)"
     r="15"
     stroke="none"
     id="circle1474" />
  <circle
     cx="191.5816"
     cy="22.6099"
     fill="rgb(0%,66%,66%)"
     r="15"
     stroke="none"
     id="circle1476" />
  <circle
     cx="191.6165"
     cy="85.7685"
     fill="rgb(0%,83%,83%)"
     r="15"
     stroke="none"
     id="circle1478" />
  <circle
     cx="206.963"
     cy="90.6102"
     fill="rgb(0%,83%,83%)"
     r="15"
     stroke="none"
     id="circle1480" />
  <polyline
     fill="none"
     points="204.5733,102.4531 182.3067,119.7449"
     stroke="rgb(0%,0%,100%)"
     id="polyline1482" />
  <polyline
     fill="none"
     points="169.3498,139.5281 21.4221,139.5281"
     stroke="rgb(0%,0%,100%)"
     id="polyline1484" />
  <polyline
     fill="none"
     points="-15.3778,111.3843 -18.0553,99.5473"
     stroke="rgb(0%,0%,100%)"
     id="polyline1486" />
  <polyline
     fill="none"
     points="3.0499,58.3054 118.2576,3.3761"
     stroke="rgb(0%,0%,100%)"
     id="polyline1488" />
  <polyline
     fill="none"
     points="156.787,6.9229 178.4097,11.6536"
     stroke="rgb(0%,0%,100%)"
     id="polyline1490" />
  <polyline
     fill="none"
     points="202.1064,28.5422 213.9101,80.7258"
     stroke="rgb(0%,0%,100%)"
     id="polyline1492" />
  <polyline
     fill="none"
     points="165.4562,122.8435 5.0203,122.8435 -4.5746,80.4248 140.2433,11.3778 191.5816,22.6099 206.963,90.6102 165.4562,122.8435"
     stroke="rgb(0%,0%,0%)"
     id="polyline1494" />
  <polyline
     fill="none"
     points="191.6165,85.7685 208.9199,108.0502 197.7832,116.6987 180.4798,94.417 169.3498,103.0603 169.3498,103.0603 169.3498,146.6147 157.0003,146.6147 157.0003,103.0603 144.6952,103.0603 144.6952,146.6147 132.3457,146.6147 132.3457,103.0603 120.0406,103.0603 120.0406,146.6147 107.6911,146.6147 107.6911,103.0603 95.3859,103.0603 95.3859,146.6147 83.0364,146.6147 83.0364,103.0603 70.7313,103.0603 70.7313,146.6147 58.3818,146.6147 58.3818,103.0603 46.0767,103.0603 46.0767,146.6147 33.7272,146.6147 33.7272,103.0603 21.4221,103.0603 21.4221,103.0603 18.7446,91.2233 0.0,51.9087 9.6179,47.323 28.3625,86.6376 37.9459,82.0684 19.2013,42.7538 28.8192,38.1681 47.5638,77.4827 57.1472,72.9135 38.4026,33.5989 48.0205,29.0132 66.7651,68.3278 76.3485,63.7586 57.6039,24.444 67.2218,19.8583 85.9664,59.1729 95.5497,54.6037 76.8051,15.2891 86.4231,10.7035 105.1677,50.0181 114.751,45.4489 96.0064,6.1343 105.6243,1.5486 124.3689,40.8632 133.9523,36.294 152.272,27.5594 158.3017,0.0 169.1162,2.3661 163.0866,29.9255 173.8947,32.2901 179.8127,33.5849 209.0184,26.9787 211.9711,40.0324 182.7654,46.6387 185.7146,59.6767 214.9202,53.0705 217.873,66.1242 188.6673,72.7304 191.6165,85.7685 191.6165,85.7685"
     stroke="rgb(100%,0%,0%)"
     id="polyline1496"
     transform="translate(-94.961303,-117.99149)" />
  <polyline
     fill="none"
     points="169.3498,103.0603 21.4221,103.0603 18.7446,91.2233 152.272,27.5594 179.8127,33.5849 191.6165,85.7685 169.3498,103.0603"
     stroke="rgb(0%,100%,0%)"
     id="polyline1498" />
  <polyline
     transform="rotate(25.484697,15.538139,-118.68448)"
     id="polyline1496-3"
     stroke="rgb(100%,0%,0%)"
     points="191.6165,85.7685 208.9199,108.0502 197.7832,116.6987 180.4798,94.417 169.3498,103.0603 169.3498,103.0603 169.3498,146.6147 157.0003,146.6147 157.0003,103.0603 144.6952,103.0603 144.6952,146.6147 132.3457,146.6147 132.3457,103.0603 120.0406,103.0603 120.0406,146.6147 107.6911,146.6147 107.6911,103.0603 95.3859,103.0603 95.3859,146.6147 83.0364,146.6147 83.0364,103.0603 70.7313,103.0603 70.7313,146.6147 58.3818,146.6147 58.3818,103.0603 46.0767,103.0603 46.0767,146.6147 33.7272,146.6147 33.7272,103.0603 21.4221,103.0603 21.4221,103.0603 18.7446,91.2233 0.0,51.9087 9.6179,47.323 28.3625,86.6376 37.9459,82.0684 19.2013,42.7538 28.8192,38.1681 47.5638,77.4827 57.1472,72.9135 38.4026,33.5989 48.0205,29.0132 66.7651,68.3278 76.3485,63.7586 57.6039,24.444 67.2218,19.8583 85.9664,59.1729 95.5497,54.6037 76.8051,15.2891 86.4231,10.7035 105.1677,50.0181 114.751,45.4489 96.0064,6.1343 105.6243,1.5486 124.3689,40.8632 133.9523,36.294 152.272,27.5594 158.3017,0.0 169.1162,2.3661 163.0866,29.9255 173.8947,32.2901 179.8127,33.5849 209.0184,26.9787 211.9711,40.0324 182.7654,46.6387 185.7146,59.6767 214.9202,53.0705 217.873,66.1242 188.6673,72.7304 191.6165,85.7685 191.6165,85.7685"
     fill="none" />
</svg>
