<?xml version="1.0" encoding="utf-8" ?>
<svg baseProfile="full" height="62mm" version="1.1" width="60mm" xmlns="http://www.w3.org/2000/svg" xmlns:ev="http://www.w3.org/2001/xml-events" xmlns:xlink="http://www.w3.org/1999/xlink"><defs /><polyline points="233.8997610126822,195.85654979426465 10.671556185471857,195.85654979426465 49.28653813603544,34.73567707279154 233.8997610126822,195.85654979426465" style="fill:none;stroke:#000000" /><polyline points="134.8689123772316,81.64553416716939 111.83099566801693,108.04251166866582 119.57279820060718,114.79915651391367 142.61071490982187,88.40217901241722 150.8864348588511,95.6247993638356 127.84851814963642,122.02177686368206 135.59032068387666,128.7784217089299 158.62823739309133,102.38144420908345 166.90395734047058,109.60406455885185 143.8660406312559,136.00104205869832 151.60784316549615,142.75768690394614 174.64575987471082,116.3607094040997 182.92147982374007,123.5833297538681 159.8835631128754,149.98030725371456 167.62536564711564,156.7369520989624 190.6632823563303,130.33997459911595 198.93900230535957,137.56259494888434 175.90108559614487,163.9595724487308 183.64288812873514,170.7162172956286 206.6808048379498,144.3192397941322 214.95652478697906,151.54186014390058 196.51794024825725,172.66889638418044 196.51794024825725,172.40333498785995 186.24234994693725,172.40333498785995 186.24234994693725,220.6815156448503 175.25809824825723,220.6815156448503 175.25809824825723,172.40333498785995 164.98250794693726,172.40333498785995 164.98250794693726,220.6815156448503 153.99825624825723,220.6815156448503 153.99825624825723,172.40333498785995 143.72266594693724,172.40333498785995 143.72266594693724,220.6815156448503 132.73841424825724,220.6815156448503 132.73841424825724,172.40333498785995 122.46282394693725,172.40333498785995 122.46282394693725,220.6815156448503 111.47857224825724,220.6815156448503 111.47857224825724,172.40333498785995 101.20298194693726,172.40333498785995 101.20298194693726,220.6815156448503 90.21873024825723,220.6815156448503 90.21873024825723,172.40333498785995 79.94313994693725,172.40333498785995 79.94313994693725,220.6815156448503 68.95888824825724,220.6815156448503 68.95888824825724,172.40333498785995 58.68329794693725,172.40333498785995 58.68329794693725,220.6815156448503 47.69904624825724,220.6815156448503 47.69904624825724,172.40333498785995 37.42345594693725,172.40333498785995 37.42345594693725,220.6815156448503 26.439204248257237,220.6815156448503 26.439204248257237,172.40333498785995 0.0,172.40333498785995 1.787447493360361,164.94521677648962 24.768571523437195,170.45298045014786 27.16344799097778,160.4603670390874 4.182323959250962,154.95260336707912 6.74236432161675,144.27084420768514 29.723488351693586,149.7786078813434 32.118364819234166,139.78599447028293 9.13724078750735,134.27823079827465 11.69728114987314,123.59647163888067 34.678405179949976,129.1042353141889 37.07328164749055,119.11162190312845 14.09215761576374,113.60385823112017 16.65219797812953,102.92209907172618 39.63332200820636,108.42986274538444 42.02819847574695,98.43724933432398 19.04707444402013,92.9294856623157 21.607114804735936,82.24772650292171 44.58823883481277,87.75549017657997 46.983115302353355,77.76287676551951 24.001991270626537,72.25511309351123 26.562031632992326,61.57335393411724 49.543155663069165,67.08111760777551 51.93803213060974,57.08850419836502 28.956908098882927,51.58074052470676 31.47565748795491,41.07126780528362 41.31898962627451,0.0 134.8689123772316,81.64553416716939" style="fill:none;stroke:#ff0000" /><polyline points="205.31702472034135,159.82459513851992 15.949631864307264,159.82459513851992 48.707223866858726,23.143660820364797 205.31702472034135,159.82459513851992" style="fill:none;stroke:#ff0000" /></svg>