<?xml version="1.0" encoding="utf-8" ?>
<svg baseProfile="full" height="93mm" version="1.1" width="73mm" xmlns="http://www.w3.org/2000/svg" xmlns:ev="http://www.w3.org/2001/xml-events" xmlns:xlink="http://www.w3.org/1999/xlink"><defs /><polyline points="249.08464029382327,306.93179953779537 25.85627203876066,306.9317995377954 125.27792082845932,-30.082518808899913 249.08464029382327,306.93179953779537" style="fill:none;stroke:#000000" /><polyline points="166.51700083028425,10.310530026239208 125.92036742963118,25.22424653380174 129.4637101401678,34.869581079746425 170.06034354082087,19.95586457218389 173.8480547122186,30.26639460007308 133.25142131156554,45.18011110598563 136.79476402375212,54.825445651930316 177.3913974227552,39.91172914436778 181.17910859415298,50.222259172256976 140.5824751951499,65.13597567981951 144.1258179056865,74.78131022411421 184.72245130468957,59.867593718201654 188.51016247608734,70.17812374444087 147.91352907708423,85.0918402520034 151.45687178762086,94.73717479794809 192.05350518662394,79.82345829038555 195.84121635967168,90.13398831827473 155.2445829590186,105.04770482418729 158.7879256695552,114.69303937013197 199.38455907020827,99.77932286256944 203.17227024160604,110.08985289045863 162.57563684095297,125.00356939802116 166.11897955148956,134.64890394231585 206.71561295214264,119.73518743640331 210.50332412354038,130.04571746264253 169.90669072288733,144.95943397020505 173.45003343342393,154.60476851614973 214.046666834077,139.6910520085872 217.83437800547475,150.0015820348264 177.23774460482167,164.91529854238894 180.78108731535826,174.56063308833362 221.37772071601134,159.6469165807711 225.1654318874091,169.9574466086603 184.56879848675604,184.87116311457282 188.11214119729263,194.51649766051753 228.7087745979457,179.60278115295498 232.49648576934348,189.91331118084418 191.8998523686904,204.8270276884067 195.443195079227,214.4723622327014 236.03982847988007,199.55864572678885 239.82753965127782,209.86917575302806 199.23090625062477,224.7828922605906 202.77424896116136,234.4282268065353 243.37088236181444,219.51451029897274 247.15859353321218,229.82504032686194 206.5619601325591,244.7387568327745 210.1053028430957,254.38409137871918 250.70193624374878,239.47037487115665 254.48964741514655,249.78090489904582 213.89301401614347,264.69462140660835 217.43635672668006,274.33995595090306 258.0329901256831,259.42623944499053 261.8207012970809,269.7367694712297 221.2240678980778,284.65048597879223 224.7674106086144,294.29582052473694 233.31691051542174,291.15504733134225 233.31691051542174,330.9467503064466 222.3326588167417,330.9467503064466 222.3326588167417,289.31580560602936 212.05706851542175,289.31580560602936 212.05706851542175,330.9467503064466 201.07281681674172,330.9467503064466 201.07281681674172,289.31580560602936 190.79722651542173,289.31580560602936 190.79722651542173,330.9467503064466 179.81297481674173,330.9467503064466 179.81297481674173,289.31580560602936 169.53738451542173,289.31580560602936 169.53738451542173,330.9467503064466 158.5531328167417,330.9467503064466 158.5531328167417,289.31580560602936 148.27754251542174,289.31580560602936 148.27754251542174,330.9467503064466 137.29329081674172,330.9467503064466 137.29329081674172,289.31580560602936 127.01770051542174,289.31580560602936 127.01770051542174,330.9467503064466 116.03344881674172,330.9467503064466 116.03344881674172,289.31580560602936 105.75785851542173,289.31580560602936 105.75785851542173,330.9467503064466 94.77360681674172,330.9467503064466 94.77360681674172,289.31580560602936 84.49801651542174,289.31580560602936 84.49801651542174,330.9467503064466 73.51376481674171,330.9467503064466 73.51376481674171,289.31580560602936 63.23817451542173,289.31580560602936 63.23817451542173,330.9467503064466 52.25392281674172,330.9467503064466 52.25392281674172,289.31580560602936 41.978332515421734,289.31580560602936 41.978332515421734,330.9467503064466 0.0,330.9467503064466 10.224394575188848,296.2886309701069 37.651479276268326,304.3798183011335 40.5589729248807,294.52414801649684 13.13188822050126,286.4329606871202 16.239898670474858,275.8975890062172 43.66698337155434,283.9887763388938 46.57447702016671,274.1331060542571 19.14739231743725,266.0419187248805 22.25540276741085,255.50654704397743 49.68248746849033,263.59773437500405 52.5899811171027,253.74206409201736 25.162896412723263,245.6508767609907 28.270906862696858,235.1155050800877 55.69799156542632,243.2066924127643 58.605485212388714,233.35102212812762 31.178400509659255,225.25983479875097 34.28641095963285,214.72446311784793 61.713495660712326,222.81565044887458 64.6209893093247,212.95998016588786 37.19390460494527,204.86879283486124 40.30191505326888,194.3334211556082 67.72899975764832,202.4246084866348 70.63649340461072,192.56893820199812 43.20940870023127,184.47775087262147 46.31741915020487,173.94237919171846 73.74450385293433,182.03356652439507 76.6519975015467,172.17789623975838 49.22491279716726,164.08670890873174 52.33292324549088,153.5513372294787 79.76000794987033,161.64252456050534 82.6675015984827,151.78685427751861 55.240416892453275,143.695666946492 58.348427342426874,133.16029526558896 85.77551204515633,141.25148259826557 88.6830056937687,131.39581231362888 61.25592098938927,123.30462498425224 64.36393143936286,112.7692533033492 91.79101614209232,120.86044063437583 94.6985097907047,111.00477035138914 67.27142508467527,102.91358302036251 70.37943553464888,92.37821134110945 97.80652023737834,100.46939867213608 100.71401388599071,90.6137283874994 73.28692918161127,82.52254105812275 76.39493963158486,71.98716937721971 103.82202433431432,80.07835670989633 106.7295179829267,70.22268642525965 79.30243327689728,62.131499094233014 82.41044372687088,51.59612741497996 109.83752843125032,59.6873147460066 112.74502207821271,49.83164446136992 85.31793737383327,41.74045713199326 88.42594782380687,31.205085451090227 115.85303252653632,39.296272783766845 118.7605261751487,29.44060249913016 91.33344147076926,21.349415169753506 94.44145191909287,10.814043488850473 121.86853662347232,18.905230819877108 123.1570842912115,14.537379160593142 162.7292896588865,0.0 166.51700083028425,10.310530026239208" style="fill:none;stroke:#ff0000" /><polyline points="266.2853651054661,318.36801045710655 16.825500308039896,318.36801045710655 127.93015631044979,-58.24875624832229 266.2853651054661,318.36801045710655" style="fill:none;stroke:#ff0000" /></svg>