<?xml version="1.0" encoding="utf-8" ?>
<svg baseProfile="full" height="40mm" version="1.1" width="49mm" xmlns="http://www.w3.org/2000/svg" xmlns:ev="http://www.w3.org/2001/xml-events" xmlns:xlink="http://www.w3.org/1999/xlink"><defs /><polyline points="140.80761322972788,128.61062814998616 -16.85913550610938,128.6106281499861 163.2642886425167,-3.2469125668445527 140.80761322972788,128.61062814998616" style="fill:none;stroke:#000000" /><polyline points="153.8663896824145,10.609025283849887 153.0470271577394,15.420028055631676 174.90101765676144,19.141984104095595 173.05684274430774,29.970317504968474 151.2028522452857,26.248361456504554 149.47765635986775,36.378092708816204 171.33164685888977,40.10004875563014 169.48747194808607,50.92838215650302 147.63348144906402,47.20642610968908 145.90828556364605,57.33615736035075 167.7622760626681,61.05811340881467 165.9181011502144,71.88644680968754 144.06411065119238,68.16449076122363 142.33891476742437,78.29422201353528 164.19290526479645,82.01617806034922 162.34873035399272,92.84451146287208 140.4947398549707,89.12255541440815 138.76954396955273,99.25228666506982 160.62353446857475,102.97424271353374 158.80910431288,113.62792557685381 153.46924769824062,144.9816477191469 136.20652051102084,144.9816477191469 136.20652051102084,120.11448500750357 125.93093020970085,120.11448500750357 125.93093020970085,144.9816477191469 114.94667851102083,144.9816477191469 114.94667851102083,120.11448500750357 104.67108820970084,120.11448500750357 104.67108820970084,144.9816477191469 93.68683651102083,144.9816477191469 93.68683651102083,120.11448500750357 83.41124620970085,120.11448500750357 83.41124620970085,144.9816477191469 72.42699451267082,144.9816477191469 72.42699451267082,120.11448500750357 62.15140421135083,120.11448500750357 62.15140421135083,144.9816477191469 51.16715251267081,144.9816477191469 51.16715251267081,120.11448500750357 40.89156221135083,120.11448500750357 40.89156221135083,144.9816477191469 29.907310512670815,144.9816477191469 29.907310512670815,120.11448500750357 19.631720211350828,120.11448500750357 19.631720211350828,144.9816477191469 8.647468512670814,144.9816477191469 8.647468512670814,123.70864599619085 11.00421547921871,121.9834130852015 0.0,106.95115204502332 8.863219066278043,100.46292168696709 19.867434543846773,115.49518272714529 28.158833025523005,109.42554787350562 17.154617547954274,94.39328683497742 26.01783661423232,87.9050564769212 37.02205209180105,102.93731751709939 45.313450573477276,96.86768266345973 34.30923509590855,81.83542162328155 43.1724541621866,75.34719126522532 54.176669639755325,90.37945230540352 62.46806812143156,84.30981745176385 51.46385264221284,69.27755641323564 60.32707170849089,62.78932605517943 71.33128718770959,77.82158709535761 79.62268566938583,71.75195224171796 68.61847019016712,56.71969120153977 77.48168925644516,50.231460843483546 88.48590473401389,65.26372188366173 96.77730321569013,59.194087030022075 85.77308773647141,44.16182599149387 94.63630680274946,37.67359563343765 105.64052228196817,52.70585667361584 113.9319207636444,46.63622181997618 102.92770528442568,31.603960779797994 111.79092435070373,25.115730421741773 122.79513982992245,40.147991461919965 131.08653831159867,34.0783566082803 120.08232283237996,19.046095569752097 128.945541898658,12.557865211695878 139.94975737787672,27.590126250224085 148.24115585955295,21.520491398234405 137.23694038033423,6.488230358056219 146.10015944661228,0.0 153.8663896824145,10.609025283849887" style="fill:none;stroke:#ff0000" /><polyline points="142.8516721358233,132.4029078698069 18.065891344515776,132.4029078698069 160.6250694936545,28.043895562350002 142.8516721358233,132.4029078698069" style="fill:none;stroke:#ff0000" /></svg>