<?xml version="1.0" encoding="utf-8" ?>
<svg baseProfile="full" height="36mm" version="1.1" width="51mm" xmlns="http://www.w3.org/2000/svg" xmlns:ev="http://www.w3.org/2001/xml-events" xmlns:xlink="http://www.w3.org/1999/xlink"><defs /><polyline points="140.9063093417693,112.67492005428524 -19.123848348862005,112.67492005428524 172.22488907058403,-2.2884105623967375 140.9063093417693,112.67492005428524" style="fill:none;stroke:#000000" /><polyline points="164.31780492819172,15.16754403502053 168.21263098847075,12.827511997021762 182.16632898366646,16.628811079568663 179.27918922552666,27.226839641672427 159.46282000982058,21.828417936763575 156.76194733290433,31.74270272364771 176.5783165486104,37.14112442855656 173.6911767904706,47.73915299066033 153.8748075747645,42.340731285751474 151.17393489949822,52.25501607263561 170.9903041152043,57.65343777589448 168.10316435541452,68.25146633799825 148.28679513970846,62.853044634739376 145.58592246444218,72.76732941997354 165.40229168014824,78.16575112488238 162.51515192035848,88.76377968698614 142.69878270630235,83.3653579820773 139.9979100293861,93.27964276896142 159.81427924509217,98.6780644722203 156.97370625767076,109.10515709051916 151.46675173299536,129.31992541909594 135.1235121468997,129.31992541909594 135.1235121468997,103.81785153262089 124.84792184722971,103.81785153262089 124.84792184722971,129.31992541909594 113.8636701485497,129.31992541909594 113.8636701485497,103.81785153262089 103.58807984722971,103.81785153262089 103.58807984722971,129.31992541909594 92.6038281485497,129.31992541909594 92.6038281485497,103.81785153262089 82.32823784722972,103.81785153262089 82.32823784722972,129.31992541909594 71.3439861485497,129.31992541909594 71.3439861485497,103.81785153262089 61.06839584722971,103.81785153262089 61.06839584722971,129.31992541909594 50.0841441485497,129.31992541909594 50.0841441485497,103.81785153262089 39.80855384722971,103.81785153262089 39.80855384722971,129.31992541909594 28.824302148549698,129.31992541909594 28.824302148549698,103.81785153262089 18.54871184722971,103.81785153262089 18.54871184722971,129.31992541909594 7.5644601485496965,129.31992541909594 7.5644601485496965,109.34578029768737 9.112740450486239,108.41556532759893 7.5644601485496965,105.83855682071538 7.5644601485496965,103.81785153262089 6.350409753640589,103.81785153262089 0.0,93.2480212925784 9.415571425604352,87.59109632124039 18.52831187609059,102.75864035626091 27.33642708303012,97.46667828826887 18.22368663254388,82.29913425159836 27.639258056498253,76.64220928026035 36.75199850863447,91.80975331693085 45.56011371392402,86.51779124728884 36.44737326343778,71.3502472122683 45.86294468904213,65.69332224093029 54.97568513952837,80.86086627595081 63.7838003464679,75.56890420795878 54.671059895981664,60.40136017128827 64.08663131993603,54.744435199950246 73.19937177042227,69.91197923662077 82.0074869773618,64.62001716697874 72.89474652687556,49.45247313030823 82.3103179524799,43.79554816062019 91.42305840296615,58.96309219564072 100.23117360990568,53.67113012764868 91.11843315776946,38.50358609097817 100.53400458337381,32.84666111964015 109.64674503386006,48.014205156310666 118.45486024079958,42.72224308666864 109.34211979031333,27.55469904999813 118.75769121591769,21.897774080310096 127.87043166640393,37.065318115330626 136.6785468700435,31.773356047338588 127.56580642120724,16.605812010668075 136.9813778451616,10.948887039330057 146.09411829564786,26.11643107600057 154.90223350258736,20.824469006358548 145.78949305210114,5.656924969688037 155.2050644760555,0.0 164.31780492819172,15.16754403502053" style="fill:none;stroke:#ff0000" /><polyline points="141.85633560411657,116.74118556975593 19.67989006391108,116.74118556975593 165.76678352219747,28.971409515356843 141.85633560411657,116.74118556975593" style="fill:none;stroke:#ff0000" /></svg>