<?xml version="1.0" encoding="utf-8" ?>
<svg baseProfile="full" height="40mm" version="1.1" width="47mm" xmlns="http://www.w3.org/2000/svg" xmlns:ev="http://www.w3.org/2001/xml-events" xmlns:xlink="http://www.w3.org/1999/xlink"><defs /><polyline points="152.78369949801933,124.68388156632908 -33.48895611878615,124.68388156632908 151.85435035307367,0.2701845725740628 152.78369949801933,124.68388156632908" style="fill:none;stroke:#000000" /><polyline points="145.5959422423979,19.237966905147815 145.61952359120772,22.394845857443727 166.8731187981739,22.23608511609222 166.9551670006904,33.22003037701972 145.70157179207425,33.378791115071266 145.77832656382031,43.654094750359846 167.03192176913655,43.49533400900834 167.11396997165306,54.479279268285865 145.86037476303687,54.638040007987385 145.93712953478297,64.91334364327597 167.19072474174914,64.75458290192446 167.2727729426157,75.73852816120198 146.0191777356495,75.8972889009035 146.0959325057456,86.17259253619208 167.3495277127118,86.01383179484058 167.4315759152283,96.9977770541181 146.17798070661212,97.15653779381962 146.2547354783582,107.43184142745824 167.50833068367442,107.2730806877567 167.58905552726083,118.079865541037 167.77842964626566,143.4317306543084 139.45408775286103,143.4317306543084 139.45408775286103,113.17690914895906 129.17849745154103,113.17690914895906 129.17849745154103,143.4317306543084 118.19424575286104,143.4317306543084 118.19424575286104,113.17690914895906 107.91865545154104,113.17690914895906 107.91865545154104,143.4317306543084 96.93440375286103,143.4317306543084 96.93440375286103,113.17690914895906 86.65881345154105,113.17690914895906 86.65881345154105,143.4317306543084 75.67456175451102,143.4317306543084 75.67456175451102,113.17690914895906 65.39897145319102,113.17690914895906 65.39897145319102,143.4317306543084 54.41471975451101,143.4317306543084 54.41471975451101,113.17690914895906 44.13912945319103,113.17690914895906 44.13912945319103,143.4317306543084 33.15487775451101,143.4317306543084 33.15487775451101,113.17690914895906 22.87928745319103,113.17690914895906 22.87928745319103,143.4317306543084 11.895035754511014,143.4317306543084 11.895035754511014,113.17690914895906 6.360588720103477,113.17690914895906 13.13382640851377,108.63030016946458 0.0,89.06439326432402 9.120065902032929,82.94245049182857 22.253892310546696,102.50835739696912 30.785566866509733,96.78137867181049 17.651740457995963,77.21547176501996 26.771806360028894,71.0935289925245 39.90563276854266,90.65943589931501 48.437307324505696,84.9324571725064 35.303480915991926,65.36655026571589 44.42354681802485,59.2446074948704 57.55737322653862,78.81051440001094 66.08904778250165,73.08353567320233 52.95522137398789,53.51762876806178 62.07528727437084,47.395685995566325 75.2091136828846,66.96159290070686 83.74078823719766,61.23461417554824 70.60696183033387,41.66870726875771 79.72702773071681,35.54676449626225 92.86085413923058,55.11267140305277 101.39252869519362,49.38569267624416 88.25870228667985,29.819785769453635 97.37876818871278,23.697842998608152 110.51259459722655,43.263749903748696 119.04426915318959,37.536771176940086 105.91044274467582,17.970864271799538 115.03050864670875,11.848921499304076 128.16433505522252,31.414828404444624 136.69600961118556,25.687849679285993 123.56218320267178,6.121942772495464 132.68224910305472,0.0 145.5959422423979,19.237966905147815" style="fill:none;stroke:#ff0000" /><polyline points="155.1053778193311,130.8529908049684 2.5972433429843647,130.8529908049684 154.3444861908159,28.9910145042491 155.1053778193311,130.8529908049684" style="fill:none;stroke:#ff0000" /></svg>