<?xml version="1.0" encoding="utf-8" ?>
<svg baseProfile="full" height="62mm" version="1.1" width="63mm" xmlns="http://www.w3.org/2000/svg" xmlns:ev="http://www.w3.org/2001/xml-events" xmlns:xlink="http://www.w3.org/1999/xlink"><defs /><polyline points="223.76918554655597,201.41637019916007 21.031946799329102,201.41637019916007 105.5447796454135,-5.195373210329631 223.76918554655597,201.41637019916007" style="fill:none;stroke:#000000" /><polyline points="113.52041168959157,15.102732602162032 108.91757659810037,17.73650082486503 114.02092072178371,26.65522465789047 135.5518886968357,14.335083239277957 141.00718758630413,23.86889147276035 119.47621961125212,36.18903288972288 124.57956373328548,45.10775672274833 146.11053170998747,32.78761530413581 151.5658305978059,42.3214235376182 130.0348626227539,54.64156495458074 135.13820674643725,63.56028878760618 156.66917472148924,51.24014736899367 162.12447361095766,60.77395560247606 140.59350563425568,73.09409702108857 145.69684975793902,82.01282085246403 167.227817732991,69.69267943385152 172.68311662245944,79.22648766733391 151.15214864740744,91.54662908594642 156.2554927694408,100.4653529156719 177.78646074614278,88.14521150035935 183.2417596339612,97.67901973054178 161.71079165890922,109.9991611491543 166.81413578259256,118.91788498052976 188.34510375764455,106.59774356356722 193.80040264711297,116.13155179539963 172.269434670411,128.45169321401215 177.37277879409433,137.37041704538763 198.90374676914632,125.05027562842508 204.35904565861475,134.5840838602575 182.82807768356275,146.90422527887 187.9314218055961,155.82294911024547 209.4623897822981,143.50280769328293 214.91768867011652,153.03661592511534 193.38672069506453,165.35675734372785 198.49006481874787,174.27548117510332 220.02103279379986,161.95533975814078 225.47633168326828,171.4891479899732 203.9453637065663,183.80928940858573 206.8873929519263,188.95084869037012 205.79215158817087,188.95084869037012 205.79215158817087,220.95797764162967 194.80789988949084,220.95797764162967 194.80789988949084,188.95084869037012 184.53230958817088,188.95084869037012 184.53230958817088,220.95797764162967 173.54805788949085,220.95797764162967 173.54805788949085,188.95084869037012 163.27246758817088,188.95084869037012 163.27246758817088,220.95797764162967 152.28821588949086,220.95797764162967 152.28821588949086,188.95084869037012 142.01262558817086,188.95084869037012 142.01262558817086,220.95797764162967 131.02837388949087,220.95797764162967 131.02837388949087,188.95084869037012 120.75278358817087,188.95084869037012 120.75278358817087,220.95797764162967 109.76853188949086,220.95797764162967 109.76853188949086,188.95084869037012 99.49294158817086,188.95084869037012 99.49294158817086,220.95797764162967 88.50868988949085,220.95797764162967 88.50868988949085,188.95084869037012 78.23309958817087,188.95084869037012 78.23309958817087,220.95797764162967 67.24884788949086,220.95797764162967 67.24884788949086,188.95084869037012 56.973257588170874,188.95084869037012 56.973257588170874,220.95797764162967 38.37801128014874,220.95797764162967 44.68447670971212,205.5403212536923 0.0,187.26250389084444 4.158570502583567,177.09588809432785 48.84304721064571,195.3737054571757 52.7333228430529,185.86300035358923 8.048846133340783,167.58518299074137 12.20741663592435,157.41856719587474 56.89189334398649,175.6963845570726 60.782168976393685,166.18567945348613 16.097692266681566,147.90786209228827 20.25626276926513,137.74124629577165 64.94073947567729,156.01906365696954 68.83101510808449,146.50835855503303 24.146538400022347,128.23054119218517 28.305108902605916,118.06392539566856 72.98958561066806,136.34174275851643 76.87986124307525,126.83103765492994 32.19538453336313,108.5532202920821 36.3539550359467,98.38660449556548 81.03843174400883,116.66442185841333 84.92870737641603,107.15371675482686 40.24423066670391,88.87589939527898 44.40280116928748,78.70928359876235 89.08727787734962,96.98710095996023 92.97755350975682,87.47639585637376 48.293076800044695,69.1985784951759 52.45164730262827,59.03196269865927 97.13612401069041,77.30978006150713 101.0263996430976,67.79907495792065 56.34192293338548,49.521257595072804 60.50049343596905,39.35464179855619 105.18497014403118,57.63245916140404 109.07524577643838,48.121754057817576 64.39076906672626,29.84393669496972 68.54933956930984,19.677320900103084 113.23381627737197,37.95513826130096 117.12409190977917,28.44443315771449 72.43961520006705,10.166615796516615 76.59818570265061,0.0 113.52041168959157,15.102732602162032" style="fill:none;stroke:#ff0000" /><polyline points="232.09261971866096,208.37923779228967 57.11360873364162,208.37923779228967 130.0551758494472,30.056208717596267 232.09261971866096,208.37923779228967" style="fill:none;stroke:#ff0000" /></svg>