<?xml version="1.0" encoding="utf-8" ?>
<svg baseProfile="full" height="65mm" version="1.1" width="77mm" xmlns="http://www.w3.org/2000/svg" xmlns:ev="http://www.w3.org/2001/xml-events" xmlns:xlink="http://www.w3.org/1999/xlink"><defs /><polyline points="284.30226487604614,208.4539379578039 -7.723813224132074,208.45393795780387 146.5795023662872,47.14231077265964 284.30226487604614,208.4539379578039" style="fill:none;stroke:#000000" /><polyline points="194.88744541912965,122.92923797183127 202.11275490446718,115.37576171807619 214.78788980093702,102.12493410638037 218.182809162801,106.10132810593569 199.62146154404965,121.94841932010787 206.29351218210488,129.76324474054647 224.85485980085622,113.91615352472431 231.98705186177042,122.26993241845183 213.42570424301908,138.117023632624 220.0977548810743,145.93184905141263 238.65910249982562,130.08475783724046 245.79129456073986,138.43853672931797 227.22994694198852,154.28562794349017 233.90199757839375,162.10045336392878 252.46334519879505,146.25336214810662 259.59553725805927,154.60714104183413 241.03418963930798,170.4542322560063 247.70624027736318,178.26905767479494 266.2675878961145,162.42196646062274 273.3997799570287,170.77574535270028 254.83843233827739,186.62283656687245 260.0990296570144,192.7844579150277 252.1936914917993,192.7844579150277 252.1936914917993,230.74366702570234 241.2094397931193,230.74366702570234 241.2094397931193,192.7844579150277 230.93384949179932,192.7844579150277 230.93384949179932,230.74366702570234 219.9495977931193,230.74366702570234 219.9495977931193,192.7844579150277 209.6740074917993,192.7844579150277 209.6740074917993,230.74366702570234 198.6897557931193,230.74366702570234 198.6897557931193,192.7844579150277 188.4141654917993,192.7844579150277 188.4141654917993,230.74366702570234 177.42991379311928,230.74366702570234 177.42991379311928,192.7844579150277 167.15432349179932,192.7844579150277 167.15432349179932,230.74366702570234 156.1700717931193,230.74366702570234 156.1700717931193,192.7844579150277 145.8944814917993,192.7844579150277 145.8944814917993,230.74366702570234 134.9102297931193,230.74366702570234 134.9102297931193,192.7844579150277 128.06714091409341,192.7844579150277 128.51256844418822,192.31879948403653 0.0,69.38956151055527 7.592698104802148,61.4520101940567 136.10526654899036,184.38124816753793 143.20811316172305,176.95579693634733 14.695544717534817,54.026558961216104 22.288242822336965,46.08900764636751 150.8008112665252,169.01824561984876 157.90365787925785,161.59279438700818 29.391089435069635,38.663556413526926 36.983787539871784,30.72600509702835 165.49635598406002,153.6552430705096 172.59920259679268,146.229791837669 44.086634152604454,23.30055386418776 51.6793322574066,15.363002549339164 180.19190070159482,138.29224052117044 187.29474731432748,130.86678928832984 58.78217887013927,7.937551316498576 66.37487697329144,0.0 194.88744541912965,122.92923797183127" style="fill:none;stroke:#ff0000" /><polyline points="297.3195777294708,218.16492717636234 121.19623147778304,218.16492717636234 214.25783904543553,120.87654884184869 297.3195777294708,218.16492717636234" style="fill:none;stroke:#ff0000" /></svg>