<?xml version="1.0" encoding="utf-8" ?>
<svg baseProfile="full" height="38mm" version="1.1" width="51mm" xmlns="http://www.w3.org/2000/svg" xmlns:ev="http://www.w3.org/2001/xml-events" xmlns:xlink="http://www.w3.org/1999/xlink"><defs /><polyline points="156.07586948307446,117.32207200124459 -17.694365464686346,117.32207200124462 171.7211987379682,-0.7990582546165682 156.07586948307446,117.32207200124459" style="fill:none;stroke:#000000" /><polyline points="163.49501391975656,15.80782428069702 163.41926499451628,16.37972331199069 163.89058498351625,16.442150383851818 164.50309503592524,17.424353458648397 165.69489890337192,16.681134597343885 183.78000721077197,19.076535603712127 182.3377221173787,29.965686125733775 161.976979902773,27.26887383566232 160.62774546237605,37.45549851989544 180.98848767698175,40.1523108099669 179.5462025835885,51.04146133198854 159.1854603689828,48.34464904191709 157.83622592858586,58.53127372615022 178.19696814319155,61.22808601622167 176.75468305144827,72.11723653824332 156.3939408351926,69.42042424817186 155.04470639479567,79.60704893240498 175.40544861105133,82.30386122247644 173.96316351765807,93.1930117428481 153.6024213014024,90.49619945277665 152.25318686100545,100.68282413700977 172.61392907726113,103.37963642873122 171.19490664711694,114.09315549130572 168.39305776760472,135.2469165365551 140.75931085685653,135.2469165365551 140.75931085685653,106.83040531095152 130.48372055553654,106.83040531095152 130.48372055553654,135.2469165365551 119.49946885685654,135.2469165365551 119.49946885685654,106.83040531095152 109.22387855553654,106.83040531095152 109.22387855553654,135.2469165365551 98.23962685685653,135.2469165365551 98.23962685685653,106.83040531095152 87.96403655553655,106.83040531095152 87.96403655553655,135.2469165365551 76.97978485685654,135.2469165365551 76.97978485685654,106.83040531095152 66.70419455553655,106.83040531095152 66.70419455553655,135.2469165365551 55.719942856856534,135.2469165365551 55.719942856856534,106.83040531095152 45.44435255553655,106.83040531095152 45.44435255553655,135.2469165365551 34.460100856856535,135.2469165365551 34.460100856856535,106.83040531095152 24.184510555536548,106.83040531095152 24.184510555536548,135.2469165365551 13.200258856856534,135.2469165365551 13.200258856856534,106.83040531095152 6.872794400889017,106.83040531095152 0.0,95.80939470751207 9.320451656961213,89.9970830919122 20.18642422410315,107.42143655221058 28.90555641985718,101.98411278070267 18.039583851065263,84.55975932370426 27.360035508026478,78.74744770645442 38.226008076818395,96.17180116510282 46.945140270922444,90.73447739524488 36.079167702130526,73.31012393659648 45.399619359091744,67.49781231934665 56.26559192788366,84.92216577964503 64.98472412198771,79.4848420097871 54.11875155484577,62.060488549488724 63.439203210157004,56.248176933888864 74.30517577894892,73.67253039253725 83.02430797305297,68.23520662267933 72.15833540591103,50.81085316238095 81.47878706122228,44.99854154678109 92.3447596300142,62.42289500707947 101.06389182576822,56.98557123557156 90.1979192569763,39.561217775273185 99.51837091228754,33.748906159673325 110.38434348107945,51.1732596199717 119.10347567683348,45.7359358484638 108.23750310804157,28.311582389815396 117.55795476500278,22.499270772565556 128.42392733214473,39.923624232863936 137.14305952789874,34.486300463006 126.27708695910684,17.06194700270763 135.59753861606805,11.249635385457788 146.46351118485995,28.673988845756163 155.182643378964,23.236665075898237 144.3166708101721,5.812311615599859 153.6371224671333,0.0 163.49501391975656,15.80782428069702" style="fill:none;stroke:#ff0000" /><polyline points="157.37053444517733,122.66817668721508 19.508817787134436,122.66817668721508 169.78285551496933,28.956029751351142 157.37053444517733,122.66817668721508" style="fill:none;stroke:#ff0000" /></svg>