<?xml version="1.0" encoding="utf-8" ?>
<svg baseProfile="full" height="73mm" version="1.1" width="100mm" xmlns="http://www.w3.org/2000/svg" xmlns:ev="http://www.w3.org/2001/xml-events" xmlns:xlink="http://www.w3.org/1999/xlink"><defs /><polyline points="380.2122908056184,236.000782087348 15.689780950852704,236.000782087348 105.09274702159139,31.457368777844547 380.2122908056184,236.000782087348" style="fill:none;stroke:#000000" /><polyline points="116.93205363426604,18.065135669763865 100.13022469139386,40.66430637393486 108.37646762276468,46.795149181348805 125.17829656728684,24.19597847717781 133.99324590601083,30.749638030840977 117.19141696313866,53.34880873501197 125.43765989450948,59.47965154077593 142.23948883903162,36.88048083825492 151.05443817775563,43.434140390268105 134.25260923488347,66.0333110944391 142.49885216625427,72.16415390185304 159.30068111077642,49.564983197682054 168.1156304511504,56.11864275134522 151.31380150662824,78.71781345551622 159.56004443964906,84.84865626128017 176.36187338252122,62.24948555710918 185.1768227228952,68.80314511077235 168.37499377837304,91.40231581494335 176.62123671139383,97.53315862235729 193.423065654266,74.93398791818629 202.23801499464,81.48764747184946 185.43618605011784,104.08681817437048 193.68242898313864,110.21766098178442 210.4842579260108,87.61849027761342 219.29920726638477,94.17214983127658 202.49737832186264,116.77132053544759 210.74362125488344,122.90216334121155 227.54545019940556,100.30299263869054 236.3603995364796,106.85665219070373 219.5585705952574,129.45582289487473 227.8048135266282,135.58666570228866 244.6066424695004,112.98749499811767 253.42159180822438,119.54115455178083 236.61976286535221,142.14032525595184 244.86600579672304,148.2711680617158 261.6678347412452,125.6719973575448 270.4827840799692,132.22565691120795 253.68095513709702,154.82482761537895 261.9271980684678,160.9556704227929 278.72902701299,138.3564997186219 287.543976353364,144.91015927228509 270.7421474088418,167.5093299748061 278.9883903418626,173.64017278222002 295.79021928473475,151.04100207804905 304.6051686251088,157.5946616317122 287.8033396805866,180.1938323358832 296.0495826136074,186.32467514329713 312.85141155647955,163.72550443912615 321.6663608968535,170.27916399113934 304.8645319523314,192.87833469531034 313.1107748853522,199.00917750272427 329.91260382822435,176.41000679855327 338.7275531685983,182.96366635221645 321.9257242240762,205.56283705638745 330.17196715709696,211.6936798621514 346.97379610161914,189.09450915963038 355.7887454403431,195.64816871164356 338.986916497471,218.24733941581457 346.94709522632263,224.16550177423014 346.94709522632263,261.02980585820575 335.9628435276426,261.02980585820575 335.9628435276426,217.25751373121136 325.68725322632264,217.25751373121136 325.68725322632264,261.02980585820575 314.7030015276426,261.02980585820575 314.7030015276426,217.25751373121136 304.4274112263226,217.25751373121136 304.4274112263226,261.02980585820575 293.4431595276426,261.02980585820575 293.4431595276426,217.25751373121136 283.1675692263226,217.25751373121136 283.1675692263226,261.02980585820575 272.1833175276426,261.02980585820575 272.1833175276426,217.25751373121136 261.9077272263226,217.25751373121136 261.9077272263226,261.02980585820575 250.9234755276426,261.02980585820575 250.9234755276426,217.25751373121136 240.64788522632261,217.25751373121136 240.64788522632261,261.02980585820575 229.66363352929258,261.02980585820575 229.66363352929258,217.25751373121136 219.3880432279726,217.25751373121136 219.3880432279726,261.02980585820575 208.4037915292926,261.02980585820575 208.4037915292926,217.25751373121136 198.1282012279726,217.25751373121136 198.1282012279726,261.02980585820575 187.14394952929257,261.02980585820575 187.14394952929257,217.25751373121136 176.8683592279726,217.25751373121136 176.8683592279726,261.02980585820575 165.88410752929258,261.02980585820575 165.88410752929258,217.25751373121136 155.6085172279726,217.25751373121136 155.6085172279726,261.02980585820575 144.6242655292926,261.02980585820575 144.6242655292926,217.25751373121136 134.3486752279726,217.25751373121136 134.3486752279726,261.02980585820575 123.36442352929258,261.02980585820575 123.36442352929258,217.25751373121136 113.0888332279726,217.25751373121136 113.0888332279726,261.02980585820575 102.10458152929259,261.02980585820575 102.10458152929259,217.25751373121136 91.8289912279726,217.25751373121136 91.8289912279726,261.02980585820575 80.84473952929258,261.02980585820575 80.84473952929258,217.25751373121136 70.5691492279726,217.25751373121136 70.5691492279726,261.02980585820575 59.58489752929258,261.02980585820575 59.58489752929258,217.25751373121136 49.3093072279726,217.25751373121136 49.3093072279726,261.02980585820575 38.325055529292584,261.02980585820575 38.325055529292584,228.64110765204413 38.30849434926358,228.67899767315916 38.14615831710154,228.60804294231875 38.217113047941965,228.4457069101567 38.325055529292584,228.4928870068249 38.325055529292584,217.25751373121136 28.0494652279726,217.25751373121136 28.0494652279726,224.19492449926707 0.0,211.93490914360336 4.399193302206494,201.87007513140688 42.545351619308036,218.54320893012223 46.66072599650285,209.12771904657393 8.514567681051286,192.45458524785855 12.913760983257779,182.38975123566203 51.05991929870934,199.06288503437742 55.17529367755413,189.64739515082908 17.029135362102572,172.97426135211373 21.428328664309067,162.90942733991722 59.57448697976062,179.5825611386326 63.68986135860542,170.16707125508427 25.543703043153858,153.49393745636888 29.942896345360353,143.4291034441724 68.08905466081191,160.10223724288775 72.2044290396567,150.68674735933945 34.058270724205144,134.01361356062407 38.457464026411635,123.94877955007755 76.6036223418632,140.62191334714294 80.71899672070799,131.2064234635946 42.57283840525643,114.53328966652921 46.972031707462925,104.46845565433271 85.11819002291448,121.1415894513981 89.23356440175927,111.72609956784979 51.08740608465774,95.0529657707844 55.48659938686423,84.98813175858788 93.63275770231579,101.66126555565327 97.74813208116058,92.24577567375493 59.60197376570902,75.57264187503957 64.00116706791552,65.50780786284307 102.14732538336708,82.18094166155844 106.26269976221187,72.7654517780101 68.11654144676031,56.092317979294734 72.5157347489668,46.027483967098235 110.66189306441836,62.700617765813604 114.77726744326316,53.28512788226528 76.6311091278116,36.61199408354991 80.95934769917766,26.70949610351545 92.63368194099637,0.0 116.93205363426604,18.065135669763865" style="fill:none;stroke:#ff0000" /><polyline points="405.72829715267153,248.45106600886572 -2.2328821381728052,248.45106600886572 97.82387288849485,19.533043514534576 405.72829715267153,248.45106600886572" style="fill:none;stroke:#ff0000" /></svg>