<?xml version="1.0" encoding="utf-8" ?>
<svg baseProfile="full" height="65mm" version="1.1" width="77mm" xmlns="http://www.w3.org/2000/svg" xmlns:ev="http://www.w3.org/2001/xml-events" xmlns:xlink="http://www.w3.org/1999/xlink"><defs /><polyline points="284.30189096631364,208.45328133661886 -7.724230028541147,208.4532813366188 146.57909837460053,47.141666407539084 284.30189096631364,208.45328133661886" style="fill:none;stroke:#000000" /><polyline points="194.88637128156444,122.92822477796054 202.111681367495,115.37474909839881 214.78699996128827,102.12373155245177 218.1821554865683,106.10040099321844 199.62084498908723,121.9474651807035 206.29289676232932,129.76228962930335 224.85420725981038,113.9152254418183 231.9864005367605,122.26900329770783 213.42509003762945,138.11606748519287 220.09714181087153,145.93089193379274 238.6584523100026,130.08382774630766 245.79064558530274,138.4376056021972 227.2293350861717,154.28466978968225 233.90138686106374,162.09949423828212 252.4626973585448,146.25243005079705 259.59489063384495,154.6062079066866 241.0335801363639,170.45327209417164 247.70563190960598,178.2680965427715 266.266942407087,162.42103235528643 273.39913568238717,170.77481021282594 254.83782518490614,186.62187440031101 260.09874018601545,192.78386602892968 252.19281590138561,192.78386602892968 252.19281590138561,230.7429536399609 241.2085642027056,230.7429536399609 241.2085642027056,192.78386602892968 230.93297390138562,192.78386602892968 230.93297390138562,230.7429536399609 219.9487222027056,230.7429536399609 219.9487222027056,192.78386602892968 209.6731319013856,192.78386602892968 209.6731319013856,230.7429536399609 198.6888802027056,230.7429536399609 198.6888802027056,192.78386602892968 188.4132899013856,192.78386602892968 188.4132899013856,230.7429536399609 177.42903820270558,230.7429536399609 177.42903820270558,192.78386602892968 167.15344790138562,192.78386602892968 167.15344790138562,230.7429536399609 156.1691962027056,230.7429536399609 156.1691962027056,192.78386602892968 145.8936059013856,192.78386602892968 145.8936059013856,230.7429536399609 134.9093542027056,230.7429536399609 134.9093542027056,192.78386602892968 128.06565314941656,192.78386602892968 128.5114887973368,192.3177810184768 0.0,69.38955624051628 7.59269873344487,61.452005526260734 136.10418753078164,184.38023030587127 143.2070347342075,176.95477963732412 14.695545936870703,54.02655485771361 22.28824467031557,46.08900414510804 150.79973346930234,169.01722892471855 157.90258067272816,161.59177825452147 29.391091875391385,38.66355347656092 36.98379060883626,30.726002763955357 165.49527940617304,153.6542275419159 172.59812660959886,146.2287768733688 44.08663781226209,23.300552093758256 51.67933654735694,15.363001381152687 180.19082534469374,138.29122616076322 187.29367254811956,130.8657754922161 58.78218375078277,7.937550712605566 66.37488248422764,0.0 194.88637128156444,122.92822477796054" style="fill:none;stroke:#ff0000" /><polyline points="297.3191326405233,218.16421379062086 121.19485739349017,218.16421379062086 214.2569498888789,120.87534397464687 297.3191326405233,218.16421379062086" style="fill:none;stroke:#ff0000" /></svg>