<?xml version="1.0" encoding="utf-8" ?>
<svg baseProfile="full" height="65mm" version="1.1" width="91mm" xmlns="http://www.w3.org/2000/svg" xmlns:ev="http://www.w3.org/2001/xml-events" xmlns:xlink="http://www.w3.org/1999/xlink"><defs /><polyline points="347.428824459785,210.52262619108248 33.52026398268851,210.52262619108245 82.6439419783372,-7.233744408428056 347.428824459785,210.52262619108248" style="fill:none;stroke:#000000" /><polyline points="127.96480442269488,6.977005468586459 110.07765096161462,28.727220232521415 118.01412654006651,35.254096319444194 135.90127999949678,13.503881555509235 144.38509871901437,20.480887022445714 126.49794525958407,42.23110178803065 134.43442083803598,48.757977874953426 152.32157429746624,27.00776310936849 160.8053930169838,33.98476857795495 142.91823955755353,55.73498334188991 150.8547151360054,62.261859428812684 168.7418685937857,40.51164466322774 177.22568731330327,47.488650131814204 159.338533855523,69.23886489739914 167.27500943232488,75.76574098267194 185.16216289175517,54.01552621873698 193.64598161127273,60.99253168732344 175.75882815184247,82.7427464512584 183.69530373029434,89.26962253818117 201.5824571897246,67.51940777259624 210.0662759092422,74.4964132411827 192.17912244816193,96.24662800511766 200.1155980266138,102.77350409204043 218.00275148769407,81.02328932810548 226.48657020721163,88.00029479504195 208.59941674613137,109.75050956062688 216.53589232458327,116.27738564754966 234.42304578566353,94.52717088196472 242.9068645051811,101.50417635055119 225.01971104410083,123.25439111448614 232.95618662255274,129.78126720140892 250.84334008363297,108.03105243747396 259.32715880315055,115.00805790441044 241.4400053420703,136.75827266999536 249.37648092052217,143.28514875526818 267.26363438160246,121.53493399133322 275.74745310112,128.5119394599197 257.8602996400397,150.26215422385462 265.79677521849163,156.7890303107774 283.6839286779219,135.03881554519248 292.1677473974395,142.01582101377892 274.2805939380092,163.76603577936388 282.2170695164611,170.29291186463666 300.10422297589133,148.5426971007017 308.58804169540895,155.51970256763818 290.70088823597865,177.26991733322313 298.63736381443056,183.7967934201459 316.5245172738608,162.04657865456096 325.00833599337835,169.02358412314743 307.1211825339481,190.77379888708236 311.0939918658514,194.04099652092074 307.58084057015304,194.04099652092074 307.58084057015304,233.52784766720146 296.596588871473,233.52784766720146 296.596588871473,194.04099652092074 286.32099857015305,194.04099652092074 286.32099857015305,233.52784766720146 275.336746871473,233.52784766720146 275.336746871473,194.04099652092074 265.061156570153,194.04099652092074 265.061156570153,233.52784766720146 254.076904871473,233.52784766720146 254.076904871473,194.04099652092074 243.801314570153,194.04099652092074 243.801314570153,233.52784766720146 232.817062871473,233.52784766720146 232.817062871473,194.04099652092074 222.54147257015302,194.04099652092074 222.54147257015302,233.52784766720146 211.55722087147302,233.52784766720146 211.55722087147302,194.04099652092074 201.28163057015303,194.04099652092074 201.28163057015303,233.52784766720146 190.297378871473,233.52784766720146 190.297378871473,194.04099652092074 180.02178857015303,194.04099652092074 180.02178857015303,233.52784766720146 169.037536871473,233.52784766720146 169.037536871473,194.04099652092074 158.761946571803,194.04099652092074 158.761946571803,233.52784766720146 147.77769487312298,233.52784766720146 147.77769487312298,194.04099652092074 137.50210457180302,194.04099652092074 137.50210457180302,233.52784766720146 126.51785287312299,233.52784766720146 126.51785287312299,194.04099652092074 116.24226257180301,194.04099652092074 116.24226257180301,233.52784766720146 105.25801087312298,233.52784766720146 105.25801087312298,194.04099652092074 94.982420571803,194.04099652092074 94.982420571803,233.52784766720146 83.99816887312299,233.52784766720146 83.99816887312299,194.04099652092074 73.72257857180301,194.04099652092074 73.72257857180301,233.52784766720146 62.73832687312299,233.52784766720146 62.73832687312299,211.4836978150149 66.42652368210176,212.31571844370308 68.6877705264097,202.29202058709262 62.73832687312299,200.94988509216452 62.73832687312299,194.04099652092074 52.462736571803006,194.04099652092074 52.462736571803006,198.6318138098864 0.0,186.79674064481668 2.417194902820545,176.08175328238997 71.10496542758025,191.57703322301595 73.36621227353817,181.5533353664055 4.678441747128477,166.05805542412955 7.0956366499490215,155.34306806170287 75.78340717470873,170.83834800232881 78.04465402066664,160.8146501457184 9.356883494256953,145.31937020344242 11.7740783970775,134.60438284101573 80.46184892183722,150.0996627816417 82.72309576614515,140.07596492503126 14.03532523973545,124.58068498110532 16.452520144205977,113.86569761867862 85.14029066896569,129.36097756095458 87.40153751327362,119.33727970434413 18.713766986863927,103.8419997604182 21.13096189133445,93.1270123979915 89.81873241609416,108.62229234026745 92.0799792604021,98.59859448365701 23.392208733992405,83.10331453973109 25.80940363681295,72.38832717730439 94.49717416157266,87.88360711958033 96.75842100753057,77.8599092629699 28.07065048112088,62.36462931904396 30.487845383941426,51.64964195661726 99.17561590870113,67.14492189889322 101.43686275465905,57.12122404228277 32.74909222824936,41.62594409835684 35.1662871310699,30.91095673593014 103.85405765582962,46.406236678206085 106.11530450013754,36.382538821595645 37.427533973727854,20.887258877669716 39.84472887819838,10.172271515243018 108.5324994029581,25.667551457518964 110.79374624726603,15.643853600908523 107.26947439545506,14.848812816022068 119.48098570317731,0.0 127.96480442269488,6.977005468586459" style="fill:none;stroke:#ff0000" /><polyline points="368.3447912577013,220.94910781786146 5.190404324678308,220.94910781786146 62.02058168412175,-30.96877918134686 368.3447912577013,220.94910781786146" style="fill:none;stroke:#ff0000" /></svg>