# Blender v2.81 (sub 16) OBJ File: ''
# www.blender.org
mtllib donut.mtl
o TwistedTorus.001
v 2.788943 -0.716431 1.226938
v 2.288943 0.149595 1.226938
v 1.288943 0.149595 1.226938
v 0.788943 -0.716431 1.226938
v 1.288943 -1.582456 1.226938
v 2.288943 -1.582456 1.226938
v 2.156977 -0.128645 -0.130268
v 1.417903 0.278091 0.406700
v 0.763394 -0.309694 0.882229
v 0.847960 -1.304216 0.820789
v 1.587034 -1.710953 0.283820
v 2.241542 -1.123167 -0.191708
v 0.847960 0.234626 -0.493539
v 0.545696 0.026714 0.436734
v 0.450204 -0.924342 0.730627
v 0.656977 -1.667487 0.094246
v 0.959241 -1.459576 -0.836028
v 1.054733 -0.508519 -1.129920
v -0.079091 0.234626 0.094246
v 0.127681 -0.508519 0.730627
v 0.032190 -1.459575 0.436734
v -0.270074 -1.667487 -0.493539
v -0.476847 -0.924342 -1.129920
v -0.381356 0.026714 -0.836028
v -0.270074 -0.128645 0.820789
v -0.185509 -1.123167 0.882229
v -0.840018 -1.710953 0.406701
v -1.579092 -1.304216 -0.130268
v -1.663657 -0.309694 -0.191708
v -1.009148 0.278091 0.283820
v -0.211057 -0.716431 1.226938
v -0.711057 -1.582456 1.226938
v -1.711057 -1.582456 1.226938
v -2.211057 -0.716431 1.226938
v -1.711057 0.149595 1.226938
v -0.711057 0.149595 1.226938
v -0.270074 -1.304216 1.633088
v -1.009148 -1.710953 2.170056
v -1.663657 -1.123167 2.645584
v -1.579092 -0.128645 2.584144
v -0.840018 0.278091 2.047175
v -0.185509 -0.309694 1.571647
v -0.079091 -1.667487 2.359630
v -0.381356 -1.459575 3.289904
v -0.476847 -0.508519 3.583797
v -0.270074 0.234626 2.947415
v 0.032190 0.026714 2.017142
v 0.127681 -0.924342 1.723249
v 0.847960 -1.667487 2.947415
v 1.054733 -0.924342 3.583797
v 0.959241 0.026714 3.289904
v 0.656977 0.234626 2.359630
v 0.450204 -0.508519 1.723249
v 0.545696 -1.459576 2.017142
v 2.156976 -1.304216 2.584145
v 2.241541 -0.309694 2.645586
v 1.587033 0.278091 2.170057
v 0.847959 -0.128645 1.633088
v 0.763394 -1.123167 1.571648
v 1.417902 -1.710953 2.047176
vn 0.9180 0.1017 -0.3834
vn 0.8513 0.4915 -0.1835
vn 0.0000 0.9880 0.1548
vn -0.7247 0.4184 0.5474
vn -0.7433 -0.4292 0.5131
vn 0.0000 -0.9908 0.1350
vn 0.3653 0.6620 -0.6544
vn 0.3224 0.9135 -0.2482
vn -0.1900 0.7366 0.6491
vn -0.2959 -0.0839 0.9515
vn -0.1368 -0.8712 0.4715
vn 0.4208 -0.8057 -0.4168
vn -0.1148 0.9768 -0.1810
vn 0.1693 0.9487 0.2670
vn 0.3221 0.2498 0.9131
vn 0.2234 -0.5974 0.7702
vn 0.1148 -0.9768 -0.1810
vn 0.0819 -0.3017 -0.9499
vn 0.1368 0.8712 0.4715
vn 0.6639 0.5844 0.4667
vn 0.7786 -0.2553 0.5733
vn 0.2708 -0.9545 0.1253
vn -0.3653 -0.6620 -0.6544
vn -0.4901 0.3019 -0.8177
vn 0.7433 0.4292 0.5131
vn 0.9962 0.0832 -0.0243
vn 0.6628 -0.7487 0.0131
vn -0.3424 -0.9133 -0.2205
vn -0.9180 -0.1017 -0.3834
vn -0.5218 0.8063 -0.2785
vn 0.9962 -0.0832 0.0243
vn 0.7433 -0.4292 -0.5131
vn 0.0000 -0.9908 -0.1350
vn -0.8507 -0.4911 0.1874
vn -0.8513 0.4915 0.1835
vn 0.0000 0.9880 -0.1548
vn 0.6639 -0.5844 -0.4667
vn 0.1368 -0.8712 -0.4715
vn -0.4208 -0.8057 0.4168
vn -0.6488 0.1018 0.7541
vn -0.3224 0.9135 0.2482
vn 0.1900 0.7366 -0.6491
vn 0.1693 -0.9487 -0.2670
vn -0.1148 -0.9768 0.1810
vn -0.0819 -0.3017 0.9499
vn -0.0949 0.6626 0.7429
vn -0.1693 0.9487 -0.2670
vn -0.3221 0.2498 -0.9131
vn 0.3224 -0.9135 0.2482
vn 0.3653 -0.6620 0.6544
vn 0.4901 0.3019 0.8177
vn -0.0011 0.9758 0.2184
vn -0.6639 0.5844 -0.4667
vn -0.7786 -0.2553 -0.5733
vn 0.8513 -0.4915 0.1835
vn 0.9180 -0.1017 0.3834
vn 0.5218 0.8063 0.2785
vn -0.5051 0.8621 0.0422
vn -0.9962 0.0832 0.0243
vn -0.6628 -0.7487 -0.0131
vn 0.8507 -0.4911 -0.1874
vn 0.3424 0.9133 -0.2205
vn -0.6628 0.7487 0.0131
vn -0.9962 -0.0832 -0.0243
vn -0.5051 -0.8621 -0.0422
vn 0.5218 -0.8063 -0.2785
vn 0.6488 0.1018 -0.7541
vn -0.2708 0.9545 0.1253
vn -0.7786 0.2553 0.5733
vn -0.6639 -0.5844 0.4667
vn -0.0011 -0.9758 -0.2184
vn 0.4901 -0.3019 -0.8177
vn 0.0949 0.6626 -0.7429
vn -0.2234 0.5974 0.7702
vn -0.3221 -0.2498 0.9131
vn -0.1693 -0.9487 0.2670
vn -0.0949 -0.6626 -0.7429
vn -0.0819 0.3017 -0.9499
vn 0.0011 0.9758 -0.2184
vn 0.2959 0.0839 0.9515
vn 0.1900 -0.7366 0.6491
vn -0.3224 -0.9135 -0.2482
vn -0.6488 -0.1018 -0.7541
vn -0.4208 0.8057 -0.4168
vn 0.5051 0.8621 -0.0422
vn 0.7247 -0.4184 0.5474
vn 0.0000 -0.9880 0.1548
vn -0.8513 -0.4915 -0.1835
vn -0.8507 0.4911 -0.1874
vn 0.0000 0.9908 0.1350
vn 0.7247 0.4184 -0.5474
vn 0.5051 -0.8621 0.0422
vn -0.5218 -0.8063 0.2785
vn -0.9180 0.1017 0.3834
vn -0.3424 0.9133 0.2205
vn 0.6628 0.7487 -0.0131
vn 0.2959 -0.0839 -0.9515
vn 0.0011 -0.9758 0.2184
vn -0.4901 -0.3019 0.8177
vn -0.3653 0.6620 0.6544
vn 0.2708 0.9545 -0.1253
vn 0.7786 0.2553 -0.5733
vn -0.2234 -0.5974 -0.7702
vn 0.0949 -0.6626 0.7429
vn 0.0819 0.3017 0.9499
vn 0.1148 0.9768 0.1810
vn 0.2234 0.5974 -0.7702
vn 0.3221 -0.2498 -0.9131
vn -0.2708 -0.9545 -0.1253
vn 0.6488 -0.1018 0.7541
vn 0.4208 0.8057 0.4168
vn -0.1368 0.8712 -0.4715
vn -0.2959 0.0839 -0.9515
vn -0.1900 -0.7366 -0.6491
vn 0.3424 -0.9133 0.2205
vn 0.8507 0.4911 0.1874
vn 0.0000 0.9908 -0.1350
vn -0.7433 0.4292 -0.5131
vn -0.7247 -0.4184 -0.5474
vn 0.0000 -0.9880 -0.1548
usemtl None
s off
f 1//1 12//1 7//1
f 7//2 2//2 1//2
f 8//3 3//3 2//3
f 9//4 4//4 3//4
f 10//5 5//5 4//5
f 11//6 6//6 5//6
f 7//7 18//7 13//7
f 13//8 8//8 7//8
f 14//9 9//9 8//9
f 15//10 10//10 9//10
f 16//11 11//11 10//11
f 17//12 12//12 11//12
f 13//13 24//13 19//13
f 19//14 14//14 13//14
f 20//15 15//15 14//15
f 21//16 16//16 15//16
f 22//17 17//17 16//17
f 23//18 18//18 17//18
f 19//19 30//19 25//19
f 25//20 20//20 19//20
f 26//21 21//21 20//21
f 27//22 22//22 21//22
f 28//23 23//23 22//23
f 29//24 24//24 23//24
f 25//25 36//25 31//25
f 31//26 26//26 25//26
f 32//27 27//27 26//27
f 33//28 28//28 27//28
f 34//29 29//29 28//29
f 35//30 30//30 29//30
f 31//31 42//31 37//31
f 37//32 32//32 31//32
f 38//33 33//33 32//33
f 39//34 34//34 33//34
f 40//35 35//35 34//35
f 41//36 36//36 35//36
f 37//37 48//37 43//37
f 43//38 38//38 37//38
f 44//39 39//39 38//39
f 45//40 40//40 39//40
f 46//41 41//41 40//41
f 47//42 42//42 41//42
f 43//43 54//43 49//43
f 49//44 44//44 43//44
f 50//45 45//45 44//45
f 51//46 46//46 45//46
f 52//47 47//47 46//47
f 53//48 48//48 47//48
f 49//49 60//49 55//49
f 55//50 50//50 49//50
f 56//51 51//51 50//51
f 57//52 52//52 51//52
f 58//53 53//53 52//53
f 59//54 54//54 53//54
f 55//55 6//55 1//55
f 1//56 56//56 55//56
f 2//57 57//57 56//57
f 3//58 58//58 57//58
f 4//59 59//59 58//59
f 5//60 60//60 59//60
f 1//61 6//61 12//61
f 7//62 8//62 2//62
f 8//63 9//63 3//63
f 9//64 10//64 4//64
f 10//65 11//65 5//65
f 11//66 12//66 6//66
f 7//67 12//67 18//67
f 13//68 14//68 8//68
f 14//69 15//69 9//69
f 15//70 16//70 10//70
f 16//71 17//71 11//71
f 17//72 18//72 12//72
f 13//73 18//73 24//73
f 19//74 20//74 14//74
f 20//75 21//75 15//75
f 21//76 22//76 16//76
f 22//77 23//77 17//77
f 23//78 24//78 18//78
f 19//79 24//79 30//79
f 25//80 26//80 20//80
f 26//81 27//81 21//81
f 27//82 28//82 22//82
f 28//83 29//83 23//83
f 29//84 30//84 24//84
f 25//85 30//85 36//85
f 31//86 32//86 26//86
f 32//87 33//87 27//87
f 33//88 34//88 28//88
f 34//89 35//89 29//89
f 35//90 36//90 30//90
f 31//91 36//91 42//91
f 37//92 38//92 32//92
f 38//93 39//93 33//93
f 39//94 40//94 34//94
f 40//95 41//95 35//95
f 41//96 42//96 36//96
f 37//97 42//97 48//97
f 43//98 44//98 38//98
f 44//99 45//99 39//99
f 45//100 46//100 40//100
f 46//101 47//101 41//101
f 47//102 48//102 42//102
f 43//103 48//103 54//103
f 49//104 50//104 44//104
f 50//105 51//105 45//105
f 51//106 52//106 46//106
f 52//107 53//107 47//107
f 53//108 54//108 48//108
f 49//109 54//109 60//109
f 55//110 56//110 50//110
f 56//111 57//111 51//111
f 57//112 58//112 52//112
f 58//113 59//113 53//113
f 59//114 60//114 54//114
f 55//115 60//115 6//115
f 1//116 2//116 56//116
f 2//117 3//117 57//117
f 3//118 4//118 58//118
f 4//119 5//119 59//119
f 5//120 6//120 60//120
