<?xml version="1.0" encoding="utf-8" ?>
<svg baseProfile="full" height="43mm" version="1.1" width="42mm" xmlns="http://www.w3.org/2000/svg" xmlns:ev="http://www.w3.org/2001/xml-events" xmlns:xlink="http://www.w3.org/1999/xlink"><defs /><polyline points="143.90737104032226,125.82927803303032 42.711689163696455,125.82927803303032 15.44001022162383,74.83244167538453 47.54966793495506,26.734711247216726 105.10561098324605,32.36811258476329 143.90737104032226,125.82927803303032" style="fill:none;stroke:#000000" /><polyline points="72.20663194235473,0.7248334838433852 67.17341480524422,52.148749780480536 73.8736806628151,52.80455150372217 78.90689779827564,1.3806352054350413 86.31245479562244,2.1054686909284075 81.27923765851193,53.52938498756556 88.15582630102679,54.20244464972014 88.88344345444494,54.27366161202484 90.63333612690982,58.4885994979697 138.35380558031068,38.676753619099074 141.2069090490226,45.548977322944786 93.48643959397177,65.3608232018154 96.06781892170638,71.57854940982105 143.78828837510724,51.76670353260041 146.64139184381918,58.638927233146156 98.92092238876833,78.45077311366676 101.50230171650294,84.6684993216724 149.2227711699038,64.85665344445177 152.07587463861572,71.72887714499751 104.35540518521486,91.5407230255181 107.00471554654384,97.92207360707127 108.88358764662449,102.44768213292814 104.16062106923904,102.44768213292814 104.16062106923904,154.11732933410408 96.71967637055903,154.11732933410408 96.71967637055903,102.44768213292814 89.98739306923905,102.44768213292814 89.98739306923905,154.11732933410408 82.54644837055903,154.11732933410408 82.54644837055903,102.44768213292814 75.81416506923904,102.44768213292814 75.81416506923904,154.11732933410408 68.37322037055903,154.11732933410408 68.37322037055903,102.44768213292814 56.722855089412924,102.44768213292814 56.461635792725964,101.95921357069912 10.89801707057778,126.32535998167273 7.3890488889534165,119.76374430426387 52.9526676111016,95.39759789329027 49.77788687424624,89.46089799122514 4.214268153748034,113.82704440219875 0.7052999721236709,107.26542872478988 46.268918692621874,82.89928231216629 43.01059109374927,76.80635346544025 42.66582493504507,76.16165596020029 42.97338437427398,75.70095622010469 0.0,47.012270689235145 4.131456940664532,40.82367459865382 47.10484131328853,69.51236013117335 50.84282616554452,63.9131541415498 7.869441792920523,35.224468610680255 12.000898733585055,29.03587252009893 54.97428310620905,57.72455805426844 58.810635980154686,51.978004539817945 59.21656343942325,51.369957274895384 59.7678578095474,51.42391629663715 64.80107494500793,0.0 72.20663194235473,0.7248334838433852" style="fill:none;stroke:#ff0000" /><polyline points="108.61820795015615,102.27051678321557 56.8290194910319,102.27051678321556 42.87211842434754,76.17172758621054 59.30496500273291,51.55662169031462 88.76052601278293,54.43964276518393 108.61820795015615,102.27051678321557" style="fill:none;stroke:#00ff00" /><polyline points="81.38547941545104,64.3985119799402 92.69542610886316,91.64059578358813 63.198883530175,91.64059578358813 55.2497277544658,76.77602521108619 64.60905878913873,62.75648675429458 81.38547941545104,64.3985119799402" style="fill:none;stroke:#ff0000" /></svg>