<?xml version="1.0" encoding="utf-8" ?>
<svg baseProfile="full" height="43mm" version="1.1" width="42mm" xmlns="http://www.w3.org/2000/svg" xmlns:ev="http://www.w3.org/2001/xml-events" xmlns:xlink="http://www.w3.org/1999/xlink"><defs /><polyline points="143.907371040185,125.8292780338035 42.711689163559186,125.8292780338035 15.440010221486535,74.83244167615773 47.54966793481779,26.734711247989935 105.10561098310882,32.36811258553647 143.907371040185,125.8292780338035" style="fill:none;stroke:#000000" /><polyline points="72.20663194235473,0.7248334838433852 67.1734148068942,52.148749782130515 73.8736806628151,52.80455150372217 78.90689779827564,1.3806352070850223 86.31245479562244,2.1054686909284075 81.27923765851193,53.52938498756556 88.15582630102679,54.20244465137013 88.88344345444494,54.27366161367482 90.63333612690982,58.48859949961968 138.35380558031068,38.67675362239904 141.2069090490226,45.548977322944786 93.48643959397177,65.3608232018154 96.06781892170638,71.57854941147103 143.78828837510724,51.76670353095043 146.64139184381918,58.638927234796135 98.92092238876833,78.45077311201678 101.50230171650294,84.6684993216724 149.2227711699038,64.85665344280177 152.07587463861572,71.72887714664749 104.35540518356488,91.54072302386813 107.00471554654384,97.92207360707127 108.88358764662449,102.44768213292814 104.16062106923904,102.44768213292814 104.16062106923904,154.11732933575405 96.71967637055903,154.11732933575405 96.71967637055903,102.44768213292814 89.98739306923905,102.44768213292814 89.98739306923905,154.11732933575405 82.54644837055903,154.11732933575405 82.54644837055903,102.44768213292814 75.81416506923904,102.44768213292814 75.81416506923904,154.11732933575405 68.373220372209,154.11732933575405 68.373220372209,102.44768213292814 56.722855091062904,102.44768213292814 56.461635794375944,101.95921357069912 10.89801707057778,126.32535998167273 7.3890488889534165,119.76374430426387 52.95266761275158,95.39759789164029 49.77788687589622,89.46089798957516 4.214268153748034,113.82704440219875 0.7052999721236709,107.26542872478988 46.268918694271854,82.89928231216629 43.010591095399256,76.80635346709023 42.66582493669505,76.16165596020029 42.973384375923956,75.70095622010469 0.0,47.012270689235145 4.131456940664532,40.82367459865382 47.10484131493851,69.51236013282333 50.8428261671945,63.91315414319978 7.869441791270542,35.224468612330234 12.000898733585055,29.03587252174891 54.97428310620905,57.72455805426844 58.810635981804666,51.978004539817945 59.21656344107323,51.369957274895384 59.76785781119738,51.42391629663715 64.8010749466579,0.0 72.20663194235473,0.7248334838433852" style="fill:none;stroke:#ff0000" /><polyline points="81.38547941545104,64.39851198159018 92.69542610886316,91.64059578358813 63.19888353182499,91.64059578358813 55.24972775611578,76.77602521108619 64.60905879078871,62.756486755944564 81.38547941545104,64.39851198159018" style="fill:none;stroke:#ff0000" /></svg>