<?xml version="1.0" encoding="utf-8" ?>
<svg baseProfile="full" height="62mm" version="1.1" width="60mm" xmlns="http://www.w3.org/2000/svg" xmlns:ev="http://www.w3.org/2001/xml-events" xmlns:xlink="http://www.w3.org/1999/xlink"><defs /><polyline points="233.89976824326442,195.8565581300907 10.671563416054036,195.8565581300907 49.28654536661766,34.735685408617606 233.89976824326442,195.8565581300907" style="fill:none;stroke:#000000" /><polyline points="134.86900053901098,81.64560767051847 111.83107797071415,108.04259188578719 119.57288050495438,114.79923673103504 142.61080307325122,88.4022525157663 150.88652302228047,95.62487286553471 127.84860045233364,122.02185708080343 135.59040298657388,128.77850192605126 158.6283255548707,102.38151771078256 166.90404550389997,109.60413806055095 143.8661229356031,136.00112227581968 151.60792546819337,142.7577671210675 174.6458480381402,116.3607829057988 182.92156798551946,123.58340325721719 159.8836454172226,149.98038747083592 167.62544794981287,156.73703231608377 190.6633705197597,130.34004810246503 198.93909046878892,137.56266845223342 175.9011678988421,163.95965266585216 183.64297043308233,170.7162975111 206.6808930013792,144.31931329748127 214.9566129504084,151.54193364724966 196.51794748012352,172.66906261810604 196.51794748012352,172.4033514381695 186.24235717880353,172.4033514381695 186.24235717880353,220.681514890809 175.2581054801235,220.681514890809 175.2581054801235,172.4033514381695 164.98251517880354,172.4033514381695 164.98251517880354,220.681514890809 153.9982634801235,220.681514890809 153.9982634801235,172.4033514381695 143.72267317880352,172.4033514381695 143.72267317880352,220.681514890809 132.73842148012352,220.681514890809 132.73842148012352,172.4033514381695 122.46283117880353,172.4033514381695 122.46283117880353,220.681514890809 111.47857948012351,220.681514890809 111.47857948012351,172.4033514381695 101.20298917880353,172.4033514381695 101.20298917880353,220.681514890809 90.21873748012352,220.681514890809 90.21873748012352,172.4033514381695 79.94314717880353,172.4033514381695 79.94314717880353,220.681514890809 68.95889548012352,220.681514890809 68.95889548012352,172.4033514381695 58.683305180453516,172.4033514381695 58.683305180453516,220.681514890809 47.6990534817735,220.681514890809 47.6990534817735,172.4033514381695 37.42346318045352,172.4033514381695 37.42346318045352,220.681514890809 26.439211481773498,220.681514890809 26.439211481773498,172.4033514381695 0.0,172.4033514381695 1.7874482243018992,164.94523017763447 24.76858406164205,170.45299668100998 27.16346052918263,160.46038326994952 4.1823246901925,154.95261676822398 6.742365052558289,144.27085760883 29.723500888248456,149.7786241122055 32.118377355789036,139.786010702795 9.137241518448889,134.27824419941953 11.697281880814678,123.5964850416755 34.678417716504846,129.10425154505103 37.07329418404543,119.11163813399055 14.09215834670528,113.60387163226503 16.652198709071065,102.92211247287104 39.63333454476123,108.42987897624654 42.02821101230182,98.43726556518608 19.047075173311686,92.92949906346055 21.607115535677476,82.24773990406658 44.58825137301762,87.75550640744207 46.983127840558204,77.76289299638161 24.001992001568077,72.2551264946561 26.562032363933863,61.5733673352621 49.543168199624034,67.08113384028759 51.93804466716461,57.08852043087711 28.956908829824464,51.580753929151584 31.475658218896445,41.07128120807846 41.31899356972886,0.0 134.86900053901098,81.64560767051847" style="fill:none;stroke:#ff0000" /><polyline points="205.31704751317747,159.8246115888295 15.949631864307264,159.8246115888295 48.70722781031308,23.143660820364797 205.31704751317747,159.8246115888295" style="fill:none;stroke:#ff0000" /></svg>