<?xml version="1.0" encoding="utf-8" ?>
<svg baseProfile="full" height="76mm" version="1.1" width="95mm" xmlns="http://www.w3.org/2000/svg" xmlns:ev="http://www.w3.org/2001/xml-events" xmlns:xlink="http://www.w3.org/1999/xlink"><defs /><polyline points="368.1386684298523,248.13512440088476 19.788270749683566,248.13512440088482 85.34364011751072,34.74966913749463 368.1386684298523,248.13512440088476" style="fill:none;stroke:#000000" /><polyline points="102.00303491839998,24.679494514489868 84.68672329470203,47.62841964251826 92.88921212334354,53.817679134319704 110.20552374869146,30.868754007941288 118.9737014600186,37.484858977953216 101.65738983467068,60.43378410598161 109.85987866331219,66.62304359778305 127.17619028866011,43.67411846975466 135.94436799998726,50.290223441416565 118.62805637463933,73.23914856944496 126.83054520493081,79.4284080612464 144.14685682862876,56.47948293321801 152.91503454160588,63.095587903229934 135.59872291625797,86.04451303125833 143.80121174489946,92.23377252470975 161.1175233702474,69.28484739668136 169.88570108157452,75.90095236669329 152.56938945622662,98.84987749472168 160.7718782848681,105.0391369881731 178.08818991021604,82.0902118601447 186.85636762154317,88.70631683015664 169.54005599784523,111.65524195818503 177.74254482648675,117.84450144998647 195.05885645183466,94.89557632195807 203.8270341631618,101.51168129361999 186.51072253781388,124.46060642164838 194.7132113664554,130.64986591344982 212.0295229918033,107.70094078542142 220.79770070313046,114.31704575708333 203.48138907778252,137.26597088346176 211.683877908074,143.45523037691316 229.00018953177195,120.50630524888477 237.7683672430991,127.1224102188967 220.45205561940116,150.0713353469251 228.65454444804266,156.2605948403765 245.9708560733906,133.31166971234813 254.73903378471775,139.92777468236005 237.4227221593698,162.87669981038846 245.6252109880113,169.0659593021899 262.94152261335927,146.11703417581148 271.70970032468637,152.7331391458234 254.39338870098845,175.6820642738518 262.59587752962995,181.87132376565324 279.9121891533279,158.92239863762484 288.680366866305,165.53850360928675 271.3640552409571,188.48742873731516 279.5665440695986,194.6766882291166 296.8828556949465,171.7277631010882 305.65103340627365,178.34386807110013 288.33472178092575,201.2927931991285 296.53721061121723,207.48205269257994 313.85352223491515,184.53312756455153 322.6216999462423,191.14923253456348 305.3053883225444,214.09815766259186 313.5078771511859,220.2874171560433 330.8241887765338,197.33849202801488 339.59236648786094,203.95459699802683 322.27605486251304,226.9035221260552 330.4785436911545,233.09278161785664 332.32960793880363,230.63960707810546 332.32960793880363,272.4540405031099 321.3453562401236,272.4540405031099 321.3453562401236,230.18005964342015 311.06976593880364,230.18005964342015 311.06976593880364,272.4540405031099 300.0855142401236,272.4540405031099 300.0855142401236,230.18005964342015 289.8099239388036,230.18005964342015 289.8099239388036,272.4540405031099 278.8256722401236,272.4540405031099 278.8256722401236,230.18005964342015 268.5500819388036,230.18005964342015 268.5500819388036,272.4540405031099 257.5658302401236,272.4540405031099 257.5658302401236,230.18005964342015 247.2902399388036,230.18005964342015 247.2902399388036,272.4540405031099 236.3059882401236,272.4540405031099 236.3059882401236,230.18005964342015 226.03039793880362,230.18005964342015 226.03039793880362,272.4540405031099 215.0461462401236,272.4540405031099 215.0461462401236,230.18005964342015 204.77055593880362,230.18005964342015 204.77055593880362,272.4540405031099 193.7863042401236,272.4540405031099 193.7863042401236,230.18005964342015 183.5107139388036,230.18005964342015 183.5107139388036,272.4540405031099 172.5264622401236,272.4540405031099 172.5264622401236,230.18005964342015 162.2508719388036,230.18005964342015 162.2508719388036,272.4540405031099 151.2666202401236,272.4540405031099 151.2666202401236,230.18005964342015 140.99102993880362,230.18005964342015 140.99102993880362,272.4540405031099 130.0067782401236,272.4540405031099 130.0067782401236,230.18005964342015 119.73118793880361,230.18005964342015 119.73118793880361,272.4540405031099 108.7469362401236,272.4540405031099 108.7469362401236,230.18005964342015 98.47134593880361,230.18005964342015 98.47134593880361,272.4540405031099 87.4870942401236,272.4540405031099 87.4870942401236,230.18005964342015 77.2115039404536,230.18005964342015 77.2115039404536,272.4540405031099 66.22725224177358,272.4540405031099 66.22725224177358,230.18005964342015 55.9516619404536,230.18005964342015 55.9516619404536,272.4540405031099 44.96741024177358,272.4540405031099 44.96741024177358,230.18005964342015 34.6918199404536,230.18005964342015 34.6918199404536,236.21873603085143 0.0,225.56086308723795 3.225741472706873,215.06094035825905 46.105872911276265,228.2343914309567 49.12350203085205,218.41188306962002 6.243370595582619,205.23843199527238 9.469112068289492,194.73850926629348 52.349243505208904,207.91196033899115 55.36687262478469,198.08945197765445 12.486741189515259,184.91600090330684 15.712482662222131,174.41607817432794 58.59261409914154,187.58952924702558 61.61024322036731,177.7670208856889 18.730111783447896,164.59356981134127 21.95585325615477,154.09364708236237 64.83598469472416,167.26709815506004 67.85361381429995,157.44458979372334 24.973482379030518,144.27113871937573 28.19922385173739,133.77121599039683 71.0793552886568,146.94466706474446 74.09698440823259,137.12215870340776 31.216852972963157,123.94870762741016 34.44259444567003,113.44878489843127 77.32272588258944,126.6222359727789 80.3403550038152,116.79972761144222 37.46022356689579,103.6262765354446 40.68596503960267,93.12635380646572 83.56609647652208,106.29980488081334 86.58372559609786,96.47729651947667 43.70359416247842,83.30384544347905 46.92933563518529,72.80392271615014 89.80946707045472,85.97737378884779 92.8270961900305,76.15486542751111 49.946964756411056,62.98141435316347 53.17270622911793,52.48149162418458 96.05283766438735,65.65494269688223 99.07046678561312,55.83243433554555 92.99846743674611,53.96702059671377 92.92392297446233,54.06581272454373 92.78250075379091,53.95910135499111 92.81829208665147,53.911667893856 56.190335350343695,42.65898326119792 59.3640487343553,32.32841412289209 69.29584622545309,0.0 102.00303491839998,24.679494514489868" style="fill:none;stroke:#ff0000" /><polyline points="392.81924610258903,259.87530065376995 2.617023084653591,259.87530065376995 76.04840432706123,20.853098991472667 392.81924610258903,259.87530065376995" style="fill:none;stroke:#ff0000" /></svg>