<?xml version="1.0" encoding="utf-8" ?>
<svg baseProfile="full" height="105mm" version="1.1" width="49mm" xmlns="http://www.w3.org/2000/svg" xmlns:ev="http://www.w3.org/2001/xml-events" xmlns:xlink="http://www.w3.org/1999/xlink"><defs /><polyline points="176.72942314406296,282.47706893984275 -46.499056820558756,282.4770689398428 117.2199024045778,44.77853165198236 176.72942314406296,282.47706893984275" style="fill:none;stroke:#000000" /><polyline points="142.9903639268536,61.52665973537403 109.00295804747945,70.03564871880728 111.4985049596556,80.0035974365993 145.48591083902974,71.49460845316607 148.1535644356577,82.15000190778342 114.16615855628355,90.65899089121667 116.6617054684597,100.62693960900869 150.64911134948383,92.11795062557545 153.31676494281183,102.77334408019281 119.32935906508766,111.28233306362606 121.82490597891379,121.25028178141808 155.81231185663796,112.74129279963482 158.47996545161593,123.3966862526022 124.49255957389175,131.90567523603545 126.98810648771789,141.87362395382746 160.97551236544206,133.3646349720442 163.64316596042002,144.0200284250116 129.65576008269585,152.52901740844484 132.15130699652198,162.49696612788685 166.13871287424615,153.9879771444536 168.8063664708741,164.64337059742098 134.81896059314994,173.1523595808542 137.31450750532608,183.12030830029622 171.30191338305025,174.611319316863 173.92654030897774,185.09485158603653 176.45186074367982,195.1817245102489 165.98556260584485,195.1817245102489 165.98556260584485,373.0217588013459 155.00131090716482,373.0217588013459 155.00131090716482,195.1817245102489 144.72572060749482,195.1817245102489 144.72572060749482,373.0217588013459 133.7414689088148,373.0217588013459 133.7414689088148,195.1817245102489 123.46587860749482,195.1817245102489 123.46587860749482,373.0217588013459 112.4816269088148,373.0217588013459 112.4816269088148,195.1817245102489 102.20603660749482,195.1817245102489 102.20603660749482,373.0217588013459 91.22178490881481,373.0217588013459 91.22178490881481,195.1817245102489 80.94619460749482,195.1817245102489 80.94619460749482,373.0217588013459 69.9619429088148,373.0217588013459 69.9619429088148,195.1817245102489 59.686352607494825,195.1817245102489 59.686352607494825,373.0217588013459 48.702100908814806,373.0217588013459 48.702100908814806,195.1817245102489 38.42651060749482,195.1817245102489 38.42651060749482,373.0217588013459 27.442258908814807,373.0217588013459 27.442258908814807,195.1817245102489 14.435164147388315,195.1817245102489 0.0,185.2392567230261 6.230677035130004,176.1931277669099 27.64540730926124,190.94289187152236 33.474105183815084,182.48038413699754 12.059374908033863,167.73062003403507 18.290051941513887,158.68449107791886 39.704782217295104,173.4342551825313 45.53348009184894,164.97174744800648 24.118749816067726,150.221983345044 30.34942684954775,141.1758543889278 51.76415712532897,155.92561849354027 57.59285499823283,147.46311075901545 36.17812472245161,132.71334665605298 42.408801757581614,123.66721769993677 63.82353203336283,138.4169818045492 69.6522299062667,129.9544740700244 48.23749963048547,115.20470996706193 54.468176665615474,106.15858101094572 75.88290693974672,120.90834511555818 81.71160481430056,112.44583738103336 60.29687453851933,97.69607327807088 66.52755157199935,88.64994432360466 87.94228184778058,103.39970842656713 93.77097972233442,94.93720069369229 72.35624944655319,80.18743658907984 78.58692648003323,71.14130763461361 100.00165675581444,85.89107173757608 105.8303546287183,77.42856400470124 84.41562435458707,62.678799900088784 90.64630138806709,53.63267094562256 112.0610316638483,68.38243504858504 117.88972953675216,59.91992731571019 96.47499926097095,45.17016321109774 102.6051815067819,36.26993956120437 127.5867267171228,0.0 142.9903639268536,61.52665973537403" style="fill:none;stroke:#ff0000" /><polyline points="160.3357252017074,182.60298466090887 17.08949818576053,182.60298466090887 122.14832940699274,30.071288706472323 160.3357252017074,182.60298466090887" style="fill:none;stroke:#ff0000" /></svg>