<?xml version="1.0" encoding="utf-8" ?>
<svg baseProfile="full" height="60mm" version="1.1" width="62mm" xmlns="http://www.w3.org/2000/svg" xmlns:ev="http://www.w3.org/2001/xml-events" xmlns:xlink="http://www.w3.org/1999/xlink"><defs /><polyline points="219.78509234819927,194.88387537351565 -3.443277463099494,194.88387537351562 131.22240881892316,31.011506388899146 219.78509234819927,194.88387537351565" style="fill:none;stroke:#000000" /><polyline points="149.24596449600557,24.9295084179964 122.62956097645102,39.31399639513892 127.51505449538844,48.3538918108679 154.13145801659297,33.96940383372537 159.35388211974333,43.63274030817019 132.73747860348877,58.01722828531271 137.62297212242618,67.05712370104169 164.23937563868077,52.67263572389916 169.4617997451311,62.33597219834398 142.84539622887652,76.72046017548651 147.73088974781393,85.76035559121547 174.34729326406853,71.37586761407296 179.56971737051884,81.03920408851776 152.95331385426428,95.42369206566029 157.8388073715517,104.46358748138927 184.45521089110625,90.07909950424674 189.6776349975566,99.74243597869156 163.06123147965204,114.12692395583409 167.94672499858945,123.16681937156305 194.563128516494,108.78233139442054 199.78555262294435,118.44566786886534 173.1691491050398,132.83015584600787 178.0546426239772,141.87005126173685 204.67104614188176,127.48556328459432 209.8934702483321,137.14889975903913 183.27706673042755,151.53338773618165 188.16256024936496,160.57328315191063 214.77896376726952,146.1887951747681 220.00138787536986,155.85213164921294 193.3849843558153,170.23661962635546 197.22208411176464,177.33661481469773 193.3874407912783,177.33661481469773 193.3874407912783,212.78743812077605 182.4031890925983,212.78743812077605 182.4031890925983,177.33661481469773 172.1275987912783,177.33661481469773 172.1275987912783,212.78743812077605 161.1433470925983,212.78743812077605 161.1433470925983,177.33661481469773 150.86775679292828,177.33661481469773 150.86775679292828,212.78743812077605 139.88350509424828,212.78743812077605 139.88350509424828,177.33661481469773 129.60791479292828,177.33661481469773 129.60791479292828,212.78743812077605 118.62366309424827,212.78743812077605 118.62366309424827,177.33661481469773 108.34807279292829,177.33661481469773 108.34807279292829,212.78743812077605 97.36382109424827,212.78743812077605 97.36382109424827,177.33661481469773 87.08823079292829,177.33661481469773 87.08823079292829,212.78743812077605 76.10397909424827,212.78743812077605 76.10397909424827,177.33661481469773 65.8283887929283,177.33661481469773 65.8283887929283,212.78743812077605 54.844137094248275,212.78743812077605 54.844137094248275,177.33661481469773 44.56854679292829,177.33661481469773 44.56854679292829,212.78743812077605 33.58429509424827,212.78743812077605 33.58429509424827,177.33661481469773 23.30870479292829,177.33661481469773 23.30870479292829,212.78743812077605 12.324453094248272,212.78743812077605 12.324453094248272,188.8772850509818 12.219568898693314,188.79109418037302 12.324453094248272,188.66346239775618 12.324453094248272,188.64797334396567 12.33205077779346,188.6542169063369 18.855999773851792,180.71533502544165 0.0,165.22000676512505 6.973876509158952,156.73361578973527 25.829876284660724,172.2289440484019 32.35382527906908,164.29006216585665 13.497825506867265,148.79473390719005 20.471702016026217,140.3083429301503 39.327701789878006,155.8036711888169 45.85165078593634,147.86478930792165 26.995651012084547,132.36946104760506 33.9695275212435,123.88307007221529 52.82552729674527,139.3783983308819 59.34947629115362,131.43951644998666 40.493476518951816,115.94418818967006 47.467353028110765,107.45779721428029 66.32335280361254,122.9531254729469 72.8473017980209,115.01424359205164 53.991302024169094,99.51891533173504 60.852696655877885,91.16940162873142 135.7731369620485,0.0 149.24596449600557,24.9295084179964" style="fill:none;stroke:#ff0000" /><polyline points="210.5162089002794,164.75787496535773 16.66089802546317,164.75787496535773 133.60686909681357,22.448324167150464 210.5162089002794,164.75787496535773" style="fill:none;stroke:#ff0000" /></svg>