<?xml version="1.0" encoding="utf-8" ?>
<svg baseProfile="full" height="62mm" version="1.1" width="63mm" xmlns="http://www.w3.org/2000/svg" xmlns:ev="http://www.w3.org/2001/xml-events" xmlns:xlink="http://www.w3.org/1999/xlink"><defs /><polyline points="223.769000156904,201.41636400709848 21.031975789883383,201.41636400709848 105.54476192251475,-5.195348365767699 223.769000156904,201.41636400709848" style="fill:none;stroke:#000000" /><polyline points="113.52036980317646,15.102720194305672 108.91753183081862,17.736486725778246 114.0208710788084,26.65521334892139 135.55183412701743,14.335090372145384 141.00712780584618,23.86890158549328 119.47616475598716,36.18902456226928 124.57950400562693,45.107751185412425 146.11046705383595,32.78762820863642 151.5657607310147,42.321439421984316 130.03479768280567,54.64156239876032 135.13813693079547,63.560289021903465 156.6690999806545,51.24016604347748 162.12439365783322,60.773977258475355 140.59343060797423,73.09410023525136 145.696769857614,82.01282685674452 167.22773290582302,69.69270387996852 172.68302658300178,79.22651509496639 151.15206353479275,91.54663807174241 156.25540278278254,100.46536469323556 177.78636583264154,88.14524171645955 183.2416595098203,97.67905293145743 161.71069646161126,109.99917590823344 166.81403570960106,118.9179025297266 188.3449987578101,106.5977795529506 193.8002924366388,116.13159076629849 172.26932938677982,128.4517137430745 177.37266863476958,137.37044036621765 198.9036316846286,125.05031738944163 204.35892536180737,134.58412860278952 182.82796231359833,146.90425157956554 187.9313015615881,155.82297820270867 209.46226460979716,143.50285522593268 214.91755828862588,153.03666643928057 193.38659523876686,165.35678941605659 198.48993448840665,174.27551603919972 220.02089753661568,161.95539306077373 225.47619121379444,171.4892042757716 203.9452281655854,183.8093272525476 206.88729984515416,188.95096721344805 205.79210505705953,188.95096721344805 205.79210505705953,220.9578672084081 194.80785335837953,220.9578672084081 194.80785335837953,188.95096721344805 184.53226305705954,188.95096721344805 184.53226305705954,220.9578672084081 173.5480113583795,220.9578672084081 173.5480113583795,188.95096721344805 163.27242105705955,188.95096721344805 163.27242105705955,220.9578672084081 152.28816935837952,220.9578672084081 152.28816935837952,188.95096721344805 142.01257905705953,188.95096721344805 142.01257905705953,220.9578672084081 131.02832735837953,220.9578672084081 131.02832735837953,188.95096721344805 120.75273705705953,188.95096721344805 120.75273705705953,220.9578672084081 109.76848535837952,220.9578672084081 109.76848535837952,188.95096721344805 99.49289505705954,188.95096721344805 99.49289505705954,220.9578672084081 88.50864335837953,220.9578672084081 88.50864335837953,188.95096721344805 78.23305305705954,188.95096721344805 78.23305305705954,220.9578672084081 67.24880135837952,220.9578672084081 67.24880135837952,188.95096721344805 56.97321105705954,188.95096721344805 56.97321105705954,220.9578672084081 38.378103647729446,220.9578672084081 44.684513758383225,205.54033985722694 0.0,187.26251469821935 4.158569067100185,177.09589831430952 48.843082825483414,195.3737234749671 52.73335711645613,185.863017821937 8.048843358072912,167.5851926629294 12.207412425173096,157.4185762790196 56.89192618355632,175.69640143967717 60.78220047452905,166.18569578829704 16.097686716145823,147.90787062763945 20.256255783246008,137.74125424537962 64.94076954162924,156.0190794060372 68.83104383260196,146.5083737530071 24.14653007421873,128.2305485939995 28.305099141318916,118.06393221008967 72.98961289970214,136.34175737074727 76.87988719067486,126.83105171771714 32.195373432291646,108.55322655870955 36.35394249939183,98.38661017479973 81.03845625612507,116.66443533545731 84.92873054874778,107.15372968242721 40.244216788714574,88.8759045234196 44.40278585746474,78.7092881395098 89.08729961419799,96.98711330016738 92.9775739068207,87.47640764878724 48.29306014678748,69.19858248812966 52.45162921553765,59.03196610421985 97.13614297227089,77.30979126652741 101.0264172648936,67.7990856134973 56.3419035048604,49.5212604544897 60.50047257361056,39.35464407057989 105.1849863303438,57.632469231237465 109.07526062296651,48.12176357820736 64.39074686293331,29.84393841919976 68.54931593168347,19.677322035289944 113.23382968841672,37.955147195947525 117.12410397938945,28.444441542917417 72.43959022100621,10.166616383909815 76.5981592881064,0.0 113.52036980317646,15.102720194305672" style="fill:none;stroke:#ff0000" /><polyline points="232.09236162039883,208.3791273590681 57.11369824840535,208.3791273590681 130.0551572706623,30.056290762896467 232.09236162039883,208.3791273590681" style="fill:none;stroke:#ff0000" /></svg>