<?xml version="1.0" encoding="utf-8" ?>
<svg baseProfile="full" height="93mm" version="1.1" width="73mm" xmlns="http://www.w3.org/2000/svg" xmlns:ev="http://www.w3.org/2001/xml-events" xmlns:xlink="http://www.w3.org/1999/xlink"><defs /><polyline points="249.0845977091732,306.9315118807664 25.856243169370178,306.9315118807664 125.27759170947346,-30.0823136420349 249.0845977091732,306.9315118807664" style="fill:none;stroke:#000000" /><polyline points="166.51662746435653,10.310525398042786 125.920077463638,25.224267590857973 129.46343196493808,34.869597803952814 170.05998196565665,19.95585561113763 173.8477057412585,30.266381009180417 133.25115574053993,45.180123201995606 136.79451024349,54.82545341509044 177.39106024255858,39.91171122227526 181.17878401816043,50.22223662031804 140.5822340174419,65.13597881313324 144.12558852039197,74.78130902622807 184.72213851946054,59.86756683176291 188.5098622950624,70.1780922298057 147.91331229434383,85.09183442427086 151.4566667972939,94.73716463736571 192.05321679636248,79.82342244290054 195.84094057196435,90.13394784094332 155.2443905712458,105.0476900354085 158.78774507419587,114.69302024685335 199.38429507326444,99.77927805403817 203.1720188488663,110.08980345208096 162.57546884814775,125.00354564489614 166.11882335109783,134.648875857991 206.7153733501664,119.7351336651758 210.50309712576825,130.04565906321858 169.90654712504968,144.95940125603377 173.44990162799976,154.6047314691286 214.04645162706834,139.69098927631342 217.83417540267018,150.0015146743562 177.23762540195165,164.9152568671714 180.78097990490173,174.56058708026623 221.37752990562026,159.64684488745107 225.16525367957215,169.95737028549385 184.56870367885358,184.87111247830902 188.11205818180366,194.51644269140388 228.70860818252223,179.6027004969387 232.49633195647408,189.91322589498148 191.8997819574055,204.82696808944667 195.44313645870562,214.4722983025415 236.03968645942416,199.55855610807635 239.82741023337604,209.86908150611913 199.23086023430747,224.7828237005843 202.77421473560756,234.42815391202916 243.37076473632612,219.51441171921397 247.15848851027798,229.82493711725675 206.5619385112094,244.73867931007194 210.10529301250952,254.38400952316678 250.70184301322806,239.4702673303516 254.48956678717994,249.78079272839437 213.89301678811137,264.69453492120954 217.43637128941145,274.33986513430443 258.03292129013,259.4261229414892 261.8206450640819,269.736648339532 221.2240950650133,284.6503905323472 224.76744956631342,294.29572074544205 233.31687478838532,291.154963127867 233.31687478838532,330.94639020141534 222.33262308970532,330.94639020141534 222.33262308970532,289.31559889477234 212.05703278838533,289.31559889477234 212.05703278838533,330.94639020141534 201.0727810897053,330.94639020141534 201.0727810897053,289.31559889477234 190.79719078838534,289.31559889477234 190.79719078838534,330.94639020141534 179.8129390897053,330.94639020141534 179.8129390897053,289.31559889477234 169.53734878838532,289.31559889477234 169.53734878838532,330.94639020141534 158.55309708970532,330.94639020141534 158.55309708970532,289.31559889477234 148.27750678838532,289.31559889477234 148.27750678838532,330.94639020141534 137.29325508970533,330.94639020141534 137.29325508970533,289.31559889477234 127.01766478838533,289.31559889477234 127.01766478838533,330.94639020141534 116.03341308970532,330.94639020141534 116.03341308970532,289.31559889477234 105.75782278838533,289.31559889477234 105.75782278838533,330.94639020141534 94.77357108970531,330.94639020141534 94.77357108970531,289.31559889477234 84.49798078838533,289.31559889477234 84.49798078838533,330.94639020141534 73.51372908970531,330.94639020141534 73.51372908970531,289.31559889477234 63.23813878838533,289.31559889477234 63.23813878838533,330.94639020141534 52.253887089705316,330.94639020141534 52.253887089705316,289.31559889477234 41.97829678838533,289.31559889477234 41.97829678838533,330.94639020141534 0.0,330.94639020141534 10.224276905151058,296.28861575398304 37.65137717050035,304.37979507105246 40.55886665126098,294.52412355883 13.131766385911682,286.4329442417606 16.239772382586832,275.89757124747274 43.66687264793613,283.98875056619215 46.574362127046776,274.1330790523197 19.147261861697476,266.0418997352503 22.255267858372626,255.50652674261244 49.68236812372193,263.59770605968185 52.58985760448255,253.74203454745938 25.16275733913325,245.65085522874 28.270763335808404,235.11548223610214 55.69786359950772,243.20666155482152 58.605353080268344,233.35099004094909 31.178252814919045,225.25981072387967 34.286258811594195,214.72443772959184 61.7133590769435,222.81561704831122 64.62084855605414,212.95994553608875 37.19374829235482,204.86876621736937 40.30175428737999,194.33339322473154 67.72885455272929,202.42457254180093 70.63634403348992,192.56890102957846 43.20924376814062,184.47772171250907 46.31724976481576,173.9423487182212 73.74435002851509,182.03352803694062 76.6518395092757,172.17785652306816 49.22473924392641,164.08667720599874 52.33274524060156,153.5513042133609 79.75984550595086,161.64248353043033 82.6673349850615,151.78681201820785 55.240234721362185,143.69563269948844 58.34824071638735,133.1602597068506 85.77534098173665,141.25143902557 88.68283046249728,131.39576751169756 61.255730197147976,123.30458819462814 64.36373619382313,112.76921520199029 91.79083645752245,120.8603945190597 94.69832593828308,111.00472300683722 67.27122567293377,102.91354368811784 70.37923166960893,92.37817069547998 97.80633193495822,100.4693500125494 100.71382141406886,90.61367850032693 73.28672115036954,82.52249918325751 76.39472714539471,71.98712618896968 103.82182741074402,80.07830550768908 106.72931689150464,70.22263399546661 79.30221662615534,62.13145467674722 82.41022262283049,51.596081684109365 109.83732288817978,59.687261001178776 112.74481236729044,49.831589488956304 85.31771210194114,41.7404101718869 88.42571809861629,31.205037177599067 115.85281836396558,39.29621649631846 118.76030784472621,29.440544982446006 91.33320757937692,21.349365665376595 94.44121357440208,10.813992672738747 121.86831383975138,18.905171989808156 123.15684146022265,14.537381478816306 162.72890368875468,0.0 166.51662746435653,10.310525398042786" style="fill:none;stroke:#ff0000" /><polyline points="266.285282533822,318.3676503520753 16.825492893025736,318.3676503520753 127.9297867180284,-58.24847529287478 266.285282533822,318.3676503520753" style="fill:none;stroke:#ff0000" /></svg>