<?xml version="1.0" encoding="utf-8" ?>
<svg baseProfile="full" height="30mm" version="1.1" width="58mm" xmlns="http://www.w3.org/2000/svg" xmlns:ev="http://www.w3.org/2001/xml-events" xmlns:xlink="http://www.w3.org/1999/xlink"><defs /><polyline points="222.00771903849363,102.1225842922366 -1.220635501309345,102.1225842922366 84.8315287497911,19.706549638063954 222.00771903849363,102.1225842922366" style="fill:none;stroke:#000000" /><polyline points="98.36075780053052,8.416872183326152 85.22716561505527,30.276891879201013 94.03528490239755,35.56884715917163 107.16887708787281,13.708827463296773 116.58445287437668,19.365745173068856 103.45086068890143,41.22576486894371 112.25897997459373,46.517720148914336 125.39257216171897,24.657700453039475 134.80814794657286,30.31461816281156 121.67455576109761,52.17463785868642 130.4826750484399,57.46659313865704 143.61626723391515,35.60657344278218 153.03184302041902,41.26349115255426 139.89825083494375,63.12351084842912 148.70637012228605,68.41546612839974 161.8399623077613,46.55544643252488 171.25553809426518,52.21236414229696 158.12194590713995,74.07238383817183 166.93006519448224,79.36433911814244 180.06365737995748,57.504319422267585 189.47923316646137,63.161237132039666 176.3456409809861,85.02125682791453 185.1537602683284,90.31321210788515 198.28735245380366,68.45319241201028 207.70292824030753,74.11011012178237 197.4161914171256,91.23172212172636 195.61007511918518,91.23172212172636 195.61007511918518,94.23788656517331 194.56933605483226,95.97012981765722 195.61007511918518,96.59541024537957 195.61007511918518,108.92623888397115 184.62582342050518,108.92623888397115 184.62582342050518,91.23172212172636 174.3502331191852,91.23172212172636 174.3502331191852,108.92623888397115 163.3659814205052,108.92623888397115 163.3659814205052,91.23172212172636 153.0903911191852,91.23172212172636 153.0903911191852,108.92623888397115 142.10613942050517,108.92623888397115 142.10613942050517,91.23172212172636 131.8305491191852,91.23172212172636 131.8305491191852,108.92623888397115 120.84629742050518,108.92623888397115 120.84629742050518,91.23172212172636 110.5707071191852,91.23172212172636 110.5707071191852,108.92623888397115 99.58645542050517,108.92623888397115 99.58645542050517,91.23172212172636 89.3108651191852,91.23172212172636 89.3108651191852,108.92623888397115 78.32661342050518,108.92623888397115 78.32661342050518,91.23172212172636 68.05102311918519,91.23172212172636 68.05102311918519,108.92623888397115 57.06677142050518,108.92623888397115 57.06677142050518,91.23172212172636 46.7911811191852,91.23172212172636 46.7911811191852,108.92623888397115 35.80692942050518,108.92623888397115 35.80692942050518,91.23172212172636 25.531339119185194,91.23172212172636 25.531339119185194,108.92623888397115 14.54708742050518,108.92623888397115 14.54708742050518,91.23172212172636 10.003236591980889,91.23172212172636 0.0,80.78715072447112 7.9328310445429455,73.18952102970967 22.139024572266525,88.02248046460888 29.560060070126,80.91502042608367 15.353866542402423,66.08206099118446 23.28669758694537,58.48443129642301 37.49289111466894,73.31739073132222 44.91392661252842,66.20993069279702 30.707733084804847,51.3769712578978 38.640564129347794,43.779341563136356 52.84675765707137,58.612300998035565 60.26779315493084,51.50484095951036 46.06159962720727,36.671881524611145 53.994430671750216,29.074251829849697 68.2006241994738,43.90721126474891 75.62165969733327,36.7997512262237 61.415466169609694,21.96679179297447 69.22034832830676,14.491704511447091 84.35141526210555,0.0 98.36075780053052,8.416872183326152" style="fill:none;stroke:#ff0000" /><polyline points="190.8396305196305,78.65298227238635 20.41400391152006,78.65298227238635 86.11127630242132,15.731744611835593 190.8396305196305,78.65298227238635" style="fill:none;stroke:#ff0000" /></svg>