<?xml version="1.0" encoding="utf-8" ?>
<svg baseProfile="full" height="34mm" version="1.1" width="58mm" xmlns="http://www.w3.org/2000/svg" xmlns:ev="http://www.w3.org/2001/xml-events" xmlns:xlink="http://www.w3.org/1999/xlink"><defs /><polyline points="219.39317057613025,113.82032499557927 -3.8350746216117186,113.82032499557926 92.17155027899503,20.688896434103906 219.39317057613025,113.82032499557927" style="fill:none;stroke:#000000" /><polyline points="105.55432223416561,10.196857197526128 90.86560743106409,30.262286517230425 99.15700215078387,36.331926512210565 113.8457169522354,16.266497192506268 122.70893199256007,22.754733049948822 108.02021719110851,42.82016236800314 116.31161190917831,48.88980236298328 131.00032671062988,28.82437304492896 139.8635417509545,35.312608900721536 125.17482694950297,55.378038218775856 133.46622166922276,61.44767821375599 148.1549364706743,41.38224889570168 157.01815150934897,47.87048475149425 142.32943670789743,67.93591406954857 150.6208314276172,74.00555406452871 165.30954622906876,53.94012474647439 174.1727612693934,60.42836060226696 159.48404646629186,80.49378992032128 167.77544118601165,86.56342991530143 182.4641559874632,66.4980005972471 191.32737102778785,72.98623645303968 176.6386562263363,93.051665771094 184.9300509444061,99.12130576772412 199.61876574585764,79.05587644801982 208.4819807861823,85.5441123038124 195.9163027416819,102.70938020127258 192.99558132820115,102.70938020127258 192.99558132820115,121.33898245942201 182.01132962952116,121.33898245942201 182.01132962952116,102.70938020127258 171.73573932820116,102.70938020127258 171.73573932820116,121.33898245942201 160.75148762952114,121.33898245942201 160.75148762952114,102.70938020127258 150.47589732820117,102.70938020127258 150.47589732820117,121.33898245942201 139.49164562952114,121.33898245942201 139.49164562952114,102.70938020127258 129.21605532820115,102.70938020127258 129.21605532820115,121.33898245942201 118.23180362952114,121.33898245942201 118.23180362952114,102.70938020127258 107.95621332820116,102.70938020127258 107.95621332820116,121.33898245942201 96.97196162952115,121.33898245942201 96.97196162952115,102.70938020127258 86.69637132820117,102.70938020127258 86.69637132820117,121.33898245942201 75.71211962952114,121.33898245942201 75.71211962952114,102.70938020127258 65.43652932820116,102.70938020127258 65.43652932820116,121.33898245942201 54.45227762952114,121.33898245942201 54.45227762952114,102.70938020127258 44.17668732820116,102.70938020127258 44.17668732820116,121.33898245942201 33.19243562952114,121.33898245942201 33.19243562952114,102.70938020127258 22.91684532820116,102.70938020127258 22.91684532820116,121.33898245942201 11.932593629521145,121.33898245942201 11.932593629521145,108.19118464459865 15.435579160253846,104.7931061583564 0.0,88.88099268996629 7.884199169281311,81.2329086929406 23.319778329535158,97.14502215803073 30.69531948816122,89.99036293255833 15.259740327907375,74.0782494658182 23.143939497188686,66.43016546714253 38.579518659092514,82.34227893553263 45.95505981771858,75.18761971006023 30.51948065746473,59.27550624167013 38.40367982509606,51.62742224299444 53.83925898699989,67.53953570808459 61.21480014562595,60.384876484262165 45.779220985372106,44.47276301587206 53.663420154653416,36.82467901884636 69.09899931490726,52.736792483936505 76.47454047353332,45.582133260114084 61.03896131327948,29.670019791723977 68.79599597948449,22.14529198676161 91.6249676149581,0.0 105.55432223416561,10.196857197526128" style="fill:none;stroke:#ff0000" /><polyline points="193.45221578760862,90.13064035193257 16.777479631902697,90.13064035193257 92.76224181311915,16.42146186405309 193.45221578760862,90.13064035193257" style="fill:none;stroke:#ff0000" /></svg>