<?xml version="1.0" encoding="utf-8" ?>
<svg baseProfile="full" height="38mm" version="1.1" width="60mm" xmlns="http://www.w3.org/2000/svg" xmlns:ev="http://www.w3.org/2001/xml-events" xmlns:xlink="http://www.w3.org/1999/xlink"><defs /><polyline points="224.24803158097902,127.85876118496395 1.0197686411530924,127.85876118496395 104.0294816057714,22.23115073234254 224.24803158097902,127.85876118496395" style="fill:none;stroke:#000000" /><polyline points="119.36018582487074,13.544007005395759 102.52763527714815,32.701733009654774 110.24690274186631,39.48411207733962 127.07945329123886,20.32638607473058 135.3310840289876,27.57651542084026 118.498533481265,46.7342414234493 126.21780094598314,53.516620491134134 143.0503514953557,34.3588944885251 151.3019822331044,41.609023834634776 134.46943168538183,60.766749838893794 142.18869915009998,67.54912890657863 159.02124969947255,48.3914029039696 167.27288043722126,55.64153225007928 150.44032988949868,74.79925825268832 158.15959735421683,81.58163732037315 174.99214790523936,62.42391131776412 183.2437786429881,69.6740406638738 166.41122809361553,88.83176666813281 174.13049555998364,95.61414573581766 190.9630461093562,76.45641973320862 199.21467684710493,83.70654907931831 182.38212629938235,102.86427508192733 190.1013937641005,109.64665414961217 206.93394431347306,90.48892814865312 215.18557505122178,97.73905749311282 198.95194437603527,116.21513143428743 197.8504334610595,116.21513143428743 197.8504334610595,136.74991785476516 186.86618176237948,136.74991785476516 186.86618176237948,116.21513143428743 176.5905914610595,116.21513143428743 176.5905914610595,136.74991785476516 165.6063397623795,136.74991785476516 165.6063397623795,116.21513143428743 155.3307494610595,116.21513143428743 155.3307494610595,136.74991785476516 144.3464977623795,136.74991785476516 144.3464977623795,116.21513143428743 134.0709074610595,116.21513143428743 134.0709074610595,136.74991785476516 123.0866557623795,136.74991785476516 123.0866557623795,116.21513143428743 112.8110654610595,116.21513143428743 112.8110654610595,136.74991785476516 101.82681376237949,136.74991785476516 101.82681376237949,116.21513143428743 91.55122346105951,116.21513143428743 91.55122346105951,136.74991785476516 80.56697176237948,136.74991785476516 80.56697176237948,116.21513143428743 70.2913814610595,116.21513143428743 70.2913814610595,136.74991785476516 59.30712976237949,136.74991785476516 59.30712976237949,116.21513143428743 49.0315394610595,116.21513143428743 49.0315394610595,136.74991785476516 38.04728776237949,136.74991785476516 38.04728776237949,116.21513143428743 27.771697461059503,116.21513143428743 27.771697461059503,136.74991785476516 16.787445762379487,136.74991785476516 16.787445762379487,116.21513143428743 9.872880775048921,116.21513143428743 0.0,106.58694226720876 7.6689774857016015,98.72306474447329 24.14252738885594,114.78833063118982 31.31673213625902,107.43180004263732 14.843182233104681,91.3665341559208 22.51215971880628,83.50265663318534 38.98570962196062,99.56792251990186 46.15991436771372,92.21139193134937 29.686364464559382,76.14612604463284 37.355341951910965,68.28224852189737 53.8288918550653,84.3475144086139 61.0030966008184,76.9909838200614 44.52954669766406,60.92571793334487 52.19852418501564,53.061840410609406 68.67207408652,69.12710629732594 75.84627883392308,61.770575708773436 59.372728930768744,45.70530982205691 67.04170641647035,37.84143229932145 83.51525631962468,53.90669818603797 90.68946106537778,46.550167597485476 74.21591116387343,30.484901710768945 81.76119546376292,22.747860922404215 103.94526849267461,0.0 119.36018582487074,13.544007005395759" style="fill:none;stroke:#ff0000" /><polyline points="202.84021995439616,103.63639158494743 20.447387541103467,103.63639158494743 104.61340248170141,17.33137448082233 202.84021995439616,103.63639158494743" style="fill:none;stroke:#ff0000" /></svg>