<?xml version="1.0" encoding="utf-8" ?>
<svg baseProfile="full" height="113mm" version="1.1" width="58mm" xmlns="http://www.w3.org/2000/svg" xmlns:ev="http://www.w3.org/2001/xml-events" xmlns:xlink="http://www.w3.org/1999/xlink"><defs /><polyline points="199.1418805823727,340.7591909135604 -24.086604585251806,340.7591909135604 139.00866116826654,54.99136335734906 199.1418805823727,340.7591909135604" style="fill:none;stroke:#000000" /><polyline points="181.5087956203212,148.7166720486255 144.36319383164695,156.53310345652233 146.47911525716896,166.58848174663328 183.6247170474932,158.77205033873645 185.88656408720294,169.5209029915206 148.7409622968787,177.33733439941744 150.8568837224007,187.3927126895284 188.00248551272497,179.57628128163154 190.26433255243472,190.3251339344157 153.11873076376045,198.14156534231253 155.23465218928246,208.19694363242348 192.38025397795673,200.38051222452665 194.64210101931647,211.1293648773108 157.4964992289922,218.94579628520762 159.6124206545142,229.00117457531857 196.75802244483847,221.18474316742174 199.01986948454822,231.93359582020588 161.87426769422396,239.75002722810274 163.99018912139596,249.8054055182137 201.13579091007023,241.98897411031683 203.39763794977998,252.737826763101 166.2520361611057,260.5542581709978 168.36795758662774,270.6096364611088 205.513559375302,262.7932050532119 207.77540641666172,273.54205770599606 170.6298046263375,281.3584891138929 170.99407054475213,283.0895702221304 162.11425034910755,283.0895702221304 162.11425034910755,403.2399576375587 151.12999865042755,403.2399576375587 151.12999865042755,283.0895702221304 140.85440834910756,283.0895702221304 140.85440834910756,403.2399576375587 129.87015665042753,403.2399576375587 129.87015665042753,283.0895702221304 119.59456634910755,283.0895702221304 119.59456634910755,403.2399576375587 108.61031465042754,403.2399576375587 108.61031465042754,283.0895702221304 98.33472434910756,283.0895702221304 98.33472434910756,403.2399576375587 87.35047265042753,403.2399576375587 87.35047265042753,283.0895702221304 77.07488234910755,283.0895702221304 77.07488234910755,403.2399576375587 66.09063065042754,403.2399576375587 66.09063065042754,283.0895702221304 55.815040349107555,283.0895702221304 55.815040349107555,403.2399576375587 44.83078865042754,403.2399576375587 44.83078865042754,283.0895702221304 34.555198349107556,283.0895702221304 34.555198349107556,403.2399576375587 23.57094665042754,403.2399576375587 23.57094665042754,283.0895702221304 20.329121198567336,283.0895702221304 23.897059194275872,276.83799765069824 0.0,263.1993132216885 5.444665033171573,253.65942810525533 29.341724227447447,267.29811253426504 34.435120550291806,258.3737038735502 10.53806135766591,244.73501944454048 15.982726390837483,235.19513432810732 39.87978558511336,248.83381875711703 44.973181907957716,239.9094100947522 21.07612271368184,226.27072566574245 26.520787746853415,216.73084054930928 50.417846941129284,230.369524978319 55.51124326397365,221.44511631760415 31.61418407134775,207.80643188859443 37.058849104519325,198.26654677216123 60.9559082987952,211.90523120117098 66.04930462163955,202.9808225404561 42.15224542736368,189.3421381114464 47.596910460535256,179.80225299501322 71.49396965481112,193.44093742402293 76.58736597765548,184.51652876330806 52.69030678502959,170.87784433429835 58.134971818201166,161.33795921786518 82.03203101247703,174.9766436468749 87.12542733532139,166.05223498451005 63.22836814104552,152.41355055550034 68.6730331742171,142.87366543906714 92.57009236849296,156.51234986807688 97.6634886929873,147.587941207362 73.76642949871143,133.9492567783523 79.211094531883,124.40937166191911 103.10815372615887,138.04805609092884 108.20155004900323,129.12364743021396 84.30449085472736,115.48496300120425 89.74915588789894,105.94507788477108 113.6462150821748,119.5837623137808 118.73961140666914,110.65935365306593 94.84255221239327,97.0206692240562 100.28721724556485,87.48078410762304 124.18427643984072,101.11946853663275 129.27767276268509,92.19505987426791 105.3806135684092,78.5563754452582 110.82527860158078,69.01649032882501 134.72233779585665,82.65517475783474 139.81573412035098,73.73076609711987 115.91867492607511,60.092081668110154 121.27552278166489,50.70606566560656 150.2148170539548,0.0 181.5087956203212,148.7166720486255" style="fill:none;stroke:#ff0000" /><polyline points="219.56620727280117,390.6612177882187 -58.26268592826493,390.6612177882187 144.7247470445153,34.99621749818612 219.56620727280117,390.6612177882187" style="fill:none;stroke:#ff0000" /></svg>