<?xml version="1.0" encoding="utf-8" ?>
<svg baseProfile="full" height="105mm" version="1.1" width="49mm" xmlns="http://www.w3.org/2000/svg" xmlns:ev="http://www.w3.org/2001/xml-events" xmlns:xlink="http://www.w3.org/1999/xlink"><defs /><polyline points="176.7296924778344,282.4771435307037 -46.49878748678708,282.4771435307037 117.22017173834939,44.77860624284324 176.7296924778344,282.4771435307037" style="fill:none;stroke:#000000" /><polyline points="142.99077187968092,61.52708125269433 109.00326057642721,70.03609662922203 111.49880748860338,80.00404534866404 145.4863187918571,71.49502997213634 148.15397238848502,82.15042342510371 114.16646108523132,90.65943880163142 116.66200799740747,100.62738752107343 150.64951930066118,92.11837214454572 153.3171728972891,102.7737655975131 119.32966159403541,111.2827809740408 121.82520850786155,121.25072969348281 155.81271981111524,112.74171431695511 158.48037340609324,123.39710776992248 124.49286210283951,131.90612314810016 126.98840901666566,141.8740718658922 160.97592031991937,133.3650564893645 163.64357391489733,144.02044994398184 129.65606261164362,152.52946532050956 132.15160952546975,162.4974140383016 166.13912082872346,153.98839866177389 168.8067744253514,164.64379211639124 134.8192631220977,173.15280749291895 137.31481003427385,183.12075621071097 171.30232133752756,174.61174083418328 173.92694826345505,185.09527310500678 176.45236648592507,195.18253661764751 165.98564217287372,195.18253661764751 165.98564217287372,373.02109036933405 155.00139047419373,373.02109036933405 155.00139047419373,195.18253661764751 144.72580017287373,195.18253661764751 144.72580017287373,373.02109036933405 133.7415484741937,373.02109036933405 133.7415484741937,195.18253661764751 123.46595817287373,195.18253661764751 123.46595817287373,373.02109036933405 112.48170647419371,373.02109036933405 112.48170647419371,195.18253661764751 102.20611617287373,195.18253661764751 102.20611617287373,373.02109036933405 91.22186447419372,373.02109036933405 91.22186447419372,195.18253661764751 80.94627417287373,195.18253661764751 80.94627417287373,373.02109036933405 69.96202247419372,373.02109036933405 69.96202247419372,195.18253661764751 59.68643217287373,195.18253661764751 59.68643217287373,373.02109036933405 48.70218047419372,373.02109036933405 48.70218047419372,195.18253661764751 38.42659017287373,195.18253661764751 38.42659017287373,373.02109036933405 27.442338474193715,373.02109036933405 27.442338474193715,195.18253661764751 14.435705737118585,195.18253661764751 0.0,185.23969580109312 6.230677033480023,176.1935668449769 27.64543580443137,190.94335057611215 33.474133677335224,182.48084284158733 12.059374908033863,167.73105911210206 18.290051941513887,158.68493015598585 39.70481071246523,173.4347138871211 45.53350858536909,164.97220615259627 24.118749814417747,150.22242242311103 30.34942684954775,141.17629346699482 51.76418561884911,155.92607719813006 57.59288349340295,147.46356946360524 36.17812472245161,132.71378573411997 42.408801755931634,123.66765677965374 63.82356052688298,138.417440509139 69.65225840143681,129.95493277461418 48.23749963048547,115.20514904512892 54.468176663965494,106.1590200906627 75.88293543491685,120.90880382014797 81.7116333078207,112.44629608727313 60.29687453851933,97.69651235613787 66.52755157199935,88.65038340167165 87.9423103429507,103.40016713115692 93.77100821585456,94.93765939828208 72.35624944490321,80.18787566714683 78.58692648003323,71.1417467126806 100.00168524933459,85.89153044216587 105.83038312388842,77.42902270929103 84.41562435293709,62.67923897815578 90.64630138806709,53.63311002368956 112.06106015736844,68.38289375317483 117.88975803192228,59.920386020299986 96.47499926097095,45.170602289164734 102.60518150513191,36.270378639271364 127.5870291388218,0.0 142.99077187968092,61.52708125269433" style="fill:none;stroke:#ff0000" /><polyline points="160.33623094560264,182.6037967683075 17.089241254034906,182.6037967683075 122.14863183034173,30.071288704822344 160.33623094560264,182.6037967683075" style="fill:none;stroke:#ff0000" /></svg>