<?xml version="1.0" encoding="utf-8" ?>
<svg baseProfile="full" height="31mm" version="1.1" width="58mm" xmlns="http://www.w3.org/2000/svg" xmlns:ev="http://www.w3.org/2001/xml-events" xmlns:xlink="http://www.w3.org/1999/xlink"><defs /><polyline points="222.53547805406228,105.015709707832 -0.6927671436797327,105.01570970783197 80.71259768176031,20.323158503734536 222.53547805406228,105.015709707832" style="fill:none;stroke:#000000" /><polyline points="97.5024185294709,10.33470645716003 83.79311335380437,33.29178025345512 92.61535007076581,38.56016666012151 106.32465524643234,15.60309286382642 115.75532208163423,21.23481626121122 102.0460169059677,44.191890057506306 110.86825362292915,49.4602764641727 124.57755880024565,26.50320266787761 134.00822563544753,32.134926065262405 120.29892045813104,55.0919998615575 129.12115717674246,60.360386268223884 142.83046235405897,37.4033124719288 152.26112918761086,43.035035869313596 138.55182401194435,65.99210966560868 147.37406073055578,71.26049607227507 161.0833659062223,48.30342227597998 170.5140327414242,53.93514567336478 156.80472756410768,76.89221946965986 165.62696428271911,82.16060587632626 179.33626946003562,59.203532080031174 188.7669362952375,64.83525547741597 175.057631117921,87.79232927371106 183.8798678365324,93.06071568037746 197.58917301219896,70.10364188408236 207.01983984740085,75.73536528146715 196.16959618847272,93.90476491236615 196.1378888041842,93.90476491236615 196.1378888041842,93.95786087529913 193.3105346717343,98.69243907776224 196.1378888041842,100.38085376882881 196.1378888041842,112.53436717051558 185.1536371055042,112.53436717051558 185.1536371055042,93.90476491236615 174.8780468041842,93.90476491236615 174.8780468041842,112.53436717051558 163.89379510550418,112.53436717051558 163.89379510550418,93.90476491236615 153.61820480418422,93.90476491236615 153.61820480418422,112.53436717051558 142.6339531055042,112.53436717051558 142.6339531055042,93.90476491236615 132.3583628041842,93.90476491236615 132.3583628041842,112.53436717051558 121.37411110550418,112.53436717051558 121.37411110550418,93.90476491236615 111.0985208041842,93.90476491236615 111.0985208041842,112.53436717051558 100.11426910550419,112.53436717051558 100.11426910550419,93.90476491236615 89.8386788041842,93.90476491236615 89.8386788041842,112.53436717051558 78.85442710715417,112.53436717051558 78.85442710715417,93.90476491236615 68.57883680583419,93.90476491236615 68.57883680583419,112.53436717051558 57.59458510715417,112.53436717051558 57.59458510715417,93.90476491236615 47.31899480583419,93.90476491236615 47.31899480583419,112.53436717051558 36.33474310715417,112.53436717051558 36.33474310715417,93.90476491236615 26.059152805834184,93.90476491236615 26.059152805834184,112.53436717051558 15.07490110715417,112.53436717051558 15.07490110715417,93.90476491236615 10.892869603717585,93.90476491236615 0.0,83.43468210774446 7.611833566879896,75.51547917118532 22.224528352879435,89.56100895373757 29.345275885581568,82.15272233359033 14.732581097932048,68.10719255268806 22.344414664811943,60.18798961777889 36.95710945081149,74.23351940033115 44.07785698351362,66.8252327801839 29.465162195864096,52.77970299928163 37.07699576439397,44.86050006272248 51.689690550393514,58.90602984527474 58.81043808309565,51.49774322512749 44.197743295446124,37.45221344422522 51.80957686232602,29.533010507666074 66.42227164832556,43.57854029021833 73.54301918102769,36.170253670071084 58.93032439337817,22.12472388916881 66.41938645212612,14.333250034600105 80.19631761621835,0.0 97.5024185294709,10.33470645716003" style="fill:none;stroke:#ff0000" /><polyline points="191.84785984368344,81.32602506302614 19.4740294298129,81.32602506302614 82.33415064288006,15.927583007856514 191.84785984368344,81.32602506302614" style="fill:none;stroke:#ff0000" /></svg>