<?xml version="1.0" encoding="utf-8" ?>
<svg baseProfile="full" height="38mm" version="1.1" width="60mm" xmlns="http://www.w3.org/2000/svg" xmlns:ev="http://www.w3.org/2001/xml-events" xmlns:xlink="http://www.w3.org/1999/xlink"><defs /><polyline points="224.2480594026596,127.85855824204339 1.019796462833724,127.85855824204333 104.02950942745193,22.23113939472506 224.2480594026596,127.85855824204339" style="fill:none;stroke:#000000" /><polyline points="119.36017261347368,13.543923884308013 102.52760630843352,32.70170256915717 110.24687987643101,39.484074693722384 127.07944617982119,20.32629600722325 135.3310834399444,27.576417933368827 118.49851713490423,46.734196618217986 126.21779070290172,53.51656874443318 143.0503570062919,34.358790057934044 151.3019942664151,41.60891198242964 134.46942796137495,60.766690667278795 142.18870152937245,67.54906279349399 159.02126783276265,48.39128410699486 167.27290509288585,55.641406033140434 150.44033878784566,74.79918471798959 158.15961235419317,81.58155684420478 174.99217865758337,62.42377815605567 183.24381591770657,69.67390008220124 166.4112496126664,88.8316787670504 174.13052318066391,95.6140508932656 190.96308948405408,76.45627220676647 199.2147267441773,83.70639413126206 182.38216043913712,102.8641728177612 190.10143400713463,109.64654494232641 206.93400031052482,90.48876625582727 215.18563757064803,97.73888818197285 198.95205823626716,116.21493720018599 197.85046128303742,116.21493720018599 197.85046128303742,136.74969499844505 186.8662095843574,136.74969499844505 186.8662095843574,116.21493720018599 176.59061928303743,116.21493720018599 176.59061928303743,136.74969499844505 165.6063675843574,136.74969499844505 165.6063675843574,116.21493720018599 155.33077728303743,116.21493720018599 155.33077728303743,136.74969499844505 144.3465255843574,136.74969499844505 144.3465255843574,116.21493720018599 134.07093528303741,116.21493720018599 134.07093528303741,136.74969499844505 123.0866835843574,136.74969499844505 123.0866835843574,116.21493720018599 112.81109328303742,116.21493720018599 112.81109328303742,136.74969499844505 101.82684158435741,136.74969499844505 101.82684158435741,116.21493720018599 91.55125128303742,116.21493720018599 91.55125128303742,136.74969499844505 80.5669995843574,136.74969499844505 80.5669995843574,116.21493720018599 70.29140928303742,116.21493720018599 70.29140928303742,136.74969499844505 59.307157584357405,136.74969499844505 59.307157584357405,116.21493720018599 49.03156728303742,116.21493720018599 49.03156728303742,136.74969499844505 38.047315584357406,136.74969499844505 38.047315584357406,116.21493720018599 27.771725283037423,116.21493720018599 27.771725283037423,136.74969499844505 16.787473584357407,136.74969499844505 16.787473584357407,116.21493720018599 9.872805773517179,116.21493720018599 0.0,106.58680371006277 7.6689846169190465,98.72293314034681 24.142499707126397,114.788194219019 31.31671112375227,107.43167013634118 14.84319603354492,91.366409057669 22.512180648813985,83.50253848630307 38.98569573902134,99.56779956662523 46.15990715564721,92.21127548394742 29.68639206708984,76.14601440527522 37.35537668235891,68.28214383390929 53.82889177256626,84.34740491258148 61.00310318919213,76.99088083155365 44.52958809898478,60.92561975123148 52.19857271590382,53.06174918151552 68.6720878044612,69.12701026018772 75.84629922273704,61.770486177509895 59.372784132529695,45.70522509883771 67.04176874779877,37.84135452747177 83.51528383800611,53.906615607793945 90.68949525463199,46.55009152511613 74.21598016607462,30.48483044644394 81.76127148168288,22.747796497250032 103.94532192400607,0.0 119.36017261347368,13.543923884308013" style="fill:none;stroke:#ff0000" /><polyline points="202.8402467731857,103.63619735084599 20.447462597084577,103.63619735084599 104.61345527779022,17.331359624394313 202.8402467731857,103.63619735084599" style="fill:none;stroke:#ff0000" /></svg>