<?xml version="1.0" encoding="utf-8" ?>
<svg baseProfile="full" height="52mm" version="1.1" width="56mm" xmlns="http://www.w3.org/2000/svg" xmlns:ev="http://www.w3.org/2001/xml-events" xmlns:xlink="http://www.w3.org/1999/xlink"><defs /><polyline points="229.095695348881,169.55653310788588 5.8673255375821505,169.55653310788594 55.20079907384331,30.508176796013828 229.095695348881,169.55653310788588" style="fill:none;stroke:#000000" /><polyline points="99.96360595561067,40.357923519585185 78.99079965863322,66.58666920622228 87.01620836769806,73.00387818410965 107.98901466632549,46.77513249912253 116.56789983535343,53.634907613529705 95.59509353837599,79.86365329851682 103.62050224744083,86.28086227805417 124.59330854606824,60.05211659141707 133.1721937150962,66.91189170747423 112.19938741811876,93.14063739246134 120.22479612883356,99.55784637034871 141.197602425811,73.32910068536158 149.77648759483895,80.18887579976877 128.80368129786152,106.41762148475588 136.82909000857632,112.83483046429323 157.80189630555378,86.60608477765612 166.3807814762317,93.46585989371329 145.40797517760427,119.6946055787004 153.4333838883191,126.11181455658777 174.40619018529654,99.88306887160064 182.98507535597446,106.74284398600783 162.01226905734705,132.97158967264494 170.03767776806185,139.3887986505323 191.0104840650393,113.16005296389518 199.58936923571724,120.01982807995235 178.61656293873978,146.24857376493947 185.8209226760027,152.00926255520253 181.4382017914528,152.00926255520253 181.4382017914528,187.46010834392055 170.45395009277277,187.46010834392055 170.45395009277277,152.00926255520253 160.17835979145278,152.00926255520253 160.17835979145278,187.46010834392055 149.19410809277278,187.46010834392055 149.19410809277278,152.00926255520253 138.91851779145279,152.00926255520253 138.91851779145279,187.46010834392055 127.93426609277277,187.46010834392055 127.93426609277277,152.00926255520253 117.6586757914528,152.00926255520253 117.6586757914528,187.46010834392055 106.67442409277278,187.46010834392055 106.67442409277278,152.00926255520253 96.39883379145279,152.00926255520253 96.39883379145279,187.46010834392055 85.41458209277278,187.46010834392055 85.41458209277278,152.00926255520253 75.1389917914528,152.00926255520253 75.1389917914528,187.46010834392055 64.15474009277277,187.46010834392055 64.15474009277277,152.00926255520253 53.87914979145279,152.00926255520253 53.87914979145279,187.46010834392055 42.89489809277278,187.46010834392055 42.89489809277278,152.00926255520253 32.61930779145279,152.00926255520253 32.61930779145279,187.46010834392055 21.635056092772775,187.46010834392055 21.635056092772775,152.00926255520253 19.975236342876006,152.00926255520253 21.685702469313476,147.1882457820481 0.0,139.49429630238555 3.6728275916509774,129.14228572994713 25.35853005931447,136.83623521290966 28.79440103465084,127.15209628748504 7.108698563687384,119.4581468061725 10.781526155338362,109.10613623538406 32.46722862300186,116.8000857166966 35.90309959668824,107.11594679127198 14.21739712902475,99.42199731160942 17.890224719025746,89.069986739171 39.57592718833922,96.76393622213352 43.01179816202561,87.0797972967089 21.326095692712133,79.38584781704634 24.998923284363112,69.03383724460792 46.684625752026605,76.72778672757045 50.120496727362976,67.04364780214584 28.43479425639952,59.34969832083329 32.1076218480505,48.997687750044854 53.79332431571399,56.6916372313574 57.22919528940038,47.00749830593278 35.54349282173688,39.313548826270214 39.15708125807173,29.128506168472715 49.49169021126051,0.0 99.96360595561067,40.357923519585185" style="fill:none;stroke:#ff0000" /><polyline points="203.72275192683827,139.4305227058625 13.369603230736299,139.4305227058625 55.4376523388512,20.86005396290823 203.72275192683827,139.4305227058625" style="fill:none;stroke:#ff0000" /></svg>