<?xml version="1.0" encoding="utf-8" ?>
<svg baseProfile="full" height="88mm" version="1.1" width="70mm" xmlns="http://www.w3.org/2000/svg" xmlns:ev="http://www.w3.org/2001/xml-events" xmlns:xlink="http://www.w3.org/1999/xlink"><defs /><polyline points="244.2769798059155,285.58871056514926 21.04871686608965,285.58871056514926 60.109068480436584,-22.614039249763263 244.2769798059155,285.58871056514926" style="fill:none;stroke:#000000" /><polyline points="108.12467909385217,9.429076253615305 70.99867771867312,31.613881982944886 76.26955500745373,40.43463073888176 113.39555638428276,18.249825011202155 119.02994245154308,27.678901266467438 81.90394107471406,49.863706994147044 87.17481836514466,58.68445575173389 124.30081974362366,36.49965002240431 129.93520581088399,45.9287262776696 92.80920443240497,68.1135320053492 98.08008172283557,76.93428076293604 135.2060831013146,54.749475033606466 140.84046916857488,64.17855128887174 103.71446779174588,86.36335701655135 108.98534508217648,95.1841057741382 146.1113464590055,72.9993000464586 151.7457325262658,82.42837630007391 114.61973114943679,104.61318202940349 119.89060843986739,113.43393078534035 157.01660981669642,91.24912505766075 162.6509958856067,100.67820131292603 125.52499450712772,122.86300704060564 130.7958717975583,131.6837557981925 167.9218731760373,109.49895006886291 173.55625924329763,118.9280263241282 136.43025786481863,141.1128320518078 141.7011351568992,149.93358080939464 178.82713653372824,127.74877508006506 184.46152260098856,137.17785133533036 147.33552122415952,159.36265706300995 152.60639851459013,168.1834058205968 189.73239989141916,145.9986000929172 195.3667859586795,155.4276763465325 158.24078458185045,177.6124820758621 163.51166187228105,186.43323083179894 200.63766325076006,164.24842510411935 206.27204931802038,173.67750135938462 169.14604793954138,195.86230708706424 174.41692522997198,204.68305584465108 211.54292660845098,182.4982501153215 217.1773126757113,191.9273263705868 180.05131129888227,214.1121320982664 185.32218858931287,222.93288085585323 222.44818996614188,200.74807512652364 228.0825760334022,210.17715138178895 190.9565746565732,232.36195710946853 196.2274519470038,241.1827058670554 233.3534533238328,218.9979001393758 238.98783939274313,228.4269763929911 201.8618380142641,250.61178212232068 207.1327153046947,259.4325308782575 244.2587166831737,237.24772515057793 249.89310275043402,246.67680140584324 217.5250509862583,266.0184733740963 217.5250509862583,262.1554046661273 207.2494606849383,262.1554046661273 207.2494606849383,314.92617244464776 196.2652089862583,314.92617244464776 196.2652089862583,262.1554046661273 185.9896186849383,262.1554046661273 185.9896186849383,314.92617244464776 175.00536698625828,314.92617244464776 175.00536698625828,262.1554046661273 164.72977668493832,262.1554046661273 164.72977668493832,314.92617244464776 153.7455249862583,314.92617244464776 153.7455249862583,262.1554046661273 143.4699346849383,262.1554046661273 143.4699346849383,314.92617244464776 132.4856829862583,314.92617244464776 132.4856829862583,262.1554046661273 122.2100926849383,262.1554046661273 122.2100926849383,314.92617244464776 111.22584098625829,314.92617244464776 111.22584098625829,262.1554046661273 100.95025068493831,262.1554046661273 100.95025068493831,314.92617244464776 89.96599898625828,314.92617244464776 89.96599898625828,262.1554046661273 79.6904086849383,262.1554046661273 79.6904086849383,314.92617244464776 68.70615698790827,314.92617244464776 68.70615698790827,262.1554046661273 58.430566686588286,262.1554046661273 58.430566686588286,314.92617244464776 47.44631498790827,314.92617244464776 47.44631498790827,262.1554046661273 37.17072468658829,262.1554046661273 37.17072468658829,314.92617244464776 0.0,314.92617244464776 4.833497621369488,276.7878250744226 31.380819229152863,280.1523236625535 32.67277104838379,269.9582755674077 6.125449438950434,266.59377698092675 7.506501381711104,255.69669108861916 34.05382299114446,259.0611896784001 35.34577481037539,248.86714158325432 8.79845319929205,245.50264299512338 10.1795051437027,234.60555710446576 36.72682675148607,237.9700556942467 38.018778570717004,227.77600759910092 11.471456959633667,224.41150901096995 12.852508904044315,213.51442312031233 39.399830513477674,216.8789217084433 40.69178233105862,206.6848736132975 14.144460721625263,203.32037502681655 15.525512666035914,192.42328913450893 42.07283427381929,195.78778772428987 43.36478609305021,185.5937396291441 16.81746448196688,182.22924104101313 18.19851642637753,171.33215515035553 44.745838034160904,174.69665374013647 46.03778985339183,164.50260564499067 19.490468243958475,161.13810705685972 20.871520186719145,150.2410211662021 47.4188417961525,153.60551975433307 48.71079361373344,143.41147165918727 22.16347200430009,140.0469730727063 23.54452394871074,129.1498871820487 50.091845556494114,132.51438577017964 51.383797375725045,122.32033767503387 24.83647576464171,118.95583908690291 26.21752770905236,108.05875319624529 52.76484931683573,111.42325178602623 54.05680113606666,101.22920369088044 27.509479526633303,97.8647051027495 28.890531469393974,86.96761921209188 55.43785307882733,90.33211780187281 56.729804896408275,80.13806970507704 30.18248328697492,76.77357111859607 31.56353523138557,65.87648522793846 58.110856839168946,69.24098381606942 59.40280865839987,59.04693572092363 32.85548704731654,55.68243713279268 34.23653899172719,44.785351242135064 60.78386059951056,48.149849831916 62.075812418741485,37.95580173677021 35.52849080930813,34.591303148639255 36.9095427520688,23.694217257981645 63.456864361502156,27.05871584776258 64.30023956804372,20.404127566403865 65.3642916514128,22.184805727679603 102.49029302659184,0.0 108.12467909385217,9.429076253615305" style="fill:none;stroke:#ff0000" /><polyline points="268.5059317763093,302.3474325953078 14.27353507429214,302.3474325953078 58.75897198119452,-48.66154236204204 268.5059317763093,302.3474325953078" style="fill:none;stroke:#ff0000" /></svg>