<?xml version="1.0" encoding="utf-8" ?>
<svg baseProfile="full" height="67mm" version="1.1" width="60mm" xmlns="http://www.w3.org/2000/svg" xmlns:ev="http://www.w3.org/2001/xml-events" xmlns:xlink="http://www.w3.org/1999/xlink"><defs /><polyline points="205.0275387125974,198.3299740789091 -18.20080228740272,198.3299740789091 138.48517931556634,-14.145773409986216 205.0275387125974,198.3299740789091" style="fill:none;stroke:#000000" /><polyline points="127.8525279629167,15.0366577277798 131.93283889137456,9.503507245062695 132.37554322369456,10.917102051489925 164.42340528970598,0.8804725504330523 167.70619028649676,11.362700750603189 135.65832822048537,21.399330253310044 138.72932063949932,31.20528566802241 170.77718270386075,21.168656165315557 174.05996770230152,31.650884365485695 142.0121056362901,41.687513868192546 145.08309805530405,51.49346928290491 177.13096011966547,41.45683978184804 180.41374511810628,51.93906798201818 148.36588305044486,61.97569748472503 151.4368754694588,71.78165289778742 183.48473753382024,61.745023396730545 186.76752253226104,72.22725159690069 154.71966046624962,82.26388109960753 157.79065288526357,92.0698365143199 189.838514949625,82.03320701326302 193.12129994806577,92.51543521343316 161.07343788205438,102.55206471614002 164.14443029941833,112.3580201292024 196.19229236542975,102.32139062814554 199.47507736222053,112.80361882831568 167.42721529620914,122.84024833102252 170.4982077152231,132.64620374573488 202.5460697795845,122.60957424467802 205.8288547780253,133.09180244484816 173.78099271201387,143.12843194755501 176.85198513102782,152.9343873606174 208.89984719538924,142.89775785956053 212.12968404938582,153.21091786460372 214.70489284950372,161.43379153405948 203.81462680344598,161.43379153405948 203.81462680344598,237.56717352222427 192.83037510476598,237.56717352222427 192.83037510476598,161.43379153405948 182.55478480344598,161.43379153405948 182.55478480344598,237.56717352222427 171.57053310476599,237.56717352222427 171.57053310476599,161.43379153405948 161.294942803446,161.43379153405948 161.294942803446,237.56717352222427 150.31069110476597,237.56717352222427 150.31069110476597,161.43379153405948 140.035100803446,161.43379153405948 140.035100803446,237.56717352222427 129.05084910476597,237.56717352222427 129.05084910476597,161.43379153405948 118.775258803446,161.43379153405948 118.775258803446,237.56717352222427 107.79100710476597,237.56717352222427 107.79100710476597,161.43379153405948 97.51541680344599,161.43379153405948 97.51541680344599,237.56717352222427 86.53116510476598,237.56717352222427 86.53116510476598,161.43379153405948 76.25557480344598,161.43379153405948 76.25557480344598,237.56717352222427 65.27132310476597,237.56717352222427 65.27132310476597,161.43379153405948 54.99573280344599,161.43379153405948 54.99573280344599,237.56717352222427 44.01148110476597,237.56717352222427 44.01148110476597,161.43379153405948 33.73589080344599,161.43379153405948 33.73589080344599,237.56717352222427 22.75163910476597,237.56717352222427 22.75163910476597,161.43379153405948 19.89489569074198,161.43379153405948 20.390624980716954,160.76155238100625 0.0,145.72489465487644 6.51921524705872,136.88444116210204 26.909840229425654,151.9210988915318 33.00846094760958,143.65099723636223 12.617835966892628,128.61433950693245 19.13705121560133,119.77388601745803 39.52767619631828,134.81054374523782 45.626296914502205,126.54044209006824 25.235671932135276,111.50378436393842 31.754887182493956,102.66333087116404 52.14551216321091,117.69998860059381 58.24413288139483,109.42988694542423 37.8535078990279,94.39322921599445 44.37272314938658,85.55277572652003 64.76334813010354,100.5894334559498 70.86196884663748,92.31933179913024 50.47134386592053,77.28267407135044 56.99055911627921,68.44222058187601 77.38118409699617,83.47887830965581 83.47980481353011,75.20877665448623 63.08917983281316,60.172118925056445 69.60839508317184,51.33166543558202 89.99902006388879,66.3683231650118 96.09764078042274,58.09822150984221 75.70701579970579,43.061563780412435 82.22623104676451,34.22111029093801 102.61685603078142,49.257768018717805 108.71547674731536,40.98766636354822 88.32485176659841,25.9510086374184 94.84406701365712,17.11055514464401 115.23469199767405,32.147212874073794 121.33331271420799,23.87711121890421 100.94268773349104,8.840453489474429 107.46190298219975,0.0 127.8525279629167,15.0366577277798" style="fill:none;stroke:#ff0000" /><polyline points="197.58435897182883,148.85505168471948 13.320795954255201,148.85505168471948 142.65704920813147,-26.53279607188868 197.58435897182883,148.85505168471948" style="fill:none;stroke:#ff0000" /></svg>