<?xml version="1.0" encoding="utf-8" ?>
<svg baseProfile="full" height="51mm" version="1.1" width="64mm" xmlns="http://www.w3.org/2000/svg" xmlns:ev="http://www.w3.org/2001/xml-events" xmlns:xlink="http://www.w3.org/1999/xlink"><defs /><polyline points="218.50449706991068,169.20733697816087 -4.723841992913755,169.20733697816084 118.04718617418973,27.416963634743656 218.50449706991068,169.20733697816087" style="fill:none;stroke:#000000" /><polyline points="138.44804147233603,25.205394256295698 115.26116020256407,41.633108533217545 121.201514066529,50.01761519612411 144.38839533795095,33.58990091920227 150.73842878044792,42.552649418824835 127.55154751067595,58.98036369574668 133.49190137629085,67.36487035865325 156.6787826477128,50.93715608173141 163.02881609020977,59.89990458135398 139.84193481878782,76.32761885827583 145.78228868440272,84.71212552118239 168.96916995582467,68.28441124426055 175.31920339832163,77.24715974223314 152.13232212854967,93.67487402080496 158.07267599251458,102.05938068206154 181.25955726558652,85.63166640678969 187.6095907064335,94.59441490476227 164.42270943666153,111.0221291833341 170.36306330227643,119.4066358445907 193.54994457369838,102.97892156931883 199.89997801619535,111.94167006729141 176.7130967447734,128.36938434586324 182.65345061038832,136.75389100711982 205.84033188181024,120.32617673184797 212.1903653243072,129.28892522982056 189.00348405453525,145.71663950839238 194.94383791850018,154.10114616964896 218.1307191915721,137.6734318943771 224.37833273943605,146.4916199327582 230.24881293014565,154.77750346382842 213.36670288790006,154.77750346382842 213.36670288790006,182.94625208586322 202.38245118922003,182.94625208586322 202.38245118922003,154.77750346382842 192.10686088790004,154.77750346382842 192.10686088790004,182.94625208586322 181.12260918922004,182.94625208586322 181.12260918922004,154.77750346382842 170.84701888790005,154.77750346382842 170.84701888790005,182.94625208586322 159.86276718922005,182.94625208586322 159.86276718922005,154.77750346382842 149.58717688790006,154.77750346382842 149.58717688790006,182.94625208586322 138.60292518922003,182.94625208586322 138.60292518922003,154.77750346382842 128.32733488790007,154.77750346382842 128.32733488790007,182.94625208586322 117.34308318922004,182.94625208586322 117.34308318922004,154.77750346382842 107.06749288790006,154.77750346382842 107.06749288790006,182.94625208586322 96.08324118922003,182.94625208586322 96.08324118922003,154.77750346382842 85.80765088790005,154.77750346382842 85.80765088790005,182.94625208586322 74.82339918922004,182.94625208586322 74.82339918922004,154.77750346382842 64.54780888790005,154.77750346382842 64.54780888790005,182.94625208586322 53.563557189220035,182.94625208586322 53.563557189220035,154.77750346382842 43.287966887900055,154.77750346382842 43.287966887900055,182.94625208586322 32.303715189220036,182.94625208586322 32.303715189220036,154.77750346382842 22.028124887900052,154.77750346382842 22.028124887900052,182.94625208586322 11.043873189220038,182.94625208586322 11.043873189220038,162.42644475297965 11.460377974789868,162.78708080746551 18.186609636216843,155.01884010293756 0.0,139.27172898799276 7.190109705278856,130.96774754408358 25.37671934314568,146.71485865902838 32.10295100457266,138.9466179545004 13.916341366705833,123.19950683790562 21.10645107198469,114.89552539564642 39.2930607115015,130.64263651059122 46.01929237127849,122.87439580606325 27.832682735061645,107.12728468946847 35.0227924403405,98.82330324720925 53.209402078207326,114.57041436215407 59.935633739634305,106.80217365597612 41.74902410341746,91.0550625410313 48.93913380869632,82.7510810987721 67.12574344656313,98.49819221206693 73.85197510799011,90.72995150753896 55.66536547177327,74.98284039259416 62.85547517540215,66.67885895033494 81.04208481491895,82.42597006362978 87.76831647634593,74.65772935910181 69.5817068384791,58.910618244157 76.6558470323825,50.74057198509311 120.59022738255767,0.0 138.44804147233603,25.205394256295698" style="fill:none;stroke:#ff0000" /><polyline points="205.92106756577118,142.1987636144884 14.104360090751422,142.1987636144884 119.59963230856133,20.36045813574434 205.92106756577118,142.1987636144884" style="fill:none;stroke:#ff0000" /></svg>