<?xml version="1.0" encoding="utf-8" ?>
<svg baseProfile="full" height="93mm" version="1.1" width="72mm" xmlns="http://www.w3.org/2000/svg" xmlns:ev="http://www.w3.org/2001/xml-events" xmlns:xlink="http://www.w3.org/1999/xlink"><defs /><polyline points="245.46911104421426,306.01745734757003 22.24084453005493,306.01745734757003 78.72470741581911,-18.131634871721655 245.46911104421426,306.01745734757003" style="fill:none;stroke:#000000" /><polyline points="121.22255996229056,9.767681126245819 82.29854191340559,29.79044945061641 86.99893560205675,38.92795760102863 125.92295364929174,18.905189276658035 130.9475124192361,28.67287040125387 92.02349437200111,48.69563872727444 96.72388806065227,57.83314687768666 135.64790610788725,37.81037855166609 140.67246487783163,47.57805967626192 101.74844682894665,67.6008280022825 106.44884051759782,76.73833615269471 145.3728585664828,56.71556782832412 150.39741733642714,66.48324895291996 111.47339928754218,86.50601727729055 116.17379297619334,95.64352542770277 155.0978110250783,75.62075710333218 160.12236979502268,85.388438227928 121.19835174613769,105.41120655394859 125.89874543478886,114.5487147043608 164.82276348367384,94.52594637834022 169.8473222536182,104.29362750458604 130.92330420473323,124.31639582895664 135.6236978933844,133.45390397771888 174.54771594226935,113.43113565499826 179.57227471221373,123.1988167795941 140.64825666332874,143.22158510231472 145.3486503519799,152.35909325437692 184.2726684008649,132.33632492835633 189.29722716915927,142.10400605295217 150.37320912192428,162.12677437897275 155.07360281057544,171.26428252938496 193.99762085781043,151.24151420501437 199.02217962775478,161.0091953296102 160.0981615805198,181.0319636539808 164.79855526917095,190.16947180439303 203.72257331640594,170.1467034800224 208.7471320863503,179.91438460461825 169.82311403746533,199.93715293063883 174.5235077261165,209.07466108105106 213.44752577500148,189.05189275503048 218.47208454494583,198.81957388127628 179.54806649606087,218.8423422056469 184.24846018471203,227.9798503560591 223.172478233597,207.95708203168851 228.19703700354134,217.72476315628435 189.27301895465638,237.74753148065494 193.97341264330754,246.88503963271714 232.89743069219253,226.86227130669656 237.92198946213688,236.6299524312924 198.9979714132519,256.652720757313 203.69836510190308,265.7902289077252 242.62238315078804,245.76746058170463 247.6469419207324,255.53514170795043 208.72292387184743,275.55791003232105 213.4233175604986,284.69541818273325 252.34733560938358,264.67264985836266 257.37189437767796,274.44033098295847 233.5304609316989,286.7045195841605 229.70143213486588,286.7045195841605 229.70143213486588,288.6741969293815 218.71718043618588,294.32456752319644 218.71718043618588,286.7045195841605 208.4415901348659,286.7045195841605 208.4415901348659,331.56257889778834 197.45733843618586,331.56257889778834 197.45733843618586,286.7045195841605 187.1817481348659,286.7045195841605 187.1817481348659,331.56257889778834 176.19749643618587,331.56257889778834 176.19749643618587,286.7045195841605 165.92190613486588,286.7045195841605 165.92190613486588,331.56257889778834 154.93765443618588,331.56257889778834 154.93765443618588,286.7045195841605 144.6620641348659,286.7045195841605 144.6620641348659,331.56257889778834 133.6778124361859,331.56257889778834 133.6778124361859,286.7045195841605 123.4022221348659,286.7045195841605 123.4022221348659,331.56257889778834 112.41797043618588,331.56257889778834 112.41797043618588,286.7045195841605 102.14238013486589,286.7045195841605 102.14238013486589,331.56257889778834 91.15812843618588,331.56257889778834 91.15812843618588,286.7045195841605 80.8825381348659,286.7045195841605 80.8825381348659,331.56257889778834 69.89828643618587,331.56257889778834 69.89828643618587,286.7045195841605 59.62269613486589,286.7045195841605 59.62269613486589,331.56257889778834 48.63844443618588,331.56257889778834 48.63844443618588,286.7045195841605 38.36285413486589,286.7045195841605 38.36285413486589,331.56257889778834 0.0,331.56257889778834 5.875958123994142,297.84168243600993 32.982625630842904,302.565093135454 34.74659492064939,292.4420417978121 7.639927413800632,287.71863109836806 9.525549757336888,276.8974382901319 36.63221726253567,281.6208489912259 38.39618655234216,271.49779765358403 11.28951904714338,266.77438695249 13.175141389029655,255.9531941459038 40.28180889422843,260.67660484699786 42.04577818403492,250.55355350935596 14.939110678836146,245.83014280826194 16.824733020722423,235.00895000167577 43.93140052757118,239.7323607027698 45.695369817377674,229.6093093651279 18.588702310528912,224.88589866403387 20.474324652415188,214.0647058574477 47.58099215926395,218.78811655854173 49.34496144907044,208.66506521924987 22.238293942221677,203.9416545198058 24.123916284107953,193.12046171321964 51.230583790956715,197.84387241266367 52.994553080763204,187.7208210750218 25.887885575564425,182.99741037557774 27.7735079174507,172.17621756899158 54.88017542264948,176.8996282684356 56.64414471245597,166.77657693079374 29.53747720725719,162.05316623134968 31.423099549143465,151.23197342311352 58.529767054342244,155.95538412420754 60.29373634579872,145.83233278656567 33.187068838949955,141.10892208547165 35.07269118083623,130.28772927888545 62.179358687684996,135.01113997997948 63.943327977491485,124.88808864398759 36.83666047064273,120.16467794289355 38.722282812529,109.34348513630736 65.82895031937775,114.0668958374014 67.59291960918425,103.94384449975952 40.48625210233549,99.22043379866548 42.37187444587175,88.3992409920793 69.47854195107053,93.12265169317334 71.24251124087702,82.99960035388148 44.135843735678236,78.27618965443742 46.02146607756451,67.45499684785125 73.1281335827633,72.1784075472953 74.89210287256978,62.05535620965341 47.785435367371,57.33194551020936 49.671057709257276,46.510752703623176 76.77772521610603,51.23416340306723 78.54169450591253,41.111112065425345 51.435026999063766,36.38770136598129 53.32064934095005,25.566508559395114 80.4273168477988,30.289919258839163 82.19128613760529,20.16686792119728 78.30897086609474,19.490363902466388 116.1980011923462,0.0 121.22255996229056,9.767681126245819" style="fill:none;stroke:#ff0000" /><polyline points="266.1399354738866,318.9838390484484 14.960162003034858,318.9838390484484 78.51664660953026,-45.75355207742899 266.1399354738866,318.9838390484484" style="fill:none;stroke:#ff0000" /></svg>