<?xml version="1.0" encoding="utf-8" ?>
<svg baseProfile="full" height="55mm" version="1.1" width="57mm" xmlns="http://www.w3.org/2000/svg" xmlns:ev="http://www.w3.org/2001/xml-events" xmlns:xlink="http://www.w3.org/1999/xlink"><defs /><polyline points="182.0106368767003,177.22283427532813 8.240251221084932,177.22283427532813 137.28944676718058,-4.923399645126519 182.0106368767003,177.22283427532813" style="fill:none;stroke:#000000" /><polyline points="133.70679120746226,11.86243998750689 133.1719189965765,11.993763712933836 135.62204985616293,21.972972839219402 158.984890665934,16.236845207573364 161.6039960660816,26.90427565399413 138.24115525466055,32.64040328564017 140.69128611259703,42.61961241027576 164.05412692566804,36.883484778629715 166.67323232581566,47.5509152234005 143.3103915143946,53.287042855046536 145.76052237398108,63.266251982982084 169.12336318375213,57.53012434968607 171.74246858389972,68.19755479610683 148.3796277724787,73.93368242775287 150.82975863206514,83.91289155403844 174.1925994434862,78.1767639223924 176.81170484363378,88.84419436716318 153.44886403221275,94.58032199880923 155.8989948917992,104.55953112674477 179.26183570157025,98.82340349509873 181.88094110171787,109.49083393986952 158.51810029029681,115.22696157151556 160.96823114988325,125.20617069780113 184.3310719613043,119.47004306615509 186.90793372548663,129.96541818047956 202.9116985723218,195.14761678654799 172.02147727339724,195.14761678654799 172.02147727339724,166.7312450404297 161.74588697207727,166.7312450404297 161.74588697207727,195.14761678654799 150.76163527339725,195.14761678654799 150.76163527339725,166.7312450404297 140.48604497207725,166.7312450404297 140.48604497207725,195.14761678654799 129.50179327339725,195.14761678654799 129.50179327339725,166.7312450404297 119.22620297207726,166.7312450404297 119.22620297207726,195.14761678654799 108.24195127339725,195.14761678654799 108.24195127339725,166.7312450404297 97.96636097207727,166.7312450404297 97.96636097207727,195.14761678654799 86.98210927339724,195.14761678654799 86.98210927339724,166.7312450404297 76.70651897207726,166.7312450404297 76.70651897207726,195.14761678654799 65.72226727339725,195.14761678654799 65.72226727339725,166.7312450404297 55.44667697207726,166.7312450404297 55.44667697207726,195.14761678654799 44.46242527339725,195.14761678654799 44.46242527339725,166.7312450404297 34.186834972077264,166.7312450404297 34.186834972077264,195.14761678654799 13.225109931967316,195.14761678654799 22.984687827120432,181.3724797126864 0.0,165.0880064633805 6.350036392662814,156.12526005428373 29.334724218133264,172.40973330358963 35.27508084416621,164.02522859591045 12.290393018695761,147.74075534660454 18.640429411358575,138.77800893585777 41.62511723517905,155.06248218681367 47.56547386286197,146.6779774774845 24.58078603574154,130.39350422982855 30.930822428404355,121.4307578190818 53.91551025387481,137.7152310700377 59.85586688155773,129.3307263607085 36.8711790544373,113.04625311140259 43.221215447100114,104.08350670230583 66.20590327092059,120.36797995161173 72.14625989860352,111.98347524393253 49.16157207313306,95.69900199462663 55.511608464145894,86.73625558387988 78.49629628961634,103.02072883483577 84.43665291729927,94.63622412550657 61.45196509017884,78.35175087785065 67.80200148284166,69.3890044671039 90.78668930666213,85.67347771805979 96.72704593434506,77.2889730087306 73.7423581088746,61.0044997594247 80.09239450153741,52.04175335032792 103.07708232535788,68.32622659963383 109.01743895304081,59.94172189195462 86.03275112592038,43.65724864264872 92.3827875185832,34.69450223355195 115.36747534405364,50.978975482857855 121.3078319700866,42.59447077352867 98.32314414461614,26.309997527522725 104.67318053727895,17.347251116775976 127.65786836109942,33.63172436773186 133.59822498878236,25.247219658402674 110.61353716166192,8.962746409096768 116.96357355432474,0.0 133.70679120746226,11.86243998750689" style="fill:none;stroke:#ff0000" /><polyline points="186.87099496455932,182.568876937208 37.55286511042818,182.568876937208 148.44278726426094,26.053513826164004 186.87099496455932,182.568876937208" style="fill:none;stroke:#ff0000" /></svg>