<?xml version="1.0" encoding="utf-8" ?>
<svg baseProfile="full" height="49mm" version="1.1" width="71mm" xmlns="http://www.w3.org/2000/svg" xmlns:ev="http://www.w3.org/2001/xml-events" xmlns:xlink="http://www.w3.org/1999/xlink"><defs /><polyline points="225.45219998702154,155.11778656776582 -19.582445905006544,155.11778656776588 148.60143756214487,8.335591556631561 225.45219998702154,155.11778656776582" style="fill:none;stroke:#000000" /><polyline points="152.14329396198391,36.37350811313991 160.0185758474464,29.500369390936942 172.06304467954092,18.988579936633553 175.620398369529,25.782997669202427 154.68444034027647,36.744438438053855 159.45067544256253,45.847776233140216 180.38663347181506,34.886335462638804 185.48157444077776,44.617489654939774 164.54561641152526,55.578930425441186 169.31185151216133,64.68226821887757 190.24780954141386,53.720827448376156 195.34275051037656,63.45198164067712 174.40679248112403,74.41342241117853 179.1730275834101,83.51676020461491 200.10898561266262,72.5553194341135 205.20392658162535,82.28647362806446 184.26796855237282,93.24791439691587 189.0342036530089,102.35125219035226 209.97016168226142,91.38981142150084 215.06510265122412,101.1209656138018 194.12914462197162,112.08240638265323 198.89537972425768,121.18574417608961 219.8313377535102,110.22430340723818 224.92627872247292,119.95545759953914 203.99032069322038,130.91689836839058 208.75655579385648,140.02023616182694 229.69251382310898,129.05879539297553 234.70527832664004,138.63299548556034 254.29531269456828,176.04925726828105 130.12785300359795,176.04925726828105 130.12785300359795,141.01282848160213 119.85226270227798,141.01282848160213 119.85226270227798,176.04925726828105 108.86801100359796,176.04925726828105 108.86801100359796,141.01282848160213 98.59242070227798,141.01282848160213 98.59242070227798,176.04925726828105 87.60816900524794,176.04925726828105 87.60816900524794,141.01282848160213 77.33257870392796,141.01282848160213 77.33257870392796,176.04925726828105 66.34832700524794,176.04925726828105 66.34832700524794,141.01282848160213 56.07273670392796,141.01282848160213 56.07273670392796,176.04925726828105 45.08848500524794,176.04925726828105 45.08848500524794,141.01282848160213 34.81289470392796,141.01282848160213 34.81289470392796,176.04925726828105 23.828643005247944,176.04925726828105 23.828643005247944,148.00771968538385 24.003114105728002,148.20762967491984 31.744916639968242,141.450984829672 0.0,105.07747671653208 8.275719947379255,97.85485636676368 40.020636588997476,134.2283644799036 47.76243912158773,127.47171963465576 16.017522481619494,91.09821152151584 24.29324243064873,83.87559117174743 56.03815907061697,120.24909928488735 63.779961604857206,113.49245443798952 32.03504496323899,77.1189463264996 40.31076491226822,69.89632597673119 72.05568155223646,106.26983408822113 79.7974840864767,99.51318924297328 48.052567444858475,63.13968113148336 56.32828739388771,55.91706078171495 88.07320403385596,92.29056889320488 95.81500656644621,85.53392404795704 64.07008992812796,49.16041593646711 72.3458098755072,41.937795586698705 104.09072651547545,78.31130369818864 111.83252904806571,71.5546588529408 80.08761240974745,35.18115074145087 88.36333235877667,27.958530391682466 120.10824899709493,64.3320385031724 127.85005153133518,57.57539365792456 96.10513488971695,21.201885544784645 104.38085483874619,13.979265195016243 136.12577147871443,50.35277330815615 143.86757401295466,43.59612846290832 112.12265737298642,7.222620349768404 120.39837732036568,0.0 152.14329396198391,36.37350811313991" style="fill:none;stroke:#ff0000" /><polyline points="233.5109352639884,163.47051741894106 25.644714995885952,163.47051741894106 168.31738905453585,38.95318653826508 233.5109352639884,163.47051741894106" style="fill:none;stroke:#ff0000" /></svg>