<?xml version="1.0" encoding="utf-8" ?>
<svg baseProfile="full" height="37mm" version="1.1" width="50mm" xmlns="http://www.w3.org/2000/svg" xmlns:ev="http://www.w3.org/2001/xml-events" xmlns:xlink="http://www.w3.org/1999/xlink"><defs /><polyline points="139.1415883348461,117.91618839263617 -18.525160400991208,117.91618839263617 169.24464633935398,-2.804141076933371 139.1415883348461,117.91618839263617" style="fill:none;stroke:#000000" /><polyline points="159.25339698941247,10.812023573984078 158.93476852627447,12.089798509834122 160.2925831445427,12.42838582501789 161.87123797784758,14.883843943283171 164.1819531519339,13.398246753943692 179.55745676010417,17.23231247386663 176.89978503477082,27.890199995061355 156.27709680259105,22.74768602937887 153.7908877675647,32.71796790596101 174.4135760013944,37.860481869993514 171.75590427606105,48.518369389538265 151.13321604553127,43.375855423855775 148.6470070105049,53.3461373020879 169.26969524433463,58.48865126612041 166.61202351900124,69.14653878566514 145.9893352868215,64.00402481998266 143.50312625179512,73.97430669656481 164.12581448562486,79.11682065894733 161.46814276029147,89.77470818014206 140.84545452976172,84.63219421445957 138.35924549473535,94.60247609104171 158.98193372856508,99.74499005507421 156.36712767539595,110.23097616264083 150.36840990168258,134.2872426754984 134.54049561855808,134.2872426754984 134.54049561855808,109.4199992352396 124.2649053172381,109.4199992352396 124.2649053172381,134.2872426754984 113.28065361855808,134.2872426754984 113.28065361855808,109.4199992352396 103.0050633172381,109.4199992352396 103.0050633172381,134.2872426754984 92.02081161855808,134.2872426754984 92.02081161855808,109.4199992352396 81.74522131723809,109.4199992352396 81.74522131723809,134.2872426754984 70.76096961855808,134.2872426754984 70.76096961855808,109.4199992352396 60.4853793172381,109.4199992352396 60.4853793172381,134.2872426754984 49.50112761855808,134.2872426754984 49.50112761855808,109.4199992352396 39.2255373172381,109.4199992352396 39.2255373172381,134.2872426754984 28.24128561855808,134.2872426754984 28.24128561855808,109.4199992352396 17.965695317238097,109.4199992352396 17.965695317238097,134.2872426754984 6.981443618558083,134.2872426754984 6.981443618558083,114.46506698891109 9.5690706385661,112.80143857160547 0.0,97.9175946283223 9.239466118042738,91.97738830069943 18.808536758258818,106.86123224563258 27.451908290808447,101.30426503443054 17.882837652242348,86.42042109114738 27.122303770285086,80.48021476352449 36.69137441050117,95.36405870680767 45.33474594470077,89.80709149725561 35.765675304484695,74.92324755232247 45.00514142417742,68.98304122634956 54.57421206274351,83.86688516963274 63.21758359694312,78.3099179584307 53.64851295672704,63.42607401679751 62.88797907641976,57.485867689174626 72.45704971498586,72.3697116324578 81.10042124918547,66.81274442290575 71.53135060896939,51.9289004779726 80.77081672866211,45.988694151999695 90.3398873688782,60.87253809528286 98.98325890142782,55.315570884080834 89.41418826121173,40.43172694079766 98.65365438090446,34.49152061317478 108.22272502112054,49.37536455810793 116.86609655367016,43.8183973469059 107.29702591510406,28.93455340362273 116.5364920331468,22.994347075999848 126.10556267336288,37.878191019283015 134.74893420591252,32.32122380973097 125.17986356734642,17.437379864797816 134.41932968538916,11.497173537174934 143.98840032560523,26.381017482108085 152.63177185980484,20.824050270906053 143.06270121958875,5.940206327622881 152.3021673376315,0.0 159.25339698941247,10.812023573984078" style="fill:none;stroke:#ff0000" /><polyline points="140.54114505790946,121.70850282615838 18.974724766528347,121.70850282615838 163.75162558538392,28.629027113757008 140.54114505790946,121.70850282615838" style="fill:none;stroke:#ff0000" /></svg>