<?xml version="1.0" encoding="utf-8" ?>
<svg baseProfile="full" height="70mm" version="1.1" width="95mm" xmlns="http://www.w3.org/2000/svg" xmlns:ev="http://www.w3.org/2001/xml-events" xmlns:xlink="http://www.w3.org/1999/xlink"><defs /><polyline points="365.2261012113528,224.7404902456194 6.190596938971938,224.7404902456194 120.69579938926013,33.11738102611391 365.2261012113528,224.7404902456194" style="fill:none;stroke:#000000" /><polyline points="136.56815833820966,23.71230499538841 120.06251313860749,44.77516332617578 128.15055175993524,51.113253518884136 144.65619695953743,30.050395189746748 153.30203134432577,36.825595050291895 136.79638614472358,57.88845337942928 144.88442476770135,64.22654357378762 161.39006996565354,43.16368524465023 170.03590435209185,49.938885103545395 153.5302591524897,71.00174343433277 161.61829777381746,77.3398336286911 178.12394297341962,56.27697529790373 186.76977735820796,63.05217515844888 170.26413216025577,84.11503348923625 178.35217078158354,90.45312368359458 194.85781597953573,69.39026535280722 203.50365036597407,76.16546521335236 186.99800516637188,97.22832354248975 195.08604378769965,103.56641373684809 211.59168898730184,82.5035554077107 220.23752337209018,89.27875526825585 203.731878174138,110.34161359739323 211.81991679546576,116.67970379175158 228.32556199341795,95.6168454609642 236.97139637985626,102.39204532150936 220.4657511802541,123.45490365229672 228.55378980158187,129.79299384665507 245.05943500118403,108.73013551586769 253.70526938597237,115.50533537641283 237.19962418802018,136.56819370555021 245.28766280934795,142.90628389990857 261.79330800730014,121.84342557077117 270.43914239373845,128.61862543131633 253.9334971941363,149.68148376045372 262.02153581546406,156.01957395481205 278.5271810150662,134.95671562402467 287.1730153998546,141.7319154845698 270.6673702019024,162.7947738153572 278.75540882323014,169.13286400971552 295.26105402283235,148.07000567892817 303.90688840762067,154.8452055394733 287.4012432080185,175.90806387026066 295.4892818293463,182.24615406296903 311.99492702894844,161.18329573383164 320.6407614137368,167.95849559437679 304.1351162157846,189.02135392351417 312.22315483711236,195.35944411787253 328.7288000367145,174.29658578873511 337.3746344215029,181.0717856476303 320.86898922190073,202.13464397841767 326.1487700881088,206.27207814483666 324.0744874254544,206.27207814483666 324.0744874254544,249.5213507185326 313.0902357267744,249.5213507185326 313.0902357267744,206.27207814483666 302.8146454254544,206.27207814483666 302.8146454254544,249.5213507185326 291.8303937267744,249.5213507185326 291.8303937267744,206.27207814483666 281.5548034254544,206.27207814483666 281.5548034254544,249.5213507185326 270.5705517267744,249.5213507185326 270.5705517267744,206.27207814483666 260.2949614254544,206.27207814483666 260.2949614254544,249.5213507185326 249.31070972677438,249.5213507185326 249.31070972677438,206.27207814483666 239.03511942545438,206.27207814483666 239.03511942545438,249.5213507185326 228.05086772677438,249.5213507185326 228.05086772677438,206.27207814483666 217.7752774254544,206.27207814483666 217.7752774254544,249.5213507185326 206.79102572677436,249.5213507185326 206.79102572677436,206.27207814483666 196.5154354254544,206.27207814483666 196.5154354254544,249.5213507185326 185.53118372677437,249.5213507185326 185.53118372677437,206.27207814483666 175.2555934254544,206.27207814483666 175.2555934254544,249.5213507185326 164.27134172677438,249.5213507185326 164.27134172677438,206.27207814483666 153.9957514254544,206.27207814483666 153.9957514254544,249.5213507185326 143.0114997267744,249.5213507185326 143.0114997267744,206.27207814483666 132.7359094254544,206.27207814483666 132.7359094254544,249.5213507185326 121.75165772677438,249.5213507185326 121.75165772677438,206.27207814483666 111.47606742545439,206.27207814483666 111.47606742545439,249.5213507185326 100.49181572677438,249.5213507185326 100.49181572677438,206.27207814483666 90.2162254254544,206.27207814483666 90.2162254254544,249.5213507185326 79.23197372677438,249.5213507185326 79.23197372677438,206.27207814483666 68.95638342545439,206.27207814483666 68.95638342545439,249.5213507185326 57.97213172677438,249.5213507185326 57.97213172677438,206.27207814483666 47.69654142545439,206.27207814483666 47.69654142545439,249.5213507185326 36.71228972677438,249.5213507185326 36.71228972677438,211.81462760184627 40.02871293860137,213.7963703729915 45.2995891812941,204.97562099171188 0.0,177.90665915526228 5.634384948573269,168.47758223175472 50.93397412821739,195.54654406655433 56.20485037091012,186.7257946836247 10.905261189616018,159.6568328504751 16.539646138189287,150.22775592531758 61.839235317833406,177.2967177584672 67.11011156052614,168.47596837718757 21.810522379232037,141.40700654073797 27.444907327805304,131.97792961723042 72.74449650744943,159.04689145203002 78.01537275014216,150.22614206910043 32.71578356884805,123.1571802359508 38.350168515771344,113.7281033091433 83.64975769706544,140.7970651439429 88.92063393975818,131.97631576266326 43.62104475846407,104.90735392621367 49.255429707037344,95.47827700270612 94.55501888668147,122.54723883585575 99.82589512937419,113.72648945457613 54.526305948080086,86.6575276214265 60.16069089500338,77.22845069461899 105.46028007629748,104.2974125294186 110.73115631899022,95.47666314813897 65.4315671376961,68.40770131168938 71.06595208626938,58.97862438818183 116.36554126591349,86.04758622133146 121.63641750860623,77.22683684005182 76.33682832731212,50.157875003602236 81.97121327588539,40.728798080094684 127.27080245552952,67.79775991489429 132.54167869822226,58.97701053196468 87.24208951692815,31.90804869881506 92.78559728779379,22.63105365797702 106.30887948206095,0.0 136.56815833820966,23.71230499538841" style="fill:none;stroke:#ff0000" /><polyline points="388.2782039688998,236.9426108691926 -20.623782652960152,236.9426108691926 109.78506049394697,18.704946038829895 388.2782039688998,236.9426108691926" style="fill:none;stroke:#ff0000" /></svg>