<?xml version="1.0" encoding="utf-8" ?>
<svg baseProfile="full" height="58mm" version="1.1" width="72mm" xmlns="http://www.w3.org/2000/svg" xmlns:ev="http://www.w3.org/2001/xml-events" xmlns:xlink="http://www.w3.org/1999/xlink"><defs /><polyline points="259.7334683875564,185.67171867580436 37.081686317666,185.67171867580439 103.79635779405362,-27.354206590135867 259.7334683875564,185.67171867580436" style="fill:none;stroke:#000000" /><polyline points="126.76729137879063,22.75359874913009 127.62101482993543,20.02758325738038 128.11424415135136,20.701384585949043 148.55773810547907,5.736542285045792 155.0457957600346,14.599887772860313 134.60230180755687,29.564730072113584 140.67177510166684,37.856246821120685 161.11526905414453,22.89140452021744 167.60332671035005,31.75475000803196 147.15983275622236,46.719592307285225 153.2293060519823,55.011109056292334 173.67280000446002,40.046266755389084 180.16085765901553,48.909612243203604 159.71736370653784,63.874454544106854 165.78683700064778,72.16597129146398 186.23033095477547,57.20112899056073 192.71838860933102,66.06447447837525 172.2748946568533,81.0293167792785 178.34436795096326,89.32083352663562 198.78786190344096,74.35599122738236 205.27591956129646,83.2193367135469 184.83242560551878,98.18417901445015 190.90189889962872,106.47569576180727 211.34539285375644,91.51085346255401 217.83345050831196,100.37419894871854 197.38995655583423,115.3390412496218 203.4594298499442,123.63055799697892 223.9029238024219,108.66571569772564 230.3909814602774,117.52906118389019 209.94748750449972,132.49390348479344 216.01696080025965,140.78542023215056 236.46045475273738,125.8205779328973 242.9485124072929,134.68392341906184 222.5050184548152,149.6487657199651 228.57449174892514,157.94028246897219 249.01798570140286,142.97544016806896 255.50604335595838,151.83878565423348 235.06254940513065,166.80362795513673 239.12323070883147,172.3509308932675 237.6421775569878,172.3509308932675 237.6421775569878,205.93369837415025 226.65792585830778,205.93369837415025 226.65792585830778,172.3509308932675 216.3823355569878,172.3509308932675 216.3823355569878,205.93369837415025 205.39808385830779,205.93369837415025 205.39808385830779,172.3509308932675 195.12249355698782,172.3509308932675 195.12249355698782,205.93369837415025 184.1382418583078,205.93369837415025 184.1382418583078,172.3509308932675 173.8626515569878,172.3509308932675 173.8626515569878,205.93369837415025 162.8783998583078,205.93369837415025 162.8783998583078,172.3509308932675 152.6028095569878,172.3509308932675 152.6028095569878,205.93369837415025 141.61855785830778,205.93369837415025 141.61855785830778,172.3509308932675 131.34296755698782,172.3509308932675 131.34296755698782,205.93369837415025 120.35871585830779,205.93369837415025 120.35871585830779,172.3509308932675 110.08312555698781,172.3509308932675 110.08312555698781,205.93369837415025 99.0988738583078,205.93369837415025 99.0988738583078,172.3509308932675 88.8232835569878,172.3509308932675 88.8232835569878,205.93369837415025 69.39962520440261,205.93369837415025 72.6542800728427,195.54129368378554 0.0,172.78769493630543 3.2827854224858735,162.30546686978374 75.93706549202861,185.05906561726385 79.00805830868795,175.25311032630006 6.353778235845254,152.49951157881995 9.636563658331127,142.0172835106483 82.29084372787386,164.77088225977838 85.3618365445332,154.9649269671646 12.707556471690507,132.2113282196845 15.99034189417638,121.72910015151282 88.64462196371912,144.48269890064293 91.71561478037846,134.67674360802914 19.06133470753576,111.92314486054903 22.344120130021633,101.44091679237737 94.99840019956437,124.19451554150746 98.06939301622371,114.38856024889367 25.415112943381015,91.63496150306354 28.697898365866887,81.15273343489187 101.35217843540961,103.90633218402196 104.42317125206895,94.10037689140819 31.768891179226266,71.34677814392808 35.05167660171214,60.86455007575641 107.70595667125487,83.6181488248865 110.77694948791421,73.81219353227273 38.12266941507152,51.05859478479261 41.40545483755739,40.576366716620946 114.05973490710012,63.32996546575104 117.13072772375946,53.524010173137256 44.476447650916775,30.770411425657148 47.75923307340265,20.288183359135466 120.41351314294538,43.04178210661557 123.48450595960472,33.23582681565178 50.83022588676203,10.482228068171665 54.1130113092479,0.0 126.76729137879063,22.75359874913009" style="fill:none;stroke:#ff0000" /><polyline points="270.30759643898415,193.35495852481023 86.52015980806912,193.35495852481023 141.58964248754745,17.513164772821547 270.30759643898415,193.35495852481023" style="fill:none;stroke:#ff0000" /></svg>