<?xml version="1.0" encoding="utf-8" ?>
<svg baseProfile="full" height="31mm" version="1.1" width="58mm" xmlns="http://www.w3.org/2000/svg" xmlns:ev="http://www.w3.org/2001/xml-events" xmlns:xlink="http://www.w3.org/1999/xlink"><defs /><polyline points="221.06742287189547,105.10717440597234 -2.160950545321846,105.10717440597234 88.44521683343054,19.841975629328463 221.06742287189547,105.10717440597234" style="fill:none;stroke:#000000" /><polyline points="101.16879565114593,8.559649711507806 87.72078845315552,29.476793011869603 96.36415469916635,35.03376844657644 109.81216189550678,14.116625146214638 119.05162236401492,20.056840264935747 105.60361516767449,40.973983563647565 114.24698141203534,46.5309589983544 127.69498860837577,25.613815699642583 136.9344490768839,31.554030818363692 123.48644188054347,52.47117411707551 132.12980812490432,58.02814955178234 145.57781532289474,37.11100625307053 154.8172757897529,43.051221371791634 141.36926859341247,63.968364670503455 150.0126348377733,69.52534010521029 163.46064203576373,48.60819680484849 172.7001025026219,54.5484119235696 159.25209530628146,75.4655552239314 167.89546155229226,81.02253065863823 181.34346874863272,60.10538735827643 190.58292921549088,66.04560247699754 177.13492201915042,86.96274577570937 185.77828826516125,92.5197212104162 199.2262954615017,71.60257791170437 208.46575593000983,77.54279303042549 197.74605290567413,94.21630911156535 194.66976951271133,94.21630911156535 194.66976951271133,111.91084020389425 183.6855178140313,111.91084020389425 183.6855178140313,94.21630911156535 173.4099275127113,94.21630911156535 173.4099275127113,111.91084020389425 162.4256758140313,111.91084020389425 162.4256758140313,94.21630911156535 152.1500855127113,94.21630911156535 152.1500855127113,111.91084020389425 141.1658338140313,111.91084020389425 141.1658338140313,94.21630911156535 130.89024351271132,94.21630911156535 130.89024351271132,111.91084020389425 119.9059918140313,111.91084020389425 119.9059918140313,94.21630911156535 109.63040151271132,94.21630911156535 109.63040151271132,111.91084020389425 98.6461498140313,111.91084020389425 98.6461498140313,94.21630911156535 88.37055951271131,94.21630911156535 88.37055951271131,111.91084020389425 77.3863078140313,111.91084020389425 77.3863078140313,94.21630911156535 67.11071751271132,94.21630911156535 67.11071751271132,111.91084020389425 56.1264658140313,111.91084020389425 56.1264658140313,94.21630911156535 45.85087551271131,94.21630911156535 45.85087551271131,111.91084020389425 34.8666238140313,111.91084020389425 34.8666238140313,94.21630911156535 24.591033512711316,94.21630911156535 24.591033512711316,111.91084020389425 13.606781814031299,111.91084020389425 13.606781814031299,99.05704043234371 14.565856202377812,98.15450067437234 13.606781814031299,97.13535035444666 13.606781814031299,94.21630911156535 10.859809515588688,94.21630911156535 0.0,82.6762466622452 7.999225219928778,75.14855237642439 22.56508142230659,90.62680638855153 30.048227596639954,83.58476979709982 15.482371394262142,68.10651578497269 23.481596615840903,60.57882149915187 38.047452818218716,76.05707551127901 45.53059899255208,69.0150389198273 30.964742790174267,53.53678490770016 38.963968010103045,46.009090621879345 53.529824212480854,61.48734463400649 61.012970388464204,54.44530804255478 46.44711418608639,38.96705403042764 54.44633940601517,31.439359744606826 69.01219560839299,46.917613756733964 76.49534178272634,39.87557716528226 61.92948558034853,24.397323153155114 69.79969104052844,16.99104329092658 87.85504462363492,0.0 101.16879565114593,8.559649711507806" style="fill:none;stroke:#ff0000" /><polyline points="191.5750340517094,81.63756926222534 19.458369781197295,81.63756926222534 89.3188048718204,15.89520252211018 191.5750340517094,81.63756926222534" style="fill:none;stroke:#ff0000" /></svg>