<?xml version="1.0" encoding="utf-8" ?>
<svg baseProfile="full" height="75mm" version="1.1" width="98mm" xmlns="http://www.w3.org/2000/svg" xmlns:ev="http://www.w3.org/2001/xml-events" xmlns:xlink="http://www.w3.org/1999/xlink"><defs /><polyline points="376.1402834238865,242.08788311802795 17.10469757218494,242.08788311802795 94.08114469001063,32.55143077699836 376.1402834238865,242.08788311802795" style="fill:none;stroke:#000000" /><polyline points="109.46162825167005,21.548264427819095 92.40899221987368,44.50299033924454 100.65756383528642,50.63069973063257 117.7101998654328,27.67597381755714 126.52763848578955,34.2262838538961 109.47500245399318,57.18100976532155 117.72357406940593,63.30871915505959 134.77621009955232,40.35399324198416 143.59364871990905,46.9043032799731 126.5410126881127,69.85902919139855 134.78958430352543,75.98673858113659 151.8422203336718,53.032012668061164 160.65965895402857,59.58232270440012 143.6070229222322,82.53704861582557 151.85559453764495,88.66475800721359 168.90823056779132,65.71003209413817 177.72566918814806,72.26034213047713 160.67303315635172,95.21506804190257 168.92160477011447,101.3427774332906 185.97424080191084,78.38805152021517 194.79167942226758,84.93836155655413 177.73904338882124,107.89308746797958 185.987615004234,114.02079685771763 203.04025103603033,91.06607094464219 211.8576896563871,97.61638098263113 194.80505362294073,120.57110689405658 203.05362523835348,126.69881628379463 220.10626127014984,103.74409037071919 228.92369989050658,110.29440040705815 211.87106385706025,133.2491263184836 220.119635472473,139.37683570987164 237.17227150426936,116.4221097967962 245.9897101246261,122.97241983313516 228.93707409117977,145.92714574456062 237.1856457065925,152.05485513594863 254.23828173838885,129.10012922122323 263.0557203587456,135.65043925921216 246.00308432529926,158.6051651706376 254.251655940712,164.73287456037565 271.30429197250834,141.7781486473002 280.1217305912151,148.32845868528915 263.0690945594188,171.28318459671462 271.3176661748315,177.41089398645266 288.3703022049779,154.45616807337723 297.18774082533463,161.0064781097162 280.1351047935383,183.96120402114164 288.38367640895103,190.08891341252965 305.4363124390974,167.13418749945424 314.25375105945415,173.68449753579318 297.2011150276578,196.63922344721863 305.44968664307055,202.76693283860666 322.5023226732169,179.81220692388126 331.31976129357366,186.3625169618702 314.2671252617773,209.31724287329564 322.51569687719,215.44495226303368 339.5683329073364,192.49022634995825 348.3857715276932,199.04053638794718 331.3331354958968,221.99526229937265 334.9886288485681,224.71085985792587 334.9886288485681,266.8687648121719 324.0043771498881,266.8687648121719 324.0043771498881,223.619447486044 313.7287868485681,223.619447486044 313.7287868485681,266.8687648121719 302.7445351498881,266.8687648121719 302.7445351498881,223.619447486044 292.4689448485681,223.619447486044 292.4689448485681,266.8687648121719 281.48469314988813,266.8687648121719 281.48469314988813,223.619447486044 271.20910284856814,223.619447486044 271.20910284856814,266.8687648121719 260.2248511498881,266.8687648121719 260.2248511498881,223.619447486044 249.94926084856812,223.619447486044 249.94926084856812,266.8687648121719 238.96500914988812,266.8687648121719 238.96500914988812,223.619447486044 228.68941884856812,223.619447486044 228.68941884856812,266.8687648121719 217.7051671498881,266.8687648121719 217.7051671498881,223.619447486044 207.42957684856813,223.619447486044 207.42957684856813,266.8687648121719 196.4453251498881,266.8687648121719 196.4453251498881,223.619447486044 186.1697348485681,223.619447486044 186.1697348485681,266.8687648121719 175.1854831498881,266.8687648121719 175.1854831498881,223.619447486044 164.90989284856812,223.619447486044 164.90989284856812,266.8687648121719 153.9256411498881,266.8687648121719 153.9256411498881,223.619447486044 143.65005084856813,223.619447486044 143.65005084856813,266.8687648121719 132.6657991498881,266.8687648121719 132.6657991498881,223.619447486044 122.39020884856812,223.619447486044 122.39020884856812,266.8687648121719 111.40595714988811,266.8687648121719 111.40595714988811,223.619447486044 101.13036684856812,223.619447486044 101.13036684856812,266.8687648121719 90.1461151498881,266.8687648121719 90.1461151498881,223.619447486044 79.87052484856812,223.619447486044 79.87052484856812,266.8687648121719 68.88627314988811,266.8687648121719 68.88627314988811,223.619447486044 58.610682848568125,223.619447486044 58.610682848568125,266.8687648121719 47.626431149888106,266.8687648121719 47.626431149888106,223.619447486044 37.35084084856812,223.619447486044 37.35084084856812,232.72757066133227 0.0,219.0061632717674 3.7877297072831815,208.69564005334936 42.865102312004524,223.05131550799092 46.40846236054041,213.4059873326225 7.331089755819064,199.05031187798093 11.118819464752226,188.73978865956292 50.19619206782359,203.09546411420447 53.739552118009456,193.45013593883604 14.662179513288109,179.09446048419449 18.44990922057129,168.78393726577647 57.52728182529263,183.13961272041803 61.0706418754785,173.49428454669956 21.993269270757153,159.13860909040804 25.780998978040333,148.82808587199003 64.85837158276168,163.18376132828155 68.40173163129757,153.53843315291311 29.324359028226198,139.18275769827156 33.11208873550938,128.87223447985355 72.18946134023072,143.2279099344951 75.73282138876661,133.58258175912667 36.65544878404526,119.22690630448511 40.443178492978426,108.9163830860671 79.52055109604979,123.27205854070866 83.06391114623565,113.62673036534022 43.98653854151431,99.27105491069867 47.77426824879749,88.96053169228064 86.85164085351883,103.3162071469222 90.39500090205472,93.67087897155376 51.31762829898335,79.3152035169122 55.105358006266535,69.0046802984942 94.18273061098787,83.36035575313575 97.72609065952376,73.71502757776732 58.648718056452395,59.35935212312576 62.43644776373558,49.04882890470774 101.51382036845692,63.404504359349296 105.05718041699281,53.75917618563084 65.97980781227146,39.40350072933931 69.70644510569281,29.259276274158655 80.45529146379982,0.0 109.46162825167005,21.548264427819095" style="fill:none;stroke:#ff0000" /><polyline points="401.6643076290184,254.29002496283186 0.4386114392014891,254.29002496283186 86.46052626441863,20.131038274130265 401.6643076290184,254.29002496283186" style="fill:none;stroke:#ff0000" /></svg>